<svg xmlns="http://www.w3.org/2000/svg" width="230.519" height="55.766" viewBox="0 0 230.519 55.766"><path d="M299.667,641.5l-.182.707h2.269l-1.126-4.433C300.294,639.057,299.968,640.309,299.667,641.5Z" transform="translate(-281.298 -612.494)" fill="none"/><path d="M830.727,653.464c-.339,1.228-.683,2.5-.99,3.707l-.182.707h2.27l-.18-.7C831.39,656.172,831.067,654.863,830.727,653.464Z" transform="translate(-651.328 -623.447)" fill="none"/><path d="M475.041,561.958h-4.192a2.219,2.219,0,0,0-2.217,2.217s.007,22.086.016,27.424a1.406,1.406,0,0,1-2.7.547l-7.537-17.825a2.213,2.213,0,0,0-2.041-1.353h-5.587a2.219,2.219,0,0,0-2.217,2.217v35.544a2.219,2.219,0,0,0,2.217,2.216h4.192a2.219,2.219,0,0,0,2.217-2.216l-.016-16.41a1.393,1.393,0,0,1,1.126-1.38,1.44,1.44,0,0,1,.289-.03,1.391,1.391,0,0,1,1.287.86l7.537,17.82a2.212,2.212,0,0,0,2.042,1.355h5.586a2.219,2.219,0,0,0,2.217-2.217V564.175A2.219,2.219,0,0,0,475.041,561.958Z" transform="translate(-385.367 -559.569)" fill="#ed8b39"/><path d="M469.517,554.045h-4.192a4.611,4.611,0,0,0-4.606,4.606s0,14.182.011,22.565l-5.645-13.35a4.6,4.6,0,0,0-4.241-2.811h-5.587a4.611,4.611,0,0,0-4.606,4.606v35.544a4.611,4.611,0,0,0,4.606,4.605h4.192a4.611,4.611,0,0,0,4.606-4.607l-.011-11.554L459.688,607a4.6,4.6,0,0,0,4.243,2.814h5.586a4.611,4.611,0,0,0,4.606-4.606V558.651A4.611,4.611,0,0,0,469.517,554.045Zm2.217,51.16a2.219,2.219,0,0,1-2.217,2.217h-5.586a2.212,2.212,0,0,1-2.042-1.355l-7.537-17.82a1.391,1.391,0,0,0-1.287-.86,1.435,1.435,0,0,0-.289.03,1.393,1.393,0,0,0-1.126,1.38l.016,16.41a2.219,2.219,0,0,1-2.217,2.216h-4.192a2.219,2.219,0,0,1-2.217-2.216V569.661a2.219,2.219,0,0,1,2.217-2.217h5.587a2.213,2.213,0,0,1,2.041,1.353l7.537,17.825a1.406,1.406,0,0,0,2.7-.547c-.009-5.338-.016-27.425-.016-27.424a2.219,2.219,0,0,1,2.217-2.217h4.192a2.219,2.219,0,0,1,2.217,2.217Z" transform="translate(-379.843 -554.045)" fill="#52331c"/><path d="M597.8,605.359H580.319a2.219,2.219,0,0,1-2.217-2.217V571.761a2.219,2.219,0,0,1,2.217-2.217h4.9a2.22,2.22,0,0,0,2.217-2.217v-3.152a2.22,2.22,0,0,0-2.217-2.217H561.936a2.219,2.219,0,0,0-2.217,2.217v3.152a2.219,2.219,0,0,0,2.217,2.217h4.9a2.219,2.219,0,0,1,2.217,2.217v31.381a2.219,2.219,0,0,1-2.217,2.217h-4.9a2.219,2.219,0,0,0-2.217,2.217v3.153a2.219,2.219,0,0,0,2.217,2.216H597.8a2.219,2.219,0,0,0,2.217-2.216v-3.153A2.219,2.219,0,0,0,597.8,605.359Z" transform="translate(-462.962 -559.569)" fill="#ed8b39"/><path d="M592.281,597.446H574.968V566.41H579.7A4.611,4.611,0,0,0,584.3,561.8v-3.152a4.611,4.611,0,0,0-4.606-4.606H556.412a4.611,4.611,0,0,0-4.606,4.606V561.8a4.611,4.611,0,0,0,4.606,4.606h4.729v31.036h-4.729a4.611,4.611,0,0,0-4.606,4.606v3.153a4.611,4.611,0,0,0,4.606,4.605h35.868a4.611,4.611,0,0,0,4.606-4.605v-3.153A4.611,4.611,0,0,0,592.281,597.446Zm2.217,7.759a2.219,2.219,0,0,1-2.217,2.216H556.412a2.219,2.219,0,0,1-2.217-2.216v-3.153a2.22,2.22,0,0,1,2.217-2.217h4.9a2.219,2.219,0,0,0,2.217-2.217V566.238a2.219,2.219,0,0,0-2.217-2.217h-4.9A2.22,2.22,0,0,1,554.2,561.8v-3.152a2.219,2.219,0,0,1,2.217-2.217H579.7a2.22,2.22,0,0,1,2.217,2.217V561.8a2.22,2.22,0,0,1-2.217,2.217h-4.9a2.219,2.219,0,0,0-2.217,2.217v31.381a2.219,2.219,0,0,0,2.217,2.217h17.485a2.219,2.219,0,0,1,2.217,2.217Z" transform="translate(-457.438 -554.045)" fill="#52331c"/><path d="M800.234,599.987a2.214,2.214,0,0,0-2.123-1.562h-7.575a2.214,2.214,0,0,0-2.122,1.562l-11.066,35.531a2.223,2.223,0,0,0,2.123,2.884h4.514a2.222,2.222,0,0,0,2.153-1.67l1.583-6.167a2.223,2.223,0,0,1,2.153-1.671h8.579a2.222,2.222,0,0,1,2.154,1.674l1.571,6.161a2.222,2.222,0,0,0,2.154,1.674h4.844a2.223,2.223,0,0,0,2.123-2.884Zm-2.958,21a2.209,2.209,0,0,1-1.755.859h-2.7a2.223,2.223,0,0,1-2.153-2.776l.233-.911c.369-1.456.788-2.983,1.187-4.422a2.209,2.209,0,0,1,4.276.065c.4,1.641.783,3.206,1.076,4.361l.232.91A2.209,2.209,0,0,1,797.276,620.988Z" transform="translate(-614.812 -585.026)" fill="#ed8b39"/><path d="M808.2,629.9a4.718,4.718,0,0,0-.146-.613l-11.065-35.531h0a4.591,4.591,0,0,0-4.4-3.241h-7.575a4.592,4.592,0,0,0-4.4,3.241l-11.066,35.531a4.612,4.612,0,0,0,4.4,5.984h4.514a4.61,4.61,0,0,0,4.468-3.465l1.551-6.043h8.321l1.539,6.036a4.609,4.609,0,0,0,4.469,3.472h4.844a4.622,4.622,0,0,0,4.584-4.068,4.625,4.625,0,0,1-.035-.544Zm-2.758,2.076a2.2,2.2,0,0,1-1.791.905H798.8a2.222,2.222,0,0,1-2.154-1.674l-1.571-6.161a2.222,2.222,0,0,0-2.154-1.674h-8.579a2.223,2.223,0,0,0-2.153,1.671l-1.583,6.167a2.222,2.222,0,0,1-2.153,1.67h-4.514a2.223,2.223,0,0,1-2.123-2.884l11.066-35.531a2.214,2.214,0,0,1,2.123-1.562h7.575a2.213,2.213,0,0,1,2.123,1.562l11.065,35.531A2.2,2.2,0,0,1,805.438,631.973Z" transform="translate(-609.283 -579.502)" fill="#52331c"/><path d="M828.323,649.821c-.293-1.155-.678-2.72-1.076-4.361a2.209,2.209,0,0,0-4.275-.065c-.4,1.439-.818,2.967-1.187,4.422l-.233.911A2.223,2.223,0,0,0,823.7,653.5h2.7a2.224,2.224,0,0,0,2.154-2.773Zm-4.405,1.294.182-.707c.307-1.212.651-2.479.99-3.707.341,1.4.663,2.708.918,3.71l.18.7Z" transform="translate(-645.692 -616.683)" fill="#52331c"/><path d="M930.589,612.632H917.238a2.225,2.225,0,0,1-2.223-2.223V574.6a2.225,2.225,0,0,0-2.222-2.223h-4.585a2.225,2.225,0,0,0-2.223,2.223V618a2.225,2.225,0,0,0,2.223,2.223h22.381A2.225,2.225,0,0,0,932.812,618v-3.141A2.225,2.225,0,0,0,930.589,612.632Z" transform="translate(-704.682 -566.842)" fill="#ed8b39"/><path d="M925.065,604.719H911.881V569.076a4.617,4.617,0,0,0-4.612-4.612h-4.585a4.617,4.617,0,0,0-4.612,4.612v43.4a4.637,4.637,0,0,0,4.612,4.612h22.381a4.617,4.617,0,0,0,4.612-4.612v-3.141A4.617,4.617,0,0,0,925.065,604.719Zm2.223,7.753a2.225,2.225,0,0,1-2.223,2.223H902.684a2.225,2.225,0,0,1-2.223-2.223v-43.4a2.225,2.225,0,0,1,2.223-2.223h4.585a2.225,2.225,0,0,1,2.222,2.223v35.81a2.225,2.225,0,0,0,2.223,2.223h13.351a2.225,2.225,0,0,1,2.223,2.223Z" transform="translate(-699.158 -561.318)" fill="#49301c"/><path d="M695.833,565.113h-5.58a2.228,2.228,0,0,0-2.14,1.627L684.626,579.3l-1.444,5.511-1.469-5.54-3.464-12.526a2.227,2.227,0,0,0-2.141-1.629H670.53a2.224,2.224,0,0,0-2.221,2.221v32.389a2.224,2.224,0,0,0,2.221,2.221h3.087a2.223,2.223,0,0,0,2.221-2.221V588a1.407,1.407,0,0,1,2.744-.439l1.779,5.414a2.218,2.218,0,0,0,2.11,1.528h1.164a2.215,2.215,0,0,0,2.114-1.538l1.9-5.89a1.407,1.407,0,0,1,2.746.432l0,15.361a2.223,2.223,0,0,0,2.221,2.221h3.211a2.223,2.223,0,0,0,2.221-2.221V567.334A2.224,2.224,0,0,0,695.833,565.113Z" transform="translate(-538.766 -561.771)" fill="#ed8b39"/><path d="M694.919,597.345V561.81a4.616,4.616,0,0,0-4.61-4.61h-5.58a4.624,4.624,0,0,0-4.442,3.377l-2.636,9.493-2.624-9.489a4.623,4.623,0,0,0-4.444-3.382h-5.577a4.616,4.616,0,0,0-4.61,4.61V594.2a4.616,4.616,0,0,0,4.61,4.61h3.087a4.615,4.615,0,0,0,4.61-4.61V588.56a4.6,4.6,0,0,0,4.244,2.81h1.164a4.6,4.6,0,0,0,4.373-3.15l0,9.126a4.616,4.616,0,0,0,4.61,4.61h3.211A4.616,4.616,0,0,0,694.919,597.345Zm-2.389,0a2.223,2.223,0,0,1-2.221,2.221H687.1a2.223,2.223,0,0,1-2.221-2.221l0-15.361a1.407,1.407,0,0,0-2.746-.432l-1.9,5.89a2.215,2.215,0,0,1-2.114,1.538h-1.164a2.218,2.218,0,0,1-2.11-1.528l-1.779-5.414a1.407,1.407,0,0,0-2.744.439V594.2a2.223,2.223,0,0,1-2.221,2.221h-3.087a2.224,2.224,0,0,1-2.221-2.221V561.81a2.224,2.224,0,0,1,2.221-2.221h5.577a2.227,2.227,0,0,1,2.141,1.629l3.464,12.526,1.469,5.54,1.444-5.511,3.487-12.557a2.228,2.228,0,0,1,2.14-1.627h5.58a2.224,2.224,0,0,1,2.221,2.221Z" transform="translate(-533.242 -556.247)" fill="#52331c"/><circle cx="3.011" cy="3.011" r="3.011" transform="translate(33.788 12.733) rotate(-13.283)" fill="#ed8b39"/><path d="M350.67,596.549a5.4,5.4,0,1,0-5.4-5.4A5.407,5.407,0,0,0,350.67,596.549Zm0-8.412a3.011,3.011,0,1,1-3.012,3.011A3.015,3.015,0,0,1,350.67,588.137Z" transform="translate(-313.259 -576.176)" fill="#52331c"/><path d="M407.884,596.672a3.011,3.011,0,1,0,3.012-3.011A3.015,3.015,0,0,0,407.884,596.672Z" transform="translate(-356.969 -581.7)" fill="#ed8b39"/><path d="M405.371,596.549h0a5.4,5.4,0,1,0-5.4-5.4A5.407,5.407,0,0,0,405.372,596.549Zm3.011-5.4a3.011,3.011,0,1,1-3.011-3.012A3.015,3.015,0,0,1,408.383,591.149Z" transform="translate(-351.445 -576.176)" fill="#52331c"/><path d="M301.293,621.48h-5.319a2.051,2.051,0,0,1-1.821-2.217V608.329a2.9,2.9,0,0,1,.129-.935l.133-.383.339-.223a5.4,5.4,0,0,1,2.123-.7,2.861,2.861,0,0,0,1.238-.382l.051-.043a1.542,1.542,0,0,0,.368-.466l.008-.018a3.473,3.473,0,0,0,.172-1.167l.006-.122a25.624,25.624,0,0,0-.043-3.151,2.541,2.541,0,0,0-1.821-2.217,19.24,19.24,0,0,0-6.3-.894,20.01,20.01,0,0,0-6.535.893,2.7,2.7,0,0,0-1.821,2.217,12.943,12.943,0,0,0-.027,2.286c.015.348.027.635.027.867a2.488,2.488,0,0,0,.486,1.5l.027.037a1.3,1.3,0,0,0,.194.205,2.008,2.008,0,0,0,.182.153,2.987,2.987,0,0,0,1.118.35,6.234,6.234,0,0,1,1.846.582l.481.258.12.532a3.8,3.8,0,0,1,.071.816v10.933a2.051,2.051,0,0,1-1.822,2.217H280.37l-10.213-37.142a2.206,2.206,0,0,0-2.111-1.54h-7.583a2.206,2.206,0,0,0-2.111,1.54L247.281,624.6a2.218,2.218,0,0,0,2.112,2.893h4.528a2.191,2.191,0,0,0,2.137-1.629l3.178-10.967a2.2,2.2,0,0,1,2.138-1.63h5.442a2.242,2.242,0,0,1,2.158,1.7l3.127,10.818a2.228,2.228,0,0,0,2.158,1.705h27.034a2.051,2.051,0,0,0,1.822-2.217V623.7A2.051,2.051,0,0,0,301.293,621.48Zm-34.082-16.118a2.2,2.2,0,0,1-1.751.857h-2.712a2.217,2.217,0,0,1-2.147-2.769h0l.236-.918c.309-1.221.645-2.51.989-3.832l.145-.558a2.216,2.216,0,0,1,4.292.014l1.345,5.3A2.2,2.2,0,0,1,267.211,605.361Z" transform="translate(-244.783 -574.116)" fill="#ed8b39"/><path d="M295.757,613.567h-4.751V603.072c.228-.06.491-.106.751-.151a4.76,4.76,0,0,0,2.32-.873c.071-.057.14-.117.16-.136a3.9,3.9,0,0,0,.932-1.236l.026-.059a5.549,5.549,0,0,0,.37-2.018l.005-.119a28.207,28.207,0,0,0-.051-3.482,4.918,4.918,0,0,0-3.325-4.219,25.6,25.6,0,0,0-14.617.012,5.075,5.075,0,0,0-3.278,4.058,14.687,14.687,0,0,0-.053,2.794c.012.276.024.528.024.729a4.891,4.891,0,0,0,.96,2.928,3.518,3.518,0,0,0,.522.576,4.407,4.407,0,0,0,.387.321,4.919,4.919,0,0,0,2.07.766c.2.04.4.078.585.126v10.478h-2.138l-9.736-35.408-.011-.038a4.585,4.585,0,0,0-4.4-3.236h-7.583a4.585,4.585,0,0,0-4.4,3.236l-11.078,40.29a4.606,4.606,0,0,0,4.406,5.948h4.528a4.567,4.567,0,0,0,4.442-3.39l3.141-10.837h5.182l3.11,10.759a4.6,4.6,0,0,0,4.463,3.467h27.034a4.427,4.427,0,0,0,4.211-4.606v-1.58A4.426,4.426,0,0,0,295.757,613.567Zm1.822,6.185a2.051,2.051,0,0,1-1.822,2.217H268.723a2.228,2.228,0,0,1-2.158-1.705l-3.127-10.818a2.242,2.242,0,0,0-2.158-1.7h-5.442a2.2,2.2,0,0,0-2.138,1.63l-3.178,10.967a2.191,2.191,0,0,1-2.137,1.629h-4.528a2.218,2.218,0,0,1-2.112-2.893l11.07-40.262a2.206,2.206,0,0,1,2.111-1.54h7.583a2.206,2.206,0,0,1,2.111,1.54l10.213,37.142h4.527a2.051,2.051,0,0,0,1.822-2.217V602.805a3.8,3.8,0,0,0-.071-.816l-.12-.532-.481-.258a6.233,6.233,0,0,0-1.846-.582,2.988,2.988,0,0,1-1.118-.35,2.028,2.028,0,0,1-.182-.153,1.305,1.305,0,0,1-.194-.205l-.027-.037a2.488,2.488,0,0,1-.486-1.5c0-.231-.012-.519-.027-.866a12.94,12.94,0,0,1,.027-2.286A2.7,2.7,0,0,1,278.481,593a20.008,20.008,0,0,1,6.535-.893,19.24,19.24,0,0,1,6.3.894,2.541,2.541,0,0,1,1.821,2.217,25.617,25.617,0,0,1,.043,3.151l-.006.122a3.472,3.472,0,0,1-.172,1.167l-.008.018a1.541,1.541,0,0,1-.368.466l-.051.043a2.86,2.86,0,0,1-1.238.382,5.4,5.4,0,0,0-2.123.7l-.339.223-.133.383a2.9,2.9,0,0,0-.129.935v10.933a2.051,2.051,0,0,0,1.821,2.217h5.319a2.05,2.05,0,0,1,1.822,2.216Z" transform="translate(-239.248 -568.592)" fill="#49301c"/><path d="M297.137,629.8a2.216,2.216,0,0,0-4.292-.014l-.145.558c-.344,1.321-.68,2.611-.989,3.832l-.236.918h0a2.217,2.217,0,0,0,2.147,2.769h2.712a2.217,2.217,0,0,0,2.148-2.764Zm-3.293,5.675.182-.707c.3-1.19.627-2.443.961-3.726l1.126,4.433Z" transform="translate(-275.657 -605.76)" fill="#52331c"/></svg>