<svg xmlns="http://www.w3.org/2000/svg" xmlns:xlink="http://www.w3.org/1999/xlink" width="60" height="59" viewBox="0 0 60 59"><defs><clipPath id="a"><circle cx="29.5" cy="29.5" r="29.5" transform="translate(-0.142 -0.315)" fill="#fdc675" stroke="#f4f5f3" stroke-width="1"/></clipPath></defs><g transform="translate(-189 -479)"><g transform="translate(190 479)" fill="#fdc675" stroke="#f4f5f3" stroke-width="1"><circle cx="29.5" cy="29.5" r="29.5" stroke="none"/><circle cx="29.5" cy="29.5" r="29" fill="none"/></g><g transform="translate(189.142 479.315)" clip-path="url(#a)"><g transform="translate(24.342 10.587)"><path d="M278.712,640.243l2.049,8.227-2.274,9.881-1.47,1.389-.1,1.076L279.3,661l5.219-7.417-.038-3.869L283.148,644l-.608-2.731Z" transform="translate(-269.176 -621.29)" fill="#baa086"/><path d="M274.219,642.746l.02.056c.1.281.552,1.582.977,3.067.212.742.418,1.531.569,2.256a9.853,9.853,0,0,1,.245,1.855q0,.071,0,.136h0c-.021.506-.119,1.4-.273,2.443a41.638,41.638,0,0,1-1.017,4.935,10.3,10.3,0,0,1-.654,1.789,1.87,1.87,0,0,1-.281.426.3.3,0,0,1-.059.05l.032.06-.018-.065-.014.005.032.06-.018-.065.042.154v-.16l-.042.005.042.154v-.16h0a2.166,2.166,0,0,0-.808.148,1.761,1.761,0,0,0-.819.659,1.612,1.612,0,0,0-.275.883,1.286,1.286,0,0,0,.079.452,1.052,1.052,0,0,0,.272.408,1.572,1.572,0,0,0,.451.277,3.286,3.286,0,0,0,.761.2,5.273,5.273,0,0,0,.793.059,4.233,4.233,0,0,0,.646-.045,2.224,2.224,0,0,0,.286-.062,1.2,1.2,0,0,0,.277-.116,8.311,8.311,0,0,0,2.545-2.5,17.65,17.65,0,0,0,2.205-4.808,20.313,20.313,0,0,0,.508-2.062c.055-.294.1-.559.124-.788a5.045,5.045,0,0,0,.042-.585c0-.028,0-.054,0-.078a.524.524,0,0,0-1.048.035v.043a5.213,5.213,0,0,1-.064.675,19.626,19.626,0,0,1-1.409,4.75,13.333,13.333,0,0,1-1.464,2.562,6.946,6.946,0,0,1-1.974,1.852l.037.062-.031-.065-.005,0,.036.062-.031-.065a.437.437,0,0,1-.065.021,2.674,2.674,0,0,1-.616.059,4.007,4.007,0,0,1-.829-.083,1.865,1.865,0,0,1-.318-.1.561.561,0,0,1-.151-.086l-.027.029.034-.022-.007-.007-.027.029.034-.022-.009-.023a.283.283,0,0,1-.008-.07.523.523,0,0,1,.042-.2.669.669,0,0,1,.251-.3.99.99,0,0,1,.561-.147h0a.964.964,0,0,0,.554-.185,1.627,1.627,0,0,0,.35-.346,4.247,4.247,0,0,0,.494-.891,15.761,15.761,0,0,0,.715-2.209c.324-1.257.6-2.681.8-3.954.1-.636.184-1.234.245-1.755s.1-.963.115-1.3h0c0-.058,0-.118,0-.18a11.275,11.275,0,0,0-.3-2.222c-.265-1.228-.657-2.564-.984-3.6s-.587-1.763-.589-1.767a.524.524,0,1,0-.987.353Z" transform="translate(-265.112 -622.749)" fill="#361e0e"/><path d="M394.252,681.591l1.544,6.841-2.442,2.811-3.123.767.028,1.249,3.869.585,6.99-6.187-2.668-3.4Z" transform="translate(-360.898 -654.758)" fill="#baa086"/><path d="M498.681,643.728s5.871.169,6.724,5.661c1.207,7.772.646,7.754,2.031,9.415s1.108,7.108-2.492,6.369-5.1-2.113-6.574-7.1.661-9.317-.631-9.87S498.681,643.728,498.681,643.728Z" transform="translate(-447.591 -624.111)" fill="#baa086"/><path d="M504.964,655.3c-.91,2.724-4.048,5.633-5.727,6.81-.73.511.156,2.643.156,2.643,2.485-.673,6.989-7.389,6.989-7.389S505.392,654.017,504.964,655.3Z" transform="translate(-448.896 -633.239)" fill="#605045"/><path d="M521.1,713.212a8.286,8.286,0,0,1-5.051,5.316c-.854.253.738,2.449,1.843,2.15,2.485-.673,4.627-5.524,4.627-5.524Z" transform="translate(-462.545 -680.353)" fill="#605045"/><path d="M509.593,677.183c-.91,2.724-4.983,7.679-7,8.276,0,0-.009,2.549,1.109,2.3,3.445-.757,6.344-6.907,6.344-6.907S510.021,675.9,509.593,677.183Z" transform="translate(-451.847 -651.019)" fill="#605045"/><path d="M497.877,633.231l-.215.478h0a17.5,17.5,0,0,1,3.063,1.877,12.094,12.094,0,0,1,2.168,2.1,6.33,6.33,0,0,1,1.289,2.653,47.414,47.414,0,0,1,.667,6.169,9.332,9.332,0,0,0,.351,2.1,3.5,3.5,0,0,0,.407.859,2.8,2.8,0,0,0,.658.7,2.172,2.172,0,0,1,.688.872,2.821,2.821,0,0,1,.228,1.139,3.543,3.543,0,0,1-.771,2.19,2.738,2.738,0,0,1-.872.717,2.462,2.462,0,0,1-1.135.269,2.987,2.987,0,0,1-.6-.063,6.706,6.706,0,0,1-3.828-2.136,8.884,8.884,0,0,1-1.858-3.841,14.979,14.979,0,0,1-.374-3.5,33.459,33.459,0,0,1,.228-3.546c.115-1.083.233-2.025.234-2.779a3.373,3.373,0,0,0-.118-.991,1.381,1.381,0,0,0-.217-.431,1.029,1.029,0,0,0-.412-.323l-.024-.018a.372.372,0,0,1-.067-.151,1.529,1.529,0,0,1-.039-.375,5.332,5.332,0,0,1,.155-1.129,15.3,15.3,0,0,1,.548-1.793c.092-.251.175-.462.235-.609.03-.074.054-.131.07-.17l.019-.044.006-.014-.481-.208-.215.478.215-.478-.481-.208c0,.009-.277.641-.553,1.47-.138.415-.277.879-.383,1.343a6.306,6.306,0,0,0-.181,1.362,2.261,2.261,0,0,0,.14.843,1.288,1.288,0,0,0,.235.383,1.113,1.113,0,0,0,.391.28l.015-.036-.025.031.009.005.016-.036-.025.031.009-.011-.01.01h0l.009-.011-.01.01a.168.168,0,0,1,.025.042.972.972,0,0,1,.069.265,3.457,3.457,0,0,1,.028.482c0,.643-.111,1.579-.228,2.668a34.4,34.4,0,0,0-.234,3.657,16.01,16.01,0,0,0,.4,3.746,9.922,9.922,0,0,0,2.09,4.288,7.763,7.763,0,0,0,4.4,2.471,4.046,4.046,0,0,0,.813.085,3.517,3.517,0,0,0,1.613-.384,3.956,3.956,0,0,0,1.64-1.63,4.62,4.62,0,0,0,.574-2.211,3.863,3.863,0,0,0-.317-1.563,3.222,3.222,0,0,0-1.019-1.287,1.749,1.749,0,0,1-.414-.437,3.2,3.2,0,0,1-.43-1.2,29.884,29.884,0,0,1-.276-3.051,35.491,35.491,0,0,0-.562-4.5,7.4,7.4,0,0,0-1.525-3.14,14.749,14.749,0,0,0-3.592-3.127,17.232,17.232,0,0,0-2-1.114l-.485-.218-.211.488Z" transform="translate(-446.735 -615.051)" fill="#361e0e"/><path d="M250.727,547.946c.277-.738,3.465-3.812,4.015-3.7.662.139,1.2,3.829,1.2,3.829s4.765-2,17.045-.932c10.34.9,13.545,4.369,15.708,6a9.511,9.511,0,0,1,3.992,6.486c.738,3.508-2.218,10.244-7.709,13.94-.873.588-1.662,3.692-.923,6.462a4.86,4.86,0,0,1-1.945,5.125c-.831.738-3.6-.428-4.613-.613s.078-1.608.355-1.7.744-.034,1.482-.218.224-1.19.618-1.973c.865-1.717-3.624-7.663-5.378-8.863s-12.211-4.772-14.611.951-2.533,5.156-4.652,8.39a5.674,5.674,0,0,1-5.5,2.41,1.038,1.038,0,0,1-.26-1.888c1.134-.632,1.736-.789,1.921-1.251.339-.848.369-2.123-.554-7.477a31.254,31.254,0,0,0-3.248-9.365c-13.061-.114-7.322-10.8-7.322-10.8s-1.642-4.195-.96-4.763c.593-.494,4.745,1.464,4.93,1.347C248.3,546.81,250.727,547.946,250.727,547.946Z" transform="translate(-238.562 -543.588)" fill="#baa086"/><path d="M253.721,587.441a2.53,2.53,0,0,1,1.029,2.536,6.026,6.026,0,0,1-1.239,2.293c-1.34,1.531-3.063,1.723-3.714,1.249-.979-.713-1.543-3.126.255-5.344A2.728,2.728,0,0,1,253.721,587.441Z" transform="translate(-246.484 -578.218)" fill="#605045"/><path d="M298.329,579.922a2.432,2.432,0,0,0,.151,2.677,5.733,5.733,0,0,0,2.359,1.589c1.246.389,2.934.393,3.511-.527.784-1.25-.1-3.748-2.23-4.647A2.937,2.937,0,0,0,298.329,579.922Z" transform="translate(-286.241 -571.47)" fill="#605045"/><path d="M397.906,685.722l-.051.055c-.253.274-1.415,1.522-2.7,2.785-.64.631-1.31,1.267-1.906,1.782-.3.257-.577.485-.821.665a3.929,3.929,0,0,1-.592.378,3.747,3.747,0,0,1-1.623.353,5.21,5.21,0,0,1-1.442-.217,6.905,6.905,0,0,1-.944-.354l-.007-.005a.127.127,0,0,1-.035-.092.233.233,0,0,1,.044-.128.617.617,0,0,1,.159-.159,1.826,1.826,0,0,1,.64-.268,5.347,5.347,0,0,1,1.256-.127H390a1.47,1.47,0,0,0,.6-.149,4.7,4.7,0,0,0,.962-.632,11.394,11.394,0,0,0,1.342-1.307,6.77,6.77,0,0,0,.479-.61,2.538,2.538,0,0,0,.165-.273,1.3,1.3,0,0,0,.063-.144.843.843,0,0,0,.046-.184h0a2.449,2.449,0,0,0,.017-.3,5.173,5.173,0,0,0-.107-.955,16.332,16.332,0,0,0-.542-1.969c-.687-2.065-1.672-4.223-1.675-4.232l-.954.435.025.054c.122.272.682,1.529,1.207,2.935.262.7.516,1.442.7,2.107.093.332.168.646.22.924a4,4,0,0,1,.078.7,1.414,1.414,0,0,1-.009.17h0l.242.03-.233-.074a.25.25,0,0,0-.009.044l.242.03-.233-.074.067.021-.067-.023v0l.067.021-.067-.023v0a1.359,1.359,0,0,1-.123.2,6.875,6.875,0,0,1-.555.677,9.888,9.888,0,0,1-1.174,1.1,3.73,3.73,0,0,1-.527.35,1.183,1.183,0,0,1-.181.079.429.429,0,0,1-.052.014l-.012,0h0v0h0v0h0v0h-.119a6.664,6.664,0,0,0-1.365.125,2.744,2.744,0,0,0-1.312.6,1.5,1.5,0,0,0-.351.472,1.255,1.255,0,0,0-.119.528,1.185,1.185,0,0,0,.178.626,1.106,1.106,0,0,0,.479.425,7.958,7.958,0,0,0,1.086.406,6.263,6.263,0,0,0,1.734.259,4.8,4.8,0,0,0,2.072-.454,5.062,5.062,0,0,0,.821-.523,22.427,22.427,0,0,0,1.731-1.488c1.843-1.722,3.832-3.886,3.837-3.891l-.772-.709Z" transform="translate(-358.072 -653.178)" fill="#361e0e"/><path d="M281.985,590.81a.535.535,0,0,0,.159.092.694.694,0,0,0,.167.038,1.554,1.554,0,0,0,.179.009,6.54,6.54,0,0,0,.687-.049c.333-.037.79-.1,1.424-.2a23.7,23.7,0,0,0,5.019-1.4,12.958,12.958,0,0,0,2.96-1.661,6.638,6.638,0,0,0,2.107-2.589,3.833,3.833,0,0,0,.291-1.521,6.828,6.828,0,0,0-.353-2.039,13.457,13.457,0,0,0-1.153-2.551c-.382-.664-.686-1.087-.694-1.1a.524.524,0,0,0-.851.612h0a14.316,14.316,0,0,1,1.032,1.743,11.192,11.192,0,0,1,.675,1.637,5.769,5.769,0,0,1,.3,1.694,2.793,2.793,0,0,1-.206,1.107,5.6,5.6,0,0,1-1.785,2.173,13.878,13.878,0,0,1-4.164,2.049,23.752,23.752,0,0,1-3.341.8c-.621.1-1.063.161-1.372.195a5.569,5.569,0,0,1-.571.042h-.059l-.015.141.025-.139-.011,0-.015.141.025-.139-.071.392.14-.372a.416.416,0,0,0-.07-.02l-.071.392.14-.372-.179.474.326-.388a.507.507,0,0,0-.147-.087l-.179.474.326-.388a.524.524,0,1,0-.674.8Z" transform="translate(-273.128 -570.604)" fill="#361e0e"/><path d="M350.7,665.254s3.924-3.037,6.622-2.328,6.76.885,7.591,2.137c.2.3,2.521,2.646,2.521,2.646s1.965-7.176-6.905-8.114C350.315,658.515,350.7,665.254,350.7,665.254Z" transform="translate(-328.896 -636.859)" fill="#fff"/><path d="M248.51,545.072l.491.184a1.872,1.872,0,0,1,.149-.271,9.892,9.892,0,0,1,.677-.924,12.2,12.2,0,0,1,1.491-1.552,4.528,4.528,0,0,1,.718-.512,1.675,1.675,0,0,1,.28-.125.587.587,0,0,1,.173-.033.157.157,0,0,1,.036,0l.048-.216-.151.17a.237.237,0,0,0,.1.046l.048-.216-.151.17,0,0a1.04,1.04,0,0,1,.143.237,6.633,6.633,0,0,1,.351.991c.17.6.319,1.276.424,1.8.052.264.094.489.122.649.014.08.025.143.032.186l.008.049,0,.016a.524.524,0,0,0,.7.407l-.057-.154.057.155h0l-.057-.154.057.155c.016-.006,4.058-1.492,11.385-1.492a60.024,60.024,0,0,1,7.553.493,23.962,23.962,0,0,1,11.667,4.513,15.005,15.005,0,0,1,3.4,3.6,10,10,0,0,1,1.569,3.9,11.225,11.225,0,0,1,.138,1.743,10.517,10.517,0,0,1-1.043,4.559,15.485,15.485,0,0,1-3.666,4.722c-.636.576-1.226,1.046-1.69,1.413-.232.184-.432.343-.6.482-.082.07-.155.135-.221.2a1.43,1.43,0,0,0-.185.214,6.7,6.7,0,0,0-.91,1.821,6.855,6.855,0,0,0-.261,2.036c0,.61.046,1.3.118,2.117.024.273.035.535.035.786a6.67,6.67,0,0,1-.477,2.579,3.9,3.9,0,0,1-.939,1.4,1.055,1.055,0,0,1-.338.172,4.907,4.907,0,0,1-1.046.207,12.551,12.551,0,0,1-1.308.063c-.4,0-.787-.015-1.121-.039s-.617-.057-.794-.088a.3.3,0,0,1-.108-.038.234.234,0,0,1-.088-.1.438.438,0,0,1-.04-.192.675.675,0,0,1,.169-.435.858.858,0,0,1,.571-.275c.078-.012.258-.005.514-.026a3.921,3.921,0,0,0,.98-.218,1.07,1.07,0,0,0,.506-.383,1.934,1.934,0,0,0,.314-.78,4.469,4.469,0,0,0,.073-.846,6.778,6.778,0,0,0-.064-.915h0a11.2,11.2,0,0,0-1.2-3.69,14.757,14.757,0,0,0-3.108-3.95,15.173,15.173,0,0,0-2.671-1.98,7.085,7.085,0,0,0-1.142-.476,19.67,19.67,0,0,0-5.868-.947,10.438,10.438,0,0,0-4.047.708,5.614,5.614,0,0,0-1.662,1.065,4.738,4.738,0,0,0-1.15,1.687,45.106,45.106,0,0,1-2.367,5.221,16.7,16.7,0,0,1-2.489,3.3,6.037,6.037,0,0,1-2.425,1.663,5.494,5.494,0,0,1-1.874.3c-.192,0-.36-.006-.51-.007a.647.647,0,0,1-.255-.045.323.323,0,0,1-.166-.151.65.65,0,0,1-.067-.307,1.047,1.047,0,0,1,.144-.522.7.7,0,0,1,.144-.174.381.381,0,0,1,.141-.078,3.342,3.342,0,0,0,1.118-.543,3.243,3.243,0,0,0,1.075-1.48,5.926,5.926,0,0,0,.33-2.088,17.759,17.759,0,0,0-.856-4.852,97.363,97.363,0,0,0-3.41-9.593.524.524,0,0,0-.488-.318l-.3,0a14.687,14.687,0,0,1-3.97-.466,6.721,6.721,0,0,1-1.887-.829,4.055,4.055,0,0,1-1.5-1.7,4.865,4.865,0,0,1-.412-2.05,9.73,9.73,0,0,1,.677-3.311c.171-.454.342-.831.47-1.093.064-.131.116-.233.153-.3l.041-.076.01-.018,0,0h0a.524.524,0,0,0,0-.519l0-.006c-.039-.068-.4-.719-.753-1.506a11.491,11.491,0,0,1-.469-1.22,3.72,3.72,0,0,1-.2-1.022.76.76,0,0,1,.036-.26c.02-.047.026-.047.033-.053a.328.328,0,0,1,.108-.042,1.049,1.049,0,0,1,.233-.022,4.2,4.2,0,0,1,1.128.213,18.6,18.6,0,0,1,1.991.771c.3.131.563.25.776.34.107.045.2.083.287.113.044.015.086.029.132.041a.745.745,0,0,0,.188.026.583.583,0,0,0,.119-.012.553.553,0,0,0,.181-.072l0,0a8.7,8.7,0,0,1,4.593-1.611,3.74,3.74,0,0,1,.88.1,2,2,0,0,1,.2.059l.04.016,0,0,.11-.246-.115.243.006,0,.11-.246-.115.243a.524.524,0,0,0,.715-.289l-.491-.184.225-.474a3.867,3.867,0,0,0-1.571-.271,9.731,9.731,0,0,0-5.155,1.774l0,0,.263.421-.1-.486a.492.492,0,0,0-.163.066l.263.421-.1-.486.093.452v-.462a.477.477,0,0,0-.093.01l.093.452v-.121l.067-.334a.344.344,0,0,0-.067-.006v.34l.067-.334-.015.076.019-.075h0l-.015.076.019-.075a2.12,2.12,0,0,1-.206-.077c-.2-.081-.486-.211-.823-.359-.507-.222-1.122-.485-1.74-.7a9.024,9.024,0,0,0-.922-.266,4.1,4.1,0,0,0-.882-.111,2.083,2.083,0,0,0-.47.049,1.369,1.369,0,0,0-.452.19,1.141,1.141,0,0,0-.431.551,1.779,1.779,0,0,0-.1.635,4.763,4.763,0,0,0,.257,1.376,14.752,14.752,0,0,0,.815,1.968c.269.547.483.922.486.929l.455-.26-.455-.26a12.465,12.465,0,0,0-.746,1.642,10.745,10.745,0,0,0-.745,3.68,6.044,6.044,0,0,0,.393,2.219,4.934,4.934,0,0,0,.961,1.54,6.443,6.443,0,0,0,2.788,1.7,14.921,14.921,0,0,0,4.674.634l.316,0-.007-.524-.482.206.02.048a96.969,96.969,0,0,1,3.349,9.43,16.79,16.79,0,0,1,.813,4.555,4.2,4.2,0,0,1-.456,2.127,2.032,2.032,0,0,1-.532.6,2.3,2.3,0,0,1-.771.371,1.423,1.423,0,0,0-.532.285,1.823,1.823,0,0,0-.494.684,2.1,2.1,0,0,0-.168.814,1.781,1.781,0,0,0,.083.545,1.42,1.42,0,0,0,.508.718,1.576,1.576,0,0,0,.941.288c.123,0,.3.007.514.007a6.543,6.543,0,0,0,2.223-.358,7.092,7.092,0,0,0,2.846-1.939,17.774,17.774,0,0,0,2.632-3.491,45.983,45.983,0,0,0,2.427-5.346,3.687,3.687,0,0,1,.9-1.317,5.114,5.114,0,0,1,2.175-1.148,10.662,10.662,0,0,1,2.815-.339,18.6,18.6,0,0,1,3.984.465,15.972,15.972,0,0,1,1.55.427,6.121,6.121,0,0,1,.964.4,12.49,12.49,0,0,1,1.494,1.01,15.13,15.13,0,0,1,3,3.082,10.687,10.687,0,0,1,1.967,4.755h0a5.809,5.809,0,0,1,.054.772,2.924,2.924,0,0,1-.094.808.661.661,0,0,1-.087.194l-.019.021.01.013-.008-.014h0l.01.013-.008-.014.023.041-.015-.044-.007,0,.023.041-.015-.044a2.861,2.861,0,0,1-.723.163c-.184.017-.335.006-.547.029a1.91,1.91,0,0,0-1.238.627,1.72,1.72,0,0,0-.427,1.124,1.435,1.435,0,0,0,.271.857,1.268,1.268,0,0,0,.356.327,1.35,1.35,0,0,0,.476.179c.234.041.541.076.9.1s.77.042,1.2.042a12.085,12.085,0,0,0,1.873-.129,4.975,4.975,0,0,0,.826-.2,2.045,2.045,0,0,0,.689-.378,4.926,4.926,0,0,0,1.209-1.782,7.716,7.716,0,0,0,.558-2.983c0-.282-.013-.575-.039-.878-.072-.808-.114-1.467-.114-2.024a5.805,5.805,0,0,1,.216-1.731,5.649,5.649,0,0,1,.776-1.539l-.051-.035.05.038,0,0-.051-.035.05.038a1.177,1.177,0,0,1,.121-.12c.138-.125.369-.309.655-.535.5-.4,1.179-.935,1.908-1.609a17.159,17.159,0,0,0,3.265-3.979,11.752,11.752,0,0,0,1.632-5.936,12.269,12.269,0,0,0-.151-1.905,11.037,11.037,0,0,0-1.728-4.314,17.464,17.464,0,0,0-6.1-5.484,26.555,26.555,0,0,0-9.709-3.093,61.037,61.037,0,0,0-7.685-.5c-7.528,0-11.7,1.539-11.749,1.557l.182.491.517-.084c0-.008-.172-1.054-.436-2.137a12.376,12.376,0,0,0-.465-1.544,3.277,3.277,0,0,0-.3-.608,1.335,1.335,0,0,0-.217-.256.82.82,0,0,0-.367-.195,1.221,1.221,0,0,0-.264-.028,1.824,1.824,0,0,0-.739.178,5.122,5.122,0,0,0-1.194.812,13.586,13.586,0,0,0-1.608,1.7c-.227.283-.425.551-.582.786q-.118.176-.2.328a2.1,2.1,0,0,0-.143.294l.491.184.225-.474Z" transform="translate(-236.307 -540.79)" fill="#361e0e"/><path d="M244.954,569.024a6.161,6.161,0,0,0,1.293,2.869c.281.125.421-.246.989-.757.324-.291.7-.589.767-.847C248.2,569.566,245.084,568.652,244.954,569.024Z" transform="translate(-243.296 -563.574)" fill="#361e0e"/><path d="M310.178,552.328a6.029,6.029,0,0,0-2.042,2.594c-.038.644,2.352.821,2.432.5C310.72,554.818,310.434,552.357,310.178,552.328Z" transform="translate(-294.447 -550.129)" fill="#361e0e"/><path d="M261.52,597.338l-.286-.381.054.072v-.09a.092.092,0,0,0-.054.018l.054.072v0l.072-.054a.091.091,0,0,0-.072-.036v.09l.072-.054h0l-.072.054h.09a.091.091,0,0,0-.018-.054l-.072.054h0l.054.072a.091.091,0,0,0,.036-.072h-.09l.054.072-.054-.072v.09a.094.094,0,0,0,.054-.018l-.054-.072v0l-.071.054a.091.091,0,0,0,.071.036v-.089l-.071.054.072-.054h-.09a.093.093,0,0,0,.018.054l.072-.054h0l-.054-.071a.09.09,0,0,0-.036.071h.089l-.054-.071h0l.286.381.287.381a.863.863,0,1,0-1.209-.171h0a.863.863,0,0,0,1.209.171h0Z" transform="translate(-255.828 -585.613)" fill="#361e0e"/><path d="M307.141,587.459l-.472-.067.117.017-.077-.089a.12.12,0,0,0-.04.073l.117.017-.077-.089.077.09v-.118a.118.118,0,0,0-.077.028l.077.09v0l.016-.115h-.016v.116l.016-.115-.017.117.09-.077a.12.12,0,0,0-.073-.04l-.017.117.09-.077-.09.077h.118a.119.119,0,0,0-.028-.077l-.09.077h-.005l.122.018v-.018h-.123l.122.018v0l-.117-.017.077.09a.118.118,0,0,0,.04-.073l-.117-.017.077.09-.077-.09v.118a.118.118,0,0,0,.077-.029l-.077-.09v0l-.016.114h.016v-.115l-.016.114.017-.117-.09.077a.12.12,0,0,0,.073.04l.017-.117-.09.077.09-.077h-.118a.119.119,0,0,0,.028.077l.09-.077h-.013l-.1-.014v.014h.105l-.1-.014v0l.472.067.472.065a.855.855,0,0,0,.008-.116.835.835,0,0,0-1.662-.117v0a.835.835,0,0,0,.709.945.845.845,0,0,0,.117.008.835.835,0,0,0,.826-.717v0Z" transform="translate(-292.679 -577.849)" fill="#361e0e"/><path d="M274.89,612.852c.917.616,2.052.577,3.634.3,2.062-.368,3.366-1.253,3.359-2.228-.013-1.995-2.794-3.8-4.4-3.456C275.221,607.949,273.619,612,274.89,612.852Z" transform="translate(-267.174 -594.723)" fill="#fff"/><path d="M286.37,616.115c.094.548-.473,1.119-1.265,1.277s-1.511-.16-1.6-.708.472-1.12,1.265-1.277S286.276,615.567,286.37,616.115Z" transform="translate(-274.498 -601.155)" fill="#361e0e"/></g></g></g></svg>