<svg xmlns="http://www.w3.org/2000/svg" xmlns:xlink="http://www.w3.org/1999/xlink" width="60" height="59" viewBox="0 0 60 59"><defs><clipPath id="a"><ellipse cx="29" cy="29.5" rx="29" ry="29.5" transform="translate(0.445 -0.315)" fill="#fdc675" stroke="#f4f5f3" stroke-width="1"/></clipPath></defs><g transform="translate(-114 -479)"><g transform="translate(115 479)" fill="#fdc675" stroke="#f4f5f3" stroke-width="1"><circle cx="29.5" cy="29.5" r="29.5" stroke="none"/><circle cx="29.5" cy="29.5" r="29" fill="none"/></g><g transform="translate(113.555 479.315)" clip-path="url(#a)"><g transform="translate(17.561 12.135)"><g transform="translate(28.863 17.551)"><path d="M65,1082.205a18.9,18.9,0,0,1,1.7,4.837c.033.53-1.134,1.047-1.918,1.369a1.16,1.16,0,0,0,.564,2.21c1.169.073,4.2.25,4.192-1.443-.007-2.076,1.857-1.817,2-3.041s.668-3.724,1.044-5.9c.132-.763.226-.273.373-.584" transform="translate(-63.583 -1079.261)" fill="#fce5c4"/><path d="M61.143,1086.573a4.468,4.468,0,0,0,3.011-.786,1.618,1.618,0,0,0,.515-1.213,1.627,1.627,0,0,1,.941-1.569,1.985,1.985,0,0,0,1.056-1.411c.087-.736.321-1.984.57-3.3.16-.849.325-1.728.47-2.567.007-.043.014-.08.021-.11a.713.713,0,0,0,.31-.343l-.926-.437a.394.394,0,0,1,.319-.173h-.008c-.571,0-.67.578-.724.889-.144.832-.308,1.706-.467,2.552-.252,1.339-.49,2.6-.58,3.375-.031.262-.194.4-.616.684a2.614,2.614,0,0,0-1.388,2.418.588.588,0,0,1-.193.464c-.68.64-2.769.508-3.455.466a.785.785,0,0,1-.769-.629.52.52,0,0,1,.367-.6c1.11-.455,2.289-1.013,2.235-1.875a18.59,18.59,0,0,0-1.811-5.118l-.809.628a19.526,19.526,0,0,1,1.6,4.522c-.054.094-.319.371-1.6.9a1.541,1.541,0,0,0-.989,1.71,1.814,1.814,0,0,0,1.715,1.485C60.331,1086.555,60.74,1086.573,61.143,1086.573Z" transform="translate(-58.194 -1074.659)" fill="#47280a"/></g><g transform="translate(7.914 5.602)"><path d="M413.836,932.212s-1.536-2.468-.5-3.112,1.81.543,2.08,2.836" transform="translate(-412.461 -928.413)" fill="#fce5c4"/><path d="M407.434,926.455l.87-.541c-.584-.941-1-2.2-.667-2.407.227-.142.332-.091.377-.07.306.147.731.9.923,2.531l1.017-.12c-.149-1.265-.53-2.87-1.5-3.335a1.353,1.353,0,0,0-1.362.124C405.7,923.509,407.132,925.971,407.434,926.455Z" transform="translate(-406.494 -922.385)" fill="#47280a"/></g><g transform="translate(0.092 0.018)"><path d="M-508.883,862.905a20.553,20.553,0,0,1-5.449,2.1,6.216,6.216,0,0,0-5.073,3.844,34.222,34.222,0,0,1-4.416,6.861c-.658.876-2.161,2.969-2.02,3.893s1.034,1.9,4.322.389,5.214-2.336,7.469-2.287a24.259,24.259,0,0,0,5.4-.519c1-.227,3.351-.811,3.382,1.168s.452,5.977-.159,6.39a10.544,10.544,0,0,1-2.243,1.087c-.648.257-.816,1.825.828,2.02s4.2.462,4.909-1.411a30.926,30.926,0,0,1,1.644-4.234c.352-.389,1.758-3.666,3.735-3.733,2.137-.073,7.066-.217,7.849.74a20.837,20.837,0,0,1,2.2,5.677c.016.616-1.683,1.525-3.28,2.06s-.822,2.165.376,2.311,5.9,1.216,6.674-1.1,3.267-4.125,3.163-5.557c-.129-1.784-.363-5.661,1.77-6.965a2.981,2.981,0,0,1,3.429,0c1.773,1.035,4.157,7.607,12.045,9.846,5.581,1.584,15.032.746,19.821-7.976,1.812-3.3-.655-3.7-2.528-1.716-3.1,3.287-8.789,9.913-16.26,4.631-4.635-3.276-4.35-4.964-5.355-7.883-.622-1.8-2.723-8.123-6.607-9.551s-11.567-4.781-14.345-5.339c-3.147-.633-7.391-1.285-14,1.557A46.3,46.3,0,0,0-508.883,862.905Z" transform="translate(526.32 -856.648)" fill="#fce5c4"/><path d="M-491.45,884.683c1.591,0,3.155-.367,3.632-1.79a10.468,10.468,0,0,1,1.74-2.844c.812-1.056,1.513-1.968,1.446-2.894-.106-1.463-.388-5.35,1.548-6.534a2.526,2.526,0,0,1,2.952,0,8.423,8.423,0,0,1,1.651,1.9c1.766,2.377,4.722,6.354,10.5,7.995,6.606,1.875,15.795.109,20.356-8.2,1.18-2.148.6-3.021.145-3.35-.822-.6-2.26-.14-3.42,1.09l-.382.407c-3.152,3.366-8.428,9-15.271,4.164-3.7-2.615-4.134-4.123-4.738-6.211-.132-.455-.268-.927-.446-1.443l-.04-.115c-.7-2.04-2.834-8.246-6.847-9.721-1.263-.464-2.936-1.136-4.708-1.847a81.873,81.873,0,0,0-9.705-3.512c-3.491-.7-7.761-1.215-14.274,1.586a46.255,46.255,0,0,0-6.9,3.457l-.435.262a20.077,20.077,0,0,1-5.3,2.043,6.646,6.646,0,0,0-5.415,4.126,31.14,31.14,0,0,1-4.023,6.322c-.137.178-.251.324-.334.435-2.29,3.049-2.153,3.947-2.108,4.243a1.747,1.747,0,0,0,.889,1.318c.876.473,2.213.284,4.088-.576,3.193-1.465,5.106-2.286,7.265-2.245a24.676,24.676,0,0,0,5.515-.53l.075-.017c.619-.141,1.906-.434,2.451-.007a.9.9,0,0,1,.288.746c.008.506.041,1.137.076,1.806.069,1.323.2,3.77-.061,4.212a10.211,10.211,0,0,1-2.123,1.02,1.365,1.365,0,0,0-.744,1.47,1.736,1.736,0,0,0,1.69,1.445c1.592.188,4.554.539,5.4-1.71.229-.609.45-1.239.644-1.8a14.545,14.545,0,0,1,.909-2.29,4.059,4.059,0,0,0,.4-.624c.548-.945,1.689-2.911,3.006-2.956,5.931-.2,7.227.27,7.472.57a21.847,21.847,0,0,1,2.09,5.379,6.391,6.391,0,0,1-2.962,1.622,1.537,1.537,0,0,0-1.213,1.6,1.933,1.933,0,0,0,1.68,1.616c.137.017.322.046.542.081A19.464,19.464,0,0,0-491.45,884.683Zm9.816-15.464a3.671,3.671,0,0,0-1.936.608c-2.42,1.48-2.119,5.625-1.991,7.4.042.573-.588,1.392-1.255,2.259A11.159,11.159,0,0,0-488.7,882.6c-.558,1.665-4.093,1.106-5.6.866-.233-.037-.429-.068-.575-.085a1,1,0,0,1-.867-.785c-.035-.342.3-.527.582-.623.606-.2,3.63-1.28,3.6-2.513a20.527,20.527,0,0,0-2.3-5.96c-.665-.812-3.126-1.084-8.225-.911-1.832.063-3.148,2.33-3.78,3.42-.113.194-.241.415-.285.468a10.1,10.1,0,0,0-1.1,2.605c-.2.579-.412,1.177-.637,1.776-.544,1.445-2.566,1.332-4.419,1.113-.519-.061-.83-.289-.876-.641a.5.5,0,0,1,.164-.484,11.032,11.032,0,0,0,2.333-1.135c.611-.413.6-1.844.438-5.011-.034-.659-.067-1.282-.074-1.772a1.794,1.794,0,0,0-.644-1.463c-.893-.7-2.415-.354-3.232-.169l-.075.017a23.89,23.89,0,0,1-5.289.508c-2.37-.051-4.356.807-7.673,2.329-2.057.944-2.924.783-3.257.6a.818.818,0,0,1-.41-.639c-.059-.39.417-1.526,1.932-3.543.081-.108.191-.25.326-.424A31.929,31.929,0,0,0-524.5,863.6a5.726,5.726,0,0,1,4.732-3.563,20.849,20.849,0,0,0,5.6-2.158l.437-.263a45.486,45.486,0,0,1,6.789-3.4c6.268-2.7,10.37-2.2,13.723-1.528a82.207,82.207,0,0,1,9.542,3.463c1.779.714,3.458,1.388,4.734,1.857,3.6,1.322,5.622,7.214,6.287,9.15l.04.116c.171.495.3.954.432,1.4.631,2.184,1.13,3.91,5.095,6.713a10.044,10.044,0,0,0,5.854,2.058c4.693,0,8.368-3.926,10.634-6.346l.38-.4c.926-.983,1.885-1.2,2.194-.976.273.2.25.94-.414,2.149-4.969,9.051-14.788,9.029-19.286,7.752-5.476-1.554-8.2-5.225-10.009-7.654a8.25,8.25,0,0,0-1.929-2.146A3.888,3.888,0,0,0-481.633,869.219Z" transform="translate(531.842 -851.226)" fill="#47280a"/></g><path d="M394.357,1048.865a.9.9,0,0,0,.732-.375.938.938,0,0,0-.178-1.281.9.9,0,0,0-1.281.184.938.938,0,0,0,.178,1.281A.891.891,0,0,0,394.357,1048.865Zm.025-.921s-.009,0-.018.006a.038.038,0,0,1-.026-.006s0-.008.015-.009a.041.041,0,0,1,.026.006l0,0Z" transform="translate(-382.868 -1031.637)" fill="#47280a"/><path d="M301.3,948.964c1.212-1.51,2.558-3.636,2.09-5.186a1.937,1.937,0,0,0-1.36-1.3,1.441,1.441,0,0,0-1.234.159c-1.377.861-1.884,4.08-1.938,4.444l1.013.149c.176-1.2.729-3.263,1.467-3.724a.419.419,0,0,1,.381-.051.916.916,0,0,1,.691.623c.257.852-.457,2.44-1.908,4.25Z" transform="translate(-283.661 -935.229)" fill="#47280a"/><ellipse cx="1.426" cy="0.893" rx="1.426" ry="0.893" transform="translate(2.285 24.661) rotate(-143.217)" fill="#47280a"/><g transform="translate(8.641 19.873)"><path d="M322.157,1112a26.351,26.351,0,0,1-4.076,6c-.87.812-.335,1.8-1.856,2.09-1.788.342-3.056.271-3.6-.655-.359-.614,1.169-1.351,1.76-2.1.69-.876.746-4.58.746-4.58Z" transform="translate(-312.054 -1111.392)" fill="#fce5c4"/><path d="M303.933,1113.644a9.551,9.551,0,0,0,1.759-.2,1.908,1.908,0,0,0,1.659-1.441,1.793,1.793,0,0,1,.45-.777,26.483,26.483,0,0,0,4.185-6.145l.416-.837-8.4.9-.007.453c-.022,1.466-.234,3.76-.636,4.271a5.334,5.334,0,0,1-.777.708c-.658.532-1.477,1.194-1.024,1.97A2.536,2.536,0,0,0,303.933,1113.644Zm6.692-8.178a22.545,22.545,0,0,1-3.523,5.013,2.754,2.754,0,0,0-.712,1.172c-.168.457-.245.666-.891.789-1.706.327-2.647.216-3.029-.362a4.148,4.148,0,0,1,.753-.7,5.986,5.986,0,0,0,.938-.871c.645-.819.8-3.308.844-4.435Z" transform="translate(-301.425 -1104.245)" fill="#47280a"/></g><g transform="translate(18.669 0)"><path d="M-117.34,877.3l1.409.327a.434.434,0,0,0,.424-.138c.883-1,5.077-5.248,8.046.928a.44.44,0,0,0,.363.252s4.715.216,4.758.206l.173-.021c.26-.062.259-.481.159-.733a4.81,4.81,0,0,1-.155-2.76c.534-3.078,8.373-8.816,12.574-2.74.879,1.271.637,2.213.922,2.9.194.469.628.2,1.332,0,.312-.086.8-.222.721-.541-.5-2.157-1.535-7.555,2.131-11.293a.445.445,0,0,0-.176-.733l-8.455-3.288s-2.955-1.039-3.943-1.378a20.267,20.267,0,0,0-4.634-.766,32.656,32.656,0,0,0-4.032.187c-.03,0-2.351.469-3.115.7-.28.086-2.462.861-2.462.861-.276.1-.248.591-.075.83.942,1.307,2.494,5.7-6.207,16.475A.446.446,0,0,0-117.34,877.3Z" transform="translate(118.192 -857.01)" fill="#ea875c"/><path d="M-108.376,873.369l.082,0v0l.23-.032a.762.762,0,0,0,.5-.4,1.3,1.3,0,0,0,.013-1.021,4.314,4.314,0,0,1-.126-2.484c.257-1.48,2.862-4.165,5.935-4.841a5.184,5.184,0,0,1,5.714,2.3,3.84,3.84,0,0,1,.662,1.879,3.641,3.641,0,0,0,.208.928c.336.813,1.112.563,1.576.414.112-.036.234-.075.365-.111.315-.087,1.272-.35,1.084-1.152-1.1-4.7-.428-8.345,2-10.818a.952.952,0,0,0,.246-.9.946.946,0,0,0-.612-.675c-8.445-3.284-8.451-3.286-8.469-3.292s-2.959-1.04-3.937-1.376a20.619,20.619,0,0,0-4.809-.793,31.809,31.809,0,0,0-4.1.193c-.075.011-2.415.483-3.187.721-.283.087-2.259.788-2.484.868a.8.8,0,0,0-.5.534,1.3,1.3,0,0,0,.179,1.078c.732,1.015,2.447,5.157-6.19,15.854a.955.955,0,0,0-.16.917.945.945,0,0,0,.683.618l1.409.327a.946.946,0,0,0,.924-.3c.5-.57,2.283-2.412,4.125-2.158,1.17.161,2.2,1.16,3.075,2.969a.954.954,0,0,0,.789.541C-109.58,873.329-108.655,873.369-108.376,873.369Zm7.972-9.952a7.228,7.228,0,0,0-1.555.175c-3.361.74-6.374,3.654-6.724,5.667a5.263,5.263,0,0,0,.183,3.036.337.337,0,0,1,.015.051c-.569-.02-2.922-.125-4.549-.2-1.025-2.116-2.318-3.3-3.841-3.505-2.31-.316-4.379,1.76-5,2.463l-1.254-.291c8.772-10.9,7.231-15.528,6.159-17.015a.273.273,0,0,1-.031-.1c.684-.243,2.1-.742,2.3-.805.707-.217,2.913-.663,3.055-.69a31.565,31.565,0,0,1,3.916-.179h.033a19.58,19.58,0,0,1,4.472.742c.987.339,3.9,1.363,3.928,1.373l8.364,3.252c-2.6,2.706-3.35,6.582-2.232,11.525a3.3,3.3,0,0,1-.32.1c-.147.04-.282.084-.406.123-.109.035-.246.079-.341.1a3.469,3.469,0,0,1-.115-.6,4.839,4.839,0,0,0-.835-2.325A6.21,6.21,0,0,0-100.4,863.417Zm-16.738-9.669h0Z" transform="translate(124.208 -851)" fill="#47280a"/></g></g></g></g></svg>