<svg xmlns="http://www.w3.org/2000/svg" xmlns:xlink="http://www.w3.org/1999/xlink" width="60" height="59" viewBox="0 0 60 59"><defs><clipPath id="a"><circle cx="29.5" cy="29.5" r="29.5" transform="translate(0.032 -0.315)" fill="#fdc675" stroke="#f4f5f3" stroke-width="1"/></clipPath></defs><g transform="translate(-38 -479)"><g transform="translate(39 479)" fill="#fdc675" stroke="#f4f5f3" stroke-width="1"><circle cx="29.5" cy="29.5" r="29.5" stroke="none"/><circle cx="29.5" cy="29.5" r="29" fill="none"/></g><g transform="translate(37.968 479.315)" clip-path="url(#a)"><g transform="translate(11.53 10.854)"><g transform="translate(21.235 25.359)"><path d="M907.382,1142.79c1.714,1.7,4.536,8.314,3.6,10.49-.391.909-.226,2.546,2.2,1.557.805-.328,1.512-2.2,1.053-4.062a19.129,19.129,0,0,1,.336-5.314" transform="translate(-906.995 -1142.399)" fill="#804f21" stroke="rgba(0,0,0,0)" stroke-width="1"/><path d="M908.15,1151.925a1.574,1.574,0,0,1-1.175-.452,2.032,2.032,0,0,1-.233-2.182c.813-1.89-1.823-8.241-3.481-9.882l.773-.781c1.775,1.758,4.785,8.617,3.717,11.1a1.02,1.02,0,0,0,.008.978c.154.157.625.2,1.479-.147.488-.2,1.13-1.78.727-3.421a18.606,18.606,0,0,1,.381-5.7l.977.5a20.749,20.749,0,0,0-.291,4.931c.529,2.153-.292,4.259-1.38,4.7A4.081,4.081,0,0,1,908.15,1151.925Z" transform="translate(-903.261 -1138.627)" fill="#47280a" stroke="rgba(0,0,0,0)" stroke-width="1"/></g><g transform="translate(40.981 27.724)"><path d="M1118.324,1169.072s2.092,2.764,2.382,4.077c.6,2.706-1.168,2.908-1.2,3.733-.022.594.365,1.042,2.1.705s2.188-1.064,2.371-3.079c.233-2.555,0-5.337,1.306-6.826" transform="translate(-1117.886 -1167.321)" fill="#804f21" stroke="rgba(0,0,0,0)" stroke-width="1"/><path d="M1116.357,1174.754a1.807,1.807,0,0,1-1.218-.358,1.233,1.233,0,0,1-.413-1.032,1.658,1.658,0,0,1,.6-1.083,2.274,2.274,0,0,0,.611-2.511,16.111,16.111,0,0,0-2.283-3.864l.876-.664c.222.293,2.173,2.9,2.481,4.29a3.334,3.334,0,0,1-.895,3.513c-.115.119-.289.3-.292.359,0,.038,0,.13.029.156s.284.209,1.413-.01c1.417-.275,1.76-.735,1.928-2.589.052-.574.081-1.172.109-1.751.1-2.106.2-4.1,1.331-5.387l.827.725c-.88,1-.967,2.807-1.059,4.715-.028.59-.058,1.2-.112,1.8-.186,2.041-.672,3.153-2.814,3.569A5.963,5.963,0,0,1,1116.357,1174.754Z" transform="translate(-1113.654 -1163.822)" fill="#47280a" stroke="rgba(0,0,0,0)" stroke-width="1"/></g><g transform="translate(24.757 32.919)"><path d="M945.836,1227.783c-.391.909-.226,2.546,2.2,1.558.728-.3,1.372-1.851,1.151-3.525-.094-.162-.188-.309-.28-.437a4.719,4.719,0,0,1-3.011.007h0A4.529,4.529,0,0,1,945.836,1227.783Z" transform="translate(-945.214 -1224.797)" fill="#595757" stroke="rgba(0,0,0,0)" stroke-width="1"/><path d="M942.311,1224.489a1.489,1.489,0,0,1-1.112-.424,1.942,1.942,0,0,1-.214-2.082h0a3.921,3.921,0,0,0,.029-2.136l-.041-.235.368-.368.269.089a4.293,4.293,0,0,0,2.664.017l.348-.171.226.316c.1.141.2.3.3.474l.046.079.012.091c.232,1.762-.424,3.6-1.433,4.009A3.986,3.986,0,0,1,942.311,1224.489Zm-.3-4.116a4.061,4.061,0,0,1-.185,1.972h0a1.107,1.107,0,0,0,.026,1.078c.23.235.806.189,1.579-.126.47-.192,1.049-1.457.881-2.95l-.015-.025A4.86,4.86,0,0,1,942.013,1220.373Z" transform="translate(-940.786 -1219.178)" fill="#47280a" stroke="rgba(0,0,0,0)" stroke-width="1"/></g><g transform="translate(0 0.702)"><path d="M711.089,886.6a10.264,10.264,0,0,1-5.156-2.693c-2.749-2.438-8.393-2.428-12.048-1.614a9.176,9.176,0,0,0-3.527,1.329c-1.2.378-6.084.521-7.33,3.665-.721,1.821,1.069,6.154,4.23,6.474s4.566-.29,6.581,3.054,12.674,12.934,16.572,17.316c.775.871,1.966,3.589,1.37,5.161-.351.926-.226,2.546,2.2,1.557.806-.328,1.512-2.2,1.054-4.062a19.124,19.124,0,0,1,.336-5.314c.244-.473,11.284-.535,14.064-.993.791-.13,2.779,3.68,2.321,6.23s-1.8,2.172-1.68,3.42c.092.962,2.405.733,3.573.367s2.061-4.642,2.245-7.024,1.71-4.337,2.81-6.627,4.841-6.23,3.65-10.766-2.749-4.581-4.489-5.955-5.818-6.093-13.743-4.627S711.735,886.73,711.089,886.6Z" transform="translate(-682.318 -881.246)" fill="#895b31" stroke="rgba(0,0,0,0)" stroke-width="1"/><path d="M707.367,916.367a1.563,1.563,0,0,1-1.138-.422,2.084,2.084,0,0,1-.28-2.19c.487-1.287-.544-3.789-1.267-4.6-1.506-1.694-4.029-4.17-6.7-6.791-4.261-4.182-8.666-8.506-9.933-10.607-1.512-2.508-2.487-2.562-4.626-2.68-.456-.025-.973-.054-1.54-.111a5.217,5.217,0,0,1-3.853-2.709,5.586,5.586,0,0,1-.832-4.515c1.118-2.821,4.74-3.449,6.686-3.787a9.8,9.8,0,0,0,.99-.2,1.059,1.059,0,0,0,.23-.131,8.916,8.916,0,0,1,3.342-1.209c4.069-.907,9.727-.749,12.532,1.739a9.78,9.78,0,0,0,4.849,2.557l.054.008c.532.111,4.9.364,12.819-1.1,7.245-1.339,11.457,2.36,13.482,4.137.271.238.506.444.7.6.335.264.672.483,1,.694,1.378.893,2.68,1.736,3.682,5.553.978,3.725-1.108,6.989-2.632,9.372a18.662,18.662,0,0,0-1.053,1.771c-.314.655-.663,1.282-1,1.889a11.436,11.436,0,0,0-1.758,4.543c-.005.068-.617,6.875-2.628,7.507-.663.208-2.778.653-3.768,0a1.108,1.108,0,0,1-.517-.835,1.722,1.722,0,0,1,.667-1.549,3.168,3.168,0,0,0,1.019-2.021,7.826,7.826,0,0,0-1.773-5.578c-1.36.209-4.355.334-7.253.454-2.493.1-5.549.231-6.373.395a21.682,21.682,0,0,0-.247,4.771c.529,2.154-.292,4.258-1.38,4.7A4.086,4.086,0,0,1,707.367,916.367ZM693.128,877.01a20.792,20.792,0,0,0-4.442.478,8,8,0,0,0-2.98,1.057,1.943,1.943,0,0,1-.5.26,9.945,9.945,0,0,1-1.132.234c-1.856.322-4.961.861-5.852,3.109a4.711,4.711,0,0,0,.749,3.539A4.27,4.27,0,0,0,682,887.872c.542.055,1.024.081,1.49.107,2.225.122,3.7.2,5.507,3.21,1.194,1.981,5.746,6.449,9.761,10.39,2.684,2.634,5.22,5.123,6.751,6.844.866.974,2.172,3.877,1.474,5.721a1.088,1.088,0,0,0,.02,1.014c.152.148.615.184,1.458-.16.488-.2,1.13-1.78.727-3.422a18.6,18.6,0,0,1,.381-5.7c.234-.453.492-.547,7.26-.829,2.926-.122,5.951-.247,7.2-.454a1.166,1.166,0,0,1,1,.439,8.929,8.929,0,0,1,1.949,6.431,4.253,4.253,0,0,1-1.331,2.611c-.306.3-.37.374-.343.66.168.242,1.619.284,2.861-.106.608-.191,1.619-3.4,1.861-6.542a12.242,12.242,0,0,1,1.893-4.991c.329-.592.669-1.205.969-1.831a19.26,19.26,0,0,1,1.118-1.888c1.414-2.212,3.351-5.241,2.5-8.5-.894-3.4-1.919-4.069-3.217-4.91-.348-.225-.707-.458-1.082-.754-.219-.173-.463-.387-.746-.636-2.04-1.791-5.837-5.125-12.557-3.882-7.96,1.472-12.45,1.245-13.216,1.1a10.872,10.872,0,0,1-5.435-2.825C698.69,877.593,695.94,877.01,693.128,877.01Z" transform="translate(-677 -875.908)" fill="#47280a" stroke="rgba(0,0,0,0)" stroke-width="1"/></g><path d="M693.514,916.906c.781-1.331,1.119-4.92-.095-5.687-.2-.128-1.106.156-1.653.312-1.352.5-2.477,1-3.032,2.4a5.219,5.219,0,0,0,.682,3.84,6.251,6.251,0,0,0,.756.863C690.61,919.021,692.759,918.194,693.514,916.906Z" transform="translate(-687.499 -907.174)" fill="#72492a" stroke="rgba(0,0,0,0)" stroke-width="1"/><path d="M812.486,922a.873.873,0,1,1,.524-.175h0A.87.87,0,0,1,812.486,922Zm-.027-.907a.043.043,0,0,0-.016.028.046.046,0,0,0,.008.032.045.045,0,0,0,.028.016.042.042,0,0,0,.032-.008Zm.026-.009a.042.042,0,0,0-.025.009l.051.068a.043.043,0,0,0,.009-.059A.043.043,0,0,0,812.485,921.086Z" transform="translate(-798.978 -915.39)" fill="#231815" stroke="rgba(0,0,0,0)" stroke-width="1"/><g transform="translate(2.73 5.941)"><ellipse cx="0.431" cy="0.212" rx="0.431" ry="0.212" transform="translate(0.07 0.861) rotate(-62.353)" fill="#221714" stroke="rgba(0,0,0,0)" stroke-width="1"/><path d="M706.4,932.878a.29.29,0,0,1-.138-.034h0a.36.36,0,0,1-.173-.348.887.887,0,0,1,.107-.379c.165-.315.432-.467.635-.36a.36.36,0,0,1,.173.348.958.958,0,0,1-.358.683A.423.423,0,0,1,706.4,932.878Zm.235-.745a.627.627,0,1,0-.062.182A.57.57,0,0,0,706.632,932.133Z" transform="translate(-706.086 -931.723)" fill="#231815" stroke="rgba(0,0,0,0)" stroke-width="1"/></g><g transform="translate(17.101 0)"><path d="M864.429,875.594s.886-1.74,2.077-1.19a1.44,1.44,0,0,1,.8,2.165c-.412.55-1.226,1.466-1.947,1.535" transform="translate(-863.939 -873.745)" fill="#895b31" stroke="rgba(0,0,0,0)" stroke-width="1"/><path d="M860.682,873.33l-.1-1.094a3.215,3.215,0,0,0,1.559-1.317.739.739,0,0,0,.108-.615,1.154,1.154,0,0,0-.7-.721c-.687-.316-1.351.929-1.357.942l-.979-.5c.389-.765,1.476-2.05,2.8-1.44a2.238,2.238,0,0,1,1.306,1.45,1.84,1.84,0,0,1-.294,1.543A4.1,4.1,0,0,1,860.682,873.33Z" transform="translate(-859.208 -868.425)" fill="#47280a" stroke="rgba(0,0,0,0)" stroke-width="1"/></g><g transform="translate(47.257 34.388)"><path d="M1187.134,1240.7a4.965,4.965,0,0,1-.054,1.195c-.458,2.55-1.8,2.172-1.68,3.42.092.962,2.405.733,3.573.367.844-.265,1.544-2.569,1.937-4.726A16.4,16.4,0,0,1,1187.134,1240.7Z" transform="translate(-1184.935 -1240.146)" fill="#595757" stroke="rgba(0,0,0,0)" stroke-width="1"/><path d="M1182.493,1241.14a2.788,2.788,0,0,1-1.493-.331,1.02,1.02,0,0,1-.476-.768,1.644,1.644,0,0,1,.64-1.475,3.283,3.283,0,0,0,1.045-2.07,4.5,4.5,0,0,0,.047-1.083l-.037-.581.573.1a16.111,16.111,0,0,0,3.663.251l.593-.047-.107.585c-.385,2.117-1.089,4.717-2.25,5.081A7.915,7.915,0,0,1,1182.493,1241.14Zm.69-5.219a4.942,4.942,0,0,1-.072.737,4.169,4.169,0,0,1-1.305,2.562c-.3.3-.4.394-.37.734,0,.019,0,.047.072.091a4.834,4.834,0,0,0,2.909-.118c.329-.1.983-1.207,1.514-3.8A16.85,16.85,0,0,1,1183.183,1235.921Z" transform="translate(-1180.515 -1234.831)" fill="#47280a" stroke="rgba(0,0,0,0)" stroke-width="1"/></g><g transform="translate(42.099 33.638)"><path d="M1132.735,1233.362c.088,1.908-1.29,2.153-1.317,2.881-.022.594.365,1.042,2.1.706s2.188-1.063,2.371-3.079c.011-.126.021-.252.031-.379A20.618,20.618,0,0,1,1132.735,1233.362Z" transform="translate(-1130.867 -1232.749)" fill="#595757" stroke="rgba(0,0,0,0)" stroke-width="1"/><path d="M1127.192,1231.7a1.808,1.808,0,0,1-1.218-.359,1.233,1.233,0,0,1-.413-1.032,1.662,1.662,0,0,1,.6-1.083,2.046,2.046,0,0,0,.718-1.751l-.03-.639.636.066a20.117,20.117,0,0,0,3.084.127l.634-.045-.047.633c-.01.13-.02.259-.031.388-.185,2.04-.672,3.153-2.814,3.569A5.99,5.99,0,0,1,1127.192,1231.7Zm.766-3.648a3.112,3.112,0,0,1-1.006,1.939c-.115.119-.289.3-.292.36,0,.038,0,.13.029.156s.285.209,1.413-.01c1.353-.263,1.727-.694,1.9-2.348C1129.342,1228.153,1128.6,1228.1,1127.957,1228.048Z" transform="translate(-1125.56 -1226.833)" fill="#47280a" stroke="rgba(0,0,0,0)" stroke-width="1"/></g><g transform="translate(28.775 34.825)"><path d="M988.532,1248.6h0a4.317,4.317,0,0,1,.1,2.6c-.351.926-.226,2.546,2.2,1.557.805-.328,1.512-2.2,1.054-4.062a3.279,3.279,0,0,1-.065-.571h0A6.609,6.609,0,0,1,988.532,1248.6Z" transform="translate(-988.023 -1247.311)" fill="#595757" stroke="rgba(0,0,0,0)" stroke-width="1"/><path d="M985.107,1245.7a1.476,1.476,0,0,1-1.075-.4,2,2,0,0,1-.258-2.092,3.872,3.872,0,0,0-.107-2.306l-.05-.172.221-.441.313.029a5.978,5.978,0,0,0,2.993-.409l.666-.424.038.788a2.75,2.75,0,0,0,.052.484c.51,2.076-.294,4.175-1.326,4.6A3.988,3.988,0,0,1,985.107,1245.7Zm-.409-4.434a4.218,4.218,0,0,1-.068,2.272,1.177,1.177,0,0,0,.041,1.111c.227.222.794.17,1.557-.14.526-.214,1.2-1.814.782-3.528v0A7.353,7.353,0,0,1,984.7,1241.262Z" transform="translate(-983.598 -1239.485)" fill="#47280a" stroke="rgba(0,0,0,0)" stroke-width="1"/></g><g transform="translate(34.048 10.177)"><line x2="3.538" y2="0.13" transform="translate(0.013 0.366)" fill="#804f21" stroke="rgba(0,0,0,0)" stroke-width="1"/><rect width="0.733" height="3.54" transform="translate(0 0.733) rotate(-87.903)" fill="#47280a" stroke="rgba(0,0,0,0)" stroke-width="1"/></g><g transform="translate(38.018 12.845)"><line x2="3.538" y2="0.13" transform="translate(0.013 0.366)" fill="#804f21" stroke="rgba(0,0,0,0)" stroke-width="1"/><rect width="0.733" height="3.54" transform="translate(0 0.733) rotate(-87.903)" fill="#47280a" stroke="rgba(0,0,0,0)" stroke-width="1"/></g><g transform="translate(43.44 9.315)"><line x2="2.899" y2="0.241" transform="translate(0.03 0.365)" fill="#804f21" stroke="rgba(0,0,0,0)" stroke-width="1"/><rect width="0.733" height="2.909" transform="matrix(0.083, -0.997, 0.997, 0.083, 0, 0.73)" fill="#47280a" stroke="rgba(0,0,0,0)" stroke-width="1"/></g></g></g></g></svg>