<svg xmlns="http://www.w3.org/2000/svg" xmlns:xlink="http://www.w3.org/1999/xlink" width="375" height="812" viewBox="0 0 375 812"><defs><clipPath id="b"><rect width="375" height="812"/></clipPath></defs><g id="a" clip-path="url(#b)"><rect width="375" height="812" fill="#fff"/><g transform="translate(0.782 2.121)"><rect width="390.832" height="315.471" transform="translate(-7.916 -9.25)" fill="#daefec"/><path d="M370.446,213.941a3.748,3.748,0,0,0-4.345,1.225,2.344,2.344,0,0,0-1.588-2.473,2.048,2.048,0,0,0-2.285,1.591c-.343-2.225-2.523-3.823-4.419-3.239a10.324,10.324,0,0,1-1.73.6,3.919,3.919,0,0,1-1.967-.478l-5.688-2.484c-.851-.372-2.3-.209-2.09.812.63-.392.539-1.56,0-2.108a3.094,3.094,0,0,0-2.014-.72l-9.838-1.008c-1.166-.119-2.65-.031-3.09,1.219a1.4,1.4,0,0,0-2.255.351,4.772,4.772,0,0,0-7.9.933,6.948,6.948,0,0,0-7.016.01,7.392,7.392,0,0,1-6.469,1.025,27.066,27.066,0,0,0-3.947-1.45,2.939,2.939,0,0,0-3.39,1.984c-1.61-1.971-5.018-.965-5.6,1.655l-1.606-.418-.757,1.873a7.682,7.682,0,0,0-6.333.942,3.6,3.6,0,0,0-1.992-1.295,1.375,1.375,0,0,0-1.444,1.572,2.165,2.165,0,0,0-2.016-1.26c.5,1.2-.825,2.259-1.847,2.881s-1.972,2.392-.969,3.055c-2.482,1.009-5.52,3.153-4.8,6.066-2.267-.854-4.82.411-6.432,2.436a20.77,20.77,0,0,0-3.214,7.292c-.981-.158-1.9.758-2.245,1.827a8.759,8.759,0,0,0-.164,3.387l-4.649.3a3.117,3.117,0,0,1,1.613,2.815c-.006.534-.137,1.059-.141,1.593a6.47,6.47,0,0,0,1.191,3.269c1.232,2.072,2.529,4.215,4.423,5.461s4.569,1.3,6.032-.561c3.007,1.745,6.621,1.152,9.88,2.125,2.981.889,5.714,3.1,8.793,3.045,2.733-.046,5.2-1.878,7.886-2.45a17.363,17.363,0,0,1,3.892-.236,30.907,30.907,0,0,1,7.412.708c4.2,1.1,8.9,3.856,12.437,1.025a5.521,5.521,0,0,0,4.6,2.387l.766-1.32c-.043,2.226,2.554,2.962,4.488,2.971l5.827.029c1.74.009,4.17-.908,3.746-2.851.387,2.6,3.183,3.691,5.47,3.5s4.615-1.106,6.82-.384a1.287,1.287,0,0,1,1.112-1.613,4.031,4.031,0,0,1,1.99.7,14.884,14.884,0,0,0,5.68,1.22l9.924.791c2.123.169,4.344.319,6.29-.672a5.4,5.4,0,0,0,2.84-5.86l3.518-.547-.018-16.7c0-3.733-.136-7.858-2.361-10.574-1.09-1.33-2.633-2.24-3.3-3.9-.555-1.37-.393-2.973-.683-4.447-.441-2.235-1.6-1.932-2.943-2.822C372.367,215.995,371.78,214.5,370.446,213.941Z" transform="translate(0 32)" fill="#77a778" stroke="#49311c" stroke-linecap="round" stroke-linejoin="round" stroke-width="1"/><path d="M-31.22,250.04l331.251,23.5s.967-9.081-1.1-9.423-23.774-7.741-28.441-8.163-78.4,1.6-83.2-.832c-4.734-2.4-7.042-4.831-9.547-5.132-5.183-.622-8.534,3.006-12.416,2.96s-11.032-5.869-16.578-6.523-14.99,3.5-19.619,3.045-27.02-10.293-34.379-10.9-33.477,2.382-36.836,2.3-16.569-5.188-20.19-5.527-17.086,4.5-20.758,4.079-27.44-6.859-30.453-7.065c0,0-18.128-.76-17.741,4.439S-31.22,250.04-31.22,250.04Z" transform="translate(0 32)" fill="#738e6c" stroke="#49311c" stroke-miterlimit="10" stroke-width="1"/><g transform="translate(0 32)"><path d="M40.365,205.592s24.806-5.349,29.868-5.891,13.736.8,19.248,17.476c-6.909.283-52.552,7.406-52.552,7.406Z" fill="#666" stroke="#49311c" stroke-linecap="round" stroke-linejoin="round" stroke-width="1"/><path d="M90.908,247.437s-1.462-17.084-2.179-26.761c-2.628-8.6-9.2-19.95-17.084-18.875s-21.025,3.584-29.985,5.017S27.085,224.5,27.085,224.5l-2.333,22.938Z" fill="#ef8e85" stroke="#49311c" stroke-linecap="round" stroke-linejoin="round" stroke-width="1"/><line x1="1.18" y2="23.34" transform="translate(55.15 224.097)" stroke-width="1" stroke="#49311c" stroke-linecap="round" stroke-linejoin="round" fill="none"/><path d="M72.838,201.733C58.37,201.115,56.33,219.16,56.33,219.16" fill="none" stroke="#49311c" stroke-linecap="round" stroke-linejoin="round" stroke-width="1"/><path d="M68.1,207.22v3.5l10.06.309-.58-3.476Z" fill="#f9f9f9" stroke="#49311c" stroke-linecap="round" stroke-linejoin="round" stroke-width="1"/><path d="M70.151,210.783l-.345,6.394h6.086v-6.218Z" fill="#f9f9f9" stroke="#49311c" stroke-linecap="round" stroke-linejoin="round" stroke-width="1"/><path d="M63.223,228.976l-1.973,2.141,11.6,17.794,1.677-1.474Z" fill="#f9f9f9" stroke="#49311c" stroke-linecap="round" stroke-linejoin="round" stroke-width="1"/><path d="M83.335,229.687l1.748,2.333L73.843,250.65l-2.484-.5Z" fill="#f9f9f9" stroke="#49311c" stroke-linecap="round" stroke-linejoin="round" stroke-width="1"/><path d="M59.649,248.166l.841-20.121h2.36l-.591,20.121Z" fill="#f9f9f9" stroke="#49311c" stroke-linecap="round" stroke-linejoin="round" stroke-width="1"/><path d="M72.132,249l.841-20.121h2.36L74.742,249Z" fill="#f9f9f9" stroke="#49311c" stroke-linecap="round" stroke-linejoin="round" stroke-width="1"/><path d="M84.025,248.538l-.495-19.873h2.36l.745,19.873Z" fill="#f9f9f9" stroke="#49311c" stroke-linecap="round" stroke-linejoin="round" stroke-width="1"/><path d="M60.18,227.447v2.36l26.176,1.31-.093-2.49Z" fill="#f9f9f9" stroke="#49311c" stroke-linecap="round" stroke-linejoin="round" stroke-width="1"/><path d="M55.3,219.16l34.677,1.785v4.475l-33.353-1.374-31.009,5.409.828-4.716Z" fill="#f9f9f9" stroke="#49311c" stroke-linecap="round" stroke-linejoin="round" stroke-width="1"/><path d="M30.534,234.117l-.239,4.364,2.977-.165.719-4.7Z" fill="#f9f9f9" stroke="#49311c" stroke-linecap="round" stroke-linejoin="round" stroke-width="1"/><path d="M44.2,231.52l-.251,5.749,3.517-.249.524-6.185Z" fill="#f9f9f9" stroke="#49311c" stroke-linecap="round" stroke-linejoin="round" stroke-width="1"/><path d="M29.8,232.344l-.478,2.058,5.99-.864.441-2.421Z" fill="#f9f9f9" stroke="#49311c" stroke-linecap="round" stroke-linejoin="round" stroke-width="1"/><path d="M42.77,229.83v2.335l6.679-.963.492-2.7Z" fill="#f9f9f9" stroke="#49311c" stroke-linecap="round" stroke-linejoin="round" stroke-width="1"/><path d="M70.233,199.7S48.6,202.892,38.99,206.016s-13.5,17.075-13.5,17.075l29.158-5.364S57.55,200.1,70.233,199.7Z" fill="#d0d0d0" stroke="#49311c" stroke-linecap="round" stroke-linejoin="round" stroke-width="1"/></g><g transform="translate(0 32)"><path d="M103.876,211.514l-5.381,39.246,3.839,1.794L108,210.479Z" fill="#f9f9f9" stroke="#49311c" stroke-linecap="round" stroke-linejoin="round" stroke-width="1"/><path d="M117.9,208.741l-3.507.375,9.344,42.927,4.737.68Z" fill="#f9f9f9" stroke="#49311c" stroke-linecap="round" stroke-linejoin="round" stroke-width="1"/><path d="M109.8,209.157l1.424,39.79,3.806,1.119-2.707-41.179Z" fill="#d3d3d3" stroke="#49311c" stroke-linecap="round" stroke-linejoin="round" stroke-width="1"/><path d="M101.611,196.3c-4.777,1.722-4.865,16.348,1.676,15.654s13.655-1.964,18.8-2.642,2.513-16.933-3.021-16.341S101.611,196.3,101.611,196.3Z" fill="#f9f9f9" stroke="#49311c" stroke-linecap="round" stroke-linejoin="round" stroke-width="1"/><path d="M116.953,196.893s-2.458,5.352,1.077,10.061" fill="#f9f9f9" stroke="#49311c" stroke-linecap="round" stroke-linejoin="round" stroke-width="1"/><path d="M105.315,216.639l-.206,2.237,13.794,1.714-.424-3.962Z" fill="#e5e5e5" stroke="#49311c" stroke-linecap="round" stroke-linejoin="round" stroke-width="1"/><path d="M104.661,224.2l-1,2.542,16.5,3.173-.7-4.084Z" fill="#e5e5e5" stroke="#49311c" stroke-linecap="round" stroke-linejoin="round" stroke-width="1"/><path d="M103.236,232.868l-.294,2.6,18.875,2.241-.361-3.375Z" fill="#e5e5e5" stroke="#49311c" stroke-linecap="round" stroke-linejoin="round" stroke-width="1"/><path d="M102.389,240.994l-.157,1.861,21.96,3.373-.841-3.694Z" fill="#e5e5e5" stroke="#49311c" stroke-linecap="round" stroke-linejoin="round" stroke-width="1"/></g><g transform="translate(0 32)"><path d="M126.411,192.237,124.2,198.5l1.155,1.519,2.522-6.545Z" fill="#d0d0d0" stroke="#49311c" stroke-linecap="round" stroke-linejoin="round" stroke-width="1"/><path d="M125.021,201.909l-.738,2.61,2.791,4.887.974-2.988Z" fill="#d0d0d0" stroke="#49311c" stroke-linecap="round" stroke-linejoin="round" stroke-width="1"/><path d="M120.806,197.647c-1.541.373-1.458,7.17.788,7.357s6.486-1.2,5.857-4.7S123.162,197.077,120.806,197.647Z" fill="#d0d0d0" stroke="#49311c" stroke-linecap="round" stroke-linejoin="round" stroke-width="1"/><path d="M119.667,195.034s2.445,4.445,2.789,4.493a1.185,1.185,0,0,0,1.168-.973c.175-.74-2.608-5.912-2.608-5.912Z" fill="#d0d0d0" stroke="#49311c" stroke-linecap="round" stroke-linejoin="round" stroke-width="1"/><path d="M118.643,196.712l3.479-5.291-8.646-17.561-6.6,7.83Z" fill="#d0d0d0" stroke="#49311c" stroke-linecap="round" stroke-linejoin="round" stroke-width="1"/><path d="M127.8,203.894l-2.087,4.866L132.557,221l2.392-7.952Z" fill="#d0d0d0" stroke="#49311c" stroke-linecap="round" stroke-linejoin="round" stroke-width="1"/><path d="M125.547,192.128l2.192,4.663,5.885-13.35-2.925-5.991Z" fill="#d0d0d0" stroke="#49311c" stroke-linecap="round" stroke-linejoin="round" stroke-width="1"/><path d="M119.636,208.476s1.949-4.552,2.354-4.755,1.194,1.476,1.194,1.476l-1.966,5.515Z" fill="#d0d0d0" stroke="#49311c" stroke-linecap="round" stroke-linejoin="round" stroke-width="1"/><path d="M118.842,205.395l3.972,5.617-5.751,18.164-4.537-7.84Z" fill="#d0d0d0" stroke="#49311c" stroke-linecap="round" stroke-linejoin="round" stroke-width="1"/></g><path d="M305.776,246.022c.417,1.3.762,2.95-.185,3.89a8.564,8.564,0,0,1-1.5.9,9.626,9.626,0,0,0-1.573,1.6c-2.1,2.239-5.279,2.769-8.229,3.185a41.653,41.653,0,0,1-9.928.6,5.328,5.328,0,0,0-2.219.051,1.749,1.749,0,0,0-1.252,1.736,5.789,5.789,0,0,0-2.281-1.209,1.977,1.977,0,0,0-2.191,1.014,5.511,5.511,0,0,0-3.133-.608c-2.949.017-5.982.052-8.713,1.233-1.388.6-2.8,1.508-4.272,1.229-1.041-.2-1.947-.972-3-1.036-.707-.043-1.4.243-2.106.259-2.075.048-3.994-2.174-5.949-1.435a11.211,11.211,0,0,1-1.766.857c-.641.117-1.444-.533-1.14-1.143-1.068.3-2.167-.223-3.249-.461s-2.484.007-2.836,1.121c-.059-.585-.909-.461-1.359-.119s-1.176.686-1.449.175a3.455,3.455,0,0,1,.713-2.241,5.6,5.6,0,0,1-4.667-2.356,4.286,4.286,0,0,1,.356-5.21,2.616,2.616,0,0,1,.161-4.284c-.842-.624-1.785-1.743-1.2-2.638a2.183,2.183,0,0,1,.689-.581,12.437,12.437,0,0,0,3.538-3.475c.826-1.218,1.573-2.694,2.923-3.138.456-.149,1.031-.231,1.209-.7s-.19-1.125.132-1.517a.948.948,0,0,1,.823-.217,39.519,39.519,0,0,0,6.417-.154c-.067-.929,1.14-1.308,2-1.126s1.841.564,2.539,0c.424-.344.6-.959,1.042-1.281.7-.513,1.635-.054,2.475.094,2.218.39,4.181-1.528,6.382-2.013,2.315-.511,4.994.538,6.937-.893.753-.554,1.362-1.463,2.273-1.554.6-.061,1.25.263,1.8-.017.322-.165.531-.509.834-.711a1.918,1.918,0,0,1,1.29-.207,7.006,7.006,0,0,1,4,1.849c-.016-.6.749-.864,1.3-.712a4.78,4.78,0,0,0,1.621.476c.423-.039.833-.32,1.246-.214.395.1.633.513.937.8a5.33,5.33,0,0,0,2.24.872c.771.239,1.593.867,1.522,1.717,0,0,3.911-.224,4.286,1.49s3.825,2.939,3.825,2.939,2.9-.957,2.246,1.119.307,2.77,2.956,4.676S305.776,246.022,305.776,246.022Z" transform="translate(0 32)" fill="#77a778" stroke="#49311c" stroke-linecap="round" stroke-linejoin="round" stroke-width="1"/><path d="M-33.393,262.862a53.292,53.292,0,0,0-.031,37.321,10.662,10.662,0,0,0,3.091,4.891,11.326,11.326,0,0,0,5.383,1.8c12.028,1.754,24.236,1.757,36.39,1.634,66.734-.681,133.62-5.089,200.11.652,20.492,1.769,41.434,4.468,61.391-.508L269.927,279.3a6.14,6.14,0,0,0-1.054-3.4c-1.169-1.394-3.252-1.459-5.071-1.433-44.433.642-87.916-11.37-131.375-20.642S43.4,238.019.458,249.448c-9.557,2.543-19.141,6.111-26.478,12.743Z" transform="translate(0 32)" fill="#bcdbac" stroke="#49311c" stroke-miterlimit="10" stroke-width="1"/><path d="M72.738,249.509a11.57,11.57,0,0,1,3.668,8.282c-.14,3.832-2.748,7.047-4.551,10.431a26.87,26.87,0,0,0-1.47,21.646,9.4,9.4,0,0,0,3.527,4.987,11,11,0,0,0,4.715,1.214,173.832,173.832,0,0,0,20.763.784,32.361,32.361,0,0,1-9.873-10.517,20.126,20.126,0,0,1-2.306-14.04c.8-3.462,2.692-6.668,2.951-10.212.331-4.525-2.07-8.811-4.92-12.342-1.34-1.66-2.706-3.5-4.677-4.315-3.385-1.4-7.8-1.317-11.848-1.526-2.118-.11-2.386.667-.763,1.962A49.777,49.777,0,0,1,72.738,249.509Z" transform="translate(0 32)" fill="#f9d9b2" stroke="#49311c" stroke-linecap="round" stroke-linejoin="round" stroke-width="1"/><g transform="translate(0 32)"><path d="M-3.585,731.849v16.91h382.17v-6.972C251.442,747.936,123.519,740.424-3.585,731.849Z" fill="none"/><path d="M348.071,247.16c-5.838-.524-37.9-3.992-43.78-3.709-7.2.348-27.48.569-34.546,1.527-29.431,3.993-35.064,3.107-64.3,7.636-9.291,1.438-76.606,30.079-85.852,31.631-19.5,3.272-39.844,7.917-43.438,8.072-30.442,1.308-47.882-5.771-63.619-8.508-8.257-1.436-13.119-3.66-16.118-5.893V731.849c127.1,8.575,255.027,16.087,382.17,9.938V250.5C370.717,249.591,361.615,248.376,348.071,247.16Z" fill="#9bc88d" stroke="#49311c" stroke-miterlimit="10" stroke-width="1"/><path d="M279.873,289.288c27.883,32.344,31.265,66.53,32.269,66.646,13.284,1.532,56.3,6.94,69.668,6.625-.762-4.439-30.232-62.328-79.659-93.411-17.6-11.066-49.693-24.108-61.019-23.153-3.783.319-21.725,1.78-24.3,4.851C220.091,251.569,259.451,265.6,279.873,289.288Z" fill="#f9d9b2" stroke="#49311c" stroke-linecap="round" stroke-linejoin="round" stroke-width="1"/></g><path d="M349.435,57.8c-2.952-1.051-5.3,2.509-7.3,4.712s-3.583,4.884-6.4,6.2c-1.767.825-4.124,1.232-4.823,2.9-.711,1.691,1.045,3.565,3.032,3.918a10.583,10.583,0,0,0,5.834-1.129,66.818,66.818,0,0,0,13.258-7.449,14.367,14.367,0,0,0,4.006-3.894,4.943,4.943,0,0,0,.29-5.094c-1.535-2.525-6.306-2.643-8-.2" fill="#fff"/><path d="M247.924-3.193c-7.321.483-13.614,4.6-19.458,8.557C222.8,9.2,217.1,13.063,212.2,17.664a16.582,16.582,0,0,1-4.184,3.244c-2.076.969-4.511,1.021-6.835,1.293a32.059,32.059,0,0,0-18.442,8.549c-1.643,1.6-3.068,3.366-4.762,4.919-5.36,4.915-12.913,7.276-19.751,10.416S144.563,53.958,143.187,60.7a2.872,2.872,0,0,0,.329,2.44,4.146,4.146,0,0,0,2.04,1.082c4.109,1.275,8.833,2.512,12.619.6,3.538-1.783,5-5.745,8.3-7.862,4.428-2.843,10.692-1.576,15.775-3.347,4.3-1.5,7.288-5,11.2-7.189,3.939-2.21,8.634-3.006,13.089-4.208,12.753-3.442,23.9-10.365,34.809-17.182l17.7-11.06c7.352-4.594,14.794-9.232,23.156-12.149,8.842-3.084,19.45-4.765,24.462-11.95" fill="#fff"/><path d="M336.155-.072c-7.449-1.969-13.8,4.9-21,7.507-2.91,1.053-6.094,1.409-8.984,2.5-5.127,1.944-8.823,6-13.471,8.737-8.308,4.9-20.092,5.976-25.125,13.634-1.929,2.935-2.7,6.678-5.79,8.674-1.9,1.225-4.921,2.647-3.854,4.506a3.5,3.5,0,0,0,1.512,1.185c3.935,2.029,8.887,3.633,12.9,1.722,2.666-1.27,4.275-3.835,6.844-5.254,4.277-2.363,10.074-1.016,14.6-2.985,3.355-1.462,5.424-4.473,7.758-7.07a40.835,40.835,0,0,1,24.195-12.625c2.662-.393,5.417-.553,7.889-1.518,3.176-1.24,5.53-3.663,8.055-5.78C349.218,6.844,358.836,2.93,368.266-.874" fill="#fff"/><path d="M381.115,23.176c-5.247.2-11.053.624-14.668,4.018-2.283,2.143-3.36,5.224-5.982,7.032-3.683,2.539-9.159,1.754-13.143,3.9a17.116,17.116,0,0,0-4.513,4L335.2,50.7c-.459.517-.946,1.138-.772,1.779a2.117,2.117,0,0,0,1.148,1.121,13.916,13.916,0,0,0,14.029-.758c1.873-1.317,3.312-3.115,5.359-4.206,3.687-1.963,8.337-1.195,12.625-1.426,8.7-.468,16.276-5.187,23.337-9.734" fill="#fff"/><path d="M331.1,78.266a28.764,28.764,0,0,0-16.117,4.122c-2.133,1.3-4.023,2.923-6.277,4.055-2.148,1.079-14.569,2.223-16.641,3.414-10.084,5.795-18.251,10.239-29.6,14.2-1.777.62-2.409,5.6-2.071,7.27,12.743,1.044,23.483-7.738,35.249-12.217,6.879-2.619,14.374-3.8,21.18-6.568s13.209-7.715,14.319-14.305" fill="#fff"/><path d="M137.33,66.107a19.363,19.363,0,0,0-11.4,5.626,3.61,3.61,0,0,0-.885,1.284c-.392,1.181.527,2.466,1.765,3.011a7.8,7.8,0,0,0,4.065.337,28.121,28.121,0,0,0,8.617-2.616,10.159,10.159,0,0,0,3.607-2.531,3.551,3.551,0,0,0,.6-3.89c-1.011-1.821-4.048-1.854-6.219-1.232" fill="#fff"/><path d="M230.655,52.091c-3.476,1.825-7.007,3.811-11,4.305a31.486,31.486,0,0,1-5.976-.026c-1.879-.127-4.165-.523-4.75-2.118-.565-1.54.9-3.045,2.322-4.057,5.494-3.92,12.109-6.346,18.623-8.72a18.958,18.958,0,0,1,6.1-1.477c2.636-.045,5.734.858,7.61-.792.956-.841,1.258-2.141,2.209-2.986,4.267-3.791,13.154,2.3,5.828,6.671C245.368,46.617,237.247,48.632,230.655,52.091Z" fill="#fff"/><g transform="translate(0 32)"><rect width="382.169" height="471" transform="translate(-3.585 346)" fill="#9bc88d"/><path d="M-5.015,339.231c2.87-.36,19.913.466,23.293,0s38.221-.466,41.757-.078,38.757-.017,41.757.186,37.908-.673,41.757-.468,37.482.637,41.795.5,38.262,1.057,43.8.8c4.316-.2,34.317-1.56,39.674-1.325s36.937.991,41.757.769,38.766.926,45,.819,23.555.121,26.326.007,4.157,9.38,4.157,9.38a25.488,25.488,0,0,1-2.771,3.734c-.693.467-29.005,1.4-30.956,1.245s-40.4-.778-43.518-.778-32.19-1.245-40-.933-40.713,1.789-43.831,1.011-38.1-1.011-40.874-.856-37.41.778-42.606.467-33.364-.622-39.717-.622-36.98-.312-41.757-.312-40.634.467-41.757.467-20.522-1.378-23.293-1.856S-6.693,339.441-5.015,339.231Z" fill="#d8b993" stroke="#49311c" stroke-miterlimit="10" stroke-width="1"/><path d="M8.035,377S5.26,334.181,5.782,330.3s7.969-14.094,10.74-14.094,13.856,8.313,13.856,10.218,1.039,48.668,0,50.573S9.94,378.215,8.035,377Z" fill="#d8b993" stroke="#49311c" stroke-miterlimit="10" stroke-width="1"/><path d="M49.549,376.75s-2.639-46.647,0-49.88,9.615-9.584,11.5-10.45,8.672,8.833,9.049,10.911,3.393,46.648,0,48.495S49.651,378.634,49.549,376.75Z" fill="#d8b993" stroke="#49311c" stroke-miterlimit="10" stroke-width="1"/><path d="M101.792,316.326c2.3.5,11.658,10.164,11.831,11.723s2.425,49.188-1.212,49.188-19.744,1.385-21.13-1.213-2.944-46.07-1.732-48.148S97.808,315.46,101.792,316.326Z" fill="#d8b993" stroke="#49311c" stroke-miterlimit="10" stroke-width="1"/><path d="M131.953,377.207c1.4,2.162,20.783,2.99,22.342.716s2.6-47.652,1.559-50.076-9.627-12.471-11.742-12.471-11.12,11.258-12.159,13.683S130.048,374.263,131.953,377.207Z" fill="#d8b993" stroke="#49311c" stroke-miterlimit="10" stroke-width="1"/><path d="M186.618,313.964c1.9,0,10.738,12.47,11.084,14.376s-.692,46.981-2.424,49.9-19.225,3.7-20.611,1.231-2.6-48.537-1.212-51.134S183.673,313.964,186.618,313.964Z" fill="#d8b993" stroke="#49311c" stroke-miterlimit="10" stroke-width="1"/><path d="M228.614,313.814c2.733-.026,11.2,16.378,11.2,18.11s.582,46.82-1.5,48.033-20.437,2.424-22.689,0-1.385-47.283,0-48.668S226.709,313.831,228.614,313.814Z" fill="#d8b993" stroke="#49311c" stroke-miterlimit="10" stroke-width="1"/><path d="M310.577,313.193c2.031-.012,10.039,9.61,11.891,13.675,1.55,3.4,2.346,53.666-1.369,54.725s-19.941.942-22.287-1.382-1.378-49.215-.031-53.458C299.323,325.047,308.041,313.208,310.577,313.193Z" fill="#d8b993" stroke="#49311c" stroke-miterlimit="10" stroke-width="1"/><path d="M267.839,311.951c3,0,11.03,10.04,12.551,14.034s1.942,53.851,0,55.03-20.957.809-22.558-1.413-2.686-48.883-1.133-51.846S264.837,311.951,267.839,311.951Z" fill="#d8b993" stroke="#49311c" stroke-miterlimit="10" stroke-width="1"/><path d="M352.614,314.014c1.728-.043,12.358,15.069,12.358,17.135s-.663,46.64-2.064,49.006-20.709,1.648-21.837,0-2.425-43.39,0-49.006S348.915,314.105,352.614,314.014Z" fill="#d8b993" stroke="#49311c" stroke-miterlimit="10" stroke-width="1"/></g><g transform="translate(0 32)"><path d="M2.067,382.871s.2-5.719-2.153-7.535c3.162.067,7.05-.023,7.931,3.823,1.891-3.89,3.371-7.388,7.205-9.07-1.413,5.113-1.345,9.956,0,11.3,1.749-5.988,2.557-9.217,6.189-10.764-.134,5.987,0,9.553,2.489,11.5.673-7.669,3.633-12.042,3.633-12.042s.6,5.43,1.009,9.207c3.3-6.785,6.391-6.449,8.207-4.633-2.489,1.548-4.911,8.208-4.911,8.208" fill="#9bc88d" stroke="#603813" stroke-linecap="round" stroke-linejoin="round" stroke-width="1"/><path d="M45.128,380.873c-1.48-2.557-2.018-6.122-5.18-6.189,3.969-1.884,8.813-1.1,9.822,3.354,1.48-6.314.672-9.341,4.843-11.36-.2,4.642-1.547,9.083,0,11.841,1.48-4.71,5.382-13.455,9.553-10.293-1.749,2.22-4.978,7.193-4.036,9.617,2.96-3.967,2.287-6.388,6.189-5.85-.135,2.354-2.153,7.8-2.153,7.8,3.633-2.758,4.642-10.09,8.274-8.879-1.606,2.3-2.758,4.69-1.749,7.121,3.028-4.565,4.911-5.776,7-3.287-2.355,2.355-4.642,3.431-4.373,6.122" fill="#9bc88d" stroke="#603813" stroke-linecap="round" stroke-linejoin="round" stroke-width="1"/><path d="M87.375,382.356s-1.564-8.2-4.288-8.2a8.322,8.322,0,0,1,8.93,6.458c.3-4.995.454-8.829-2.119-10.848,6.66,3.028,5.6,7.669,6.256,10.293.858-3.885,2.472-9.435.858-11.3,3.885,4.642,3.958,8.022,4.022,11.807,1.124-6.005,3.647-13.875,7.027-12.917a45.028,45.028,0,0,0-2.772,11.436c2.772-5.583,4.736-8.909,7.414-8.509-2.169,2.724-4.087,5.6-3.128,9.485,2.27-4.995,3.738-7.114,6.233-7.064-.885,2.154-3,4.945-1.995,7.266,1.211-3.482,5.247-3.784,5.247-3.784s-2.32,3.538-2.724,5.881" fill="#9bc88d" stroke="#603813" stroke-linecap="round" stroke-linejoin="round" stroke-width="1"/><path d="M121.712,382.486s3.238-4.154-.858-11.09c5.645,3.345,8.2,4.183,8.506,8.441,0-4.318-.541-6.191,4.176-9.962a19.457,19.457,0,0,0,1.428,11.462c2.088-3.342,1.819-5.38,1.433-8.786,3.016,3.041,4.021,2.6,3.634,6.371,3.016-3.16,3.038-8.713,7.833-6.645-2.166,1.521-2.42,2.877-1.646,6.343,1.7-1.763,2.268-4.325,4.639-4.577a4.878,4.878,0,0,0,.31,4.273c2.263-1.3,2.566-2.911,2.717-5.989,2.475,1.918,3.22,4.091,2.369,8.47,0,0,3.265-7.625,9.051-4.617-2.489,1.933-4.709,3.057-5.382,7.1" fill="#9bc88d" stroke="#603813" stroke-linecap="round" stroke-linejoin="round" stroke-width="1"/><path d="M337.825,385.224s.337-3.9-3.834-8.813c4.978.673,6.743,1.686,8.652,4.779-.176-5.25.564-11.573,3.12-13.524-.134,5.852.061,11.655,2.015,14.169.609-4.011,2.627-4.011,1.416-8.317,3.7,2.355,5.221,4.75,4.292,8.564,2.5-4.527,1.09-11.793,6.674-10.447-.673,2.892-2.086,6.256-2.153,9.889,2.354-2.691,5.113-3.364,5.18-8.14.942,3.5,2.651,3.119.451,7.984,3.652-3.948,3.787-4.553,7.958-4.284-2.22,1.682-3.229.423-4.306,5.66" fill="#9bc88d" stroke="#603813" stroke-linecap="round" stroke-linejoin="round" stroke-width="1"/><path d="M290.169,383.57s1.652-7.82-.568-11.722c3.5,1.48,7.2,8.678,7.2,8.678a17.663,17.663,0,0,0-1.413-10.292c4.1,2.421,7.131,9.956,7.131,9.956s1.62-6.448-.807-11.638c4.574,4.978,6.358,12.311,6.358,12.311s1.513-6.189.975-9.015c3.027,1.951,2.825,3.566,2.892,8.409,1.346-7.332,2.826-8.812,5.113-11.7-.2,2.691.807,7.8-.4,11.5,2.422-3.9,2.691-7.332,4.978-7.8-.874,3.027-1.278,3.9-.269,7.131,2.624-3.768,3.9-3.633,7.131-2.691-1.614,1.143-4.213,2.977-4.213,6.878" fill="#9bc88d" stroke="#603813" stroke-linecap="round" stroke-linejoin="round" stroke-width="1"/><path d="M208.344,385.1s.4-5.489-1.48-9.539c3.767,2.543,5.92,1.655,7.13,7.548a90.294,90.294,0,0,0-2.342-13.027s7.993,4.981,8.128,13.027c1.211-5.678.807-14.252.807-14.252a37.089,37.089,0,0,1,5.117,13.857,44.533,44.533,0,0,1,5.109-11.068v10.824c1.21-1.944,2.959-9.882,7.669-9.21-1.75,2.422-2.288,5.57-2.153,9.849.807-2.852,6.727-7.548,6.727-7.548a29.7,29.7,0,0,0-1.748,8.866" fill="#9bc88d" stroke="#603813" stroke-linecap="round" stroke-linejoin="round" stroke-width="1"/><path d="M170.193,383.216s-.067-5.651-4.238-4.037c3.969-2.489,7.2-3.788,8.207,1.873,1.48-2.815,2.22-4.429,1.547-7.322,2.153,2.556,3.5,3.153,2.691,8.472,1.077-4.772,2.019-8.741,6.593-9.481-2.153,3.364-3.817,7.425-1.639,8.893,1.639-2.771,2.379-1.994,2.514-5.175,1.21,2.673,1.43,3.473,1.925,4.721.5-4.672,1.438-8.439,5.071-8.439-.875,1.884-2.2,3.245-1.706,7.778,2.446-1.993,2.715-2.235,2.917-5.477a7.15,7.15,0,0,1,1.614,5.57c1.144-2.691,1.413-2.691,4.844-2.624-1.615,1.548-2.22,1.346-3.3,5.248" fill="#9bc88d" stroke="#603813" stroke-linecap="round" stroke-linejoin="round" stroke-width="1"/><path d="M249.843,384.685s3.177-7.534,0-11.3c3.348,1.48,4.828,2.287,5.232,7.063.807-4.574,3.7-3.834,2.758-8.409,2.287,3.835,1.614,4.5,2.489,9.284.471-3.83,1.816-11.907,5.987-11.773-.538,2.489-2.191,6.714-1.465,12.54,2.272-3.391,3.349-5.14,3.08-8.571,1.682,2.489,3.229,2.48,1.883,8.2,2.22-4.3,2.624-6.319,5.719-8.472-.471,4.238-1.413,4.023-1.211,8.84,2.22-3.323,2.489-3.6,3.767-5.518.863,2.6.336,3.761,0,6.173,1.816-3.238,3.565-3.171,6.122-2.633-1.413,1.345-3.162,1.547-3.431,5.045" fill="#9bc88d" stroke="#603813" stroke-linecap="round" stroke-linejoin="round" stroke-width="1"/></g><rect width="382.169" height="679.752" transform="translate(-3.585 98.343)" fill="none"/></g></g></svg>