<svg xmlns="http://www.w3.org/2000/svg" xmlns:xlink="http://www.w3.org/1999/xlink" width="375" height="812" viewBox="0 0 375 812"><defs><clipPath id="b"><rect width="375" height="812"/></clipPath></defs><g id="a" clip-path="url(#b)"><rect width="375" height="812" fill="#fff"/><g transform="translate(-0.218 0.121)"><rect width="390.832" height="315.471" transform="translate(-7.916 -9.25)" fill="#daefec"/><path d="M370.446,213.941a3.748,3.748,0,0,0-4.345,1.225,2.344,2.344,0,0,0-1.588-2.473,2.048,2.048,0,0,0-2.285,1.591c-.343-2.225-2.523-3.823-4.419-3.239a10.324,10.324,0,0,1-1.73.6,3.919,3.919,0,0,1-1.967-.478l-5.688-2.484c-.851-.372-2.3-.209-2.09.812.63-.392.539-1.56,0-2.108a3.094,3.094,0,0,0-2.014-.72l-9.838-1.008c-1.166-.119-2.65-.031-3.09,1.219a1.4,1.4,0,0,0-2.255.351,4.772,4.772,0,0,0-7.9.933,6.948,6.948,0,0,0-7.016.01,7.392,7.392,0,0,1-6.469,1.025,27.066,27.066,0,0,0-3.947-1.45,2.939,2.939,0,0,0-3.39,1.984c-1.61-1.971-5.018-.965-5.6,1.655l-1.606-.418-.757,1.873a7.682,7.682,0,0,0-6.333.942,3.6,3.6,0,0,0-1.992-1.295,1.375,1.375,0,0,0-1.444,1.572,2.165,2.165,0,0,0-2.016-1.26c.5,1.2-.825,2.259-1.847,2.881s-1.972,2.392-.969,3.055c-2.482,1.009-5.52,3.153-4.8,6.066-2.267-.854-4.82.411-6.432,2.436a20.77,20.77,0,0,0-3.214,7.292c-.981-.158-1.9.758-2.245,1.827a8.759,8.759,0,0,0-.164,3.387l-4.649.3a3.117,3.117,0,0,1,1.613,2.815c-.006.534-.137,1.059-.141,1.593a6.47,6.47,0,0,0,1.191,3.269c1.232,2.072,2.529,4.215,4.423,5.461s4.569,1.3,6.032-.561c3.007,1.745,6.621,1.152,9.88,2.125,2.981.889,5.714,3.1,8.793,3.045,2.733-.046,5.2-1.878,7.886-2.45a17.363,17.363,0,0,1,3.892-.236,30.907,30.907,0,0,1,7.412.708c4.2,1.1,8.9,3.856,12.437,1.025a5.521,5.521,0,0,0,4.6,2.387l.766-1.32c-.043,2.226,2.554,2.962,4.488,2.971l5.827.029c1.74.009,4.17-.908,3.746-2.851.387,2.6,3.183,3.691,5.47,3.5s4.615-1.106,6.82-.384a1.287,1.287,0,0,1,1.112-1.613,4.031,4.031,0,0,1,1.99.7,14.884,14.884,0,0,0,5.68,1.22l9.924.791c2.123.169,4.344.319,6.29-.672a5.4,5.4,0,0,0,2.84-5.86l3.518-.547-.018-16.7c0-3.733-.136-7.858-2.361-10.574-1.09-1.33-2.633-2.24-3.3-3.9-.555-1.37-.393-2.973-.683-4.447-.441-2.235-1.6-1.932-2.943-2.822C372.367,215.995,371.78,214.5,370.446,213.941Z" fill="#77a778" stroke="#49311c" stroke-linecap="round" stroke-linejoin="round" stroke-width="1"/><path d="M-31.22,250.04l331.251,23.5s.967-9.081-1.1-9.423-23.774-7.741-28.441-8.163-78.4,1.6-83.2-.832c-4.734-2.4-7.042-4.831-9.547-5.132-5.183-.622-8.534,3.006-12.416,2.96s-11.032-5.869-16.578-6.523-14.99,3.5-19.619,3.045-27.02-10.293-34.379-10.9-33.477,2.382-36.836,2.3-16.569-5.188-20.19-5.527-17.086,4.5-20.758,4.079-27.44-6.859-30.453-7.065c0,0-18.128-.76-17.741,4.439S-31.22,250.04-31.22,250.04Z" fill="#738e6c" stroke="#49311c" stroke-miterlimit="10" stroke-width="1"/><path d="M40.365,205.592s24.806-5.349,29.868-5.891,13.736.8,19.248,17.476c-6.909.283-52.552,7.406-52.552,7.406Z" fill="#666" stroke="#49311c" stroke-linecap="round" stroke-linejoin="round" stroke-width="1"/><path d="M90.908,247.437s-1.462-17.084-2.179-26.761c-2.628-8.6-9.2-19.95-17.084-18.875s-21.025,3.584-29.985,5.017S27.085,224.5,27.085,224.5l-2.333,22.938Z" fill="#ef8e85" stroke="#49311c" stroke-linecap="round" stroke-linejoin="round" stroke-width="1"/><line x1="1.18" y2="23.34" transform="translate(55.15 224.097)" stroke-width="1" stroke="#49311c" stroke-linecap="round" stroke-linejoin="round" fill="none"/><path d="M72.838,201.733C58.37,201.115,56.33,219.16,56.33,219.16" fill="none" stroke="#49311c" stroke-linecap="round" stroke-linejoin="round" stroke-width="1"/><path d="M68.1,207.22v3.5l10.06.309-.58-3.476Z" fill="#f9f9f9" stroke="#49311c" stroke-linecap="round" stroke-linejoin="round" stroke-width="1"/><path d="M70.151,210.783l-.345,6.394h6.086v-6.218Z" fill="#f9f9f9" stroke="#49311c" stroke-linecap="round" stroke-linejoin="round" stroke-width="1"/><path d="M63.223,228.976l-1.973,2.141,11.6,17.794,1.677-1.474Z" fill="#f9f9f9" stroke="#49311c" stroke-linecap="round" stroke-linejoin="round" stroke-width="1"/><path d="M83.335,229.687l1.748,2.333L73.843,250.65l-2.484-.5Z" fill="#f9f9f9" stroke="#49311c" stroke-linecap="round" stroke-linejoin="round" stroke-width="1"/><path d="M59.649,248.166l.841-20.121h2.36l-.591,20.121Z" fill="#f9f9f9" stroke="#49311c" stroke-linecap="round" stroke-linejoin="round" stroke-width="1"/><path d="M72.132,249l.841-20.121h2.36L74.742,249Z" fill="#f9f9f9" stroke="#49311c" stroke-linecap="round" stroke-linejoin="round" stroke-width="1"/><path d="M84.025,248.538l-.495-19.873h2.36l.745,19.873Z" fill="#f9f9f9" stroke="#49311c" stroke-linecap="round" stroke-linejoin="round" stroke-width="1"/><path d="M60.18,227.447v2.36l26.176,1.31-.093-2.49Z" fill="#f9f9f9" stroke="#49311c" stroke-linecap="round" stroke-linejoin="round" stroke-width="1"/><path d="M55.3,219.16l34.677,1.785v4.475l-33.353-1.374-31.009,5.409.828-4.716Z" fill="#f9f9f9" stroke="#49311c" stroke-linecap="round" stroke-linejoin="round" stroke-width="1"/><path d="M30.534,234.117l-.239,4.364,2.977-.165.719-4.7Z" fill="#f9f9f9" stroke="#49311c" stroke-linecap="round" stroke-linejoin="round" stroke-width="1"/><path d="M44.2,231.52l-.251,5.749,3.517-.249.524-6.185Z" fill="#f9f9f9" stroke="#49311c" stroke-linecap="round" stroke-linejoin="round" stroke-width="1"/><path d="M29.8,232.344l-.478,2.058,5.99-.864.441-2.421Z" fill="#f9f9f9" stroke="#49311c" stroke-linecap="round" stroke-linejoin="round" stroke-width="1"/><path d="M42.77,229.83v2.335l6.679-.963.492-2.7Z" fill="#f9f9f9" stroke="#49311c" stroke-linecap="round" stroke-linejoin="round" stroke-width="1"/><path d="M70.233,199.7S48.6,202.892,38.99,206.016s-13.5,17.075-13.5,17.075l29.158-5.364S57.55,200.1,70.233,199.7Z" fill="#d0d0d0" stroke="#49311c" stroke-linecap="round" stroke-linejoin="round" stroke-width="1"/><path d="M103.876,211.514l-5.381,39.246,3.839,1.794L108,210.479Z" fill="#f9f9f9" stroke="#49311c" stroke-linecap="round" stroke-linejoin="round" stroke-width="1"/><path d="M117.9,208.741l-3.507.375,9.344,42.927,4.737.68Z" fill="#f9f9f9" stroke="#49311c" stroke-linecap="round" stroke-linejoin="round" stroke-width="1"/><path d="M109.8,209.157l1.424,39.79,3.806,1.119-2.707-41.179Z" fill="#d3d3d3" stroke="#49311c" stroke-linecap="round" stroke-linejoin="round" stroke-width="1"/><path d="M101.611,196.3c-4.777,1.722-4.865,16.348,1.676,15.654s13.655-1.964,18.8-2.642,2.513-16.933-3.021-16.341S101.611,196.3,101.611,196.3Z" fill="#f9f9f9" stroke="#49311c" stroke-linecap="round" stroke-linejoin="round" stroke-width="1"/><path d="M116.953,196.893s-2.458,5.352,1.077,10.061" fill="#f9f9f9" stroke="#49311c" stroke-linecap="round" stroke-linejoin="round" stroke-width="1"/><path d="M105.315,216.639l-.206,2.237,13.794,1.714-.424-3.962Z" fill="#e5e5e5" stroke="#49311c" stroke-linecap="round" stroke-linejoin="round" stroke-width="1"/><path d="M104.661,224.2l-1,2.542,16.5,3.173-.7-4.084Z" fill="#e5e5e5" stroke="#49311c" stroke-linecap="round" stroke-linejoin="round" stroke-width="1"/><path d="M103.236,232.868l-.294,2.6,18.875,2.241-.361-3.375Z" fill="#e5e5e5" stroke="#49311c" stroke-linecap="round" stroke-linejoin="round" stroke-width="1"/><path d="M102.389,240.994l-.157,1.861,21.96,3.373-.841-3.694Z" fill="#e5e5e5" stroke="#49311c" stroke-linecap="round" stroke-linejoin="round" stroke-width="1"/><path d="M126.411,192.237,124.2,198.5l1.155,1.519,2.522-6.545Z" fill="#d0d0d0" stroke="#49311c" stroke-linecap="round" stroke-linejoin="round" stroke-width="1"/><path d="M125.021,201.909l-.738,2.61,2.791,4.887.974-2.988Z" fill="#d0d0d0" stroke="#49311c" stroke-linecap="round" stroke-linejoin="round" stroke-width="1"/><path d="M120.806,197.647c-1.541.373-1.458,7.17.788,7.357s6.486-1.2,5.857-4.7S123.162,197.077,120.806,197.647Z" fill="#d0d0d0" stroke="#49311c" stroke-linecap="round" stroke-linejoin="round" stroke-width="1"/><path d="M119.667,195.034s2.445,4.445,2.789,4.493a1.185,1.185,0,0,0,1.168-.973c.175-.74-2.608-5.912-2.608-5.912Z" fill="#d0d0d0" stroke="#49311c" stroke-linecap="round" stroke-linejoin="round" stroke-width="1"/><path d="M118.643,196.712l3.479-5.291-8.646-17.561-6.6,7.83Z" fill="#d0d0d0" stroke="#49311c" stroke-linecap="round" stroke-linejoin="round" stroke-width="1"/><path d="M127.8,203.894l-2.087,4.866L132.557,221l2.392-7.952Z" fill="#d0d0d0" stroke="#49311c" stroke-linecap="round" stroke-linejoin="round" stroke-width="1"/><path d="M125.547,192.128l2.192,4.663,5.885-13.35-2.925-5.991Z" fill="#d0d0d0" stroke="#49311c" stroke-linecap="round" stroke-linejoin="round" stroke-width="1"/><path d="M119.636,208.476s1.949-4.552,2.354-4.755,1.194,1.476,1.194,1.476l-1.966,5.515Z" fill="#d0d0d0" stroke="#49311c" stroke-linecap="round" stroke-linejoin="round" stroke-width="1"/><path d="M118.842,205.395l3.972,5.617-5.751,18.164-4.537-7.84Z" fill="#d0d0d0" stroke="#49311c" stroke-linecap="round" stroke-linejoin="round" stroke-width="1"/><path d="M305.776,246.022c.417,1.3.762,2.95-.185,3.89a8.564,8.564,0,0,1-1.5.9,9.626,9.626,0,0,0-1.573,1.6c-2.1,2.239-5.279,2.769-8.229,3.185a41.653,41.653,0,0,1-9.928.6,5.328,5.328,0,0,0-2.219.051,1.749,1.749,0,0,0-1.252,1.736,5.789,5.789,0,0,0-2.281-1.209,1.977,1.977,0,0,0-2.191,1.014,5.511,5.511,0,0,0-3.133-.608c-2.949.017-5.982.052-8.713,1.233-1.388.6-2.8,1.508-4.272,1.229-1.041-.2-1.947-.972-3-1.036-.707-.043-1.4.243-2.106.259-2.075.048-3.994-2.174-5.949-1.435a11.211,11.211,0,0,1-1.766.857c-.641.117-1.444-.533-1.14-1.143-1.068.3-2.167-.223-3.249-.461s-2.484.007-2.836,1.121c-.059-.585-.909-.461-1.359-.119s-1.176.686-1.449.175a3.455,3.455,0,0,1,.713-2.241,5.6,5.6,0,0,1-4.667-2.356,4.286,4.286,0,0,1,.356-5.21,2.616,2.616,0,0,1,.161-4.284c-.842-.624-1.785-1.743-1.2-2.638a2.183,2.183,0,0,1,.689-.581,12.437,12.437,0,0,0,3.538-3.475c.826-1.218,1.573-2.694,2.923-3.138.456-.149,1.031-.231,1.209-.7s-.19-1.125.132-1.517a.948.948,0,0,1,.823-.217,39.519,39.519,0,0,0,6.417-.154c-.067-.929,1.14-1.308,2-1.126s1.841.564,2.539,0c.424-.344.6-.959,1.042-1.281.7-.513,1.635-.054,2.475.094,2.218.39,4.181-1.528,6.382-2.013,2.315-.511,4.994.538,6.937-.893.753-.554,1.362-1.463,2.273-1.554.6-.061,1.25.263,1.8-.017.322-.165.531-.509.834-.711a1.918,1.918,0,0,1,1.29-.207,7.006,7.006,0,0,1,4,1.849c-.016-.6.749-.864,1.3-.712a4.78,4.78,0,0,0,1.621.476c.423-.039.833-.32,1.246-.214.395.1.633.513.937.8a5.33,5.33,0,0,0,2.24.872c.771.239,1.593.867,1.522,1.717,0,0,3.911-.224,4.286,1.49s3.825,2.939,3.825,2.939,2.9-.957,2.246,1.119.307,2.77,2.956,4.676S305.776,246.022,305.776,246.022Z" fill="#77a778" stroke="#49311c" stroke-linecap="round" stroke-linejoin="round" stroke-width="1"/><path d="M-33.393,262.862a53.292,53.292,0,0,0-.031,37.321,10.662,10.662,0,0,0,3.091,4.891,11.326,11.326,0,0,0,5.383,1.8c12.028,1.754,24.236,1.757,36.39,1.634,66.734-.681,133.62-5.089,200.11.652,20.492,1.769,41.434,4.468,61.391-.508L269.927,279.3a6.14,6.14,0,0,0-1.054-3.4c-1.169-1.394-3.252-1.459-5.071-1.433-44.433.642-87.916-11.37-131.375-20.642S43.4,238.019.458,249.448c-9.557,2.543-19.141,6.111-26.478,12.743Z" fill="#bcdbac" stroke="#49311c" stroke-miterlimit="10" stroke-width="1"/><path d="M72.738,249.509a11.57,11.57,0,0,1,3.668,8.282c-.14,3.832-2.748,7.047-4.551,10.431a26.87,26.87,0,0,0-1.47,21.646,9.4,9.4,0,0,0,3.527,4.987,11,11,0,0,0,4.715,1.214,173.832,173.832,0,0,0,20.763.784,32.361,32.361,0,0,1-9.873-10.517,20.126,20.126,0,0,1-2.306-14.04c.8-3.462,2.692-6.668,2.951-10.212.331-4.525-2.07-8.811-4.92-12.342-1.34-1.66-2.706-3.5-4.677-4.315-3.385-1.4-7.8-1.317-11.848-1.526-2.118-.11-2.386.667-.763,1.962A49.777,49.777,0,0,1,72.738,249.509Z" fill="#f9d9b2" stroke="#49311c" stroke-linecap="round" stroke-linejoin="round" stroke-width="1"/><path d="M-3.585,731.849v16.91h382.17v-6.972C251.442,747.936,123.519,740.424-3.585,731.849Z" fill="none"/><path d="M348.071,247.16c-5.838-.524-37.9-3.992-43.78-3.709-7.2.348-27.48.569-34.546,1.527-29.431,3.993-35.064,3.107-64.3,7.636-9.291,1.438-76.606,30.079-85.852,31.631-19.5,3.272-39.844,7.917-43.438,8.072-30.442,1.308-47.882-5.771-63.619-8.508-8.257-1.436-13.119-3.66-16.118-5.893V731.849c127.1,8.575,255.027,16.087,382.17,9.938V250.5C370.717,249.591,361.615,248.376,348.071,247.16Z" fill="#9bc88d" stroke="#49311c" stroke-miterlimit="10" stroke-width="1"/><path d="M279.873,289.288c27.883,32.344,31.265,66.53,32.269,66.646,13.284,1.532,56.3,6.94,69.668,6.625-.762-4.439-30.232-62.328-79.659-93.411-17.6-11.066-49.693-24.108-61.019-23.153-3.783.319-21.725,1.78-24.3,4.851C220.091,251.569,259.451,265.6,279.873,289.288Z" fill="#f9d9b2" stroke="#49311c" stroke-linecap="round" stroke-linejoin="round" stroke-width="1"/><path d="M349.435,57.8c-2.952-1.051-5.3,2.509-7.3,4.712s-3.583,4.884-6.4,6.2c-1.767.825-4.124,1.232-4.823,2.9-.711,1.691,1.045,3.565,3.032,3.918a10.583,10.583,0,0,0,5.834-1.129,66.818,66.818,0,0,0,13.258-7.449,14.367,14.367,0,0,0,4.006-3.894,4.943,4.943,0,0,0,.29-5.094c-1.535-2.525-6.306-2.643-8-.2" fill="#fff"/><path d="M247.924-3.193c-7.321.483-13.614,4.6-19.458,8.557C222.8,9.2,217.1,13.063,212.2,17.664a16.582,16.582,0,0,1-4.184,3.244c-2.076.969-4.511,1.021-6.835,1.293a32.059,32.059,0,0,0-18.442,8.549c-1.643,1.6-3.068,3.366-4.762,4.919-5.36,4.915-12.913,7.276-19.751,10.416S144.563,53.958,143.187,60.7a2.872,2.872,0,0,0,.329,2.44,4.146,4.146,0,0,0,2.04,1.082c4.109,1.275,8.833,2.512,12.619.6,3.538-1.783,5-5.745,8.3-7.862,4.428-2.843,10.692-1.576,15.775-3.347,4.3-1.5,7.288-5,11.2-7.189,3.939-2.21,8.634-3.006,13.089-4.208,12.753-3.442,23.9-10.365,34.809-17.182l17.7-11.06c7.352-4.594,14.794-9.232,23.156-12.149,8.842-3.084,19.45-4.765,24.462-11.95" fill="#fff"/><path d="M336.155-.072c-7.449-1.969-13.8,4.9-21,7.507-2.91,1.053-6.094,1.409-8.984,2.5-5.127,1.944-8.823,6-13.471,8.737-8.308,4.9-20.092,5.976-25.125,13.634-1.929,2.935-2.7,6.678-5.79,8.674-1.9,1.225-4.921,2.647-3.854,4.506a3.5,3.5,0,0,0,1.512,1.185c3.935,2.029,8.887,3.633,12.9,1.722,2.666-1.27,4.275-3.835,6.844-5.254,4.277-2.363,10.074-1.016,14.6-2.985,3.355-1.462,5.424-4.473,7.758-7.07a40.835,40.835,0,0,1,24.195-12.625c2.662-.393,5.417-.553,7.889-1.518,3.176-1.24,5.53-3.663,8.055-5.78C349.218,6.844,358.836,2.93,368.266-.874" fill="#fff"/><path d="M381.115,23.176c-5.247.2-11.053.624-14.668,4.018-2.283,2.143-3.36,5.224-5.982,7.032-3.683,2.539-9.159,1.754-13.143,3.9a17.116,17.116,0,0,0-4.513,4L335.2,50.7c-.459.517-.946,1.138-.772,1.779a2.117,2.117,0,0,0,1.148,1.121,13.916,13.916,0,0,0,14.029-.758c1.873-1.317,3.312-3.115,5.359-4.206,3.687-1.963,8.337-1.195,12.625-1.426,8.7-.468,16.276-5.187,23.337-9.734" fill="#fff"/><path d="M331.1,78.266a28.764,28.764,0,0,0-16.117,4.122c-2.133,1.3-4.023,2.923-6.277,4.055-2.148,1.079-14.569,2.223-16.641,3.414-10.084,5.795-18.251,10.239-29.6,14.2-1.777.62-2.409,5.6-2.071,7.27,12.743,1.044,23.483-7.738,35.249-12.217,6.879-2.619,14.374-3.8,21.18-6.568s13.209-7.715,14.319-14.305" fill="#fff"/><path d="M137.33,66.107a19.363,19.363,0,0,0-11.4,5.626,3.61,3.61,0,0,0-.885,1.284c-.392,1.181.527,2.466,1.765,3.011a7.8,7.8,0,0,0,4.065.337,28.121,28.121,0,0,0,8.617-2.616,10.159,10.159,0,0,0,3.607-2.531,3.551,3.551,0,0,0,.6-3.89c-1.011-1.821-4.048-1.854-6.219-1.232" fill="#fff"/><path d="M230.655,52.091c-3.476,1.825-7.007,3.811-11,4.305a31.486,31.486,0,0,1-5.976-.026c-1.879-.127-4.165-.523-4.75-2.118-.565-1.54.9-3.045,2.322-4.057,5.494-3.92,12.109-6.346,18.623-8.72a18.958,18.958,0,0,1,6.1-1.477c2.636-.045,5.734.858,7.61-.792.956-.841,1.258-2.141,2.209-2.986,4.267-3.791,13.154,2.3,5.828,6.671C245.368,46.617,237.247,48.632,230.655,52.091Z" fill="#fff"/><rect width="382.169" height="471" transform="translate(-3.585 346)" fill="#9bc88d"/><path d="M-5.015,339.231c2.87-.36,19.913.466,23.293,0s38.221-.466,41.757-.078,38.757-.017,41.757.186,37.908-.673,41.757-.468,37.482.637,41.795.5,38.262,1.057,43.8.8c4.316-.2,34.317-1.56,39.674-1.325s36.937.991,41.757.769,38.766.926,45,.819,23.555.121,26.326.007,4.157,9.38,4.157,9.38a25.488,25.488,0,0,1-2.771,3.734c-.693.467-29.005,1.4-30.956,1.245s-40.4-.778-43.518-.778-32.19-1.245-40-.933-40.713,1.789-43.831,1.011-38.1-1.011-40.874-.856-37.41.778-42.606.467-33.364-.622-39.717-.622-36.98-.312-41.757-.312-40.634.467-41.757.467-20.522-1.378-23.293-1.856S-6.693,339.441-5.015,339.231Z" fill="#d8b993" stroke="#49311c" stroke-miterlimit="10" stroke-width="1"/><path d="M8.035,377S5.26,334.181,5.782,330.3s7.969-14.094,10.74-14.094,13.856,8.313,13.856,10.218,1.039,48.668,0,50.573S9.94,378.215,8.035,377Z" fill="#d8b993" stroke="#49311c" stroke-miterlimit="10" stroke-width="1"/><path d="M49.549,376.75s-2.639-46.647,0-49.88,9.615-9.584,11.5-10.45,8.672,8.833,9.049,10.911,3.393,46.648,0,48.495S49.651,378.634,49.549,376.75Z" fill="#d8b993" stroke="#49311c" stroke-miterlimit="10" stroke-width="1"/><path d="M101.792,316.326c2.3.5,11.658,10.164,11.831,11.723s2.425,49.188-1.212,49.188-19.744,1.385-21.13-1.213-2.944-46.07-1.732-48.148S97.808,315.46,101.792,316.326Z" fill="#d8b993" stroke="#49311c" stroke-miterlimit="10" stroke-width="1"/><path d="M131.953,377.207c1.4,2.162,20.783,2.99,22.342.716s2.6-47.652,1.559-50.076-9.627-12.471-11.742-12.471-11.12,11.258-12.159,13.683S130.048,374.263,131.953,377.207Z" fill="#d8b993" stroke="#49311c" stroke-miterlimit="10" stroke-width="1"/><path d="M186.618,313.964c1.9,0,10.738,12.47,11.084,14.376s-.692,46.981-2.424,49.9-19.225,3.7-20.611,1.231-2.6-48.537-1.212-51.134S183.673,313.964,186.618,313.964Z" fill="#d8b993" stroke="#49311c" stroke-miterlimit="10" stroke-width="1"/><path d="M228.614,313.814c2.733-.026,11.2,16.378,11.2,18.11s.582,46.82-1.5,48.033-20.437,2.424-22.689,0-1.385-47.283,0-48.668S226.709,313.831,228.614,313.814Z" fill="#d8b993" stroke="#49311c" stroke-miterlimit="10" stroke-width="1"/><path d="M310.577,313.193c2.031-.012,10.039,9.61,11.891,13.675,1.55,3.4,2.346,53.666-1.369,54.725s-19.941.942-22.287-1.382-1.378-49.215-.031-53.458C299.323,325.047,308.041,313.208,310.577,313.193Z" fill="#d8b993" stroke="#49311c" stroke-miterlimit="10" stroke-width="1"/><path d="M267.839,311.951c3,0,11.03,10.04,12.551,14.034s1.942,53.851,0,55.03-20.957.809-22.558-1.413-2.686-48.883-1.133-51.846S264.837,311.951,267.839,311.951Z" fill="#d8b993" stroke="#49311c" stroke-miterlimit="10" stroke-width="1"/><path d="M352.614,314.014c1.728-.043,12.358,15.069,12.358,17.135s-.663,46.64-2.064,49.006-20.709,1.648-21.837,0-2.425-43.39,0-49.006S348.915,314.105,352.614,314.014Z" fill="#d8b993" stroke="#49311c" stroke-miterlimit="10" stroke-width="1"/><path d="M2.067,382.871s.2-5.719-2.153-7.535c3.162.067,7.05-.023,7.931,3.823,1.891-3.89,3.371-7.388,7.205-9.07-1.413,5.113-1.345,9.956,0,11.3,1.749-5.988,2.557-9.217,6.189-10.764-.134,5.987,0,9.553,2.489,11.5.673-7.669,3.633-12.042,3.633-12.042s.6,5.43,1.009,9.207c3.3-6.785,6.391-6.449,8.207-4.633-2.489,1.548-4.911,8.208-4.911,8.208" fill="#9bc88d" stroke="#603813" stroke-linecap="round" stroke-linejoin="round" stroke-width="1"/><path d="M45.128,380.873c-1.48-2.557-2.018-6.122-5.18-6.189,3.969-1.884,8.813-1.1,9.822,3.354,1.48-6.314.672-9.341,4.843-11.36-.2,4.642-1.547,9.083,0,11.841,1.48-4.71,5.382-13.455,9.553-10.293-1.749,2.22-4.978,7.193-4.036,9.617,2.96-3.967,2.287-6.388,6.189-5.85-.135,2.354-2.153,7.8-2.153,7.8,3.633-2.758,4.642-10.09,8.274-8.879-1.606,2.3-2.758,4.69-1.749,7.121,3.028-4.565,4.911-5.776,7-3.287-2.355,2.355-4.642,3.431-4.373,6.122" fill="#9bc88d" stroke="#603813" stroke-linecap="round" stroke-linejoin="round" stroke-width="1"/><path d="M87.375,382.356s-1.564-8.2-4.288-8.2a8.322,8.322,0,0,1,8.93,6.458c.3-4.995.454-8.829-2.119-10.848,6.66,3.028,5.6,7.669,6.256,10.293.858-3.885,2.472-9.435.858-11.3,3.885,4.642,3.958,8.022,4.022,11.807,1.124-6.005,3.647-13.875,7.027-12.917a45.028,45.028,0,0,0-2.772,11.436c2.772-5.583,4.736-8.909,7.414-8.509-2.169,2.724-4.087,5.6-3.128,9.485,2.27-4.995,3.738-7.114,6.233-7.064-.885,2.154-3,4.945-1.995,7.266,1.211-3.482,5.247-3.784,5.247-3.784s-2.32,3.538-2.724,5.881" fill="#9bc88d" stroke="#603813" stroke-linecap="round" stroke-linejoin="round" stroke-width="1"/><path d="M121.712,382.486s3.238-4.154-.858-11.09c5.645,3.345,8.2,4.183,8.506,8.441,0-4.318-.541-6.191,4.176-9.962a19.457,19.457,0,0,0,1.428,11.462c2.088-3.342,1.819-5.38,1.433-8.786,3.016,3.041,4.021,2.6,3.634,6.371,3.016-3.16,3.038-8.713,7.833-6.645-2.166,1.521-2.42,2.877-1.646,6.343,1.7-1.763,2.268-4.325,4.639-4.577a4.878,4.878,0,0,0,.31,4.273c2.263-1.3,2.566-2.911,2.717-5.989,2.475,1.918,3.22,4.091,2.369,8.47,0,0,3.265-7.625,9.051-4.617-2.489,1.933-4.709,3.057-5.382,7.1" fill="#9bc88d" stroke="#603813" stroke-linecap="round" stroke-linejoin="round" stroke-width="1"/><path d="M337.825,385.224s.337-3.9-3.834-8.813c4.978.673,6.743,1.686,8.652,4.779-.176-5.25.564-11.573,3.12-13.524-.134,5.852.061,11.655,2.015,14.169.609-4.011,2.627-4.011,1.416-8.317,3.7,2.355,5.221,4.75,4.292,8.564,2.5-4.527,1.09-11.793,6.674-10.447-.673,2.892-2.086,6.256-2.153,9.889,2.354-2.691,5.113-3.364,5.18-8.14.942,3.5,2.651,3.119.451,7.984,3.652-3.948,3.787-4.553,7.958-4.284-2.22,1.682-3.229.423-4.306,5.66" fill="#9bc88d" stroke="#603813" stroke-linecap="round" stroke-linejoin="round" stroke-width="1"/><path d="M290.169,383.57s1.652-7.82-.568-11.722c3.5,1.48,7.2,8.678,7.2,8.678a17.663,17.663,0,0,0-1.413-10.292c4.1,2.421,7.131,9.956,7.131,9.956s1.62-6.448-.807-11.638c4.574,4.978,6.358,12.311,6.358,12.311s1.513-6.189.975-9.015c3.027,1.951,2.825,3.566,2.892,8.409,1.346-7.332,2.826-8.812,5.113-11.7-.2,2.691.807,7.8-.4,11.5,2.422-3.9,2.691-7.332,4.978-7.8-.874,3.027-1.278,3.9-.269,7.131,2.624-3.768,3.9-3.633,7.131-2.691-1.614,1.143-4.213,2.977-4.213,6.878" fill="#9bc88d" stroke="#603813" stroke-linecap="round" stroke-linejoin="round" stroke-width="1"/><path d="M208.344,385.1s.4-5.489-1.48-9.539c3.767,2.543,5.92,1.655,7.13,7.548a90.294,90.294,0,0,0-2.342-13.027s7.993,4.981,8.128,13.027c1.211-5.678.807-14.252.807-14.252a37.089,37.089,0,0,1,5.117,13.857,44.533,44.533,0,0,1,5.109-11.068v10.824c1.21-1.944,2.959-9.882,7.669-9.21-1.75,2.422-2.288,5.57-2.153,9.849.807-2.852,6.727-7.548,6.727-7.548a29.7,29.7,0,0,0-1.748,8.866" fill="#9bc88d" stroke="#603813" stroke-linecap="round" stroke-linejoin="round" stroke-width="1"/><path d="M170.193,383.216s-.067-5.651-4.238-4.037c3.969-2.489,7.2-3.788,8.207,1.873,1.48-2.815,2.22-4.429,1.547-7.322,2.153,2.556,3.5,3.153,2.691,8.472,1.077-4.772,2.019-8.741,6.593-9.481-2.153,3.364-3.817,7.425-1.639,8.893,1.639-2.771,2.379-1.994,2.514-5.175,1.21,2.673,1.43,3.473,1.925,4.721.5-4.672,1.438-8.439,5.071-8.439-.875,1.884-2.2,3.245-1.706,7.778,2.446-1.993,2.715-2.235,2.917-5.477a7.15,7.15,0,0,1,1.614,5.57c1.144-2.691,1.413-2.691,4.844-2.624-1.615,1.548-2.22,1.346-3.3,5.248" fill="#9bc88d" stroke="#603813" stroke-linecap="round" stroke-linejoin="round" stroke-width="1"/><path d="M249.843,384.685s3.177-7.534,0-11.3c3.348,1.48,4.828,2.287,5.232,7.063.807-4.574,3.7-3.834,2.758-8.409,2.287,3.835,1.614,4.5,2.489,9.284.471-3.83,1.816-11.907,5.987-11.773-.538,2.489-2.191,6.714-1.465,12.54,2.272-3.391,3.349-5.14,3.08-8.571,1.682,2.489,3.229,2.48,1.883,8.2,2.22-4.3,2.624-6.319,5.719-8.472-.471,4.238-1.413,4.023-1.211,8.84,2.22-3.323,2.489-3.6,3.767-5.518.863,2.6.336,3.761,0,6.173,1.816-3.238,3.565-3.171,6.122-2.633-1.413,1.345-3.162,1.547-3.431,5.045" fill="#9bc88d" stroke="#603813" stroke-linecap="round" stroke-linejoin="round" stroke-width="1"/><rect width="382.169" height="679.752" transform="translate(-3.585 66.343)" fill="none"/></g><path d="M113.135,708.947a.682.682,0,0,1,.491-.753.541.541,0,0,1,.65.493,5.905,5.905,0,0,1-3.273,6.1.526.526,0,0,1-.371.029.55.55,0,0,1-.368-.378.7.7,0,0,1,.368-.827A4.531,4.531,0,0,0,113.135,708.947Z" transform="translate(-0.218 0.121)" fill="#fff"/><rect width="374.8" height="811.644" transform="translate(0.2 -0.028)" fill="#676c6b" opacity="0.62"/><g transform="translate(42.628 -33.503)"><g transform="translate(2 -7)"><path d="M46.905,336.5a17.552,17.552,0,0,0-17.533,17.533v37.611A17.552,17.552,0,0,0,46.905,409.18l14.89-.021c.134,7.876,9.574,12.868,11.772,13.368-1.53-3.77-3.241-8.076-2.158-13.368l115.63.021a17.552,17.552,0,0,0,17.533-17.533V354.036A17.552,17.552,0,0,0,187.039,336.5Z" transform="translate(0 0)" fill="#fff"/></g><text transform="translate(40.517 361.07)" fill="#4f3016" font-size="16" font-family="PingFangTC-Regular, PingFang TC" letter-spacing="0.1em"><tspan x="0" y="0">開啟推播通知才能接</tspan><tspan y="0" font-family="NotoSans-Regular, Noto Sans"></tspan><tspan x="0" y="19.2">收到朋友的邀請喔</tspan></text></g><g transform="translate(266.894 405.772)"><g transform="translate(50.606 60.434)"><path d="M-423.618,1207.79c4.084,4.044,10.808,19.815,8.577,25-.933,2.168-.539,6.067,5.24,3.712,1.919-.782,3.6-5.233,2.511-9.68-.533-2.172.218-11.536.8-12.664" transform="translate(424.54 -1206.859)" fill="#804f21"/><path d="M-416.089,1235.317a3.752,3.752,0,0,1-2.8-1.076c-1.34-1.367-1.244-3.6-.554-5.2,1.938-4.505-4.345-19.639-8.3-23.551l1.843-1.862c4.23,4.188,11.4,20.536,8.859,26.449a2.429,2.429,0,0,0,.018,2.331c.368.376,1.489.48,3.524-.35,1.162-.474,2.693-4.243,1.733-8.155-.551-2.245.1-12.015.908-13.577l2.329,1.2c-.424,1.055-1.156,9.861-.693,11.751,1.26,5.132-.7,10.149-3.288,11.205A9.724,9.724,0,0,1-416.089,1235.317Z" transform="translate(427.739 -1203.627)" fill="#47280a"/></g><g transform="translate(97.664 66.07)"><path d="M-212.676,1235.995s4.985,6.587,5.677,9.716c1.425,6.448-2.784,6.93-2.857,8.9-.052,1.414.871,2.482,4.994,1.681s5.213-2.535,5.65-7.338c.554-6.09,0-12.719,3.111-16.267" transform="translate(213.721 -1231.819)" fill="#804f21"/><path d="M-210.906,1254.874a4.3,4.3,0,0,1-2.9-.854,2.937,2.937,0,0,1-.983-2.459,3.947,3.947,0,0,1,1.43-2.581c1.06-1.1,2.262-2.339,1.456-5.983-.516-2.338-4.1-7.44-5.442-9.208l2.089-1.581c.528.7,5.18,6.911,5.912,10.224,1.109,5.019-.92,7.116-2.132,8.37-.275.284-.69.713-.695.856,0,.092,0,.31.068.372s.676.5,3.367-.025c3.377-.655,4.193-1.751,4.6-6.171.124-1.368.193-2.794.26-4.173.242-5.019.471-9.76,3.171-12.839l1.97,1.727c-2.1,2.392-2.3,6.689-2.524,11.238-.068,1.406-.138,2.861-.268,4.284-.442,4.864-1.6,7.515-6.705,8.506A14.2,14.2,0,0,1-210.906,1254.874Z" transform="translate(217.346 -1228.822)" fill="#47280a"/></g><g transform="translate(58.999 78.451)"><path d="M-384.94,1296.109c-.933,2.168-.538,6.067,5.24,3.712,1.735-.707,3.269-4.411,2.744-8.4-.225-.387-.449-.737-.667-1.041-2.915,1.431-7.174.016-7.174.016l0,0A10.8,10.8,0,0,1-384.94,1296.109Z" transform="translate(386.42 -1288.992)" fill="#595757"/><path d="M-386.578,1296.835a3.546,3.546,0,0,1-2.649-1.01c-1.27-1.294-1.17-3.424-.509-4.962h0c.311-.724.576-2.194.068-5.092l-.1-.559.878-.878.641.211c.037.013,3.878,1.252,6.349.04l.83-.407.539.751c.24.336.484.716.724,1.129l.109.189.029.216c.553,4.2-1.01,8.574-3.414,9.554A9.506,9.506,0,0,1-386.578,1296.835Zm-.711-9.808a9.681,9.681,0,0,1-.442,4.7h0a2.638,2.638,0,0,0,.062,2.57c.548.56,1.919.45,3.763-.3,1.121-.457,2.5-3.472,2.1-7.031l-.035-.058A11.586,11.586,0,0,1-387.289,1287.027Z" transform="translate(390.214 -1284.178)" fill="#47280a"/></g><g transform="translate(0 1.674)"><path d="M-580.879,958.23s-5.737-.607-12.287-6.417-20-5.785-28.712-3.845c-7.023,1.565-7.242,2.8-8.406,3.166-2.866.9-14.5,1.241-17.467,8.734-1.719,4.34,2.547,14.665,10.08,15.43s10.881-.692,15.684,7.278,30.2,30.823,39.493,41.267c1.847,2.077,4.685,8.552,3.266,12.3-.836,2.207-.539,6.067,5.24,3.712,1.92-.782,3.6-5.233,2.511-9.68-.533-2.172.218-11.536.8-12.664s26.892-1.274,33.516-2.366c1.884-.31,6.623,8.77,5.531,14.847s-4.286,5.177-4,8.151c.219,2.293,5.732,1.747,8.515.873s4.913-11.063,5.349-16.74,4.076-10.335,6.7-15.794,11.536-14.847,8.7-25.655-6.55-10.917-10.7-14.192-13.865-14.52-32.751-11.026S-579.339,958.551-580.879,958.23Z" transform="translate(649.444 -945.481)" fill="#895b31"/><path d="M-581.631,1037.328a3.724,3.724,0,0,1-2.712-1c-1.425-1.389-1.25-3.68-.667-5.219,1.162-3.068-1.3-9.03-3.02-10.965-3.59-4.037-9.6-9.937-15.965-16.183-10.154-9.966-20.653-20.272-23.671-25.278-3.6-5.977-5.928-6.1-11.024-6.386-1.087-.06-2.318-.127-3.671-.265-3.613-.366-6.874-2.659-9.182-6.457-2.262-3.721-3.059-8.044-1.983-10.759,2.664-6.723,11.3-8.22,15.933-9.025a23.311,23.311,0,0,0,2.359-.476,2.528,2.528,0,0,0,.549-.312c.963-.629,2.574-1.681,7.965-2.882,9.7-2.162,23.181-1.785,29.866,4.144,6.165,5.468,11.5,6.088,11.556,6.094l.129.02c1.267.265,11.667.867,30.548-2.626,17.265-3.191,27.3,5.623,32.129,9.859.647.568,1.206,1.058,1.673,1.427.8.63,1.6,1.15,2.378,1.654,3.284,2.128,6.387,4.138,8.775,13.234,2.331,8.877-2.641,16.654-6.273,22.333a44.5,44.5,0,0,0-2.511,4.221c-.75,1.562-1.579,3.056-2.381,4.5-2,3.611-3.9,7.022-4.19,10.826-.013.163-1.47,16.385-6.263,17.889-1.58.5-6.62,1.557-8.979-.009a2.641,2.641,0,0,1-1.232-1.991A4.1,4.1,0,0,1-539.9,1030a7.545,7.545,0,0,0,2.428-4.816c.918-5.111-2.829-12.436-4.225-13.292-3.24.5-10.378.8-17.286,1.083-5.941.247-13.224.55-15.187.941-.426,2.006-1.015,9.626-.588,11.369,1.26,5.132-.7,10.149-3.288,11.205A9.727,9.727,0,0,1-581.631,1037.328Zm-33.933-93.795a49.521,49.521,0,0,0-10.586,1.14c-4.926,1.1-6.288,1.987-7.1,2.519a4.637,4.637,0,0,1-1.2.618,23.767,23.767,0,0,1-2.7.558c-4.422.767-11.822,2.051-13.945,7.409-.752,1.9.017,5.521,1.786,8.433,1.084,1.783,3.462,4.831,7.208,5.211,1.292.131,2.44.194,3.55.255,5.3.292,8.805.485,13.124,7.649,2.846,4.722,13.693,15.368,23.262,24.761,6.4,6.278,12.439,12.208,16.088,16.311,2.065,2.322,5.177,9.239,3.512,13.635a2.593,2.593,0,0,0,.047,2.415c.362.353,1.465.439,3.474-.381,1.162-.474,2.693-4.243,1.733-8.154-.551-2.245.1-12.015.909-13.577.558-1.08,1.173-1.3,17.3-1.976,6.972-.29,14.181-.59,17.164-1.081a2.778,2.778,0,0,1,2.39,1.045c2.491,2.527,5.614,9.928,4.644,15.326a10.135,10.135,0,0,1-3.172,6.223c-.729.715-.881.891-.816,1.573.4.576,3.858.676,6.819-.253,1.448-.454,3.859-8.1,4.435-15.59.336-4.374,2.364-8.027,4.511-11.9.784-1.412,1.594-2.872,2.31-4.364a45.953,45.953,0,0,1,2.665-4.5c3.37-5.271,7.986-12.49,5.946-20.257-2.132-8.115-4.574-9.7-7.666-11.7-.828-.537-1.684-1.091-2.578-1.8-.521-.411-1.1-.922-1.778-1.515-4.862-4.268-13.91-12.213-29.923-9.251-18.97,3.509-29.67,2.966-31.5,2.627-.711-.09-6.464-.976-12.953-6.732C-602.309,944.923-608.864,943.533-615.564,943.533Z" transform="translate(654 -940.908)" fill="#47280a"/></g><path d="M-630.67,989.818c1.861-3.173,2.668-11.725-.225-13.554-.483-.305-2.636.372-3.939.743-3.222,1.181-5.9,2.372-7.226,5.711-.859,2.169-.088,6.072,1.627,9.151a14.91,14.91,0,0,0,1.8,2.057C-637.591,994.856-632.47,992.885-630.67,989.818Z" transform="translate(645.005 -966.623)" fill="#72492a"/><path d="M-517.3,989.418a2.08,2.08,0,0,1-1.667-.83,2.086,2.086,0,0,1,.412-2.915,2.069,2.069,0,0,1,1.544-.4,2.068,2.068,0,0,1,1.372.81,2.068,2.068,0,0,1,.4,1.543,2.068,2.068,0,0,1-.81,1.372h0A2.072,2.072,0,0,1-517.3,989.418Zm-.064-2.162a.105.105,0,0,0-.039.067.107.107,0,0,0,.019.075.106.106,0,0,0,.067.039.1.1,0,0,0,.075-.019Zm.061-.021a.1.1,0,0,0-.06.02l.122.162a.1.1,0,0,0,.02-.142A.1.1,0,0,0-517.308,987.236Z" transform="translate(549.496 -973.662)" fill="#231815"/><g transform="translate(6.506 14.157)"><ellipse cx="1.026" cy="0.506" rx="1.026" ry="0.506" transform="translate(0.166 2.051) rotate(-62.353)" fill="#221714"/><path d="M-624.174,999.475a.7.7,0,0,1-.328-.08h0a.858.858,0,0,1-.412-.829,2.121,2.121,0,0,1,.255-.9c.394-.751,1.029-1.113,1.514-.858a.859.859,0,0,1,.412.83,2.124,2.124,0,0,1-.255.9,2.128,2.128,0,0,1-.6.724A1.011,1.011,0,0,1-624.174,999.475Zm.56-1.776a1.371,1.371,0,0,0-.271.368,1.351,1.351,0,0,0-.148.433,1.373,1.373,0,0,0,.271-.368A1.366,1.366,0,0,0-623.613,997.7Z" transform="translate(624.914 -996.723)" fill="#231815"/></g><g transform="translate(40.753)"><path d="M-466.571,942.389s2.111-4.147,4.949-2.837,2.893,3.848,1.911,5.158-2.92,3.493-4.64,3.657" transform="translate(467.739 -937.983)" fill="#895b31"/><path d="M-468.28,945.114l-.248-2.608c.877-.084,2.37-1.345,3.716-3.139a1.763,1.763,0,0,0,.257-1.464,2.754,2.754,0,0,0-1.669-1.718c-1.638-.752-3.219,2.214-3.235,2.244l-2.333-1.192c.928-1.823,3.517-4.885,6.666-3.431a5.331,5.331,0,0,1,3.111,3.456,4.386,4.386,0,0,1-.7,3.678C-463.816,942.4-466,944.9-468.28,945.114Z" transform="translate(471.792 -933.425)" fill="#47280a"/></g><g transform="translate(112.618 81.952)"><path d="M-141.459,1305.7a11.812,11.812,0,0,1-.127,2.847c-1.092,6.077-4.286,5.177-4,8.151.218,2.293,5.731,1.747,8.515.873,2.011-.631,3.679-6.122,4.616-11.262A39.117,39.117,0,0,1-141.459,1305.7Z" transform="translate(146.698 -1304.385)" fill="#595757"/><path d="M-145.77,1314.865a6.644,6.644,0,0,1-3.557-.791,2.428,2.428,0,0,1-1.136-1.829,3.922,3.922,0,0,1,1.525-3.515,7.817,7.817,0,0,0,2.49-4.933,10.729,10.729,0,0,0,.113-2.583l-.09-1.384,1.366.236a38.371,38.371,0,0,0,8.729.6l1.413-.11-.254,1.395c-.919,5.044-2.6,11.24-5.363,12.108A18.885,18.885,0,0,1-145.77,1314.865Zm1.643-12.438a11.661,11.661,0,0,1-.172,1.755,9.941,9.941,0,0,1-3.11,6.106c-.716.7-.958.94-.881,1.749,0,.044.011.112.17.218,1.09.724,4.622.444,6.932-.282.785-.246,2.342-2.875,3.608-9.065A40.257,40.257,0,0,1-144.127,1302.428Z" transform="translate(150.485 -1299.831)" fill="#47280a"/></g><g transform="translate(100.327 80.163)"><path d="M-196.442,1298.362c.21,4.548-3.075,5.13-3.139,6.865-.053,1.415.871,2.482,4.994,1.682s5.213-2.535,5.65-7.338c.027-.3.05-.6.072-.9A49.114,49.114,0,0,1-196.442,1298.362Z" transform="translate(200.893 -1296.902)" fill="#595757"/><path d="M-201.552,1303.423a4.306,4.306,0,0,1-2.9-.854,2.937,2.937,0,0,1-.983-2.459,3.954,3.954,0,0,1,1.429-2.581,4.881,4.881,0,0,0,1.711-4.175l-.07-1.521,1.514.157a47.814,47.814,0,0,0,7.35.3l1.51-.106-.111,1.509c-.023.309-.046.618-.074.926-.442,4.863-1.6,7.514-6.705,8.505A14.208,14.208,0,0,1-201.552,1303.423Zm1.826-8.693a7.419,7.419,0,0,1-2.4,4.619c-.275.284-.69.714-.7.858,0,.091,0,.309.069.371s.678.5,3.367-.025c3.225-.626,4.115-1.653,4.538-5.593C-196.428,1294.98-198.188,1294.864-199.726,1294.73Z" transform="translate(205.44 -1291.833)" fill="#47280a"/></g><g transform="translate(68.575 82.993)"><path d="M-342.4,1314.263h0a10.291,10.291,0,0,1,.228,6.186c-.836,2.207-.538,6.067,5.24,3.712,1.92-.782,3.6-5.233,2.511-9.68a7.827,7.827,0,0,1-.155-1.361h0C-337.152,1314.762-342.4,1314.263-342.4,1314.263Z" transform="translate(343.611 -1311.189)" fill="#595757"/><path d="M-343.806,1319.287a3.517,3.517,0,0,1-2.563-.943c-1.349-1.316-1.175-3.508-.615-4.985a9.229,9.229,0,0,0-.255-5.5l-.119-.41.525-1.051.745.069c1.358.128,5.287.2,7.134-.976l1.586-1.011.091,1.879a6.566,6.566,0,0,0,.125,1.154c1.215,4.947-.7,9.949-3.159,10.952A9.511,9.511,0,0,1-343.806,1319.287Zm-.974-10.568a10.052,10.052,0,0,1-.163,5.413c-.342.9-.424,2.14.1,2.649.541.528,1.892.405,3.71-.335,1.254-.511,2.866-4.323,1.863-8.409a.037.037,0,0,1,0-.007A17.545,17.545,0,0,1-344.78,1308.719Z" transform="translate(347.402 -1304.485)" fill="#47280a"/></g><g transform="translate(81.139 24.253)"><line x2="8.431" y2="0.309" transform="translate(0.032 0.873)" fill="#804f21"/><rect width="1.747" height="8.437" transform="translate(0 1.746) rotate(-87.903)" fill="#47280a"/></g><g transform="translate(90.602 30.611)"><line x2="8.431" y2="0.309" transform="translate(0.032 0.873)" fill="#804f21"/><rect width="1.747" height="8.437" transform="translate(0 1.746) rotate(-87.903)" fill="#47280a"/></g><g transform="translate(103.522 22.199)"><line x2="6.908" y2="0.575" transform="translate(0.072 0.87)" fill="#804f21"/><rect width="1.747" height="6.932" transform="matrix(0.083, -0.997, 0.997, 0.083, 0, 1.741)" fill="#47280a"/></g></g><g transform="translate(-133.394 405.504)"><g transform="translate(131.97 50.025)"><path d="M-1244.212,1151.928c-1.767,2.275-4.764,12.274-4.859,13.785s3.233,2.986,5.466,3.9c3.381,1.386,2.141,6.063-1.609,6.3-3.333.209-11.966.714-11.949-4.113.02-5.917-5.294-5.181-5.7-8.668s-1.9-10.614-2.975-16.814c-.376-2.176-.644-.779-1.062-1.665" transform="translate(1268.224 -1143.536)" fill="#fce5c4"/><path d="M-1253.155,1173.617c-3.428,0-6.695-.462-8.582-2.24a4.613,4.613,0,0,1-1.467-3.458c.009-2.636-1.179-3.446-2.683-4.472-1.23-.839-2.76-1.883-3.011-4.021-.247-2.1-.916-5.654-1.625-9.419-.455-2.421-.926-4.925-1.339-7.317-.021-.124-.041-.227-.059-.314a2.031,2.031,0,0,1-.885-.978l2.64-1.245a1.124,1.124,0,0,0-.908-.494h.024c1.626,0,1.911,1.647,2.064,2.534.409,2.37.878,4.864,1.332,7.274.718,3.817,1.4,7.421,1.654,9.619.088.747.552,1.128,1.757,1.95,1.676,1.143,3.971,2.709,3.957,6.893a1.676,1.676,0,0,0,.55,1.324c1.937,1.824,7.891,1.449,9.848,1.328a2.237,2.237,0,0,0,2.192-1.792,1.483,1.483,0,0,0-1.045-1.7c-3.163-1.3-6.525-2.887-6.369-5.343.112-1.8,3.184-12.041,5.163-14.589l2.306,1.79c-1.473,1.9-4.351,11.242-4.547,12.89.155.266.91,1.056,4.555,2.552a4.393,4.393,0,0,1,2.818,4.875,5.169,5.169,0,0,1-4.889,4.231C-1250.842,1173.565-1252.008,1173.617-1253.155,1173.617Z" transform="translate(1272.806 -1139.659)" fill="#47280a"/></g><g transform="translate(209.872 15.966)"><path d="M-913.53,1003.292s4.377-7.034,1.433-8.87-5.159,1.549-5.928,8.083" transform="translate(919.474 -992.463)" fill="#fce5c4"/><path d="M-917.323,998.985l-2.479-1.542c1.664-2.683,2.857-6.264,1.9-6.861-.648-.4-.947-.261-1.074-.2-.871.419-2.083,2.559-2.631,7.214l-2.9-.341c.424-3.6,1.509-8.18,4.266-9.5a3.856,3.856,0,0,1,3.883.354C-912.377,990.588-916.463,997.6-917.323,998.985Z" transform="translate(924.506 -987.385)" fill="#47280a"/></g><g transform="translate(0 0.051)"><path d="M-1665.862,938.627a58.578,58.578,0,0,0,15.532,5.987c4.954.971,11.247,3.052,14.461,10.957s10.712,17.06,12.586,19.556,6.159,8.461,5.757,11.1-2.946,5.409-12.318,1.11-14.862-6.657-21.289-6.519a69.171,69.171,0,0,1-15.4-1.479c-2.856-.647-9.551-2.312-9.64,3.329s-1.288,17.035.453,18.214a30.023,30.023,0,0,0,6.394,3.1c1.847.734,2.325,5.2-2.361,5.757s-11.984,1.318-13.992-4.022-3.682-10.957-4.686-12.067S-1695.375,983.2-1701.01,983c-6.092-.208-20.139-.617-22.371,2.11s-6.215,14.425-6.259,16.182,4.8,4.346,9.35,5.872,2.343,6.172-1.071,6.588-16.815,3.467-19.024-3.121-9.312-11.756-9.015-15.838c.369-5.084,1.033-16.134-5.043-19.852-3.7-2.266-6.606-1.85-9.774,0-5.055,2.951-11.849,21.682-34.332,28.063-15.906,4.514-42.846,2.127-56.5-22.733-5.164-9.406,1.867-10.554,7.2-4.892,8.833,9.37,25.052,28.253,46.346,13.2,13.211-9.339,12.4-14.15,15.264-22.469,1.772-5.142,7.762-23.154,18.83-27.222s32.968-13.627,40.886-15.219c8.971-1.8,21.065-3.662,39.9,4.438C-1673.985,933.542-1670.906,935.6-1665.862,938.627Z" transform="translate(1858.19 -920.794)" fill="#fce5c4"/><path d="M-1735.941,1011.588c-4.534,0-8.993-1.045-10.354-5.1-.983-2.932-3.1-5.681-4.961-8.107-2.314-3.01-4.312-5.61-4.12-8.249.3-4.17,1.106-15.249-4.412-18.624-2.948-1.8-5.306-1.8-8.413.014-1.214.709-2.832,2.886-4.706,5.407-5.034,6.774-13.459,18.111-29.933,22.786-18.83,5.343-45.019.309-58.021-23.372-3.362-6.123-1.7-8.611-.414-9.549,2.344-1.7,6.443-.4,9.747,3.108.351.372.713.76,1.088,1.159,8.984,9.6,24.021,25.655,43.526,11.868,10.542-7.452,11.784-11.752,13.5-17.7.375-1.3.763-2.641,1.271-4.114l.113-.328c2-5.813,8.078-23.5,19.514-27.707,3.6-1.323,8.369-3.238,13.42-5.264,10.412-4.179,22.213-8.915,27.662-10.01,9.95-2,22.121-3.464,40.686,4.52,11.648,5.01,15.189,7.147,19.673,9.853l1.239.746a57.2,57.2,0,0,0,15.1,5.823c5.39,1.056,12.015,3.347,15.435,11.76,2.746,6.755,8.857,14.649,11.466,18.02.392.507.716.925.951,1.239,6.527,8.69,6.137,11.251,6.009,12.092a4.979,4.979,0,0,1-2.533,3.757c-2.5,1.347-6.307.809-11.65-1.642-9.1-4.175-14.553-6.517-20.707-6.4a70.358,70.358,0,0,1-15.72-1.512l-.215-.049c-1.764-.4-5.434-1.238-6.985-.02a2.577,2.577,0,0,0-.82,2.125c-.023,1.444-.117,3.242-.216,5.147-.2,3.77-.558,10.744.173,12.006a29.113,29.113,0,0,0,6.052,2.906,3.89,3.89,0,0,1,2.12,4.189c-.3,2.257-2.1,3.8-4.816,4.119-4.536.536-12.979,1.537-15.39-4.873-.653-1.735-1.282-3.532-1.837-5.118-.931-2.661-2.091-5.972-2.591-6.525a11.631,11.631,0,0,1-1.139-1.778c-1.563-2.694-4.814-8.3-8.569-8.427-16.9-.576-20.6.771-21.3,1.625-2.061,2.519-5.839,13.819-5.957,15.331.27.747,3.263,2.888,8.443,4.624,2.374.795,3.666,2.5,3.457,4.558a5.508,5.508,0,0,1-4.79,4.6c-.391.048-.918.132-1.545.231A55.356,55.356,0,0,1-1735.941,1011.588Zm-27.979-44.078a10.47,10.47,0,0,1,5.517,1.732c6.9,4.219,6.04,16.035,5.674,21.08-.119,1.632,1.677,3.967,3.577,6.44,1.991,2.591,4.248,5.528,5.372,8.88,1.592,4.746,11.666,3.151,15.967,2.47.666-.105,1.224-.193,1.639-.244a2.845,2.845,0,0,0,2.471-2.237c.1-.974-.848-1.5-1.66-1.775-1.729-.579-10.345-3.647-10.255-7.163.053-2.107,4.156-14.051,6.558-16.988,1.895-2.316,8.909-3.091,23.443-2.6,5.223.179,8.972,6.642,10.774,9.748.321.554.686,1.182.814,1.333.819.9,1.635,3.168,3.125,7.425.577,1.649,1.174,3.354,1.816,5.061,1.549,4.119,7.314,3.8,12.594,3.172,1.479-.175,2.365-.824,2.5-1.828a1.424,1.424,0,0,0-.469-1.378,31.459,31.459,0,0,1-6.648-3.234c-1.74-1.178-1.717-5.257-1.248-14.282.1-1.88.19-3.655.212-5.051a5.112,5.112,0,0,1,1.835-4.171c2.546-2,6.883-1.01,9.213-.48l.212.048a68.128,68.128,0,0,0,15.076,1.448c6.756-.146,12.416,2.3,21.871,6.639,5.864,2.69,8.333,2.231,9.284,1.719a2.329,2.329,0,0,0,1.169-1.822c.17-1.112-1.188-4.349-5.507-10.1-.23-.306-.545-.714-.928-1.208-2.676-3.457-8.943-11.553-11.827-18.646-2.923-7.192-8.458-9.17-13.486-10.155A59.4,59.4,0,0,1-1671.2,935.2l-1.245-.749c-4.4-2.653-7.869-4.749-19.35-9.687-17.865-7.684-29.558-6.278-39.115-4.356-5.21,1.047-16.891,5.735-27.2,9.871-5.069,2.034-9.857,3.956-13.493,5.293-10.251,3.768-16.024,20.561-17.92,26.079l-.113.33c-.486,1.41-.864,2.72-1.23,3.987-1.8,6.226-3.221,11.144-14.522,19.133-5.949,4.206-11.533,5.866-16.686,5.866-13.376,0-23.851-11.189-30.31-18.088q-.558-.6-1.082-1.153c-2.64-2.8-5.373-3.423-6.255-2.782-.777.566-.714,2.679,1.179,6.126,14.164,25.8,42.151,25.734,54.97,22.1,15.607-4.43,23.382-14.892,28.528-21.816,2.215-2.98,3.816-5.134,5.5-6.116A11.085,11.085,0,0,1-1763.92,967.51Z" transform="translate(1862.842 -916.226)" fill="#47280a"/></g><path d="M-934.959,1117.281a2.591,2.591,0,0,1-.362-.025,2.557,2.557,0,0,1-1.723-1.042,2.674,2.674,0,0,1,.507-3.652,2.535,2.535,0,0,1,1.928-.517,2.556,2.556,0,0,1,1.723,1.042,2.674,2.674,0,0,1-.507,3.652A2.537,2.537,0,0,1-934.959,1117.281Zm-.072-2.625a.4.4,0,0,0,.051.016.109.109,0,0,0,.074-.017c.005-.007-.013-.023-.044-.027a.112.112,0,0,0-.074.017.051.051,0,0,0-.011.012Z" transform="translate(1144.501 -1068.176)" fill="#47280a"/><path d="M-1025.917,1026.106c-3.454-4.3-7.292-10.363-5.958-14.782a5.52,5.52,0,0,1,3.877-3.715,4.106,4.106,0,0,1,3.519.452c3.926,2.453,5.371,11.628,5.523,12.667l-2.888.424c-.5-3.407-2.079-9.3-4.182-10.615a1.2,1.2,0,0,0-1.085-.146,2.61,2.61,0,0,0-1.969,1.776c-.732,2.427,1.3,6.955,5.44,12.113Z" transform="translate(1217.943 -986.958)" fill="#47280a"/><ellipse cx="4.065" cy="2.547" rx="4.065" ry="2.547" transform="matrix(0.801, -0.599, 0.599, 0.801, 232.729, 66.211)" fill="#47280a"/><g transform="translate(186.372 56.642)"><path d="M-1018.427,1177s5.818,11.688,11.617,17.1c2.48,2.314.954,5.126,5.291,5.957,5.1.976,8.711.774,10.255-1.867,1.023-1.75-3.331-3.852-5.017-5.993-1.968-2.5-2.125-13.054-2.125-13.054Z" transform="translate(1020.92 -1175.266)" fill="#fce5c4"/><path d="M-1005.435,1196.034a27.236,27.236,0,0,1-5.014-.565,5.437,5.437,0,0,1-4.73-4.108,5.111,5.111,0,0,0-1.282-2.215c-5.924-5.528-11.685-17.029-11.928-17.516l-1.187-2.385,23.953,2.563.02,1.292c.063,4.179.667,10.719,1.812,12.172a15.161,15.161,0,0,0,2.214,2.018c1.876,1.516,4.211,3.4,2.917,5.615C-1000.066,1195.313-1002.646,1196.034-1005.435,1196.034Zm-19.074-23.311c2,3.651,6.065,10.578,10.041,14.288a7.848,7.848,0,0,1,2.03,3.341c.48,1.3.7,1.9,2.54,2.25,4.864.933,7.543.616,8.635-1.032a11.827,11.827,0,0,0-2.146-2.009,17.036,17.036,0,0,1-2.672-2.483c-1.838-2.333-2.293-9.429-2.4-12.641Z" transform="translate(1029.575 -1169.245)" fill="#47280a"/></g><g transform="translate(91.173)"><path d="M-1354.662,978.883l-4.016.931a1.235,1.235,0,0,1-1.208-.393c-2.515-2.858-14.471-14.957-22.933,2.645a1.256,1.256,0,0,1-1.036.719s-13.44.616-13.562.586l-.494-.06c-.742-.178-.738-1.371-.454-2.089.632-1.594,1.14-3.834.441-7.867-1.521-8.773-23.866-25.127-35.839-7.81-2.5,3.622-1.815,6.307-2.627,8.273-.552,1.336-1.789.567-3.8.013-.889-.245-2.269-.634-2.056-1.543,1.438-6.146,4.375-21.534-6.073-32.189a1.269,1.269,0,0,1,.5-2.09s24.067-9.36,24.1-9.37c0,0,8.423-2.961,11.238-3.928.069-.024,8.008-2.278,13.207-2.182a93.065,93.065,0,0,1,11.493.534c.085.013,6.7,1.337,8.877,2.006.8.246,7.018,2.455,7.018,2.455.787.276.706,1.683.214,2.366-2.685,3.724-7.11,16.241,17.692,46.959A1.272,1.272,0,0,1-1354.662,978.883Z" transform="translate(1450.14 -921.063)" fill="#ea875c"/><path d="M-1402.429,979.756c-.107,0-.18,0-.235-.006v.005l-.656-.09a2.172,2.172,0,0,1-1.432-1.137,3.709,3.709,0,0,1-.038-2.909c.514-1.3,1.02-3.274.359-7.08-.731-4.218-8.156-11.871-16.915-13.8-4.65-1.023-11.25-.714-16.285,6.569a10.946,10.946,0,0,0-1.886,5.355,10.385,10.385,0,0,1-.592,2.645c-.957,2.316-3.17,1.606-4.492,1.181-.319-.1-.666-.214-1.042-.318-.9-.247-3.624-1-3.09-3.283,3.135-13.41,1.22-23.785-5.694-30.835a2.715,2.715,0,0,1-.7-2.561,2.7,2.7,0,0,1,1.746-1.924c24.071-9.361,24.089-9.368,24.139-9.384s8.435-2.965,11.222-3.922c.068-.023,8.177-2.357,13.708-2.261a90.572,90.572,0,0,1,11.688.551c.212.032,6.882,1.377,9.084,2.054.806.247,6.439,2.247,7.079,2.474a2.279,2.279,0,0,1,1.418,1.523,3.691,3.691,0,0,1-.509,3.072c-2.085,2.893-6.975,14.7,17.643,45.189a2.725,2.725,0,0,1,.457,2.614,2.694,2.694,0,0,1-1.947,1.76l-4.016.931a2.7,2.7,0,0,1-2.634-.851c-1.43-1.626-6.508-6.874-11.758-6.151-3.336.459-6.284,3.307-8.764,8.464a2.721,2.721,0,0,1-2.248,1.542C-1399,979.643-1401.633,979.756-1402.429,979.756Zm-22.721-28.365a20.6,20.6,0,0,1,4.431.5c9.581,2.109,18.169,10.414,19.164,16.151.784,4.523.133,7-.522,8.654a.967.967,0,0,0-.043.144c1.622-.056,8.327-.357,12.965-.57,2.922-6.031,6.606-9.393,10.949-9.991,6.583-.9,12.481,5.017,14.263,7.019l3.573-.828c-25-31.059-20.61-44.258-17.553-48.5a.773.773,0,0,0,.088-.276c-1.948-.691-5.978-2.115-6.565-2.295-2.016-.62-8.3-1.89-8.708-1.966a90.114,90.114,0,0,0-11.161-.511h-.093c-4.833-.1-12.314,1.992-12.745,2.114-2.812.966-11.112,3.884-11.2,3.913-.267.1-21.461,8.345-23.839,9.27,7.41,7.714,9.549,18.762,6.361,32.849a9.249,9.249,0,0,0,.911.289c.418.115.8.238,1.159.352.31.1.7.225.971.287a9.918,9.918,0,0,0,.328-1.722,13.789,13.789,0,0,1,2.379-6.627C-1436.288,954.233-1431.105,951.392-1425.15,951.392Zm47.709-27.557h0Z" transform="translate(1455.208 -916)" fill="#47280a"/></g></g></g></svg>