<svg xmlns="http://www.w3.org/2000/svg" width="322.58" height="322.58" viewBox="0 0 322.58 322.58"><g transform="translate(-2287.284 -780.848)"><circle cx="161.29" cy="161.29" r="161.29" transform="translate(2287.284 780.848)" fill="#f4f5f3"/><circle cx="149.551" cy="149.551" r="149.551" transform="translate(2299.702 792.587)" fill="#fddad3"/><path d="M2546.522,913.637l7.9,31.707-8.762,38.08-5.664,5.353-.4,4.145,9.188.7,20.112-28.583-.146-14.911-5.135-22-2.343-10.526Z" transform="translate(-177.843 18.926)" fill="#c7b299"/><path d="M2544.931,995.1c-2.857,0-6.088-.644-7.669-2.087a4.92,4.92,0,0,1-.936-5.482,7.067,7.067,0,0,1,6.776-4.346c.892-.6,3.106-4.6,5.563-16a156.637,156.637,0,0,0,3.172-21.131c.337-7.869-6.9-28.2-6.968-28.4a2.02,2.02,0,0,1,3.8-1.36c.31.865,7.57,21.282,7.2,29.932a161.151,161.151,0,0,1-3.525,23.02c-3.545,15.829-6.585,17.972-9.092,17.972h-.017a3.147,3.147,0,0,0-3.016,1.489,1.664,1.664,0,0,0-.21,1.346c1.178,1.071,6.4,1.271,7.6.685,13.23-7.83,19.081-33.04,18.9-38.065a2.019,2.019,0,1,1,4.036-.147c.214,5.89-5.761,32.741-20.9,41.7A10.325,10.325,0,0,1,2544.931,995.1Z" transform="translate(-177.843 18.926)" fill="#47280a"/><path d="M2638.314,944l5.951,26.365-9.41,10.833-12.037,2.954.109,4.815,14.909,2.255,26.938-23.843-10.283-13.117Z" transform="translate(-177.843 18.926)" fill="#c7b299"/><path d="M2706.662,916.2s22.627.652,25.915,21.815c4.653,29.954,2.49,29.882,7.826,36.286s4.269,27.392-9.6,24.546-19.643-8.142-25.335-27.352,2.548-35.905-2.432-38.04S2706.662,916.2,2706.662,916.2Z" transform="translate(-177.843 18.926)" fill="#c7b299"/><path d="M2725.847,925.606c-3.507,10.5-15.6,21.708-22.073,26.243-2.812,1.971.6,10.185.6,10.185,9.575-2.592,26.936-28.478,26.936-28.478S2727.5,920.668,2725.847,925.606Z" transform="translate(-177.843 18.926)" fill="#736357"/><path d="M2735.45,967.228c-3.507,10.5-11.7,18.187-19.468,20.485-3.292.974,2.844,9.44,7.1,8.287,9.575-2.591,17.832-21.289,17.832-21.289Z" transform="translate(-177.843 18.926)" fill="#736357"/><path d="M2732.315,941.427c-3.507,10.5-19.2,29.6-26.974,31.894,0,0-.034,9.824,4.275,8.877,13.276-2.918,24.45-26.619,24.45-26.619S2733.964,936.49,2732.315,941.427Z" transform="translate(-177.843 18.926)" fill="#736357"/><path d="M2731.936,999.934a15.244,15.244,0,0,1-3.054-.315c-13.088-2.685-21.508-11.448-25.026-26.046-2.586-10.73-1.353-22.092-.452-30.389.483-4.452,1.145-10.549.207-11.459a4.47,4.47,0,0,1-2.38-2.555c-2.087-5.244,2.781-17.01,3.778-19.315l.813-1.879,1.869.839c.98.44,24.024,10.98,27.441,28.446a148.94,148.94,0,0,1,2.344,20.092c.515,8.013.826,12.849,4.137,15.328,5.186,3.881,6.657,11.373,3.58,18.219C2742.628,996.6,2737.615,999.934,2731.936,999.934Zm-24.026-86.505c-1.971,5.069-3.878,11.855-2.926,14.247.121.3.224.346.258.362,3.7,1.584,3.093,7.152,2.178,15.582-.869,8-2.058,18.96.363,29.006,3.163,13.125,10.33,20.66,21.911,23.035,6.028,1.24,10.056-2.5,11.814-6.417,1.939-4.312,1.765-10.275-2.316-13.33-4.8-3.594-5.2-9.763-5.747-18.3a145.194,145.194,0,0,0-2.278-19.575C2728.674,925.29,2713.312,916.249,2707.91,913.429Z" transform="translate(-177.843 18.926)" fill="#47280a"/><path d="M2556.654,857.39c1.067-2.846,13.355-14.69,15.472-14.244,2.551.537,4.626,14.755,4.626,14.755s18.364-7.72,65.69-3.593c39.847,3.475,52.2,16.838,60.538,23.13,7.5,5.662,12.539,11.477,15.384,24.995s-8.547,39.479-29.707,53.722c-3.365,2.265-6.4,14.23-3.558,24.9s-4.294,16.9-7.5,19.751-13.863-1.652-17.776-2.363.3-6.2,1.367-6.555,2.865-.13,5.711-.842.864-4.588,2.382-7.6c3.333-6.62-13.967-29.532-20.726-34.157s-47.06-18.391-56.309,3.664-9.763,19.871-17.928,32.333c-6.759,10.317-18,9.645-21.2,9.289-2.828-.314-4.419-5.37-1-7.275,4.372-2.435,6.693-3.042,7.405-4.82,1.307-3.27,1.422-8.182-2.135-28.815a120.431,120.431,0,0,0-12.516-36.092c-50.335-.438-28.216-41.637-28.216-41.637s-6.327-16.166-3.7-18.354c2.287-1.906,18.287,5.643,19,5.192C2547.317,853.013,2556.654,857.39,2556.654,857.39Z" transform="translate(-177.843 18.926)" fill="#c7b299"/><path d="M2537.664,876.14c2.878,1.642,4.595,5.821,3.965,9.775-.35,2.2-2.637,6.39-4.776,8.835-5.164,5.9-11.8,6.64-14.313,4.813-3.772-2.748-5.948-12.049.984-20.595C2528.208,873.194,2534,874.047,2537.664,876.14Z" transform="translate(-177.843 18.926)" fill="#736357"/><path d="M2556.359,873.17c-1.825,2.691-1.757,7.169.582,10.317a22.1,22.1,0,0,0,9.091,6.121c4.8,1.5,11.3,1.515,13.53-2.031,3.021-4.817-.4-14.443-8.595-17.91C2564.26,866.83,2559.011,869.257,2556.359,873.17Z" transform="translate(-177.843 18.926)" fill="#736357"/><path d="M2633.647,993.253a26.337,26.337,0,0,1-10.862-2.571,4.484,4.484,0,0,1-2.416-5.08c.381-1.709,2.318-5.638,12.02-5.638l.448,0c2.07-.077,9.261-7.28,10.093-9.284.5-5.148-6-20.8-8.571-26.438l3.675-1.676c1,2.2,9.758,21.667,8.893,28.721-.327,2.667-9.545,12.716-14.1,12.716h-.037c-6.237-.091-8.269,1.582-8.475,2.469a.5.5,0,0,0,.144.531c5.755,2.616,11.1,2.906,15.452.841,4.811-2.282,18.507-16.532,23.379-21.83l2.973,2.734c-1.847,2.009-18.231,19.714-24.62,22.745A18.476,18.476,0,0,1,2633.647,993.253Zm9.308-22.635Z" transform="translate(-177.843 18.926)" fill="#47280a"/><path d="M2545.886,919c-1.342,0-1.645-.254-1.983-.538a2.02,2.02,0,0,1,1.8-3.5,47.409,47.409,0,0,0,7.637-.912c4.933-.8,29.849-5.5,35.8-19.374,3.129-7.29-3.937-19.671-6.925-23.826a2.02,2.02,0,0,1,3.279-2.36c.493.685,12.028,16.9,7.359,27.779-6.618,15.418-31.424,20.56-38.869,21.769A58.74,58.74,0,0,1,2545.886,919Zm.611-3.634h0Zm0,0h0Zm0,0h0Zm0,0Zm0,0Z" transform="translate(-177.843 18.926)" fill="#47280a"/><path d="M2593.79,950.023s15.123-11.706,25.518-8.97,26.053,3.411,29.253,8.236c.775,1.168,9.713,10.2,9.713,10.2s7.574-27.654-26.61-31.271C2592.318,924.052,2593.79,950.023,2593.79,950.023Z" transform="translate(-177.843 18.926)" fill="#fff"/><path d="M2668.2,1002.16a55.078,55.078,0,0,1-8.18-.551,5.117,5.117,0,0,1-4.247-5.43,6.894,6.894,0,0,1,6.417-6.569c.372-.044.726-.053,1.1-.063a10.963,10.963,0,0,0,3.793-.676c.459-.348,1.071-2.972.527-6.9-3-21.652-23.992-33.6-24.884-34.1-5.217-2.913-24.864-7.612-37.632-3.118-5.01,1.764-8.408,4.778-10.1,8.957-7.87,19.447-10.968,24.858-19.5,34.056-8.423,9.085-17.1,8.911-20.808,8.838-.259-.005-.5-.01-.708-.011a5.614,5.614,0,0,1-5.838-5c-.413-3.044,1.2-6.91,4.535-7.847a8.04,8.04,0,0,0,5.141-3.967c2.614-4.731,2.11-13.324-1.5-25.541-4.918-16.654-10.729-31.089-12.468-35.294-15.8-.026-26.221-4.131-30.981-12.208-6.717-11.4.244-26.676,2.351-30.777-3.088-5.6-8.353-16.751-3.394-20.057,3.663-2.441,10.737.349,18.281,3.685.846.374,1.773.783,2.367,1.021,11.822-7.28,19.918-6.714,23.35-5.92,2.964-4.691,11.768-15.2,17.317-13.983.956.212,3.774.84,6.5,15.945,7.48-2.248,32.733-8.38,72.6-3.318,18.3,2.323,34.525,8.618,46.924,18.2,11.541,8.921,18.881,20.1,20.668,31.482,4.386,27.922-17.442,45.245-25.659,51.766a31.217,31.217,0,0,0-2.978,2.515c-4.008,5.934-4.323,9.679-3.376,20.391.956,10.821-2.813,18.329-6.658,21.748C2678.756,1001.575,2673.14,1002.16,2668.2,1002.16Zm-50.5-63.288c11.38,0,22.9,3.185,27,5.473.964.539,23.644,13.451,26.915,37.073.315,2.271,1.015,9.794-3.193,11.265a15.032,15.032,0,0,1-5.017.9c-.271.007-.514.011-.739.037a2.9,2.9,0,0,0-2.851,2.673,1.152,1.152,0,0,0,.909,1.336c4.622.813,15.526.766,17.756-1.215,3.111-2.766,6.142-9.045,5.318-18.373-1.014-11.47-.586-16.141,4.061-23.019.541-.8,1.558-1.623,3.806-3.407,8.438-6.7,28.2-22.38,24.18-47.976-1.627-10.356-8.427-20.625-19.148-28.912-11.83-9.144-27.377-15.158-44.963-17.391-46-5.841-72.717,3.753-72.983,3.85a2.018,2.018,0,0,1-2.693-1.568c-1.012-6.183-2.84-13.475-4.045-15h-.006c-3.165,0-12.186,10.176-13.315,13.189a2.021,2.021,0,0,1-2.737,1.124c-.16-.069-8.065-3.333-22.043,5.546-1.114.71-1.945.343-5.428-1.2-3.04-1.343-12.286-5.432-14.408-4.018-1.216.811.95,8.2,5.211,15.673a2.026,2.026,0,0,1,0,2c-.094.165-9.4,16.787-2.923,27.757,4.111,6.962,13.815,10.4,28.812,10.2h.025a2.019,2.019,0,0,1,1.857,1.225,379.273,379.273,0,0,1,13.144,36.972c3.979,13.478,4.359,22.845,1.158,28.637a12.052,12.052,0,0,1-7.582,5.9c-1.016.286-1.821,1.978-1.626,3.416.141,1.037.712,1.5,1.853,1.506.231,0,.489.006.77.011,3.44.072,10.575.211,17.766-7.545,8.1-8.741,11.077-13.956,18.714-32.825,2.145-5.3,6.351-9.087,12.5-11.252A42.567,42.567,0,0,1,2617.7,938.872Z" transform="translate(-177.843 18.926)" fill="#47280a"/><path d="M2516.162,861.6c-.547,1.569,3.671,10.472,4.984,11.056,1.082.481,1.623-.949,3.812-2.918,1.247-1.122,2.69-2.272,2.954-3.265C2528.655,863.687,2516.662,860.166,2516.162,861.6Z" transform="translate(-177.843 18.926)" fill="#47280a"/><path d="M2570.4,849.071c-1.169-.13-7.73,7.63-7.869,10-.146,2.48,9.065,3.166,9.373,1.933C2572.484,858.667,2571.381,849.181,2570.4,849.071Z" transform="translate(-177.843 18.926)" fill="#47280a"/><path d="M2530.815,887.916a3.324,3.324,0,1,1,2-.666h0A3.31,3.31,0,0,1,2530.815,887.916Zm.891-2.133h0Zm-1.1-1.468a.359.359,0,0,0-.134.228.352.352,0,0,0,.066.257.347.347,0,0,0,.484.069h0Zm.208-.069a.349.349,0,0,0-.207.068l.416.553a.346.346,0,0,0,.068-.484A.344.344,0,0,0,2530.81,884.246Z" transform="translate(-177.843 18.926)" fill="#47280a"/><path d="M2564.145,880.656a3.37,3.37,0,0,1-.458-.032,3.214,3.214,0,1,1,.458.032Zm-.458-3.282a.458.458,0,0,0,.087.338.464.464,0,0,0,.3.177.459.459,0,0,0,.515-.387.459.459,0,0,0-.387-.515.451.451,0,0,0-.338.088.462.462,0,0,0-.177.3Z" transform="translate(-177.843 18.926)" fill="#47280a"/><path d="M2539.51,910.461c3.536,2.376,7.91,2.224,14,1.137,7.945-1.417,12.971-4.829,12.946-8.585-.051-7.688-10.768-14.647-16.957-13.318C2540.787,891.567,2534.611,907.17,2539.51,910.461Z" transform="translate(-177.843 18.926)" fill="#fff"/><ellipse cx="5.639" cy="3.877" rx="5.639" ry="3.877" transform="translate(2365.803 915.714) rotate(-12.558)" fill="#47280a"/><path d="M2638.769,1044.051c-11.061,3.65-24.286-2.494-27.524-4.146a.649.649,0,0,1-.28-.983c10.443-13.552,9.182-25.986,8.582-29.363a.707.707,0,0,1,.877-.745l12.836,1.848a.718.718,0,0,1,.65.918c-6.157,16.194,2.731,28.481,5.191,31.449A.631.631,0,0,1,2638.769,1044.051Z" transform="translate(-177.843 18.926)" fill="#cbced1" stroke="#47280a" stroke-miterlimit="10" stroke-width="3"/><rect width="7.256" height="73.378" rx="3.628" transform="translate(2510.318 1043.006) rotate(98.193)" fill="#ef5542" stroke="#47280a" stroke-miterlimit="10" stroke-width="3"/><line x2="13.431" y2="11.258" transform="translate(2440.925 1032.02)" fill="#cbced1" stroke="#47280a" stroke-miterlimit="10" stroke-width="2"/><line y1="6.733" x2="15.222" transform="translate(2440.393 1034.535)" fill="#cbced1" stroke="#47280a" stroke-miterlimit="10" stroke-width="2"/><path d="M2554.925,1032.171a5.2,5.2,0,0,1-2.584-4.7c.01-.219-.23-.5-.425-.668a4.835,4.835,0,0,1-.89-6.748,4.9,4.9,0,0,1,6.75-.993c.272.178.716.093,1.081.125.027,0,.056-.029.085-.04,1.808-.677,3.005-1.6,3.029-3.9a7.7,7.7,0,0,1,2.559-5.318,23.23,23.23,0,0,0,4.5-6.679,26.471,26.471,0,0,1,10.544-11.158c3.643-2.129,7.321-1.723,10.918.221,8.253,4.46,13.848,16.149,12.337,24.655a3.144,3.144,0,0,0,0,.565l-.859,2.738c-.2.322-.406.64-.594.968a10.054,10.054,0,0,1-5.613,4.311,28.193,28.193,0,0,1-13.569,1.868,49.121,49.121,0,0,0-9.69-.43,7.947,7.947,0,0,1-4.427-.8c-2.089-1.256-3.685-.714-5.429.434a1.12,1.12,0,0,0-.653,1.09,4.8,4.8,0,0,1-4.87,4.921c-.186,0-.371.033-.556.05Zm36.339-9.98c3.24,1.169,6.56-.081,7.805-3.143a11.214,11.214,0,0,0,.879-3.687c.288-7.543-2.79-13.638-8.311-18.6a12.456,12.456,0,0,0-5.06-2.784,5.786,5.786,0,0,0-7.46,3.851,11.808,11.808,0,0,0-.7,3.44c-.2,7.02,2.633,12.784,7.544,17.625A13.44,13.44,0,0,0,2591.264,1022.191Zm-15.9-22.739a1.911,1.911,0,0,0-.38.334,57.978,57.978,0,0,0-3.537,5.412,20.637,20.637,0,0,1-4.327,6.335,5.477,5.477,0,0,0-.691.79c-2.815,3.693-2.041,8.484,1.744,10.68a9.634,9.634,0,0,0,5.36.974c2.341-.076,4.69.1,7.035.194,2.219.086,4.436.2,6.655.29a4.58,4.58,0,0,0,.874-.124C2579.218,1018.359,2574.925,1010.159,2575.362,999.452Zm-13.029,21.231c-1.148.635-2.2,1.231-3.259,1.8-1.4.742-1.739.661-2.733-.566a1.747,1.747,0,0,0-2.033-.645,1.679,1.679,0,0,0-1.229,1.645,1.738,1.738,0,0,0,1.219,1.75c1.462.587,1.656.985,1.207,2.443a1.776,1.776,0,0,0,.609,2.129,1.685,1.685,0,0,0,2.129.007,1.749,1.749,0,0,0,.621-2.121c-.415-1.359-.235-1.794,1.019-2.449,1.178-.616,2.364-1.214,3.434-1.763Z" transform="translate(-177.843 18.926)" fill="#47280a"/><path d="M2591.264,1022.19a13.427,13.427,0,0,1-5.306-3.3c-4.911-4.841-7.746-10.6-7.544-17.625a11.808,11.808,0,0,1,.7-3.44,5.786,5.786,0,0,1,7.46-3.851,12.456,12.456,0,0,1,5.06,2.784c5.521,4.961,8.6,11.056,8.311,18.6a11.214,11.214,0,0,1-.879,3.687C2597.824,1022.11,2594.5,1023.36,2591.264,1022.19Zm3.258-11.218c.951-3.138-1.5-7.791-4.637-8.793a3.193,3.193,0,0,0-4.259,2.618,8.377,8.377,0,0,0,4.266,8.214A3.191,3.191,0,0,0,2594.522,1010.972Z" transform="translate(-177.843 18.926)" fill="#ef5542"/><path d="M2575.362,999.452c-.437,10.707,3.856,18.907,12.733,24.885a4.58,4.58,0,0,1-.874.124c-2.219-.085-4.436-.2-6.655-.29-2.345-.09-4.694-.27-7.035-.194a9.634,9.634,0,0,1-5.36-.974c-3.785-2.2-4.559-6.987-1.744-10.68a5.477,5.477,0,0,1,.691-.79,20.637,20.637,0,0,0,4.327-6.335,57.978,57.978,0,0,1,3.537-5.412A1.911,1.911,0,0,1,2575.362,999.452Z" transform="translate(-177.843 18.926)" fill="#c69c6d"/><path d="M2562.333,1020.683l.984,2.227c-1.07.549-2.256,1.147-3.434,1.763-1.254.655-1.434,1.09-1.019,2.449a1.749,1.749,0,0,1-.621,2.121,1.685,1.685,0,0,1-2.129-.007,1.776,1.776,0,0,1-.609-2.129c.449-1.458.255-1.856-1.207-2.443a1.738,1.738,0,0,1-1.219-1.75,1.679,1.679,0,0,1,1.229-1.645,1.747,1.747,0,0,1,2.033.645c.994,1.227,1.335,1.308,2.733.566C2560.137,1021.914,2561.185,1021.318,2562.333,1020.683Z" transform="translate(-177.843 18.926)" fill="#fff"/><path d="M2594.522,1010.972a3.191,3.191,0,0,1-4.63,2.039,8.377,8.377,0,0,1-4.266-8.214,3.193,3.193,0,0,1,4.259-2.618C2593.019,1003.181,2595.473,1007.834,2594.522,1010.972Zm-5.8-5.893c-.495,2.067,1.192,5.059,2.846,5.137C2592.025,1008.227,2590.572,1005.552,2588.72,1005.079Z" transform="translate(-177.843 18.926)" fill="#47280a"/><path d="M2588.72,1005.079c1.852.473,3.3,3.148,2.846,5.137C2589.912,1010.138,2588.225,1007.146,2588.72,1005.079Z" transform="translate(-177.843 18.926)" fill="#fff"/></g></svg>