<svg xmlns="http://www.w3.org/2000/svg" width="322.58" height="322.58" viewBox="0 0 322.58 322.58"><g transform="translate(-683.568 -734)"><circle cx="161.29" cy="161.29" r="161.29" transform="translate(683.568 734)" fill="#f4f5f3"/><circle cx="149.551" cy="149.551" r="149.551" transform="translate(695.986 745.739)" fill="#fddad3"/><path d="M945.334,870.831l7.9,31.707-8.762,38.08-5.664,5.353-.4,4.145,9.188.7,20.112-28.583-.146-14.911-5.135-22-2.343-10.526Z" transform="translate(-177.843 18.926)" fill="#c7b299"/><path d="M943.743,952.3c-2.857,0-6.088-.644-7.669-2.087a4.92,4.92,0,0,1-.936-5.482,7.069,7.069,0,0,1,6.776-4.347c.892-.6,3.106-4.6,5.563-16a156.6,156.6,0,0,0,3.172-21.131c.337-7.868-6.895-28.194-6.968-28.4a2.02,2.02,0,1,1,3.8-1.359c.31.864,7.57,21.282,7.2,29.931a161.156,161.156,0,0,1-3.525,23.021c-3.545,15.829-6.585,17.972-9.092,17.972h-.017a3.145,3.145,0,0,0-3.016,1.489,1.663,1.663,0,0,0-.21,1.346c1.178,1.071,6.4,1.271,7.6.685,13.23-7.831,19.081-33.041,18.9-38.066a2.019,2.019,0,0,1,4.036-.146c.214,5.889-5.761,32.741-20.9,41.7A10.312,10.312,0,0,1,943.743,952.3Z" transform="translate(-177.843 18.926)" fill="#47280a"/><path d="M1037.126,901.2l5.951,26.365-9.41,10.833-12.036,2.954.109,4.815,14.909,2.255,26.938-23.843L1053.3,911.461Z" transform="translate(-177.843 18.926)" fill="#c7b299"/><path d="M1105.474,873.39s22.626.652,25.915,21.816c4.653,29.954,2.49,29.882,7.826,36.285s4.269,27.392-9.6,24.546-19.643-8.142-25.335-27.352,2.548-35.9-2.433-38.039S1105.474,873.39,1105.474,873.39Z" transform="translate(-177.843 18.926)" fill="#c7b299"/><path d="M1124.659,882.8c-3.507,10.5-15.6,21.707-22.073,26.243-2.812,1.97.6,10.184.6,10.184,9.575-2.591,26.936-28.477,26.936-28.477S1126.308,877.862,1124.659,882.8Z" transform="translate(-177.843 18.926)" fill="#736357"/><path d="M1134.262,924.421c-3.507,10.5-11.7,18.188-19.468,20.486-3.292.974,2.843,9.44,7.1,8.287,9.575-2.592,17.832-21.289,17.832-21.289Z" transform="translate(-177.843 18.926)" fill="#736357"/><path d="M1131.127,898.621c-3.507,10.5-19.2,29.6-26.974,31.893,0,0-.034,9.824,4.275,8.877,13.276-2.918,24.449-26.618,24.449-26.618S1132.776,893.683,1131.127,898.621Z" transform="translate(-177.843 18.926)" fill="#736357"/><path d="M1130.748,957.127a15.166,15.166,0,0,1-3.054-.315c-13.088-2.685-21.508-11.448-25.026-26.045-2.586-10.731-1.353-22.093-.452-30.39.483-4.451,1.145-10.549.207-11.458a4.47,4.47,0,0,1-2.38-2.555c-2.087-5.244,2.781-17.01,3.778-19.315l.813-1.88,1.869.839c.979.441,24.024,10.981,27.441,28.447a148.845,148.845,0,0,1,2.344,20.092c.515,8.012.826,12.849,4.137,15.327,5.186,3.882,6.657,11.374,3.58,18.219C1141.44,953.8,1136.427,957.127,1130.748,957.127Zm-24.026-86.5c-1.971,5.068-3.878,11.855-2.926,14.247.12.3.224.346.257.361,3.7,1.584,3.094,7.153,2.179,15.582-.869,8-2.058,18.96.363,29.007,3.162,13.124,10.33,20.659,21.911,23.035,6.028,1.239,10.056-2.505,11.814-6.418,1.939-4.311,1.765-10.274-2.316-13.329-4.8-3.594-5.2-9.764-5.747-18.3a145.135,145.135,0,0,0-2.278-19.575C1127.486,882.483,1112.124,873.443,1106.722,870.623Z" transform="translate(-177.843 18.926)" fill="#47280a"/><path d="M955.466,814.584c1.067-2.846,13.355-14.69,15.472-14.244,2.551.537,4.625,14.754,4.625,14.754s18.365-7.72,65.691-3.593c39.847,3.476,52.2,16.838,60.538,23.131,7.5,5.662,12.539,11.476,15.384,24.994s-8.547,39.48-29.707,53.723c-3.365,2.264-6.4,14.229-3.558,24.9s-4.294,16.905-7.5,19.751-13.863-1.651-17.776-2.363.3-6.2,1.367-6.554,2.865-.131,5.711-.842.864-4.588,2.382-7.6c3.333-6.619-13.967-29.532-20.726-34.156s-47.06-18.392-56.31,3.664-9.762,19.871-17.927,32.333c-6.759,10.316-18,9.644-21.2,9.288-2.828-.314-4.419-5.37-1-7.274,4.372-2.436,6.693-3.042,7.4-4.821,1.308-3.269,1.423-8.182-2.134-28.815a120.434,120.434,0,0,0-12.516-36.091c-50.335-.438-28.216-41.638-28.216-41.638s-6.327-16.165-3.7-18.354c2.287-1.905,18.287,5.644,19,5.192C946.129,810.207,955.466,814.584,955.466,814.584Z" transform="translate(-177.843 18.926)" fill="#c7b299"/><path d="M936.476,833.333c2.878,1.643,4.595,5.821,3.965,9.775-.35,2.2-2.637,6.391-4.776,8.836-5.164,5.9-11.8,6.639-14.313,4.812-3.772-2.747-5.948-12.048.984-20.595C927.019,830.387,932.809,831.24,936.476,833.333Z" transform="translate(-177.843 18.926)" fill="#736357"/><path d="M955.17,830.363c-1.824,2.692-1.756,7.169.583,10.317a22.1,22.1,0,0,0,9.091,6.122c4.8,1.5,11.3,1.515,13.53-2.032,3.021-4.817-.4-14.442-8.6-17.909C963.072,824.023,957.823,826.45,955.17,830.363Z" transform="translate(-177.843 18.926)" fill="#736357"/><path d="M1032.459,950.446a26.335,26.335,0,0,1-10.862-2.57,4.484,4.484,0,0,1-2.416-5.08c.381-1.709,2.318-5.638,12.02-5.638.147,0,.3,0,.448,0,2.07-.077,9.261-7.28,10.093-9.285.5-5.147-6-20.8-8.571-26.438l3.675-1.675c1,2.2,9.758,21.667,8.893,28.721-.327,2.666-9.545,12.716-14.1,12.716h-.037c-6.237-.092-8.269,1.581-8.475,2.469a.5.5,0,0,0,.144.53c5.755,2.616,11.1,2.907,15.452.842,4.811-2.283,18.507-16.532,23.379-21.83l2.973,2.734c-1.847,2.009-18.231,19.713-24.62,22.745A18.476,18.476,0,0,1,1032.459,950.446Zm9.308-22.634Z" transform="translate(-177.843 18.926)" fill="#47280a"/><path d="M944.7,876.2c-1.342,0-1.645-.254-1.984-.539a2.02,2.02,0,0,1,1.8-3.5,47.427,47.427,0,0,0,7.637-.912c4.933-.8,29.849-5.5,35.8-19.375,3.129-7.29-3.937-19.67-6.925-23.825a2.02,2.02,0,0,1,3.279-2.361c.493.685,12.028,16.9,7.359,27.78-6.618,15.418-31.424,20.56-38.869,21.769A58.917,58.917,0,0,1,944.7,876.2Zm.611-3.634h0Zm0,0Zm0,0h0Zm0,0Zm0,0Z" transform="translate(-177.843 18.926)" fill="#47280a"/><path d="M992.6,907.217s15.123-11.706,25.518-8.971,26.053,3.411,29.253,8.237c.775,1.167,9.713,10.2,9.713,10.2s7.574-27.654-26.61-31.271C991.13,881.246,992.6,907.217,992.6,907.217Z" transform="translate(-177.843 18.926)" fill="#fff"/><path d="M1067.016,959.353a55.244,55.244,0,0,1-8.18-.55,5.118,5.118,0,0,1-4.247-5.43,6.894,6.894,0,0,1,6.417-6.569c.372-.044.726-.054,1.1-.064a10.943,10.943,0,0,0,3.793-.676c.459-.347,1.071-2.971.527-6.9-3-21.652-23.992-33.6-24.884-34.1-5.217-2.914-24.864-7.613-37.632-3.119-5.01,1.765-8.409,4.778-10.1,8.958-7.87,19.447-10.968,24.858-19.5,34.056-8.423,9.084-17.1,8.91-20.809,8.838-.258-.005-.494-.01-.707-.011a5.614,5.614,0,0,1-5.838-5c-.413-3.045,1.2-6.91,4.535-7.848a8.039,8.039,0,0,0,5.141-3.966c2.614-4.732,2.11-13.325-1.5-25.542-4.918-16.653-10.729-31.089-12.468-35.293-15.8-.027-26.221-4.131-30.982-12.209-6.716-11.4.245-26.676,2.352-30.776-3.088-5.6-8.353-16.752-3.394-20.057,3.662-2.442,10.737.349,18.281,3.684.846.374,1.773.784,2.367,1.021,11.822-7.279,19.918-6.714,23.35-5.92,2.964-4.69,11.768-15.2,17.317-13.982.956.212,3.774.839,6.495,15.945,7.481-2.249,32.734-8.38,72.6-3.319,18.3,2.324,34.525,8.618,46.924,18.2,11.541,8.922,18.881,20.1,20.668,31.482,4.385,27.923-17.442,45.245-25.66,51.767a31.182,31.182,0,0,0-2.977,2.515c-4.008,5.934-4.323,9.679-3.376,20.391.956,10.821-2.813,18.329-6.658,21.748C1077.568,958.769,1071.952,959.353,1067.016,959.353Zm-50.5-63.288c11.38,0,22.9,3.186,27,5.473.964.539,23.644,13.452,26.915,37.073.315,2.271,1.015,9.794-3.193,11.266a15,15,0,0,1-5.017.9c-.271.008-.514.011-.739.038a2.9,2.9,0,0,0-2.851,2.673,1.152,1.152,0,0,0,.909,1.336c4.621.813,15.526.766,17.756-1.216,3.111-2.765,6.142-9.045,5.318-18.373-1.014-11.469-.586-16.141,4.061-23.018.541-.8,1.558-1.623,3.806-3.408,8.438-6.7,28.2-22.38,24.18-47.975-1.627-10.357-8.427-20.625-19.148-28.913-11.83-9.143-27.377-15.157-44.963-17.39-46-5.842-72.717,3.753-72.983,3.849a2.019,2.019,0,0,1-2.693-1.568c-1.012-6.183-2.84-13.475-4.045-15h-.006c-3.165,0-12.186,10.175-13.315,13.188a2.02,2.02,0,0,1-2.737,1.125c-.16-.069-8.065-3.333-22.043,5.546-1.114.709-1.945.342-5.428-1.2-3.04-1.343-12.286-5.432-14.408-4.017-1.216.81.95,8.2,5.211,15.673a2.025,2.025,0,0,1,0,2c-.094.165-9.4,16.786-2.923,27.757,4.111,6.961,13.815,10.4,28.812,10.2h.025a2.019,2.019,0,0,1,1.857,1.225,379.15,379.15,0,0,1,13.144,36.972c3.979,13.478,4.359,22.846,1.158,28.638a12.052,12.052,0,0,1-7.582,5.9c-1.016.285-1.821,1.977-1.626,3.415.141,1.037.712,1.5,1.853,1.506.231,0,.489.006.77.012,3.44.072,10.575.211,17.766-7.546,8.1-8.741,11.077-13.956,18.714-32.824,2.145-5.3,6.351-9.087,12.5-11.253A42.561,42.561,0,0,1,1016.515,896.065Z" transform="translate(-177.843 18.926)" fill="#47280a"/><path d="M914.974,818.793c-.547,1.568,3.671,10.472,4.984,11.055,1.082.481,1.623-.948,3.812-2.918,1.246-1.122,2.69-2.271,2.954-3.264C927.467,820.88,915.474,817.36,914.974,818.793Z" transform="translate(-177.843 18.926)" fill="#47280a"/><path d="M969.208,806.265c-1.169-.13-7.73,7.63-7.87,10-.145,2.48,9.066,3.165,9.374,1.933C971.3,815.86,970.193,806.374,969.208,806.265Z" transform="translate(-177.843 18.926)" fill="#47280a"/><path d="M929.627,845.11a3.324,3.324,0,1,1,1.995-.666h0A3.311,3.311,0,0,1,929.627,845.11Zm.891-2.134h0Zm-1.1-1.467a.347.347,0,0,0-.068.485.346.346,0,0,0,.484.068h0Zm.208-.07a.343.343,0,0,0-.207.069l.416.553a.346.346,0,0,0,.068-.484A.345.345,0,0,0,929.622,841.439Z" transform="translate(-177.843 18.926)" fill="#47280a"/><path d="M962.957,837.849a3.216,3.216,0,1,1,1.927-.646A3.219,3.219,0,0,1,962.957,837.849Zm-.458-3.281a.455.455,0,1,0,.814-.21.461.461,0,0,0-.3-.177.45.45,0,0,0-.338.087.463.463,0,0,0-.177.3Z" transform="translate(-177.843 18.926)" fill="#47280a"/><path d="M938.322,867.655c3.536,2.375,7.91,2.224,14,1.137,7.945-1.418,12.971-4.829,12.946-8.585-.051-7.688-10.768-14.647-16.957-13.318C939.6,848.761,933.423,864.364,938.322,867.655Z" transform="translate(-177.843 18.926)" fill="#fff"/><ellipse cx="5.639" cy="3.877" rx="5.639" ry="3.877" transform="translate(764.615 872.908) rotate(-12.558)" fill="#47280a"/><path d="M941.914,940.38c1.327.648,4.407.538,4.943-3.768.459-3.675-.737-8.325-1.1-9.608a.187.187,0,0,0-.324-.1c-1,1.069-5,5.413-5.772,7.122A4.889,4.889,0,0,0,941.914,940.38Z" transform="translate(-177.843 18.926)" fill="#2ba896" stroke="#47280a" stroke-miterlimit="10" stroke-width="3"/><path d="M939.073,940.786c.487,1.394.017,4.44-4.322,4.467-3.7.024-8.182-1.71-9.414-2.218a.186.186,0,0,1-.061-.333c1.178-.865,5.962-4.329,7.749-4.9A4.89,4.89,0,0,1,939.073,940.786Z" transform="translate(-177.843 18.926)" fill="#2ba896" stroke="#47280a" stroke-miterlimit="10" stroke-width="3"/><g transform="translate(-177.843 18.926)"><path d="M916.258,893.237s-4.628-.923-5.51-.756-2.263,4.567-1.865,5.507a34.6,34.6,0,0,0,2.341,3.634l7.795-4.1Z" fill="#ef5542" stroke="#47280a" stroke-miterlimit="10" stroke-width="3"/><path d="M903.4,900.987a.379.379,0,0,1-.159-.7,15.41,15.41,0,0,1,15.926-.053c9.392,5.3-11.121,6.314-11.121,6.314s-1.149-4.94-2.608-5.255A18.349,18.349,0,0,0,903.4,900.987Z" fill="#ef5542" stroke="#47280a" stroke-miterlimit="10" stroke-width="3"/><path d="M921.727,889.252a.379.379,0,0,0-.573-.435,15.409,15.409,0,0,0-6.632,14.48c.941,10.742,10.346-7.516,10.346-7.516s-4.023-3.088-3.707-4.548A18.4,18.4,0,0,1,921.727,889.252Z" fill="#ef5542" stroke="#47280a" stroke-miterlimit="10" stroke-width="3"/><path d="M903.1,905.959a22.423,22.423,0,0,1,16.073-1.322.121.121,0,0,1,.08.08l5.039,16.561c.02.067.025.427-.044.441-.9.185-5.8,2-10.252-3.642-3.885-4.919-4.766-10.314-7.393-11.382a7.376,7.376,0,0,0-3.432-.515A.117.117,0,0,1,903.1,905.959Z" fill="#ef5542" stroke="#47280a" stroke-miterlimit="10" stroke-width="3"/><path d="M927.484,890.7c.054-.039.126.028.086.081-.653.848-2.011,3.042-1.7,4.489.611,2.883,4.636,8.662,5.711,10.241,1.273,1.871,4.859,9.307-4.186,14.731-4.887,2.93-7.188,1.267-7.534.279C918.368,916.268,911.86,902.107,927.484,890.7Z" fill="#ef5542" stroke="#47280a" stroke-miterlimit="10" stroke-width="3"/><line x2="26.508" y2="41.148" transform="translate(927.391 920.237)" fill="#ef5542" stroke="#47280a" stroke-linecap="round" stroke-miterlimit="10" stroke-width="3"/></g></g></svg>