<svg xmlns="http://www.w3.org/2000/svg" width="322.58" height="322.58" viewBox="0 0 322.58 322.58"><g transform="translate(-1152.899 -672.658)"><circle cx="161.29" cy="161.29" r="161.29" transform="translate(1152.899 672.658)" fill="#f4f5f3"/><circle cx="149.551" cy="149.551" r="149.551" transform="translate(1163.959 684.397)" fill="#fddad3"/><path d="M1556.07,678.447c-81.5,0-147.8,66.3-147.8,147.8a147.944,147.944,0,0,0,2.886,29.118c14.075-10.371,15.907-16.68,18.388-25.266.566-1.958,1.151-3.983,1.916-6.2l.17-.495c3.014-8.765,12.182-35.441,29.426-41.78.737-.271,1.512-.561,2.311-.863a4.058,4.058,0,0,1,1.712-1.141c36.294-14.116,36.321-14.126,36.393-14.149.093-.034,12.723-4.472,16.925-5.917.106-.036,12.39-3.548,20.672-3.409h.053c2.7-.02,11.973-.029,17.571.833.317.048,10.362,2.072,13.7,3.1,1.216.374,9.709,3.389,10.674,3.732a3.278,3.278,0,0,1,1.125.7c.716.3,1.436.593,2.165.907,17.559,7.552,22.9,10.774,29.659,14.854l1.874,1.129a86.272,86.272,0,0,0,22.776,8.78c1.08.211,2.194.46,3.324.755.921-4.354,2.621-8.651,5.758-10.158a5.814,5.814,0,0,1,5.856.534c5.014,3.127,1.536,11.026-.5,14.754a27.214,27.214,0,0,1,8.834,11.846c4.142,10.19,13.359,22.1,17.3,27.179.59.762,1.076,1.39,1.43,1.862,9.841,13.108,9.253,16.966,9.059,18.234a7.507,7.507,0,0,1-3.819,5.666c-3.763,2.031-9.51,1.221-17.567-2.475-11.247-5.16-18.805-8.461-26.268-9.386.21,6.252,1.1,14.722,2.691,16.735a22.94,22.94,0,0,0,3.337,3.043c2.829,2.286,6.35,5.131,4.4,8.467-2.122,3.629-6.012,4.717-10.219,4.717a41.008,41.008,0,0,1-7.558-.851c-5.22-1-6.281-3.882-7.133-6.2a7.7,7.7,0,0,0-1.933-3.34c-8.407-7.843-16.593-23.661-17.834-26.109-.261-.023-.521-.041-.779-.052-.082.024-.161.054-.245.073l-4.39,1.018a4.018,4.018,0,0,0-1.091,3.052c-.034,2.177-.175,4.888-.324,7.758-.3,5.685-.842,16.2.26,18.107,2.363,1.584,4.391,2.5,9.126,4.381,2.217.881,3.562,3.537,3.2,6.317-.446,3.4-3.16,5.724-7.262,6.209-6.838.812-19.57,2.319-23.206-7.347-.984-2.617-1.933-5.327-2.77-7.718-1.4-4.011-3.152-9.005-3.907-9.84a17.474,17.474,0,0,1-1.716-2.68c-2.357-4.061-7.26-12.513-12.921-12.707-1.009-.035-1.975-.063-2.921-.089a96.855,96.855,0,0,0-3.935,13.081c.233.4,1.371,1.593,6.868,3.848a6.623,6.623,0,0,1,4.249,7.351,7.793,7.793,0,0,1-7.372,6.379c-1.716.108-3.474.186-5.205.186-5.169,0-10.095-.7-12.94-3.376a6.96,6.96,0,0,1-2.212-5.216c.013-3.973-1.778-5.2-4.046-6.742-1.854-1.266-4.162-2.84-4.541-6.064-.174-1.479-.491-3.451-.884-5.7-3.192,5.321-8,19.816-8.16,21.908.407,1.127,4.919,4.354,12.731,6.973,3.579,1.2,5.529,3.769,5.214,6.875a8.306,8.306,0,0,1-7.222,6.942c-.591.072-1.386.2-2.334.349a83.51,83.51,0,0,1-12.879,1.286c-6.837,0-13.562-1.575-15.613-7.692-1.482-4.42-4.668-8.565-7.479-12.223-3.489-4.539-6.5-8.46-6.214-12.44.456-6.289,1.668-22.993-6.653-28.084-4.446-2.719-8-2.713-12.686.021-1.831,1.069-4.271,4.352-7.1,8.154-7.227,9.725-19.1,25.683-41.664,33.274a148.033,148.033,0,0,0,137.272,93.028c81.5,0,147.8-66.3,147.8-147.8S1637.567,678.447,1556.07,678.447Z" transform="translate(-242.561 7.702)" fill="none"/><path d="M1541.909,852.273c-.159,0-.269,0-.349-.008v.007l-.989-.136c-.049-.012-.093-.037-.141-.051a47.666,47.666,0,0,0-7.572.967c.56,3.1,1.019,5.832,1.251,7.806.133,1.126.832,1.7,2.65,2.941,2.528,1.724,5.989,4.085,5.968,10.394a2.526,2.526,0,0,0,.829,2c2.919,2.751,11.9,2.186,14.85,2a3.37,3.37,0,0,0,3.3-2.7,2.235,2.235,0,0,0-1.576-2.564c-4.769-1.955-9.837-4.352-9.6-8.058.1-1.593,1.743-7.587,3.685-13.038l-.98-.013C1545.315,852.175,1542.809,852.273,1541.909,852.273Z" transform="translate(-242.561 7.702)" fill="#fce5c4"/><path d="M1552.726,865.007c-.143,2.279,4.876,4.5,8.243,5.883,5.1,2.091,3.228,9.143-2.426,9.5-5.025.316-18.043,1.077-18.018-6.2.029-8.922-7.984-7.812-8.6-13.071-.22-1.868-.648-4.437-1.178-7.383a2.962,2.962,0,0,0-1.068.731,10.469,10.469,0,0,0-.824,1.21c.393,2.248.71,4.22.884,5.7.379,3.224,2.687,4.8,4.541,6.064,2.268,1.547,4.059,2.769,4.046,6.742a6.96,6.96,0,0,0,2.212,5.216c2.845,2.68,7.771,3.376,12.94,3.376,1.731,0,3.489-.078,5.205-.186a7.793,7.793,0,0,0,7.372-6.379,6.623,6.623,0,0,0-4.249-7.351c-5.5-2.255-6.635-3.447-6.868-3.848a96.855,96.855,0,0,1,3.935-13.081q-1.2-.031-2.329-.055C1554.579,857.289,1552.815,863.6,1552.726,865.007Z" transform="translate(-242.561 7.702)" fill="#47280a"/><path d="M1550.53,864.868c-.233,3.706,4.835,6.1,9.6,8.058a2.235,2.235,0,0,1,1.576,2.564,3.37,3.37,0,0,1-3.3,2.7c-2.951.184-11.931.749-14.85-2a2.526,2.526,0,0,1-.829-2c.021-6.309-3.44-8.67-5.968-10.394-1.818-1.239-2.517-1.815-2.65-2.941-.232-1.974-.691-4.709-1.251-7.806a11.4,11.4,0,0,0-2.112.68c.53,2.946.958,5.515,1.178,7.383.618,5.259,8.631,4.149,8.6,13.071-.025,7.279,12.993,6.518,18.018,6.2,5.654-.355,7.525-7.407,2.426-9.5-3.367-1.381-8.386-3.6-8.243-5.883.089-1.41,1.853-7.718,3.816-13.137-.8-.017-1.573-.03-2.327-.04C1552.273,857.281,1550.63,863.275,1550.53,864.868Z" transform="translate(-242.561 7.702)" fill="#47280a"/><path d="M1651.273,785.032c-.978-.61-1.428-.394-1.62-.3-1.084.521-2.516,2.816-3.448,7.542a30.958,30.958,0,0,1,3.16,1.429C1651.337,789.972,1652.524,785.812,1651.273,785.032Z" transform="translate(-242.561 7.702)" fill="#fce5c4"/><path d="M1652.438,783.164c3.311,2.065.481,8.488-1.171,11.62q.931.586,1.837,1.267c2.035-3.728,5.513-11.627.5-14.754a5.814,5.814,0,0,0-5.856-.534c-3.137,1.507-4.837,5.8-5.758,10.158.7.183,1.411.391,2.122.617C1645.613,784.244,1648.616,780.78,1652.438,783.164Z" transform="translate(-242.561 7.702)" fill="#47280a"/><path d="M1649.653,784.73c.192-.092.642-.308,1.62.3,1.251.78.064,4.94-1.908,8.669.64.335,1.275.69,1.9,1.083,1.652-3.132,4.482-9.555,1.171-11.62-3.822-2.384-6.825,1.08-8.327,8.374.7.221,1.4.464,2.094.734C1647.137,787.546,1648.569,785.251,1649.653,784.73Z" transform="translate(-242.561 7.702)" fill="#47280a"/><path d="M1579.037,836.31c-5.007.689-9.435,4.95-13.163,12.661,5.825,2.6,10.062,9.883,12.3,13.743.485.834,1.034,1.781,1.227,2.009,1.235,1.364,2.465,4.778,4.712,11.2.871,2.486,1.771,5.057,2.739,7.63,2.336,6.211,11.027,5.726,18.99,4.783,2.229-.265,3.566-1.243,3.764-2.756a2.145,2.145,0,0,0-.707-2.078c-4.645-1.846-7.149-2.928-10.024-4.875-2.625-1.778-2.589-7.929-1.881-21.54.147-2.833.286-5.509.319-7.613a9.873,9.873,0,0,1,.5-3.044,4.075,4.075,0,0,1-1.044-.842C1594.611,843.134,1586.957,835.226,1579.037,836.31Z" transform="translate(-242.561 7.702)" fill="#fce5c4"/><path d="M1640.74,826.232l-.021-.027a.053.053,0,0,0-.016.018l.005,0A.2.2,0,0,1,1640.74,826.232Z" transform="translate(-242.561 7.702)" fill="#fce5c4"/><path d="M1640.784,826.245a.168.168,0,0,0,.113-.027c.007-.009-.021-.034-.066-.04a.175.175,0,0,0-.112.026l.022.028A.157.157,0,0,0,1640.784,826.245Z" transform="translate(-242.561 7.702)" fill="#fce5c4"/><path d="M1525.268,836.136c-.032-.187-.062-.342-.089-.473a3.06,3.06,0,0,1-1.333-1.474l1.99-.938h0l1.99-.938a1.694,1.694,0,0,0-1.36-.744c-.009,0-.015,0-.009,0l.009,0,.027,0c1.922,0,2.6,1.525,2.914,2.83l9.8,3.14c-.074-.679-.174-1.4-.309-2.177-1.1-6.361-12.3-17.9-25.508-20.807-7.012-1.545-16.962-1.077-24.556,9.906a16.5,16.5,0,0,0-2.844,8.076,15.692,15.692,0,0,1-.893,3.987,4.681,4.681,0,0,1-.7,1.186c8.145,7.333,7,23.174,6.49,30.233-.178,2.46,2.529,5.983,5.4,9.712,3,3.907,6.406,8.334,8.1,13.39,2.4,7.156,17.587,4.751,24.073,3.725,1.005-.159,1.848-.292,2.474-.368a4.289,4.289,0,0,0,3.725-3.374c.149-1.469-1.279-2.267-2.5-2.677-2.606-.874-15.6-5.5-15.464-10.8.081-3.178,6.267-21.188,9.89-25.617a5.448,5.448,0,0,1,1.383-1.164q-.328-1.764-.675-3.6C1526.6,843.513,1525.891,839.741,1525.268,836.136Z" transform="translate(-242.561 7.702)" fill="#fce5c4"/><path d="M1609.041,838.868a4.1,4.1,0,0,1,.907,2.8c1.341.2,2.581.469,3.614.7l22.071,2.362c.464,0,.928-.005,1.392-.014,10.166-.209,18.722,3.471,32.98,10.011a39.9,39.9,0,0,0,7.563,2.717c-.021-1.694,1.214-3.779,3.29-5.262a8.219,8.219,0,0,1,3.813-1.537,67.771,67.771,0,0,0-7.208-11.3c-.345-.461-.819-1.073-1.394-1.815-4.036-5.213-13.489-17.423-17.838-28.122-3.513-8.643-9.528-12.285-15.663-14.162l-1.253-.148c.008-.067.018-.137.026-.2-1.155-.312-2.31-.575-3.446-.8a89.61,89.61,0,0,1-24.064-9.275l-1.883-1.134c-6.58-3.971-11.794-7.116-28.8-14.441a5.1,5.1,0,0,1-.714,1.486C1579.293,775.089,1571.921,792.892,1609.041,838.868Zm29.4-15.807a3.855,3.855,0,0,1,5.506.794,4.032,4.032,0,0,1-.766,5.506h0a3.828,3.828,0,0,1-2.361.817,3.881,3.881,0,0,1-3.145-1.611A4.032,4.032,0,0,1,1638.438,823.061Zm-33.018-30.186a8.327,8.327,0,0,1,5.847-5.6,6.18,6.18,0,0,1,5.305.681c5.92,3.7,8.1,17.534,8.328,19.1l-4.355.639c-.756-5.139-3.135-14.027-6.306-16.006a1.793,1.793,0,0,0-1.635-.22,3.936,3.936,0,0,0-2.97,2.679c-1.1,3.66,1.963,10.488,8.2,18.264l-3.432,2.756C1609.2,808.675,1603.41,799.54,1605.42,792.875Z" transform="translate(-242.561 7.702)" fill="#fce5c4"/><path d="M1472.09,832.872c4.729-20.22,1.84-35.864-8.585-46.495a4.129,4.129,0,0,1-.77-1.112c-.1.036-.2.076-.3.11-15.459,5.682-24.162,31-27.022,39.325l-.171.5c-.733,2.126-1.3,4.1-1.856,6.012-2.681,9.278-4.816,16.633-21.313,28.431a146.632,146.632,0,0,0,5.28,17.641c21.458-7.136,32.487-21.96,39.894-31.926,3.339-4.494,5.752-7.741,8.289-9.223A18.3,18.3,0,0,1,1472,833.7,3.708,3.708,0,0,1,1472.09,832.872Z" transform="translate(-242.561 7.702)" fill="#fce5c4"/><path d="M1525.836,833.251h0Z" transform="translate(-242.561 7.702)" fill="#fce5c4"/><path d="M1538.353,846.034a16.724,16.724,0,0,0,.851-8.5l-9.8-3.14c.087.359.148.7.2.991.617,3.572,1.323,7.328,2.007,10.961q.271,1.446.534,2.849a44.385,44.385,0,0,1,5.79-.9A6.316,6.316,0,0,1,1538.353,846.034Z" transform="translate(-242.561 7.702)" fill="#fce5c4"/><path d="M1526.494,831.566l-.027,0a1.694,1.694,0,0,1,1.36.744l-1.99.938,3.571,1.146C1529.094,833.091,1528.416,831.566,1526.494,831.566Z" transform="translate(-242.561 7.702)" fill="#fce5c4"/><path d="M1526.467,831.568l-.009,0C1526.452,831.568,1526.458,831.568,1526.467,831.568Z" transform="translate(-242.561 7.702)" fill="#fce5c4"/><path d="M1525.836,833.251l-1.99.938a3.06,3.06,0,0,0,1.333,1.474c.027.131.057.286.089.473.623,3.605,1.333,7.377,2.019,11.026q.345,1.836.675,3.6a10.9,10.9,0,0,1,2.062-.953c-.836-4.471-1.789-9.431-2.587-14.051C1526.87,832.481,1526.466,834.586,1525.836,833.251Z" transform="translate(-242.561 7.702)" fill="#fce5c4"/><path d="M1531.613,846.348c-.684-3.633-1.39-7.389-2.007-10.961-.05-.289-.111-.632-.2-.991l-3.571-1.146h0c.63,1.335,1.034-.77,1.6,2.51.8,4.62,1.751,9.58,2.587,14.051a20.633,20.633,0,0,1,2.123-.615Q1531.885,847.792,1531.613,846.348Z" transform="translate(-242.561 7.702)" fill="#fce5c4"/><path d="M1642.568,795.242q-.613-.187-1.227-.352c-.008.067-.018.137-.026.2Z" transform="translate(-242.561 7.702)" fill="#fce5c4"/><path d="M1583.2,766.1a4.642,4.642,0,0,1,.192,1.074l.169.07c19.045,8.191,23.687,11.3,31.294,15.86a88.353,88.353,0,0,0,23.42,9.028c1.078.211,2.2.464,3.342.766.106-.653.227-1.314.367-1.974-1.13-.3-2.244-.544-3.324-.755a86.272,86.272,0,0,1-22.776-8.78l-1.874-1.129c-6.76-4.08-12.1-7.3-29.659-14.854-.729-.314-1.449-.612-2.165-.907A3.623,3.623,0,0,1,1583.2,766.1Z" transform="translate(-242.561 7.702)" fill="#47280a"/><path d="M1607.04,845.391c.258.011.518.029.779.052-.075-.149-.126-.25-.148-.3A4.04,4.04,0,0,1,1607.04,845.391Z" transform="translate(-242.561 7.702)" fill="#47280a"/><path d="M1599.746,846.966a7.65,7.65,0,0,0-.432,2.537c-.135,8.505-1.942,25.686.683,27.464s4.852,2.77,9.641,4.672c2.785,1.107,3.506,7.844-3.561,8.681s-18.07,1.987-21.1-6.065-5.552-16.522-7.066-18.2c-1.348-1.489-6.283-12.8-13.34-15.475a4.047,4.047,0,0,1-2.138.813l-3.427.157c-.046.122-.092.247-.137.37.946.026,1.912.054,2.921.089,5.661.194,10.564,8.646,12.921,12.707a17.474,17.474,0,0,0,1.716,2.68c.755.835,2.5,5.829,3.907,9.84.837,2.391,1.786,5.1,2.77,7.718,3.636,9.666,16.368,8.159,23.206,7.347,4.1-.485,6.816-2.806,7.262-6.209.364-2.78-.981-5.436-3.2-6.317-4.735-1.881-6.763-2.8-9.126-4.381-1.1-1.9-.556-12.422-.26-18.107.149-2.87.29-5.581.324-7.758a4.018,4.018,0,0,1,1.091-3.052l-1.666.386A4.033,4.033,0,0,1,1599.746,846.966Z" transform="translate(-242.561 7.702)" fill="#47280a"/><path d="M1650.274,796.538h-.007a24.9,24.9,0,0,1,9.818,12.114c4.845,11.921,16.152,25.724,18.978,29.488,2.1,2.8,6.2,8.478,7.925,12.845a2.519,2.519,0,0,1,.986.83c.776,1.166.479,2.88-.6,4.477a5.481,5.481,0,0,1-4.593,3.49,4.912,4.912,0,0,1-3.848-.04,36.766,36.766,0,0,1-9.763-3.2c-11.682-5.359-19.364-8.71-27.15-9.6l.006.409c.008.516.023,1.062.042,1.62,7.463.925,15.021,4.226,26.268,9.386,8.057,3.7,13.8,4.506,17.567,2.475a7.507,7.507,0,0,0,3.819-5.666c.194-1.268.782-5.126-9.059-18.234-.354-.472-.84-1.1-1.43-1.862-3.936-5.084-13.153-16.989-17.3-27.179a27.214,27.214,0,0,0-8.834-11.846c-.4.733-.745,1.308-.958,1.651Z" transform="translate(-242.561 7.702)" fill="#47280a"/><path d="M1460.462,847.742c2.825-3.8,5.265-7.085,7.1-8.154,4.684-2.734,8.24-2.74,12.686-.021,8.321,5.091,7.109,21.795,6.653,28.084-.289,3.98,2.725,7.9,6.214,12.44,2.811,3.658,6,7.8,7.479,12.223,2.051,6.117,8.776,7.692,15.613,7.692a83.51,83.51,0,0,0,12.879-1.286c.948-.15,1.743-.277,2.334-.349a8.306,8.306,0,0,0,7.222-6.942c.315-3.106-1.635-5.676-5.214-6.875-7.812-2.619-12.324-5.846-12.731-6.973.164-2.092,4.968-16.587,8.16-21.908q-.228-1.3-.487-2.718a2.83,2.83,0,0,0-.238.241c-3.365,4.114-9.371,21.752-9.439,24.4s7.235,6.553,14.1,8.854,3.533,9.306-1.616,9.934-25.355,5.227-28.686-4.707-14.041-17.727-13.594-23.882c.526-7.265,1.448-22.6-6.253-28.959a8.2,8.2,0,0,1-4.319-.536c-.481-.155-1.005-.323-1.571-.479-.9-.247-3.014-.836-4.1-2.213a15.9,15.9,0,0,0-6.105,2.252c-7.369,4.3-17.195,30.844-48.477,41.295.239.622.479,1.243.726,1.86C1441.362,873.425,1453.235,857.467,1460.462,847.742Z" transform="translate(-242.561 7.702)" fill="#47280a"/><path d="M1433.354,824.545c2.672-7.754,11.7-34.913,28.4-41.048l.594-.221a4.171,4.171,0,0,1,.106-.763,4.1,4.1,0,0,1,.92-1.757c-.8.3-1.574.592-2.311.863-17.244,6.339-26.412,33.015-29.426,41.78l-.17.495c-.765,2.221-1.35,4.246-1.916,6.2-2.481,8.586-4.313,14.895-18.388,25.266.144.717.3,1.432.452,2.146C1430.194,844.026,1429.127,836.813,1433.354,824.545Z" transform="translate(-242.561 7.702)" fill="#47280a"/><path d="M1554.215,851.83l.021-.058-1,.045Z" transform="translate(-242.561 7.702)" fill="#47280a"/><path d="M1538.41,850.421c-.028-.054-.045-.111-.071-.166a43.635,43.635,0,0,0-5.83.887q.18.975.348,1.91a47.666,47.666,0,0,1,7.572-.967A3.273,3.273,0,0,1,1538.41,850.421Z" transform="translate(-242.561 7.702)" fill="#47280a"/><path d="M1530.745,853.732c-.115-.634-.233-1.281-.355-1.949a6.067,6.067,0,0,0-2.024,1.172q.259,1.414.487,2.718a10.469,10.469,0,0,1,.824-1.21A2.962,2.962,0,0,1,1530.745,853.732Z" transform="translate(-242.561 7.702)" fill="#47280a"/><path d="M1556.617,851.664l-.075.206q1.134.023,2.329.055c.045-.123.091-.248.137-.37Z" transform="translate(-242.561 7.702)" fill="#47280a"/><path d="M1554.215,851.83c.754.01,1.528.023,2.327.04l.075-.206-2.381.108Z" transform="translate(-242.561 7.702)" fill="#47280a"/><path d="M1532.509,851.142a16.683,16.683,0,0,0-2.119.641c.122.668.24,1.315.355,1.949a11.4,11.4,0,0,1,2.112-.68Q1532.689,852.118,1532.509,851.142Z" transform="translate(-242.561 7.702)" fill="#47280a"/><path d="M1650.267,796.537h.007l-.061-.038Z" transform="translate(-242.561 7.702)" fill="#47280a"/><path d="M1648.407,795.377c.335-.539.655-1.1.958-1.676a30.958,30.958,0,0,0-3.16-1.429c-.124.63-.241,1.3-.345,2.017a27.366,27.366,0,0,1,4.239,2.14Z" transform="translate(-242.561 7.702)" fill="#47280a"/><path d="M1650.277,796.538h0l1.872,1.164c.213-.343.558-.918.958-1.651q-.9-.681-1.837-1.267C1650.7,795.852,1650.277,796.538,1650.277,796.538Z" transform="translate(-242.561 7.702)" fill="#47280a"/><path d="M1643.749,793.523c.108-.693.231-1.349.362-1.985-.711-.226-1.42-.434-2.122-.617-.14.66-.261,1.321-.367,1.974Q1642.676,793.174,1643.749,793.523Z" transform="translate(-242.561 7.702)" fill="#47280a"/><path d="M1648.407,795.377l1.692,1.052.114.071.061.038h0s.427-.686.99-1.754c-.627-.393-1.262-.748-1.9-1.083C1649.062,794.275,1648.742,794.838,1648.407,795.377Z" transform="translate(-242.561 7.702)" fill="#47280a"/><path d="M1646.2,792.272c-.7-.27-1.4-.513-2.094-.734-.131.636-.254,1.292-.362,1.985.7.229,1.406.481,2.111.766C1645.964,793.571,1646.081,792.9,1646.2,792.272Z" transform="translate(-242.561 7.702)" fill="#47280a"/><path d="M1609.917,841.976l3.645.39c-1.033-.234-2.273-.5-3.614-.7C1609.942,841.767,1609.931,841.872,1609.917,841.976Z" transform="translate(-242.561 7.702)" fill="#47280a"/><path d="M1597.813,846.427a9.873,9.873,0,0,0-.5,3.044c-.033,2.1-.172,4.78-.319,7.613-.708,13.611-.744,19.762,1.881,21.54,2.875,1.947,5.379,3.029,10.024,4.875a2.145,2.145,0,0,1,.707,2.078c-.2,1.513-1.535,2.491-3.764,2.756-7.963.943-16.654,1.428-18.99-4.783-.968-2.573-1.868-5.144-2.739-7.63-2.247-6.419-3.477-9.833-4.712-11.2-.193-.228-.742-1.175-1.227-2.009-2.238-3.86-6.475-11.143-12.3-13.743-.017.035-.034.067-.051.1a4.144,4.144,0,0,1-1.25,1.512c7.057,2.678,11.992,13.986,13.34,15.475,1.514,1.673,4.037,10.143,7.066,18.2s14.032,6.9,21.1,6.065,6.346-7.574,3.561-8.681c-4.789-1.9-7.017-2.894-9.641-4.672s-.818-18.959-.683-27.464a7.65,7.65,0,0,1,.432-2.537A4.04,4.04,0,0,1,1597.813,846.427Z" transform="translate(-242.561 7.702)" fill="#47280a"/><path d="M1678,858.942a2.725,2.725,0,0,1-.436-1.5,39.9,39.9,0,0,1-7.563-2.717c-14.258-6.54-22.814-10.22-32.98-10.011-.464.009-.928.012-1.392.014l6.364.681.023,1.539c7.786.886,15.468,4.237,27.15,9.6a36.766,36.766,0,0,0,9.763,3.2A2.512,2.512,0,0,1,1678,858.942Z" transform="translate(-242.561 7.702)" fill="#47280a"/><path d="M1526.579,851.929c-3.623,4.429-9.809,22.439-9.89,25.617-.135,5.3,12.858,9.928,15.464,10.8,1.224.41,2.652,1.208,2.5,2.677a4.289,4.289,0,0,1-3.725,3.374c-.626.076-1.469.209-2.474.368-6.486,1.026-21.674,3.431-24.073-3.725-1.7-5.056-5.1-9.483-8.1-13.39-2.866-3.729-5.573-7.252-5.4-9.712.512-7.059,1.655-22.9-6.49-30.233a3.261,3.261,0,0,1-1.758,1.13c7.7,6.358,6.779,21.694,6.253,28.959-.447,6.155,10.263,13.948,13.594,23.882s23.538,5.334,28.686,4.707,8.48-7.634,1.616-9.934-14.167-6.205-14.1-8.854,6.074-20.287,9.439-24.4a2.83,2.83,0,0,1,.238-.241c-.13-.713-.265-1.445-.4-2.19A5.448,5.448,0,0,0,1526.579,851.929Z" transform="translate(-242.561 7.702)" fill="#47280a"/><path d="M1433.39,831.209c.552-1.911,1.123-3.886,1.856-6.012l.171-.5c2.86-8.321,11.563-33.643,27.022-39.325.1-.034.2-.074.3-.11a4.066,4.066,0,0,1-.392-1.989l-.594.221c-16.691,6.135-25.723,33.294-28.4,41.048-4.227,12.268-3.16,19.481-21.744,32.965.154.71.3,1.423.467,2.13C1428.574,847.842,1430.709,840.487,1433.39,831.209Z" transform="translate(-242.561 7.702)" fill="#47280a"/><path d="M1583.151,769.242c17,7.325,22.217,10.47,28.8,14.441l1.883,1.134a89.61,89.61,0,0,0,24.064,9.275c1.136.223,2.291.486,3.446.8.078-.65.171-1.317.281-1.995-1.142-.3-2.264-.555-3.342-.766a88.353,88.353,0,0,1-23.42-9.028c-7.607-4.562-12.249-7.669-31.294-15.86l-.169-.07A5.807,5.807,0,0,1,1583.151,769.242Z" transform="translate(-242.561 7.702)" fill="#47280a"/><path d="M1465.54,836.132c-2.537,1.482-4.95,4.729-8.289,9.223-7.407,9.966-18.436,24.79-39.894,31.926.232.628.475,1.251.715,1.875,31.282-10.451,41.108-36.993,48.477-41.295a15.9,15.9,0,0,1,6.105-2.252A2.974,2.974,0,0,1,1472,833.7,18.3,18.3,0,0,0,1465.54,836.132Z" transform="translate(-242.561 7.702)" fill="#47280a"/><path d="M1643.5,795.351l-.932-.109c6.135,1.877,12.15,5.519,15.663,14.162,4.349,10.7,13.8,22.909,17.838,28.122.575.742,1.049,1.354,1.394,1.815a67.771,67.771,0,0,1,7.208,11.3,4.1,4.1,0,0,1,2.317.341c-1.723-4.367-5.825-10.048-7.925-12.845-2.826-3.764-14.133-17.567-18.978-29.488a24.9,24.9,0,0,0-9.818-12.114l-6.767-1.185Z" transform="translate(-242.561 7.702)" fill="#47280a"/><path d="M1685.12,858.577a9.042,9.042,0,0,1-2.339,1.2,5.481,5.481,0,0,0,4.593-3.49A9.164,9.164,0,0,1,1685.12,858.577Z" transform="translate(-242.561 7.702)" fill="#47280a"/><path d="M1537.937,848.3a44.385,44.385,0,0,0-5.79.9q.185.988.362,1.945a43.635,43.635,0,0,1,5.83-.887A4.686,4.686,0,0,1,1537.937,848.3Z" transform="translate(-242.561 7.702)" fill="#47280a"/><path d="M1530.39,851.783q-.179-.966-.366-1.971a10.9,10.9,0,0,0-2.062.953c.139.745.274,1.477.4,2.19A6.067,6.067,0,0,1,1530.39,851.783Z" transform="translate(-242.561 7.702)" fill="#47280a"/><path d="M1532.147,849.2a20.633,20.633,0,0,0-2.123.615q.188,1,.366,1.971a16.683,16.683,0,0,1,2.119-.641Q1532.332,850.185,1532.147,849.2Z" transform="translate(-242.561 7.702)" fill="#47280a"/><path d="M1650.1,796.429a27.366,27.366,0,0,0-4.239-2.14c-.062.425-.12.863-.174,1.32l-2.186-.258h0l6.767,1.185-.054-.037Z" transform="translate(-242.561 7.702)" fill="#47280a"/><path d="M1642.568,795.242l.932.109q.111-.944.249-1.828-1.071-.351-2.127-.628c-.11.678-.2,1.345-.281,1.995Q1641.955,795.055,1642.568,795.242Z" transform="translate(-242.561 7.702)" fill="#47280a"/><path d="M1650.1,796.429l.114.071Z" transform="translate(-242.561 7.702)" fill="#47280a"/><path d="M1645.686,795.609c.054-.457.112-.9.174-1.32-.7-.285-1.409-.537-2.111-.766q-.137.885-.249,1.828Z" transform="translate(-242.561 7.702)" fill="#47280a"/><path d="M1640.271,830.14a3.877,3.877,0,0,0,.546.039,3.828,3.828,0,0,0,2.361-.817h0a4.032,4.032,0,0,0,.766-5.506,3.855,3.855,0,0,0-5.506-.794,4.032,4.032,0,0,0-.766,5.507A3.854,3.854,0,0,0,1640.271,830.14Zm.56-3.962c.045.006.073.031.066.04a.168.168,0,0,1-.113.027.157.157,0,0,1-.043-.013l-.022-.028A.175.175,0,0,1,1640.831,826.178Zm-.112.027.021.027a.2.2,0,0,0-.032-.012l-.005,0A.053.053,0,0,1,1640.719,826.205Z" transform="translate(-242.561 7.702)" fill="#47280a"/><path d="M1617.837,812.41c-6.24-7.776-9.307-14.6-8.2-18.264a3.936,3.936,0,0,1,2.97-2.679,1.793,1.793,0,0,1,1.635.22c3.171,1.979,5.55,10.867,6.306,16.006l4.355-.639c-.229-1.566-2.408-15.4-8.328-19.1a6.18,6.18,0,0,0-5.305-.681,8.327,8.327,0,0,0-5.847,5.6c-2.01,6.665,3.776,15.8,8.985,22.291Z" transform="translate(-242.561 7.702)" fill="#47280a"/><path d="M1677.568,857.442c3.61.831,5.508.374,6.436-.126a3.51,3.51,0,0,0,1.762-2.747,2.746,2.746,0,1,0-4.908-2.389C1678.782,853.663,1677.547,855.748,1677.568,857.442Z" transform="translate(-242.561 7.702)" fill="#47280a"/><path d="M1678.933,859.741a4.912,4.912,0,0,0,3.848.04A12.754,12.754,0,0,1,1678.933,859.741Z" transform="translate(-242.561 7.702)" fill="#47280a"/><path d="M1687.745,854.871a6.946,6.946,0,0,1-.371,1.42c1.079-1.6,1.376-3.311.6-4.477a2.519,2.519,0,0,0-.986-.83A8.13,8.13,0,0,1,1687.745,854.871Z" transform="translate(-242.561 7.702)" fill="#47280a"/><path d="M1684.671,850.643a8.2,8.2,0,0,1,1.095,3.926,3.51,3.51,0,0,1-1.762,2.747c-.928.5-2.826.957-6.436.126a2.725,2.725,0,0,0,.436,1.5,2.512,2.512,0,0,0,.929.8,12.754,12.754,0,0,0,3.848.04,9.042,9.042,0,0,0,2.339-1.2,9.164,9.164,0,0,0,2.254-2.286,6.946,6.946,0,0,0,.371-1.42,8.13,8.13,0,0,0-.757-3.887A4.1,4.1,0,0,0,1684.671,850.643Z" transform="translate(-242.561 7.702)" fill="#47280a"/><path d="M1628.656,868.334a11.84,11.84,0,0,1,3.061,5.037c.723,1.964,1.053,2.861,3.83,3.393,7.337,1.406,11.374.927,13.019-1.556a17.813,17.813,0,0,0-3.236-3.03,25.626,25.626,0,0,1-4.029-3.743c-2.772-3.518-3.457-14.217-3.626-19.061l-6.912-.74a111.43,111.43,0,0,1-13.517-1.446l-3.73-.4C1616.528,852.294,1622.661,862.74,1628.656,868.334Z" transform="translate(-242.561 7.702)" fill="#fce5c4"/><path d="M1617.246,847.188a111.43,111.43,0,0,0,13.517,1.446Z" transform="translate(-242.561 7.702)" fill="#fce5c4"/><path d="M1643.03,867.074c2.543,3.229,9.108,6.4,7.566,9.037-2.329,3.982-7.78,4.287-15.463,2.815-6.539-1.253-4.239-5.494-7.978-8.983-7.119-6.642-14.255-19.554-16.663-24.127-.85-.157-1.763-.295-2.673-.373,1.241,2.448,9.427,18.266,17.834,26.109a7.7,7.7,0,0,1,1.933,3.34c.852,2.314,1.913,5.195,7.133,6.2a41.008,41.008,0,0,0,7.558.851c4.207,0,8.1-1.088,10.219-4.717,1.95-3.336-1.571-6.181-4.4-8.467a22.94,22.94,0,0,1-3.337-3.043c-1.586-2.013-2.481-10.483-2.691-16.735-.734-.091-1.469-.153-2.2-.2C1640,852.734,1640.6,863.985,1643.03,867.074Z" transform="translate(-242.561 7.702)" fill="#47280a"/><path d="M1613.976,842.46l.316.072a103.586,103.586,0,0,0,21.341,2.2l-22.071-2.362Z" transform="translate(-242.561 7.702)" fill="#47280a"/><path d="M1642.02,846.948a36.614,36.614,0,0,0-4.952-.234c-1.179.026-2.351.025-3.509.005l6.267.671s.008.522.038,1.39c.735.044,1.47.106,2.2.2-.019-.558-.034-1.1-.042-1.62Z" transform="translate(-242.561 7.702)" fill="#47280a"/><path d="M1609.638,844.16l5.41.579c-.428-.088-.836-.174-1.2-.256-1.174-.266-2.78-.645-4.5-.885a4.03,4.03,0,0,1-1.683,1.549c.022.046.073.147.148.3.91.078,1.823.216,2.673.373C1609.942,844.771,1609.638,844.16,1609.638,844.16Z" transform="translate(-242.561 7.702)" fill="#47280a"/><path d="M1635.633,844.728a103.586,103.586,0,0,1-21.341-2.2l-.316-.072-.414-.094-3.645-.39a4.217,4.217,0,0,1-.187.834,4.131,4.131,0,0,1-.376.788c1.716.24,3.322.619,4.5.885.362.082.77.168,1.2.256l18.511,1.98c1.158.02,2.33.021,3.509-.005a36.614,36.614,0,0,1,4.952.234l-.023-1.539Z" transform="translate(-242.561 7.702)" fill="#47280a"/><path d="M1630.763,848.634l6.912.74c.169,4.844.854,15.543,3.626,19.061a25.626,25.626,0,0,0,4.029,3.743,17.813,17.813,0,0,1,3.236,3.03c-1.645,2.483-5.682,2.962-13.019,1.556-2.777-.532-3.107-1.429-3.83-3.393a11.84,11.84,0,0,0-3.061-5.037c-5.995-5.594-12.128-16.04-15.14-21.546l3.73.4c-1.436-.247-2.735-.5-3.838-.753l-.321-.073c-.7-.16-1.6-.364-2.6-.546,2.408,4.573,9.544,17.485,16.663,24.127,3.739,3.489,1.439,7.73,7.978,8.983,7.683,1.472,13.134,1.167,15.463-2.815,1.542-2.639-5.023-5.808-7.566-9.037-2.433-3.089-3.03-14.34-3.166-18.294-.912-.055-1.827-.084-2.753-.066C1634.984,848.763,1632.851,848.728,1630.763,848.634Z" transform="translate(-242.561 7.702)" fill="#47280a"/><path d="M1609.638,844.16s.3.611.854,1.656c.99.182,1.893.386,2.6.546l.321.073c1.1.25,2.4.506,3.838.753l13.517,1.446c2.088.094,4.221.129,6.348.08.926-.018,1.841.011,2.753.066-.03-.868-.038-1.39-.038-1.39l-6.267-.671a106.665,106.665,0,0,1-18.511-1.98Z" transform="translate(-242.561 7.702)" fill="#47280a"/><path d="M1633.559,846.719l-18.511-1.98A106.665,106.665,0,0,0,1633.559,846.719Z" transform="translate(-242.561 7.702)" fill="#47280a"/><path d="M1476.545,833.142a13.909,13.909,0,0,0,1.373.436c.63.174,1.213.36,1.749.532.467.15,1.057.34,1.463.432a14.932,14.932,0,0,0,.494-2.6,20.8,20.8,0,0,1,3.587-9.992c5.648-8.168,13.461-12.452,22.442-12.452a31.051,31.051,0,0,1,6.68.751c14.448,3.179,27.4,15.7,28.9,24.354a36.089,36.089,0,0,1,.5,4.382l14.131,4.53c.153-.239.3-.462.448-.649l3.477,2.7a9.463,9.463,0,0,0-.888,1.492l1.024-.047c4.407-9.1,9.961-14.165,16.509-15.066,9.938-1.374,18.822,7.565,21.509,10.584l2.431-.563a10.761,10.761,0,0,1,1.976-.458l.982-.228c-37.7-46.833-31.078-66.736-26.469-73.13a1.148,1.148,0,0,0,.133-.418c-2.936-1.041-9.014-3.189-9.9-3.461-3.047-.935-12.522-2.848-13.131-2.962-5.215-.8-14.188-.791-16.809-.772h-.175c-7.243-.119-18.544,3-19.2,3.188-4.234,1.455-16.755,5.856-16.882,5.9-.26.1-14.332,5.573-24.869,9.671-3.942,1.578-7.688,3.066-11.035,4.355C1478.133,795.286,1481.346,811.928,1476.545,833.142Z" transform="translate(-242.561 7.702)" fill="#ea875c"/><path d="M1542.445,847.657a1.478,1.478,0,0,0-.066.217c1.806-.063,7.781-.326,13.6-.589a27.534,27.534,0,0,1,1.89-3.766l-14.131-4.53A19.612,19.612,0,0,1,1542.445,847.657Z" transform="translate(-242.561 7.702)" fill="#ea875c"/><path d="M1558.42,847.175l2.484-.113a9.463,9.463,0,0,1,.888-1.492l-3.477-2.7c-.145.187-.295.41-.448.649l2.187.7A15.92,15.92,0,0,0,1558.42,847.175Z" transform="translate(-242.561 7.702)" fill="#ea875c"/><path d="M1558.42,847.175a15.92,15.92,0,0,1,1.634-2.955l-2.187-.7a27.534,27.534,0,0,0-1.89,3.766Z" transform="translate(-242.561 7.702)" fill="#ea875c"/><path d="M1604.353,841.512a10.761,10.761,0,0,0-1.976.458Z" transform="translate(-242.561 7.702)" fill="#ea875c"/><path d="M1466.953,783.609c.015.015.027.032.042.047,3.347-1.289,7.093-2.777,11.035-4.355Z" transform="translate(-242.561 7.702)" fill="#ea875c"/><path d="M1523.006,758.587c14.612-2.937,32.4-5.1,59.185,5.909a3.278,3.278,0,0,0-1.125-.7c-.965-.343-9.458-3.358-10.674-3.732-3.335-1.023-13.38-3.047-13.7-3.1-5.6-.862-14.866-.853-17.571-.833h-.053c-8.282-.139-20.566,3.373-20.672,3.409-4.2,1.445-16.832,5.883-16.925,5.917-.072.023-.1.033-36.393,14.149a4.058,4.058,0,0,0-1.712,1.141c5.083-1.921,11.344-4.433,17.925-7.075C1496.994,767.381,1514.788,760.239,1523.006,758.587Z" transform="translate(-242.561 7.702)" fill="#47280a"/><path d="M1602.551,846.329c-.056.044-.094.105-.146.153l4.39-1.018c.084-.019.163-.049.245-.073A6.979,6.979,0,0,0,1602.551,846.329Z" transform="translate(-242.561 7.702)" fill="#47280a"/><path d="M1541.559,852.272v-.007c.08.005.19.008.349.008.9,0,3.406-.1,11.326-.456-5.39-.054-9.566.057-12.806.268.048.014.092.039.141.051Z" transform="translate(-242.561 7.702)" fill="#47280a"/><path d="M1465.076,784.835a1.9,1.9,0,0,1-.261-.347q-1.077.406-2.08.777a4.129,4.129,0,0,0,.77,1.112c10.425,10.631,13.314,26.275,8.585,46.495a3.708,3.708,0,0,0-.092.826,13.334,13.334,0,0,1,2.015-.157c.071,0,.143.008.215.009a1.17,1.17,0,0,1,.005-.177C1476.4,824.1,1480.831,800.9,1465.076,784.835Z" transform="translate(-242.561 7.702)" fill="#47280a"/><path d="M1607.329,840.25a1.889,1.889,0,0,1,.413,1.176c.749.049,1.491.13,2.206.237a4.1,4.1,0,0,0-.907-2.8c-37.12-45.976-29.748-63.779-26.6-68.14a5.1,5.1,0,0,0,.714-1.486l-.376-.162c-.562-.242-1.114-.469-1.669-.7a3.043,3.043,0,0,1-.455,1.06C1576.6,775.057,1569.93,793.93,1607.329,840.25Z" transform="translate(-242.561 7.702)" fill="#47280a"/><path d="M1563.839,848.119c-.026.054-.065.1-.095.147a11.2,11.2,0,0,1,2.13.705c3.728-7.711,8.156-11.972,13.163-12.661,7.92-1.084,15.574,6.824,17.732,9.275a4.075,4.075,0,0,0,1.044.842,7.1,7.1,0,0,1,1.013-1.952,1.883,1.883,0,0,1-.405-.344C1594.628,839.821,1576.6,821.577,1563.839,848.119Z" transform="translate(-242.561 7.702)" fill="#47280a"/><path d="M1485.987,832.534a16.5,16.5,0,0,1,2.844-8.076c7.594-10.983,17.544-11.451,24.556-9.906,13.208,2.906,24.405,14.446,25.508,20.807.135.776.235,1.5.309,2.177l2.281.731c-.079-1-.214-2.088-.422-3.284-2.294-13.23-35.987-37.889-54.042-11.777-3.776,5.461-2.737,9.51-3.961,12.474a2.114,2.114,0,0,1-.426.675,14.072,14.072,0,0,1,1.764,1.352,4.681,4.681,0,0,0,.7-1.186A15.692,15.692,0,0,0,1485.987,832.534Z" transform="translate(-242.561 7.702)" fill="#47280a"/><path d="M1538.353,846.034a6.316,6.316,0,0,0-.416,2.262q1.051-.1,2.2-.184a4.038,4.038,0,0,1,.257-1.267,18.19,18.19,0,0,0,1.086-8.578l-2.281-.731A16.724,16.724,0,0,1,1538.353,846.034Z" transform="translate(-242.561 7.702)" fill="#47280a"/><path d="M1472.654,835.609c1.082,1.377,3.2,1.966,4.1,2.213.566.156,1.09.324,1.571.479a8.2,8.2,0,0,0,4.319.536,11.683,11.683,0,0,0-1.352-.976A13.144,13.144,0,0,0,1472.654,835.609Z" transform="translate(-242.561 7.702)" fill="#47280a"/><path d="M1559.632,849.942c-.206.516-.415,1.055-.624,1.613l3.427-.157a4.047,4.047,0,0,0,2.138-.813,8.444,8.444,0,0,0-2.713-.571C1561.181,849.991,1560.43,849.966,1559.632,849.942Z" transform="translate(-242.561 7.702)" fill="#47280a"/><path d="M1462.343,783.276c.839-.311,1.708-.637,2.619-.984a1.84,1.84,0,0,1,.87-.609s36.291-14.114,36.338-14.13l.944-.331c5.99-2.278,11.464-4.235,15.739-5.5l.262-.09c.02-.007.461-.133,1.216-.332.829-.229,1.6-.424,2.312-.584,4.166-1.006,11.184-2.47,16.387-2.374h.022a81.892,81.892,0,0,1,16.642.71c.228.031.451.062.667.095l.2.039a96.982,96.982,0,0,1,12.084,2.674c.42.111.794.216,1.106.313.12.036.34.109.6.2q4.44,1.353,9.274,3.252l.7.25a.946.946,0,0,1,.137.083c.966.388,1.941.79,2.931,1.215a4.642,4.642,0,0,0-.192-1.074,3.623,3.623,0,0,0-1.014-1.6c-26.782-11.012-44.573-8.846-59.185-5.909-8.218,1.652-26.012,8.794-41.712,15.094-6.581,2.642-12.842,5.154-17.925,7.075a4.1,4.1,0,0,0-.92,1.757A4.171,4.171,0,0,0,1462.343,783.276Z" transform="translate(-242.561 7.702)" fill="#47280a"/><path d="M1607.667,845.141l-.878-1.765c-.247-.006-.493,0-.738,0l-4.077.945a4.848,4.848,0,0,0-2.228,2.644,4.033,4.033,0,0,0,.993-.1l1.666-.386c.052-.048.09-.109.146-.153a6.979,6.979,0,0,1,4.489-.938,4.04,4.04,0,0,0,.631-.244Z" transform="translate(-242.561 7.702)" fill="#47280a"/><path d="M1549.243,849.789c-3.977.174-7.341.316-7.415.3l-.5-.062c-1.024.062-2.022.138-2.987.23.026.055.043.112.071.166a3.273,3.273,0,0,0,2.019,1.664c3.24-.211,7.416-.322,12.806-.268l1-.045c.235-.66.475-1.31.717-1.945C1553.138,849.795,1551.209,849.777,1549.243,849.789Z" transform="translate(-242.561 7.702)" fill="#47280a"/><path d="M1557.291,849.877q-.339.867-.674,1.787l2.391-.109c.209-.558.418-1.1.624-1.613C1558.894,849.919,1558.111,849.9,1557.291,849.877Z" transform="translate(-242.561 7.702)" fill="#47280a"/><path d="M1554.953,849.827c-.242.635-.482,1.285-.717,1.945l2.381-.108q.335-.918.674-1.787C1556.539,849.858,1555.758,849.841,1554.953,849.827Z" transform="translate(-242.561 7.702)" fill="#47280a"/><path d="M1503.114,767.222c2.945-1.035,12.014-4.218,15.739-5.5C1514.578,762.987,1509.1,764.944,1503.114,767.222Z" transform="translate(-242.561 7.702)" fill="#47280a"/><path d="M1570.351,762.371c1.955.66,7.35,2.57,9.274,3.252Q1574.788,763.715,1570.351,762.371Z" transform="translate(-242.561 7.702)" fill="#47280a"/><path d="M1520.331,761.3c.593-.157,1.383-.359,2.312-.584C1521.933,760.875,1521.16,761.07,1520.331,761.3Z" transform="translate(-242.561 7.702)" fill="#47280a"/><path d="M1556.556,759.185c1.26.249,8.428,1.7,12.084,2.674A96.982,96.982,0,0,0,1556.556,759.185Z" transform="translate(-242.561 7.702)" fill="#47280a"/><path d="M1598.826,844.475a7.1,7.1,0,0,0-1.013,1.952,4.04,4.04,0,0,0,1.933.539,4.848,4.848,0,0,1,2.228-2.644l-1.732.4A1.85,1.85,0,0,1,1598.826,844.475Z" transform="translate(-242.561 7.702)" fill="#47280a"/><path d="M1581.106,768.381c.555.23,1.107.457,1.669.7l.376.162a5.807,5.807,0,0,0,.246-2.071c-.99-.425-1.965-.827-2.931-1.215C1581.19,766.336,1581.337,767.42,1581.106,768.381Z" transform="translate(-242.561 7.702)" fill="#47280a"/><path d="M1565.823,849.073c.017-.035.034-.067.051-.1a11.2,11.2,0,0,0-2.13-.705,1.876,1.876,0,0,1-1.466.937l-2.389.109q-.128.308-.257.63c.8.024,1.549.049,2.228.072a8.444,8.444,0,0,1,2.713.571A4.144,4.144,0,0,0,1565.823,849.073Z" transform="translate(-242.561 7.702)" fill="#47280a"/><path d="M1607.742,841.426a1.826,1.826,0,0,1-.018.315l2.193.235c.014-.1.025-.209.031-.313C1609.233,841.556,1608.491,841.475,1607.742,841.426Z" transform="translate(-242.561 7.702)" fill="#47280a"/><path d="M1555.694,759.051a81.892,81.892,0,0,0-16.642-.71A146.833,146.833,0,0,1,1555.694,759.051Z" transform="translate(-242.561 7.702)" fill="#47280a"/><path d="M1484.4,837.707a14.072,14.072,0,0,0-1.764-1.352c-.969,1.007-2.707.059-5.3-.655-1.278-.352-3.206-.91-3.106-2.15-.072,0-.144-.009-.215-.009a13.334,13.334,0,0,0-2.015.157,2.974,2.974,0,0,0,.656,1.911,13.144,13.144,0,0,1,8.634,2.252,11.683,11.683,0,0,1,1.352.976A3.261,3.261,0,0,0,1484.4,837.707Z" transform="translate(-242.561 7.702)" fill="#47280a"/><path d="M1462.735,785.265q1.005-.371,2.08-.777a1.92,1.92,0,0,1,.147-2.2c-.911.347-1.78.673-2.619.984A4.066,4.066,0,0,0,1462.735,785.265Z" transform="translate(-242.561 7.702)" fill="#47280a"/><path d="M1606.3,843.32l-.247.057c.245-.005.491-.007.738,0l-.1-.2A1.916,1.916,0,0,1,1606.3,843.32Z" transform="translate(-242.561 7.702)" fill="#47280a"/><path d="M1540.142,848.112q-1.153.081-2.2.184a4.686,4.686,0,0,0,.4,1.959c.965-.092,1.963-.168,2.987-.23l-.243-.029C1540.345,849.819,1540.1,848.976,1540.142,848.112Z" transform="translate(-242.561 7.702)" fill="#47280a"/><path d="M1549.243,849.789c1.966-.012,3.895.006,5.71.038.038-.1.077-.2.115-.3Z" transform="translate(-242.561 7.702)" fill="#47280a"/><path d="M1557.291,849.877c.82.02,1.6.042,2.341.065q.129-.323.257-.63l-2.419.109C1557.41,849.571,1557.351,849.724,1557.291,849.877Z" transform="translate(-242.561 7.702)" fill="#47280a"/><path d="M1555.068,849.529c-.038.1-.077.2-.115.3.805.014,1.586.031,2.338.05.06-.153.119-.306.179-.456Z" transform="translate(-242.561 7.702)" fill="#47280a"/><path d="M1607.667,845.141l0,.006a4.03,4.03,0,0,0,1.683-1.549,22.565,22.565,0,0,0-2.565-.222Z" transform="translate(-242.561 7.702)" fill="#47280a"/><path d="M1609.917,841.976l-2.193-.235a1.887,1.887,0,0,1-1.036,1.432l.1.2a22.565,22.565,0,0,1,2.565.222,4.131,4.131,0,0,0,.376-.788A4.217,4.217,0,0,0,1609.917,841.976Z" transform="translate(-242.561 7.702)" fill="#47280a"/><path d="M1483.06,835.68c1.224-2.964.185-7.013,3.961-12.474,18.055-26.112,51.748-1.453,54.042,11.777.208,1.2.343,2.284.422,3.284l2.251.722a36.089,36.089,0,0,0-.5-4.382c-1.5-8.652-14.451-21.175-28.9-24.354a31.051,31.051,0,0,0-6.68-.751c-8.981,0-16.794,4.284-22.442,12.452a20.8,20.8,0,0,0-3.587,9.992,14.932,14.932,0,0,1-.494,2.6c-.406-.092-1-.282-1.463-.432-.536-.172-1.119-.358-1.749-.532a13.909,13.909,0,0,1-1.373-.436c4.8-21.214,1.588-37.856-9.55-49.486-.748.288-1.473.565-2.18.832a1.9,1.9,0,0,0,.261.347c15.755,16.066,11.325,39.27,9.157,48.538a1.17,1.17,0,0,0-.005.177,15.9,15.9,0,0,1,8.1,2.6c.1.064.2.136.3.2A2.114,2.114,0,0,0,1483.06,835.68Z" transform="translate(-242.561 7.702)" fill="#47280a"/><path d="M1519.781,763.729c.66-.187,11.961-3.307,19.2-3.188h.175c2.621-.019,11.594-.029,16.809.772.609.114,10.084,2.027,13.131,2.962.885.272,6.963,2.42,9.9,3.461a1.148,1.148,0,0,1-.133.418c-4.609,6.394-11.233,26.3,26.469,73.13l-.982.228a16.945,16.945,0,0,1,3.389-.086,1.889,1.889,0,0,0-.413-1.176c-37.4-46.32-30.726-65.193-26.678-70.809a3.043,3.043,0,0,0,.455-1.06c-26-10.79-43.2-8.706-57.312-5.87-7.856,1.578-25.47,8.647-41.009,14.884q-2.415.969-4.755,1.906c10.537-4.1,24.609-9.571,24.869-9.671C1503.026,769.585,1515.547,765.184,1519.781,763.729Zm86.02,77.448h0Zm-26.2-73.227-.006,0Z" transform="translate(-242.561 7.702)" fill="#47280a"/><path d="M1578.437,831.949c-6.548.9-12.1,5.97-16.509,15.066l-1.024.047c-.141.278-.285.583-.432.906.482.015.963.03,1.456.047a9.865,9.865,0,0,1,1.816.251c.03-.05.069-.093.095-.147,12.76-26.542,30.789-8.3,34.582-3.988a1.883,1.883,0,0,0,.405.344,6.786,6.786,0,0,1,1.254-1.293,7.659,7.659,0,0,1,2.3-1.212l-2.431.563C1597.259,839.514,1588.375,830.575,1578.437,831.949Z" transform="translate(-242.561 7.702)" fill="#47280a"/><path d="M1540.4,846.845a4.038,4.038,0,0,0-.257,1.267c4.163-.295,9.322-.378,15.6-.262q.12-.286.238-.565c-5.817.263-11.792.526-13.6.589a1.478,1.478,0,0,1,.066-.217,19.612,19.612,0,0,0,1.291-8.668l-2.251-.722A18.19,18.19,0,0,1,1540.4,846.845Z" transform="translate(-242.561 7.702)" fill="#47280a"/><path d="M1558.1,847.9c.773.019,1.567.042,2.373.067.147-.323.291-.628.432-.906l-2.484.113Q1558.259,847.526,1558.1,847.9Z" transform="translate(-242.561 7.702)" fill="#47280a"/><path d="M1555.977,847.285q-.119.279-.238.565c.771.014,1.555.031,2.36.051q.161-.375.321-.726Z" transform="translate(-242.561 7.702)" fill="#47280a"/><path d="M1569.746,762.172c-.312-.1-.686-.2-1.106-.313.564.162,1.137.337,1.711.512C1570.086,762.281,1569.866,762.208,1569.746,762.172Z" transform="translate(-242.561 7.702)" fill="#47280a"/><path d="M1556.361,759.146c-.216-.033-.439-.064-.667-.095.285.041.575.089.862.134Z" transform="translate(-242.561 7.702)" fill="#47280a"/><path d="M1539.052,758.341h-.022c-5.2-.1-12.221,1.368-16.387,2.374.256-.057.518-.118.757-.166A110.618,110.618,0,0,1,1539.052,758.341Z" transform="translate(-242.561 7.702)" fill="#47280a"/><path d="M1519.115,761.631l-.262.09q.765-.227,1.478-.422C1519.576,761.5,1519.135,761.624,1519.115,761.631Z" transform="translate(-242.561 7.702)" fill="#47280a"/><path d="M1502.17,767.553c-.047.016-36.338,14.13-36.338,14.13a1.84,1.84,0,0,0-.87.609c10.478-3.994,25.446-10.238,38.152-15.07Z" transform="translate(-242.561 7.702)" fill="#47280a"/><path d="M1580.329,765.873l-.7-.25c.28.111.559.219.841.333A.946.946,0,0,0,1580.329,765.873Z" transform="translate(-242.561 7.702)" fill="#47280a"/><path d="M1606.051,843.377a8.73,8.73,0,0,0-4.077.945Z" transform="translate(-242.561 7.702)" fill="#47280a"/><path d="M1541.828,850.087c.074.018,3.438-.124,7.415-.3-2.647.015-5.353.083-7.917.236Z" transform="translate(-242.561 7.702)" fill="#47280a"/><path d="M1464.815,784.488c.707-.267,1.432-.544,2.18-.832-.015-.015-.027-.032-.042-.047l11.077-4.308q2.34-.936,4.755-1.906c15.539-6.237,33.153-13.306,41.009-14.884,14.111-2.836,31.314-4.92,57.312,5.87.231-.961.084-2.045-.64-2.425-.282-.114-.561-.222-.841-.333-1.924-.682-7.319-2.592-9.274-3.252-.574-.175-1.147-.35-1.711-.512-3.656-.97-10.824-2.425-12.084-2.674-.287-.045-.577-.093-.862-.134a146.833,146.833,0,0,0-16.642-.71,110.618,110.618,0,0,0-15.652,2.208c-.239.048-.5.109-.757.166-.929.225-1.719.427-2.312.584q-.713.2-1.478.422c-3.725,1.283-12.794,4.466-15.739,5.5-12.706,4.832-27.674,11.076-38.152,15.07A1.92,1.92,0,0,0,1464.815,784.488Z" transform="translate(-242.561 7.702)" fill="#47280a"/><path d="M1606.688,843.173l-.811-1.629,1.847.2a1.826,1.826,0,0,0,.018-.315,16.945,16.945,0,0,0-3.389.086l-1.976.458a7.659,7.659,0,0,0-2.3,1.212,6.786,6.786,0,0,0-1.254,1.293,1.85,1.85,0,0,0,1.416.249l1.732-.4a8.73,8.73,0,0,1,4.077-.945l.247-.057A1.916,1.916,0,0,0,1606.688,843.173Z" transform="translate(-242.561 7.702)" fill="#47280a"/><path d="M1560.472,847.968q-.287.625-.583,1.344l2.389-.109a1.876,1.876,0,0,0,1.466-.937,9.865,9.865,0,0,0-1.816-.251C1561.435,848,1560.954,847.983,1560.472,847.968Z" transform="translate(-242.561 7.702)" fill="#47280a"/><path d="M1474.228,833.55c-.1,1.24,1.828,1.8,3.106,2.15,2.593.714,4.331,1.662,5.3.655-.1-.066-.2-.138-.3-.2A15.9,15.9,0,0,0,1474.228,833.55Z" transform="translate(-242.561 7.702)" fill="#47280a"/><path d="M1540.142,848.112c-.039.864.2,1.707.941,1.884l.243.029c2.564-.153,5.27-.221,7.917-.236l5.825-.26q.335-.867.671-1.679C1549.464,847.734,1544.305,847.817,1540.142,848.112Z" transform="translate(-242.561 7.702)" fill="#47280a"/><path d="M1558.1,847.9c-.208.482-.419.991-.629,1.52l2.419-.109q.3-.717.583-1.344C1559.666,847.943,1558.872,847.92,1558.1,847.9Z" transform="translate(-242.561 7.702)" fill="#47280a"/><path d="M1555.068,849.529l2.4-.108c.21-.529.421-1.038.629-1.52-.805-.02-1.589-.037-2.36-.051Q1555.4,848.66,1555.068,849.529Z" transform="translate(-242.561 7.702)" fill="#47280a"/><path d="M1606.688,843.173a1.887,1.887,0,0,0,1.036-1.432l-1.847-.2Z" transform="translate(-242.561 7.702)" fill="#47280a"/><path d="M1605.452,911.265l-.108.01c.064-.775.106-1.556.108-2.347a28.74,28.74,0,0,0-6.962-18.826c.037-.012.068-.026.107-.037a29.3,29.3,0,0,0-10.935-7.944c0,.037,0,.067,0,.1a28.587,28.587,0,0,0-10.984-2.2,28.881,28.881,0,0,0-11.184,2.224c0-.04-.005-.074,0-.115a29.339,29.339,0,0,0-10.894,7.953c.035.009.062.021.1.031a28.74,28.74,0,0,0-6.941,18.748c0,.837.042,1.665.111,2.484-.072.08-.094.225-.069.472a28.285,28.285,0,0,0,4.136,12.193c.02-.032.04-.06.059-.091a28.925,28.925,0,0,0,17.95,13.015c-.022.029-.042.058-.066.088a28.285,28.285,0,0,0,13.493-.013c-.024-.028-.044-.055-.065-.083a28.908,28.908,0,0,0,17.925-13.032c.022.032.043.062.064.095A28.336,28.336,0,0,0,1605.452,911.265Z" transform="translate(-242.561 7.702)" fill="#fff" stroke="#47280a" stroke-miterlimit="10" stroke-width="3"/><path d="M1569.655,934.155c-1.688-2.207-3.323-4.454-4.961-6.7a4.008,4.008,0,0,0-2.067-1.5c-2.73-.893-5.455-1.8-8.165-2.751a1.848,1.848,0,0,0-2.469.719,28.924,28.924,0,0,0,17.95,13.015C1570.724,935.906,1570.34,935.05,1569.655,934.155Z" transform="translate(-242.561 7.702)" fill="#ef5542" stroke="#47280a" stroke-miterlimit="10" stroke-width="3"/><path d="M1548.383,911.309c.878.178,1.474-.335,1.935-1.157a42.1,42.1,0,0,1,4.886-6.824c.96-1.117.96-2.483.718-3.994a18.248,18.248,0,0,1,.055-5.779c.283-1.763.25-3.014-1.281-3.436a28.745,28.745,0,0,0-6.94,18.748c0,.766.034,1.524.094,2.276a.148.148,0,0,0,.171.134A1.168,1.168,0,0,1,1548.383,911.309Z" transform="translate(-242.561 7.702)" fill="#ef5542" stroke="#47280a" stroke-miterlimit="10" stroke-width="3"/><path d="M1598.7,923.22c-2.676.945-5.369,1.843-8.07,2.716a4.136,4.136,0,0,0-2.146,1.554c-1.68,2.3-3.359,4.6-5.081,6.861a1.873,1.873,0,0,0-.1,2.581A28.91,28.91,0,0,0,1601.23,923.9,1.9,1.9,0,0,0,1598.7,923.22Z" transform="translate(-242.561 7.702)" fill="#ef5542" stroke="#47280a" stroke-miterlimit="10" stroke-width="3"/><path d="M1597.095,892.17c.057,2.881.054,5.764.052,8.647a4.012,4.012,0,0,0,.785,2.433c1.624,2.254,3.23,4.522,4.844,6.784.921,1.292,1.075,1.382,2.57,1.241.064-.775.106-1.556.108-2.347a28.738,28.738,0,0,0-6.962-18.826A1.847,1.847,0,0,0,1597.095,892.17Z" transform="translate(-242.561 7.702)" fill="#ef5542" stroke="#47280a" stroke-miterlimit="10" stroke-width="3"/><path d="M1567.343,884.338c2.659.783,5.3,1.626,7.936,2.489a3.983,3.983,0,0,0,2.552.032c2.767-.887,5.534-1.772,8.314-2.618a1.81,1.81,0,0,0,1.52-2.017,28.579,28.579,0,0,0-10.983-2.2,28.88,28.88,0,0,0-11.184,2.224C1565.478,883.508,1566.246,884.014,1567.343,884.338Z" transform="translate(-242.561 7.702)" fill="#ef5542" stroke="#47280a" stroke-miterlimit="10" stroke-width="3"/><path d="M1586.719,903.878q-4.258-3.106-8.532-6.2a2.426,2.426,0,0,0-3.147-.011q-4.319,3.111-8.611,6.257a2.358,2.358,0,0,0-.943,2.995q1.611,5.007,3.25,10.006a2.446,2.446,0,0,0,2.678,1.941c1.709.016,3.419,0,5.128,0,1.776,0,3.553.013,5.329-.005a2.43,2.43,0,0,0,2.595-1.918q1.64-5,3.251-10.006A2.4,2.4,0,0,0,1586.719,903.878Z" transform="translate(-242.561 7.702)" fill="#ef5542" stroke="#47280a" stroke-miterlimit="10" stroke-width="3"/><path d="M1651.525,909.292c0-.053.006-.1.007-.157a.909.909,0,0,0-.017-.194,14.68,14.68,0,0,0-.472-3.265l-.007-.03-.018-.055a14.54,14.54,0,0,0-1.789-4.039,13.6,13.6,0,0,0-3.277-3.613,14.393,14.393,0,0,0-8.448-3.08,1.01,1.01,0,0,0-.163-.015,12.773,12.773,0,0,0-3.861.434c-.035.01-.067.022-.1.032a14.457,14.457,0,0,0-3.8,1.588,13.421,13.421,0,0,0-4.97,4.9,14.475,14.475,0,0,0-.474,14.278,13.689,13.689,0,0,0,4.169,4.909,14.5,14.5,0,0,0,3.063,1.764l.065.031a13.633,13.633,0,0,0,5.04,1.1l0-.013c.179.007.358.014.538.013a14.449,14.449,0,0,0,4.447-.707c.148-.047.293-.1.439-.15.107-.038.212-.079.318-.12.208-.08.414-.163.618-.255a14.65,14.65,0,0,0,4.654-3.264,13.376,13.376,0,0,0,3.281-5.4,14.267,14.267,0,0,0,.751-4.629C1651.527,909.339,1651.525,909.316,1651.525,909.292Z" transform="translate(-242.561 7.702)" fill="#fff" stroke="#47280a" stroke-miterlimit="10" stroke-width="3"/><path d="M1639.368,921.665c0-.053.147-.1.232-.14a1.5,1.5,0,0,0,1-1.321,1.465,1.465,0,0,0-.79-1.484.379.379,0,0,1-.247-.388,1.922,1.922,0,0,0-.04-.4,1.024,1.024,0,0,1,.282-.992,1.493,1.493,0,0,0-.855-2.481.488.488,0,0,1-.44-.355,1.155,1.155,0,0,0-.107-.231,1.157,1.157,0,0,1-.106-1.163,1.509,1.509,0,0,0-1.722-2,.98.98,0,0,1-.47-.143c-.073-.031-.116-.124-.182-.176a1.227,1.227,0,0,1-.513-1.126,1.486,1.486,0,0,0-2.262-1.248.443.443,0,0,1-.527.016.971.971,0,0,0-.261-.127,1.129,1.129,0,0,1-.815-.832,1.489,1.489,0,0,0-2.545-.449.51.51,0,0,1-.587.208.748.748,0,0,0-.253-.026,1.011,1.011,0,0,1-.98-.478,1.5,1.5,0,0,0-2.59.447.5.5,0,0,1-.421.372,1.721,1.721,0,0,0-.523.146.562.562,0,0,1-.718-.122,14.181,14.181,0,0,0-.163,2.163c0,.152.007.3.012.451a1.685,1.685,0,0,0,.826-1.227.465.465,0,0,1,.224-.26,3.238,3.238,0,0,1,.38-.12.543.543,0,0,1,.707.2,1.486,1.486,0,0,0,2.4-.242.585.585,0,0,1,.664-.326c.365.034.632.071.813.513a1.455,1.455,0,0,0,2.32.5.461.461,0,0,1,.629-.08,2.22,2.22,0,0,0,.365.165.367.367,0,0,1,.261.41,1.533,1.533,0,0,0,2.16,1.448.585.585,0,0,1,.371.056c.084.033.139.132.215.193a.686.686,0,0,1,.266.854,1.487,1.487,0,0,0,1.52,1.9c.251-.01.382.055.464.279a2.052,2.052,0,0,0,.161.326.446.446,0,0,1-.058.6,1.52,1.52,0,0,0,.683,2.436c.259.087.358.2.35.456a1.435,1.435,0,0,0,.039.325.447.447,0,0,1-.254.551,1.506,1.506,0,0,0-.188,2.5.443.443,0,0,1,.18.577c-.063.17-.084.355-.15.524a.339.339,0,0,1-.191.177c-.848.249-1.069.394-1.335,1.072.147.005.293.011.441.011a14.213,14.213,0,0,0,2.412-.213.346.346,0,0,0-.059-.091C1638.779,922.763,1639.329,922.21,1639.368,921.665Z" transform="translate(-242.561 7.702)" fill="#ef5542" stroke="#47280a" stroke-miterlimit="10" stroke-width="1"/><path d="M1638.339,895.566a.445.445,0,0,1,.283.482.5.5,0,0,0,.006.145,1.362,1.362,0,0,1-.364,1.284,1.476,1.476,0,0,0,.926,2.384.412.412,0,0,1,.383.316,1.382,1.382,0,0,0,.117.267,1.2,1.2,0,0,1,.079,1.193,1.5,1.5,0,0,0,1.672,2.006.488.488,0,0,1,.524.2,1.227,1.227,0,0,0,.176.184,1.1,1.1,0,0,1,.452,1.035,1.479,1.479,0,0,0,2.217,1.354.478.478,0,0,1,.559.008.91.91,0,0,0,.2.1,1.265,1.265,0,0,1,.882.912,1.466,1.466,0,0,0,2.491.472.607.607,0,0,1,.629-.219,1,1,0,0,0,.216.028.919.919,0,0,1,.991.53.891.891,0,0,0,.473.377l.01.005a14.414,14.414,0,0,0-.361-2.5,1.852,1.852,0,0,0-.217.247c-.1.12-.2.336-.312.343a4.3,4.3,0,0,1-.937-.089c-.046-.008-.078-.136-.105-.213a1.553,1.553,0,0,0-2.561-.7.482.482,0,0,1-.367.06,3.806,3.806,0,0,1-.463-.208c-.235-.089-.37-.223-.287-.462a1.526,1.526,0,0,0-2.038-1.493.449.449,0,0,1-.588-.143,3.239,3.239,0,0,1-.319-.347.509.509,0,0,1-.067-.372,1.557,1.557,0,0,0-1.495-2.17c-.12,0-.246-.121-.35-.209-.06-.051-.077-.15-.118-.223a.666.666,0,0,1,.056-.886,1.488,1.488,0,0,0-.7-2.325.445.445,0,0,1-.354-.457,3.988,3.988,0,0,1-.025-.545.83.83,0,0,1,.151-.285c.005-.009.025-.008.032-.017a.989.989,0,0,1,.244-.207,14.144,14.144,0,0,0-2.184-.3A1.232,1.232,0,0,0,1638.339,895.566Z" transform="translate(-242.561 7.702)" fill="#ef5542" stroke="#47280a" stroke-miterlimit="10" stroke-width="1"/></g></svg>