<svg xmlns="http://www.w3.org/2000/svg" width="322.58" height="322.58" viewBox="0 0 322.58 322.58"><g transform="translate(-2293.608 -730.714)"><g transform="translate(-197.561 70.425)"><circle cx="161.29" cy="161.29" r="161.29" transform="translate(2491.168 660.29)" fill="#f4f5f3"/><circle cx="149.551" cy="149.551" r="149.551" transform="translate(2503.586 672.029)" fill="#fddad3"/></g><g transform="translate(-197.561 70.425)"><path d="M2617.732,850.028c6.922,6.853,18.317,33.58,14.536,42.368-1.581,3.673-.913,10.282,8.881,6.29,3.253-1.326,6.1-8.868,4.255-16.4-.9-3.681.37-19.55,1.357-21.462" fill="#804f21"/><path d="M2635.915,902.155a6.361,6.361,0,0,1-4.748-1.822c-2.271-2.317-2.108-6.1-.939-8.815,3.285-7.635-7.363-33.283-14.058-39.913l3.123-3.155c7.17,7.1,19.325,34.8,15.014,44.823-.646,1.5-.633,3.275.031,3.951.623.636,2.523.813,5.972-.594,1.97-.8,4.565-7.191,2.938-13.82-.934-3.8.174-20.363,1.54-23.008l3.946,2.035c-.718,1.789-1.96,16.711-1.174,19.915,2.136,8.7-1.181,17.2-5.573,18.991A16.484,16.484,0,0,1,2635.915,902.155Z" fill="#47280a"/><path d="M2697.69,865.076s8.45,11.162,9.621,16.466c2.415,10.928-4.718,11.746-4.842,15.076-.088,2.4,1.476,4.207,8.465,2.85s8.835-4.3,9.575-12.437c.939-10.321,0-21.554,5.273-27.567" fill="#804f21"/><path d="M2706.834,902.151a7.286,7.286,0,0,1-4.916-1.448,4.973,4.973,0,0,1-1.667-4.167c.072-1.943,1.321-3.235,2.424-4.374,1.8-1.859,3.833-3.964,2.468-10.14-.875-3.963-6.954-12.609-9.223-15.606l3.54-2.68c.9,1.182,8.779,11.712,10.019,17.327,1.88,8.507-1.558,12.061-3.612,14.185-.466.482-1.17,1.209-1.178,1.452-.006.155-.006.525.116.63.1.089,1.145.845,5.705-.042,5.724-1.111,7.107-2.968,7.788-10.458.21-2.318.328-4.735.44-7.072.411-8.506.8-16.541,5.374-21.758l3.339,2.927c-3.553,4.053-3.905,11.335-4.277,19.045-.115,2.384-.235,4.848-.454,7.26-.75,8.243-2.713,12.736-11.364,14.415A24.018,24.018,0,0,1,2706.834,902.151Z" fill="#47280a"/><path d="M2632.9,891.044c-1.581,3.674-.913,10.282,8.881,6.291,2.94-1.2,5.54-7.477,4.65-14.237-.381-.657-.761-1.249-1.13-1.765-4.941,2.425-12.159.028-12.159.028l0,0C2633.839,885.345,2633.874,888.788,2632.9,891.044Z" fill="#595757"/><path d="M2636.556,900.433a6.013,6.013,0,0,1-4.49-1.711c-2.151-2.194-1.983-5.8-.863-8.409h0c.528-1.227.977-3.719.116-8.629l-.166-.948,1.488-1.488,1.087.357c.062.021,6.572,2.122,10.76.068l1.407-.69.913,1.273c.407.569.821,1.213,1.227,1.914l.185.32.048.367c.938,7.115-1.712,14.53-5.785,16.191A16.128,16.128,0,0,1,2636.556,900.433Zm-1.2-16.622a16.417,16.417,0,0,1-.749,7.965h0c-.624,1.451-.756,3.477.1,4.355.93.949,3.253.763,6.378-.51,1.9-.774,4.234-5.884,3.559-11.916q-.031-.05-.06-.1A19.634,19.634,0,0,1,2635.352,883.811Z" fill="#47280a"/><path d="M2646.6,770.47s-9.723-1.029-20.824-10.875-33.9-9.806-48.659-6.517c-11.9,2.652-12.273,4.746-14.247,5.366-4.856,1.526-24.571,2.1-29.6,14.8-2.914,7.355,4.318,24.854,17.084,26.15s18.44-1.172,26.581,12.334,51.188,52.237,66.93,69.937c3.13,3.519,7.94,14.493,5.535,20.845-1.416,3.74-.913,10.282,8.881,6.291,3.253-1.326,6.1-8.869,4.255-16.405-.9-3.682.37-19.551,1.357-21.462s45.576-2.159,56.8-4.009c3.193-.526,11.225,14.863,9.374,25.162s-7.264,8.773-6.783,13.815c.37,3.885,9.713,2.96,14.431,1.48s8.326-18.748,9.066-28.369,6.907-17.515,11.347-26.766,19.551-25.163,14.74-43.479-11.1-18.5-18.132-24.053-23.5-24.607-55.505-18.686S2649.214,771.014,2646.6,770.47Z" fill="#895b31"/><path d="M2653.052,912.272a6.311,6.311,0,0,1-4.6-1.7c-2.414-2.354-2.118-6.236-1.131-8.844,1.969-5.2-2.2-15.3-5.117-18.584-6.085-6.841-16.272-16.84-27.058-27.426-17.208-16.891-35-34.356-40.115-42.84-6.106-10.13-10.047-10.346-18.683-10.823-1.841-.1-3.928-.216-6.22-.449-6.124-.62-11.65-4.506-15.563-10.942-3.833-6.306-5.184-13.633-3.361-18.234,4.515-11.393,19.144-13.931,27-15.295a39.352,39.352,0,0,0,4-.807,4.238,4.238,0,0,0,.93-.529c1.632-1.065,4.363-2.849,13.5-4.884,16.435-3.664,39.286-3.026,50.616,7.022,10.447,9.267,19.493,10.319,19.583,10.328l.219.034c2.147.449,19.773,1.469,51.772-4.45,29.259-5.407,46.272,9.529,54.45,16.709,1.1.962,2.043,1.794,2.835,2.419,1.351,1.066,2.713,1.949,4.031,2.8,5.566,3.607,10.823,7.012,14.872,22.429,3.951,15.044-4.476,28.225-10.63,37.85a75.156,75.156,0,0,0-4.255,7.153c-1.271,2.648-2.676,5.18-4.035,7.629-3.4,6.12-6.6,11.9-7.1,18.347-.022.276-2.492,27.769-10.615,30.317-2.677.84-11.219,2.639-15.217-.014a4.473,4.473,0,0,1-2.089-3.374c-.314-3.3,1.284-4.872,2.694-6.255,1.507-1.48,3.216-3.156,4.115-8.162,1.556-8.661-4.794-21.075-7.16-22.526-5.492.845-17.588,1.348-29.295,1.835-10.068.419-22.411.933-25.738,1.595-.722,3.4-1.721,16.314-1,19.267,2.136,8.7-1.181,17.2-5.573,18.991A16.5,16.5,0,0,1,2653.052,912.272Zm-57.508-158.958a83.919,83.919,0,0,0-17.941,1.932c-8.349,1.86-10.657,3.368-12.036,4.268a7.852,7.852,0,0,1-2.027,1.048,40.2,40.2,0,0,1-4.571.945c-7.494,1.3-20.036,3.476-23.634,12.556-1.273,3.214.028,9.357,3.028,14.291,1.837,3.022,5.867,8.187,12.216,8.832,2.19.222,4.135.329,6.017.433,8.986.495,14.922.822,22.241,12.964,4.823,8,23.205,26.044,39.423,41.963,10.841,10.64,21.08,20.69,27.265,27.644,3.5,3.935,8.773,15.657,5.952,23.107-.623,1.645-.588,3.443.079,4.094.614.6,2.482.744,5.887-.646,1.97-.8,4.565-7.191,2.938-13.819-.934-3.805.174-20.363,1.54-23.009.945-1.831,1.987-2.211,29.323-3.349,11.815-.491,24.033-1,29.089-1.832,1.318-.216,2.677.379,4.05,1.771,4.222,4.282,9.514,16.826,7.871,25.974-1.15,6.4-3.693,8.895-5.376,10.546-1.236,1.213-1.494,1.51-1.384,2.665.679.977,6.539,1.147,11.557-.427,2.454-.77,6.54-13.721,7.517-26.422.57-7.412,4.007-13.6,7.645-20.16,1.328-2.393,2.7-4.868,3.915-7.4a77.859,77.859,0,0,1,4.517-7.625c5.711-8.932,13.534-21.167,10.077-34.33-3.612-13.752-7.752-16.434-12.992-19.828-1.4-.91-2.854-1.85-4.369-3.045-.882-.7-1.87-1.564-3.013-2.567-8.239-7.234-23.574-20.7-50.712-15.679-32.15,5.946-50.283,5.026-53.377,4.452-1.205-.153-10.954-1.655-21.952-11.409C2618.008,755.669,2606.9,753.314,2595.544,753.314Z" fill="#47280a"/><path d="M2554.7,785.338c3.153-5.377,4.521-19.871-.382-22.97-.819-.518-4.467.63-6.676,1.26-5.46,2-10,4.019-12.245,9.678-1.457,3.676-.15,10.291,2.756,15.51a25.262,25.262,0,0,0,3.052,3.486C2542.971,793.876,2551.65,790.537,2554.7,785.338Z" fill="#72492a"/><path d="M2584.961,772.731a3.525,3.525,0,1,1,2.116-.707h0A3.508,3.508,0,0,1,2584.961,772.731Zm-.108-3.665a.172.172,0,0,0,.079.308.172.172,0,0,0,.127-.033Zm.1-.034a.176.176,0,0,0-.1.034l.207.274a.172.172,0,0,0,.034-.24A.175.175,0,0,0,2584.956,769.032Z" fill="#231815"/><ellipse cx="1.739" cy="0.858" rx="1.739" ry="0.858" transform="translate(2541.711 773.497) rotate(-62.353)" fill="#221714"/><path d="M2542.685,774.686a1.191,1.191,0,0,1-.557-.136h0a1.454,1.454,0,0,1-.7-1.4,3.589,3.589,0,0,1,.432-1.532c.667-1.272,1.744-1.885,2.566-1.455a1.456,1.456,0,0,1,.7,1.407,3.859,3.859,0,0,1-1.445,2.758A1.712,1.712,0,0,1,2542.685,774.686Zm.949-3.01a2.334,2.334,0,0,0-.46.624,2.283,2.283,0,0,0-.251.733,2.539,2.539,0,0,0,.711-1.357Z" fill="#231815"/><path d="M2601.45,753.495s3.577-7.028,8.388-4.808,4.9,6.522,3.238,8.743-4.95,5.92-7.864,6.2" fill="#895b31"/><path d="M2605.423,765.838l-.421-4.42c1.486-.142,4.017-2.28,6.3-5.32a2.987,2.987,0,0,0,.437-2.482,4.674,4.674,0,0,0-2.828-2.913c-2.775-1.275-5.456,3.753-5.482,3.8l-3.955-2.02c1.573-3.089,5.961-8.279,11.3-5.815a9.035,9.035,0,0,1,5.273,5.856,7.433,7.433,0,0,1-1.189,6.234C2612.988,761.246,2609.285,765.47,2605.423,765.838Z" fill="#47280a"/><path d="M2730.144,887.14a20.088,20.088,0,0,1-.217,4.825c-1.85,10.3-7.264,8.773-6.784,13.815.37,3.885,9.714,2.96,14.432,1.48,3.407-1.069,6.235-10.375,7.822-19.087A66.292,66.292,0,0,1,2730.144,887.14Z" fill="#595757"/><path d="M2729.255,910.4a11.261,11.261,0,0,1-6.029-1.34,4.114,4.114,0,0,1-1.924-3.1c-.3-3.129,1.233-4.632,2.584-5.958,1.47-1.442,3.3-3.238,4.22-8.36a18.173,18.173,0,0,0,.191-4.377l-.153-2.345,2.315.4a65,65,0,0,0,14.794,1.012l2.4-.187-.43,2.364c-1.557,8.548-4.4,19.048-9.089,20.52A32.036,32.036,0,0,1,2729.255,910.4Zm2.784-21.079a19.692,19.692,0,0,1-.29,2.975c-1.129,6.283-3.622,8.729-5.271,10.348-1.214,1.191-1.623,1.593-1.493,2.964.007.075.018.19.288.369,1.848,1.226,7.833.752,11.748-.479,1.331-.417,3.969-4.873,6.114-15.363A68.133,68.133,0,0,1,2732.039,889.317Z" fill="#47280a"/><path d="M2707.977,884.359c.356,7.708-5.211,8.7-5.32,11.635-.089,2.4,1.476,4.206,8.464,2.85s8.836-4.3,9.576-12.437c.046-.508.084-1.019.122-1.53A83.218,83.218,0,0,1,2707.977,884.359Z" fill="#595757"/><path d="M2707.022,901.527a7.3,7.3,0,0,1-4.917-1.448,4.977,4.977,0,0,1-1.667-4.168c.072-1.942,1.321-3.234,2.421-4.374,1.514-1.568,3.08-3.189,2.9-7.075l-.119-2.578,2.566.266a81.068,81.068,0,0,0,12.457.513l2.558-.181-.188,2.558c-.039.524-.078,1.048-.125,1.569-.749,8.242-2.713,12.734-11.364,14.414A24.11,24.11,0,0,1,2707.022,901.527Zm3.095-14.733a12.575,12.575,0,0,1-4.063,7.828c-.466.482-1.17,1.21-1.178,1.454-.006.155-.006.525.116.629.1.09,1.148.845,5.706-.042,5.466-1.061,6.974-2.8,7.691-9.479C2715.707,887.217,2712.724,887.021,2710.117,886.794Z" fill="#47280a"/><path d="M2648.675,891.889v0c1.073,3.69,1.489,7.573.386,10.484-1.416,3.74-.912,10.282,8.881,6.291,3.253-1.326,6.106-8.868,4.256-16.405a13.2,13.2,0,0,1-.263-2.307h0C2657.568,892.735,2648.675,891.889,2648.675,891.889Z" fill="#595757"/><path d="M2652.717,911.766a5.956,5.956,0,0,1-4.344-1.6c-2.287-2.23-1.991-5.945-1.043-8.448.83-2.192.676-5.5-.432-9.313l-.2-.7.89-1.781,1.263.117c2.3.217,8.961.341,12.09-1.654l2.689-1.713.154,3.184a11.191,11.191,0,0,0,.211,1.955c2.059,8.384-1.187,16.862-5.354,18.56A16.1,16.1,0,0,1,2652.717,911.766Zm-1.651-17.91c.589,2.89.816,6.292-.275,9.174-.581,1.532-.72,3.627.165,4.489.917.9,3.208.687,6.287-.567,2.125-.866,4.857-7.325,3.157-14.251l0-.012A29.735,29.735,0,0,1,2651.066,893.856Z" fill="#47280a"/><line x2="14.288" y2="0.523" transform="translate(2667.97 788.61)" fill="#804f21"/><rect width="2.961" height="14.298" transform="translate(2667.916 790.09) rotate(-87.903)" fill="#47280a"/><line x2="14.288" y2="0.523" transform="translate(2684.006 799.386)" fill="#804f21"/><rect width="2.961" height="14.298" transform="translate(2683.952 800.866) rotate(-87.903)" fill="#47280a"/><line x2="11.707" y2="0.974" transform="translate(2705.971 785.125)" fill="#804f21"/><rect width="2.96" height="11.748" transform="matrix(0.083, -0.997, 0.997, 0.083, 2705.849, 786.6)" fill="#47280a"/></g><g transform="translate(-197.561 70.425)"><path d="M2641.056,945.267c-11.338,2.67-23.975-4.608-27.056-6.536a.649.649,0,0,1-.193-1c11.588-12.587,11.419-25.084,11.116-28.5a.707.707,0,0,1,.939-.665l12.626,2.963a.718.718,0,0,1,.567.971c-7.55,15.594.231,28.611,2.422,31.782A.631.631,0,0,1,2641.056,945.267Z" fill="#cbced1" stroke="#47280a" stroke-miterlimit="10" stroke-width="3"/><rect width="7.256" height="73.378" rx="3.628" transform="translate(2692.005 929.691) rotate(103.209)" fill="#ef5542" stroke="#47280a" stroke-miterlimit="10" stroke-width="3"/><line x2="12.395" y2="12.389" transform="translate(2623.839 912.681)" fill="#cbced1" stroke="#47280a" stroke-miterlimit="10" stroke-width="2"/><line y1="5.376" x2="15.753" transform="translate(2622.5 916.47)" fill="#cbced1" stroke="#47280a" stroke-miterlimit="10" stroke-width="2"/></g><g transform="translate(-197.561 70.425)"><path d="M2563.157,913.879a5.2,5.2,0,0,1-2.584-4.7c.01-.219-.23-.5-.425-.668a4.835,4.835,0,0,1-.89-6.748,4.9,4.9,0,0,1,6.751-.993c.271.178.715.093,1.08.125.027,0,.056-.029.085-.04,1.808-.677,3-1.6,3.029-3.9a7.7,7.7,0,0,1,2.559-5.318,23.23,23.23,0,0,0,4.5-6.679A26.472,26.472,0,0,1,2587.8,873.8c3.643-2.129,7.321-1.723,10.918.221,8.253,4.46,13.848,16.149,12.337,24.656a3.111,3.111,0,0,0,0,.564l-.859,2.738c-.2.323-.406.64-.594.968a10.053,10.053,0,0,1-5.613,4.311,28.207,28.207,0,0,1-13.569,1.869,49.046,49.046,0,0,0-9.69-.431,7.936,7.936,0,0,1-4.427-.8c-2.089-1.256-3.685-.714-5.429.434a1.12,1.12,0,0,0-.653,1.09,4.805,4.805,0,0,1-4.87,4.921c-.186,0-.371.033-.556.05Zm36.339-9.98c3.24,1.169,6.56-.08,7.8-3.143a11.208,11.208,0,0,0,.879-3.687c.288-7.543-2.79-13.638-8.311-18.6a12.458,12.458,0,0,0-5.06-2.784,5.787,5.787,0,0,0-7.46,3.851,11.8,11.8,0,0,0-.7,3.44c-.2,7.02,2.633,12.784,7.544,17.625A13.439,13.439,0,0,0,2599.5,903.9Zm-15.9-22.739a1.9,1.9,0,0,0-.38.334,58.109,58.109,0,0,0-3.537,5.412,20.637,20.637,0,0,1-4.327,6.335,5.494,5.494,0,0,0-.691.79c-2.815,3.693-2.041,8.484,1.744,10.68a9.633,9.633,0,0,0,5.36.974c2.341-.076,4.69.1,7.035.2,2.219.085,4.436.2,6.655.289a4.57,4.57,0,0,0,.874-.124C2587.45,900.067,2583.157,891.867,2583.594,881.16Zm-13.029,21.231c-1.148.635-2.2,1.231-3.259,1.8-1.4.742-1.739.661-2.733-.565a1.746,1.746,0,0,0-2.033-.646,1.679,1.679,0,0,0-1.229,1.645,1.738,1.738,0,0,0,1.219,1.75c1.462.587,1.656.985,1.207,2.443a1.776,1.776,0,0,0,.609,2.129,1.685,1.685,0,0,0,2.129.007,1.748,1.748,0,0,0,.621-2.12c-.415-1.36-.235-1.794,1.019-2.45,1.178-.615,2.364-1.214,3.434-1.763Z" fill="#47280a"/><path d="M2599.5,903.9a13.426,13.426,0,0,1-5.306-3.3c-4.911-4.841-7.746-10.6-7.544-17.625a11.8,11.8,0,0,1,.7-3.44,5.787,5.787,0,0,1,7.46-3.851,12.458,12.458,0,0,1,5.06,2.784c5.521,4.961,8.6,11.056,8.311,18.6a11.208,11.208,0,0,1-.879,3.687C2606.056,903.819,2602.736,905.068,2599.5,903.9Zm3.258-11.217c.951-3.138-1.5-7.792-4.637-8.794a3.193,3.193,0,0,0-4.259,2.619,8.377,8.377,0,0,0,4.266,8.213A3.192,3.192,0,0,0,2602.754,892.681Z" fill="#ef5542"/><path d="M2583.594,881.16c-.437,10.707,3.856,18.907,12.733,24.885a4.57,4.57,0,0,1-.874.124c-2.219-.085-4.436-.2-6.655-.289-2.345-.091-4.694-.271-7.035-.2a9.633,9.633,0,0,1-5.36-.974c-3.785-2.2-4.559-6.987-1.744-10.68a5.494,5.494,0,0,1,.691-.79,20.637,20.637,0,0,0,4.327-6.335,58.109,58.109,0,0,1,3.537-5.412A1.9,1.9,0,0,1,2583.594,881.16Z" fill="#c69c6d"/><path d="M2570.565,902.391l.984,2.227c-1.07.549-2.256,1.148-3.434,1.763-1.254.656-1.434,1.09-1.019,2.45a1.748,1.748,0,0,1-.621,2.12,1.685,1.685,0,0,1-2.129-.007,1.776,1.776,0,0,1-.609-2.129c.449-1.458.255-1.856-1.207-2.443a1.738,1.738,0,0,1-1.219-1.75,1.679,1.679,0,0,1,1.229-1.645,1.746,1.746,0,0,1,2.033.646c.994,1.226,1.336,1.307,2.733.565C2568.369,903.622,2569.417,903.026,2570.565,902.391Z" fill="#fff"/><path d="M2602.754,892.681a3.192,3.192,0,0,1-4.63,2.038,8.377,8.377,0,0,1-4.266-8.213,3.193,3.193,0,0,1,4.259-2.619C2601.251,884.889,2603.705,889.543,2602.754,892.681Zm-5.8-5.894c-.495,2.067,1.192,5.059,2.846,5.137C2600.257,889.936,2598.8,887.261,2596.952,886.787Z" fill="#47280a"/><path d="M2596.952,886.787c1.852.474,3.305,3.149,2.846,5.137C2598.144,891.846,2596.457,888.854,2596.952,886.787Z" fill="#fff"/></g></g></svg>