<svg xmlns="http://www.w3.org/2000/svg" width="322.58" height="322.58" viewBox="0 0 322.58 322.58"><g transform="translate(-643.568 -672.658)"><circle cx="161.29" cy="161.29" r="161.29" transform="translate(643.568 672.658)" fill="#f4f5f3"/><circle cx="149.551" cy="149.551" r="149.551" transform="translate(654.628 684.397)" fill="#fddad3"/><path d="M1046.74,678.447c-81.5,0-147.8,66.3-147.8,147.8a147.94,147.94,0,0,0,2.887,29.118c14.074-10.371,15.906-16.68,18.387-25.266.566-1.958,1.151-3.983,1.917-6.2l.17-.495c3.013-8.765,12.182-35.441,29.426-41.78.737-.271,1.512-.561,2.31-.863a4.059,4.059,0,0,1,1.712-1.141c36.294-14.116,36.321-14.126,36.393-14.149.093-.034,12.723-4.472,16.925-5.917.106-.036,12.39-3.548,20.672-3.409h.053c2.705-.02,11.973-.029,17.571.833.318.048,10.362,2.072,13.7,3.1,1.215.374,9.708,3.389,10.673,3.732a3.276,3.276,0,0,1,1.125.7c.717.3,1.436.593,2.166.907,17.558,7.552,22.9,10.774,29.658,14.854l1.874,1.129a86.274,86.274,0,0,0,22.776,8.78c1.08.211,2.194.46,3.324.755.921-4.354,2.621-8.651,5.758-10.158a5.813,5.813,0,0,1,5.856.534c5.014,3.127,1.536,11.026-.5,14.754a27.215,27.215,0,0,1,8.835,11.846c4.142,10.19,13.359,22.1,17.294,27.179.59.762,1.076,1.39,1.431,1.862,9.84,13.108,9.252,16.966,9.059,18.234a7.509,7.509,0,0,1-3.819,5.666c-3.763,2.031-9.511,1.221-17.568-2.475-11.247-5.16-18.805-8.461-26.268-9.386.21,6.252,1.1,14.722,2.691,16.735a22.9,22.9,0,0,0,3.338,3.043c2.828,2.286,6.349,5.131,4.4,8.467-2.122,3.629-6.012,4.717-10.218,4.717a41.03,41.03,0,0,1-7.559-.851c-5.22-1-6.281-3.882-7.133-6.2a7.7,7.7,0,0,0-1.932-3.34c-8.407-7.843-16.594-23.661-17.834-26.109-.261-.023-.521-.041-.78-.052-.082.024-.161.054-.245.073l-4.39,1.018a4.017,4.017,0,0,0-1.091,3.052c-.034,2.177-.175,4.888-.324,7.758-.3,5.685-.842,16.2.261,18.107,2.362,1.584,4.39,2.5,9.126,4.381,2.217.881,3.561,3.537,3.2,6.317-.446,3.4-3.161,5.724-7.262,6.209-6.839.812-19.571,2.319-23.206-7.347-.985-2.617-1.933-5.327-2.77-7.718-1.405-4.011-3.153-9.005-3.908-9.84a17.55,17.55,0,0,1-1.716-2.68c-2.356-4.061-7.26-12.513-12.921-12.707-1.008-.035-1.974-.063-2.921-.089a96.879,96.879,0,0,0-3.935,13.081c.234.4,1.371,1.593,6.868,3.848a6.624,6.624,0,0,1,4.25,7.351,7.794,7.794,0,0,1-7.373,6.379c-1.716.108-3.474.186-5.2.186-5.169,0-10.095-.7-12.94-3.376a6.959,6.959,0,0,1-2.212-5.216c.013-3.973-1.778-5.2-4.046-6.742-1.854-1.266-4.162-2.84-4.541-6.064-.174-1.479-.49-3.451-.884-5.7-3.192,5.321-8,19.816-8.16,21.908.408,1.127,4.92,4.354,12.731,6.973,3.58,1.2,5.529,3.769,5.214,6.875a8.306,8.306,0,0,1-7.222,6.942c-.591.072-1.386.2-2.334.349a83.5,83.5,0,0,1-12.878,1.286c-6.838,0-13.563-1.575-15.614-7.692-1.482-4.42-4.668-8.565-7.479-12.223-3.489-4.539-6.5-8.46-6.214-12.44.456-6.289,1.668-22.993-6.653-28.084-4.445-2.719-8-2.713-12.686.021-1.831,1.069-4.27,4.352-7.095,8.154-7.228,9.725-19.1,25.683-41.665,33.274a148.036,148.036,0,0,0,137.273,93.028c81.5,0,147.8-66.3,147.8-147.8S1128.236,678.447,1046.74,678.447Z" transform="translate(-242.561 7.702)" fill="none"/><path d="M1032.578,852.273c-.159,0-.268,0-.349-.008v.007l-.988-.136c-.05-.012-.093-.037-.142-.051a47.633,47.633,0,0,0-7.571.967c.56,3.1,1.019,5.832,1.251,7.806.132,1.126.832,1.7,2.649,2.941,2.528,1.724,5.989,4.085,5.968,10.394a2.526,2.526,0,0,0,.829,2c2.92,2.751,11.9,2.186,14.85,2a3.372,3.372,0,0,0,3.306-2.7,2.237,2.237,0,0,0-1.577-2.564c-4.769-1.955-9.837-4.352-9.6-8.058.1-1.593,1.743-7.587,3.686-13.038l-.98-.013C1035.985,852.175,1033.478,852.273,1032.578,852.273Z" transform="translate(-242.561 7.702)" fill="#fce5c4"/><path d="M1043.4,865.007c-.144,2.279,4.875,4.5,8.242,5.883,5.1,2.091,3.228,9.143-2.426,9.5-5.025.316-18.043,1.077-18.018-6.2.03-8.922-7.983-7.812-8.6-13.071-.22-1.868-.648-4.437-1.178-7.383a2.971,2.971,0,0,0-1.068.731,10.485,10.485,0,0,0-.824,1.21c.394,2.248.71,4.22.884,5.7.379,3.224,2.687,4.8,4.541,6.064,2.268,1.547,4.059,2.769,4.046,6.742a6.959,6.959,0,0,0,2.212,5.216c2.845,2.68,7.771,3.376,12.94,3.376,1.731,0,3.489-.078,5.2-.186a7.794,7.794,0,0,0,7.373-6.379,6.624,6.624,0,0,0-4.25-7.351c-5.5-2.255-6.634-3.447-6.868-3.848a96.879,96.879,0,0,1,3.935-13.081q-1.2-.031-2.328-.055C1045.249,857.289,1043.484,863.6,1043.4,865.007Z" transform="translate(-242.561 7.702)" fill="#47280a"/><path d="M1041.2,864.868c-.233,3.706,4.835,6.1,9.6,8.058a2.237,2.237,0,0,1,1.577,2.564,3.372,3.372,0,0,1-3.306,2.7c-2.951.184-11.93.749-14.85-2a2.526,2.526,0,0,1-.829-2c.021-6.309-3.44-8.67-5.968-10.394-1.817-1.239-2.517-1.815-2.649-2.941-.232-1.974-.691-4.709-1.251-7.806a11.41,11.41,0,0,0-2.113.68c.53,2.946.958,5.515,1.178,7.383.619,5.259,8.632,4.149,8.6,13.071-.025,7.279,12.993,6.518,18.018,6.2,5.654-.355,7.525-7.407,2.426-9.5-3.367-1.381-8.386-3.6-8.242-5.883.088-1.41,1.853-7.718,3.816-13.137q-1.2-.025-2.327-.04C1042.942,857.281,1041.3,863.275,1041.2,864.868Z" transform="translate(-242.561 7.702)" fill="#47280a"/><path d="M1141.943,785.032c-.979-.61-1.429-.394-1.621-.3-1.083.521-2.516,2.816-3.448,7.542a30.982,30.982,0,0,1,3.16,1.429C1142.007,789.972,1143.193,785.812,1141.943,785.032Z" transform="translate(-242.561 7.702)" fill="#fce5c4"/><path d="M1143.107,783.164c3.311,2.065.481,8.488-1.171,11.62q.933.586,1.837,1.267c2.035-3.728,5.513-11.627.5-14.754a5.813,5.813,0,0,0-5.856-.534c-3.137,1.507-4.837,5.8-5.758,10.158.7.183,1.411.391,2.122.617C1136.282,784.244,1139.286,780.78,1143.107,783.164Z" transform="translate(-242.561 7.702)" fill="#47280a"/><path d="M1140.322,784.73c.192-.092.642-.308,1.621.3,1.25.78.064,4.94-1.909,8.669.64.335,1.276.69,1.9,1.083,1.652-3.132,4.482-9.555,1.171-11.62-3.821-2.384-6.825,1.08-8.327,8.374.7.221,1.4.464,2.094.734C1137.806,787.546,1139.239,785.251,1140.322,784.73Z" transform="translate(-242.561 7.702)" fill="#47280a"/><path d="M962.76,832.872c4.728-20.22,1.839-35.864-8.586-46.495a4.128,4.128,0,0,1-.77-1.112c-.1.036-.2.076-.3.11-15.458,5.682-24.162,31-27.022,39.325l-.171.5c-.733,2.126-1.3,4.1-1.855,6.012-2.682,9.278-4.817,16.633-21.314,28.431a146.654,146.654,0,0,0,5.28,17.641c21.458-7.136,32.487-21.96,39.894-31.926,3.34-4.494,5.753-7.741,8.289-9.223a18.307,18.307,0,0,1,6.458-2.434A3.655,3.655,0,0,1,962.76,832.872Z" transform="translate(-242.561 7.702)" fill="#fce5c4"/><path d="M1015.937,836.136c-.032-.187-.061-.342-.088-.473a3.056,3.056,0,0,1-1.334-1.474l1.991-.938h0l1.99-.938a1.692,1.692,0,0,0-1.36-.744c-.009,0-.015,0-.009,0l.009,0,.027,0c1.923,0,2.6,1.525,2.915,2.83l9.8,3.14c-.075-.679-.175-1.4-.31-2.177-1.1-6.361-12.3-17.9-25.507-20.807-7.013-1.545-16.963-1.077-24.557,9.906a16.5,16.5,0,0,0-2.844,8.076,15.684,15.684,0,0,1-.893,3.987,4.685,4.685,0,0,1-.7,1.186c8.145,7.333,7,23.174,6.491,30.233-.179,2.46,2.528,5.983,5.4,9.712,3,3.907,6.4,8.334,8.1,13.39,2.4,7.156,17.587,4.751,24.073,3.725,1.005-.159,1.848-.292,2.475-.368a4.291,4.291,0,0,0,3.725-3.374c.148-1.469-1.28-2.267-2.5-2.677-2.606-.874-15.6-5.5-15.464-10.8.081-3.178,6.267-21.188,9.89-25.617a5.467,5.467,0,0,1,1.383-1.164q-.328-1.764-.675-3.6C1017.27,843.513,1016.56,839.741,1015.937,836.136Z" transform="translate(-242.561 7.702)" fill="#fce5c4"/><path d="M1131.454,826.245a.167.167,0,0,0,.112-.027c.007-.009-.02-.034-.066-.04a.177.177,0,0,0-.112.026l.022.028A.163.163,0,0,0,1131.454,826.245Z" transform="translate(-242.561 7.702)" fill="#fce5c4"/><path d="M1069.707,836.31c-5.008.689-9.436,4.95-13.164,12.661,5.825,2.6,10.062,9.883,12.3,13.743.484.834,1.033,1.781,1.227,2.009,1.234,1.364,2.465,4.778,4.712,11.2.87,2.486,1.77,5.057,2.738,7.63,2.336,6.211,11.027,5.726,18.99,4.783,2.229-.265,3.566-1.243,3.765-2.756a2.147,2.147,0,0,0-.708-2.078c-4.645-1.846-7.149-2.928-10.024-4.875-2.624-1.778-2.589-7.929-1.881-21.54.147-2.833.286-5.509.32-7.613a9.808,9.808,0,0,1,.5-3.044,4.063,4.063,0,0,1-1.045-.842C1085.281,843.134,1077.626,835.226,1069.707,836.31Z" transform="translate(-242.561 7.702)" fill="#fce5c4"/><path d="M1131.409,826.232l-.021-.027a.056.056,0,0,0-.016.018l.005,0A.169.169,0,0,1,1131.409,826.232Z" transform="translate(-242.561 7.702)" fill="#fce5c4"/><path d="M1099.71,838.868a4.1,4.1,0,0,1,.907,2.8c1.341.2,2.581.469,3.614.7l22.071,2.362c.464,0,.928-.005,1.392-.014,10.166-.209,18.722,3.471,32.98,10.011a39.922,39.922,0,0,0,7.563,2.717c-.021-1.694,1.215-3.779,3.29-5.262a8.218,8.218,0,0,1,3.814-1.537,67.859,67.859,0,0,0-7.209-11.3c-.345-.461-.819-1.073-1.394-1.815-4.036-5.213-13.489-17.423-17.837-28.122-3.514-8.643-9.529-12.285-15.664-14.162l-1.253-.148c.008-.067.018-.137.026-.2-1.155-.312-2.309-.575-3.446-.8a89.638,89.638,0,0,1-24.064-9.275l-1.883-1.134c-6.58-3.971-11.794-7.116-28.8-14.441a5.127,5.127,0,0,1-.715,1.486C1069.962,775.089,1062.59,792.892,1099.71,838.868Zm29.4-15.807a3.855,3.855,0,0,1,5.506.794,4.032,4.032,0,0,1-.766,5.506h0a3.826,3.826,0,0,1-2.361.817,3.881,3.881,0,0,1-3.145-1.611A4.032,4.032,0,0,1,1129.107,823.061Zm-33.018-30.186a8.328,8.328,0,0,1,5.847-5.6,6.183,6.183,0,0,1,5.306.681c5.919,3.7,8.1,17.534,8.327,19.1l-4.355.639c-.756-5.139-3.135-14.027-6.306-16.006a1.792,1.792,0,0,0-1.635-.22,3.935,3.935,0,0,0-2.969,2.679c-1.1,3.66,1.962,10.488,8.2,18.264l-3.433,2.756C1099.865,808.675,1094.079,799.54,1096.089,792.875Z" transform="translate(-242.561 7.702)" fill="#fce5c4"/><path d="M1016.506,833.251h0Z" transform="translate(-242.561 7.702)" fill="#fce5c4"/><path d="M1029.022,846.034a16.732,16.732,0,0,0,.852-8.5l-9.8-3.14c.086.359.147.7.2.991.617,3.572,1.324,7.328,2.007,10.961l.535,2.849a44.342,44.342,0,0,1,5.789-.9A6.316,6.316,0,0,1,1029.022,846.034Z" transform="translate(-242.561 7.702)" fill="#fce5c4"/><path d="M1017.163,831.566l-.027,0a1.692,1.692,0,0,1,1.36.744l-1.99.938,3.572,1.146C1019.763,833.091,1019.086,831.566,1017.163,831.566Z" transform="translate(-242.561 7.702)" fill="#fce5c4"/><path d="M1017.136,831.568l-.009,0C1017.121,831.568,1017.127,831.568,1017.136,831.568Z" transform="translate(-242.561 7.702)" fill="#fce5c4"/><path d="M1016.506,833.251l-1.991.938a3.056,3.056,0,0,0,1.334,1.474c.027.131.056.286.088.473.623,3.605,1.333,7.377,2.019,11.026q.345,1.836.675,3.6a10.907,10.907,0,0,1,2.062-.953c-.835-4.471-1.789-9.431-2.587-14.051C1017.54,832.481,1017.135,834.586,1016.506,833.251Z" transform="translate(-242.561 7.702)" fill="#fce5c4"/><path d="M1022.282,846.348c-.683-3.633-1.39-7.389-2.007-10.961-.05-.289-.111-.632-.2-.991l-3.572-1.146h0c.629,1.335,1.034-.77,1.6,2.51.8,4.62,1.752,9.58,2.587,14.051a20.581,20.581,0,0,1,2.124-.615Z" transform="translate(-242.561 7.702)" fill="#fce5c4"/><path d="M1133.237,795.242q-.614-.187-1.227-.352c-.008.067-.018.137-.026.2Z" transform="translate(-242.561 7.702)" fill="#fce5c4"/><path d="M1073.874,766.1a4.648,4.648,0,0,1,.192,1.074l.169.07c19.046,8.191,23.688,11.3,31.294,15.86a88.365,88.365,0,0,0,23.42,9.028c1.078.211,2.2.464,3.342.766.106-.653.228-1.314.367-1.974-1.13-.3-2.244-.544-3.324-.755a86.274,86.274,0,0,1-22.776-8.78l-1.874-1.129c-6.76-4.08-12.1-7.3-29.658-14.854-.73-.314-1.449-.612-2.166-.907A3.623,3.623,0,0,1,1073.874,766.1Z" transform="translate(-242.561 7.702)" fill="#47280a"/><path d="M924.023,824.545c2.672-7.754,11.705-34.913,28.4-41.048l.594-.221a4.171,4.171,0,0,1,.106-.763,4.124,4.124,0,0,1,.92-1.757c-.8.3-1.573.592-2.31.863-17.244,6.339-26.413,33.015-29.426,41.78l-.17.495c-.766,2.221-1.351,4.246-1.917,6.2-2.481,8.586-4.313,14.895-18.387,25.266.144.717.3,1.432.452,2.146C920.864,844.026,919.8,836.813,924.023,824.545Z" transform="translate(-242.561 7.702)" fill="#47280a"/><path d="M1090.415,846.966a7.675,7.675,0,0,0-.432,2.537c-.135,8.505-1.942,25.686.683,27.464s4.852,2.77,9.641,4.672c2.785,1.107,3.506,7.844-3.561,8.681s-18.069,1.987-21.1-6.065-5.552-16.522-7.066-18.2c-1.348-1.489-6.282-12.8-13.34-15.475a4.047,4.047,0,0,1-2.138.813l-3.427.157c-.046.122-.091.247-.137.37.947.026,1.913.054,2.921.089,5.661.194,10.565,8.646,12.921,12.707a17.55,17.55,0,0,0,1.716,2.68c.755.835,2.5,5.829,3.908,9.84.837,2.391,1.785,5.1,2.77,7.718,3.635,9.666,16.367,8.159,23.206,7.347,4.1-.485,6.816-2.806,7.262-6.209.363-2.78-.981-5.436-3.2-6.317-4.736-1.881-6.764-2.8-9.126-4.381-1.1-1.9-.556-12.422-.261-18.107.149-2.87.29-5.581.324-7.758a4.017,4.017,0,0,1,1.091-3.052l-1.666.386A4.032,4.032,0,0,1,1090.415,846.966Z" transform="translate(-242.561 7.702)" fill="#47280a"/><path d="M1140.943,796.538h-.007a24.906,24.906,0,0,1,9.818,12.114c4.846,11.921,16.152,25.724,18.978,29.488,2.1,2.8,6.2,8.478,7.925,12.845a2.518,2.518,0,0,1,.986.83c.776,1.166.479,2.88-.6,4.477a5.481,5.481,0,0,1-4.592,3.49,4.91,4.91,0,0,1-3.849-.04,36.765,36.765,0,0,1-9.763-3.2c-11.682-5.359-19.364-8.71-27.15-9.6l.006.409c.008.516.024,1.062.042,1.62,7.463.925,15.021,4.226,26.268,9.386,8.057,3.7,13.805,4.506,17.568,2.475a7.509,7.509,0,0,0,3.819-5.666c.193-1.268.781-5.126-9.059-18.234-.355-.472-.841-1.1-1.431-1.862-3.935-5.084-13.152-16.989-17.294-27.179a27.215,27.215,0,0,0-8.835-11.846c-.4.733-.745,1.308-.958,1.651Z" transform="translate(-242.561 7.702)" fill="#47280a"/><path d="M951.132,847.742c2.825-3.8,5.264-7.085,7.095-8.154,4.684-2.734,8.241-2.74,12.686-.021,8.321,5.091,7.109,21.795,6.653,28.084-.288,3.98,2.725,7.9,6.214,12.44,2.811,3.658,6,7.8,7.479,12.223,2.051,6.117,8.776,7.692,15.614,7.692a83.5,83.5,0,0,0,12.878-1.286c.948-.15,1.743-.277,2.334-.349a8.306,8.306,0,0,0,7.222-6.942c.315-3.106-1.634-5.676-5.214-6.875-7.811-2.619-12.323-5.846-12.731-6.973.164-2.092,4.968-16.587,8.16-21.908q-.228-1.3-.487-2.718a2.994,2.994,0,0,0-.238.241c-3.365,4.114-9.371,21.752-9.438,24.4s7.234,6.553,14.1,8.854,3.533,9.306-1.615,9.934-25.356,5.227-28.687-4.707-14.041-17.727-13.594-23.882c.527-7.265,1.448-22.6-6.253-28.959a8.2,8.2,0,0,1-4.318-.536c-.482-.155-1.005-.323-1.572-.479-.9-.247-3.013-.836-4.1-2.213a15.906,15.906,0,0,0-6.1,2.252c-7.369,4.3-17.2,30.844-48.477,41.295.239.622.479,1.243.726,1.86C932.032,873.425,943.9,857.467,951.132,847.742Z" transform="translate(-242.561 7.702)" fill="#47280a"/><path d="M1097.709,845.391c.259.011.519.029.78.052-.076-.149-.126-.25-.149-.3A4.035,4.035,0,0,1,1097.709,845.391Z" transform="translate(-242.561 7.702)" fill="#47280a"/><path d="M1029.079,850.421c-.028-.054-.045-.111-.07-.166a43.656,43.656,0,0,0-5.831.887q.18.975.349,1.91a47.633,47.633,0,0,1,7.571-.967A3.273,3.273,0,0,1,1029.079,850.421Z" transform="translate(-242.561 7.702)" fill="#47280a"/><path d="M1044.885,851.83l.02-.058-1,.045Z" transform="translate(-242.561 7.702)" fill="#47280a"/><path d="M1047.286,851.664c-.025.068-.049.137-.074.206q1.133.023,2.328.055c.046-.123.091-.248.137-.37Z" transform="translate(-242.561 7.702)" fill="#47280a"/><path d="M1021.414,853.732c-.115-.634-.232-1.281-.355-1.949a6.066,6.066,0,0,0-2.024,1.172q.26,1.414.487,2.718a10.485,10.485,0,0,1,.824-1.21A2.971,2.971,0,0,1,1021.414,853.732Z" transform="translate(-242.561 7.702)" fill="#47280a"/><path d="M1044.885,851.83q1.129.015,2.327.04c.025-.069.049-.138.074-.206l-2.381.108Z" transform="translate(-242.561 7.702)" fill="#47280a"/><path d="M1023.178,851.142a16.737,16.737,0,0,0-2.119.641c.123.668.24,1.315.355,1.949a11.41,11.41,0,0,1,2.113-.68Q1023.358,852.118,1023.178,851.142Z" transform="translate(-242.561 7.702)" fill="#47280a"/><path d="M1140.936,796.537h.007l-.06-.038Z" transform="translate(-242.561 7.702)" fill="#47280a"/><path d="M1139.077,795.377c.334-.539.654-1.1.957-1.676a30.982,30.982,0,0,0-3.16-1.429c-.124.63-.241,1.3-.345,2.017a27.359,27.359,0,0,1,4.239,2.14Z" transform="translate(-242.561 7.702)" fill="#47280a"/><path d="M1134.419,793.523c.107-.693.23-1.349.361-1.985-.711-.226-1.42-.434-2.122-.617-.139.66-.261,1.321-.367,1.974Q1133.346,793.174,1134.419,793.523Z" transform="translate(-242.561 7.702)" fill="#47280a"/><path d="M1140.946,796.538h0l1.872,1.164c.213-.343.558-.918.958-1.651q-.9-.681-1.837-1.267C1141.373,795.852,1140.946,796.538,1140.946,796.538Z" transform="translate(-242.561 7.702)" fill="#47280a"/><path d="M1139.077,795.377l1.691,1.052.115.071.06.038h0s.427-.686.99-1.754c-.626-.393-1.262-.748-1.9-1.083C1139.731,794.275,1139.411,794.838,1139.077,795.377Z" transform="translate(-242.561 7.702)" fill="#47280a"/><path d="M1136.874,792.272c-.7-.27-1.4-.513-2.094-.734-.131.636-.254,1.292-.361,1.985.7.229,1.405.481,2.11.766C1136.633,793.571,1136.75,792.9,1136.874,792.272Z" transform="translate(-242.561 7.702)" fill="#47280a"/><path d="M924.06,831.209c.551-1.911,1.122-3.886,1.855-6.012l.171-.5c2.86-8.321,11.564-33.643,27.022-39.325.1-.034.2-.074.3-.11a4.079,4.079,0,0,1-.392-1.989l-.594.221c-16.69,6.135-25.723,33.294-28.4,41.048-4.226,12.268-3.159,19.481-21.743,32.965.153.71.3,1.423.466,2.13C919.243,847.842,921.378,840.487,924.06,831.209Z" transform="translate(-242.561 7.702)" fill="#47280a"/><path d="M1088.483,846.427a9.808,9.808,0,0,0-.5,3.044c-.034,2.1-.173,4.78-.32,7.613-.708,13.611-.743,19.762,1.881,21.54,2.875,1.947,5.379,3.029,10.024,4.875a2.147,2.147,0,0,1,.708,2.078c-.2,1.513-1.536,2.491-3.765,2.756-7.963.943-16.654,1.428-18.99-4.783-.968-2.573-1.868-5.144-2.738-7.63-2.247-6.419-3.478-9.833-4.712-11.2-.194-.228-.743-1.175-1.227-2.009-2.239-3.86-6.476-11.143-12.3-13.743-.017.035-.034.067-.051.1a4.144,4.144,0,0,1-1.25,1.512c7.058,2.678,11.992,13.986,13.34,15.475,1.514,1.673,4.038,10.143,7.066,18.2s14.032,6.9,21.1,6.065,6.346-7.574,3.561-8.681c-4.789-1.9-7.016-2.894-9.641-4.672s-.818-18.959-.683-27.464a7.675,7.675,0,0,1,.432-2.537A4.033,4.033,0,0,1,1088.483,846.427Z" transform="translate(-242.561 7.702)" fill="#47280a"/><path d="M956.209,836.132c-2.536,1.482-4.949,4.729-8.289,9.223-7.407,9.966-18.436,24.79-39.894,31.926.232.628.475,1.251.715,1.875,31.282-10.451,41.108-36.993,48.477-41.295a15.906,15.906,0,0,1,6.1-2.252,2.986,2.986,0,0,1-.656-1.911A18.307,18.307,0,0,0,956.209,836.132Z" transform="translate(-242.561 7.702)" fill="#47280a"/><path d="M1100.587,841.976l3.644.39c-1.033-.234-2.273-.5-3.614-.7C1100.611,841.767,1100.6,841.872,1100.587,841.976Z" transform="translate(-242.561 7.702)" fill="#47280a"/><path d="M1175.789,858.577a9.036,9.036,0,0,1-2.338,1.2,5.481,5.481,0,0,0,4.592-3.49A9.148,9.148,0,0,1,1175.789,858.577Z" transform="translate(-242.561 7.702)" fill="#47280a"/><path d="M1134.169,795.351l-.932-.109c6.135,1.877,12.15,5.519,15.664,14.162,4.348,10.7,13.8,22.909,17.837,28.122.575.742,1.049,1.354,1.394,1.815a67.859,67.859,0,0,1,7.209,11.3,4.094,4.094,0,0,1,2.316.341c-1.723-4.367-5.824-10.048-7.925-12.845-2.826-3.764-14.132-17.567-18.978-29.488a24.906,24.906,0,0,0-9.818-12.114l-6.767-1.185Z" transform="translate(-242.561 7.702)" fill="#47280a"/><path d="M1168.673,858.942a2.726,2.726,0,0,1-.436-1.5,39.922,39.922,0,0,1-7.563-2.717c-14.258-6.54-22.814-10.22-32.98-10.011-.464.009-.928.012-1.392.014l6.364.681.023,1.539c7.786.886,15.468,4.237,27.15,9.6a36.765,36.765,0,0,0,9.763,3.2A2.513,2.513,0,0,1,1168.673,858.942Z" transform="translate(-242.561 7.702)" fill="#47280a"/><path d="M1073.821,769.242c17,7.325,22.216,10.47,28.8,14.441l1.883,1.134a89.638,89.638,0,0,0,24.064,9.275c1.137.223,2.291.486,3.446.8.079-.65.171-1.317.281-1.995-1.142-.3-2.264-.555-3.342-.766a88.365,88.365,0,0,1-23.42-9.028c-7.606-4.562-12.248-7.669-31.294-15.86l-.169-.07A5.806,5.806,0,0,1,1073.821,769.242Z" transform="translate(-242.561 7.702)" fill="#47280a"/><path d="M1017.248,851.929c-3.623,4.429-9.809,22.439-9.89,25.617-.134,5.3,12.858,9.928,15.464,10.8,1.224.41,2.652,1.208,2.5,2.677a4.291,4.291,0,0,1-3.725,3.374c-.627.076-1.47.209-2.475.368-6.486,1.026-21.673,3.431-24.073-3.725-1.7-5.056-5.1-9.483-8.1-13.39-2.867-3.729-5.574-7.252-5.4-9.712.512-7.059,1.654-22.9-6.491-30.233a3.258,3.258,0,0,1-1.758,1.13c7.7,6.358,6.78,21.694,6.253,28.959-.447,6.155,10.263,13.948,13.594,23.882s23.538,5.334,28.687,4.707,8.479-7.634,1.615-9.934-14.167-6.205-14.1-8.854,6.073-20.287,9.438-24.4a2.994,2.994,0,0,1,.238-.241c-.13-.713-.265-1.445-.4-2.19A5.467,5.467,0,0,0,1017.248,851.929Z" transform="translate(-242.561 7.702)" fill="#47280a"/><path d="M1028.606,848.3a44.342,44.342,0,0,0-5.789.9q.184.988.361,1.945a43.656,43.656,0,0,1,5.831-.887A4.689,4.689,0,0,1,1028.606,848.3Z" transform="translate(-242.561 7.702)" fill="#47280a"/><path d="M1021.059,851.783q-.179-.966-.366-1.971a10.907,10.907,0,0,0-2.062.953c.139.745.274,1.477.4,2.19A6.066,6.066,0,0,1,1021.059,851.783Z" transform="translate(-242.561 7.702)" fill="#47280a"/><path d="M1022.817,849.2a20.581,20.581,0,0,0-2.124.615q.188,1,.366,1.971a16.737,16.737,0,0,1,2.119-.641Q1023,850.185,1022.817,849.2Z" transform="translate(-242.561 7.702)" fill="#47280a"/><path d="M1140.768,796.429a27.359,27.359,0,0,0-4.239-2.14c-.062.425-.12.863-.174,1.32l-2.186-.258h0l6.767,1.185-.053-.037Z" transform="translate(-242.561 7.702)" fill="#47280a"/><path d="M1133.237,795.242l.932.109q.111-.944.25-1.828-1.072-.351-2.128-.628c-.11.678-.2,1.345-.281,1.995Q1132.623,795.055,1133.237,795.242Z" transform="translate(-242.561 7.702)" fill="#47280a"/><path d="M1140.768,796.429l.115.071Z" transform="translate(-242.561 7.702)" fill="#47280a"/><path d="M1136.355,795.609c.054-.457.112-.9.174-1.32-.705-.285-1.409-.537-2.11-.766q-.138.885-.25,1.828Z" transform="translate(-242.561 7.702)" fill="#47280a"/><path d="M1130.94,830.14a3.88,3.88,0,0,0,.546.039,3.826,3.826,0,0,0,2.361-.817h0a4.032,4.032,0,0,0,.766-5.506,3.855,3.855,0,0,0-5.506-.794,4.032,4.032,0,0,0-.766,5.507A3.856,3.856,0,0,0,1130.94,830.14Zm.56-3.962c.046.006.073.031.066.04a.167.167,0,0,1-.112.027.163.163,0,0,1-.044-.013l-.022-.028A.177.177,0,0,1,1131.5,826.178Zm-.112.027.021.027a.169.169,0,0,0-.032-.012l-.005,0A.056.056,0,0,1,1131.388,826.205Z" transform="translate(-242.561 7.702)" fill="#47280a"/><path d="M1108.507,812.41c-6.241-7.776-9.308-14.6-8.2-18.264a3.935,3.935,0,0,1,2.969-2.679,1.792,1.792,0,0,1,1.635.22c3.171,1.979,5.55,10.867,6.306,16.006l4.355-.639c-.229-1.566-2.408-15.4-8.327-19.1a6.183,6.183,0,0,0-5.306-.681,8.328,8.328,0,0,0-5.847,5.6c-2.01,6.665,3.776,15.8,8.985,22.291Z" transform="translate(-242.561 7.702)" fill="#47280a"/><path d="M1168.237,857.442c3.61.831,5.508.374,6.436-.126a3.511,3.511,0,0,0,1.763-2.747,2.747,2.747,0,1,0-4.909-2.389C1169.452,853.663,1168.216,855.748,1168.237,857.442Z" transform="translate(-242.561 7.702)" fill="#47280a"/><path d="M1169.6,859.741a4.91,4.91,0,0,0,3.849.04A12.76,12.76,0,0,1,1169.6,859.741Z" transform="translate(-242.561 7.702)" fill="#47280a"/><path d="M1178.414,854.871a6.946,6.946,0,0,1-.371,1.42c1.079-1.6,1.376-3.311.6-4.477a2.518,2.518,0,0,0-.986-.83A8.1,8.1,0,0,1,1178.414,854.871Z" transform="translate(-242.561 7.702)" fill="#47280a"/><path d="M1175.341,850.643a8.221,8.221,0,0,1,1.1,3.926,3.511,3.511,0,0,1-1.763,2.747c-.928.5-2.826.957-6.436.126a2.726,2.726,0,0,0,.436,1.5,2.513,2.513,0,0,0,.929.8,12.76,12.76,0,0,0,3.849.04,9.036,9.036,0,0,0,2.338-1.2,9.148,9.148,0,0,0,2.254-2.286,6.946,6.946,0,0,0,.371-1.42,8.1,8.1,0,0,0-.757-3.887A4.094,4.094,0,0,0,1175.341,850.643Z" transform="translate(-242.561 7.702)" fill="#47280a"/><path d="M1119.325,868.334a11.838,11.838,0,0,1,3.061,5.037c.723,1.964,1.053,2.861,3.83,3.393,7.337,1.406,11.374.927,13.02-1.556a17.822,17.822,0,0,0-3.237-3.03,25.627,25.627,0,0,1-4.029-3.743c-2.772-3.518-3.457-14.217-3.626-19.061l-6.912-.74a111.43,111.43,0,0,1-13.517-1.446l-3.73-.4C1107.2,852.294,1113.33,862.74,1119.325,868.334Z" transform="translate(-242.561 7.702)" fill="#fce5c4"/><path d="M1107.915,847.188a111.43,111.43,0,0,0,13.517,1.446Z" transform="translate(-242.561 7.702)" fill="#fce5c4"/><path d="M1133.7,867.074c2.544,3.229,9.108,6.4,7.566,9.037-2.328,3.982-7.779,4.287-15.463,2.815-6.539-1.253-4.238-5.494-7.978-8.983-7.119-6.642-14.254-19.554-16.662-24.127-.85-.157-1.763-.295-2.673-.373,1.24,2.448,9.427,18.266,17.834,26.109a7.7,7.7,0,0,1,1.932,3.34c.852,2.314,1.913,5.195,7.133,6.2a41.03,41.03,0,0,0,7.559.851c4.206,0,8.1-1.088,10.218-4.717,1.95-3.336-1.571-6.181-4.4-8.467a22.9,22.9,0,0,1-3.338-3.043c-1.586-2.013-2.481-10.483-2.691-16.735-.734-.091-1.468-.153-2.2-.2C1130.669,852.734,1131.266,863.985,1133.7,867.074Z" transform="translate(-242.561 7.702)" fill="#47280a"/><path d="M1104.645,842.46l.317.072a103.566,103.566,0,0,0,21.34,2.2l-22.071-2.362Z" transform="translate(-242.561 7.702)" fill="#47280a"/><path d="M1132.689,846.948a36.6,36.6,0,0,0-4.951-.234c-1.18.026-2.352.025-3.51.005l6.267.671s.008.522.038,1.39c.736.044,1.47.106,2.2.2-.018-.558-.034-1.1-.042-1.62Z" transform="translate(-242.561 7.702)" fill="#47280a"/><path d="M1100.307,844.16l5.41.579c-.428-.088-.836-.174-1.2-.256-1.175-.266-2.78-.645-4.5-.885a4.033,4.033,0,0,1-1.684,1.549c.023.046.073.147.149.3.91.078,1.823.216,2.673.373C1100.612,844.771,1100.307,844.16,1100.307,844.16Z" transform="translate(-242.561 7.702)" fill="#47280a"/><path d="M1126.3,844.728a103.566,103.566,0,0,1-21.34-2.2l-.317-.072-.414-.094-3.644-.39a4.152,4.152,0,0,1-.188.834,4.2,4.2,0,0,1-.375.788c1.716.24,3.321.619,4.5.885.361.082.769.168,1.2.256l18.511,1.98c1.158.02,2.33.021,3.51-.005a36.6,36.6,0,0,1,4.951.234l-.023-1.539Z" transform="translate(-242.561 7.702)" fill="#47280a"/><path d="M1121.432,848.634l6.912.74c.169,4.844.854,15.543,3.626,19.061a25.627,25.627,0,0,0,4.029,3.743,17.822,17.822,0,0,1,3.237,3.03c-1.646,2.483-5.683,2.962-13.02,1.556-2.777-.532-3.107-1.429-3.83-3.393a11.838,11.838,0,0,0-3.061-5.037c-5.995-5.594-12.128-16.04-15.14-21.546l3.73.4c-1.436-.247-2.735-.5-3.838-.753l-.321-.073c-.7-.16-1.6-.364-2.594-.546,2.408,4.573,9.543,17.485,16.662,24.127,3.74,3.489,1.439,7.73,7.978,8.983,7.684,1.472,13.135,1.167,15.463-2.815,1.542-2.639-5.022-5.808-7.566-9.037-2.433-3.089-3.03-14.34-3.166-18.294-.912-.055-1.826-.084-2.752-.066C1125.653,848.763,1123.521,848.728,1121.432,848.634Z" transform="translate(-242.561 7.702)" fill="#47280a"/><path d="M1100.307,844.16s.305.611.855,1.656c.989.182,1.893.386,2.594.546l.321.073c1.1.25,2.4.506,3.838.753l13.517,1.446c2.089.094,4.221.129,6.349.08.926-.018,1.84.011,2.752.066-.03-.868-.038-1.39-.038-1.39l-6.267-.671a106.662,106.662,0,0,1-18.511-1.98Z" transform="translate(-242.561 7.702)" fill="#47280a"/><path d="M1124.228,846.719l-18.511-1.98A106.662,106.662,0,0,0,1124.228,846.719Z" transform="translate(-242.561 7.702)" fill="#47280a"/><path d="M967.214,833.142a13.92,13.92,0,0,0,1.373.436c.631.174,1.213.36,1.749.532.468.15,1.058.34,1.463.432a14.921,14.921,0,0,0,.495-2.6,20.79,20.79,0,0,1,3.586-9.992c5.648-8.168,13.461-12.452,22.442-12.452a31.066,31.066,0,0,1,6.681.751c14.447,3.179,27.4,15.7,28.9,24.354a36.115,36.115,0,0,1,.5,4.382l14.131,4.53c.153-.239.3-.462.448-.649l3.477,2.7a9.614,9.614,0,0,0-.888,1.492l1.025-.047c4.406-9.1,9.96-14.165,16.508-15.066,9.938-1.374,18.822,7.565,21.509,10.584l2.432-.563a10.729,10.729,0,0,1,1.975-.458l.983-.228c-37.7-46.833-31.078-66.736-26.47-73.13a1.148,1.148,0,0,0,.133-.418c-2.936-1.041-9.014-3.189-9.9-3.461-3.046-.935-12.522-2.848-13.13-2.962-5.215-.8-14.188-.791-16.81-.772h-.175c-7.243-.119-18.544,3-19.2,3.188-4.235,1.455-16.756,5.856-16.882,5.9-.261.1-14.334,5.574-24.872,9.672-3.941,1.577-7.687,3.065-11.033,4.354C968.8,795.286,972.016,811.928,967.214,833.142Z" transform="translate(-242.561 7.702)" fill="#ea875c"/><path d="M1033.114,847.657a1.367,1.367,0,0,0-.065.217c1.805-.063,7.78-.326,13.6-.589a27.646,27.646,0,0,1,1.89-3.766l-14.131-4.53A19.614,19.614,0,0,1,1033.114,847.657Z" transform="translate(-242.561 7.702)" fill="#ea875c"/><path d="M1049.089,847.175l2.484-.113a9.614,9.614,0,0,1,.888-1.492l-3.477-2.7c-.145.187-.3.41-.448.649l2.187.7A15.92,15.92,0,0,0,1049.089,847.175Z" transform="translate(-242.561 7.702)" fill="#ea875c"/><path d="M1049.089,847.175a15.92,15.92,0,0,1,1.634-2.955l-2.187-.7a27.646,27.646,0,0,0-1.89,3.766Z" transform="translate(-242.561 7.702)" fill="#ea875c"/><path d="M957.622,783.609c.015.015.028.032.042.047,3.346-1.289,7.092-2.777,11.033-4.354Z" transform="translate(-242.561 7.702)" fill="#ea875c"/><path d="M1095.022,841.512a10.729,10.729,0,0,0-1.975.458Z" transform="translate(-242.561 7.702)" fill="#ea875c"/><path d="M1013.675,758.587c14.612-2.937,32.4-5.1,59.185,5.909a3.276,3.276,0,0,0-1.125-.7c-.965-.343-9.458-3.358-10.673-3.732-3.336-1.023-13.38-3.047-13.7-3.1-5.6-.862-14.866-.853-17.571-.833h-.053c-8.282-.139-20.566,3.373-20.672,3.409-4.2,1.445-16.832,5.883-16.925,5.917-.072.023-.1.033-36.393,14.149a4.059,4.059,0,0,0-1.712,1.141c5.083-1.921,11.344-4.433,17.926-7.075C987.664,767.381,1005.458,760.239,1013.675,758.587Z" transform="translate(-242.561 7.702)" fill="#47280a"/><path d="M1093.22,846.329c-.055.044-.094.105-.146.153l4.39-1.018c.084-.019.163-.049.245-.073A6.981,6.981,0,0,0,1093.22,846.329Z" transform="translate(-242.561 7.702)" fill="#47280a"/><path d="M1032.228,852.272v-.007c.081.005.19.008.349.008.9,0,3.407-.1,11.327-.456-5.391-.054-9.567.057-12.807.268.049.014.092.039.142.051Z" transform="translate(-242.561 7.702)" fill="#47280a"/><path d="M1054.509,848.119c-.026.054-.066.1-.1.147a11.2,11.2,0,0,1,2.13.705c3.728-7.711,8.156-11.972,13.164-12.661,7.919-1.084,15.574,6.824,17.731,9.275a4.063,4.063,0,0,0,1.045.842,7.1,7.1,0,0,1,1.012-1.952,1.886,1.886,0,0,1-.405-.344C1085.3,839.821,1067.269,821.577,1054.509,848.119Z" transform="translate(-242.561 7.702)" fill="#47280a"/><path d="M976.656,832.534a16.5,16.5,0,0,1,2.844-8.076c7.594-10.983,17.544-11.451,24.557-9.906,13.207,2.906,24.4,14.446,25.507,20.807.135.776.235,1.5.31,2.177l2.28.731c-.079-1-.214-2.088-.421-3.284-2.3-13.23-35.988-37.889-54.043-11.777-3.775,5.461-2.737,9.51-3.961,12.474a2.11,2.11,0,0,1-.426.675,14.077,14.077,0,0,1,1.764,1.352,4.685,4.685,0,0,0,.7-1.186A15.684,15.684,0,0,0,976.656,832.534Z" transform="translate(-242.561 7.702)" fill="#47280a"/><path d="M1098,840.25a1.889,1.889,0,0,1,.413,1.176c.75.049,1.491.13,2.206.237a4.1,4.1,0,0,0-.907-2.8c-37.12-45.976-29.748-63.779-26.6-68.14a5.127,5.127,0,0,0,.715-1.486l-.376-.162c-.563-.242-1.115-.469-1.669-.7a3.082,3.082,0,0,1-.455,1.06C1067.272,775.057,1060.6,793.93,1098,840.25Z" transform="translate(-242.561 7.702)" fill="#47280a"/><path d="M955.746,784.835a1.907,1.907,0,0,1-.262-.347q-1.075.406-2.08.777a4.128,4.128,0,0,0,.77,1.112c10.425,10.631,13.314,26.275,8.586,46.495a3.655,3.655,0,0,0-.093.826,13.335,13.335,0,0,1,2.015-.157c.072,0,.144.008.215.009a1.058,1.058,0,0,1,.006-.177C967.07,824.1,971.5,800.9,955.746,784.835Z" transform="translate(-242.561 7.702)" fill="#47280a"/><path d="M1029.022,846.034a6.316,6.316,0,0,0-.416,2.262q1.052-.1,2.205-.184a4.038,4.038,0,0,1,.257-1.267,18.162,18.162,0,0,0,1.086-8.578l-2.28-.731A16.732,16.732,0,0,1,1029.022,846.034Z" transform="translate(-242.561 7.702)" fill="#47280a"/><path d="M953.012,783.276c.839-.311,1.708-.637,2.62-.984a1.838,1.838,0,0,1,.869-.609s36.291-14.114,36.338-14.13l.944-.331c5.99-2.278,11.464-4.235,15.739-5.5l.262-.09c.02-.007.461-.133,1.216-.332.829-.229,1.6-.424,2.312-.584,4.166-1.006,11.185-2.47,16.387-2.374h.023a81.9,81.9,0,0,1,16.642.71c.227.031.45.062.666.095l.2.039a97,97,0,0,1,12.083,2.674c.42.111.794.216,1.107.313.12.036.339.109.6.2q4.44,1.353,9.274,3.252l.7.25a1.013,1.013,0,0,1,.138.083c.965.388,1.94.79,2.93,1.215a4.648,4.648,0,0,0-.192-1.074,3.623,3.623,0,0,0-1.014-1.6c-26.782-11.012-44.573-8.846-59.185-5.909-8.217,1.652-26.011,8.794-41.711,15.094-6.582,2.642-12.843,5.154-17.926,7.075a4.124,4.124,0,0,0-.92,1.757A4.171,4.171,0,0,0,953.012,783.276Z" transform="translate(-242.561 7.702)" fill="#47280a"/><path d="M1050.3,849.942c-.207.516-.416,1.055-.625,1.613l3.427-.157a4.047,4.047,0,0,0,2.138-.813,8.443,8.443,0,0,0-2.712-.571C1051.851,849.991,1051.1,849.966,1050.3,849.942Z" transform="translate(-242.561 7.702)" fill="#47280a"/><path d="M1098.337,845.141l-.879-1.765c-.247-.006-.493,0-.738,0l-4.077.945a4.851,4.851,0,0,0-2.228,2.644,4.032,4.032,0,0,0,.993-.1l1.666-.386c.052-.048.091-.109.146-.153a6.981,6.981,0,0,1,4.489-.938,4.035,4.035,0,0,0,.631-.244Z" transform="translate(-242.561 7.702)" fill="#47280a"/><path d="M963.323,835.609c1.083,1.377,3.2,1.966,4.1,2.213.567.156,1.09.324,1.572.479a8.2,8.2,0,0,0,4.318.536,11.677,11.677,0,0,0-1.352-.976A13.144,13.144,0,0,0,963.323,835.609Z" transform="translate(-242.561 7.702)" fill="#47280a"/><path d="M1039.913,849.789c-3.978.174-7.342.316-7.416.3l-.5-.062c-1.024.062-2.022.138-2.986.23.025.055.042.112.07.166a3.273,3.273,0,0,0,2.019,1.664c3.24-.211,7.416-.322,12.807-.268l1-.045c.236-.66.475-1.31.717-1.945C1043.807,849.795,1041.879,849.777,1039.913,849.789Z" transform="translate(-242.561 7.702)" fill="#47280a"/><path d="M1047.96,849.877q-.337.867-.674,1.787l2.391-.109c.209-.558.418-1.1.625-1.613Q1049.193,849.908,1047.96,849.877Z" transform="translate(-242.561 7.702)" fill="#47280a"/><path d="M1045.622,849.827c-.242.635-.481,1.285-.717,1.945l2.381-.108q.335-.918.674-1.787Q1046.832,849.848,1045.622,849.827Z" transform="translate(-242.561 7.702)" fill="#47280a"/><path d="M1056.492,849.073c.017-.035.034-.067.051-.1a11.2,11.2,0,0,0-2.13-.705,1.875,1.875,0,0,1-1.466.937l-2.389.109q-.127.308-.256.63c.8.024,1.549.049,2.228.072a8.443,8.443,0,0,1,2.712.571A4.144,4.144,0,0,0,1056.492,849.073Z" transform="translate(-242.561 7.702)" fill="#47280a"/><path d="M1089.495,844.475a7.1,7.1,0,0,0-1.012,1.952,4.033,4.033,0,0,0,1.932.539,4.851,4.851,0,0,1,2.228-2.644l-1.732.4A1.85,1.85,0,0,1,1089.495,844.475Z" transform="translate(-242.561 7.702)" fill="#47280a"/><path d="M953.4,785.265q1-.371,2.08-.777a1.92,1.92,0,0,1,.148-2.2c-.912.347-1.781.673-2.62.984A4.079,4.079,0,0,0,953.4,785.265Z" transform="translate(-242.561 7.702)" fill="#47280a"/><path d="M975.067,837.707a14.077,14.077,0,0,0-1.764-1.352c-.968,1.007-2.706.059-5.3-.655-1.278-.352-3.206-.91-3.106-2.15-.071,0-.143-.009-.215-.009a13.335,13.335,0,0,0-2.015.157,2.986,2.986,0,0,0,.656,1.911,13.144,13.144,0,0,1,8.634,2.252,11.677,11.677,0,0,1,1.352.976A3.258,3.258,0,0,0,975.067,837.707Z" transform="translate(-242.561 7.702)" fill="#47280a"/><path d="M1011,761.3c.593-.157,1.383-.359,2.312-.584C1012.6,760.875,1011.829,761.07,1011,761.3Z" transform="translate(-242.561 7.702)" fill="#47280a"/><path d="M1071.776,768.381c.554.23,1.106.457,1.669.7l.376.162a5.806,5.806,0,0,0,.245-2.071c-.99-.425-1.965-.827-2.93-1.215C1071.86,766.336,1072.007,767.42,1071.776,768.381Z" transform="translate(-242.561 7.702)" fill="#47280a"/><path d="M1047.226,759.185c1.259.249,8.427,1.7,12.083,2.674A97,97,0,0,0,1047.226,759.185Z" transform="translate(-242.561 7.702)" fill="#47280a"/><path d="M1098.411,841.426a1.826,1.826,0,0,1-.018.315l2.194.235c.013-.1.024-.209.03-.313C1099.9,841.556,1099.161,841.475,1098.411,841.426Z" transform="translate(-242.561 7.702)" fill="#47280a"/><path d="M1096.967,843.32l-.247.057c.245-.005.491-.007.738,0l-.1-.2A1.894,1.894,0,0,1,1096.967,843.32Z" transform="translate(-242.561 7.702)" fill="#47280a"/><path d="M1046.364,759.051a81.9,81.9,0,0,0-16.642-.71A146.84,146.84,0,0,1,1046.364,759.051Z" transform="translate(-242.561 7.702)" fill="#47280a"/><path d="M993.783,767.222c2.945-1.035,12.015-4.218,15.739-5.5C1005.247,762.987,999.773,764.944,993.783,767.222Z" transform="translate(-242.561 7.702)" fill="#47280a"/><path d="M1061.02,762.371c1.955.66,7.35,2.57,9.274,3.252Q1065.458,763.715,1061.02,762.371Z" transform="translate(-242.561 7.702)" fill="#47280a"/><path d="M1039.913,849.789c1.966-.012,3.894.006,5.709.038.038-.1.077-.2.115-.3Z" transform="translate(-242.561 7.702)" fill="#47280a"/><path d="M1030.811,848.112q-1.152.081-2.205.184a4.689,4.689,0,0,0,.4,1.959c.964-.092,1.962-.168,2.986-.23l-.243-.029C1031.015,849.819,1030.772,848.976,1030.811,848.112Z" transform="translate(-242.561 7.702)" fill="#47280a"/><path d="M1047.96,849.877q1.232.03,2.342.065.129-.323.256-.63l-2.419.109Z" transform="translate(-242.561 7.702)" fill="#47280a"/><path d="M1045.737,849.529c-.038.1-.077.2-.115.3q1.209.021,2.338.05l.179-.456Z" transform="translate(-242.561 7.702)" fill="#47280a"/><path d="M1098.337,845.141l0,.006a4.033,4.033,0,0,0,1.684-1.549,22.6,22.6,0,0,0-2.566-.222Z" transform="translate(-242.561 7.702)" fill="#47280a"/><path d="M1100.587,841.976l-2.194-.235a1.887,1.887,0,0,1-1.036,1.432l.1.2a22.6,22.6,0,0,1,2.566.222,4.2,4.2,0,0,0,.375-.788A4.152,4.152,0,0,0,1100.587,841.976Z" transform="translate(-242.561 7.702)" fill="#47280a"/><path d="M1069.106,831.949c-6.548.9-12.1,5.97-16.508,15.066l-1.025.047c-.14.278-.285.583-.432.906.482.015.963.03,1.457.047a9.854,9.854,0,0,1,1.815.251c.03-.05.07-.093.1-.147,12.76-26.542,30.788-8.3,34.581-3.988a1.886,1.886,0,0,0,.405.344,6.792,6.792,0,0,1,1.255-1.293,7.646,7.646,0,0,1,2.3-1.212l-2.432.563C1087.928,839.514,1079.044,830.575,1069.106,831.949Z" transform="translate(-242.561 7.702)" fill="#47280a"/><path d="M1010.451,763.729c.659-.187,11.96-3.307,19.2-3.188h.175c2.622-.019,11.595-.029,16.81.772.608.114,10.084,2.027,13.13,2.962.885.272,6.963,2.42,9.9,3.461a1.148,1.148,0,0,1-.133.418c-4.608,6.394-11.233,26.3,26.47,73.13l-.983.228a16.946,16.946,0,0,1,3.389-.086,1.889,1.889,0,0,0-.413-1.176c-37.4-46.32-30.726-65.193-26.677-70.809a3.082,3.082,0,0,0,.455-1.06c-26-10.79-43.2-8.706-57.312-5.87-7.857,1.578-25.47,8.647-41.01,14.884L968.7,779.3c10.538-4.1,24.611-9.572,24.872-9.672C993.7,769.585,1006.216,765.184,1010.451,763.729Zm86.019,77.448h0Zm-26.2-73.227-.006,0Z" transform="translate(-242.561 7.702)" fill="#47280a"/><path d="M973.729,835.68c1.224-2.964.186-7.013,3.961-12.474,18.055-26.112,51.748-1.453,54.043,11.777.207,1.2.342,2.284.421,3.284l2.251.722a36.115,36.115,0,0,0-.5-4.382c-1.5-8.652-14.451-21.175-28.9-24.354a31.066,31.066,0,0,0-6.681-.751c-8.981,0-16.794,4.284-22.442,12.452a20.79,20.79,0,0,0-3.586,9.992,14.921,14.921,0,0,1-.495,2.6c-.405-.092-.995-.282-1.463-.432-.536-.172-1.118-.358-1.749-.532a13.92,13.92,0,0,1-1.373-.436c4.8-21.214,1.589-37.856-9.55-49.486q-1.122.432-2.18.832a1.907,1.907,0,0,0,.262.347C971.5,800.9,967.07,824.1,964.9,833.373a1.058,1.058,0,0,0-.006.177,15.9,15.9,0,0,1,8.1,2.6c.105.064.2.136.3.2A2.11,2.11,0,0,0,973.729,835.68Z" transform="translate(-242.561 7.702)" fill="#47280a"/><path d="M1031.068,846.845a4.038,4.038,0,0,0-.257,1.267c4.163-.295,9.322-.378,15.6-.262q.118-.286.237-.565c-5.817.263-11.792.526-13.6.589a1.367,1.367,0,0,1,.065-.217,19.614,19.614,0,0,0,1.291-8.668l-2.251-.722A18.162,18.162,0,0,1,1031.068,846.845Z" transform="translate(-242.561 7.702)" fill="#47280a"/><path d="M1048.768,847.9c.774.019,1.567.042,2.373.067.147-.323.292-.628.432-.906l-2.484.113Q1048.93,847.526,1048.768,847.9Z" transform="translate(-242.561 7.702)" fill="#47280a"/><path d="M1046.646,847.285q-.118.279-.237.565,1.155.021,2.359.051.162-.375.321-.726Z" transform="translate(-242.561 7.702)" fill="#47280a"/><path d="M1029.722,758.341h-.023c-5.2-.1-12.221,1.368-16.387,2.374.256-.057.518-.118.758-.166A110.578,110.578,0,0,1,1029.722,758.341Z" transform="translate(-242.561 7.702)" fill="#47280a"/><path d="M1047.03,759.146c-.216-.033-.439-.064-.666-.095.284.041.574.089.862.134Z" transform="translate(-242.561 7.702)" fill="#47280a"/><path d="M1009.784,761.631l-.262.09q.765-.227,1.478-.422C1010.245,761.5,1009.8,761.624,1009.784,761.631Z" transform="translate(-242.561 7.702)" fill="#47280a"/><path d="M992.839,767.553c-.047.016-36.338,14.13-36.338,14.13a1.838,1.838,0,0,0-.869.609c10.477-3.994,25.446-10.238,38.151-15.07Z" transform="translate(-242.561 7.702)" fill="#47280a"/><path d="M1060.416,762.172c-.313-.1-.687-.2-1.107-.313.564.162,1.138.337,1.711.512C1060.755,762.281,1060.536,762.208,1060.416,762.172Z" transform="translate(-242.561 7.702)" fill="#47280a"/><path d="M1096.72,843.377a8.737,8.737,0,0,0-4.077.945Z" transform="translate(-242.561 7.702)" fill="#47280a"/><path d="M1071,765.873l-.7-.25c.28.111.559.219.842.333A1.013,1.013,0,0,0,1071,765.873Z" transform="translate(-242.561 7.702)" fill="#47280a"/><path d="M1032.5,850.087c.074.018,3.438-.124,7.416-.3-2.648.015-5.354.083-7.918.236Z" transform="translate(-242.561 7.702)" fill="#47280a"/><path d="M1097.357,843.173l-.81-1.629,1.846.2a1.826,1.826,0,0,0,.018-.315,16.946,16.946,0,0,0-3.389.086l-1.975.458a7.646,7.646,0,0,0-2.3,1.212,6.792,6.792,0,0,0-1.255,1.293,1.85,1.85,0,0,0,1.416.249l1.732-.4a8.737,8.737,0,0,1,4.077-.945l.247-.057A1.894,1.894,0,0,0,1097.357,843.173Z" transform="translate(-242.561 7.702)" fill="#47280a"/><path d="M1051.141,847.968q-.285.625-.583,1.344l2.389-.109a1.875,1.875,0,0,0,1.466-.937,9.854,9.854,0,0,0-1.815-.251C1052.1,848,1051.623,847.983,1051.141,847.968Z" transform="translate(-242.561 7.702)" fill="#47280a"/><path d="M955.484,784.488q1.06-.4,2.18-.832c-.014-.015-.027-.032-.042-.047L968.7,779.3l4.757-1.907c15.54-6.237,33.153-13.306,41.01-14.884,14.111-2.836,31.314-4.92,57.312,5.87.231-.961.084-2.045-.64-2.425-.283-.114-.562-.222-.842-.333-1.924-.682-7.319-2.592-9.274-3.252-.573-.175-1.147-.35-1.711-.512-3.656-.97-10.824-2.425-12.083-2.674-.288-.045-.578-.093-.862-.134a146.84,146.84,0,0,0-16.642-.71,110.578,110.578,0,0,0-15.652,2.208c-.24.048-.5.109-.758.166-.929.225-1.719.427-2.312.584q-.712.2-1.478.422c-3.724,1.283-12.794,4.466-15.739,5.5-12.705,4.832-27.674,11.076-38.151,15.07A1.92,1.92,0,0,0,955.484,784.488Z" transform="translate(-242.561 7.702)" fill="#47280a"/><path d="M964.9,833.55c-.1,1.24,1.828,1.8,3.106,2.15,2.594.714,4.332,1.662,5.3.655-.1-.066-.2-.138-.3-.2A15.9,15.9,0,0,0,964.9,833.55Z" transform="translate(-242.561 7.702)" fill="#47280a"/><path d="M1030.811,848.112c-.039.864.2,1.707.941,1.884l.243.029c2.564-.153,5.27-.221,7.918-.236l5.824-.26q.334-.867.672-1.679C1040.133,847.734,1034.974,847.817,1030.811,848.112Z" transform="translate(-242.561 7.702)" fill="#47280a"/><path d="M1048.768,847.9c-.208.482-.418.991-.629,1.52l2.419-.109q.3-.717.583-1.344C1050.335,847.943,1049.542,847.92,1048.768,847.9Z" transform="translate(-242.561 7.702)" fill="#47280a"/><path d="M1045.737,849.529l2.4-.108c.211-.529.421-1.038.629-1.52q-1.206-.03-2.359-.051Q1046.071,848.66,1045.737,849.529Z" transform="translate(-242.561 7.702)" fill="#47280a"/><path d="M1097.357,843.173a1.887,1.887,0,0,0,1.036-1.432l-1.846-.2Z" transform="translate(-242.561 7.702)" fill="#47280a"/><path d="M1112.119,895.6c-1.476.035-4.229-1.35-2.92-5.487,1.118-3.532,4.145-7.258,5.007-8.274a.187.187,0,0,1,.337.044c.46,1.387,2.284,7,2.272,8.88A4.887,4.887,0,0,1,1112.119,895.6Z" transform="translate(-242.561 7.702)" fill="#2ba896" stroke="#47280a" stroke-miterlimit="10" stroke-width="3"/><path d="M1114.532,897.151c-1.025,1.063-1.869,4.027,2.063,5.863,3.356,1.567,8.148,1.86,9.48,1.913.173.006.274-.137.2-.278-.71-1.278-3.611-6.422-5-7.683A4.887,4.887,0,0,0,1114.532,897.151Z" transform="translate(-242.561 7.702)" fill="#2ba896" stroke="#47280a" stroke-miterlimit="10" stroke-width="3"/><g transform="translate(-242.561 7.702)"><path d="M1155.109,863.461s4.591,1.093,5.322,1.613.151,5.094-.6,5.782a34.6,34.6,0,0,1-3.644,2.326l-5.374-6.978Z" fill="#ef5542" stroke="#47280a" stroke-miterlimit="10" stroke-width="3"/><path d="M1163.562,875.871a.379.379,0,0,0,.437-.571,15.406,15.406,0,0,0-14.451-6.694c-10.746.894,7.471,10.378,7.471,10.378s3.106-4.009,4.564-3.687A18.521,18.521,0,0,1,1163.562,875.871Z" fill="#ef5542" stroke="#47280a" stroke-miterlimit="10" stroke-width="3"/><path d="M1151.8,857.558a.379.379,0,0,1,.7-.156,15.407,15.407,0,0,1-.015,15.926c-5.338,9.369-6.266-11.148-6.266-11.148s4.945-1.128,5.267-2.586A18.434,18.434,0,0,0,1151.8,857.558Z" fill="#ef5542" stroke="#47280a" stroke-miterlimit="10" stroke-width="3"/><path d="M1161.754,880.512A22.421,22.421,0,0,0,1147.7,872.6a.121.121,0,0,0-.107.039L1136.1,885.59c-.046.052-.2.378-.144.419.744.545,4.432,4.237,10.837.969,5.583-2.849,8.635-7.384,11.468-7.259a7.394,7.394,0,0,1,3.334.966A.118.118,0,0,0,1161.754,880.512Z" fill="#ef5542" stroke="#47280a" stroke-miterlimit="10" stroke-width="3"/><path d="M1145.967,856.467a.059.059,0,0,0-.111.037c.24,1.043.557,3.6-.325,4.79-1.759,2.365-7.828,5.938-9.464,6.924-1.937,1.168-8.3,6.43-2.344,15.134,3.218,4.7,6,4.15,6.73,3.4C1143.58,883.51,1155.4,873.357,1145.967,856.467Z" fill="#ef5542" stroke="#47280a" stroke-miterlimit="10" stroke-width="3"/><line x1="41.262" y2="26.331" transform="translate(1092.461 883.352)" fill="#ef5542" stroke="#47280a" stroke-linecap="round" stroke-miterlimit="10" stroke-width="3"/></g></g></svg>