<svg xmlns="http://www.w3.org/2000/svg" width="322.58" height="322.58" viewBox="0 0 322.58 322.58"><g transform="translate(-1760.194 -737.309)"><g transform="translate(-197.561 70.425)"><circle cx="161.29" cy="161.29" r="161.29" transform="translate(1957.755 666.885)" fill="#f4f5f3"/><circle cx="149.551" cy="149.551" r="149.551" transform="translate(1970.173 678.624)" fill="#fddad3"/></g><g transform="translate(-197.561 70.425)"><path d="M2083.558,863.7c6.922,6.854,18.317,33.581,14.536,42.368-1.58,3.674-.912,10.283,8.881,6.291,3.253-1.326,6.106-8.868,4.256-16.405-.9-3.681.37-19.55,1.356-21.462" fill="#804f21"/><path d="M2101.741,915.825a6.361,6.361,0,0,1-4.747-1.822c-2.272-2.317-2.109-6.1-.939-8.815,3.285-7.635-7.363-33.283-14.059-39.913l3.124-3.155c7.169,7.1,19.325,34.8,15.014,44.823-.646,1.5-.633,3.275.03,3.95.624.637,2.523.814,5.973-.593,1.97-.8,4.564-7.191,2.938-13.82-.934-3.8.174-20.363,1.539-23.009l3.946,2.036c-.718,1.788-1.959,16.711-1.174,19.915,2.136,8.7-1.181,17.2-5.573,18.99A16.463,16.463,0,0,1,2101.741,915.825Z" fill="#47280a"/><path d="M2163.517,878.746s8.449,11.162,9.621,16.466c2.414,10.928-4.719,11.745-4.842,15.076-.089,2.4,1.476,4.206,8.464,2.85s8.836-4.3,9.576-12.437c.938-10.321,0-21.555,5.273-27.568" fill="#804f21"/><path d="M2172.661,915.821a7.3,7.3,0,0,1-4.917-1.448,4.98,4.98,0,0,1-1.667-4.168c.072-1.942,1.322-3.234,2.424-4.374,1.8-1.858,3.834-3.963,2.469-10.139-.876-3.963-6.955-12.609-9.223-15.606l3.54-2.68c.895,1.182,8.778,11.712,10.019,17.327,1.879,8.507-1.559,12.061-3.613,14.185-.465.481-1.169,1.209-1.178,1.451-.006.156-.006.526.116.631.1.088,1.145.844,5.7-.042,5.724-1.111,7.107-2.968,7.789-10.458.21-2.319.327-4.735.44-7.072.41-8.506.8-16.541,5.374-21.758l3.339,2.927c-3.554,4.053-3.906,11.335-4.278,19.045-.115,2.383-.234,4.848-.454,7.26-.749,8.243-2.712,12.736-11.363,14.415A24.026,24.026,0,0,1,2172.661,915.821Z" fill="#47280a"/><path d="M2098.729,904.714c-1.58,3.673-.912,10.282,8.881,6.29,2.94-1.2,5.541-7.476,4.65-14.236-.38-.657-.76-1.249-1.13-1.765-4.941,2.425-12.159.028-12.159.028l0,0C2099.665,899.015,2099.7,902.458,2098.729,904.714Z" fill="#595757"/><path d="M2102.382,914.1a6.008,6.008,0,0,1-4.489-1.711c-2.152-2.194-1.984-5.8-.863-8.409h0c.527-1.227.976-3.719.115-8.63l-.165-.947,1.487-1.488,1.087.357c.062.021,6.573,2.122,10.761.068l1.406-.69.913,1.273c.408.569.821,1.213,1.227,1.914l.185.32.049.366c.937,7.116-1.712,14.531-5.786,16.192A16.127,16.127,0,0,1,2102.382,914.1Zm-1.2-16.622a16.406,16.406,0,0,1-.749,7.964h0c-.624,1.452-.756,3.477.106,4.356.929.949,3.253.763,6.377-.51,1.9-.775,4.235-5.884,3.559-11.916-.02-.033-.041-.066-.06-.1A19.635,19.635,0,0,1,2101.178,897.481Z" fill="#47280a"/><path d="M2112.431,784.14s-9.723-1.029-20.824-10.875-33.9-9.806-48.66-6.517c-11.9,2.652-12.273,4.746-14.246,5.366-4.857,1.526-24.572,2.1-29.6,14.8-2.914,7.355,4.317,24.854,17.083,26.149s18.44-1.171,26.581,12.335,51.188,52.236,66.93,69.936c3.13,3.52,7.94,14.494,5.535,20.846-1.416,3.74-.912,10.282,8.881,6.29,3.253-1.326,6.106-8.868,4.255-16.405-.9-3.681.371-19.55,1.357-21.462s45.576-2.158,56.8-4.008c3.192-.527,11.224,14.863,9.374,25.162s-7.264,8.773-6.784,13.815c.37,3.885,9.713,2.96,14.431,1.48s8.326-18.749,9.066-28.369,6.907-17.515,11.348-26.766,19.55-25.163,14.74-43.479-11.1-18.5-18.132-24.053-23.5-24.607-55.5-18.687S2115.041,784.684,2112.431,784.14Z" fill="#895b31"/><path d="M2118.878,925.942a6.309,6.309,0,0,1-4.6-1.7c-2.415-2.354-2.118-6.236-1.131-8.845,1.968-5.2-2.2-15.3-5.118-18.583-6.084-6.841-16.271-16.84-27.057-27.427-17.208-16.89-35-34.355-40.116-42.839-6.1-10.13-10.046-10.347-18.682-10.823-1.842-.1-3.929-.216-6.221-.449-6.123-.621-11.65-4.507-15.562-10.943-3.833-6.3-5.184-13.632-3.362-18.233,4.515-11.393,19.144-13.931,27-15.295a39.735,39.735,0,0,0,4-.807,4.233,4.233,0,0,0,.93-.529c1.632-1.065,4.362-2.849,13.5-4.885,16.435-3.663,39.287-3.025,50.616,7.023,10.448,9.267,19.493,10.318,19.584,10.328l.219.034c2.147.449,19.773,1.468,51.771-4.45,29.26-5.408,46.273,9.529,54.45,16.709,1.1.962,2.044,1.793,2.836,2.419,1.35,1.066,2.713,1.949,4.03,2.8,5.567,3.607,10.824,7.012,14.873,22.429,3.951,15.044-4.477,28.225-10.631,37.849a75.749,75.749,0,0,0-4.255,7.154c-1.27,2.647-2.676,5.18-4.035,7.629-3.4,6.12-6.605,11.9-7.1,18.347-.022.276-2.492,27.769-10.615,30.317-2.678.84-11.22,2.639-15.218-.014a4.475,4.475,0,0,1-2.088-3.374c-.315-3.3,1.283-4.872,2.693-6.255,1.508-1.48,3.216-3.156,4.115-8.162,1.556-8.661-4.794-21.075-7.16-22.527-5.492.846-17.588,1.349-29.3,1.836-10.068.419-22.411.932-25.738,1.6-.722,3.4-1.721,16.313-1,19.267,2.136,8.7-1.181,17.2-5.573,18.991A16.5,16.5,0,0,1,2118.878,925.942ZM2061.37,766.984a83.971,83.971,0,0,0-17.94,1.931c-8.349,1.861-10.658,3.368-12.037,4.269a7.854,7.854,0,0,1-2.027,1.048,40.158,40.158,0,0,1-4.57.945c-7.494,1.3-20.037,3.476-23.634,12.556-1.274,3.213.028,9.357,3.027,14.291,1.837,3.022,5.867,8.187,12.216,8.832,2.19.222,4.136.329,6.017.433,8.986.495,14.923.822,22.241,12.963,4.824,8,23.2,26.045,39.423,41.964,10.841,10.64,21.081,20.69,27.265,27.643,3.5,3.936,8.773,15.658,5.953,23.108-.623,1.645-.589,3.443.078,4.094.614.6,2.482.743,5.888-.646,1.97-.8,4.564-7.191,2.938-13.82-.934-3.8.174-20.362,1.539-23.008.945-1.831,1.987-2.211,29.323-3.349,11.816-.491,24.034-1,29.089-1.833,1.318-.215,2.678.38,4.051,1.772,4.221,4.282,9.514,16.826,7.87,25.974-1.149,6.4-3.693,8.894-5.376,10.546-1.235,1.213-1.493,1.51-1.383,2.665.678.977,6.538,1.146,11.556-.428,2.454-.769,6.54-13.721,7.517-26.421.57-7.412,4.007-13.6,7.645-20.16,1.329-2.393,2.7-4.868,3.916-7.4a77.969,77.969,0,0,1,4.516-7.625c5.712-8.933,13.534-21.167,10.077-34.33-3.612-13.752-7.751-16.434-12.992-19.829-1.4-.909-2.854-1.849-4.368-3.044-.883-.7-1.87-1.564-3.013-2.568-8.24-7.233-23.575-20.7-50.713-15.678-32.149,5.946-50.283,5.026-53.377,4.452-1.2-.153-10.954-1.655-21.952-11.409C2083.834,769.339,2072.726,766.984,2061.37,766.984Z" fill="#47280a"/><path d="M2020.525,799.008c3.154-5.378,4.521-19.871-.382-22.97-.818-.518-4.467.629-6.675,1.259-5.461,2-10,4.02-12.246,9.679-1.456,3.676-.15,10.291,2.757,15.51a25.206,25.206,0,0,0,3.051,3.486C2008.8,807.546,2017.476,804.207,2020.525,799.008Z" fill="#72492a"/><path d="M2050.788,786.4a3.521,3.521,0,1,1,2.116-.706h0A3.507,3.507,0,0,1,2050.788,786.4Zm-.109-3.664a.182.182,0,0,0-.066.114.178.178,0,0,0,.032.127.181.181,0,0,0,.114.066.167.167,0,0,0,.127-.032Zm.1-.035a.172.172,0,0,0-.1.034l.207.275a.172.172,0,0,0-.1-.309Z" fill="#231815"/><ellipse cx="1.739" cy="0.858" rx="1.739" ry="0.858" transform="translate(2007.538 787.167) rotate(-62.353)" fill="#221714"/><path d="M2008.511,788.356a1.185,1.185,0,0,1-.556-.136h0a1.455,1.455,0,0,1-.7-1.406,3.605,3.605,0,0,1,.432-1.531c.667-1.272,1.744-1.886,2.566-1.455a1.456,1.456,0,0,1,.7,1.407,3.864,3.864,0,0,1-1.444,2.758A1.713,1.713,0,0,1,2008.511,788.356Zm.949-3.01a2.339,2.339,0,0,0-.46.624,2.3,2.3,0,0,0-.25.733,2.32,2.32,0,0,0,.459-.624A2.294,2.294,0,0,0,2009.46,785.346Z" fill="#231815"/><path d="M2067.277,767.165s3.577-7.028,8.387-4.808,4.9,6.522,3.238,8.742-4.949,5.921-7.863,6.2" fill="#895b31"/><path d="M2071.249,779.508l-.42-4.42c1.486-.142,4.017-2.28,6.3-5.32a2.987,2.987,0,0,0,.436-2.482,4.667,4.667,0,0,0-2.828-2.913c-2.775-1.275-5.455,3.753-5.482,3.8l-3.954-2.02c1.572-3.089,5.961-8.28,11.3-5.815a9.037,9.037,0,0,1,5.273,5.856,7.436,7.436,0,0,1-1.189,6.234C2078.815,774.916,2075.112,779.14,2071.249,779.508Z" fill="#47280a"/><path d="M2195.97,900.809a20.02,20.02,0,0,1-.216,4.826c-1.851,10.3-7.265,8.773-6.784,13.814.37,3.886,9.713,2.961,14.431,1.481,3.408-1.07,6.236-10.376,7.823-19.087A66.3,66.3,0,0,1,2195.97,900.809Z" fill="#595757"/><path d="M2195.082,924.066a11.261,11.261,0,0,1-6.029-1.34,4.119,4.119,0,0,1-1.925-3.1c-.3-3.128,1.233-4.631,2.585-5.957,1.47-1.443,3.3-3.238,4.22-8.361a18.181,18.181,0,0,0,.19-4.376l-.153-2.345,2.315.4A65,65,0,0,0,2211.079,900l2.4-.187-.43,2.363c-1.557,8.549-4.4,19.049-9.089,20.521A32.03,32.03,0,0,1,2195.082,924.066Zm2.784-21.079a19.758,19.758,0,0,1-.291,2.974c-1.129,6.284-3.621,8.73-5.271,10.348-1.214,1.192-1.623,1.593-1.493,2.965.007.075.018.189.289.369,1.848,1.226,7.832.751,11.747-.479,1.331-.418,3.97-4.873,6.115-15.363A68.24,68.24,0,0,1,2197.866,902.987Z" fill="#47280a"/><path d="M2173.8,898.029c.357,7.708-5.211,8.694-5.32,11.635-.089,2.4,1.476,4.206,8.465,2.849s8.835-4.295,9.575-12.436c.046-.508.085-1.019.123-1.53A83.227,83.227,0,0,1,2173.8,898.029Z" fill="#595757"/><path d="M2172.849,915.2a7.3,7.3,0,0,1-4.918-1.447,4.979,4.979,0,0,1-1.666-4.168c.072-1.942,1.32-3.234,2.421-4.374,1.514-1.568,3.079-3.189,2.9-7.076l-.119-2.577,2.566.266a81.065,81.065,0,0,0,12.457.513l2.559-.181-.188,2.558c-.039.524-.078,1.048-.126,1.569-.749,8.242-2.712,12.734-11.363,14.414A24.106,24.106,0,0,1,2172.849,915.2Zm3.094-14.732a12.576,12.576,0,0,1-4.063,7.828c-.465.482-1.169,1.209-1.178,1.454-.006.154-.006.524.116.629.1.09,1.149.844,5.706-.042,5.466-1.061,6.974-2.8,7.692-9.479C2181.534,900.887,2178.55,900.691,2175.943,900.464Z" fill="#47280a"/><path d="M2114.5,905.559v0c1.073,3.69,1.488,7.572.386,10.484-1.416,3.74-.913,10.282,8.881,6.291,3.253-1.326,6.1-8.869,4.255-16.4a13.22,13.22,0,0,1-.263-2.307h0C2123.4,906.4,2114.5,905.559,2114.5,905.559Z" fill="#595757"/><path d="M2118.543,925.436a5.962,5.962,0,0,1-4.344-1.6c-2.286-2.23-1.991-5.945-1.042-8.449.829-2.191.675-5.5-.433-9.313l-.2-.7.89-1.781,1.264.117c2.3.217,8.96.341,12.089-1.654l2.689-1.713.154,3.184a11.128,11.128,0,0,0,.212,1.955c2.058,8.384-1.188,16.862-5.354,18.56A16.13,16.13,0,0,1,2118.543,925.436Zm-1.651-17.911c.589,2.891.816,6.293-.275,9.175-.58,1.532-.719,3.626.165,4.489.918.895,3.208.687,6.287-.567,2.125-.866,4.857-7.326,3.157-14.251l0-.012A29.728,29.728,0,0,1,2116.892,907.525Z" fill="#47280a"/><line x2="14.288" y2="0.523" transform="translate(2133.796 802.28)" fill="#804f21"/><rect width="2.961" height="14.298" transform="translate(2133.742 803.759) rotate(-87.903)" fill="#47280a"/><line x2="14.288" y2="0.523" transform="translate(2149.833 813.056)" fill="#804f21"/><rect width="2.961" height="14.298" transform="translate(2149.779 814.535) rotate(-87.903)" fill="#47280a"/><line x2="11.707" y2="0.974" transform="translate(2171.798 798.794)" fill="#804f21"/><rect width="2.96" height="11.748" transform="matrix(0.083, -0.997, 0.997, 0.083, 2171.675, 800.269)" fill="#47280a"/></g><g transform="translate(-197.561 70.425)"><path d="M2039.169,907.418s-9.044,1.59-8.365,5.733c.448,2.732,4.9,14.828,8.272,21.2,1.695,3.2,5.616.986,9.59-1.955,0,0,18.347,17.386,34.28-3.109,11.18-14.38-6.45-44.44-21.645-41.449C2046.365,890.773,2039.9,893.613,2039.169,907.418Z" fill="#ef5542" stroke="#47280a" stroke-miterlimit="10" stroke-width="3"/><line x2="8.916" y2="21.573" transform="translate(2069.568 898.55)" fill="#ef5542" stroke="#47280a" stroke-miterlimit="10" stroke-width="4"/><circle cx="2.965" cy="2.965" r="2.965" transform="translate(2066.198 894.536)" fill="#47280a"/><circle cx="2.979" cy="2.979" r="2.979" transform="translate(2075.91 918.147)" fill="#47280a"/><path d="M2040.787,913.621s2.005,8.153,5.935,13.668" fill="#fff" stroke="#47280a" stroke-linecap="round" stroke-miterlimit="10" stroke-width="3"/></g><g transform="translate(-197.561 70.425)"><rect width="47.021" height="5.25" rx="1.573" transform="matrix(-0.979, -0.203, 0.203, -0.979, 2158.395, 953.857)" fill="#c69c6d" stroke="#47280a" stroke-miterlimit="10" stroke-width="3"/><rect width="20" height="18" rx="9" transform="matrix(-0.979, -0.203, 0.203, -0.979, 2112.285, 950.074)" fill="#fff" stroke="#47280a" stroke-miterlimit="10" stroke-width="3"/></g></g></svg>