<svg xmlns="http://www.w3.org/2000/svg" width="322.58" height="322.58" viewBox="0 0 322.58 322.58"><g transform="translate(-690.57 -716.836)"><g transform="translate(-197.561 70.425)"><circle cx="161.29" cy="161.29" r="161.29" transform="translate(888.131 646.411)" fill="#f4f5f3"/><circle cx="149.551" cy="149.551" r="149.551" transform="translate(900.549 658.15)" fill="#fddad3"/></g><g transform="translate(-197.561 70.425)"><path d="M1010.3,841.107c6.922,6.853,18.317,33.58,14.536,42.368-1.581,3.673-.912,10.282,8.881,6.29,3.253-1.326,6.1-8.868,4.255-16.405-.9-3.681.37-19.55,1.357-21.462" fill="#804f21"/><path d="M1028.484,893.234a6.36,6.36,0,0,1-4.748-1.822c-2.271-2.317-2.108-6.1-.939-8.815,3.285-7.635-7.363-33.283-14.058-39.913l3.124-3.155c7.169,7.1,19.325,34.8,15.013,44.823-.646,1.5-.633,3.275.031,3.95.624.637,2.523.814,5.972-.593,1.971-.8,4.565-7.191,2.938-13.82-.933-3.8.174-20.363,1.54-23.008l3.946,2.035c-.718,1.788-1.96,16.711-1.174,19.915,2.136,8.7-1.181,17.2-5.573,18.99A16.468,16.468,0,0,1,1028.484,893.234Z" fill="#47280a"/><path d="M1090.26,856.155s8.449,11.162,9.62,16.466c2.415,10.928-4.718,11.746-4.842,15.076-.088,2.4,1.477,4.206,8.465,2.85s8.835-4.3,9.575-12.437c.939-10.321,0-21.554,5.273-27.568" fill="#804f21"/><path d="M1099.4,893.23a7.285,7.285,0,0,1-4.916-1.448,4.977,4.977,0,0,1-1.667-4.168c.072-1.942,1.321-3.234,2.424-4.373,1.8-1.859,3.833-3.964,2.468-10.14-.875-3.963-6.954-12.609-9.222-15.606l3.539-2.68c.9,1.182,8.779,11.712,10.02,17.327,1.879,8.507-1.559,12.061-3.613,14.185-.466.482-1.17,1.209-1.178,1.452-.006.155-.006.525.116.63.1.089,1.145.845,5.7-.042,5.724-1.111,7.107-2.968,7.788-10.458.211-2.319.328-4.735.44-7.072.411-8.506.8-16.541,5.375-21.758l3.339,2.927c-3.554,4.053-3.906,11.335-4.278,19.045-.115,2.384-.234,4.848-.454,7.26-.75,8.243-2.713,12.736-11.364,14.415A24.018,24.018,0,0,1,1099.4,893.23Z" fill="#47280a"/><path d="M1025.472,882.123c-1.581,3.674-.912,10.282,8.881,6.291,2.94-1.2,5.54-7.477,4.65-14.237-.381-.657-.761-1.249-1.13-1.765-4.941,2.425-12.159.028-12.159.028l0,0C1026.408,876.424,1026.443,879.867,1025.472,882.123Z" fill="#595757"/><path d="M1029.125,891.512a6.012,6.012,0,0,1-4.49-1.711c-2.151-2.194-1.983-5.8-.863-8.409h0c.528-1.227.977-3.719.116-8.63l-.165-.947,1.487-1.488,1.087.357c.062.021,6.572,2.122,10.761.068l1.406-.69.913,1.273c.407.569.821,1.213,1.227,1.914l.185.32.048.366c.938,7.116-1.712,14.531-5.785,16.192A16.131,16.131,0,0,1,1029.125,891.512Zm-1.2-16.622a16.413,16.413,0,0,1-.749,7.965h0c-.624,1.451-.756,3.477.106,4.355.929.949,3.253.763,6.377-.51,1.9-.775,4.234-5.884,3.559-11.916q-.031-.05-.06-.1A19.636,19.636,0,0,1,1027.921,874.89Z" fill="#47280a"/><path d="M1039.173,761.549s-9.723-1.029-20.824-10.875-33.9-9.806-48.659-6.517c-11.9,2.652-12.273,4.746-14.247,5.366-4.856,1.526-24.571,2.1-29.6,14.8-2.914,7.355,4.317,24.854,17.083,26.149s18.44-1.171,26.581,12.335,51.188,52.237,66.93,69.937c3.13,3.519,7.94,14.493,5.535,20.845-1.416,3.74-.913,10.282,8.881,6.291,3.253-1.326,6.105-8.869,4.255-16.4-.9-3.682.37-19.551,1.357-21.462s45.576-2.159,56.8-4.009c3.193-.526,11.225,14.863,9.375,25.162s-7.265,8.773-6.784,13.815c.37,3.885,9.713,2.96,14.431,1.48s8.326-18.748,9.066-28.369,6.907-17.515,11.348-26.766,19.55-25.163,14.739-43.479-11.1-18.5-18.131-24.053-23.5-24.607-55.506-18.686S1041.783,762.093,1039.173,761.549Z" fill="#895b31"/><path d="M1045.621,903.351a6.307,6.307,0,0,1-4.6-1.7c-2.415-2.354-2.119-6.236-1.132-8.844,1.969-5.2-2.2-15.3-5.117-18.584-6.085-6.841-16.272-16.84-27.058-27.426-17.208-16.891-35-34.356-40.115-42.84-6.106-10.13-10.047-10.347-18.683-10.823-1.841-.1-3.928-.216-6.22-.449-6.124-.62-11.65-4.507-15.562-10.942-3.834-6.306-5.185-13.633-3.362-18.234,4.515-11.393,19.144-13.931,27-15.295a39.333,39.333,0,0,0,4-.807,4.254,4.254,0,0,0,.931-.529c1.632-1.065,4.362-2.849,13.5-4.885,16.435-3.663,39.286-3.025,50.616,7.023,10.447,9.267,19.493,10.318,19.583,10.328l.219.034c2.148.449,19.773,1.468,51.772-4.45,29.26-5.407,46.272,9.529,54.45,16.709,1.1.962,2.043,1.794,2.835,2.419,1.351,1.066,2.713,1.949,4.031,2.8,5.566,3.607,10.824,7.012,14.872,22.429,3.951,15.044-4.476,28.225-10.63,37.85a75.213,75.213,0,0,0-4.255,7.153c-1.271,2.647-2.676,5.18-4.035,7.629-3.4,6.12-6.6,11.9-7.1,18.347-.021.276-2.492,27.769-10.614,30.317-2.678.84-11.22,2.639-15.218-.014a4.473,4.473,0,0,1-2.089-3.374c-.314-3.3,1.284-4.872,2.694-6.255,1.507-1.48,3.216-3.156,4.115-8.162,1.556-8.661-4.794-21.075-7.16-22.527-5.492.846-17.588,1.349-29.3,1.836-10.068.419-22.411.933-25.738,1.6-.722,3.4-1.721,16.314-1,19.267,2.136,8.7-1.181,17.2-5.573,18.991A16.494,16.494,0,0,1,1045.621,903.351ZM988.113,744.393a83.915,83.915,0,0,0-17.941,1.932c-8.349,1.86-10.657,3.368-12.036,4.268a7.856,7.856,0,0,1-2.027,1.048,40.19,40.19,0,0,1-4.571.945c-7.494,1.3-20.036,3.476-23.634,12.556-1.273,3.213.029,9.357,3.028,14.291,1.837,3.022,5.867,8.187,12.216,8.832,2.19.222,4.136.329,6.017.433,8.986.495,14.923.822,22.241,12.963,4.823,8,23.205,26.045,39.423,41.964,10.841,10.64,21.081,20.69,27.265,27.644,3.5,3.935,8.773,15.657,5.952,23.107-.623,1.645-.588,3.443.079,4.094.614.6,2.482.743,5.887-.646,1.971-.8,4.565-7.191,2.938-13.82-.934-3.8.174-20.362,1.54-23.008.945-1.831,1.987-2.211,29.323-3.349,11.816-.491,24.033-1,29.089-1.832,1.318-.216,2.677.379,4.051,1.771,4.221,4.282,9.514,16.826,7.87,25.974-1.15,6.4-3.693,8.9-5.376,10.546-1.235,1.213-1.493,1.51-1.384,2.665.679.977,6.539,1.147,11.557-.427,2.454-.77,6.54-13.721,7.517-26.422.57-7.412,4.007-13.6,7.645-20.16,1.328-2.393,2.7-4.868,3.916-7.4a77.6,77.6,0,0,1,4.516-7.625c5.712-8.933,13.534-21.167,10.077-34.33-3.612-13.752-7.751-16.434-12.992-19.828-1.4-.91-2.854-1.85-4.369-3.045-.882-.7-1.869-1.564-3.013-2.567-8.239-7.234-23.574-20.7-50.712-15.679-32.15,5.946-50.283,5.026-53.377,4.452-1.2-.153-10.954-1.655-21.952-11.409C1010.577,746.748,999.469,744.393,988.113,744.393Z" fill="#47280a"/><path d="M947.268,776.417c3.154-5.377,4.521-19.871-.382-22.97-.819-.518-4.467.629-6.676,1.26-5.46,2-10,4.019-12.245,9.678-1.457,3.676-.15,10.291,2.756,15.51a25.278,25.278,0,0,0,3.052,3.486C935.54,784.955,944.219,781.616,947.268,776.417Z" fill="#72492a"/><path d="M977.53,763.81a3.525,3.525,0,1,1,2.116-.707h0A3.508,3.508,0,0,1,977.53,763.81Zm-.108-3.665a.172.172,0,0,0-.034.241.178.178,0,0,0,.113.066.171.171,0,0,0,.128-.032Zm.1-.034a.165.165,0,0,0-.1.034l.206.274a.171.171,0,0,0-.1-.308Z" fill="#231815"/><ellipse cx="1.739" cy="0.858" rx="1.739" ry="0.858" transform="translate(934.281 764.576) rotate(-62.353)" fill="#221714"/><path d="M935.254,765.765a1.191,1.191,0,0,1-.557-.136h0a1.454,1.454,0,0,1-.7-1.405,3.589,3.589,0,0,1,.432-1.532c.667-1.272,1.744-1.885,2.566-1.455a1.456,1.456,0,0,1,.7,1.407,3.86,3.86,0,0,1-1.445,2.758A1.707,1.707,0,0,1,935.254,765.765Zm.949-3.01a2.333,2.333,0,0,0-.46.624,2.287,2.287,0,0,0-.251.733,2.538,2.538,0,0,0,.711-1.357Z" fill="#231815"/><path d="M994.02,744.574s3.577-7.028,8.387-4.808,4.9,6.522,3.238,8.742-4.949,5.921-7.863,6.2" fill="#895b31"/><path d="M997.992,756.917l-.421-4.42c1.486-.142,4.017-2.28,6.3-5.32a2.99,2.99,0,0,0,.436-2.482,4.672,4.672,0,0,0-2.828-2.913c-2.775-1.275-5.456,3.753-5.482,3.8l-3.955-2.02c1.573-3.089,5.961-8.28,11.3-5.815a9.035,9.035,0,0,1,5.273,5.856,7.433,7.433,0,0,1-1.189,6.234C1005.558,752.325,1001.854,756.549,997.992,756.917Z" fill="#47280a"/><path d="M1122.713,878.219a20.026,20.026,0,0,1-.217,4.825c-1.85,10.3-7.264,8.773-6.784,13.815.37,3.885,9.714,2.96,14.432,1.48,3.408-1.069,6.235-10.375,7.823-19.087A66.355,66.355,0,0,1,1122.713,878.219Z" fill="#595757"/><path d="M1121.824,901.475a11.255,11.255,0,0,1-6.028-1.34,4.115,4.115,0,0,1-1.925-3.1c-.3-3.128,1.233-4.631,2.584-5.957,1.47-1.443,3.3-3.238,4.22-8.36a18.18,18.18,0,0,0,.191-4.377l-.153-2.345,2.315.4a65,65,0,0,0,14.794,1.012l2.4-.187-.43,2.364c-1.557,8.548-4.4,19.048-9.089,20.52A32.037,32.037,0,0,1,1121.824,901.475Zm2.784-21.079a19.676,19.676,0,0,1-.29,2.975c-1.129,6.283-3.622,8.729-5.271,10.348-1.214,1.191-1.623,1.592-1.493,2.964.007.075.018.19.288.369,1.848,1.226,7.833.751,11.748-.479,1.331-.417,3.969-4.873,6.114-15.363A68.131,68.131,0,0,1,1124.608,880.4Z" fill="#47280a"/><path d="M1100.546,875.438c.356,7.708-5.211,8.7-5.32,11.635-.089,2.4,1.476,4.206,8.464,2.849s8.836-4.295,9.576-12.436c.046-.508.084-1.019.122-1.53A83.209,83.209,0,0,1,1100.546,875.438Z" fill="#595757"/><path d="M1099.591,892.606a7.3,7.3,0,0,1-4.917-1.448,4.981,4.981,0,0,1-1.667-4.168c.073-1.942,1.321-3.234,2.421-4.374,1.515-1.568,3.08-3.189,2.9-7.075l-.119-2.578,2.566.266a81.061,81.061,0,0,0,12.457.513l2.558-.181-.187,2.558c-.039.524-.079,1.048-.126,1.569-.749,8.242-2.713,12.734-11.364,14.414A24.108,24.108,0,0,1,1099.591,892.606Zm3.1-14.733a12.576,12.576,0,0,1-4.063,7.828c-.466.482-1.17,1.21-1.178,1.454-.006.154-.006.524.116.629.1.09,1.149.844,5.706-.042,5.466-1.061,6.974-2.8,7.691-9.479C1108.276,878.3,1105.293,878.1,1102.686,877.873Z" fill="#47280a"/><path d="M1041.244,882.968v0c1.072,3.69,1.488,7.572.385,10.484-1.416,3.74-.912,10.282,8.881,6.291,3.253-1.326,6.106-8.869,4.256-16.4a13.22,13.22,0,0,1-.263-2.307h0C1050.137,883.814,1041.244,882.968,1041.244,882.968Z" fill="#595757"/><path d="M1045.286,902.845a5.956,5.956,0,0,1-4.344-1.6c-2.287-2.23-1.991-5.945-1.043-8.448.83-2.192.676-5.5-.432-9.313l-.2-.7.89-1.781,1.263.117c2.3.217,8.961.341,12.09-1.654l2.689-1.713.154,3.184a11.172,11.172,0,0,0,.211,1.955c2.059,8.384-1.187,16.862-5.354,18.56A16.1,16.1,0,0,1,1045.286,902.845Zm-1.651-17.91c.589,2.89.816,6.292-.275,9.174-.581,1.532-.719,3.626.165,4.489.917.895,3.208.687,6.287-.567,2.125-.866,4.857-7.325,3.157-14.251l0-.012A29.731,29.731,0,0,1,1043.635,884.935Z" fill="#47280a"/><line x2="14.288" y2="0.523" transform="translate(1060.539 779.689)" fill="#804f21"/><rect width="2.961" height="14.298" transform="translate(1060.485 781.169) rotate(-87.903)" fill="#47280a"/><line x2="14.288" y2="0.523" transform="translate(1076.575 790.465)" fill="#804f21"/><rect width="2.961" height="14.298" transform="translate(1076.521 791.944) rotate(-87.903)" fill="#47280a"/><line x2="11.707" y2="0.974" transform="translate(1098.541 776.204)" fill="#804f21"/><rect width="2.96" height="11.748" transform="matrix(0.083, -0.997, 0.997, 0.083, 1098.418, 777.679)" fill="#47280a"/></g><g transform="translate(-197.561 70.425)"><path d="M1022.766,904.049c1.477.035,4.229-1.35,2.92-5.487-1.117-3.532-4.144-7.258-5.007-8.274a.187.187,0,0,0-.337.044c-.46,1.387-2.283,7.005-2.272,8.88A4.887,4.887,0,0,0,1022.766,904.049Z" fill="#2ba896" stroke="#47280a" stroke-miterlimit="10" stroke-width="3"/><path d="M1020.354,905.6c1.025,1.063,1.868,4.027-2.064,5.863-3.356,1.567-8.148,1.86-9.48,1.913-.172.006-.273-.137-.2-.278.71-1.278,3.611-6.422,5-7.683A4.889,4.889,0,0,1,1020.354,905.6Z" fill="#2ba896" stroke="#47280a" stroke-miterlimit="10" stroke-width="3"/><path d="M979.776,871.914s-4.591,1.093-5.322,1.613-.15,5.094.6,5.782a34.533,34.533,0,0,0,3.644,2.326l5.374-6.978Z" fill="#ef5542" stroke="#47280a" stroke-miterlimit="10" stroke-width="3"/><path d="M971.324,884.324a.379.379,0,0,1-.438-.571,15.406,15.406,0,0,1,14.451-6.694c10.746.894-7.471,10.378-7.471,10.378s-3.106-4.009-4.564-3.687A18.438,18.438,0,0,0,971.324,884.324Z" fill="#ef5542" stroke="#47280a" stroke-miterlimit="10" stroke-width="3"/><path d="M983.084,866.011a.379.379,0,0,0-.7-.156,15.407,15.407,0,0,0,.015,15.926c5.338,9.369,6.266-11.148,6.266-11.148s-4.945-1.128-5.267-2.586A18.669,18.669,0,0,1,983.084,866.011Z" fill="#ef5542" stroke="#47280a" stroke-miterlimit="10" stroke-width="3"/><path d="M973.131,888.965a22.421,22.421,0,0,1,14.054-7.908.12.12,0,0,1,.107.039l11.49,12.947c.046.052.2.378.145.419-.745.545-4.433,4.237-10.838.969-5.582-2.849-8.635-7.384-11.468-7.259a7.394,7.394,0,0,0-3.334.966A.118.118,0,0,1,973.131,888.965Z" fill="#ef5542" stroke="#47280a" stroke-miterlimit="10" stroke-width="3"/><path d="M988.918,864.92a.059.059,0,0,1,.111.037c-.239,1.043-.557,3.6.326,4.79,1.758,2.365,7.827,5.938,9.463,6.924,1.938,1.168,8.3,6.43,2.344,15.134-3.218,4.7-6,4.151-6.73,3.4C991.306,891.963,979.482,881.81,988.918,864.92Z" fill="#ef5542" stroke="#47280a" stroke-miterlimit="10" stroke-width="3"/><line x2="41.262" y2="26.331" transform="translate(1001.162 891.805)" fill="#ef5542" stroke="#47280a" stroke-linecap="round" stroke-miterlimit="10" stroke-width="3"/></g></g></svg>