<svg xmlns="http://www.w3.org/2000/svg" width="322.58" height="322.58" viewBox="0 0 322.58 322.58"><g transform="translate(-1713.871 -672.658)"><circle cx="161.29" cy="161.29" r="161.29" transform="translate(1713.871 672.658)" fill="#f4f5f3"/><circle cx="149.551" cy="149.551" r="149.551" transform="translate(1725.61 684.397)" fill="#fddad3"/><path d="M2117.042,678.447c-81.5,0-147.8,66.3-147.8,147.8a147.935,147.935,0,0,0,2.886,29.118c14.075-10.371,15.907-16.68,18.388-25.266.566-1.958,1.151-3.983,1.916-6.2l.17-.495c3.014-8.765,12.182-35.441,29.426-41.78.737-.271,1.512-.561,2.311-.863a4.06,4.06,0,0,1,1.712-1.141c36.294-14.116,36.321-14.126,36.392-14.149.094-.034,12.724-4.472,16.926-5.917.106-.036,12.39-3.548,20.671-3.409h.054c2.705-.02,11.973-.029,17.571.833.317.048,10.362,2.072,13.7,3.1,1.216.374,9.709,3.389,10.674,3.732a3.288,3.288,0,0,1,1.125.7c.716.3,1.436.593,2.165.907,17.559,7.552,22.9,10.774,29.659,14.854l1.874,1.129a86.27,86.27,0,0,0,22.776,8.78c1.08.211,2.194.46,3.324.755.921-4.354,2.621-8.651,5.758-10.158a5.813,5.813,0,0,1,5.856.534c5.014,3.127,1.536,11.026-.5,14.754a27.205,27.205,0,0,1,8.834,11.846c4.142,10.19,13.359,22.1,17.3,27.179.589.762,1.076,1.39,1.43,1.862,9.841,13.108,9.253,16.966,9.059,18.234a7.507,7.507,0,0,1-3.819,5.666c-3.763,2.031-9.51,1.221-17.567-2.475-11.247-5.16-18.805-8.461-26.268-9.386.21,6.252,1.1,14.722,2.69,16.735a22.994,22.994,0,0,0,3.338,3.043c2.829,2.286,6.35,5.131,4.4,8.467-2.122,3.629-6.012,4.717-10.218,4.717a41.01,41.01,0,0,1-7.559-.851c-5.22-1-6.281-3.882-7.133-6.2a7.7,7.7,0,0,0-1.933-3.34c-8.407-7.843-16.593-23.661-17.833-26.109-.262-.023-.522-.041-.78-.052-.082.024-.161.054-.245.073l-4.39,1.018a4.018,4.018,0,0,0-1.091,3.052c-.034,2.177-.175,4.888-.324,7.758-.3,5.685-.842,16.2.26,18.107,2.363,1.584,4.391,2.5,9.126,4.381,2.217.881,3.562,3.537,3.2,6.317-.446,3.4-3.161,5.724-7.262,6.209-6.838.812-19.57,2.319-23.206-7.347-.984-2.617-1.932-5.327-2.77-7.718-1.4-4.011-3.152-9.005-3.907-9.84a17.477,17.477,0,0,1-1.716-2.68c-2.356-4.061-7.26-12.513-12.921-12.707-1.009-.035-1.974-.063-2.921-.089a96.842,96.842,0,0,0-3.935,13.081c.233.4,1.371,1.593,6.868,3.848a6.623,6.623,0,0,1,4.249,7.351,7.792,7.792,0,0,1-7.372,6.379c-1.716.108-3.475.186-5.205.186-5.169,0-10.095-.7-12.94-3.376a6.96,6.96,0,0,1-2.212-5.216c.013-3.973-1.778-5.2-4.046-6.742-1.854-1.266-4.162-2.84-4.541-6.064-.174-1.479-.491-3.451-.884-5.7-3.192,5.321-8,19.816-8.16,21.908.407,1.127,4.919,4.354,12.731,6.973,3.579,1.2,5.529,3.769,5.214,6.875a8.307,8.307,0,0,1-7.223,6.942c-.59.072-1.385.2-2.333.349a83.507,83.507,0,0,1-12.879,1.286c-6.837,0-13.562-1.575-15.613-7.692-1.482-4.42-4.668-8.565-7.479-12.223-3.489-4.539-6.5-8.46-6.214-12.44.456-6.289,1.668-22.993-6.653-28.084-4.445-2.719-8-2.713-12.686.021-1.831,1.069-4.271,4.352-7.1,8.154-7.227,9.725-19.1,25.683-41.664,33.274a148.033,148.033,0,0,0,137.272,93.028c81.5,0,147.8-66.3,147.8-147.8S2198.539,678.447,2117.042,678.447Z" transform="translate(-242.561 7.702)" fill="none"/><path d="M2102.881,852.273c-.16,0-.269,0-.349-.008v.007l-.989-.136c-.049-.012-.093-.037-.141-.051a47.664,47.664,0,0,0-7.572.967c.56,3.1,1.019,5.832,1.251,7.806.133,1.126.832,1.7,2.65,2.941,2.527,1.724,5.989,4.085,5.968,10.394a2.523,2.523,0,0,0,.829,2c2.919,2.751,11.9,2.186,14.85,2a3.37,3.37,0,0,0,3.3-2.7,2.235,2.235,0,0,0-1.576-2.564c-4.769-1.955-9.837-4.352-9.6-8.058.1-1.593,1.744-7.587,3.686-13.038l-.98-.013C2106.287,852.175,2103.781,852.273,2102.881,852.273Z" transform="translate(-242.561 7.702)" fill="#fce5c4"/><path d="M2113.7,865.007c-.143,2.279,4.876,4.5,8.243,5.883,5.1,2.091,3.228,9.143-2.426,9.5-5.025.316-18.043,1.077-18.018-6.2.029-8.922-7.984-7.812-8.6-13.071-.22-1.868-.648-4.437-1.179-7.383a2.982,2.982,0,0,0-1.068.731,10.648,10.648,0,0,0-.823,1.21c.393,2.248.71,4.22.884,5.7.379,3.224,2.687,4.8,4.541,6.064,2.268,1.547,4.059,2.769,4.046,6.742a6.96,6.96,0,0,0,2.212,5.216c2.845,2.68,7.771,3.376,12.94,3.376,1.73,0,3.489-.078,5.205-.186a7.792,7.792,0,0,0,7.372-6.379,6.623,6.623,0,0,0-4.249-7.351c-5.5-2.255-6.635-3.447-6.868-3.848a96.842,96.842,0,0,1,3.935-13.081q-1.2-.031-2.328-.055C2115.551,857.289,2113.787,863.6,2113.7,865.007Z" transform="translate(-242.561 7.702)" fill="#47280a"/><path d="M2111.5,864.868c-.232,3.706,4.836,6.1,9.6,8.058a2.235,2.235,0,0,1,1.576,2.564,3.37,3.37,0,0,1-3.3,2.7c-2.951.184-11.931.749-14.85-2a2.523,2.523,0,0,1-.829-2c.021-6.309-3.441-8.67-5.968-10.394-1.818-1.239-2.517-1.815-2.65-2.941-.232-1.974-.691-4.709-1.251-7.806a11.406,11.406,0,0,0-2.113.68c.531,2.946.959,5.515,1.179,7.383.618,5.259,8.631,4.149,8.6,13.071-.025,7.279,12.993,6.518,18.018,6.2,5.654-.355,7.525-7.407,2.426-9.5-3.367-1.381-8.386-3.6-8.243-5.883.089-1.41,1.853-7.718,3.817-13.137q-1.2-.025-2.328-.04C2113.245,857.281,2111.6,863.275,2111.5,864.868Z" transform="translate(-242.561 7.702)" fill="#47280a"/><path d="M2212.245,785.032c-.978-.61-1.428-.394-1.62-.3-1.084.521-2.516,2.816-3.448,7.542a30.956,30.956,0,0,1,3.16,1.429C2212.309,789.972,2213.5,785.812,2212.245,785.032Z" transform="translate(-242.561 7.702)" fill="#fce5c4"/><path d="M2213.41,783.164c3.311,2.065.481,8.488-1.171,11.62q.932.586,1.837,1.267c2.035-3.728,5.513-11.627.5-14.754a5.813,5.813,0,0,0-5.856-.534c-3.137,1.507-4.837,5.8-5.758,10.158.7.183,1.411.391,2.122.617C2206.585,784.244,2209.588,780.78,2213.41,783.164Z" transform="translate(-242.561 7.702)" fill="#47280a"/><path d="M2210.625,784.73c.192-.092.642-.308,1.62.3,1.251.78.064,4.94-1.908,8.669.64.335,1.275.69,1.9,1.083,1.652-3.132,4.482-9.555,1.171-11.62-3.822-2.384-6.825,1.08-8.327,8.374.7.221,1.4.464,2.094.734C2208.109,787.546,2209.541,785.251,2210.625,784.73Z" transform="translate(-242.561 7.702)" fill="#47280a"/><path d="M2201.712,826.232l-.022-.027a.058.058,0,0,0-.015.018l0,0A.193.193,0,0,1,2201.712,826.232Z" transform="translate(-242.561 7.702)" fill="#fce5c4"/><path d="M2170.013,838.868a4.091,4.091,0,0,1,.906,2.8c1.342.2,2.582.469,3.614.7l22.072,2.362c.464,0,.928-.005,1.392-.014,10.166-.209,18.722,3.471,32.98,10.011a39.894,39.894,0,0,0,7.563,2.717c-.021-1.694,1.214-3.779,3.29-5.262a8.218,8.218,0,0,1,3.814-1.537,67.875,67.875,0,0,0-7.209-11.3c-.345-.461-.82-1.073-1.394-1.815C2233,832.313,2223.552,820.1,2219.2,809.4c-3.513-8.643-9.528-12.285-15.663-14.162l-1.253-.148c.007-.067.017-.137.026-.2-1.156-.312-2.31-.575-3.446-.8a89.611,89.611,0,0,1-24.064-9.275l-1.884-1.134c-6.579-3.971-11.794-7.116-28.8-14.441a5.077,5.077,0,0,1-.715,1.486C2140.265,775.089,2132.893,792.892,2170.013,838.868Zm29.4-15.807a3.855,3.855,0,0,1,5.506.794,4.032,4.032,0,0,1-.766,5.506h0a3.827,3.827,0,0,1-2.361.817,3.881,3.881,0,0,1-3.145-1.611A4.031,4.031,0,0,1,2199.41,823.061Zm-33.018-30.186a8.325,8.325,0,0,1,5.847-5.6,6.18,6.18,0,0,1,5.3.681c5.92,3.7,8.1,17.534,8.328,19.1l-4.355.639c-.756-5.139-3.135-14.027-6.306-16.006a1.794,1.794,0,0,0-1.636-.22,3.934,3.934,0,0,0-2.969,2.679c-1.1,3.66,1.963,10.488,8.2,18.264l-3.432,2.756C2170.168,808.675,2164.381,799.54,2166.392,792.875Z" transform="translate(-242.561 7.702)" fill="#fce5c4"/><path d="M2086.24,836.136c-.032-.187-.062-.342-.089-.473a3.067,3.067,0,0,1-1.334-1.474l1.991-.938h0l1.99-.938a1.694,1.694,0,0,0-1.36-.744c-.009,0-.015,0-.009,0l.009,0,.027,0c1.922,0,2.6,1.525,2.914,2.83l9.8,3.14c-.074-.679-.174-1.4-.309-2.177-1.1-6.361-12.3-17.9-25.508-20.807-7.012-1.545-16.962-1.077-24.556,9.906a16.5,16.5,0,0,0-2.844,8.076,15.686,15.686,0,0,1-.893,3.987,4.685,4.685,0,0,1-.7,1.186c8.145,7.333,7,23.174,6.49,30.233-.178,2.46,2.529,5.983,5.395,9.712,3,3.907,6.406,8.334,8.1,13.39,2.4,7.156,17.588,4.751,24.073,3.725,1.006-.159,1.849-.292,2.475-.368a4.289,4.289,0,0,0,3.725-3.374c.149-1.469-1.279-2.267-2.5-2.677-2.606-.874-15.6-5.5-15.464-10.8.081-3.178,6.267-21.188,9.89-25.617a5.446,5.446,0,0,1,1.383-1.164q-.328-1.764-.675-3.6C2087.573,843.513,2086.863,839.741,2086.24,836.136Z" transform="translate(-242.561 7.702)" fill="#fce5c4"/><path d="M2201.756,826.245a.168.168,0,0,0,.113-.027c.007-.009-.021-.034-.066-.04a.175.175,0,0,0-.112.026l.022.028A.171.171,0,0,0,2201.756,826.245Z" transform="translate(-242.561 7.702)" fill="#fce5c4"/><path d="M2033.062,832.872c4.729-20.22,1.84-35.864-8.585-46.495a4.126,4.126,0,0,1-.77-1.112c-.1.036-.2.076-.3.11-15.459,5.682-24.162,31-27.022,39.325l-.171.5c-.733,2.126-1.3,4.1-1.856,6.012-2.681,9.278-4.816,16.633-21.313,28.431a146.676,146.676,0,0,0,5.28,17.641c21.458-7.136,32.487-21.96,39.894-31.926,3.339-4.494,5.752-7.741,8.289-9.223a18.32,18.32,0,0,1,6.458-2.434A3.716,3.716,0,0,1,2033.062,832.872Z" transform="translate(-242.561 7.702)" fill="#fce5c4"/><path d="M2140.009,836.31c-5.007.689-9.435,4.95-13.163,12.661,5.825,2.6,10.061,9.883,12.3,13.743.485.834,1.034,1.781,1.227,2.009,1.235,1.364,2.465,4.778,4.712,11.2.871,2.486,1.77,5.057,2.738,7.63,2.337,6.211,11.028,5.726,18.991,4.783,2.229-.265,3.566-1.243,3.764-2.756a2.145,2.145,0,0,0-.707-2.078c-4.645-1.846-7.149-2.928-10.024-4.875-2.625-1.778-2.589-7.929-1.881-21.54.147-2.833.286-5.509.319-7.613a9.877,9.877,0,0,1,.5-3.044,4.058,4.058,0,0,1-1.044-.842C2155.583,843.134,2147.929,835.226,2140.009,836.31Z" transform="translate(-242.561 7.702)" fill="#fce5c4"/><path d="M2086.808,833.251h0Z" transform="translate(-242.561 7.702)" fill="#fce5c4"/><path d="M2099.325,846.034a16.721,16.721,0,0,0,.851-8.5l-9.8-3.14c.087.359.148.7.2.991.617,3.572,1.323,7.328,2.007,10.961q.272,1.446.534,2.849a44.388,44.388,0,0,1,5.79-.9A6.316,6.316,0,0,1,2099.325,846.034Z" transform="translate(-242.561 7.702)" fill="#fce5c4"/><path d="M2086.808,833.251l-1.991.938a3.067,3.067,0,0,0,1.334,1.474c.027.131.057.286.089.473.623,3.605,1.333,7.377,2.019,11.026q.345,1.836.675,3.6a10.839,10.839,0,0,1,2.062-.953c-.836-4.471-1.789-9.431-2.587-14.051C2087.842,832.481,2087.438,834.586,2086.808,833.251Z" transform="translate(-242.561 7.702)" fill="#fce5c4"/><path d="M2087.439,831.568l-.009,0C2087.424,831.568,2087.43,831.568,2087.439,831.568Z" transform="translate(-242.561 7.702)" fill="#fce5c4"/><path d="M2087.466,831.566l-.027,0a1.694,1.694,0,0,1,1.36.744l-1.99.938,3.571,1.146C2090.065,833.091,2089.388,831.566,2087.466,831.566Z" transform="translate(-242.561 7.702)" fill="#fce5c4"/><path d="M2092.585,846.348c-.684-3.633-1.39-7.389-2.007-10.961-.05-.289-.111-.632-.2-.991l-3.571-1.146h0c.63,1.335,1.034-.77,1.6,2.51.8,4.62,1.751,9.58,2.587,14.051a20.479,20.479,0,0,1,2.123-.615Q2092.857,847.792,2092.585,846.348Z" transform="translate(-242.561 7.702)" fill="#fce5c4"/><path d="M2203.54,795.242q-.613-.187-1.227-.352c-.009.067-.019.137-.026.2Z" transform="translate(-242.561 7.702)" fill="#fce5c4"/><path d="M2144.177,766.1a4.641,4.641,0,0,1,.192,1.074l.169.07c19.045,8.191,23.688,11.3,31.294,15.86a88.352,88.352,0,0,0,23.42,9.028c1.078.211,2.2.464,3.342.766.106-.653.228-1.314.367-1.974-1.13-.3-2.244-.544-3.324-.755a86.27,86.27,0,0,1-22.776-8.78l-1.874-1.129c-6.76-4.08-12.1-7.3-29.659-14.854-.729-.314-1.449-.612-2.165-.907A3.619,3.619,0,0,1,2144.177,766.1Z" transform="translate(-242.561 7.702)" fill="#47280a"/><path d="M2160.718,846.966a7.653,7.653,0,0,0-.432,2.537c-.135,8.505-1.942,25.686.683,27.464s4.852,2.77,9.641,4.672c2.785,1.107,3.506,7.844-3.561,8.681s-18.07,1.987-21.1-6.065-5.552-16.522-7.066-18.2c-1.348-1.489-6.282-12.8-13.34-15.475a4.047,4.047,0,0,1-2.138.813l-3.428.157-.136.37c.947.026,1.912.054,2.921.089,5.661.194,10.565,8.646,12.921,12.707a17.477,17.477,0,0,0,1.716,2.68c.755.835,2.5,5.829,3.907,9.84.838,2.391,1.786,5.1,2.77,7.718,3.636,9.666,16.368,8.159,23.206,7.347,4.1-.485,6.816-2.806,7.262-6.209.364-2.78-.981-5.436-3.2-6.317-4.735-1.881-6.763-2.8-9.126-4.381-1.1-1.9-.556-12.422-.26-18.107.149-2.87.29-5.581.324-7.758a4.018,4.018,0,0,1,1.091-3.052l-1.666.386A4.031,4.031,0,0,1,2160.718,846.966Z" transform="translate(-242.561 7.702)" fill="#47280a"/><path d="M2211.246,796.538h-.007a24.9,24.9,0,0,1,9.818,12.114c4.845,11.921,16.151,25.724,18.978,29.488,2.1,2.8,6.2,8.478,7.925,12.845a2.52,2.52,0,0,1,.986.83c.776,1.166.479,2.88-.6,4.477a5.479,5.479,0,0,1-4.592,3.49,4.908,4.908,0,0,1-3.848-.04,36.766,36.766,0,0,1-9.763-3.2c-11.682-5.359-19.364-8.71-27.15-9.6l.006.409c.008.516.023,1.062.042,1.62,7.463.925,15.021,4.226,26.268,9.386,8.057,3.7,13.8,4.506,17.567,2.475a7.507,7.507,0,0,0,3.819-5.666c.194-1.268.782-5.126-9.059-18.234-.354-.472-.841-1.1-1.43-1.862-3.936-5.084-13.153-16.989-17.3-27.179a27.205,27.205,0,0,0-8.834-11.846c-.4.733-.745,1.308-.958,1.651Z" transform="translate(-242.561 7.702)" fill="#47280a"/><path d="M1994.326,824.545c2.672-7.754,11.7-34.913,28.394-41.048l.595-.221a4.172,4.172,0,0,1,.106-.763,4.1,4.1,0,0,1,.92-1.757c-.8.3-1.574.592-2.311.863-17.244,6.339-26.412,33.015-29.426,41.78l-.17.495c-.765,2.221-1.35,4.246-1.916,6.2-2.481,8.586-4.313,14.895-18.388,25.266.145.717.3,1.432.452,2.146C1991.166,844.026,1990.1,836.813,1994.326,824.545Z" transform="translate(-242.561 7.702)" fill="#47280a"/><path d="M2168.012,845.391c.258.011.518.029.78.052-.076-.149-.127-.25-.149-.3A4.046,4.046,0,0,1,2168.012,845.391Z" transform="translate(-242.561 7.702)" fill="#47280a"/><path d="M2021.434,847.742c2.825-3.8,5.265-7.085,7.1-8.154,4.684-2.734,8.241-2.74,12.686-.021,8.321,5.091,7.109,21.795,6.653,28.084-.289,3.98,2.725,7.9,6.214,12.44,2.811,3.658,6,7.8,7.479,12.223,2.051,6.117,8.776,7.692,15.613,7.692a83.507,83.507,0,0,0,12.879-1.286c.948-.15,1.743-.277,2.333-.349a8.307,8.307,0,0,0,7.223-6.942c.315-3.106-1.635-5.676-5.214-6.875-7.812-2.619-12.324-5.846-12.731-6.973.164-2.092,4.968-16.587,8.16-21.908q-.228-1.3-.487-2.718a2.81,2.81,0,0,0-.238.241c-3.365,4.114-9.371,21.752-9.439,24.4s7.235,6.553,14.1,8.854,3.534,9.306-1.615,9.934-25.355,5.227-28.686-4.707-14.041-17.727-13.594-23.882c.526-7.265,1.448-22.6-6.253-28.959a8.2,8.2,0,0,1-4.319-.536c-.481-.155-1.005-.323-1.571-.479-.9-.247-3.014-.836-4.1-2.213a15.9,15.9,0,0,0-6.1,2.252c-7.369,4.3-17.195,30.844-48.477,41.295.239.622.479,1.243.726,1.86C2002.334,873.425,2014.207,857.467,2021.434,847.742Z" transform="translate(-242.561 7.702)" fill="#47280a"/><path d="M2099.382,850.421c-.028-.054-.046-.111-.071-.166a43.678,43.678,0,0,0-5.831.887q.182.975.349,1.91a47.664,47.664,0,0,1,7.572-.967A3.27,3.27,0,0,1,2099.382,850.421Z" transform="translate(-242.561 7.702)" fill="#47280a"/><path d="M2115.187,851.83l.021-.058-1,.045Z" transform="translate(-242.561 7.702)" fill="#47280a"/><path d="M2117.589,851.664c-.025.068-.05.137-.074.206q1.133.023,2.328.055l.136-.37Z" transform="translate(-242.561 7.702)" fill="#47280a"/><path d="M2091.716,853.732c-.114-.634-.232-1.281-.355-1.949a6.071,6.071,0,0,0-2.023,1.172q.26,1.414.487,2.718a10.648,10.648,0,0,1,.823-1.21A2.982,2.982,0,0,1,2091.716,853.732Z" transform="translate(-242.561 7.702)" fill="#47280a"/><path d="M2115.187,851.83q1.129.015,2.328.04c.024-.069.049-.138.074-.206l-2.381.108Z" transform="translate(-242.561 7.702)" fill="#47280a"/><path d="M2093.48,851.142a16.773,16.773,0,0,0-2.119.641c.123.668.241,1.315.355,1.949a11.406,11.406,0,0,1,2.113-.68Q2093.661,852.118,2093.48,851.142Z" transform="translate(-242.561 7.702)" fill="#47280a"/><path d="M2209.379,795.377c.335-.539.655-1.1.958-1.676a30.956,30.956,0,0,0-3.16-1.429c-.125.63-.241,1.3-.345,2.017a27.366,27.366,0,0,1,4.239,2.14Z" transform="translate(-242.561 7.702)" fill="#47280a"/><path d="M2211.239,796.537h.007l-.061-.038Z" transform="translate(-242.561 7.702)" fill="#47280a"/><path d="M2204.721,793.523c.108-.693.231-1.349.362-1.985-.711-.226-1.42-.434-2.122-.617-.139.66-.261,1.321-.367,1.974Q2203.649,793.174,2204.721,793.523Z" transform="translate(-242.561 7.702)" fill="#47280a"/><path d="M2211.249,796.538h0l1.872,1.164c.213-.343.558-.918.958-1.651q-.9-.681-1.837-1.267C2211.676,795.852,2211.249,796.538,2211.249,796.538Z" transform="translate(-242.561 7.702)" fill="#47280a"/><path d="M2207.177,792.272c-.7-.27-1.4-.513-2.094-.734-.131.636-.254,1.292-.362,1.985.7.229,1.406.481,2.111.766C2206.936,793.571,2207.052,792.9,2207.177,792.272Z" transform="translate(-242.561 7.702)" fill="#47280a"/><path d="M2209.379,795.377l1.692,1.052.114.071.061.038h0s.427-.686.99-1.754c-.627-.393-1.262-.748-1.9-1.083C2210.034,794.275,2209.714,794.838,2209.379,795.377Z" transform="translate(-242.561 7.702)" fill="#47280a"/><path d="M2238.976,858.942a2.716,2.716,0,0,1-.436-1.5,39.894,39.894,0,0,1-7.563-2.717c-14.258-6.54-22.814-10.22-32.98-10.011-.464.009-.928.012-1.392.014l6.364.681.023,1.539c7.786.886,15.468,4.237,27.15,9.6a36.766,36.766,0,0,0,9.763,3.2A2.511,2.511,0,0,1,2238.976,858.942Z" transform="translate(-242.561 7.702)" fill="#47280a"/><path d="M2246.092,858.577a9.044,9.044,0,0,1-2.339,1.2,5.479,5.479,0,0,0,4.592-3.49A9.14,9.14,0,0,1,2246.092,858.577Z" transform="translate(-242.561 7.702)" fill="#47280a"/><path d="M2170.889,841.976l3.644.39c-1.032-.234-2.272-.5-3.614-.7C2170.914,841.767,2170.9,841.872,2170.889,841.976Z" transform="translate(-242.561 7.702)" fill="#47280a"/><path d="M2204.472,795.351l-.932-.109c6.135,1.877,12.15,5.519,15.663,14.162,4.349,10.7,13.8,22.909,17.838,28.122.574.742,1.049,1.354,1.394,1.815a67.875,67.875,0,0,1,7.209,11.3,4.094,4.094,0,0,1,2.316.341c-1.723-4.367-5.825-10.048-7.925-12.845-2.827-3.764-14.133-17.567-18.978-29.488a24.9,24.9,0,0,0-9.818-12.114l-6.767-1.185Z" transform="translate(-242.561 7.702)" fill="#47280a"/><path d="M2087.551,851.929c-3.623,4.429-9.809,22.439-9.89,25.617-.135,5.3,12.858,9.928,15.464,10.8,1.224.41,2.652,1.208,2.5,2.677a4.289,4.289,0,0,1-3.725,3.374c-.626.076-1.469.209-2.475.368-6.485,1.026-21.673,3.431-24.073-3.725-1.694-5.056-5.1-9.483-8.1-13.39-2.866-3.729-5.573-7.252-5.395-9.712.512-7.059,1.655-22.9-6.49-30.233a3.261,3.261,0,0,1-1.758,1.13c7.7,6.358,6.779,21.694,6.253,28.959-.447,6.155,10.262,13.948,13.594,23.882s23.538,5.334,28.686,4.707,8.48-7.634,1.615-9.934-14.166-6.205-14.1-8.854,6.074-20.287,9.439-24.4a2.81,2.81,0,0,1,.238-.241q-.195-1.071-.4-2.19A5.446,5.446,0,0,0,2087.551,851.929Z" transform="translate(-242.561 7.702)" fill="#47280a"/><path d="M1994.362,831.209c.552-1.911,1.123-3.886,1.856-6.012l.171-.5c2.86-8.321,11.563-33.643,27.022-39.325.095-.034.2-.074.3-.11a4.057,4.057,0,0,1-.392-1.989l-.595.221c-16.69,6.135-25.722,33.294-28.394,41.048-4.227,12.268-3.16,19.481-21.744,32.965.154.71.3,1.423.467,2.13C1989.546,847.842,1991.681,840.487,1994.362,831.209Z" transform="translate(-242.561 7.702)" fill="#47280a"/><path d="M2158.785,846.427a9.877,9.877,0,0,0-.5,3.044c-.033,2.1-.172,4.78-.319,7.613-.708,13.611-.744,19.762,1.881,21.54,2.875,1.947,5.379,3.029,10.024,4.875a2.145,2.145,0,0,1,.707,2.078c-.2,1.513-1.535,2.491-3.764,2.756-7.963.943-16.654,1.428-18.991-4.783-.968-2.573-1.867-5.144-2.738-7.63-2.247-6.419-3.477-9.833-4.712-11.2-.193-.228-.742-1.175-1.227-2.009-2.239-3.86-6.475-11.143-12.3-13.743-.017.035-.034.067-.051.1a4.144,4.144,0,0,1-1.25,1.512c7.058,2.678,11.992,13.986,13.34,15.475,1.514,1.673,4.037,10.143,7.066,18.2s14.032,6.9,21.1,6.065,6.346-7.574,3.561-8.681c-4.789-1.9-7.017-2.894-9.641-4.672s-.818-18.959-.683-27.464a7.653,7.653,0,0,1,.432-2.537A4.041,4.041,0,0,1,2158.785,846.427Z" transform="translate(-242.561 7.702)" fill="#47280a"/><path d="M2144.123,769.242c17,7.325,22.217,10.47,28.8,14.441l1.884,1.134a89.611,89.611,0,0,0,24.064,9.275c1.136.223,2.29.486,3.446.8.078-.65.171-1.317.281-1.995-1.142-.3-2.264-.555-3.342-.766a88.352,88.352,0,0,1-23.42-9.028c-7.606-4.562-12.249-7.669-31.294-15.86l-.169-.07A5.807,5.807,0,0,1,2144.123,769.242Z" transform="translate(-242.561 7.702)" fill="#47280a"/><path d="M2026.512,836.132c-2.537,1.482-4.95,4.729-8.289,9.223-7.407,9.966-18.436,24.79-39.894,31.926.232.628.474,1.251.715,1.875,31.282-10.451,41.108-36.993,48.477-41.295a15.9,15.9,0,0,1,6.1-2.252,2.975,2.975,0,0,1-.656-1.911A18.32,18.32,0,0,0,2026.512,836.132Z" transform="translate(-242.561 7.702)" fill="#47280a"/><path d="M2098.909,848.3a44.388,44.388,0,0,0-5.79.9q.185.988.361,1.945a43.678,43.678,0,0,1,5.831-.887A4.684,4.684,0,0,1,2098.909,848.3Z" transform="translate(-242.561 7.702)" fill="#47280a"/><path d="M2091.361,851.783q-.177-.966-.365-1.971a10.839,10.839,0,0,0-2.062.953q.208,1.117.4,2.19A6.071,6.071,0,0,1,2091.361,851.783Z" transform="translate(-242.561 7.702)" fill="#47280a"/><path d="M2093.119,849.2a20.479,20.479,0,0,0-2.123.615q.188,1,.365,1.971a16.773,16.773,0,0,1,2.119-.641Q2093.3,850.185,2093.119,849.2Z" transform="translate(-242.561 7.702)" fill="#47280a"/><path d="M2211.071,796.429a27.366,27.366,0,0,0-4.239-2.14c-.062.425-.121.863-.174,1.32l-2.186-.258h0l6.767,1.185-.054-.037Z" transform="translate(-242.561 7.702)" fill="#47280a"/><path d="M2203.54,795.242l.932.109q.111-.944.249-1.828-1.071-.351-2.127-.628c-.11.678-.2,1.345-.281,1.995Q2202.926,795.055,2203.54,795.242Z" transform="translate(-242.561 7.702)" fill="#47280a"/><path d="M2206.658,795.609c.053-.457.112-.9.174-1.32-.705-.285-1.409-.537-2.111-.766q-.137.885-.249,1.828Z" transform="translate(-242.561 7.702)" fill="#47280a"/><path d="M2211.071,796.429l.114.071Z" transform="translate(-242.561 7.702)" fill="#47280a"/><path d="M2201.243,830.14a3.879,3.879,0,0,0,.546.039,3.827,3.827,0,0,0,2.361-.817h0a4.032,4.032,0,0,0,.766-5.506,3.855,3.855,0,0,0-5.506-.794,4.031,4.031,0,0,0-.766,5.507A3.853,3.853,0,0,0,2201.243,830.14Zm.56-3.962c.045.006.073.031.066.04a.168.168,0,0,1-.113.027.171.171,0,0,1-.043-.013l-.022-.028A.175.175,0,0,1,2201.8,826.178Zm-.113.027.022.027a.193.193,0,0,0-.032-.012l0,0A.058.058,0,0,1,2201.69,826.205Z" transform="translate(-242.561 7.702)" fill="#47280a"/><path d="M2178.809,812.41c-6.24-7.776-9.307-14.6-8.2-18.264a3.934,3.934,0,0,1,2.969-2.679,1.794,1.794,0,0,1,1.636.22c3.171,1.979,5.55,10.867,6.306,16.006l4.355-.639c-.229-1.566-2.408-15.4-8.328-19.1a6.18,6.18,0,0,0-5.3-.681,8.325,8.325,0,0,0-5.847,5.6c-2.011,6.665,3.776,15.8,8.985,22.291Z" transform="translate(-242.561 7.702)" fill="#47280a"/><path d="M2238.54,857.442c3.61.831,5.508.374,6.436-.126a3.508,3.508,0,0,0,1.762-2.747,2.746,2.746,0,1,0-4.908-2.389C2239.754,853.663,2238.519,855.748,2238.54,857.442Z" transform="translate(-242.561 7.702)" fill="#47280a"/><path d="M2248.717,854.871a6.887,6.887,0,0,1-.372,1.42c1.08-1.6,1.377-3.311.6-4.477a2.52,2.52,0,0,0-.986-.83A8.13,8.13,0,0,1,2248.717,854.871Z" transform="translate(-242.561 7.702)" fill="#47280a"/><path d="M2239.905,859.741a4.908,4.908,0,0,0,3.848.04A12.753,12.753,0,0,1,2239.905,859.741Z" transform="translate(-242.561 7.702)" fill="#47280a"/><path d="M2245.644,850.643a8.216,8.216,0,0,1,1.094,3.926,3.508,3.508,0,0,1-1.762,2.747c-.928.5-2.826.957-6.436.126a2.716,2.716,0,0,0,.436,1.5,2.511,2.511,0,0,0,.929.8,12.753,12.753,0,0,0,3.848.04,9.044,9.044,0,0,0,2.339-1.2,9.14,9.14,0,0,0,2.253-2.286,6.887,6.887,0,0,0,.372-1.42,8.13,8.13,0,0,0-.757-3.887A4.094,4.094,0,0,0,2245.644,850.643Z" transform="translate(-242.561 7.702)" fill="#47280a"/><path d="M2189.628,868.334a11.823,11.823,0,0,1,3.06,5.037c.724,1.964,1.054,2.861,3.831,3.393,7.336,1.406,11.374.927,13.019-1.556a17.813,17.813,0,0,0-3.236-3.03,25.627,25.627,0,0,1-4.029-3.743c-2.773-3.518-3.458-14.217-3.626-19.061l-6.912-.74a111.427,111.427,0,0,1-13.517-1.446l-3.73-.4C2177.5,852.294,2183.633,862.74,2189.628,868.334Z" transform="translate(-242.561 7.702)" fill="#fce5c4"/><path d="M2178.218,847.188a111.427,111.427,0,0,0,13.517,1.446Z" transform="translate(-242.561 7.702)" fill="#fce5c4"/><path d="M2204,867.074c2.543,3.229,9.108,6.4,7.566,9.037-2.328,3.982-7.78,4.287-15.464,2.815-6.538-1.253-4.238-5.494-7.977-8.983-7.119-6.642-14.255-19.554-16.663-24.127-.85-.157-1.762-.295-2.672-.373,1.24,2.448,9.426,18.266,17.833,26.109a7.7,7.7,0,0,1,1.933,3.34c.852,2.314,1.913,5.195,7.133,6.2a41.01,41.01,0,0,0,7.559.851c4.206,0,8.1-1.088,10.218-4.717,1.95-3.336-1.571-6.181-4.4-8.467a22.994,22.994,0,0,1-3.338-3.043c-1.585-2.013-2.48-10.483-2.69-16.735-.734-.091-1.469-.153-2.205-.2C2200.972,852.734,2201.569,863.985,2204,867.074Z" transform="translate(-242.561 7.702)" fill="#47280a"/><path d="M2174.948,842.46l.316.072a103.579,103.579,0,0,0,21.341,2.2l-22.072-2.362Z" transform="translate(-242.561 7.702)" fill="#47280a"/><path d="M2202.992,846.948a36.614,36.614,0,0,0-4.951-.234c-1.18.026-2.353.025-3.51.005l6.267.671s.008.522.037,1.39c.736.044,1.471.106,2.205.2-.019-.558-.034-1.1-.042-1.62Z" transform="translate(-242.561 7.702)" fill="#47280a"/><path d="M2170.61,844.16l5.41.579c-.428-.088-.836-.174-1.2-.256-1.174-.266-2.78-.645-4.5-.885a4.028,4.028,0,0,1-1.683,1.549c.022.046.073.147.149.3.91.078,1.822.216,2.672.373C2170.914,844.771,2170.61,844.16,2170.61,844.16Z" transform="translate(-242.561 7.702)" fill="#47280a"/><path d="M2196.6,844.728a103.579,103.579,0,0,1-21.341-2.2l-.316-.072-.415-.094-3.644-.39a3.855,3.855,0,0,1-.563,1.622c1.716.24,3.322.619,4.5.885.362.082.77.168,1.2.256l18.511,1.98c1.157.02,2.33.021,3.51-.005a36.614,36.614,0,0,1,4.951.234l-.023-1.539Z" transform="translate(-242.561 7.702)" fill="#47280a"/><path d="M2191.735,848.634l6.912.74c.168,4.844.853,15.543,3.626,19.061a25.627,25.627,0,0,0,4.029,3.743,17.813,17.813,0,0,1,3.236,3.03c-1.645,2.483-5.683,2.962-13.019,1.556-2.777-.532-3.107-1.429-3.831-3.393a11.823,11.823,0,0,0-3.06-5.037c-5.995-5.594-12.128-16.04-15.14-21.546l3.73.4c-1.436-.247-2.735-.5-3.838-.753l-.321-.073c-.7-.16-1.6-.364-2.595-.546,2.408,4.573,9.544,17.485,16.663,24.127,3.739,3.489,1.439,7.73,7.977,8.983,7.684,1.472,13.136,1.167,15.464-2.815,1.542-2.639-5.023-5.808-7.566-9.037-2.433-3.089-3.03-14.34-3.167-18.294-.911-.055-1.826-.084-2.752-.066C2195.956,848.763,2193.823,848.728,2191.735,848.634Z" transform="translate(-242.561 7.702)" fill="#47280a"/><path d="M2170.61,844.16s.3.611.854,1.656c.99.182,1.893.386,2.595.546l.321.073c1.1.25,2.4.506,3.838.753l13.517,1.446c2.088.094,4.221.129,6.348.08.926-.018,1.841.011,2.752.066-.029-.868-.037-1.39-.037-1.39l-6.267-.671a106.665,106.665,0,0,1-18.511-1.98Z" transform="translate(-242.561 7.702)" fill="#47280a"/><path d="M2194.531,846.719l-18.511-1.98A106.665,106.665,0,0,0,2194.531,846.719Z" transform="translate(-242.561 7.702)" fill="#47280a"/><path d="M2037.517,833.142a13.92,13.92,0,0,0,1.373.436c.63.174,1.213.36,1.749.532.467.15,1.057.34,1.463.432a14.921,14.921,0,0,0,.494-2.6,20.806,20.806,0,0,1,3.587-9.992c5.648-8.168,13.461-12.452,22.442-12.452a31.049,31.049,0,0,1,6.68.751c14.448,3.179,27.4,15.7,28.9,24.354a36.089,36.089,0,0,1,.5,4.382l14.131,4.53c.153-.239.3-.462.448-.649l3.477,2.7a9.491,9.491,0,0,0-.888,1.492l1.024-.047c4.407-9.1,9.961-14.165,16.509-15.066,9.937-1.374,18.822,7.565,21.509,10.584l2.431-.563a10.765,10.765,0,0,1,1.975-.458l.983-.228c-37.7-46.833-31.078-66.736-26.469-73.13a1.143,1.143,0,0,0,.133-.418c-2.936-1.041-9.014-3.189-9.9-3.461-3.047-.935-12.522-2.848-13.131-2.962-5.215-.8-14.188-.791-16.809-.772h-.175c-7.243-.119-18.544,3-19.2,3.188-4.234,1.455-16.755,5.856-16.882,5.9-.26.1-14.333,5.574-24.871,9.672-3.941,1.577-7.687,3.065-11.033,4.354C2039.1,795.286,2042.318,811.928,2037.517,833.142Z" transform="translate(-242.561 7.702)" fill="#ea875c"/><path d="M2103.417,847.657a1.449,1.449,0,0,0-.066.217c1.806-.063,7.78-.326,13.6-.589a27.518,27.518,0,0,1,1.89-3.766l-14.131-4.53A19.614,19.614,0,0,1,2103.417,847.657Z" transform="translate(-242.561 7.702)" fill="#ea875c"/><path d="M2119.392,847.175l2.484-.113a9.491,9.491,0,0,1,.888-1.492l-3.477-2.7c-.145.187-.3.41-.448.649l2.186.7A15.934,15.934,0,0,0,2119.392,847.175Z" transform="translate(-242.561 7.702)" fill="#ea875c"/><path d="M2119.392,847.175a15.934,15.934,0,0,1,1.633-2.955l-2.186-.7a27.518,27.518,0,0,0-1.89,3.766Z" transform="translate(-242.561 7.702)" fill="#ea875c"/><path d="M2165.324,841.512a10.765,10.765,0,0,0-1.975.458Z" transform="translate(-242.561 7.702)" fill="#ea875c"/><path d="M2027.925,783.609c.015.015.027.032.042.047,3.346-1.289,7.092-2.777,11.033-4.354Z" transform="translate(-242.561 7.702)" fill="#ea875c"/><path d="M2083.978,758.587c14.612-2.937,32.4-5.1,59.185,5.909a3.288,3.288,0,0,0-1.125-.7c-.965-.343-9.458-3.358-10.674-3.732-3.335-1.023-13.38-3.047-13.7-3.1-5.6-.862-14.866-.853-17.571-.833h-.054c-8.281-.139-20.565,3.373-20.671,3.409-4.2,1.445-16.832,5.883-16.926,5.917-.071.023-.1.033-36.392,14.149a4.06,4.06,0,0,0-1.712,1.141c5.083-1.921,11.344-4.433,17.925-7.075C2057.966,767.381,2075.76,760.239,2083.978,758.587Z" transform="translate(-242.561 7.702)" fill="#47280a"/><path d="M2163.523,846.329c-.055.044-.094.105-.146.153l4.39-1.018c.084-.019.163-.049.245-.073A6.978,6.978,0,0,0,2163.523,846.329Z" transform="translate(-242.561 7.702)" fill="#47280a"/><path d="M2102.531,852.272v-.007c.08.005.189.008.349.008.9,0,3.406-.1,11.326-.456-5.39-.054-9.566.057-12.806.268.048.014.092.039.141.051Z" transform="translate(-242.561 7.702)" fill="#47280a"/><path d="M2124.811,848.119c-.026.054-.065.1-.095.147a11.2,11.2,0,0,1,2.13.705c3.728-7.711,8.156-11.972,13.163-12.661,7.92-1.084,15.574,6.824,17.732,9.275a4.058,4.058,0,0,0,1.044.842,7.1,7.1,0,0,1,1.013-1.952,1.854,1.854,0,0,1-.405-.344C2155.6,839.821,2137.571,821.577,2124.811,848.119Z" transform="translate(-242.561 7.702)" fill="#47280a"/><path d="M2026.048,784.835a1.9,1.9,0,0,1-.261-.347q-1.077.406-2.08.777a4.126,4.126,0,0,0,.77,1.112c10.425,10.631,13.314,26.275,8.585,46.495a3.716,3.716,0,0,0-.092.826,13.337,13.337,0,0,1,2.015-.157c.072,0,.143.008.215.009a1.055,1.055,0,0,1,.005-.177C2037.373,824.1,2041.8,800.9,2026.048,784.835Z" transform="translate(-242.561 7.702)" fill="#47280a"/><path d="M2046.959,832.534a16.5,16.5,0,0,1,2.844-8.076c7.594-10.983,17.544-11.451,24.556-9.906,13.208,2.906,24.4,14.446,25.508,20.807.135.776.235,1.5.309,2.177l2.281.731c-.079-1-.214-2.088-.422-3.284-2.294-13.23-35.987-37.889-54.042-11.777-3.776,5.461-2.737,9.51-3.962,12.474a2.092,2.092,0,0,1-.425.675,14.144,14.144,0,0,1,1.764,1.352,4.685,4.685,0,0,0,.7-1.186A15.686,15.686,0,0,0,2046.959,832.534Z" transform="translate(-242.561 7.702)" fill="#47280a"/><path d="M2168.3,840.25a1.891,1.891,0,0,1,.413,1.176c.749.049,1.491.13,2.2.237a4.091,4.091,0,0,0-.906-2.8c-37.12-45.976-29.748-63.779-26.6-68.14a5.077,5.077,0,0,0,.715-1.486l-.376-.162c-.562-.242-1.114-.469-1.669-.7a3.043,3.043,0,0,1-.455,1.06C2137.575,775.057,2130.9,793.93,2168.3,840.25Z" transform="translate(-242.561 7.702)" fill="#47280a"/><path d="M2099.325,846.034a6.316,6.316,0,0,0-.416,2.262q1.052-.1,2.205-.184a4.038,4.038,0,0,1,.257-1.267,18.19,18.19,0,0,0,1.086-8.578l-2.281-.731A16.721,16.721,0,0,1,2099.325,846.034Z" transform="translate(-242.561 7.702)" fill="#47280a"/><path d="M2168.639,845.141l-.878-1.765c-.248-.006-.493,0-.738,0l-4.077.945a4.847,4.847,0,0,0-2.228,2.644,4.031,4.031,0,0,0,.993-.1l1.666-.386c.052-.048.091-.109.146-.153a6.978,6.978,0,0,1,4.489-.938,4.046,4.046,0,0,0,.631-.244Z" transform="translate(-242.561 7.702)" fill="#47280a"/><path d="M2033.626,835.609c1.082,1.377,3.2,1.966,4.1,2.213.566.156,1.09.324,1.571.479a8.2,8.2,0,0,0,4.319.536,11.683,11.683,0,0,0-1.352-.976A13.145,13.145,0,0,0,2033.626,835.609Z" transform="translate(-242.561 7.702)" fill="#47280a"/><path d="M2120.6,849.942c-.207.516-.415,1.055-.625,1.613l3.428-.157a4.047,4.047,0,0,0,2.138-.813,8.442,8.442,0,0,0-2.713-.571C2122.153,849.991,2121.4,849.966,2120.6,849.942Z" transform="translate(-242.561 7.702)" fill="#47280a"/><path d="M2023.315,783.276c.839-.311,1.708-.637,2.619-.984a1.841,1.841,0,0,1,.87-.609s36.29-14.114,36.338-14.13l.944-.331c5.989-2.278,11.464-4.235,15.738-5.5l.263-.09c.019-.007.461-.133,1.215-.332q1.245-.342,2.313-.584c4.165-1.006,11.184-2.47,16.387-2.374h.022a81.9,81.9,0,0,1,16.643.71c.227.031.449.062.666.095l.2.039a97.03,97.03,0,0,1,12.084,2.674c.42.111.794.216,1.106.313.12.036.34.109.6.2q4.438,1.353,9.273,3.252l.705.25a.94.94,0,0,1,.137.083c.966.388,1.941.79,2.931,1.215a4.641,4.641,0,0,0-.192-1.074,3.619,3.619,0,0,0-1.014-1.6c-26.782-11.012-44.573-8.846-59.185-5.909-8.218,1.652-26.012,8.794-41.712,15.094-6.581,2.642-12.842,5.154-17.925,7.075a4.1,4.1,0,0,0-.92,1.757A4.172,4.172,0,0,0,2023.315,783.276Z" transform="translate(-242.561 7.702)" fill="#47280a"/><path d="M2110.215,849.789c-3.977.174-7.341.316-7.415.3l-.5-.062c-1.024.062-2.022.138-2.987.23.025.055.043.112.071.166a3.27,3.27,0,0,0,2.019,1.664c3.24-.211,7.416-.322,12.806-.268l1-.045c.235-.66.475-1.31.717-1.945C2114.11,849.795,2112.181,849.777,2110.215,849.789Z" transform="translate(-242.561 7.702)" fill="#47280a"/><path d="M2118.263,849.877q-.339.867-.674,1.787l2.39-.109c.21-.558.418-1.1.625-1.613C2119.866,849.919,2119.083,849.9,2118.263,849.877Z" transform="translate(-242.561 7.702)" fill="#47280a"/><path d="M2115.925,849.827c-.242.635-.482,1.285-.717,1.945l2.381-.108q.334-.918.674-1.787C2117.511,849.858,2116.73,849.841,2115.925,849.827Z" transform="translate(-242.561 7.702)" fill="#47280a"/><path d="M2131.323,762.371c1.955.66,7.349,2.57,9.273,3.252Q2135.76,763.715,2131.323,762.371Z" transform="translate(-242.561 7.702)" fill="#47280a"/><path d="M2081.3,761.3c.594-.157,1.384-.359,2.313-.584Q2082.549,760.955,2081.3,761.3Z" transform="translate(-242.561 7.702)" fill="#47280a"/><path d="M2168.714,841.426a2.075,2.075,0,0,1-.018.315l2.193.235c.014-.1.025-.209.03-.313C2170.205,841.556,2169.463,841.475,2168.714,841.426Z" transform="translate(-242.561 7.702)" fill="#47280a"/><path d="M2167.27,843.32l-.247.057c.245-.005.49-.007.738,0l-.1-.2A1.89,1.89,0,0,1,2167.27,843.32Z" transform="translate(-242.561 7.702)" fill="#47280a"/><path d="M2064.086,767.222c2.945-1.035,12.014-4.218,15.738-5.5C2075.55,762.987,2070.075,764.944,2064.086,767.222Z" transform="translate(-242.561 7.702)" fill="#47280a"/><path d="M2142.078,768.381c.555.23,1.107.457,1.669.7l.376.162a5.807,5.807,0,0,0,.246-2.071c-.99-.425-1.965-.827-2.931-1.215C2142.163,766.336,2142.309,767.42,2142.078,768.381Z" transform="translate(-242.561 7.702)" fill="#47280a"/><path d="M2159.8,844.475a7.1,7.1,0,0,0-1.013,1.952,4.041,4.041,0,0,0,1.933.539,4.847,4.847,0,0,1,2.228-2.644l-1.732.4A1.85,1.85,0,0,1,2159.8,844.475Z" transform="translate(-242.561 7.702)" fill="#47280a"/><path d="M2126.795,849.073c.017-.035.034-.067.051-.1a11.2,11.2,0,0,0-2.13-.705,1.876,1.876,0,0,1-1.466.937l-2.389.109q-.128.308-.257.63c.8.024,1.549.049,2.228.072a8.442,8.442,0,0,1,2.713.571A4.144,4.144,0,0,0,2126.795,849.073Z" transform="translate(-242.561 7.702)" fill="#47280a"/><path d="M2117.528,759.185c1.259.249,8.428,1.7,12.084,2.674A97.03,97.03,0,0,0,2117.528,759.185Z" transform="translate(-242.561 7.702)" fill="#47280a"/><path d="M2023.707,785.265q1-.371,2.08-.777a1.92,1.92,0,0,1,.147-2.2c-.911.347-1.78.673-2.619.984A4.057,4.057,0,0,0,2023.707,785.265Z" transform="translate(-242.561 7.702)" fill="#47280a"/><path d="M2116.667,759.051a81.9,81.9,0,0,0-16.643-.71A146.856,146.856,0,0,1,2116.667,759.051Z" transform="translate(-242.561 7.702)" fill="#47280a"/><path d="M2045.37,837.707a14.144,14.144,0,0,0-1.764-1.352c-.969,1.007-2.707.059-5.3-.655-1.278-.352-3.206-.91-3.106-2.15-.072,0-.143-.009-.215-.009a13.337,13.337,0,0,0-2.015.157,2.975,2.975,0,0,0,.656,1.911,13.145,13.145,0,0,1,8.634,2.252,11.683,11.683,0,0,1,1.352.976A3.261,3.261,0,0,0,2045.37,837.707Z" transform="translate(-242.561 7.702)" fill="#47280a"/><path d="M2110.215,849.789c1.966-.012,3.9.006,5.71.038.038-.1.076-.2.115-.3Z" transform="translate(-242.561 7.702)" fill="#47280a"/><path d="M2101.114,848.112q-1.154.081-2.205.184a4.684,4.684,0,0,0,.4,1.959c.965-.092,1.963-.168,2.987-.23l-.243-.029C2101.317,849.819,2101.074,848.976,2101.114,848.112Z" transform="translate(-242.561 7.702)" fill="#47280a"/><path d="M2118.263,849.877c.82.02,1.6.042,2.341.065q.129-.323.257-.63l-2.419.109C2118.382,849.571,2118.323,849.724,2118.263,849.877Z" transform="translate(-242.561 7.702)" fill="#47280a"/><path d="M2116.04,849.529c-.039.1-.077.2-.115.3.8.014,1.586.031,2.338.05.06-.153.119-.306.179-.456Z" transform="translate(-242.561 7.702)" fill="#47280a"/><path d="M2168.639,845.141l0,.006a4.028,4.028,0,0,0,1.683-1.549,22.56,22.56,0,0,0-2.565-.222Z" transform="translate(-242.561 7.702)" fill="#47280a"/><path d="M2170.889,841.976l-2.193-.235a1.887,1.887,0,0,1-1.036,1.432l.1.2a22.56,22.56,0,0,1,2.565.222,3.855,3.855,0,0,0,.563-1.622Z" transform="translate(-242.561 7.702)" fill="#47280a"/><path d="M2080.753,763.729c.66-.187,11.961-3.307,19.2-3.188h.175c2.621-.019,11.594-.029,16.809.772.609.114,10.084,2.027,13.131,2.962.885.272,6.963,2.42,9.9,3.461a1.143,1.143,0,0,1-.133.418c-4.609,6.394-11.233,26.3,26.469,73.13l-.983.228a16.958,16.958,0,0,1,3.39-.086,1.891,1.891,0,0,0-.413-1.176c-37.4-46.32-30.726-65.193-26.678-70.809a3.043,3.043,0,0,0,.455-1.06c-26-10.79-43.2-8.706-57.312-5.87-7.856,1.578-25.47,8.647-41.009,14.884L2039,779.3c10.538-4.1,24.611-9.572,24.871-9.672C2064,769.585,2076.519,765.184,2080.753,763.729Zm86.02,77.448h0Zm-26.2-73.227-.006,0Z" transform="translate(-242.561 7.702)" fill="#47280a"/><path d="M2139.409,831.949c-6.548.9-12.1,5.97-16.509,15.066l-1.024.047c-.141.278-.285.583-.432.906.482.015.963.03,1.456.047a9.865,9.865,0,0,1,1.816.251c.03-.05.069-.093.095-.147,12.76-26.542,30.789-8.3,34.582-3.988a1.854,1.854,0,0,0,.405.344,6.786,6.786,0,0,1,1.254-1.293,7.657,7.657,0,0,1,2.3-1.212l-2.431.563C2158.231,839.514,2149.346,830.575,2139.409,831.949Z" transform="translate(-242.561 7.702)" fill="#47280a"/><path d="M2044.031,835.68c1.225-2.964.186-7.013,3.962-12.474,18.055-26.112,51.748-1.453,54.042,11.777.208,1.2.343,2.284.422,3.284l2.251.722a36.089,36.089,0,0,0-.5-4.382c-1.5-8.652-14.451-21.175-28.9-24.354a31.049,31.049,0,0,0-6.68-.751c-8.981,0-16.794,4.284-22.442,12.452a20.806,20.806,0,0,0-3.587,9.992,14.921,14.921,0,0,1-.494,2.6c-.406-.092-1-.282-1.463-.432-.536-.172-1.119-.358-1.749-.532a13.92,13.92,0,0,1-1.373-.436c4.8-21.214,1.588-37.856-9.55-49.486-.748.288-1.473.565-2.18.832a1.9,1.9,0,0,0,.261.347c15.755,16.066,11.325,39.27,9.157,48.538a1.055,1.055,0,0,0-.005.177,15.9,15.9,0,0,1,8.1,2.6c.1.064.2.136.3.2A2.092,2.092,0,0,0,2044.031,835.68Z" transform="translate(-242.561 7.702)" fill="#47280a"/><path d="M2101.371,846.845a4.038,4.038,0,0,0-.257,1.267c4.163-.295,9.322-.378,15.6-.262q.12-.286.238-.565c-5.818.263-11.792.526-13.6.589a1.449,1.449,0,0,1,.066-.217,19.614,19.614,0,0,0,1.291-8.668l-2.251-.722A18.19,18.19,0,0,1,2101.371,846.845Z" transform="translate(-242.561 7.702)" fill="#47280a"/><path d="M2119.07,847.9c.774.019,1.568.042,2.374.067.147-.323.291-.628.432-.906l-2.484.113Q2119.231,847.526,2119.07,847.9Z" transform="translate(-242.561 7.702)" fill="#47280a"/><path d="M2116.949,847.285q-.118.279-.238.565,1.155.021,2.359.051.162-.375.322-.726Z" transform="translate(-242.561 7.702)" fill="#47280a"/><path d="M2100.024,758.341H2100c-5.2-.1-12.222,1.368-16.387,2.374.256-.057.518-.118.757-.166A110.619,110.619,0,0,1,2100.024,758.341Z" transform="translate(-242.561 7.702)" fill="#47280a"/><path d="M2167.023,843.377a8.73,8.73,0,0,0-4.077.945Z" transform="translate(-242.561 7.702)" fill="#47280a"/><path d="M2117.333,759.146c-.217-.033-.439-.064-.666-.095.284.041.574.089.861.134Z" transform="translate(-242.561 7.702)" fill="#47280a"/><path d="M2130.718,762.172c-.312-.1-.686-.2-1.106-.313.564.162,1.137.337,1.711.512C2131.058,762.281,2130.838,762.208,2130.718,762.172Z" transform="translate(-242.561 7.702)" fill="#47280a"/><path d="M2063.142,767.553c-.048.016-36.338,14.13-36.338,14.13a1.841,1.841,0,0,0-.87.609c10.478-3.994,25.446-10.238,38.152-15.07Z" transform="translate(-242.561 7.702)" fill="#47280a"/><path d="M2080.087,761.631l-.263.09q.766-.227,1.478-.422C2080.548,761.5,2080.106,761.624,2080.087,761.631Z" transform="translate(-242.561 7.702)" fill="#47280a"/><path d="M2141.3,765.873l-.705-.25c.281.111.56.219.842.333A.94.94,0,0,0,2141.3,765.873Z" transform="translate(-242.561 7.702)" fill="#47280a"/><path d="M2102.8,850.087c.074.018,3.438-.124,7.415-.3-2.647.015-5.353.083-7.917.236Z" transform="translate(-242.561 7.702)" fill="#47280a"/><path d="M2025.787,784.488c.707-.267,1.432-.544,2.18-.832-.015-.015-.027-.032-.042-.047L2039,779.3l4.757-1.907c15.539-6.237,33.153-13.306,41.009-14.884,14.111-2.836,31.314-4.92,57.312,5.87.231-.961.085-2.045-.64-2.425-.282-.114-.561-.222-.842-.333-1.924-.682-7.318-2.592-9.273-3.252-.574-.175-1.147-.35-1.711-.512-3.656-.97-10.825-2.425-12.084-2.674-.287-.045-.577-.093-.861-.134a146.856,146.856,0,0,0-16.643-.71,110.619,110.619,0,0,0-15.652,2.208c-.239.048-.5.109-.757.166-.929.225-1.719.427-2.313.584q-.711.2-1.478.422c-3.724,1.283-12.793,4.466-15.738,5.5-12.706,4.832-27.674,11.076-38.152,15.07A1.92,1.92,0,0,0,2025.787,784.488Z" transform="translate(-242.561 7.702)" fill="#47280a"/><path d="M2035.2,833.55c-.1,1.24,1.828,1.8,3.106,2.15,2.593.714,4.331,1.662,5.3.655-.1-.066-.2-.138-.3-.2A15.9,15.9,0,0,0,2035.2,833.55Z" transform="translate(-242.561 7.702)" fill="#47280a"/><path d="M2167.66,843.173l-.811-1.629,1.847.2a2.075,2.075,0,0,0,.018-.315,16.958,16.958,0,0,0-3.39.086l-1.975.458a7.657,7.657,0,0,0-2.3,1.212,6.786,6.786,0,0,0-1.254,1.293,1.85,1.85,0,0,0,1.416.249l1.732-.4a8.73,8.73,0,0,1,4.077-.945l.247-.057A1.89,1.89,0,0,0,2167.66,843.173Z" transform="translate(-242.561 7.702)" fill="#47280a"/><path d="M2121.444,847.968q-.287.625-.583,1.344l2.389-.109a1.876,1.876,0,0,0,1.466-.937,9.865,9.865,0,0,0-1.816-.251C2122.407,848,2121.926,847.983,2121.444,847.968Z" transform="translate(-242.561 7.702)" fill="#47280a"/><path d="M2101.114,848.112c-.04.864.2,1.707.941,1.884l.243.029c2.564-.153,5.27-.221,7.917-.236l5.825-.26q.334-.867.671-1.679C2110.436,847.734,2105.277,847.817,2101.114,848.112Z" transform="translate(-242.561 7.702)" fill="#47280a"/><path d="M2119.07,847.9c-.208.482-.418.991-.628,1.52l2.419-.109q.3-.717.583-1.344C2120.638,847.943,2119.844,847.92,2119.07,847.9Z" transform="translate(-242.561 7.702)" fill="#47280a"/><path d="M2116.04,849.529l2.4-.108c.21-.529.42-1.038.628-1.52q-1.206-.03-2.359-.051Q2116.375,848.66,2116.04,849.529Z" transform="translate(-242.561 7.702)" fill="#47280a"/><path d="M2167.66,843.173a1.887,1.887,0,0,0,1.036-1.432l-1.847-.2Z" transform="translate(-242.561 7.702)" fill="#47280a"/><path d="M2171.666,894.775s-9.043,1.589-8.364,5.733c.447,2.732,4.9,14.828,8.272,21.2,1.7,3.2,5.615.986,9.59-1.955,0,0,18.346,17.386,34.28-3.109,11.18-14.381-6.45-44.44-21.646-41.449C2178.862,878.129,2172.394,880.97,2171.666,894.775Z" transform="translate(-242.561 7.702)" fill="#ef5542" stroke="#47280a" stroke-miterlimit="10" stroke-width="3"/><line x2="8.916" y2="21.573" transform="translate(1959.505 893.609)" fill="#ef5542" stroke="#47280a" stroke-miterlimit="10" stroke-width="4"/><circle cx="2.965" cy="2.965" r="2.965" transform="translate(1956.135 889.595)" fill="#47280a"/><circle cx="2.979" cy="2.979" r="2.979" transform="translate(1965.847 913.206)" fill="#47280a"/><path d="M2173.284,900.978s2.006,8.153,5.935,13.668" transform="translate(-242.561 7.702)" fill="#fff" stroke="#47280a" stroke-linecap="round" stroke-miterlimit="10" stroke-width="3"/><rect width="47.021" height="5.25" rx="1.573" transform="translate(1852.828 917.85) rotate(6.89)" fill="#c69c6d" stroke="#47280a" stroke-miterlimit="10" stroke-width="3"/><rect width="20" height="18" rx="9" transform="translate(1899.262 916.326) rotate(6.89)" fill="#fff" stroke="#47280a" stroke-miterlimit="10" stroke-width="3"/></g></svg>