<svg xmlns="http://www.w3.org/2000/svg" width="322.58" height="322.58" viewBox="0 0 322.58 322.58"><g transform="translate(-153.475 -716.836)"><g transform="translate(-197.561 70.425)"><circle cx="161.29" cy="161.29" r="161.29" transform="translate(351.036 646.411)" fill="#f4f5f3"/><circle cx="149.551" cy="149.551" r="149.551" transform="translate(363.454 658.15)" fill="#fddad3"/></g><g transform="translate(-197.561 70.425)"><path d="M476.367,841.107c6.921,6.853,18.316,33.58,14.536,42.368-1.581,3.673-.913,10.282,8.88,6.29,3.254-1.326,6.106-8.868,4.256-16.405-.9-3.681.37-19.55,1.357-21.462" fill="#804f21"/><path d="M494.549,893.234a6.356,6.356,0,0,1-4.747-1.822c-2.272-2.317-2.108-6.1-.939-8.815,3.285-7.635-7.363-33.283-14.058-39.913l3.123-3.155c7.17,7.1,19.325,34.8,15.014,44.823-.646,1.5-.633,3.275.03,3.95.624.637,2.523.814,5.973-.593,1.97-.8,4.565-7.191,2.938-13.82-.934-3.8.174-20.363,1.539-23.008l3.946,2.035c-.717,1.788-1.959,16.711-1.173,19.915,2.135,8.7-1.181,17.2-5.573,18.99A16.468,16.468,0,0,1,494.549,893.234Z" fill="#47280a"/><path d="M556.325,856.155s8.449,11.162,9.621,16.466c2.414,10.928-4.719,11.746-4.842,15.076-.089,2.4,1.476,4.206,8.464,2.85s8.836-4.3,9.576-12.437c.938-10.321,0-21.554,5.273-27.568" fill="#804f21"/><path d="M565.469,893.23a7.29,7.29,0,0,1-4.917-1.448,4.976,4.976,0,0,1-1.666-4.168c.071-1.942,1.321-3.234,2.424-4.373,1.8-1.859,3.833-3.964,2.468-10.14-.875-3.963-6.954-12.609-9.223-15.606l3.54-2.68c.9,1.182,8.778,11.712,10.019,17.327,1.879,8.507-1.559,12.061-3.613,14.185-.465.482-1.169,1.209-1.178,1.452-.006.155-.006.525.117.63.1.089,1.144.845,5.705-.042,5.724-1.111,7.106-2.968,7.788-10.458.21-2.319.327-4.735.44-7.072.41-8.506.8-16.541,5.374-21.758l3.339,2.927c-3.554,4.053-3.906,11.335-4.278,19.045-.115,2.384-.234,4.848-.454,7.26-.749,8.243-2.712,12.736-11.363,14.415A24.025,24.025,0,0,1,565.469,893.23Z" fill="#47280a"/><path d="M491.538,882.123c-1.581,3.674-.913,10.282,8.88,6.291,2.941-1.2,5.541-7.477,4.651-14.237-.381-.657-.761-1.249-1.131-1.765-4.941,2.425-12.159.028-12.159.028l0,0C492.474,876.424,492.508,879.867,491.538,882.123Z" fill="#595757"/><path d="M495.19,891.512A6.009,6.009,0,0,1,490.7,889.8c-2.152-2.194-1.983-5.8-.863-8.409h0c.528-1.227.976-3.719.116-8.63l-.166-.947,1.487-1.488,1.087.357c.063.021,6.573,2.122,10.761.068l1.406-.69.913,1.273c.408.569.821,1.213,1.227,1.914l.185.32.049.366c.937,7.116-1.712,14.531-5.785,16.192A16.135,16.135,0,0,1,495.19,891.512Zm-1.2-16.622a16.4,16.4,0,0,1-.748,7.965h0c-.625,1.451-.756,3.477.1,4.355.93.949,3.253.763,6.377-.51,1.9-.775,4.235-5.884,3.559-11.916l-.06-.1A19.635,19.635,0,0,1,493.986,874.89Z" fill="#47280a"/><path d="M505.239,761.549s-9.723-1.029-20.824-10.875-33.9-9.806-48.66-6.517c-11.9,2.652-12.273,4.746-14.246,5.366-4.857,1.526-24.571,2.1-29.6,14.8-2.914,7.355,4.317,24.854,17.083,26.149s18.44-1.171,26.581,12.335,51.188,52.237,66.93,69.937c3.131,3.519,7.941,14.493,5.535,20.845-1.416,3.74-.912,10.282,8.881,6.291,3.254-1.326,6.106-8.869,4.256-16.4-.9-3.682.37-19.551,1.357-21.462s45.576-2.159,56.8-4.009c3.193-.526,11.224,14.863,9.374,25.162s-7.264,8.773-6.784,13.815c.37,3.885,9.714,2.96,14.432,1.48s8.325-18.748,9.065-28.369,6.908-17.515,11.348-26.766,19.55-25.163,14.74-43.479-11.1-18.5-18.132-24.053-23.5-24.607-55.505-18.686S507.849,762.093,505.239,761.549Z" fill="#895b31"/><path d="M511.687,903.351a6.311,6.311,0,0,1-4.6-1.7c-2.415-2.354-2.118-6.236-1.131-8.844,1.969-5.2-2.2-15.3-5.118-18.584-6.084-6.841-16.271-16.84-27.057-27.426-17.208-16.891-35-34.356-40.116-42.84-6.105-10.13-10.046-10.347-18.682-10.823-1.841-.1-3.929-.216-6.22-.449-6.124-.62-11.651-4.507-15.563-10.942-3.833-6.306-5.184-13.633-3.361-18.234,4.515-11.393,19.143-13.931,27-15.295a39.393,39.393,0,0,0,4-.807,4.232,4.232,0,0,0,.93-.529c1.632-1.065,4.363-2.849,13.5-4.885,16.436-3.663,39.287-3.025,50.616,7.023,10.448,9.267,19.494,10.318,19.584,10.328l.219.034c2.147.449,19.773,1.468,51.772-4.45,29.259-5.407,46.272,9.529,54.45,16.709,1.1.962,2.043,1.794,2.835,2.419,1.351,1.066,2.713,1.949,4.031,2.8,5.566,3.607,10.823,7.012,14.872,22.429,3.951,15.044-4.477,28.225-10.631,37.85a75.385,75.385,0,0,0-4.254,7.153c-1.271,2.647-2.677,5.18-4.035,7.629-3.4,6.12-6.605,11.9-7.1,18.347-.022.276-2.492,27.769-10.615,30.317-2.678.84-11.219,2.639-15.218-.014a4.475,4.475,0,0,1-2.088-3.374c-.315-3.3,1.283-4.872,2.693-6.255,1.508-1.48,3.217-3.156,4.116-8.162,1.556-8.661-4.794-21.075-7.16-22.527-5.492.846-17.589,1.349-29.295,1.836-10.069.419-22.411.933-25.739,1.6-.722,3.4-1.721,16.314-1,19.267,2.135,8.7-1.181,17.2-5.573,18.991A16.5,16.5,0,0,1,511.687,903.351ZM454.179,744.393a83.907,83.907,0,0,0-17.941,1.932c-8.349,1.86-10.658,3.368-12.036,4.268a7.863,7.863,0,0,1-2.028,1.048,40.162,40.162,0,0,1-4.57.945c-7.494,1.3-20.036,3.476-23.634,12.556C392.7,768.355,394,774.5,397,779.433c1.838,3.022,5.867,8.187,12.217,8.832,2.189.222,4.135.329,6.016.433,8.987.495,14.923.822,22.241,12.963,4.824,8,23.206,26.045,39.424,41.964,10.841,10.64,21.08,20.69,27.264,27.644,3.5,3.935,8.774,15.657,5.953,23.107-.623,1.645-.588,3.443.079,4.094.613.6,2.481.743,5.887-.646,1.97-.8,4.565-7.191,2.938-13.82-.934-3.8.174-20.362,1.539-23.008.946-1.831,1.988-2.211,29.323-3.349,11.816-.491,24.034-1,29.089-1.832,1.319-.216,2.678.379,4.051,1.771,4.222,4.282,9.514,16.826,7.871,25.974-1.15,6.4-3.694,8.9-5.377,10.546-1.235,1.213-1.493,1.51-1.383,2.665.679.977,6.538,1.147,11.556-.427,2.455-.77,6.54-13.721,7.517-26.422.571-7.412,4.007-13.6,7.645-20.16,1.329-2.393,2.7-4.868,3.916-7.4a78,78,0,0,1,4.516-7.625c5.712-8.933,13.534-21.167,10.077-34.33-3.612-13.752-7.751-16.434-12.991-19.828-1.4-.91-2.854-1.85-4.369-3.045-.883-.7-1.87-1.564-3.013-2.567-8.239-7.234-23.575-20.7-50.712-15.679-32.15,5.946-50.283,5.026-53.377,4.452-1.205-.153-10.955-1.655-21.952-11.409C476.642,746.748,465.534,744.393,454.179,744.393Z" fill="#47280a"/><path d="M413.334,776.417c3.153-5.377,4.521-19.871-.382-22.97-.819-.518-4.468.629-6.676,1.26-5.461,2-10,4.019-12.246,9.678-1.456,3.676-.149,10.291,2.757,15.51a25.282,25.282,0,0,0,3.052,3.486C401.606,784.955,410.284,781.616,413.334,776.417Z" fill="#72492a"/><path d="M443.6,763.81a3.523,3.523,0,1,1,2.116-.707h0A3.505,3.505,0,0,1,443.6,763.81Zm-.109-3.665a.181.181,0,0,0-.066.114.183.183,0,0,0,.032.127.181.181,0,0,0,.114.066.167.167,0,0,0,.127-.032Zm.1-.034a.165.165,0,0,0-.1.034l.207.274a.171.171,0,0,0-.1-.308Z" fill="#231815"/><ellipse cx="1.739" cy="0.858" rx="1.739" ry="0.858" transform="translate(400.346 764.576) rotate(-62.353)" fill="#221714"/><path d="M401.319,765.765a1.185,1.185,0,0,1-.556-.136h0a1.455,1.455,0,0,1-.7-1.405,3.592,3.592,0,0,1,.433-1.532c.667-1.272,1.744-1.885,2.565-1.455a1.457,1.457,0,0,1,.7,1.407,3.87,3.87,0,0,1-1.445,2.758A1.712,1.712,0,0,1,401.319,765.765Zm.949-3.01a2.334,2.334,0,0,0-.459.624,2.286,2.286,0,0,0-.251.733,2.546,2.546,0,0,0,.71-1.357Z" fill="#231815"/><path d="M460.085,744.574s3.577-7.028,8.388-4.808,4.9,6.522,3.237,8.742-4.949,5.921-7.863,6.2" fill="#895b31"/><path d="M464.058,756.917l-.421-4.42c1.486-.142,4.017-2.28,6.3-5.32a2.986,2.986,0,0,0,.437-2.482,4.674,4.674,0,0,0-2.828-2.913c-2.776-1.275-5.456,3.753-5.482,3.8l-3.955-2.02c1.573-3.089,5.961-8.28,11.3-5.815a9.038,9.038,0,0,1,5.273,5.856,7.436,7.436,0,0,1-1.189,6.234C471.623,752.325,467.92,756.549,464.058,756.917Z" fill="#47280a"/><path d="M588.778,878.219a20.03,20.03,0,0,1-.216,4.825c-1.85,10.3-7.264,8.773-6.784,13.815.37,3.885,9.713,2.96,14.431,1.48,3.408-1.069,6.236-10.375,7.823-19.087A66.36,66.36,0,0,1,588.778,878.219Z" fill="#595757"/><path d="M587.89,901.475a11.261,11.261,0,0,1-6.029-1.34,4.118,4.118,0,0,1-1.925-3.1c-.3-3.128,1.233-4.631,2.585-5.957,1.47-1.443,3.3-3.238,4.22-8.36a18.179,18.179,0,0,0,.191-4.377l-.154-2.345,2.315.4a65.008,65.008,0,0,0,14.795,1.012l2.4-.187-.43,2.364c-1.558,8.548-4.4,19.048-9.089,20.52A32.043,32.043,0,0,1,587.89,901.475Zm2.784-21.079a19.808,19.808,0,0,1-.291,2.975c-1.128,6.283-3.621,8.729-5.27,10.348-1.215,1.191-1.624,1.592-1.494,2.964.008.075.019.19.289.369,1.848,1.226,7.833.751,11.748-.479,1.33-.417,3.969-4.873,6.114-15.363A68.124,68.124,0,0,1,590.674,880.4Z" fill="#47280a"/><path d="M566.611,875.438c.357,7.708-5.211,8.7-5.32,11.635-.088,2.4,1.476,4.206,8.465,2.849s8.835-4.295,9.575-12.436c.046-.508.085-1.019.123-1.53A83.218,83.218,0,0,1,566.611,875.438Z" fill="#595757"/><path d="M565.657,892.606a7.3,7.3,0,0,1-4.918-1.448,4.978,4.978,0,0,1-1.666-4.168c.072-1.942,1.32-3.234,2.421-4.374,1.514-1.568,3.079-3.189,2.9-7.075l-.12-2.578,2.567.266a81.055,81.055,0,0,0,12.457.513l2.558-.181-.188,2.558c-.039.524-.078,1.048-.126,1.569-.748,8.242-2.712,12.734-11.363,14.414A24.115,24.115,0,0,1,565.657,892.606Zm3.1-14.733a12.575,12.575,0,0,1-4.064,7.828c-.465.482-1.169,1.21-1.178,1.454-.005.154-.005.524.117.629.1.09,1.148.844,5.706-.042,5.466-1.061,6.973-2.8,7.691-9.479C574.342,878.3,571.358,878.1,568.752,877.873Z" fill="#47280a"/><path d="M507.31,882.968v0c1.073,3.69,1.488,7.572.386,10.484-1.416,3.74-.913,10.282,8.881,6.291,3.253-1.326,6.105-8.869,4.255-16.4a13.235,13.235,0,0,1-.262-2.307h0C516.2,883.814,507.31,882.968,507.31,882.968Z" fill="#595757"/><path d="M511.351,902.845a5.955,5.955,0,0,1-4.343-1.6c-2.287-2.23-1.991-5.945-1.043-8.448.83-2.192.676-5.5-.432-9.313l-.2-.7.891-1.781,1.263.117c2.3.217,8.96.341,12.09-1.654l2.688-1.713.154,3.184a11.118,11.118,0,0,0,.212,1.955c2.058,8.384-1.187,16.862-5.354,18.56A16.11,16.11,0,0,1,511.351,902.845Zm-1.65-17.91c.589,2.89.816,6.292-.276,9.174-.58,1.532-.719,3.626.166,4.489.917.895,3.207.687,6.287-.567,2.125-.866,4.856-7.325,3.157-14.251l0-.012A29.735,29.735,0,0,1,509.7,884.935Z" fill="#47280a"/><line x2="14.288" y2="0.523" transform="translate(526.605 779.689)" fill="#804f21"/><rect width="2.961" height="14.298" transform="translate(526.55 781.169) rotate(-87.903)" fill="#47280a"/><line x2="14.288" y2="0.523" transform="translate(542.641 790.465)" fill="#804f21"/><rect width="2.961" height="14.298" transform="translate(542.587 791.944) rotate(-87.903)" fill="#47280a"/><line x2="11.707" y2="0.974" transform="translate(564.606 776.204)" fill="#804f21"/><rect width="2.96" height="11.748" transform="matrix(0.083, -0.997, 0.997, 0.083, 564.483, 777.679)" fill="#47280a"/></g><path d="M535.15,898.718c-3.372-.672-6.623-.615-9.282,2.1-2.951,3.014-5.96,5.972-8.947,8.95-.323.323-.668.624-.98.913-5.112-3.222-9.312-2.4-13.5,2.433l-5.082-.378a9.556,9.556,0,0,0-5.921-5.22c1.487-1.491,2.876-2.7,4.04-4.1,1.759-2.108,3.767-3.318,6.6-2.6a1.6,1.6,0,0,0,.7.005,2.227,2.227,0,0,0,1.99-2.051,2.015,2.015,0,0,0-1.495-2.4c-3.2-.678-6.41-.8-8.982,1.716q-6.132,6-12.118,12.141a8.582,8.582,0,0,0-2.342,7.515,9.156,9.156,0,0,0,17.845,1.3c.332-1.045.907-1.71,1.957-1.622.963.081,1.473.745,1.627,1.8a9.1,9.1,0,0,0,11.008,7.788c5.25-1.126,8.252-6.279,6.855-11.653a1.9,1.9,0,0,1,.41-1.528c2.572-2.663,5.312-5.17,7.8-7.909,1.9-2.089,3.88-3.492,6.833-2.707a1.318,1.318,0,0,0,.559,0,2.228,2.228,0,0,0,2.022-2.019A2.038,2.038,0,0,0,535.15,898.718Zm-46.513,22.256a4.562,4.562,0,1,1,4.847-4.265A4.615,4.615,0,0,1,488.637,920.974Zm21.289,1.578a4.56,4.56,0,1,1,4.917-4.161A4.568,4.568,0,0,1,509.926,922.552Z" transform="translate(-197.561 70.425)" fill="#ef5542" stroke="#47280a" stroke-miterlimit="10" stroke-width="3"/><g transform="translate(-197.561 70.425)"><path d="M452.592,913.988q-7.514,0-15.028,0c-3.7,0-4.044-.513-2.573-3.812,3.249-7.289,6.518-14.57,9.729-21.875a7.672,7.672,0,0,0,.693-2.9c.065-5.347-.005-10.7.052-16.043a2.773,2.773,0,0,0-1.891-2.957c-1.3-.56-3.2-1.145-2.719-2.926.172-.638.954-1.06,3.5-1.06,5.548-.11,11.1-.055,16.651-.04a9.522,9.522,0,0,1,2.416.2c1.208.323,1.519,1.2.67,2.128a5.862,5.862,0,0,1-2.289,1.615c-1.752.6-2.125,1.752-2.1,3.435.075,5.143-.01,10.289.06,15.433a8.225,8.225,0,0,0,.693,3.1c3.281,7.5,6.634,14.961,9.953,22.441,1.144,2.577.7,3.25-2.179,3.257C463.017,914,457.8,913.988,452.592,913.988Zm-3.685-32.013c1.135,5.7-2.09,10.089-4.064,14.837-1.478,3.556-3.126,7.041-4.677,10.567-1.021,2.322-.618,2.976,1.839,2.98q10.551.016,21.1,0c2.488,0,2.924-.661,1.921-2.926-2.023-4.573-4.013-9.163-6.127-13.7-1.693-3.628-3.37-7.226-2.866-11.394.012-.1-.129-.216-.227-.368Z" fill="#fff" stroke="#47280a" stroke-miterlimit="10" stroke-width="3"/><path d="M448.907,881.975c2.53,0,7.142-.1,7.13,0-.5,4.169,1.173,8.134,2.866,11.762,2.114,4.532,4.1,9.122,6.127,13.7,1,2.265.567,2.923-1.921,2.926q-10.553.014-21.1,0c-2.457,0-2.86-.658-1.839-2.98,1.551-3.526,3.2-7.011,4.677-10.567C446.817,892.064,450.042,887.674,448.907,881.975Z" fill="#ef5542" stroke="#47280a" stroke-miterlimit="10" stroke-width="3"/></g></g></svg>