<svg xmlns="http://www.w3.org/2000/svg" width="322.58" height="322.58" viewBox="0 0 322.58 322.58"><g transform="translate(-2246.605 -672.658)"><circle cx="161.29" cy="161.29" r="161.29" transform="translate(2246.605 672.658)" fill="#f4f5f3"/><circle cx="149.551" cy="149.551" r="149.551" transform="translate(2259.023 684.397)" fill="#fddad3"/><path d="M2738.439,906.8a13,13,0,0,1-4.127-2.246,13.02,13.02,0,0,0,4.127,2.247,6.16,6.16,0,0,0,6.516-1.2A6.158,6.158,0,0,1,2738.439,906.8Z" transform="translate(-242.561 7.702)" fill="none"/><path d="M2651.216,678.447c-81.5,0-147.8,66.3-147.8,147.8a147.944,147.944,0,0,0,2.887,29.118c14.074-10.371,15.906-16.68,18.387-25.266.566-1.958,1.152-3.983,1.917-6.2l.17-.495c3.013-8.765,12.182-35.441,29.426-41.78.737-.271,1.512-.561,2.311-.863a4.056,4.056,0,0,1,1.711-1.141c36.295-14.116,36.321-14.126,36.393-14.149.093-.034,12.724-4.472,16.926-5.917.1-.036,12.389-3.548,20.671-3.409h.053c2.706-.02,11.974-.029,17.571.833.318.048,10.363,2.072,13.7,3.1,1.216.374,9.709,3.389,10.673,3.732a3.276,3.276,0,0,1,1.125.7c.717.3,1.436.593,2.166.907,17.559,7.552,22.9,10.774,29.659,14.854l1.873,1.129a86.3,86.3,0,0,0,22.776,8.78c1.08.211,2.194.46,3.325.755.92-4.354,2.62-8.651,5.757-10.158a5.813,5.813,0,0,1,5.856.534c5.014,3.127,1.537,11.026-.5,14.754a27.212,27.212,0,0,1,8.834,11.846c4.142,10.19,13.359,22.1,17.294,27.179.59.762,1.076,1.39,1.431,1.862,9.84,13.108,9.252,16.966,9.059,18.234a7.509,7.509,0,0,1-3.819,5.666c-3.763,2.031-9.51,1.221-17.568-2.475-11.246-5.16-18.8-8.461-26.268-9.386.21,6.252,1.106,14.722,2.691,16.735a22.9,22.9,0,0,0,3.338,3.043c2.829,2.286,6.349,5.131,4.4,8.467a8.763,8.763,0,0,1-4.713,3.864c5.2,5.571,8.232,13.961,7.073,20.488a3.143,3.143,0,0,0,0,.565q-.429,1.37-.859,2.738c-.2.322-.406.64-.594.968a10.055,10.055,0,0,1-5.613,4.311,28.2,28.2,0,0,1-13.569,1.868,49.124,49.124,0,0,0-9.69-.43,7.945,7.945,0,0,1-4.427-.8c-2.089-1.256-3.685-.714-5.428.434a1.12,1.12,0,0,0-.654,1.09,4.805,4.805,0,0,1-4.87,4.921c-.185,0-.371.033-.556.05l-1.643-.516a5.2,5.2,0,0,1-2.584-4.7c.01-.219-.23-.5-.425-.668a4.835,4.835,0,0,1-.89-6.748,4.9,4.9,0,0,1,6.751-.993c.271.178.715.092,1.08.125.027,0,.056-.029.085-.04,1.808-.677,3.005-1.6,3.029-3.9a7.708,7.708,0,0,1,2.559-5.318,23.228,23.228,0,0,0,4.5-6.679,26.209,26.209,0,0,1,8.236-9.641,11.051,11.051,0,0,1-1.707-3.323,7.693,7.693,0,0,0-1.932-3.34c-8.407-7.843-16.594-23.661-17.834-26.109-.261-.023-.521-.041-.78-.052-.081.024-.161.054-.245.073l-4.389,1.018a4.014,4.014,0,0,0-1.091,3.052c-.035,2.177-.175,4.888-.325,7.758-.295,5.685-.842,16.2.261,18.107,2.362,1.584,4.39,2.5,9.126,4.381,2.217.881,3.561,3.537,3.2,6.317-.446,3.4-3.161,5.724-7.262,6.209-6.839.812-19.571,2.319-23.206-7.347-.985-2.617-1.933-5.327-2.77-7.718-1.405-4.011-3.152-9.005-3.908-9.84a17.57,17.57,0,0,1-1.716-2.68c-2.356-4.061-7.259-12.513-12.921-12.707-1.008-.035-1.974-.063-2.921-.089a96.842,96.842,0,0,0-3.935,13.081c.234.4,1.372,1.593,6.869,3.848a6.623,6.623,0,0,1,4.249,7.351,7.793,7.793,0,0,1-7.372,6.379c-1.716.108-3.475.186-5.2.186-5.17,0-10.1-.7-12.94-3.376a6.96,6.96,0,0,1-2.213-5.216c.014-3.973-1.778-5.2-4.045-6.742-1.855-1.266-4.162-2.84-4.541-6.064-.175-1.479-.491-3.451-.884-5.7-3.193,5.321-8,19.816-8.16,21.908.407,1.127,4.919,4.354,12.731,6.973,3.579,1.2,5.528,3.769,5.213,6.875a8.3,8.3,0,0,1-7.222,6.942c-.591.072-1.386.2-2.333.349a83.513,83.513,0,0,1-12.879,1.286c-6.837,0-13.562-1.575-15.614-7.692-1.482-4.42-4.668-8.565-7.479-12.223-3.489-4.539-6.5-8.46-6.214-12.44.457-6.289,1.668-22.993-6.653-28.084-4.445-2.719-8-2.713-12.686.021-1.83,1.069-4.27,4.352-7.095,8.154-7.228,9.725-19.1,25.683-41.665,33.274a148.036,148.036,0,0,0,137.273,93.028c81.5,0,147.8-66.3,147.8-147.8S2732.713,678.447,2651.216,678.447Zm28.01,255.427c-3.238,1.652-16.463,7.8-27.524,4.146a.63.63,0,0,1-.332-1.022,32.823,32.823,0,0,0,7.3-19.008l-.4.332.4-.332c.01-.24.014-.483.017-.727l-51.749,7.451a3.628,3.628,0,1,1-1.034-7.182l52.022-7.49-.015-.068-.9-.4.9.4a33.651,33.651,0,0,0-1.347-4.425.718.718,0,0,1,.65-.918l12.836-1.848a.707.707,0,0,1,.877.745,27.743,27.743,0,0,0-.385,4.511l1.163-.975-1.163.975c0,.062,0,.123,0,.187l.811-.117a3.628,3.628,0,1,1,1.034,7.182l-1.106.159c.032.16.07.322.105.484l.854.377-.854-.377a42.6,42.6,0,0,0,8.125,16.957A.649.649,0,0,1,2679.226,933.874Z" transform="translate(-242.561 7.702)" fill="none"/><path d="M2637.054,852.273c-.159,0-.268,0-.348-.008v.007l-.989-.136c-.049-.012-.093-.037-.142-.051a47.652,47.652,0,0,0-7.571.967c.56,3.1,1.019,5.832,1.251,7.806.132,1.126.832,1.7,2.65,2.941,2.527,1.724,5.988,4.085,5.967,10.394a2.526,2.526,0,0,0,.829,2c2.92,2.751,11.9,2.186,14.851,2a3.372,3.372,0,0,0,3.3-2.7,2.236,2.236,0,0,0-1.576-2.564c-4.77-1.955-9.838-4.352-9.6-8.058.1-1.593,1.743-7.587,3.686-13.038l-.98-.013C2640.461,852.175,2637.955,852.273,2637.054,852.273Z" transform="translate(-242.561 7.702)" fill="#fce5c4"/><path d="M2647.872,865.007c-.144,2.279,4.875,4.5,8.243,5.883,5.1,2.091,3.228,9.143-2.427,9.5-5.025.316-18.042,1.077-18.018-6.2.03-8.922-7.983-7.812-8.6-13.071-.219-1.868-.648-4.437-1.178-7.383a2.973,2.973,0,0,0-1.068.731,10.367,10.367,0,0,0-.823,1.21c.393,2.248.709,4.22.884,5.7.379,3.224,2.686,4.8,4.541,6.064,2.267,1.547,4.059,2.769,4.045,6.742a6.96,6.96,0,0,0,2.213,5.216c2.844,2.68,7.77,3.376,12.94,3.376,1.73,0,3.489-.078,5.2-.186a7.793,7.793,0,0,0,7.372-6.379,6.623,6.623,0,0,0-4.249-7.351c-5.5-2.255-6.635-3.447-6.869-3.848a96.842,96.842,0,0,1,3.935-13.081q-1.2-.031-2.328-.055C2649.725,857.289,2647.961,863.6,2647.872,865.007Z" transform="translate(-242.561 7.702)" fill="#47280a"/><path d="M2645.675,864.868c-.233,3.706,4.835,6.1,9.6,8.058a2.236,2.236,0,0,1,1.576,2.564,3.372,3.372,0,0,1-3.3,2.7c-2.952.184-11.931.749-14.851-2a2.526,2.526,0,0,1-.829-2c.021-6.309-3.44-8.67-5.967-10.394-1.818-1.239-2.518-1.815-2.65-2.941-.232-1.974-.691-4.709-1.251-7.806a11.413,11.413,0,0,0-2.113.68c.53,2.946.959,5.515,1.178,7.383.619,5.259,8.632,4.149,8.6,13.071-.024,7.279,12.993,6.518,18.018,6.2,5.655-.355,7.525-7.407,2.427-9.5-3.368-1.381-8.387-3.6-8.243-5.883.089-1.41,1.853-7.718,3.816-13.137q-1.2-.025-2.327-.04C2647.418,857.281,2645.776,863.275,2645.675,864.868Z" transform="translate(-242.561 7.702)" fill="#47280a"/><path d="M2746.419,785.032c-.978-.61-1.428-.394-1.62-.3-1.084.521-2.516,2.816-3.449,7.542a31,31,0,0,1,3.161,1.429C2746.483,789.972,2747.669,785.812,2746.419,785.032Z" transform="translate(-242.561 7.702)" fill="#fce5c4"/><path d="M2747.583,783.164c3.311,2.065.481,8.488-1.171,11.62q.933.586,1.838,1.267c2.035-3.728,5.512-11.627.5-14.754a5.813,5.813,0,0,0-5.856-.534c-3.137,1.507-4.837,5.8-5.757,10.158.7.183,1.41.391,2.122.617C2740.759,784.244,2743.762,780.78,2747.583,783.164Z" transform="translate(-242.561 7.702)" fill="#47280a"/><path d="M2744.8,784.73c.192-.092.642-.308,1.62.3,1.25.78.064,4.94-1.908,8.669.639.335,1.275.69,1.9,1.083,1.652-3.132,4.482-9.555,1.171-11.62-3.821-2.384-6.824,1.08-8.326,8.374.7.221,1.4.464,2.093.734C2742.283,787.546,2743.715,785.251,2744.8,784.73Z" transform="translate(-242.561 7.702)" fill="#47280a"/><path d="M2567.236,832.872c4.728-20.22,1.84-35.864-8.585-46.495a4.135,4.135,0,0,1-.771-1.112c-.1.036-.2.076-.3.11-15.458,5.682-24.162,31-27.022,39.325l-.171.5c-.732,2.126-1.3,4.1-1.855,6.012-2.682,9.278-4.816,16.633-21.314,28.431a146.5,146.5,0,0,0,5.281,17.641c21.457-7.136,32.487-21.96,39.893-31.926,3.34-4.494,5.753-7.741,8.29-9.223a18.312,18.312,0,0,1,6.458-2.434A3.645,3.645,0,0,1,2567.236,832.872Z" transform="translate(-242.561 7.702)" fill="#fce5c4"/><path d="M2704.187,838.868a4.1,4.1,0,0,1,.906,2.8c1.342.2,2.582.469,3.614.7l22.071,2.362c.464,0,.929-.005,1.392-.014,10.166-.209,18.722,3.471,32.98,10.011a39.924,39.924,0,0,0,7.563,2.717c-.02-1.694,1.215-3.779,3.29-5.262a8.218,8.218,0,0,1,3.814-1.537,67.755,67.755,0,0,0-7.208-11.3c-.346-.461-.82-1.073-1.394-1.815-4.037-5.213-13.489-17.423-17.838-28.122-3.514-8.643-9.528-12.285-15.664-14.162l-1.253-.148c.008-.067.018-.137.026-.2-1.155-.312-2.309-.575-3.446-.8a89.617,89.617,0,0,1-24.063-9.275l-1.884-1.134c-6.58-3.971-11.794-7.116-28.8-14.441a5.077,5.077,0,0,1-.715,1.486C2674.438,775.089,2667.066,792.892,2704.187,838.868Zm29.4-15.807a3.855,3.855,0,0,1,5.506.794,4.033,4.033,0,0,1-.765,5.506h0a3.825,3.825,0,0,1-2.36.817,3.883,3.883,0,0,1-3.146-1.611A4.033,4.033,0,0,1,2733.583,823.061Zm-33.017-30.186a8.324,8.324,0,0,1,5.846-5.6,6.182,6.182,0,0,1,5.306.681c5.919,3.7,8.1,17.534,8.327,19.1l-4.355.639c-.755-5.139-3.135-14.027-6.3-16.006a1.8,1.8,0,0,0-1.636-.22,3.934,3.934,0,0,0-2.969,2.679c-1.1,3.66,1.962,10.488,8.2,18.264l-3.433,2.756C2704.341,808.675,2698.555,799.54,2700.566,792.875Z" transform="translate(-242.561 7.702)" fill="#fce5c4"/><path d="M2620.414,836.136c-.032-.187-.062-.342-.089-.473a3.055,3.055,0,0,1-1.334-1.474l1.991-.938h0l1.99-.938a1.692,1.692,0,0,0-1.36-.744c-.009,0-.014,0-.008,0l.008,0,.027,0c1.923,0,2.6,1.525,2.915,2.83l9.8,3.14c-.075-.679-.175-1.4-.309-2.177-1.1-6.361-12.3-17.9-25.508-20.807-7.013-1.545-16.962-1.077-24.556,9.906a16.494,16.494,0,0,0-2.845,8.076,15.639,15.639,0,0,1-.892,3.987,4.686,4.686,0,0,1-.7,1.186c8.146,7.333,7,23.174,6.491,30.233-.179,2.46,2.529,5.983,5.4,9.712,3,3.907,6.405,8.334,8.1,13.39,2.4,7.156,17.587,4.751,24.073,3.725,1-.159,1.848-.292,2.475-.368a4.29,4.29,0,0,0,3.725-3.374c.149-1.469-1.28-2.267-2.5-2.677-2.606-.874-15.6-5.5-15.463-10.8.081-3.178,6.267-21.188,9.89-25.617a5.46,5.46,0,0,1,1.382-1.164q-.328-1.764-.675-3.6C2621.746,843.513,2621.036,839.741,2620.414,836.136Z" transform="translate(-242.561 7.702)" fill="#fce5c4"/><path d="M2735.93,826.245a.167.167,0,0,0,.112-.027c.007-.009-.02-.034-.065-.04a.174.174,0,0,0-.112.026l.021.028A.165.165,0,0,0,2735.93,826.245Z" transform="translate(-242.561 7.702)" fill="#fce5c4"/><path d="M2735.886,826.232l-.022-.027a.057.057,0,0,0-.016.018l.006,0A.233.233,0,0,1,2735.886,826.232Z" transform="translate(-242.561 7.702)" fill="#fce5c4"/><path d="M2674.183,836.31c-5.007.689-9.435,4.95-13.164,12.661,5.826,2.6,10.062,9.883,12.3,13.743.484.834,1.033,1.781,1.227,2.009,1.234,1.364,2.465,4.778,4.712,11.2.87,2.486,1.77,5.057,2.738,7.63,2.336,6.211,11.027,5.726,18.99,4.783,2.23-.265,3.567-1.243,3.765-2.756a2.142,2.142,0,0,0-.708-2.078c-4.645-1.846-7.148-2.928-10.023-4.875-2.625-1.778-2.59-7.929-1.882-21.54.147-2.833.286-5.509.32-7.613a9.841,9.841,0,0,1,.5-3.044,4.058,4.058,0,0,1-1.044-.842C2689.757,843.134,2682.1,835.226,2674.183,836.31Z" transform="translate(-242.561 7.702)" fill="#fce5c4"/><path d="M2620.982,833.251h0Z" transform="translate(-242.561 7.702)" fill="#fce5c4"/><path d="M2633.5,846.034a16.724,16.724,0,0,0,.852-8.5l-9.8-3.14c.087.359.147.7.2.991.617,3.572,1.324,7.328,2.007,10.961q.273,1.446.535,2.849a44.371,44.371,0,0,1,5.789-.9A6.316,6.316,0,0,1,2633.5,846.034Z" transform="translate(-242.561 7.702)" fill="#fce5c4"/><path d="M2621.612,831.568l-.008,0C2621.6,831.568,2621.6,831.568,2621.612,831.568Z" transform="translate(-242.561 7.702)" fill="#fce5c4"/><path d="M2621.639,831.566l-.027,0a1.692,1.692,0,0,1,1.36.744l-1.99.938,3.572,1.146C2624.239,833.091,2623.562,831.566,2621.639,831.566Z" transform="translate(-242.561 7.702)" fill="#fce5c4"/><path d="M2620.982,833.251l-1.991.938a3.055,3.055,0,0,0,1.334,1.474c.027.131.057.286.089.473.622,3.605,1.332,7.377,2.018,11.026q.347,1.836.675,3.6a10.911,10.911,0,0,1,2.062-.953c-.835-4.471-1.789-9.431-2.586-14.051C2622.016,832.481,2621.612,834.586,2620.982,833.251Z" transform="translate(-242.561 7.702)" fill="#fce5c4"/><path d="M2626.758,846.348c-.683-3.633-1.39-7.389-2.007-10.961-.05-.289-.11-.632-.2-.991l-3.572-1.146h0c.63,1.335,1.034-.77,1.6,2.51.8,4.62,1.751,9.58,2.586,14.051a20.6,20.6,0,0,1,2.124-.615Q2627.03,847.792,2626.758,846.348Z" transform="translate(-242.561 7.702)" fill="#fce5c4"/><path d="M2737.713,795.242c-.409-.125-.817-.242-1.227-.352-.008.067-.018.137-.026.2Z" transform="translate(-242.561 7.702)" fill="#fce5c4"/><path d="M2694.891,846.966a7.672,7.672,0,0,0-.432,2.537c-.134,8.505-1.941,25.686.683,27.464s4.852,2.77,9.642,4.672c2.784,1.107,3.505,7.844-3.561,8.681s-18.07,1.987-21.1-6.065-5.553-16.522-7.067-18.2c-1.347-1.489-6.282-12.8-13.339-15.475a4.05,4.05,0,0,1-2.138.813l-3.428.157c-.046.122-.091.247-.137.37.947.026,1.913.054,2.921.089,5.662.194,10.565,8.646,12.921,12.707a17.57,17.57,0,0,0,1.716,2.68c.756.835,2.5,5.829,3.908,9.84.837,2.391,1.785,5.1,2.77,7.718,3.635,9.666,16.367,8.159,23.206,7.347,4.1-.485,6.816-2.806,7.262-6.209.363-2.78-.981-5.436-3.2-6.317-4.736-1.881-6.764-2.8-9.126-4.381-1.1-1.9-.556-12.422-.261-18.107.15-2.87.29-5.581.325-7.758a4.014,4.014,0,0,1,1.091-3.052l-1.666.386A4.046,4.046,0,0,1,2694.891,846.966Z" transform="translate(-242.561 7.702)" fill="#47280a"/><path d="M2745.419,796.538h-.006a24.9,24.9,0,0,1,9.817,12.114c4.846,11.921,16.152,25.724,18.979,29.488,2.1,2.8,6.2,8.478,7.925,12.845a2.515,2.515,0,0,1,.985.83c.777,1.166.479,2.88-.6,4.477a5.479,5.479,0,0,1-4.592,3.49,4.908,4.908,0,0,1-3.848-.04,36.753,36.753,0,0,1-9.763-3.2c-11.682-5.359-19.364-8.71-27.15-9.6l.006.409c.007.516.023,1.062.041,1.62,7.463.925,15.022,4.226,26.268,9.386,8.058,3.7,13.8,4.506,17.568,2.475a7.509,7.509,0,0,0,3.819-5.666c.193-1.268.781-5.126-9.059-18.234-.355-.472-.841-1.1-1.431-1.862-3.935-5.084-13.152-16.989-17.294-27.179a27.212,27.212,0,0,0-8.834-11.846c-.4.733-.746,1.308-.959,1.651Z" transform="translate(-242.561 7.702)" fill="#47280a"/><path d="M2702.185,845.391c.259.011.519.029.78.052l-.149-.3A4,4,0,0,1,2702.185,845.391Z" transform="translate(-242.561 7.702)" fill="#47280a"/><path d="M2555.608,847.742c2.825-3.8,5.265-7.085,7.095-8.154,4.684-2.734,8.241-2.74,12.686-.021,8.321,5.091,7.11,21.795,6.653,28.084-.288,3.98,2.725,7.9,6.214,12.44,2.811,3.658,6,7.8,7.479,12.223,2.052,6.117,8.777,7.692,15.614,7.692a83.513,83.513,0,0,0,12.879-1.286c.947-.15,1.742-.277,2.333-.349a8.3,8.3,0,0,0,7.222-6.942c.315-3.106-1.634-5.676-5.213-6.875-7.812-2.619-12.324-5.846-12.731-6.973.163-2.092,4.967-16.587,8.16-21.908q-.228-1.3-.487-2.718a3.021,3.021,0,0,0-.239.241c-3.365,4.114-9.371,21.752-9.438,24.4s7.235,6.553,14.1,8.854,3.533,9.306-1.615,9.934-25.355,5.227-28.687-4.707-14.04-17.727-13.594-23.882c.527-7.265,1.449-22.6-6.252-28.959a8.2,8.2,0,0,1-4.319-.536c-.482-.155-1.005-.323-1.572-.479-.9-.247-3.013-.836-4.1-2.213a15.9,15.9,0,0,0-6.1,2.252c-7.369,4.3-17.2,30.844-48.478,41.295.239.622.479,1.243.726,1.86C2536.508,873.425,2548.38,857.467,2555.608,847.742Z" transform="translate(-242.561 7.702)" fill="#47280a"/><path d="M2528.5,824.545c2.671-7.754,11.7-34.913,28.394-41.048l.595-.221a4.159,4.159,0,0,1,.1-.763,4.11,4.11,0,0,1,.921-1.757c-.8.3-1.574.592-2.311.863-17.244,6.339-26.413,33.015-29.426,41.78l-.17.495c-.765,2.221-1.351,4.246-1.917,6.2-2.481,8.586-4.313,14.895-18.387,25.266.144.717.3,1.432.452,2.146C2525.34,844.026,2524.273,836.813,2528.5,824.545Z" transform="translate(-242.561 7.702)" fill="#47280a"/><path d="M2678.351,766.1a4.641,4.641,0,0,1,.191,1.074l.169.07c19.046,8.191,23.688,11.3,31.294,15.86a88.367,88.367,0,0,0,23.42,9.028c1.078.211,2.2.464,3.343.766.106-.653.227-1.314.367-1.974-1.131-.3-2.245-.544-3.325-.755a86.3,86.3,0,0,1-22.776-8.78l-1.873-1.129c-6.761-4.08-12.1-7.3-29.659-14.854-.73-.314-1.449-.612-2.166-.907A3.625,3.625,0,0,1,2678.351,766.1Z" transform="translate(-242.561 7.702)" fill="#47280a"/><path d="M2649.361,851.83l.02-.058-1,.045Z" transform="translate(-242.561 7.702)" fill="#47280a"/><path d="M2633.555,850.421c-.028-.054-.045-.111-.07-.166a43.678,43.678,0,0,0-5.831.887q.18.975.349,1.91a47.652,47.652,0,0,1,7.571-.967A3.273,3.273,0,0,1,2633.555,850.421Z" transform="translate(-242.561 7.702)" fill="#47280a"/><path d="M2625.89,853.732c-.114-.634-.232-1.281-.355-1.949a6.072,6.072,0,0,0-2.023,1.172q.258,1.414.487,2.718a10.367,10.367,0,0,1,.823-1.21A2.973,2.973,0,0,1,2625.89,853.732Z" transform="translate(-242.561 7.702)" fill="#47280a"/><path d="M2651.762,851.664c-.024.068-.049.137-.074.206q1.134.023,2.328.055c.046-.123.091-.248.137-.37Z" transform="translate(-242.561 7.702)" fill="#47280a"/><path d="M2627.654,851.142a16.789,16.789,0,0,0-2.119.641c.123.668.241,1.315.355,1.949a11.413,11.413,0,0,1,2.113-.68Q2627.833,852.118,2627.654,851.142Z" transform="translate(-242.561 7.702)" fill="#47280a"/><path d="M2649.361,851.83q1.129.015,2.327.04c.025-.069.05-.138.074-.206l-2.381.108Z" transform="translate(-242.561 7.702)" fill="#47280a"/><path d="M2745.413,796.537h.006l-.06-.038Z" transform="translate(-242.561 7.702)" fill="#47280a"/><path d="M2743.553,795.377c.334-.539.655-1.1.958-1.676a31,31,0,0,0-3.161-1.429c-.124.63-.24,1.3-.345,2.017a27.366,27.366,0,0,1,4.24,2.14Z" transform="translate(-242.561 7.702)" fill="#47280a"/><path d="M2745.422,796.538h0l1.872,1.164c.213-.343.559-.918.959-1.651q-.9-.681-1.838-1.267C2745.849,795.852,2745.422,796.538,2745.422,796.538Z" transform="translate(-242.561 7.702)" fill="#47280a"/><path d="M2738.9,793.523c.107-.693.23-1.349.362-1.985-.712-.226-1.421-.434-2.122-.617-.14.66-.261,1.321-.367,1.974Q2737.821,793.174,2738.9,793.523Z" transform="translate(-242.561 7.702)" fill="#47280a"/><path d="M2741.35,792.272c-.7-.27-1.4-.513-2.093-.734-.132.636-.255,1.292-.362,1.985.7.229,1.406.481,2.11.766C2741.11,793.571,2741.226,792.9,2741.35,792.272Z" transform="translate(-242.561 7.702)" fill="#47280a"/><path d="M2743.553,795.377l1.692,1.052.114.071.06.038h0s.427-.686.99-1.754c-.626-.393-1.262-.748-1.9-1.083C2744.208,794.275,2743.887,794.838,2743.553,795.377Z" transform="translate(-242.561 7.702)" fill="#47280a"/><path d="M2621.725,851.929c-3.623,4.429-9.809,22.439-9.89,25.617-.135,5.3,12.857,9.928,15.463,10.8,1.224.41,2.653,1.208,2.5,2.677a4.29,4.29,0,0,1-3.725,3.374c-.627.076-1.47.209-2.475.368-6.486,1.026-21.673,3.431-24.073-3.725-1.7-5.056-5.1-9.483-8.1-13.39-2.866-3.729-5.574-7.252-5.4-9.712.512-7.059,1.655-22.9-6.491-30.233a3.254,3.254,0,0,1-1.757,1.13c7.7,6.358,6.779,21.694,6.252,28.959-.446,6.155,10.263,13.948,13.594,23.882s23.538,5.334,28.687,4.707,8.48-7.634,1.615-9.934-14.166-6.205-14.1-8.854,6.073-20.287,9.438-24.4a3.021,3.021,0,0,1,.239-.241q-.2-1.071-.405-2.19A5.46,5.46,0,0,0,2621.725,851.929Z" transform="translate(-242.561 7.702)" fill="#47280a"/><path d="M2678.3,769.242c17,7.325,22.216,10.47,28.8,14.441l1.884,1.134a89.617,89.617,0,0,0,24.063,9.275c1.137.223,2.291.486,3.446.8.079-.65.171-1.317.282-1.995-1.143-.3-2.265-.555-3.343-.766A88.367,88.367,0,0,1,2710,783.1c-7.606-4.562-12.248-7.669-31.294-15.86l-.169-.07A5.806,5.806,0,0,1,2678.3,769.242Z" transform="translate(-242.561 7.702)" fill="#47280a"/><path d="M2780.265,858.577a9.018,9.018,0,0,1-2.338,1.2,5.479,5.479,0,0,0,4.592-3.49A9.15,9.15,0,0,1,2780.265,858.577Z" transform="translate(-242.561 7.702)" fill="#47280a"/><path d="M2738.646,795.351l-.933-.109c6.136,1.877,12.15,5.519,15.664,14.162,4.349,10.7,13.8,22.909,17.838,28.122.574.742,1.048,1.354,1.394,1.815a67.755,67.755,0,0,1,7.208,11.3,4.1,4.1,0,0,1,2.317.341c-1.724-4.367-5.825-10.048-7.925-12.845-2.827-3.764-14.133-17.567-18.979-29.488a24.9,24.9,0,0,0-9.817-12.114l-6.767-1.185Z" transform="translate(-242.561 7.702)" fill="#47280a"/><path d="M2773.149,858.942a2.736,2.736,0,0,1-.436-1.5,39.924,39.924,0,0,1-7.563-2.717c-14.258-6.54-22.814-10.22-32.98-10.011-.463.009-.928.012-1.392.014l6.364.681.024,1.539c7.786.886,15.468,4.237,27.15,9.6a36.753,36.753,0,0,0,9.763,3.2A2.509,2.509,0,0,1,2773.149,858.942Z" transform="translate(-242.561 7.702)" fill="#47280a"/><path d="M2705.063,841.976l3.644.39c-1.032-.234-2.272-.5-3.614-.7C2705.088,841.767,2705.076,841.872,2705.063,841.976Z" transform="translate(-242.561 7.702)" fill="#47280a"/><path d="M2560.686,836.132c-2.537,1.482-4.95,4.729-8.29,9.223-7.406,9.966-18.436,24.79-39.893,31.926.232.628.474,1.251.714,1.875,31.283-10.451,41.109-36.993,48.478-41.295a15.9,15.9,0,0,1,6.1-2.252,2.979,2.979,0,0,1-.655-1.911A18.312,18.312,0,0,0,2560.686,836.132Z" transform="translate(-242.561 7.702)" fill="#47280a"/><path d="M2692.959,846.427a9.841,9.841,0,0,0-.5,3.044c-.034,2.1-.173,4.78-.32,7.613-.708,13.611-.743,19.762,1.882,21.54,2.875,1.947,5.378,3.029,10.023,4.875a2.142,2.142,0,0,1,.708,2.078c-.2,1.513-1.535,2.491-3.765,2.756-7.963.943-16.654,1.428-18.99-4.783-.968-2.573-1.868-5.144-2.738-7.63-2.247-6.419-3.478-9.833-4.712-11.2-.194-.228-.743-1.175-1.227-2.009-2.239-3.86-6.475-11.143-12.3-13.743-.017.035-.034.067-.05.1a4.164,4.164,0,0,1-1.25,1.512c7.057,2.678,11.992,13.986,13.339,15.475,1.514,1.673,4.038,10.143,7.067,18.2s14.031,6.9,21.1,6.065,6.345-7.574,3.561-8.681c-4.79-1.9-7.017-2.894-9.642-4.672s-.817-18.959-.683-27.464a7.672,7.672,0,0,1,.432-2.537A4.037,4.037,0,0,1,2692.959,846.427Z" transform="translate(-242.561 7.702)" fill="#47280a"/><path d="M2528.536,831.209c.552-1.911,1.123-3.886,1.855-6.012l.171-.5c2.86-8.321,11.564-33.643,27.022-39.325.095-.034.2-.074.3-.11a4.067,4.067,0,0,1-.391-1.989l-.595.221c-16.69,6.135-25.723,33.294-28.394,41.048-4.227,12.268-3.16,19.481-21.744,32.965.154.71.3,1.423.466,2.13C2523.72,847.842,2525.854,840.487,2528.536,831.209Z" transform="translate(-242.561 7.702)" fill="#47280a"/><path d="M2633.082,848.3a44.371,44.371,0,0,0-5.789.9q.185.988.361,1.945a43.678,43.678,0,0,1,5.831-.887A4.7,4.7,0,0,1,2633.082,848.3Z" transform="translate(-242.561 7.702)" fill="#47280a"/><path d="M2625.535,851.783q-.178-.966-.366-1.971a10.911,10.911,0,0,0-2.062.953q.209,1.117.405,2.19A6.072,6.072,0,0,1,2625.535,851.783Z" transform="translate(-242.561 7.702)" fill="#47280a"/><path d="M2627.293,849.2a20.6,20.6,0,0,0-2.124.615q.188,1,.366,1.971a16.789,16.789,0,0,1,2.119-.641Q2627.477,850.185,2627.293,849.2Z" transform="translate(-242.561 7.702)" fill="#47280a"/><path d="M2745.245,796.429a27.366,27.366,0,0,0-4.24-2.14c-.062.425-.12.863-.173,1.32l-2.186-.258h0l6.767,1.185-.054-.037Z" transform="translate(-242.561 7.702)" fill="#47280a"/><path d="M2737.713,795.242l.933.109q.111-.944.249-1.828-1.073-.351-2.127-.628c-.111.678-.2,1.345-.282,1.995C2736.9,795,2737.3,795.117,2737.713,795.242Z" transform="translate(-242.561 7.702)" fill="#47280a"/><path d="M2740.832,795.609c.053-.457.111-.9.173-1.32-.7-.285-1.408-.537-2.11-.766q-.138.885-.249,1.828Z" transform="translate(-242.561 7.702)" fill="#47280a"/><path d="M2745.245,796.429l.114.071Z" transform="translate(-242.561 7.702)" fill="#47280a"/><path d="M2735.417,830.14a3.867,3.867,0,0,0,.546.039,3.825,3.825,0,0,0,2.36-.817h0a4.033,4.033,0,0,0,.765-5.506,3.855,3.855,0,0,0-5.506-.794,4.033,4.033,0,0,0-.766,5.507A3.858,3.858,0,0,0,2735.417,830.14Zm.56-3.962c.045.006.072.031.065.04a.167.167,0,0,1-.112.027.165.165,0,0,1-.044-.013l-.021-.028A.174.174,0,0,1,2735.977,826.178Zm-.113.027.022.027a.233.233,0,0,0-.032-.012l-.006,0A.057.057,0,0,1,2735.864,826.205Z" transform="translate(-242.561 7.702)" fill="#47280a"/><path d="M2712.983,812.41c-6.241-7.776-9.307-14.6-8.2-18.264a3.934,3.934,0,0,1,2.969-2.679,1.8,1.8,0,0,1,1.636.22c3.17,1.979,5.55,10.867,6.3,16.006l4.355-.639c-.229-1.566-2.408-15.4-8.327-19.1a6.182,6.182,0,0,0-5.306-.681,8.324,8.324,0,0,0-5.846,5.6c-2.011,6.665,3.775,15.8,8.984,22.291Z" transform="translate(-242.561 7.702)" fill="#47280a"/><path d="M2772.713,857.442c3.611.831,5.508.374,6.436-.126a3.511,3.511,0,0,0,1.763-2.747A2.747,2.747,0,1,0,2776,852.18C2773.928,853.663,2772.693,855.748,2772.713,857.442Z" transform="translate(-242.561 7.702)" fill="#47280a"/><path d="M2782.89,854.871a6.806,6.806,0,0,1-.371,1.42c1.079-1.6,1.377-3.311.6-4.477a2.515,2.515,0,0,0-.985-.83A8.115,8.115,0,0,1,2782.89,854.871Z" transform="translate(-242.561 7.702)" fill="#47280a"/><path d="M2774.079,859.741a4.908,4.908,0,0,0,3.848.04A12.753,12.753,0,0,1,2774.079,859.741Z" transform="translate(-242.561 7.702)" fill="#47280a"/><path d="M2779.817,850.643a8.208,8.208,0,0,1,1.1,3.926,3.511,3.511,0,0,1-1.763,2.747c-.928.5-2.825.957-6.436.126a2.736,2.736,0,0,0,.436,1.5,2.509,2.509,0,0,0,.93.8,12.753,12.753,0,0,0,3.848.04,9.018,9.018,0,0,0,2.338-1.2,9.15,9.15,0,0,0,2.254-2.286,6.806,6.806,0,0,0,.371-1.42,8.115,8.115,0,0,0-.756-3.887A4.1,4.1,0,0,0,2779.817,850.643Z" transform="translate(-242.561 7.702)" fill="#47280a"/><path d="M2723.8,868.334a11.837,11.837,0,0,1,3.06,5.037,4.853,4.853,0,0,0,1.514,2.548c3.107-1.188,6.227-.654,9.288,1,.33.178.647.386.968.587,2.525-.168,4.17-.925,5.08-2.3a17.844,17.844,0,0,0-3.236-3.03,25.582,25.582,0,0,1-4.03-3.743c-2.772-3.518-3.457-14.217-3.626-19.061l-6.912-.74a111.388,111.388,0,0,1-13.516-1.446l-3.731-.4C2711.673,852.294,2717.806,862.74,2723.8,868.334Z" transform="translate(-242.561 7.702)" fill="#fce5c4"/><path d="M2712.392,847.188a111.388,111.388,0,0,0,13.516,1.446Z" transform="translate(-242.561 7.702)" fill="#fce5c4"/><path d="M2738.175,867.074c2.544,3.229,9.109,6.4,7.566,9.037a6.97,6.97,0,0,1-4.625,3.233,23.144,23.144,0,0,1,1.812,1.742,8.763,8.763,0,0,0,4.713-3.864c1.95-3.336-1.57-6.181-4.4-8.467a22.9,22.9,0,0,1-3.338-3.043c-1.585-2.013-2.481-10.483-2.691-16.735-.734-.091-1.468-.153-2.2-.2C2735.145,852.734,2735.742,863.985,2738.175,867.074Z" transform="translate(-242.561 7.702)" fill="#47280a"/><path d="M2722.3,869.943c-7.119-6.642-14.255-19.554-16.663-24.127-.85-.157-1.763-.295-2.673-.373,1.24,2.448,9.427,18.266,17.834,26.109a7.693,7.693,0,0,1,1.932,3.34,11.051,11.051,0,0,0,1.707,3.323q.892-.642,1.845-1.226C2724.587,875.095,2724.871,872.342,2722.3,869.943Z" transform="translate(-242.561 7.702)" fill="#47280a"/><path d="M2709.121,842.46l.317.072a103.576,103.576,0,0,0,21.34,2.2l-22.071-2.362Z" transform="translate(-242.561 7.702)" fill="#47280a"/><path d="M2704.784,844.16l5.409.579c-.428-.088-.836-.174-1.2-.256-1.175-.266-2.78-.645-4.5-.885a4.033,4.033,0,0,1-1.684,1.549l.149.3c.91.078,1.823.216,2.673.373C2705.088,844.771,2704.784,844.16,2704.784,844.16Z" transform="translate(-242.561 7.702)" fill="#47280a"/><path d="M2737.166,846.948a36.621,36.621,0,0,0-4.952-.234c-1.18.026-2.352.025-3.51.005l6.267.671s.008.522.038,1.39c.736.044,1.47.106,2.2.2-.018-.558-.034-1.1-.041-1.62Z" transform="translate(-242.561 7.702)" fill="#47280a"/><path d="M2730.778,844.728a103.576,103.576,0,0,1-21.34-2.2l-.317-.072-.414-.094-3.644-.39a3.891,3.891,0,0,1-.563,1.622c1.716.24,3.321.619,4.5.885.361.082.769.168,1.2.256l18.511,1.98c1.158.02,2.33.021,3.51-.005a36.621,36.621,0,0,1,4.952.234l-.024-1.539Z" transform="translate(-242.561 7.702)" fill="#47280a"/><path d="M2725.908,848.634l6.912.74c.169,4.844.854,15.543,3.626,19.061a25.582,25.582,0,0,0,4.03,3.743,17.844,17.844,0,0,1,3.236,3.03c-.91,1.373-2.555,2.13-5.08,2.3a20.066,20.066,0,0,1,2.484,1.838,6.97,6.97,0,0,0,4.625-3.233c1.543-2.639-5.022-5.808-7.566-9.037-2.433-3.089-3.03-14.34-3.166-18.294-.912-.055-1.826-.084-2.752-.066C2730.129,848.763,2728,848.728,2725.908,848.634Z" transform="translate(-242.561 7.702)" fill="#47280a"/><path d="M2728.376,875.919a4.853,4.853,0,0,1-1.514-2.548,11.837,11.837,0,0,0-3.06-5.037c-6-5.594-12.129-16.04-15.141-21.546l3.731.4c-1.436-.247-2.736-.5-3.839-.753l-.321-.073c-.7-.16-1.6-.364-2.594-.546,2.408,4.573,9.544,17.485,16.663,24.127,2.57,2.4,2.286,5.152,3.982,7.046.156-.1.3-.2.463-.291A10.924,10.924,0,0,1,2728.376,875.919Z" transform="translate(-242.561 7.702)" fill="#47280a"/><path d="M2704.784,844.16s.3.611.854,1.656c.989.182,1.893.386,2.594.546l.321.073c1.1.25,2.4.506,3.839.753l13.516,1.446c2.089.094,4.221.129,6.349.08.926-.018,1.84.011,2.752.066-.03-.868-.038-1.39-.038-1.39l-6.267-.671a106.685,106.685,0,0,1-18.511-1.98Z" transform="translate(-242.561 7.702)" fill="#47280a"/><path d="M2728.7,846.719l-18.511-1.98A106.685,106.685,0,0,0,2728.7,846.719Z" transform="translate(-242.561 7.702)" fill="#47280a"/><path d="M2571.69,833.142a13.928,13.928,0,0,0,1.374.436c.63.174,1.213.36,1.749.532.467.15,1.057.34,1.462.432a14.915,14.915,0,0,0,.5-2.6,20.8,20.8,0,0,1,3.586-9.992c5.648-8.168,13.461-12.452,22.443-12.452a31.064,31.064,0,0,1,6.68.751c14.447,3.179,27.4,15.7,28.9,24.354a36.321,36.321,0,0,1,.5,4.382l14.132,4.53c.152-.239.3-.462.448-.649l3.476,2.7a9.605,9.605,0,0,0-.888,1.492l1.025-.047c4.406-9.1,9.96-14.165,16.509-15.066,9.937-1.374,18.822,7.565,21.509,10.584l2.431-.563a10.753,10.753,0,0,1,1.975-.458l.983-.228c-37.7-46.833-31.078-66.736-26.47-73.13a1.165,1.165,0,0,0,.134-.418c-2.937-1.041-9.015-3.189-9.9-3.461-3.046-.935-12.522-2.848-13.13-2.962-5.215-.8-14.188-.791-16.809-.772h-.176c-7.243-.119-18.543,3-19.2,3.188-4.235,1.455-16.756,5.856-16.882,5.9-.26.1-14.334,5.574-24.871,9.672-3.941,1.577-7.687,3.065-11.034,4.354C2573.279,795.286,2576.492,811.928,2571.69,833.142Z" transform="translate(-242.561 7.702)" fill="#ea875c"/><path d="M2637.591,847.657a1.369,1.369,0,0,0-.066.217c1.806-.063,7.78-.326,13.6-.589a27.409,27.409,0,0,1,1.89-3.766l-14.132-4.53A19.62,19.62,0,0,1,2637.591,847.657Z" transform="translate(-242.561 7.702)" fill="#ea875c"/><path d="M2653.565,847.175l2.484-.113a9.605,9.605,0,0,1,.888-1.492l-3.476-2.7c-.146.187-.3.41-.448.649l2.186.7A15.927,15.927,0,0,0,2653.565,847.175Z" transform="translate(-242.561 7.702)" fill="#ea875c"/><path d="M2653.565,847.175a15.927,15.927,0,0,1,1.634-2.955l-2.186-.7a27.409,27.409,0,0,0-1.89,3.766Z" transform="translate(-242.561 7.702)" fill="#ea875c"/><path d="M2562.1,783.609c.014.015.027.032.041.047,3.347-1.289,7.093-2.777,11.034-4.354Z" transform="translate(-242.561 7.702)" fill="#ea875c"/><path d="M2699.5,841.512a10.753,10.753,0,0,0-1.975.458Z" transform="translate(-242.561 7.702)" fill="#ea875c"/><path d="M2618.151,758.587c14.612-2.937,32.4-5.1,59.185,5.909a3.276,3.276,0,0,0-1.125-.7c-.964-.343-9.457-3.358-10.673-3.732-3.335-1.023-13.38-3.047-13.7-3.1-5.6-.862-14.865-.853-17.571-.833h-.053c-8.282-.139-20.566,3.373-20.671,3.409-4.2,1.445-16.833,5.883-16.926,5.917-.072.023-.1.033-36.393,14.149a4.056,4.056,0,0,0-1.711,1.141c5.083-1.921,11.343-4.433,17.925-7.075C2592.14,767.381,2609.934,760.239,2618.151,758.587Z" transform="translate(-242.561 7.702)" fill="#47280a"/><path d="M2697.7,846.329c-.056.044-.094.105-.146.153l4.389-1.018c.084-.019.164-.049.245-.073A6.976,6.976,0,0,0,2697.7,846.329Z" transform="translate(-242.561 7.702)" fill="#47280a"/><path d="M2636.705,852.272v-.007c.08.005.189.008.348.008.9,0,3.407-.1,11.327-.456-5.391-.054-9.567.057-12.807.268.049.014.093.039.142.051Z" transform="translate(-242.561 7.702)" fill="#47280a"/><path d="M2702.474,840.25a1.89,1.89,0,0,1,.414,1.176c.749.049,1.491.13,2.205.237a4.1,4.1,0,0,0-.906-2.8c-37.121-45.976-29.749-63.779-26.6-68.14a5.077,5.077,0,0,0,.715-1.486l-.376-.162c-.563-.242-1.115-.469-1.669-.7a3.084,3.084,0,0,1-.455,1.06C2671.748,775.057,2665.076,793.93,2702.474,840.25Z" transform="translate(-242.561 7.702)" fill="#47280a"/><path d="M2658.985,848.119c-.026.054-.066.1-.1.147a11.151,11.151,0,0,1,2.13.705c3.729-7.711,8.157-11.972,13.164-12.661,7.919-1.084,15.574,6.824,17.732,9.275a4.058,4.058,0,0,0,1.044.842,7.107,7.107,0,0,1,1.013-1.952,1.894,1.894,0,0,1-.406-.344C2689.773,839.821,2671.745,821.577,2658.985,848.119Z" transform="translate(-242.561 7.702)" fill="#47280a"/><path d="M2581.132,832.534a16.494,16.494,0,0,1,2.845-8.076c7.594-10.983,17.543-11.451,24.556-9.906,13.207,2.906,24.4,14.446,25.508,20.807.134.776.234,1.5.309,2.177l2.28.731c-.079-1-.213-2.088-.421-3.284-2.294-13.23-35.988-37.889-54.042-11.777-3.776,5.461-2.738,9.51-3.962,12.474a2.149,2.149,0,0,1-.425.676,14.036,14.036,0,0,1,1.763,1.351,4.686,4.686,0,0,0,.7-1.186A15.639,15.639,0,0,0,2581.132,832.534Z" transform="translate(-242.561 7.702)" fill="#47280a"/><path d="M2560.222,784.835a1.855,1.855,0,0,1-.261-.347q-1.077.406-2.081.777a4.135,4.135,0,0,0,.771,1.112c10.425,10.631,13.313,26.275,8.585,46.495a3.645,3.645,0,0,0-.092.826,13.312,13.312,0,0,1,2.014-.157c.072,0,.144.008.216.009a.961.961,0,0,1,0-.177C2571.546,824.1,2575.976,800.9,2560.222,784.835Z" transform="translate(-242.561 7.702)" fill="#47280a"/><path d="M2633.5,846.034a6.316,6.316,0,0,0-.416,2.262q1.051-.1,2.205-.184a4.031,4.031,0,0,1,.257-1.267,18.161,18.161,0,0,0,1.086-8.578l-2.28-.731A16.724,16.724,0,0,1,2633.5,846.034Z" transform="translate(-242.561 7.702)" fill="#47280a"/><path d="M2654.778,849.942c-.207.516-.416,1.055-.625,1.613l3.428-.157a4.05,4.05,0,0,0,2.138-.813,8.455,8.455,0,0,0-2.713-.571C2656.327,849.991,2655.576,849.966,2654.778,849.942Z" transform="translate(-242.561 7.702)" fill="#47280a"/><path d="M2567.8,835.609c1.083,1.377,3.2,1.966,4.1,2.213.567.156,1.09.324,1.572.479a8.2,8.2,0,0,0,4.319.536,11.587,11.587,0,0,0-1.353-.976A13.145,13.145,0,0,0,2567.8,835.609Z" transform="translate(-242.561 7.702)" fill="#47280a"/><path d="M2702.813,845.141l-.878-1.765c-.248-.006-.494,0-.739,0l-4.077.945a4.855,4.855,0,0,0-2.228,2.644,4.046,4.046,0,0,0,.994-.1l1.666-.386c.052-.048.09-.109.146-.153a6.976,6.976,0,0,1,4.488-.938,4,4,0,0,0,.631-.244Z" transform="translate(-242.561 7.702)" fill="#47280a"/><path d="M2557.489,783.276c.838-.311,1.707-.637,2.619-.984a1.841,1.841,0,0,1,.87-.609s36.29-14.114,36.337-14.13l.944-.331c5.99-2.278,11.465-4.235,15.739-5.5l.262-.09c.02-.007.461-.133,1.216-.332q1.245-.342,2.312-.584c4.166-1.006,11.185-2.47,16.388-2.374h.022a81.894,81.894,0,0,1,16.642.71c.227.031.45.062.666.095l.2.039a96.959,96.959,0,0,1,12.083,2.674c.42.111.794.216,1.107.313.12.036.339.109.6.2q4.44,1.353,9.274,3.252l.705.25a1.074,1.074,0,0,1,.137.083c.965.388,1.94.79,2.93,1.215a4.641,4.641,0,0,0-.191-1.074,3.625,3.625,0,0,0-1.015-1.6c-26.782-11.012-44.573-8.846-59.185-5.909-8.217,1.652-26.011,8.794-41.711,15.094-6.582,2.642-12.842,5.154-17.925,7.075a4.11,4.11,0,0,0-.921,1.757A4.159,4.159,0,0,0,2557.489,783.276Z" transform="translate(-242.561 7.702)" fill="#47280a"/><path d="M2644.389,849.789c-3.978.174-7.341.316-7.416.3l-.5-.062c-1.024.062-2.022.138-2.987.23.025.055.042.112.07.166a3.273,3.273,0,0,0,2.019,1.664c3.24-.211,7.416-.322,12.807-.268l1-.045c.236-.66.475-1.31.718-1.945C2648.283,849.795,2646.355,849.777,2644.389,849.789Z" transform="translate(-242.561 7.702)" fill="#47280a"/><path d="M2652.437,849.877q-.339.867-.675,1.787l2.391-.109c.209-.558.418-1.1.625-1.613C2654.04,849.919,2653.257,849.9,2652.437,849.877Z" transform="translate(-242.561 7.702)" fill="#47280a"/><path d="M2650.1,849.827c-.243.635-.482,1.285-.718,1.945l2.381-.108q.336-.918.675-1.787C2651.685,849.858,2650.9,849.841,2650.1,849.827Z" transform="translate(-242.561 7.702)" fill="#47280a"/><path d="M2693.972,844.475a7.107,7.107,0,0,0-1.013,1.952,4.037,4.037,0,0,0,1.932.539,4.855,4.855,0,0,1,2.228-2.644l-1.732.4A1.848,1.848,0,0,1,2693.972,844.475Z" transform="translate(-242.561 7.702)" fill="#47280a"/><path d="M2676.252,768.381c.554.23,1.106.457,1.669.7l.376.162a5.806,5.806,0,0,0,.245-2.071c-.99-.425-1.965-.827-2.93-1.215C2676.336,766.336,2676.483,767.42,2676.252,768.381Z" transform="translate(-242.561 7.702)" fill="#47280a"/><path d="M2701.443,843.32l-.247.057c.245-.005.491-.007.739,0l-.1-.2A1.875,1.875,0,0,1,2701.443,843.32Z" transform="translate(-242.561 7.702)" fill="#47280a"/><path d="M2557.88,785.265q1.005-.371,2.081-.777a1.919,1.919,0,0,1,.147-2.2c-.912.347-1.781.673-2.619.984A4.067,4.067,0,0,0,2557.88,785.265Z" transform="translate(-242.561 7.702)" fill="#47280a"/><path d="M2650.84,759.051a81.894,81.894,0,0,0-16.642-.71A146.834,146.834,0,0,1,2650.84,759.051Z" transform="translate(-242.561 7.702)" fill="#47280a"/><path d="M2665.5,762.371c1.955.66,7.35,2.57,9.274,3.252Q2669.934,763.715,2665.5,762.371Z" transform="translate(-242.561 7.702)" fill="#47280a"/><path d="M2579.543,837.707a14.036,14.036,0,0,0-1.763-1.351c-.969,1.006-2.707.058-5.3-.656-1.278-.352-3.206-.91-3.1-2.15-.072,0-.144-.009-.216-.009a13.312,13.312,0,0,0-2.014.157,2.979,2.979,0,0,0,.655,1.911,13.145,13.145,0,0,1,8.634,2.252,11.587,11.587,0,0,1,1.353.976A3.254,3.254,0,0,0,2579.543,837.707Z" transform="translate(-242.561 7.702)" fill="#47280a"/><path d="M2615.476,761.3c.593-.157,1.383-.359,2.312-.584Q2616.723,760.955,2615.476,761.3Z" transform="translate(-242.561 7.702)" fill="#47280a"/><path d="M2598.259,767.222c2.946-1.035,12.015-4.218,15.739-5.5C2609.724,762.987,2604.249,764.944,2598.259,767.222Z" transform="translate(-242.561 7.702)" fill="#47280a"/><path d="M2651.7,759.185c1.259.249,8.428,1.7,12.083,2.674A96.959,96.959,0,0,0,2651.7,759.185Z" transform="translate(-242.561 7.702)" fill="#47280a"/><path d="M2660.969,849.073c.016-.035.033-.067.05-.1a11.151,11.151,0,0,0-2.13-.705,1.874,1.874,0,0,1-1.466.937l-2.389.109q-.127.308-.256.63c.8.024,1.549.049,2.228.072a8.455,8.455,0,0,1,2.713.571A4.164,4.164,0,0,0,2660.969,849.073Z" transform="translate(-242.561 7.702)" fill="#47280a"/><path d="M2702.888,841.426a2.075,2.075,0,0,1-.018.315l2.193.235c.013-.1.025-.209.03-.313C2704.379,841.556,2703.637,841.475,2702.888,841.426Z" transform="translate(-242.561 7.702)" fill="#47280a"/><path d="M2635.287,848.112q-1.152.081-2.205.184a4.7,4.7,0,0,0,.4,1.959c.965-.092,1.963-.168,2.987-.23l-.243-.029C2635.491,849.819,2635.248,848.976,2635.287,848.112Z" transform="translate(-242.561 7.702)" fill="#47280a"/><path d="M2644.389,849.789c1.966-.012,3.894.006,5.71.038l.114-.3Z" transform="translate(-242.561 7.702)" fill="#47280a"/><path d="M2652.437,849.877c.82.02,1.6.042,2.341.065q.129-.323.256-.63l-2.419.109C2652.556,849.571,2652.5,849.724,2652.437,849.877Z" transform="translate(-242.561 7.702)" fill="#47280a"/><path d="M2650.213,849.529l-.114.3c.8.014,1.586.031,2.338.05.059-.153.119-.306.178-.456Z" transform="translate(-242.561 7.702)" fill="#47280a"/><path d="M2702.813,845.141l0,.006a4.033,4.033,0,0,0,1.684-1.549,22.565,22.565,0,0,0-2.565-.222Z" transform="translate(-242.561 7.702)" fill="#47280a"/><path d="M2705.063,841.976l-2.193-.235a1.888,1.888,0,0,1-1.037,1.432l.1.2a22.565,22.565,0,0,1,2.565.222,3.891,3.891,0,0,0,.563-1.622Z" transform="translate(-242.561 7.702)" fill="#47280a"/><path d="M2578.205,835.68c1.224-2.964.186-7.013,3.962-12.474,18.054-26.112,51.748-1.453,54.042,11.777.208,1.2.342,2.284.421,3.284l2.251.722a36.321,36.321,0,0,0-.5-4.382c-1.5-8.652-14.452-21.175-28.9-24.354a31.064,31.064,0,0,0-6.68-.751c-8.982,0-16.8,4.284-22.443,12.452a20.8,20.8,0,0,0-3.586,9.992,14.915,14.915,0,0,1-.5,2.6c-.4-.092-.995-.282-1.462-.432-.536-.172-1.119-.358-1.749-.532a13.928,13.928,0,0,1-1.374-.436c4.8-21.214,1.589-37.856-9.55-49.486q-1.122.432-2.179.832a1.855,1.855,0,0,0,.261.347c15.754,16.066,11.324,39.27,9.157,48.538a.961.961,0,0,0,0,.177,15.9,15.9,0,0,1,8.1,2.6c.1.064.2.136.3.2A2.149,2.149,0,0,0,2578.205,835.68Z" transform="translate(-242.561 7.702)" fill="#47280a"/><path d="M2614.927,763.729c.66-.187,11.96-3.307,19.2-3.188h.176c2.621-.019,11.594-.029,16.809.772.608.114,10.084,2.027,13.13,2.962.885.272,6.963,2.42,9.9,3.461a1.165,1.165,0,0,1-.134.418c-4.608,6.394-11.232,26.3,26.47,73.13l-.983.228a16.952,16.952,0,0,1,3.39-.086,1.89,1.89,0,0,0-.414-1.176c-37.4-46.32-30.726-65.193-26.677-70.809a3.084,3.084,0,0,0,.455-1.06c-26-10.79-43.2-8.706-57.312-5.87-7.857,1.578-25.47,8.647-41.01,14.884l-4.756,1.907c10.537-4.1,24.611-9.572,24.871-9.672C2598.171,769.585,2610.692,765.184,2614.927,763.729Zm86.019,77.448h0Zm-26.2-73.227-.006,0Z" transform="translate(-242.561 7.702)" fill="#47280a"/><path d="M2673.583,831.949c-6.549.9-12.1,5.97-16.509,15.066l-1.025.047c-.14.278-.285.583-.432.906.482.015.964.03,1.457.047a9.852,9.852,0,0,1,1.815.251c.03-.05.07-.093.1-.147,12.76-26.542,30.788-8.3,34.581-3.988a1.894,1.894,0,0,0,.406.344,6.787,6.787,0,0,1,1.254-1.293,7.658,7.658,0,0,1,2.3-1.212l-2.431.563C2692.405,839.514,2683.52,830.575,2673.583,831.949Z" transform="translate(-242.561 7.702)" fill="#47280a"/><path d="M2635.544,846.845a4.031,4.031,0,0,0-.257,1.267c4.164-.295,9.323-.378,15.6-.262.079-.191.158-.379.238-.565-5.818.263-11.792.526-13.6.589a1.369,1.369,0,0,1,.066-.217,19.62,19.62,0,0,0,1.29-8.668l-2.251-.722A18.161,18.161,0,0,1,2635.544,846.845Z" transform="translate(-242.561 7.702)" fill="#47280a"/><path d="M2653.244,847.9c.774.019,1.568.042,2.373.067.147-.323.292-.628.432-.906l-2.484.113Q2653.406,847.526,2653.244,847.9Z" transform="translate(-242.561 7.702)" fill="#47280a"/><path d="M2651.123,847.285c-.08.186-.159.374-.238.565.77.014,1.555.031,2.359.051q.162-.375.321-.726Z" transform="translate(-242.561 7.702)" fill="#47280a"/><path d="M2701.2,843.377a8.737,8.737,0,0,0-4.077.945Z" transform="translate(-242.561 7.702)" fill="#47280a"/><path d="M2675.475,765.873l-.705-.25c.281.111.559.219.842.333A1.074,1.074,0,0,0,2675.475,765.873Z" transform="translate(-242.561 7.702)" fill="#47280a"/><path d="M2651.506,759.146c-.216-.033-.439-.064-.666-.095.284.041.575.089.862.134Z" transform="translate(-242.561 7.702)" fill="#47280a"/><path d="M2664.892,762.172c-.313-.1-.687-.2-1.107-.313.564.162,1.138.337,1.711.512C2665.231,762.281,2665.012,762.208,2664.892,762.172Z" transform="translate(-242.561 7.702)" fill="#47280a"/><path d="M2597.315,767.553c-.047.016-36.337,14.13-36.337,14.13a1.841,1.841,0,0,0-.87.609c10.477-3.994,25.446-10.238,38.151-15.07Z" transform="translate(-242.561 7.702)" fill="#47280a"/><path d="M2614.26,761.631l-.262.09q.766-.227,1.478-.422C2614.721,761.5,2614.28,761.624,2614.26,761.631Z" transform="translate(-242.561 7.702)" fill="#47280a"/><path d="M2634.2,758.341h-.022c-5.2-.1-12.222,1.368-16.388,2.374.256-.057.518-.118.758-.166A110.582,110.582,0,0,1,2634.2,758.341Z" transform="translate(-242.561 7.702)" fill="#47280a"/><path d="M2636.973,850.087c.075.018,3.438-.124,7.416-.3-2.648.015-5.354.083-7.917.236Z" transform="translate(-242.561 7.702)" fill="#47280a"/><path d="M2655.617,847.968q-.285.625-.583,1.344l2.389-.109a1.874,1.874,0,0,0,1.466-.937,9.852,9.852,0,0,0-1.815-.251C2656.581,848,2656.1,847.983,2655.617,847.968Z" transform="translate(-242.561 7.702)" fill="#47280a"/><path d="M2701.833,843.173l-.81-1.629,1.847.2a2.075,2.075,0,0,0,.018-.315,16.952,16.952,0,0,0-3.39.086l-1.975.458a7.658,7.658,0,0,0-2.3,1.212,6.787,6.787,0,0,0-1.254,1.293,1.848,1.848,0,0,0,1.415.249l1.732-.4a8.737,8.737,0,0,1,4.077-.945l.247-.057A1.875,1.875,0,0,0,2701.833,843.173Z" transform="translate(-242.561 7.702)" fill="#47280a"/><path d="M2569.374,833.55c-.1,1.24,1.827,1.8,3.1,2.15,2.594.714,4.332,1.662,5.3.656-.1-.067-.2-.139-.3-.2A15.9,15.9,0,0,0,2569.374,833.55Z" transform="translate(-242.561 7.702)" fill="#47280a"/><path d="M2559.961,784.488q1.059-.4,2.179-.832c-.014-.015-.027-.032-.041-.047l11.075-4.307,4.756-1.907c15.54-6.237,33.153-13.306,41.01-14.884,14.111-2.836,31.314-4.92,57.312,5.87.231-.961.084-2.045-.64-2.425-.283-.114-.561-.222-.842-.333-1.924-.682-7.319-2.592-9.274-3.252-.573-.175-1.147-.35-1.711-.512-3.655-.97-10.824-2.425-12.083-2.674-.287-.045-.578-.093-.862-.134a146.834,146.834,0,0,0-16.642-.71,110.582,110.582,0,0,0-15.652,2.208c-.24.048-.5.109-.758.166-.929.225-1.719.427-2.312.584q-.713.2-1.478.422c-3.724,1.283-12.793,4.466-15.739,5.5-12.705,4.832-27.674,11.076-38.151,15.07A1.919,1.919,0,0,0,2559.961,784.488Z" transform="translate(-242.561 7.702)" fill="#47280a"/><path d="M2635.287,848.112c-.039.864.2,1.707.942,1.884l.243.029c2.563-.153,5.269-.221,7.917-.236l5.824-.26q.336-.867.672-1.679C2644.61,847.734,2639.451,847.817,2635.287,848.112Z" transform="translate(-242.561 7.702)" fill="#47280a"/><path d="M2653.244,847.9c-.208.482-.418.991-.629,1.52l2.419-.109q.3-.717.583-1.344C2654.812,847.943,2654.018,847.92,2653.244,847.9Z" transform="translate(-242.561 7.702)" fill="#47280a"/><path d="M2650.213,849.529l2.4-.108c.211-.529.421-1.038.629-1.52-.8-.02-1.589-.037-2.359-.051Q2650.549,848.66,2650.213,849.529Z" transform="translate(-242.561 7.702)" fill="#47280a"/><path d="M2701.833,843.173a1.888,1.888,0,0,0,1.037-1.432l-1.847-.2Z" transform="translate(-242.561 7.702)" fill="#47280a"/><path d="M2670.27,908.264l.269-.225a27.743,27.743,0,0,1,.385-4.511.707.707,0,0,0-.877-.745l-12.836,1.848a.718.718,0,0,0-.65.918,33.651,33.651,0,0,1,1.347,4.425l.119.053Z" transform="translate(-242.561 7.702)" fill="#cbced1" stroke="#47280a" stroke-miterlimit="10" stroke-width="3"/><path d="M2657.908,909.974l.015.068.1-.015Z" transform="translate(-242.561 7.702)" fill="#cbced1" stroke="#47280a" stroke-miterlimit="10" stroke-width="3"/><path d="M2671.381,915.934c-.035-.162-.073-.324-.105-.484l-.745.108Z" transform="translate(-242.561 7.702)" fill="#cbced1" stroke="#47280a" stroke-miterlimit="10" stroke-width="3"/><path d="M2658.684,917.263c0,.244-.007.487-.017.727l1.043-.874Z" transform="translate(-242.561 7.702)" fill="#cbced1" stroke="#47280a" stroke-miterlimit="10" stroke-width="3"/><path d="M2670.537,908.226c0-.064,0-.125,0-.187l-.269.225Z" transform="translate(-242.561 7.702)" fill="#cbced1" stroke="#47280a" stroke-miterlimit="10" stroke-width="3"/><path d="M2671.381,915.934l-.85-.376-10.821,1.558-1.043.874a32.823,32.823,0,0,1-7.3,19.008.63.63,0,0,0,.332,1.022c11.061,3.651,24.286-2.494,27.524-4.146a.649.649,0,0,0,.28-.983A42.6,42.6,0,0,1,2671.381,915.934Z" transform="translate(-242.561 7.702)" fill="#cbced1" stroke="#47280a" stroke-miterlimit="10" stroke-width="3"/><path d="M2671.276,915.45l1.106-.159a3.628,3.628,0,1,0-1.034-7.182l-.811.117A35.471,35.471,0,0,0,2671.276,915.45Z" transform="translate(-242.561 7.702)" fill="#ef5542" stroke="#47280a" stroke-miterlimit="10" stroke-width="3"/><path d="M2657.923,910.042l-52.022,7.49a3.628,3.628,0,1,0,1.034,7.182l51.749-7.451A30.435,30.435,0,0,0,2657.923,910.042Z" transform="translate(-242.561 7.702)" fill="#ef5542" stroke="#47280a" stroke-miterlimit="10" stroke-width="3"/><path d="M2659.71,917.116l10.821-1.558-5.866-2.595Z" transform="translate(-242.561 7.702)" fill="#ef5542" stroke="#47280a" stroke-miterlimit="10" stroke-width="3"/><path d="M2658.027,910.027l6.638,2.936,5.606-4.7Z" transform="translate(-242.561 7.702)" fill="#ef5542" stroke="#47280a" stroke-miterlimit="10" stroke-width="3"/><path d="M2664.664,912.963l5.867,2.595.745-.108a35.471,35.471,0,0,1-.739-7.224l-.267.038Z" transform="translate(-242.561 7.702)" fill="#ef5542" stroke="#47280a" stroke-miterlimit="10" stroke-width="3"/><path d="M2664.664,912.963l-6.637-2.936-.1.015a30.435,30.435,0,0,1,.761,7.221l1.026-.147Z" transform="translate(-242.561 7.702)" fill="#ef5542" stroke="#47280a" stroke-miterlimit="10" stroke-width="3"/><path d="M2747.123,899.967a11.209,11.209,0,0,1-.879,3.687,5.757,5.757,0,0,1-1.289,1.947,6.16,6.16,0,0,1-6.516,1.2,13.02,13.02,0,0,1-4.127-2.247,15.357,15.357,0,0,1-1.179-1.05c-4.911-4.841-7.746-10.6-7.544-17.625a11.839,11.839,0,0,1,.7-3.44,6.8,6.8,0,0,1,1.125-2.064,7.361,7.361,0,0,1-2.979-2.156,26.209,26.209,0,0,0-8.236,9.641,23.228,23.228,0,0,1-4.5,6.679,7.708,7.708,0,0,0-2.559,5.318c-.024,2.3-1.221,3.224-3.029,3.9-.029.011-.058.043-.085.04-.365-.033-.809.053-1.08-.125a4.9,4.9,0,0,0-6.751.993,4.835,4.835,0,0,0,.89,6.748c.195.17.435.449.425.668a5.2,5.2,0,0,0,2.584,4.7l1.643.516c.185-.017.371-.047.556-.05a4.805,4.805,0,0,0,4.87-4.921,1.12,1.12,0,0,1,.654-1.09c1.743-1.148,3.339-1.69,5.428-.434a7.945,7.945,0,0,0,4.427.8,49.124,49.124,0,0,1,9.69.43,28.2,28.2,0,0,0,13.569-1.868,10.055,10.055,0,0,0,5.613-4.311c.188-.328.4-.646.594-.968q.429-1.37.859-2.738a3.143,3.143,0,0,1,0-.565c1.159-6.527-1.874-14.917-7.073-20.488a14.145,14.145,0,0,1-3.6.768C2744.52,886.726,2747.4,892.666,2747.123,899.967Zm-40.064,9.312c-1.255.655-1.435,1.09-1.02,2.449a1.749,1.749,0,0,1-.621,2.121,1.688,1.688,0,0,1-2.129-.007,1.776,1.776,0,0,1-.609-2.129c.449-1.458.255-1.856-1.206-2.443a1.738,1.738,0,0,1-1.22-1.75,1.678,1.678,0,0,1,1.229-1.645,1.747,1.747,0,0,1,2.033.645c.994,1.227,1.336,1.308,2.733.566,1.064-.566,2.111-1.163,3.259-1.8.37.838.651,1.472.984,2.227C2709.422,908.065,2708.236,908.663,2707.059,909.279Zm27.337-.212c-2.219-.085-4.436-.2-6.655-.29-2.345-.09-4.694-.27-7.035-.194a9.636,9.636,0,0,1-5.36-.974c-3.784-2.2-4.559-6.987-1.744-10.681a5.529,5.529,0,0,1,.691-.789,20.657,20.657,0,0,0,4.328-6.335,57.763,57.763,0,0,1,3.536-5.412,1.948,1.948,0,0,1,.38-.335c-.437,10.708,3.856,18.908,12.733,24.885A4.488,4.488,0,0,1,2734.4,909.067Z" transform="translate(-242.561 7.702)" fill="#47280a"/><path d="M2728.376,875.919a5.745,5.745,0,0,0,2.316.845,32.474,32.474,0,0,0,7.94.742c-.321-.2-.638-.409-.968-.587C2734.6,875.265,2731.483,874.731,2728.376,875.919Z" transform="translate(-242.561 7.702)" fill="#47280a"/><path d="M2741.116,879.344a16.742,16.742,0,0,1-4.617.368,12.783,12.783,0,0,1,2.313,1.656c.177.16.345.324.517.486a14.145,14.145,0,0,0,3.6-.768A23.144,23.144,0,0,0,2741.116,879.344Z" transform="translate(-242.561 7.702)" fill="#47280a"/><path d="M2727.417,880.371a5.392,5.392,0,0,1,2.163-1.612,6.26,6.26,0,0,1-3.3-1.77q-.954.582-1.845,1.226A7.361,7.361,0,0,0,2727.417,880.371Z" transform="translate(-242.561 7.702)" fill="#47280a"/><path d="M2730.692,876.764a5.745,5.745,0,0,1-2.316-.845,10.924,10.924,0,0,0-1.63.779c-.159.092-.307.2-.463.291a6.26,6.26,0,0,0,3.3,1.77,6.357,6.357,0,0,1,4.172-.175,12.235,12.235,0,0,1,2.747,1.128,16.742,16.742,0,0,0,4.617-.368,20.066,20.066,0,0,0-2.484-1.838A32.474,32.474,0,0,1,2730.692,876.764Z" transform="translate(-242.561 7.702)" fill="#47280a"/><path d="M2729.865,881.088a12.368,12.368,0,0,1-2.448-.717,6.8,6.8,0,0,0-1.125,2.064,11.839,11.839,0,0,0-.7,3.44c-.2,7.02,2.633,12.784,7.544,17.625a15.357,15.357,0,0,0,1.179,1.05,13,13,0,0,0,4.127,2.246,6.158,6.158,0,0,0,6.516-1.2,5.757,5.757,0,0,0,1.289-1.947,11.209,11.209,0,0,0,.879-3.687c.278-7.3-2.6-13.241-7.794-18.113q-.937.084-1.906.085A41.009,41.009,0,0,1,2729.865,881.088Zm11.832,14.49a3.191,3.191,0,0,1-4.63,2.039,8.377,8.377,0,0,1-4.266-8.214,3.193,3.193,0,0,1,4.26-2.618C2740.194,887.787,2742.648,892.44,2741.7,895.578Z" transform="translate(-242.561 7.702)" fill="#ef5542"/><path d="M2729.58,878.759a5.392,5.392,0,0,0-2.163,1.612,12.368,12.368,0,0,0,2.448.717,41.009,41.009,0,0,0,7.558.851q.968,0,1.906-.085c-.172-.162-.34-.326-.517-.486a12.783,12.783,0,0,0-2.313-1.656,42.637,42.637,0,0,1-6.221-.786C2730.025,878.877,2729.808,878.816,2729.58,878.759Z" transform="translate(-242.561 7.702)" fill="#ef5542"/><path d="M2729.58,878.759c.228.057.445.118.7.167a42.637,42.637,0,0,0,6.221.786,12.235,12.235,0,0,0-2.747-1.128A6.357,6.357,0,0,0,2729.58,878.759Z" transform="translate(-242.561 7.702)" fill="#ef5542"/><path d="M2722.537,884.057a1.948,1.948,0,0,0-.38.335,57.763,57.763,0,0,0-3.536,5.412,20.657,20.657,0,0,1-4.328,6.335,5.529,5.529,0,0,0-.691.789c-2.815,3.694-2.04,8.485,1.744,10.681a9.636,9.636,0,0,0,5.36.974c2.341-.076,4.69.1,7.035.194,2.219.086,4.436.205,6.655.29a4.488,4.488,0,0,0,.874-.125C2726.393,902.965,2722.1,894.765,2722.537,884.057Z" transform="translate(-242.561 7.702)" fill="#c69c6d"/><path d="M2706.249,907.086c-1.4.742-1.739.661-2.733-.566a1.747,1.747,0,0,0-2.033-.645,1.678,1.678,0,0,0-1.229,1.645,1.738,1.738,0,0,0,1.22,1.75c1.461.587,1.655.985,1.206,2.443a1.776,1.776,0,0,0,.609,2.129,1.688,1.688,0,0,0,2.129.007,1.749,1.749,0,0,0,.621-2.121c-.415-1.359-.235-1.794,1.02-2.449,1.177-.616,2.363-1.214,3.433-1.763-.333-.755-.614-1.389-.984-2.227C2708.36,905.923,2707.313,906.52,2706.249,907.086Z" transform="translate(-242.561 7.702)" fill="#fff"/><path d="M2732.8,889.4a8.377,8.377,0,0,0,4.266,8.214,3.191,3.191,0,0,0,4.63-2.039c.951-3.138-1.5-7.791-4.636-8.793A3.193,3.193,0,0,0,2732.8,889.4Zm5.94,5.419c-1.654-.078-3.341-3.07-2.846-5.137C2737.747,890.158,2739.2,892.833,2738.741,894.822Z" transform="translate(-242.561 7.702)" fill="#47280a"/><path d="M2738.741,894.822c.46-1.989-.994-4.664-2.846-5.137C2735.4,891.752,2737.087,894.744,2738.741,894.822Z" transform="translate(-242.561 7.702)" fill="#fff"/></g></svg>