<svg xmlns="http://www.w3.org/2000/svg" width="322.58" height="322.58" viewBox="0 0 322.58 322.58"><g transform="translate(-1199.901 -718.836)"><g transform="translate(-197.561 70.425)"><circle cx="161.29" cy="161.29" r="161.29" transform="translate(1397.462 648.411)" fill="#f4f5f3"/><circle cx="149.551" cy="149.551" r="149.551" transform="translate(1409.88 660.15)" fill="#fddad3"/></g><g transform="translate(-197.561 70.425)"><path d="M1523.265,842.53c6.922,6.853,18.317,33.58,14.536,42.368-1.58,3.673-.912,10.282,8.881,6.29,3.253-1.326,6.106-8.868,4.255-16.4-.9-3.681.37-19.55,1.357-21.462" fill="#804f21"/><path d="M1541.448,894.657a6.36,6.36,0,0,1-4.748-1.822c-2.271-2.317-2.108-6.1-.938-8.815,3.284-7.635-7.364-33.283-14.059-39.913l3.124-3.155c7.169,7.1,19.325,34.8,15.014,44.823-.646,1.5-.633,3.275.03,3.95.624.637,2.523.814,5.973-.593,1.97-.8,4.564-7.191,2.938-13.82-.934-3.8.174-20.363,1.539-23.009l3.946,2.036c-.718,1.788-1.959,16.711-1.174,19.915,2.136,8.7-1.181,17.2-5.573,18.99A16.467,16.467,0,0,1,1541.448,894.657Z" fill="#47280a"/><path d="M1603.224,857.578s8.449,11.162,9.621,16.466c2.414,10.928-4.719,11.745-4.842,15.076-.089,2.4,1.476,4.206,8.464,2.85s8.835-4.3,9.576-12.437c.938-10.321,0-21.554,5.273-27.568" fill="#804f21"/><path d="M1612.368,894.653a7.29,7.29,0,0,1-4.917-1.448,4.979,4.979,0,0,1-1.667-4.168c.072-1.942,1.321-3.234,2.424-4.374,1.8-1.858,3.834-3.963,2.468-10.139-.875-3.963-6.954-12.609-9.222-15.606l3.54-2.68c.9,1.182,8.778,11.712,10.019,17.327,1.879,8.507-1.559,12.061-3.613,14.185-.466.482-1.17,1.209-1.178,1.451-.006.156-.006.526.116.631.1.089,1.145.845,5.7-.042,5.724-1.111,7.107-2.968,7.788-10.458.211-2.319.328-4.735.441-7.072.41-8.506.8-16.541,5.374-21.758l3.339,2.927c-3.554,4.053-3.906,11.335-4.278,19.045-.115,2.384-.234,4.848-.454,7.26-.749,8.243-2.712,12.736-11.363,14.415A24.035,24.035,0,0,1,1612.368,894.653Z" fill="#47280a"/><path d="M1538.436,883.546c-1.58,3.673-.912,10.282,8.881,6.29,2.94-1.2,5.541-7.476,4.65-14.236-.38-.657-.761-1.249-1.13-1.765-4.941,2.425-12.159.028-12.159.028l0,0C1539.372,877.847,1539.407,881.29,1538.436,883.546Z" fill="#595757"/><path d="M1542.089,892.935a6.009,6.009,0,0,1-4.489-1.711c-2.152-2.194-1.984-5.8-.863-8.409h0c.527-1.227.976-3.719.115-8.63l-.165-.947,1.487-1.488,1.087.357c.062.021,6.573,2.122,10.761.068l1.406-.69.913,1.273c.408.569.821,1.213,1.227,1.914l.185.32.049.366c.937,7.116-1.713,14.531-5.786,16.192A16.125,16.125,0,0,1,1542.089,892.935Zm-1.2-16.622a16.414,16.414,0,0,1-.749,7.965h0c-.624,1.451-.756,3.477.106,4.355.929.949,3.253.763,6.377-.51,1.9-.775,4.235-5.884,3.559-11.916-.02-.033-.041-.066-.06-.1A19.635,19.635,0,0,1,1540.885,876.313Z" fill="#47280a"/><path d="M1552.137,762.972s-9.722-1.029-20.823-10.875-33.9-9.806-48.66-6.517c-11.9,2.652-12.273,4.746-14.246,5.366-4.857,1.526-24.572,2.1-29.6,14.8-2.914,7.355,4.317,24.854,17.083,26.149s18.44-1.171,26.581,12.335,51.188,52.237,66.93,69.937c3.13,3.519,7.94,14.493,5.535,20.845-1.416,3.74-.912,10.282,8.881,6.29,3.253-1.326,6.106-8.868,4.255-16.4-.9-3.682.37-19.551,1.357-21.462s45.576-2.159,56.8-4.009c3.192-.526,11.224,14.863,9.374,25.162s-7.264,8.773-6.784,13.815c.37,3.885,9.713,2.96,14.431,1.48s8.326-18.748,9.066-28.369,6.907-17.515,11.348-26.766,19.55-25.163,14.74-43.479-11.1-18.5-18.132-24.053-23.5-24.607-55.505-18.686S1554.748,763.516,1552.137,762.972Z" fill="#895b31"/><path d="M1558.585,904.774a6.309,6.309,0,0,1-4.6-1.7c-2.415-2.354-2.119-6.236-1.131-8.844,1.968-5.2-2.2-15.3-5.118-18.584-6.085-6.841-16.271-16.84-27.057-27.427-17.208-16.89-35-34.355-40.116-42.839-6.1-10.13-10.046-10.347-18.682-10.823-1.842-.1-3.929-.216-6.221-.449-6.123-.621-11.65-4.507-15.562-10.942-3.834-6.306-5.184-13.633-3.362-18.234,4.515-11.393,19.144-13.931,27-15.3a39.45,39.45,0,0,0,4-.807,4.234,4.234,0,0,0,.93-.529c1.632-1.065,4.362-2.849,13.5-4.885,16.435-3.663,39.286-3.025,50.616,7.023,10.448,9.267,19.493,10.318,19.584,10.328l.219.034c2.147.449,19.773,1.468,51.771-4.45,29.26-5.407,46.273,9.529,54.45,16.709,1.1.962,2.043,1.793,2.836,2.419,1.35,1.066,2.713,1.949,4.03,2.8,5.567,3.607,10.824,7.012,14.872,22.429,3.952,15.044-4.476,28.225-10.63,37.85a75.641,75.641,0,0,0-4.255,7.153c-1.27,2.647-2.676,5.18-4.035,7.629-3.4,6.12-6.6,11.9-7.1,18.347-.021.276-2.492,27.769-10.614,30.317-2.678.84-11.22,2.639-15.218-.014a4.479,4.479,0,0,1-2.089-3.374c-.314-3.3,1.284-4.872,2.694-6.255,1.508-1.48,3.216-3.156,4.115-8.162,1.556-8.661-4.794-21.075-7.16-22.527-5.492.846-17.588,1.349-29.295,1.836-10.068.419-22.411.932-25.738,1.595-.722,3.4-1.721,16.314-1,19.267,2.136,8.7-1.181,17.2-5.573,18.991A16.494,16.494,0,0,1,1558.585,904.774Zm-57.508-158.958a83.922,83.922,0,0,0-17.941,1.932c-8.349,1.86-10.657,3.367-12.036,4.268a7.854,7.854,0,0,1-2.027,1.048,40.142,40.142,0,0,1-4.571.945c-7.494,1.3-20.036,3.476-23.633,12.556-1.274,3.213.028,9.357,3.027,14.291,1.837,3.022,5.867,8.187,12.216,8.832,2.19.222,4.136.329,6.017.433,8.986.5,14.923.822,22.241,12.963,4.824,8,23.2,26.045,39.423,41.964,10.841,10.64,21.081,20.69,27.265,27.644,3.5,3.935,8.773,15.657,5.952,23.107-.623,1.645-.588,3.443.079,4.094.614.6,2.482.743,5.888-.646,1.97-.8,4.564-7.191,2.937-13.82-.933-3.8.175-20.362,1.54-23.008.945-1.831,1.987-2.211,29.323-3.349,11.816-.491,24.033-1,29.089-1.832,1.318-.216,2.678.379,4.051,1.771,4.221,4.282,9.514,16.826,7.87,25.974-1.15,6.4-3.693,8.894-5.376,10.546-1.235,1.213-1.493,1.51-1.383,2.665.678.977,6.538,1.147,11.556-.428,2.454-.769,6.54-13.72,7.517-26.421.57-7.412,4.007-13.6,7.645-20.16,1.328-2.393,2.7-4.868,3.916-7.4a77.8,77.8,0,0,1,4.516-7.625c5.712-8.933,13.534-21.167,10.077-34.33-3.612-13.752-7.751-16.434-12.992-19.829-1.4-.909-2.854-1.849-4.369-3.044-.882-.7-1.869-1.564-3.013-2.568-8.239-7.233-23.574-20.7-50.712-15.678-32.149,5.946-50.283,5.026-53.377,4.452-1.2-.153-10.954-1.655-21.952-11.409C1523.541,748.171,1512.433,745.816,1501.077,745.816Z" fill="#47280a"/><path d="M1460.232,777.84c3.154-5.377,4.521-19.871-.382-22.97-.819-.518-4.467.629-6.676,1.259-5.46,2-10,4.02-12.245,9.679-1.457,3.676-.15,10.291,2.757,15.51a25.187,25.187,0,0,0,3.051,3.486C1448.5,786.378,1457.183,783.039,1460.232,777.84Z" fill="#72492a"/><path d="M1490.494,765.232a3.521,3.521,0,1,1,2.117-.706h0A3.507,3.507,0,0,1,1490.494,765.232Zm-.108-3.664a.181.181,0,0,0-.066.114.178.178,0,0,0,.032.127.181.181,0,0,0,.114.066.169.169,0,0,0,.127-.032Zm.1-.034a.165.165,0,0,0-.1.034l.206.274a.171.171,0,0,0-.1-.308Z" fill="#231815"/><ellipse cx="1.739" cy="0.858" rx="1.739" ry="0.858" transform="translate(1447.245 765.999) rotate(-62.353)" fill="#221714"/><path d="M1448.218,767.188a1.191,1.191,0,0,1-.557-.136h0a1.456,1.456,0,0,1-.7-1.405,3.6,3.6,0,0,1,.432-1.532c.667-1.272,1.744-1.885,2.566-1.455a1.456,1.456,0,0,1,.7,1.407,3.863,3.863,0,0,1-1.444,2.758A1.713,1.713,0,0,1,1448.218,767.188Zm.949-3.01a2.357,2.357,0,0,0-.46.624.392.392,0,1,0,.46-.624Z" fill="#231815"/><path d="M1506.984,746s3.577-7.028,8.387-4.808,4.9,6.522,3.238,8.742-4.949,5.921-7.863,6.2" fill="#895b31"/><path d="M1510.956,758.34l-.42-4.42c1.486-.142,4.017-2.28,6.3-5.32a2.99,2.99,0,0,0,.436-2.482,4.667,4.667,0,0,0-2.828-2.913c-2.775-1.275-5.456,3.753-5.482,3.8l-3.954-2.02c1.572-3.089,5.961-8.28,11.3-5.815a9.037,9.037,0,0,1,5.273,5.856,7.436,7.436,0,0,1-1.189,6.234C1518.522,753.748,1514.818,757.972,1510.956,758.34Z" fill="#47280a"/><path d="M1635.677,879.642a20.033,20.033,0,0,1-.216,4.825c-1.851,10.3-7.265,8.773-6.784,13.815.37,3.885,9.713,2.96,14.431,1.48,3.408-1.069,6.236-10.375,7.823-19.087A66.356,66.356,0,0,1,1635.677,879.642Z" fill="#595757"/><path d="M1634.789,902.9a11.261,11.261,0,0,1-6.029-1.34,4.116,4.116,0,0,1-1.925-3.1c-.3-3.128,1.233-4.631,2.585-5.957,1.47-1.443,3.3-3.238,4.22-8.361a18.174,18.174,0,0,0,.19-4.376l-.153-2.345,2.315.4a65,65,0,0,0,14.794,1.012l2.4-.187-.43,2.363c-1.557,8.549-4.4,19.049-9.089,20.521A32.027,32.027,0,0,1,1634.789,902.9Zm2.784-21.079a19.8,19.8,0,0,1-.291,2.975c-1.129,6.283-3.622,8.729-5.271,10.348-1.214,1.191-1.623,1.592-1.493,2.964.007.075.018.19.288.369,1.848,1.226,7.833.751,11.748-.479,1.331-.417,3.97-4.873,6.115-15.363A68.118,68.118,0,0,1,1637.573,881.819Z" fill="#47280a"/><path d="M1613.51,876.861c.356,7.708-5.211,8.7-5.32,11.635-.089,2.4,1.476,4.206,8.464,2.849s8.836-4.295,9.576-12.436c.046-.508.085-1.019.123-1.53A83.225,83.225,0,0,1,1613.51,876.861Z" fill="#595757"/><path d="M1612.555,894.029a7.3,7.3,0,0,1-4.917-1.448,4.981,4.981,0,0,1-1.667-4.168c.073-1.942,1.321-3.234,2.422-4.374,1.514-1.568,3.079-3.189,2.9-7.075l-.119-2.578,2.566.266a81.053,81.053,0,0,0,12.457.513l2.559-.181-.188,2.558c-.039.524-.078,1.048-.126,1.569-.749,8.242-2.712,12.734-11.363,14.414A24.122,24.122,0,0,1,1612.555,894.029Zm3.095-14.733a12.576,12.576,0,0,1-4.063,7.828c-.465.482-1.169,1.209-1.178,1.454-.006.154-.006.524.116.629.1.09,1.149.844,5.706-.042,5.466-1.061,6.974-2.8,7.691-9.479C1621.24,879.719,1618.257,879.523,1615.65,879.3Z" fill="#47280a"/><path d="M1554.209,884.391v0c1.072,3.69,1.488,7.572.386,10.484-1.417,3.74-.913,10.282,8.88,6.291,3.254-1.326,6.106-8.869,4.256-16.405a13.22,13.22,0,0,1-.263-2.307h0C1563.1,885.237,1554.209,884.391,1554.209,884.391Z" fill="#595757"/><path d="M1558.25,904.268a5.962,5.962,0,0,1-4.344-1.6c-2.286-2.23-1.991-5.945-1.043-8.448.83-2.192.676-5.5-.432-9.314l-.2-.7.89-1.781,1.264.117c2.3.217,8.96.341,12.089-1.654l2.689-1.713.154,3.184a11.016,11.016,0,0,0,.212,1.955c2.058,8.384-1.188,16.862-5.354,18.56A16.108,16.108,0,0,1,1558.25,904.268Zm-1.651-17.91c.589,2.89.816,6.292-.275,9.174-.58,1.532-.719,3.626.165,4.489.918.9,3.208.687,6.287-.567,2.125-.866,4.857-7.326,3.157-14.251l0-.012A29.759,29.759,0,0,1,1556.6,886.358Z" fill="#47280a"/><line x2="14.288" y2="0.523" transform="translate(1573.503 781.112)" fill="#804f21"/><rect width="2.961" height="14.298" transform="translate(1573.449 782.592) rotate(-87.903)" fill="#47280a"/><line x2="14.288" y2="0.523" transform="translate(1589.54 791.888)" fill="#804f21"/><rect width="2.961" height="14.298" transform="translate(1589.485 793.367) rotate(-87.903)" fill="#47280a"/><line x2="11.707" y2="0.974" transform="translate(1611.505 777.627)" fill="#804f21"/><rect width="2.96" height="11.748" transform="matrix(0.083, -0.997, 0.997, 0.083, 1611.382, 779.102)" fill="#47280a"/></g><g transform="translate(-197.561 70.425)"><path d="M1529.277,894.991l-.108.01c.064-.775.106-1.556.108-2.347a28.738,28.738,0,0,0-6.962-18.826c.037-.012.068-.027.107-.037a29.315,29.315,0,0,0-10.935-7.945c0,.037,0,.068,0,.1a28.567,28.567,0,0,0-10.984-2.2,28.879,28.879,0,0,0-11.184,2.224c0-.04-.005-.074,0-.116a29.353,29.353,0,0,0-10.894,7.954c.035.008.062.021.1.031a28.741,28.741,0,0,0-6.941,18.748c0,.837.042,1.664.111,2.484-.072.08-.094.225-.069.472a28.289,28.289,0,0,0,4.136,12.193c.02-.032.04-.06.059-.091a28.928,28.928,0,0,0,17.95,13.015c-.022.029-.042.058-.066.088a28.285,28.285,0,0,0,13.493-.013c-.024-.028-.044-.055-.065-.083a28.908,28.908,0,0,0,17.925-13.032c.022.032.043.061.065.1A28.346,28.346,0,0,0,1529.277,894.991Z" fill="#fff" stroke="#47280a" stroke-miterlimit="10" stroke-width="3"/><path d="M1493.48,917.881c-1.688-2.207-3.323-4.454-4.961-6.7a4.006,4.006,0,0,0-2.067-1.5c-2.73-.893-5.454-1.8-8.165-2.751a1.848,1.848,0,0,0-2.469.719,28.929,28.929,0,0,0,17.95,13.015C1494.549,919.632,1494.165,918.776,1493.48,917.881Z" fill="#ef5542" stroke="#47280a" stroke-miterlimit="10" stroke-width="3"/><path d="M1472.208,895.035c.878.178,1.474-.336,1.935-1.158a42.178,42.178,0,0,1,4.886-6.824c.96-1.116.961-2.482.718-3.993a18.248,18.248,0,0,1,.055-5.779c.283-1.764.25-3.014-1.281-3.436a28.745,28.745,0,0,0-6.94,18.748c0,.766.035,1.524.094,2.275a.149.149,0,0,0,.171.135A1.137,1.137,0,0,1,1472.208,895.035Z" fill="#ef5542" stroke="#47280a" stroke-miterlimit="10" stroke-width="3"/><path d="M1522.53,906.945c-2.676.946-5.369,1.844-8.069,2.717a4.135,4.135,0,0,0-2.147,1.554c-1.68,2.3-3.359,4.595-5.081,6.861a1.873,1.873,0,0,0-.1,2.581,28.907,28.907,0,0,0,17.926-13.032A1.9,1.9,0,0,0,1522.53,906.945Z" fill="#ef5542" stroke="#47280a" stroke-miterlimit="10" stroke-width="3"/><path d="M1520.92,875.9c.057,2.881.054,5.764.052,8.647a4.012,4.012,0,0,0,.785,2.433c1.624,2.254,3.23,4.522,4.844,6.784.921,1.292,1.075,1.382,2.57,1.241.064-.775.106-1.556.108-2.347a28.74,28.74,0,0,0-6.962-18.826A1.847,1.847,0,0,0,1520.92,875.9Z" fill="#ef5542" stroke="#47280a" stroke-miterlimit="10" stroke-width="3"/><path d="M1491.168,868.063c2.659.784,5.3,1.627,7.936,2.49a3.983,3.983,0,0,0,2.552.032c2.767-.887,5.534-1.773,8.314-2.618a1.811,1.811,0,0,0,1.521-2.017,28.567,28.567,0,0,0-10.984-2.2,28.879,28.879,0,0,0-11.184,2.224C1489.3,867.233,1490.071,867.74,1491.168,868.063Z" fill="#ef5542" stroke="#47280a" stroke-miterlimit="10" stroke-width="3"/><path d="M1510.544,887.6q-4.258-3.108-8.532-6.2a2.427,2.427,0,0,0-3.147-.01q-4.319,3.111-8.611,6.257a2.358,2.358,0,0,0-.943,2.995q1.611,5.007,3.25,10.005a2.446,2.446,0,0,0,2.678,1.942c1.709.016,3.419,0,5.128,0,1.776,0,3.553.013,5.329-.005a2.432,2.432,0,0,0,2.6-1.918q1.638-5,3.25-10.006A2.4,2.4,0,0,0,1510.544,887.6Z" fill="#ef5542" stroke="#47280a" stroke-miterlimit="10" stroke-width="3"/></g><g transform="translate(-197.561 70.425)"><path d="M1564.814,918.064c0-.053.005-.1.006-.157a.894.894,0,0,0-.017-.194,14.625,14.625,0,0,0-.472-3.265l-.007-.03c-.006-.019-.012-.036-.017-.055a14.54,14.54,0,0,0-1.79-4.039,13.6,13.6,0,0,0-3.277-3.613,14.38,14.38,0,0,0-8.448-3.08,1.017,1.017,0,0,0-.163-.015,12.774,12.774,0,0,0-3.861.434c-.035.01-.066.022-.1.031a14.51,14.51,0,0,0-3.8,1.589,13.422,13.422,0,0,0-4.97,4.905,14.479,14.479,0,0,0-.473,14.278,13.688,13.688,0,0,0,4.168,4.909,14.473,14.473,0,0,0,3.064,1.764l.064.031a13.653,13.653,0,0,0,5.04,1.1l.005-.013c.178.007.357.013.537.013a14.458,14.458,0,0,0,4.448-.707c.147-.047.293-.1.438-.15.107-.038.212-.079.318-.12.208-.081.415-.163.618-.256a14.648,14.648,0,0,0,4.654-3.263,13.376,13.376,0,0,0,3.281-5.4,14.268,14.268,0,0,0,.752-4.629C1564.816,918.111,1564.814,918.088,1564.814,918.064Z" fill="#fff" stroke="#47280a" stroke-miterlimit="10" stroke-width="3"/><path d="M1552.656,930.437c0-.053.147-.1.232-.14a1.507,1.507,0,0,0,1-1.321,1.467,1.467,0,0,0-.791-1.484.38.38,0,0,1-.247-.388,2.007,2.007,0,0,0-.039-.4,1.02,1.02,0,0,1,.281-.991,1.493,1.493,0,0,0-.855-2.481.488.488,0,0,1-.44-.355,1.1,1.1,0,0,0-.107-.231,1.161,1.161,0,0,1-.106-1.163,1.509,1.509,0,0,0-1.722-2,.982.982,0,0,1-.47-.143c-.072-.032-.115-.124-.182-.176a1.227,1.227,0,0,1-.513-1.126,1.485,1.485,0,0,0-2.262-1.248.442.442,0,0,1-.526.016.993.993,0,0,0-.262-.127,1.128,1.128,0,0,1-.814-.832,1.489,1.489,0,0,0-2.545-.449.513.513,0,0,1-.588.208.75.75,0,0,0-.253-.026,1.011,1.011,0,0,1-.979-.478,1.5,1.5,0,0,0-2.591.447.5.5,0,0,1-.42.372,1.718,1.718,0,0,0-.524.146.563.563,0,0,1-.718-.122,14.29,14.29,0,0,0-.163,2.163c0,.151.007.3.012.451a1.682,1.682,0,0,0,.826-1.228.465.465,0,0,1,.225-.259,3.167,3.167,0,0,1,.379-.12.542.542,0,0,1,.707.2,1.487,1.487,0,0,0,2.4-.242.584.584,0,0,1,.664-.326c.366.034.632.071.813.513a1.455,1.455,0,0,0,2.32.5.462.462,0,0,1,.63-.08,2.169,2.169,0,0,0,.364.165.368.368,0,0,1,.262.41,1.533,1.533,0,0,0,2.159,1.448.585.585,0,0,1,.371.056c.084.033.14.132.215.193a.685.685,0,0,1,.266.854,1.487,1.487,0,0,0,1.52,1.9c.251-.01.383.055.464.279a2.057,2.057,0,0,0,.161.326.446.446,0,0,1-.058.6,1.519,1.519,0,0,0,.684,2.436c.258.087.357.2.349.456a1.442,1.442,0,0,0,.039.325.446.446,0,0,1-.254.551,1.507,1.507,0,0,0-.188,2.5.443.443,0,0,1,.18.577c-.062.17-.084.355-.15.524a.336.336,0,0,1-.191.177c-.847.249-1.069.394-1.335,1.072.147.005.293.011.441.011a14.322,14.322,0,0,0,2.412-.213.334.334,0,0,0-.059-.091C1552.067,931.535,1552.617,930.981,1552.656,930.437Z" fill="#ef5542" stroke="#47280a" stroke-miterlimit="10" stroke-width="1"/><path d="M1551.627,904.338a.444.444,0,0,1,.283.482.5.5,0,0,0,.006.145,1.359,1.359,0,0,1-.364,1.284,1.475,1.475,0,0,0,.926,2.384.413.413,0,0,1,.384.316,1.283,1.283,0,0,0,.116.266,1.2,1.2,0,0,1,.079,1.194,1.5,1.5,0,0,0,1.673,2.006.487.487,0,0,1,.523.2,1.223,1.223,0,0,0,.176.184,1.1,1.1,0,0,1,.452,1.035,1.479,1.479,0,0,0,2.217,1.354.479.479,0,0,1,.56.008.869.869,0,0,0,.2.095,1.265,1.265,0,0,1,.881.912,1.466,1.466,0,0,0,2.491.472.608.608,0,0,1,.629-.219,1,1,0,0,0,.216.028.918.918,0,0,1,.991.53.9.9,0,0,0,.473.377l.01.005a14.308,14.308,0,0,0-.361-2.5,1.847,1.847,0,0,0-.217.247c-.1.12-.2.336-.312.343a4.319,4.319,0,0,1-.937-.089c-.046-.008-.078-.136-.1-.213a1.552,1.552,0,0,0-2.561-.7.482.482,0,0,1-.367.06,3.789,3.789,0,0,1-.463-.208c-.235-.089-.37-.223-.286-.462a1.526,1.526,0,0,0-2.038-1.493.45.45,0,0,1-.589-.143,3.334,3.334,0,0,1-.319-.347.51.51,0,0,1-.067-.372,1.556,1.556,0,0,0-1.494-2.17c-.12,0-.247-.121-.351-.209-.06-.051-.077-.15-.118-.223a.668.668,0,0,1,.056-.886,1.489,1.489,0,0,0-.7-2.326.444.444,0,0,1-.354-.456,4,4,0,0,1-.025-.545.849.849,0,0,1,.151-.285c.005-.009.025-.008.032-.017a.989.989,0,0,1,.244-.207,14.121,14.121,0,0,0-2.184-.3A1.232,1.232,0,0,0,1551.627,904.338Z" fill="#ef5542" stroke="#47280a" stroke-miterlimit="10" stroke-width="1"/></g></g></svg>