<svg xmlns="http://www.w3.org/2000/svg" xmlns:xlink="http://www.w3.org/1999/xlink" viewBox="1 4 1244.5 2000"><defs><style>.cls-1,.cls-8{fill:none;}.cls-2{clip-path:url(#clip-path);}.cls-3{clip-path:url(#clip-path-2);}.cls-4{fill:#c4ecf7;}.cls-5{fill:#738e6c;}.cls-10,.cls-11,.cls-12,.cls-13,.cls-14,.cls-15,.cls-16,.cls-17,.cls-18,.cls-21,.cls-22,.cls-5,.cls-6,.cls-7,.cls-8,.cls-9{stroke:#47280a;}.cls-15,.cls-17,.cls-21,.cls-30,.cls-35,.cls-42,.cls-5{stroke-miterlimit:10;}.cls-14,.cls-15,.cls-16,.cls-17,.cls-18,.cls-21,.cls-22,.cls-5{stroke-width:4px;}.cls-6{fill:#666;}.cls-10,.cls-11,.cls-12,.cls-13,.cls-14,.cls-16,.cls-18,.cls-19,.cls-22,.cls-6,.cls-7,.cls-8,.cls-9{stroke-linecap:round;stroke-linejoin:round;}.cls-10,.cls-11,.cls-12,.cls-6,.cls-7,.cls-8,.cls-9{stroke-width:3px;}.cls-7{fill:#ff3f44;}.cls-9{fill:#f9f9f9;}.cls-10{fill:#8c8c8c;}.cls-11{fill:#d3d3d3;}.cls-12{fill:#e5e5e5;}.cls-13{fill:#ceb2b5;stroke-width:2px;}.cls-14{fill:#47823f;}.cls-15{fill:#c6d89e;}.cls-16{fill:#e5d698;}.cls-17{fill:#adce74;}.cls-18{fill:#d8ca8f;}.cls-19,.cls-22{fill:#96bc5e;}.cls-19{stroke:#603813;}.cls-19,.cls-35{stroke-width:5px;}.cls-20{fill:#fff;}.cls-21{fill:#bf9a60;}.cls-23{fill:#eeedbb;}.cls-24,.cls-27,.cls-29,.cls-34,.cls-36,.cls-43{fill:#442811;}.cls-25{fill:#e4e4e3;}.cls-26{fill:#93bec9;}.cls-27{font-size:59.2px;}.cls-27,.cls-29,.cls-34,.cls-36,.cls-43{font-family:MicrosoftJhengHeiBold, Microsoft JhengHei;}.cls-28{fill:#412915;}.cls-29{font-size:42.76px;letter-spacing:0.1em;}.cls-30{fill:#d8bc78;stroke-width:8px;}.cls-30,.cls-42{stroke:#442811;}.cls-31{fill:#4c85bd;}.cls-32{fill:#efb262;}.cls-33{fill:#494949;opacity:0.75;}.cls-34{font-size:58.4px;letter-spacing:0.1em;}.cls-35{fill:#f0f0f0;stroke:#442a12;}.cls-36{font-size:45.98px;letter-spacing:0.1em;}.cls-37{fill:#e59645;}.cls-38{fill:#e79548;}.cls-39{fill:#eb9546;}.cls-40{fill:#e79941;}.cls-41{fill:#e29c52;}.cls-42{fill:#ffebed;stroke-width:6.54px;}.cls-43{font-size:39.17px;letter-spacing:0.1em;}.cls-44{fill:#f5debf;}.cls-45{fill:#d67f5a;}</style><clipPath id="clip-path" transform="translate(0 3.58)"><rect class="cls-1" x="3" width="1239" height="2208"/></clipPath><clipPath id="clip-path-2" transform="translate(0 3.58)"><rect class="cls-1" x="5.01" y="1" width="1236.99" height="2634.38"/></clipPath></defs><title>教3</title><g id="Layer_1" data-name="Layer 1"><g class="cls-2"><g class="cls-3"><g id="圖層_8" data-name="圖層 8"><path class="cls-4" d="M1238.39,417.49V.36H4.89V985.94H1238.71V420.12A13.06,13.06,0,0,1,1238.39,417.49Z" transform="translate(0 3.58)"/></g><g id="圖層_1" data-name="圖層 1"><path class="cls-5" d="M982.75,867.16c-6.74-1.15-76.72-25-91.68-26.29C876,839.56,638.23,846,622.79,838.24c-15.28-7.72-22.67-15.61-30.72-16.59-16.76-2-27.44,9.69-40.09,9.53-12.49-.17-35.65-18.9-53.4-21s-48.3,11.33-63.25,9.86-87.07-33.19-110.89-35.16-107.94,7.72-118.79,7.39-53.39-16.76-65.06-17.74c-11.66-1.15-55,14.46-66.86,13.14-7.72-.82-43.21-10-69.66-16.59v56.84l982.29,69.66C986.2,897.55,989.32,868.31,982.75,867.16Z" transform="translate(0 3.58)"/><path class="cls-6" d="M149.14,669.19s80-17.25,96.27-19.06,44.36,2.63,62.1,56.35c-22.34,1-169.38,23.82-169.38,23.82Z" transform="translate(0 3.58)"/><path class="cls-7" d="M312,804.07s-4.76-55-7.06-86.25c-8.55-27.77-29.74-64.4-55-60.79s-67.85,11.5-96.61,16.1c-28.91,4.6-47,57-47,57L98.7,804.07Z" transform="translate(0 3.58)"/><line class="cls-8" x1="200.56" y1="732.41" x2="196.78" y2="807.65"/><path class="cls-8" d="M253.79,656.7c-46.66-2-53.23,56.19-53.23,56.19" transform="translate(0 3.58)"/><polygon class="cls-9" points="238.51 677.86 238.51 689.2 270.88 690.19 269.07 679.01 238.51 677.86"/><polygon class="cls-9" points="245.08 689.36 243.93 710.07 263.65 710.07 263.65 690.02 245.08 689.36"/><polygon class="cls-9" points="222.74 748.02 216.33 754.92 253.79 812.42 259.21 807.65 222.74 748.02"/><polygon class="cls-9" points="287.63 750.32 293.22 757.87 256.91 818 249.03 816.36 287.63 750.32"/><polygon class="cls-9" points="211.24 809.95 213.87 745.06 221.59 745.06 219.62 809.95 211.24 809.95"/><polygon class="cls-9" points="251.49 812.58 254.12 747.85 261.84 747.85 259.87 812.58 251.49 812.58"/><polygon class="cls-9" points="289.77 811.1 288.29 747.03 295.85 747.03 298.31 811.1 289.77 811.1"/><polygon class="cls-9" points="212.88 743.09 212.88 750.81 297.33 754.92 297 747.03 212.88 743.09"/><polygon class="cls-9" points="197.28 716.47 308.99 722.22 308.99 736.68 201.55 732.24 101.49 749.66 104.12 734.38 197.28 716.47"/><polygon class="cls-9" points="117.43 764.61 116.61 778.74 126.14 778.25 128.44 763.13 117.43 764.61"/><polygon class="cls-9" points="161.46 756.23 160.64 774.79 171.97 773.97 173.62 754.1 161.46 756.23"/><polygon class="cls-9" points="114.97 759.02 113.49 765.6 132.71 762.8 134.19 754.92 114.97 759.02"/><polygon class="cls-9" points="156.86 750.81 156.86 758.37 178.38 755.25 179.86 746.54 156.86 750.81"/><path class="cls-10" d="M245.41,650.13S175.59,660.48,144.7,670.5c-31,10-43.54,55-43.54,55l94-17.25S204.5,651.44,245.41,650.13Z" transform="translate(0 3.58)"/><polygon class="cls-9" points="353.84 701.19 336.43 827.7 348.92 833.45 367.15 697.91 353.84 701.19"/><polygon class="cls-9" points="399.02 692.32 387.69 693.47 417.92 831.8 433.2 834.1 399.02 692.32"/><polygon class="cls-11" points="372.9 693.64 377.5 821.95 389.82 825.56 381.12 692.65 372.9 693.64"/><path class="cls-9" d="M346.45,648.49c-15.44,5.58-15.61,52.73,5.42,50.43s44-6.4,60.63-8.54,8.05-54.54-9.7-52.74C384.89,639.78,346.45,648.49,346.45,648.49Z" transform="translate(0 3.58)"/><path class="cls-9" d="M396.07,650.46s-7.89,17.25,3.45,32.36" transform="translate(0 3.58)"/><polygon class="cls-12" points="358.44 717.79 357.79 724.85 402.31 730.44 400.83 717.62 358.44 717.79"/><polygon class="cls-12" points="356.31 742.1 353.19 750.32 406.42 760.5 404.12 747.36 356.31 742.1"/><polygon class="cls-12" points="351.71 770.03 350.89 778.41 411.67 785.64 410.52 774.79 351.71 770.03"/><polygon class="cls-12" points="349.08 796.15 348.59 802.23 419.4 813.08 416.6 801.25 349.08 796.15"/><polygon class="cls-13" points="426.46 639.09 419.4 659.13 423.01 664.06 431.23 643.03 426.46 639.09"/><polygon class="cls-13" points="422.02 670.14 419.56 678.68 428.6 694.46 431.72 684.76 422.02 670.14"/><path class="cls-13" d="M408.39,652.92c-4.93,1.15-4.77,23.17,2.46,23.66,7.23.66,20.87-3.94,18.9-15.11C427.77,650.13,416,651.12,408.39,652.92Z" transform="translate(0 3.58)"/><path class="cls-13" d="M404.77,644.54s7.89,14.3,9,14.46,3.12-.82,3.78-3.12-8.38-19.06-8.38-19.06Z" transform="translate(0 3.58)"/><polygon class="cls-13" points="401.49 653.38 412.66 636.46 384.73 579.78 363.54 605.08 401.49 653.38"/><polygon class="cls-13" points="430.9 676.55 424.16 692.32 446.34 731.75 454.06 706.12 430.9 676.55"/><polygon class="cls-13" points="423.67 638.76 430.73 653.71 449.79 610.67 440.26 591.28 423.67 638.76"/><path class="cls-13" d="M404.61,687.75s6.24-14.62,7.56-15.28,3.78,4.77,3.78,4.77L409.54,695Z" transform="translate(0 3.58)"/><polygon class="cls-13" points="402.14 681.48 414.96 699.55 396.39 758.2 381.77 732.9 402.14 681.48"/><path class="cls-14" d="M950.55,752.15c.16-2.79-2.47-4.76-4.93-5.58s-5.26-1-7.23-2.79c-1-1-1.81-2.3-3-2.63-1.31-.33-2.63.49-3.94.65-1.81.17-3.45-1-5.26-1.47s-4.27.32-4.1,2.3a23.06,23.06,0,0,0-12.82-5.92,5.85,5.85,0,0,0-4.11.66c-1,.66-1.64,1.81-2.62,2.3-1.81.82-3.78-.17-5.76,0-3,.33-4.92,3.28-7.39,5.09-6.24,4.6-14.95,1.32-22.34,3-7.07,1.64-13.47,7.72-20.54,6.57-2.63-.49-5.75-2-8-.33-1.48,1-2,3-3.28,4.11-2.3,1.81-5.43.66-8.22,0s-6.73.66-6.41,3.61a146.06,146.06,0,0,1-20.7.5,3.58,3.58,0,0,0-2.63.65c-1,1.32.17,3.29-.49,4.93-.49,1.48-2.46,1.81-3.94,2.3-4.27,1.48-6.74,6.24-9.37,10.19a40.81,40.81,0,0,1-11.33,11.17,8,8,0,0,0-2.3,1.81c-2,2.95,1.15,6.57,3.78,8.54-4.93,2.3-5.26,11-.5,13.8-4.27,4.11-4.43,11.83-1.15,16.76,3.29,5.09,9.2,7.56,15.12,7.56a10.32,10.32,0,0,0-2.3,7.22c.82,1.65,3.28.5,4.6-.49,1.48-1.15,4.27-1.48,4.43.33,1.15-3.61,5.59-4.44,9.21-3.61,3.45.82,7.06,2.46,10.51,1.47-1,2,1.64,4.11,3.61,3.62,2.14-.33,3.78-2,5.75-2.79,6.25-2.47,12.49,4.76,19.23,4.6,2.3,0,4.43-1,6.73-.83,3.45.17,6.41,2.63,9.7,3.29,4.76.82,9.36-2,13.8-3.94,8.87-3.78,18.56-4,28.09-4,3.45,0,7.23,0,10,2,1.15-2.63,4.27-3.78,7.07-3.29s5.09,2.3,7.39,3.94c-.33-2.46,1.81-4.76,4.11-5.58s4.76-.33,7.22-.17c10.68,1.15,21.36-.49,32-2,9.53-1.31,19.72-3.12,26.45-10.18,1.65-1.81,3.12-3.78,5.1-5.1,1.64-1,3.45-1.64,4.92-3,3.13-3,2-8.37.66-12.48" transform="translate(0 3.58)"/><path class="cls-14" d="M1242,840.71a.63.63,0,0,0-.16-.5h.16V746.9c-2.79-2.63-5.59-5.1-7.06-8.87-1.81-4.44-1.32-9.53-2.14-14.3-1.48-7.23-5.09-6.24-9.53-9-3.78-2.47-5.59-7.23-10-9a12.22,12.22,0,0,0-14,3.94c.33-3.61-2-7.23-5.09-8.05-3.12-.65-6.41,1.65-7.39,5.1-1.15-7.23-8-12.33-14.29-10.52a32.2,32.2,0,0,1-5.59,2c-2.14.33-4.27-.65-6.41-1.48-6.08-2.62-12.16-5.42-18.4-8a7.75,7.75,0,0,0-5.42-.16,5.25,5.25,0,0,0-1.31-4.11c-1.65-1.81-4.28-2.13-6.58-2.3-10.51-1.15-21.19-2.13-31.7-3.28-3.78-.33-8.55-.17-10,3.94a4.43,4.43,0,0,0-7.22,1.15c-6.74-8.38-20.38-6.9-25.47,3a22.38,22.38,0,0,0-22.67,0,23.8,23.8,0,0,1-20.87,3.28c-4.27-1.31-8.38-3.94-12.65-4.6-4.43-.65-9.69,1.48-11,6.41-5.26-6.41-16.11-3.12-18.08,5.26-1.8-.5-3.45-.82-5.25-1.32-.83,2-1.65,4.11-2.47,6.08a24.88,24.88,0,0,0-20.37,3c-1.81-2-3.94-3.94-6.41-4.11a4.39,4.39,0,0,0-4.6,5.09,7.09,7.09,0,0,0-6.57-4.1c1.64,3.94-2.63,7.23-5.91,9.36-3.29,2-6.41,7.72-3.13,9.86-8,3.28-17.74,10.19-15.44,19.55-7.39-2.79-15.61,1.31-20.7,7.89s-7.89,15.11-10.35,23.49c-3.12-.49-6.08,2.46-7.23,5.91s-.82,7.23-.49,10.85l-15,1c3.12,1.48,5.25,5.26,5.25,9,0,1.64-.49,3.45-.49,5.09,0,3.94,2,7.39,3.78,10.52,3.94,6.73,8.22,13.63,14.29,17.58s14.79,4.27,19.39-1.81c9.69,5.58,21.36,3.78,31.87,6.9,9.53,2.79,18.4,10,28.43,9.86,8.87-.17,16.75-6.08,25.46-7.89a64,64,0,0,1,12.49-.82c8,.16,16.1.16,23.82,2.3,13.47,3.61,28.75,12.48,40.09,3.28,3.61,4.93,9.2,7.89,14.78,7.73.82-1.48,1.64-2.8,2.47-4.28-.17,7.23,8.21,9.53,14.45,9.53s12.49,0,18.73.17c5.59,0,13.47-3,12.16-9.2,1.31,8.38,10.19,11.83,17.58,11.33,7.39-.65,15-3.61,22-1.31-1-2.3,1.32-5.09,3.62-5.26s4.27,1.15,6.41,2.3c5.75,3,12.15,3.45,18.23,4,10.68.82,21.36,1.64,32,2.62,6.9.5,14,1,20.21-2.13a18.43,18.43,0,0,0,9.2-12.16v-6.24Z" transform="translate(0 3.58)"/><path class="cls-15" d="M889.27,916.12c-.33-4-.82-8-3.45-11-3.78-4.44-10.52-4.77-16.43-4.6C726.13,902.64,586,863.87,445.85,834S158.83,783,20.33,819.84C14.91,821.32,9.49,823,3.9,824.61v185.48c17.26.49,34.51.33,51.76.17,215.22-2.14,430.77-16.43,645.17,2.13,66,5.75,133.56,14.46,198-1.64C895.68,979.2,892.39,947.66,889.27,916.12Z" transform="translate(0 3.58)"/><path class="cls-16" d="M253.46,820.17c7.07,7.07,12.16,16.76,11.83,26.78-.49,12.32-8.87,22.67-14.62,33.68a86.35,86.35,0,0,0-4.77,69.82c2.3,6.25,5.59,12.65,11.34,16.1,4.44,2.8,10,3.45,15.28,4A569.19,569.19,0,0,0,339.39,973c-12.82-9-24.32-20.21-31.88-33.84s-11-30.07-7.39-45.35c2.63-11.17,8.71-21.52,9.53-32.86,1-14.62-6.74-28.42-15.94-39.75-4.27-5.43-8.7-11.34-15.11-14-10.84-4.43-25.14-4.27-38.28-4.93-6.9-.33-7.72,2.14-2.47,6.41C243.11,812.45,248.7,815.41,253.46,820.17Z" transform="translate(0 3.58)"/><path class="cls-17" d="M1242,824.94c-28.26-3-59.47-7.73-110.57-12.33-18.4-1.64-119.93-12.81-138.49-12-22.84,1.15-86.91,1.81-109.26,4.93-93.15,12.81-110.89,10-203.39,24.64-29.41,4.6-242.33,96.93-271.57,102-61.61,10.51-126,25.46-137.35,25.95C174.93,962.28,119.73,939.45,70,930.74c-50.11-8.87-60.79-27.11-65.88-37V2374.2c411.71,28.42,826.22,53.72,1237.93,32.36Z" transform="translate(0 3.58)"/><path class="cls-18" d="M1242,1166c-26-52.41-114.67-198.13-248.9-282.58-56.68-35.65-160.18-77.71-196.66-74.59-12.15,1-70,5.75-78.36,15.61,10.51,2.3,137.34,47.65,203.22,123.88,89.87,104.32,100.88,214.56,104,214.89,40.42,4.6,166.59,20.54,216.7,21.36Z" transform="translate(0 3.58)"/><path class="cls-19" d="M1242,2635.75V1163.54c-10.84-1-19.55-1.81-23.49-2-26.45-1.81-39.93,4.93-64.41,5.42-30.55.66-60.95-3.12-89.21-12.32-58.81-18.9-141-44.85-285.86-38-273,12.81-598.51,19.87-741.61,102.68-9.86,5.75-21.36,11.33-33.35,17.25v1399.1Z" transform="translate(0 3.58)"/><path class="cls-20" d="M1147.2,140.5c-9.52-3.45-17.08,8.05-23.49,15.11s-11.5,15.78-20.7,20c-5.75,2.63-13.31,3.94-15.61,9.36s3.45,11.5,9.86,12.65,13-1.15,18.73-3.61a213,213,0,0,0,42.71-24c4.93-3.61,9.86-7.56,13-12.48,3.13-5.1,4-11.34,1-16.43-4.93-8.22-20.37-8.55-25.79-.66" transform="translate(0 3.58)"/><g id="雲"><path class="cls-20" d="M721.69-3.42A207.9,207.9,0,0,0,704.77,11c-4.11,3.94-8.22,8.05-13.47,10.51-6.74,3.12-14.62,3.29-22,4.11-22.67,2.63-44,12.65-59.47,27.6C604.55,58.35,600,64.1,594.53,69.2,577.12,85,552.8,92.53,530.79,102.71c-22.18,10.19-44.2,25.47-48.63,47.15-.5,2.63-.66,5.75,1,7.89,1.48,1.81,4.11,2.79,6.57,3.45,13.31,4.11,28.42,8.05,40.75,2,11.33-5.75,16.1-18.56,26.78-25.3,14.29-9.2,34.5-5.09,50.93-10.84,13.8-4.77,23.49-16.1,36.14-23.17s27.77-9.69,42.22-13.63c41.08-11.18,77.06-33.35,112.21-55.37C817.8,23,836.86,11,855.75-.79c1.32-.82,2.8-1.64,4.11-2.63Z" transform="translate(0 3.58)"/><path class="cls-20" d="M989.16-3.42c-8.22,5.92-15.94,12.49-24.81,17.74-26.78,15.78-64.73,19.23-81,44-6.24,9.53-8.7,21.53-18.73,27.93-6.07,4-15.93,8.55-12.48,14.46,1,1.81,3,2.79,4.93,3.78,12.65,6.57,28.58,11.66,41.56,5.59,8.55-4.11,13.8-12.33,22-16.93,13.8-7.55,32.53-3.28,47-9.69,10.85-4.76,17.42-14.46,25-22.84,19.22-21.35,47.64-36.14,78-40.74,8.55-1.31,17.42-1.81,25.47-4.93,10.19-3.94,17.74-11.83,26-18.56H989.16Z" transform="translate(0 3.58)"/><path class="cls-20" d="M1238.39,29.44c-13.64,1.15-27.11,3.78-36.31,12.32-7.4,6.9-10.85,16.92-19.22,22.67-11.83,8.22-29.58,5.59-42.39,12.65-5.92,3.12-10.35,8-14.62,12.82-8.22,9.2-16.43,18.4-24.48,27.6-1.48,1.64-3.12,3.61-2.47,5.75.5,1.64,2.14,2.79,3.78,3.61,13.8,7.4,32.7,6.41,45.18-2.46,6.08-4.27,10.68-10,17.25-13.64,11.83-6.4,27-3.78,40.75-4.6,11.5-.65,22.18-3.61,32.69-7.72v-69Z" transform="translate(0 3.58)"/><path class="cls-20" d="M1088.06,206.54c-17.25-1.47-37.62,4.6-51.92,13.31-6.9,4.27-13,9.37-20.2,13.15-6.9,3.45-47,7.22-53.73,11-32.53,18.73-58.81,33-95.45,45.84-5.75,2-7.72,18.07-6.74,23.49,41.08,3.29,75.74-25,113.69-39.43,22.18-8.38,46.33-12.32,68.35-21.19s42.55-25.14,46-46.17" transform="translate(0 3.58)"/><path class="cls-20" d="M463.26,167.28a62.8,62.8,0,0,0-36.8,18.07,13,13,0,0,0-2.79,4.11c-1.32,3.78,1.64,7.88,5.75,9.69s8.71,1.64,13.14,1.15a90.57,90.57,0,0,0,27.77-8.38c4.43-2.13,8.7-4.6,11.66-8.21s4.11-8.55,2-12.49c-3.28-5.91-13-5.91-20-3.94" transform="translate(0 3.58)"/><path class="cls-20" d="M764.24,122.1c-11.17,5.91-22.67,12.32-35.48,13.8-6.41.82-12.82.33-19.23-.16-6.08-.5-13.47-1.65-15.28-6.91-1.8-4.92,3-9.85,7.56-13.14,17.75-12.65,39.1-20.53,60-28.09,6.41-2.3,12.81-4.6,19.71-4.77,8.55-.16,18.57,2.8,24.48-2.63,3.12-2.79,4.11-6.9,7.07-9.69,13.8-12.16,42.38,7.39,18.73,21.52C811.72,104.36,785.44,110.93,764.24,122.1Z" transform="translate(0 3.58)"/></g><path class="cls-20" d="M1238.39,255.67c-.66,0-1.32-.17-2-.17-13.47-1.64-24.31.17-34.17,9.37-7.23,6.73-16.26,9-26.45,8.71-22-.5-43.37,4.1-60,18.56-18.23,16.1-39.59,25.14-62.75,32-13.15,3.94-25.8,9.53-38,15.6-10,4.93-17.57,13-20.86,23.5-1,2.79-.16,8.05,2,9.69,16.1,12.65,38.77,11.83,53.4-2.63,10.18-10,21.68-14,35.65-12.81,15.93,1.15,30.55-2,43.7-11.17,10.51-7.4,22.67-10.85,35.48-12.65,13-2,26-4.11,38.78-7.23a287.59,287.59,0,0,0,35.32-11.83v-59Z" transform="translate(0 3.58)"/><path class="cls-20" d="M911.12,409.77c-3.12-.49-5.26-.16-6.57-1.15-2.8-2-6.41-4.11-7.23-6.73-.66-2.14,1.8-6.08,3.94-7.89,12.16-9.69,26.62-13,41.89-11.5,3.46.33,8.71,3.78,9.21,6.41.65,3.28-1.65,8.87-4.6,11C936.75,408,923.28,409.28,911.12,409.77Z" transform="translate(0 3.58)"/></g><g id="圖層_5" data-name="圖層 5"><path class="cls-21" d="M1242,1113.43c-18.73,0-60-.49-76.72-.16-20,.32-129.63-3.29-145.07-2.63s-117.31-1.65-134.56-2.47-114,3.62-128,4.27c-17.91.83-127.32-3-141.29-2.62-14,.49-122.4-1-134.72-1.65-12.48-.65-125,2.14-134.55,1.48-9.7-.66-123.22.66-134.56-.66s-123.71-1.31-134.55.33c-10.51,1.48-61.61-1-73.77-.16v39.43c12.32,1.64,70.32,5.75,73.77,5.75,3.61,0,119.27-1.48,134.55-1.48,15.45,0,114.19,1,134.56,1s111.22,1,128,2,128.48-1,137.35-1.48,121.74.33,131.76,2.79,116.15-2.3,141.29-3.28,119,3,129,3,134.06,2,140.3,2.47c4.93.33,61.28-1.32,87.08-2.8v-43Z" transform="translate(0 3.58)"/><path class="cls-21" d="M44.81,1231.23s-8.87-138-7.23-150.49,25.63-45.51,34.67-45.51,44.69,26.78,44.69,33,3.28,156.9,0,163C113.49,1237.31,50.89,1235,44.81,1231.23Z" transform="translate(0 3.58)"/><path class="cls-21" d="M178.71,1230.4s-8.54-150.32,0-160.84,31-30.88,37.13-33.68,27.93,28.43,29.24,35.16c1.15,6.74,11,150.33,0,156.41C233.91,1233.36,179,1236.48,178.71,1230.4Z" transform="translate(0 3.58)"/><path class="cls-21" d="M347.11,1035.56c7.39,1.64,37.62,32.69,38.11,37.78s7.89,158.54-3.94,158.54c-11.66,0-63.58,4.44-68.18-3.94-4.44-8.38-9.53-148.52-5.59-155.25C311.62,1066.11,334.29,1032.76,347.11,1035.56Z" transform="translate(0 3.58)"/><path class="cls-21" d="M444.37,1231.88c4.43,6.9,67,9.7,72,2.3,5.09-7.39,8.38-153.61,5.09-161.49s-31-40.26-37.79-40.26-35.81,36.31-39.26,44.2C441.08,1084.35,438.29,1222.35,444.37,1231.88Z" transform="translate(0 3.58)"/><path class="cls-21" d="M620.65,1028c6.08,0,34.67,40.25,35.82,46.33s-2.3,151.47-7.89,160.84-61.94,12-66.37,3.94-8.38-156.57-3.94-164.78S611.12,1028,620.65,1028Z" transform="translate(0 3.58)"/><path class="cls-21" d="M756,1027.51c8.87,0,36.14,52.73,36.14,58.32s1.81,151-4.76,154.93c-6.74,3.94-65.88,7.88-73.11,0s-4.44-152.47,0-156.9C718.57,1079.26,749.78,1027.51,756,1027.51Z" transform="translate(0 3.58)"/><path class="cls-21" d="M1020.21,1025.37c6.57,0,32.36,31.05,38.28,44,4.93,11,7.55,173-4.44,176.45s-64.24,3-71.79-4.44c-7.56-7.56-4.44-158.7-.17-172.34C983.9,1063.65,1012.16,1025.53,1020.21,1025.37Z" transform="translate(0 3.58)"/><path class="cls-21" d="M882.53,1021.43c9.69,0,35.49,32.36,40.42,45.18s6.24,173.65,0,177.43-67.53,2.63-72.78-4.6c-5.1-7.23-8.71-157.55-3.62-167.08C851.48,1062.83,872.84,1021.43,882.53,1021.43Z" transform="translate(0 3.58)"/><path class="cls-21" d="M1155.75,1028c5.58-.17,39.92,48.63,39.92,55.2,0,6.74-2.14,150.33-6.57,158-4.44,7.56-66.7,5.26-70.48,0-3.62-5.26-7.89-140,0-158C1126.34,1065.29,1143.92,1028.33,1155.75,1028Z" transform="translate(0 3.58)"/></g><g id="圖層_6" data-name="圖層 6"><path class="cls-22" d="M25.59,1250.12s.66-18.4-6.9-24.32c10.19.17,22.67,0,25.63,12.33,6.08-12.49,10.84-23.83,23.17-29.25-4.61,16.43-4.28,32,0,36.48,5.58-19.23,8.21-29.74,19.87-34.67-.49,19.22,0,30.72,8,37.13,2.14-24.81,11.67-38.77,11.67-38.77s2,17.58,3.28,29.73c10.68-21.85,20.54-20.86,26.46-15-8,4.93-15.78,26.45-15.78,26.45" transform="translate(0 3.58)"/><path class="cls-22" d="M164.42,1243.71c-4.77-8.21-6.58-19.71-16.76-19.88,12.81-6.08,28.42-3.45,31.71,10.85,4.76-20.38,2.13-30.07,15.6-36.64-.65,15-4.92,29.24,0,38.11,4.77-15.11,17.42-43.37,30.73-33.18-5.59,7.23-16.1,23.16-13,31,9.53-12.82,7.39-20.54,19.88-18.89-.5,7.55-6.9,25.13-6.9,25.13,11.66-8.87,15-32.53,26.61-28.58-5.26,7.39-8.87,15.11-5.58,23,9.69-14.79,15.77-18.57,22.5-10.68-7.55,7.55-15,11-14.12,19.71" transform="translate(0 3.58)"/><path class="cls-22" d="M300.61,1248.48s-5.09-26.45-13.8-26.45c16.27-.83,26,9.36,28.75,20.86,1-16.1,1.48-28.42-6.9-35,21.53,9.69,18.08,24.8,20.21,33.18,2.79-12.48,8.05-30.39,2.79-36.47,12.49,15,12.82,25.79,13,38.12,3.62-19.39,11.83-44.69,22.68-41.57-2.47,5.26-7.4,22-8.88,36.8,8.88-18.07,15.28-28.75,23.83-27.43-7.07,8.7-13.15,18.07-10,30.55,7.4-16.1,12-23,20.05-22.83-2.79,6.9-9.7,15.93-6.41,23.49,3.94-11.17,16.92-12.16,16.92-12.16s-7.55,11.34-8.7,18.9" transform="translate(0 3.58)"/><path class="cls-22" d="M411.35,1248.81s10.51-13.48-2.8-35.82c18.24,10.84,26.45,13.47,27.44,27.27,0-14-1.81-19.88,13.47-32-1.81,12-1.31,23.82,4.6,37,6.74-10.84,5.92-17.41,4.6-28.26,9.69,9.86,13,8.38,11.67,20.54,9.69-10.19,9.85-28.09,25.3-21.36-6.9,4.93-7.72,9.2-5.26,20.37,5.42-5.75,7.39-14,14.95-14.78-1.48,4.43-1.81,9.2,1,13.8,7.22-4.11,8.21-9.37,8.7-19.39,8,6.24,10.35,13.14,7.56,27.27,0,0,10.52-24.64,29.24-15-8,6.25-15.11,9.86-17.41,22.84" transform="translate(0 3.58)"/><path class="cls-22" d="M1108.1,1257.68s1.15-12.65-12.32-28.43c16.1,2.14,21.69,5.43,27.93,15.45-.49-16.92,1.81-37.3,10-43.54-.49,18.89.17,37.62,6.57,45.67,2-13,8.55-13,4.6-26.78,12,7.56,16.76,15.28,13.8,27.61,8-14.63,3.45-38,21.53-33.68-2.14,9.36-6.74,20.2-6.9,31.87,7.55-8.71,16.43-10.85,16.75-26.29,3,11.34,8.55,10,1.48,25.8,11.83-12.66,12.16-14.63,25.63-13.81-7.23,5.43-10.35,1.32-13.8,18.24" transform="translate(0 3.58)"/><path class="cls-22" d="M954.49,1252.42s5.26-25.14-1.81-37.79c11.34,4.77,23.17,27.93,23.17,27.93a57.06,57.06,0,0,0-4.6-33.18c13.31,7.88,23,32,23,32s5.26-20.86-2.63-37.46c14.79,16.1,20.54,39.76,20.54,39.76s4.93-19.88,3.12-29.08c9.69,6.25,9,11.5,9.36,27.11,4.27-23.66,9-28.42,16.43-37.79-.65,8.71,2.63,25.14-1.31,37.13,7.88-12.65,8.71-23.65,16.1-25.13-2.79,9.69-4.11,12.65-.82,23,8.38-12.16,12.65-11.67,23-8.71-5.26,3.61-13.64,9.53-13.64,22.18" transform="translate(0 3.58)"/><path class="cls-22" d="M690.64,1257.35s1.31-17.74-4.76-30.72c12.15,8.21,19,5.25,23,24.31-1.32-17.91-7.56-42.06-7.56-42.06s25.79,16.1,26.12,42.06c3.94-18.24,2.63-46,2.63-46s13,19.71,16.43,44.69c4.27-17.09,16.43-35.65,16.43-35.65v34.83c3.94-6.25,9.53-31.88,24.81-29.74-5.59,7.88-7.4,17.91-6.9,31.71,2.62-9.2,21.68-24.32,21.68-24.32a95.13,95.13,0,0,0-5.58,28.59" transform="translate(0 3.58)"/><path class="cls-22" d="M567.59,1251.27s-.17-18.24-13.64-13c12.81-8,23.17-12.16,26.45,6.08,4.77-9,7.23-14.29,4.93-23.66,6.9,8.22,11.34,10.19,8.71,27.27,3.45-15.44,6.57-28.25,21.19-30.55-6.9,10.84-12.32,24-5.26,28.75,5.26-8.88,7.72-6.41,8-16.76,4,8.54,4.6,11.17,6.25,15.28,1.64-15.12,4.6-27.27,16.43-27.27-2.8,6.07-7.07,10.51-5.43,25.13,7.89-6.41,8.71-7.23,9.37-17.58,4.43,6.08,5.58,9.53,5.26,17.91,3.61-8.71,4.6-8.71,15.6-8.38-5.25,4.93-7.23,4.27-10.68,16.92" transform="translate(0 3.58)"/><path class="cls-22" d="M824.37,1255.87s10.19-24.32,0-36.47c10.85,4.76,15.61,7.39,16.92,22.83,2.63-14.78,12-12.32,8.88-27.1,7.39,12.32,5.25,14.45,8.05,29.9,1.48-12.33,5.91-38.45,19.22-38-1.81,8.05-7.07,21.68-4.77,40.41,7.4-11,10.85-16.59,9.86-27.6,5.42,8,10.35,8,6.08,26.45,7.23-13.8,8.38-20.37,18.4-27.27-1.48,13.63-4.6,13-3.94,28.42,7.23-10.68,8-11.66,12.16-17.74,2.79,8.38,1.15,12.16,0,19.88,5.91-10.52,11.5-10.19,19.71-8.55-4.6,4.28-10.19,4.93-11,16.27" transform="translate(0 3.58)"/></g></g></g><rect class="cls-1" x="0.81" y="6.02" width="1242" height="2168.57"/></g><g id="Layer_4" data-name="Layer 4"><ellipse class="cls-23" cx="114.77" cy="275.53" rx="61.27" ry="45.33" transform="translate(-161.22 165.44) rotate(-45)"/><path class="cls-24" d="M115.11,339.34c-13.35,0-27.2-4.12-40.2-12.46A38.09,38.09,0,0,1,63.43,315.4c-18.67-29.11-16.2-62.44,6.28-84.93s55.81-25,84.93-6.27a38.17,38.17,0,0,1,11.48,11.47h0c18.66,29.11,16.19,62.44-6.29,84.93A62.49,62.49,0,0,1,115.11,339.34ZM114.94,220a56.14,56.14,0,0,0-39.41,16.3C60.61,251.2,50.31,279.71,70.35,311a30.17,30.17,0,0,0,9,9c31.24,20,59.76,9.72,74.67-5.19s25.21-43.42,5.17-74.68h0a30.14,30.14,0,0,0-9-9C137.79,223.16,125.81,220,114.94,220Z" transform="translate(0 3.58)"/><line class="cls-25" x1="79.75" y1="263.47" x2="151.28" y2="263.47"/><rect class="cls-24" x="79.75" y="260.18" width="71.53" height="6.58"/><line class="cls-25" x1="79.75" y1="279.12" x2="151.28" y2="279.12"/><rect class="cls-24" x="79.75" y="275.83" width="71.53" height="6.58"/><line class="cls-25" x1="79.75" y1="294.77" x2="151.28" y2="294.77"/><rect class="cls-24" x="79.75" y="291.47" width="71.53" height="6.58"/><path class="cls-20" d="M1175.88,1880c62.65,104-45.67,212.31-149.66,149.66a70.49,70.49,0,0,1-23.87-23.86c-62.64-104,45.68-212.31,149.67-149.66A70.37,70.37,0,0,1,1175.88,1880Z" transform="translate(0 3.58)"/><path class="cls-24" d="M1089.57,2052.32c-21.74,0-44.25-6.3-65.47-19.09A74.51,74.51,0,0,1,998.83,2008c-29.55-49.06-24.46-104.93,13-142.35s93.31-42.51,142.35-13a74.57,74.57,0,0,1,25.26,25.27c29.55,49,24.47,104.92-13,142.35A107.51,107.51,0,0,1,1089.57,2052.32Zm-.85-210.49a99.36,99.36,0,0,0-71.11,29.59c-34.66,34.67-39.27,86.58-11.73,132.29a66.24,66.24,0,0,0,22.46,22.47c45.72,27.54,97.64,22.94,132.29-11.73s39.27-86.59,11.73-132.28h0a66.35,66.35,0,0,0-22.46-22.48C1130,1847.73,1109,1841.83,1088.72,1841.83Z" transform="translate(0 3.58)"/><path class="cls-26" d="M1109.19,1905h-40.14a34.63,34.63,0,0,0-34.53,34.53h0a34.65,34.65,0,0,0,27,33.67v17a3.82,3.82,0,0,0,6.36,2.85l21.3-19h20a34.64,34.64,0,0,0,34.53-34.54h0A34.63,34.63,0,0,0,1109.19,1905Z" transform="translate(0 3.58)"/><path class="cls-24" d="M1065.35,1998.15a8,8,0,0,1-3.26-.7,7.85,7.85,0,0,1-4.7-7.24v-13.87a38.62,38.62,0,0,1,11.66-75.45h40.14a38.64,38.64,0,1,1,0,77.28h-18.46l-20.13,18A7.86,7.86,0,0,1,1065.35,1998.15Zm3.7-89a30.41,30.41,0,0,0-6.65,60.09l3.21.71v20.3l22-20.26h21.6a30.42,30.42,0,1,0,0-60.84Z" transform="translate(0 3.58)"/><path class="cls-24" d="M1070.92,1939.79a4.68,4.68,0,1,1-4.68-4.68A4.69,4.69,0,0,1,1070.92,1939.79Z" transform="translate(0 3.58)"/><path class="cls-24" d="M1094.85,1939.79a4.68,4.68,0,1,1-4.68-4.68A4.68,4.68,0,0,1,1094.85,1939.79Z" transform="translate(0 3.58)"/><path class="cls-24" d="M1118.78,1939.79a4.68,4.68,0,1,1-4.67-4.68A4.68,4.68,0,0,1,1118.78,1939.79Z" transform="translate(0 3.58)"/><path class="cls-23" d="M1158.25,324.28h-208A54.43,54.43,0,0,1,896,270h0a54.43,54.43,0,0,1,54.27-54.27h208A54.43,54.43,0,0,1,1212.52,270h0A54.43,54.43,0,0,1,1158.25,324.28Z" transform="translate(0 3.58)"/><path class="cls-24" d="M1158.25,328.39h-208a58.38,58.38,0,1,1,0-116.75h208a58.38,58.38,0,1,1,0,116.75Zm-208-108.53a50.16,50.16,0,1,0,0,100.31h208a50.16,50.16,0,1,0,0-100.31Z" transform="translate(0 3.58)"/><text class="cls-27" transform="translate(984.85 297.52)">36</text><path class="cls-28" d="M1127.39,251.8c.58-.66,1.06-1.25,1.58-1.8a17.41,17.41,0,0,1,24.2-1.26,17.15,17.15,0,0,1,1.36,24.14c-5.31,6-11,11.74-16.47,17.58l-7.17,7.6a4.93,4.93,0,0,1-7.15,0l-4.13-4.36q-9.37-9.93-18.74-19.87c-6.85-7.28-6.75-18,.23-24.79,6.42-6.23,17.74-6.06,24,.38C1125.83,250.15,1126.52,250.9,1127.39,251.8Z" transform="translate(0 3.58)"/><text class="cls-29" transform="translate(53.92 455.46)">心情</text><rect class="cls-20" x="53.89" y="484.58" width="438.36" height="26.31" rx="4.72"/><path class="cls-24" d="M484.1,509.79H62a10.63,10.63,0,0,1-10.61-10.62v-10A10.62,10.62,0,0,1,62,478.53H484.1a10.63,10.63,0,0,1,10.62,10.61v10A10.64,10.64,0,0,1,484.1,509.79ZM62,483.47a5.68,5.68,0,0,0-5.68,5.67v10A5.68,5.68,0,0,0,62,504.84H484.1a5.69,5.69,0,0,0,5.69-5.67v-10a5.69,5.69,0,0,0-5.69-5.67Z" transform="translate(0 3.58)"/><ellipse class="cls-30" cx="203.76" cy="1958.72" rx="79.17" ry="81.15"/><ellipse class="cls-30" cx="440.22" cy="1958.72" rx="79.17" ry="81.15"/><rect class="cls-1" x="4" y="3.58" width="1238" height="2202.03"/><path class="cls-28" d="M244.26,1927.49a1.13,1.13,0,0,0,0-.18,25,25,0,0,0-26.84-17.14,23.91,23.91,0,0,0-17.65,12.22l-12,21.34a19,19,0,0,0-.56,17.09l-12,12.37a7.65,7.65,0,0,0-5.61-2.55,8.15,8.15,0,0,0,.84,16.28c0,.31,0,.63,0,.94a8,8,0,0,0,7.94,8.11l-.08,0h.05a8.17,8.17,0,0,0,5.58-13.86l12.08-12.3a17.9,17.9,0,0,0,7.82,1.81,17.42,17.42,0,0,0,6.1-1.07,2.4,2.4,0,0,0,.27-.16,16.44,16.44,0,0,0,2.47-1.18l20.82-12.27A25.22,25.22,0,0,0,244.26,1927.49ZM180,1981a1.79,1.79,0,0,0-.37.54,1.84,1.84,0,0,0,.88,2.4,3,3,0,0,1,.95.72l0,0a4.59,4.59,0,0,1,0,6.37,4.35,4.35,0,0,1-6.23,0,4.55,4.55,0,0,1-1-4.69,1.86,1.86,0,0,0-.41-1.92l-.88-.9a1.73,1.73,0,0,0-1.87-.42,4.28,4.28,0,0,1-4.56-1,4.65,4.65,0,0,1,0-6.41,4.32,4.32,0,0,1,6.27,0,3.11,3.11,0,0,1,.67.94,2,2,0,0,0,.36.54,1.74,1.74,0,0,0,2.5,0L189.09,1964a18.92,18.92,0,0,0,3.72,3.81Zm61.35-51.13a21.54,21.54,0,0,1-9.5,23.9l-17.21,10.08-3.55,2.08-3.74,1.6a14.55,14.55,0,0,1-13.94-4,15.3,15.3,0,0,1-2.45-18l11.81-21.25a20.36,20.36,0,0,1,15.15-10.4,18,18,0,0,1,2.84-.2v-.09a20.81,20.81,0,0,1,15.1,6.44,21.29,21.29,0,0,1,4.34,6.37Z" transform="translate(0 3.58)"/><path class="cls-24" d="M178.28,1996.38a8.44,8.44,0,0,1-8.32-8.51c0-.19,0-.35,0-.52a8.58,8.58,0,0,1-.42-17.13,8.19,8.19,0,0,1,5.64,2.38l11.53-11.87a19.29,19.29,0,0,1-1.66-7.86,19.51,19.51,0,0,1,2.35-9.35l12-21.34a23.86,23.86,0,0,1,21.17-12.62,25.57,25.57,0,0,1,24.06,17.62v0l0,.11-.38.18.38-.12a25.77,25.77,0,0,1-11.05,29.9l-20.81,12.26a17.39,17.39,0,0,1-2.51,1.21,2.71,2.71,0,0,1-.26.15,17.65,17.65,0,0,1-6.17,1.1h-.11a18.32,18.32,0,0,1-7.72-1.71l-11.61,11.79a8.62,8.62,0,0,1-4.58,14.12l.34.15-1.86,0Zm-7.4-9.9-.06.5a6.46,6.46,0,0,0,0,.89,7.64,7.64,0,0,0,6.88,7.66h.57a7.75,7.75,0,0,0,5.34-13.15l-.29-.3.29-.3,12.29-12.5.26.13a17.42,17.42,0,0,0,7.63,1.77h.1a16.84,16.84,0,0,0,5.88-1.05l.1-.06.1-.07a16.91,16.91,0,0,0,2.47-1.19l20.81-12.26a25,25,0,0,0,10.69-28.92v0l.39-.08h-.42a24.75,24.75,0,0,0-23.3-17.11,23.32,23.32,0,0,0-3.11.21,23.6,23.6,0,0,0-17.35,12l-12,21.35a18.65,18.65,0,0,0-.55,16.7l.13.27-12.53,12.88-.29-.31a7.28,7.28,0,0,0-5.31-2.43,7.75,7.75,0,0,0,.43,15.47h.39Zm7.42,6.29a4.79,4.79,0,0,1-3.4-1.42,5,5,0,0,1-1.12-5.14,1.41,1.41,0,0,0-.32-1.47l-.88-.9a1.39,1.39,0,0,0-1.45-.34,4.69,4.69,0,0,1-5-1.11,5.12,5.12,0,0,1,0-7,4.64,4.64,0,0,1,3.42-1.47,4.7,4.7,0,0,1,3.43,1.49,3,3,0,0,1,.74,1,1.37,1.37,0,0,0,2.21.4l13.17-13.47.29.38a18.07,18.07,0,0,0,3.64,3.72l.38.3-13.2,13.5a1.38,1.38,0,0,0-.29.41,1.43,1.43,0,0,0,.7,1.86,3.37,3.37,0,0,1,1.08.81,5.05,5.05,0,0,1,0,7A4.84,4.84,0,0,1,178.3,1992.77Zm-6.7-10.18a2.17,2.17,0,0,1,1.56.66l.88.9a2.28,2.28,0,0,1,.49,2.36,4.1,4.1,0,0,0,.95,4.25,4,4,0,0,0,5.66,0,4.19,4.19,0,0,0,0-5.79,2.42,2.42,0,0,0-.86-.65,2.28,2.28,0,0,1-1.07-3,2.63,2.63,0,0,1,.45-.67l12.54-12.82a19.17,19.17,0,0,1-3.15-3.22l-12.52,12.8a2.16,2.16,0,0,1-3.07,0,2.55,2.55,0,0,1-.45-.66,2.43,2.43,0,0,0-.57-.8,4,4,0,0,0-2.87-1.27,3.89,3.89,0,0,0-2.84,1.23,4.26,4.26,0,0,0,0,5.83,3.82,3.82,0,0,0,4.12.92A2.17,2.17,0,0,1,171.6,1982.59Zm32.17-14.22a14.87,14.87,0,0,1-10.69-4.55,15.77,15.77,0,0,1-2.52-18.5l11.81-21.26a20.91,20.91,0,0,1,15.45-10.61,18.86,18.86,0,0,1,2.5-.19l.39-.09h.09a21.39,21.39,0,0,1,15.3,6.55,22.27,22.27,0,0,1,4.42,6.5l1.18,3.55a22,22,0,0,1-9.69,24.36l-20.77,12.16-3.79,1.62A15.46,15.46,0,0,1,203.77,1968.37Zm16.7-54.28a16.71,16.71,0,0,0-2.54.19,20.09,20.09,0,0,0-14.86,10.19l-11.81,21.26a14.9,14.9,0,0,0,2.4,17.5,14.09,14.09,0,0,0,13.54,3.9l3.69-1.59,20.71-12.13a21.19,21.19,0,0,0,9.32-23.43l-1.15-3.47a21.22,21.22,0,0,0-4.25-6.19,20.57,20.57,0,0,0-14.4-6.33v0l-.41.08Z" transform="translate(0 3.58)"/><path class="cls-28" d="M217.09,1920.71l0,0a1.79,1.79,0,0,0,1.76-1.81,1.81,1.81,0,0,0-.14-.69,1.9,1.9,0,0,0-.37-.59,1.42,1.42,0,0,0-.28-.22.87.87,0,0,0-.3-.16.85.85,0,0,0-.34-.11,1.73,1.73,0,0,0-1.55.52,2.38,2.38,0,0,0-.39.6,1.79,1.79,0,0,0-.12.69,1.9,1.9,0,0,0,.51,1.28A1.74,1.74,0,0,0,217.09,1920.71Z" transform="translate(0 3.58)"/><path class="cls-28" d="M222.09,1925.83a1.79,1.79,0,0,0,1.76-1.81,1.81,1.81,0,0,0-.14-.69,1.49,1.49,0,0,0-.39-.6,1.73,1.73,0,0,0-2.48,0,1.83,1.83,0,0,0-.39.6,1.85,1.85,0,0,0,.39,2A1.74,1.74,0,0,0,222.09,1925.83Z" transform="translate(0 3.58)"/><path class="cls-28" d="M212.1,1925.83a1.79,1.79,0,0,0,1.76-1.81,1.81,1.81,0,0,0-.14-.69,1.77,1.77,0,0,0-.37-.6,1.14,1.14,0,0,0-.28-.21.9.9,0,0,0-.3-.17l-.32-.11a1.76,1.76,0,0,0-1.61.49,1.77,1.77,0,0,0-.37.6,1.81,1.81,0,0,0-.14.69A1.79,1.79,0,0,0,212.1,1925.83Z" transform="translate(0 3.58)"/><path class="cls-28" d="M216.42,1930.8a1.56,1.56,0,0,0,.67.15,1.79,1.79,0,0,0,1.77-1.81,2.07,2.07,0,0,0-.13-.7,1.76,1.76,0,0,0-2.89-.59,1.86,1.86,0,0,0,0,2.56A1.42,1.42,0,0,0,216.42,1930.8Z" transform="translate(0 3.58)"/><path class="cls-28" d="M199.72,1947.13a1.83,1.83,0,0,0-.79-2.44,1.74,1.74,0,0,0-2.37.81,15.62,15.62,0,0,0,4.27,19.15,1.84,1.84,0,0,0,1.08.38,1.78,1.78,0,0,0,1.43-.73,1.84,1.84,0,0,0-.35-2.53A12,12,0,0,1,199.72,1947.13Z" transform="translate(0 3.58)"/><path class="cls-28" d="M448.94,1995a19.27,19.27,0,0,1-3.89-.41,21.49,21.49,0,0,1-4.82-1.73,21.46,21.46,0,0,1-4.75,1.72c-12.45,2.6-23.5-7.23-29.56-26.32-3.81-12-2.93-22.85,2.44-29.86,4.1-5.34,10.42-7.89,17.93-7.38a34.63,34.63,0,0,1,8.25,1.67c-1.47-4-4-7.82-8.42-9a5.16,5.16,0,0,1-3.89-6c.51-2.7,3.38-5.41,8.18-4.62,5.15.67,11.79,4.73,14.93,19.82a36.79,36.79,0,0,1,8.68-1.83h0c7.45-.62,13.81,1.94,17.93,7.25,5.43,7,6.38,17.91,2.63,30C469.16,1985.36,459.76,1995,448.94,1995Zm-8.67-7.76,1.13.65a17.19,17.19,0,0,0,4.65,1.83c14.41,2.92,22-16.84,23.92-23,3.25-10.43,2.59-19.68-1.8-25.34-3.12-4-8-5.86-13.72-5.4h0a31.25,31.25,0,0,0-10,2.54l-2.84,1.29-.52-3.14c-1.31-8-4.33-17.79-11.33-18.7-1.51-.17-2.35.11-2.68.46,7,2.31,11.6,8.39,13.5,18l1,5-4.45-2.27a30.34,30.34,0,0,0-11.21-3.15c-6-.48-10.63,1.43-13.74,5.5-4.36,5.68-4.95,14.88-1.65,25.24,2,6.16,9.33,26.06,24,23a17.76,17.76,0,0,0,4.62-1.83Z" transform="translate(0 3.58)"/><path class="cls-28" d="M447.6,1933a4.56,4.56,0,0,1-2.55-.78,4.77,4.77,0,0,1-2-3.46c-.2-2-.38-7,2.36-11.17,2.36-3.69,6.29-5.56,9.16-6.47a4.47,4.47,0,0,1,4,.54,4.61,4.61,0,0,1,1.94,3.62c.3,4.47-.49,8.19-2.35,11-2.38,3.69-6.31,5.56-9.18,6.47l0,0A4.7,4.7,0,0,1,447.6,1933Zm8.12-17.42c-1.45.84-4.61,2.16-6.29,4.78a12.45,12.45,0,0,0-1.58,7.58c1.76-.59,4.71-1.89,6.31-4.4C455.41,1921.66,455.93,1919,455.72,1915.62Z" transform="translate(0 3.58)"/><path class="cls-24" d="M73.79,548.3l-2.3,3c-.34-.46-.85-1.06-1.52-1.81v2.19H61.68v-1.56a30.85,30.85,0,0,1-3.94,3l-1.09-3.77a27,27,0,0,0,8.48-8.43l3.53,1.24a5,5,0,0,1-.46.86A56.16,56.16,0,0,1,73.79,548.3Zm-.41,28.2-3.08,1.81a17.28,17.28,0,0,0-1-3,61.43,61.43,0,0,1-10,3.66l-1.36-3.26A1.91,1.91,0,0,0,59,574V553.6H71.82v14.06h-9.3v6.42a36.7,36.7,0,0,0,5.21-2,12.28,12.28,0,0,0-1.08-2.21l3-1.6A34.63,34.63,0,0,1,73.38,576.5Zm-5.09-17.42v-2.23H62.52v2.23Zm0,5.38v-2.54H62.52v2.54Zm.88-15.76a19.86,19.86,0,0,0-3-2.9,27.08,27.08,0,0,1-2.79,2.9Zm25,22.7c-.38,3.17-.89,5.11-1.51,5.81a3.87,3.87,0,0,1-2.44,1.26q-1.51.21-11.07.21-3.9,0-3.9-4.81V555.41a10,10,0,0,1-1,1L72.37,553a37.07,37.07,0,0,0,6.8-12l3.36,1a27.75,27.75,0,0,1-1.72,4.48H92.67q0,6.13,0,12.73a64,64,0,0,1-.32,7.51,5,5,0,0,1-.74,1.67,3.44,3.44,0,0,1-1.72,1.2,15.63,15.63,0,0,1-4.91.29l-1-3.49a13.25,13.25,0,0,0,4-.1,1.52,1.52,0,0,0,.79-.79,32.08,32.08,0,0,0,.35-5.08c.09-3,.13-6.52.1-10.4H79a35.22,35.22,0,0,1-2.69,4.1h9.67v11.36H78.71v8.23A1.2,1.2,0,0,0,80,575.09l3.12,0a59.24,59.24,0,0,0,6-.17q1.11-.16,1.54-4.57Zm-11.66-9.29v-4.68H78.71v4.68Z" transform="translate(0 3.58)"/><path class="cls-24" d="M140.6,574.37l-1.15,3.7q-4,.15-8.77.15a89.06,89.06,0,0,1-9.92-.37,15.25,15.25,0,0,1-5.41-1.73,11.77,11.77,0,0,1-4.19-3.85,37.77,37.77,0,0,1-5.58,7.11l-2.81-2.88q6.92-6.4,8.64-17l3.79.59a45.77,45.77,0,0,1-2.36,8.62,9.85,9.85,0,0,0,7.5,5.26V557H107.71V542.54h27.84V557h-11.4v6.29h13.92v3.66H124.15v7.49q3.81.14,7.66.13Q136.31,574.54,140.6,574.37Zm-8.83-21.06v-7.19H111.59v7.19Z" transform="translate(0 3.58)"/><path class="cls-24" d="M186.63,567.66a19.32,19.32,0,0,1-1.47,6c-.74,1.67-1.7,2.5-2.86,2.5q-3.56,0-6.81-9.59a39,39,0,0,1-3.92,3.51l-2.43-2.57a32.9,32.9,0,0,0,5.34-4.88,88.76,88.76,0,0,1-1.6-13.65H156.07v6.41a25.31,25.31,0,0,1-4.37,14.35l-2.53-3.09a21.34,21.34,0,0,0,3.18-11.87v-9.13h20.28a36,36,0,0,1,0-4.2l3.57-.11c0,1.71,0,3.15.13,4.31h4.41a11.37,11.37,0,0,0-2.57-2.58l2.82-1.94a14.47,14.47,0,0,1,3.44,3.28l-2,1.24h3.45V549h-9.3a60.43,60.43,0,0,0,.84,9.74,38.77,38.77,0,0,0,4.25-8l3,1.6a48.82,48.82,0,0,1-6.38,10.94,31.85,31.85,0,0,0,2,5.77,25,25,0,0,0,1.31,2.53.6.6,0,0,0,.44.27c.52,0,1-2.09,1.42-6.25ZM156.87,570a29.9,29.9,0,0,1-3.59,7.73l-2.94-1.86a28.87,28.87,0,0,0,3.66-7.4Zm14.53-15.8H157.32v-3H171.4Zm-.33,18.88a9.12,9.12,0,0,1-.78,3.66,3.41,3.41,0,0,1-1.56,1.67,10.07,10.07,0,0,1-3.55.41c-1.38,0-2.69,0-3.92-.13a3.83,3.83,0,0,1-2.64-1,3.48,3.48,0,0,1-.79-2.45v-7.32h3.45v6.5c0,.69.37,1,1.09,1l2.85.09a2.17,2.17,0,0,0,1.85-.65,8.69,8.69,0,0,0,.72-3.48Zm-.51-7.24H158.2v-9.57h12.36Zm-3.45-3.07v-3.41h-5.46v3.41Zm.43,7.89-2.95,1.47a14.58,14.58,0,0,0-2.73-4.27l2.91-1.43A13.19,13.19,0,0,1,167.54,570.63Zm9.67,5.38-2.85,1.77a31.87,31.87,0,0,0-3.2-5.91l2.81-1.62A25.54,25.54,0,0,1,177.21,576Z" transform="translate(0 3.58)"/><rect class="cls-20" x="54.22" y="609.82" width="430.98" height="26.52" rx="4.72"/><path class="cls-24" d="M477.19,635.24h-415A10.58,10.58,0,0,1,51.8,624.55V614.44a10.58,10.58,0,0,1,10.43-10.7h415a10.59,10.59,0,0,1,10.44,10.7v10.11A10.59,10.59,0,0,1,477.19,635.24Zm-415-26.52a5.67,5.67,0,0,0-5.59,5.72v10.11a5.66,5.66,0,0,0,5.59,5.71h415a5.66,5.66,0,0,0,5.59-5.71V614.44a5.66,5.66,0,0,0-5.59-5.72Z" transform="translate(0 3.58)"/><rect class="cls-31" x="54.22" y="609.82" width="302.83" height="26.52" rx="4.72"/><path class="cls-24" d="M349.05,635.24H62.23A10.58,10.58,0,0,1,51.8,624.55V614.44a10.58,10.58,0,0,1,10.43-10.7H349.05a10.58,10.58,0,0,1,10.43,10.7v10.11A10.58,10.58,0,0,1,349.05,635.24Z" transform="translate(0 3.58)"/><path class="cls-32" d="M62.23,608.72a5.67,5.67,0,0,0-5.59,5.72v10.11a5.66,5.66,0,0,0,5.59,5.71H349.05a5.66,5.66,0,0,0,5.58-5.71V614.44a5.66,5.66,0,0,0-5.58-5.72Z" transform="translate(0 3.58)"/></g><g id="Layer_2" data-name="Layer 2"><rect class="cls-33" y="1.58" width="1242" height="2210"/></g><g id="Layer_5" data-name="Layer 5"><text class="cls-34" transform="translate(526.29 284.03)">狂野</text><path class="cls-24" d="M689.25,243.48,670.9,270a5.45,5.45,0,0,0,4.48,8.54h36.69a5.45,5.45,0,0,0,4.49-8.54l-18.35-26.56A5.44,5.44,0,0,0,689.25,243.48Z" transform="translate(0 3.58)"/><rect class="cls-35" x="31" y="524.87" width="1188" height="546.1" rx="38.87"/><text class="cls-36" transform="translate(49.69 718.33)">狂野</text><rect class="cls-20" x="176.93" y="684.79" width="954.9" height="38.15" rx="4.72"/><path class="cls-24" d="M1123.24,722.94H185.51c-6.17,0-11.18-6.91-11.18-15.39V693c0-8.49,5-15.4,11.18-15.4h937.73c6.17,0,11.18,6.91,11.18,15.4v14.52C1134.42,716,1129.41,722.94,1123.24,722.94ZM185.51,684.8c-3.3,0-6,3.69-6,8.23v14.52c0,4.53,2.69,8.22,6,8.22h937.73c3.3,0,6-3.69,6-8.22V693c0-4.54-2.69-8.23-6-8.23Z" transform="translate(0 3.58)"/><rect class="cls-37" x="176.93" y="684.79" width="857.12" height="38.15" rx="4.72"/><path class="cls-24" d="M1025.45,722.94H185.51c-6.17,0-11.18-6.91-11.18-15.39V693c0-8.49,5-15.4,11.18-15.4h839.94c6.17,0,11.19,6.91,11.19,15.4v14.52C1036.64,716,1031.62,722.94,1025.45,722.94ZM185.51,684.8c-3.3,0-6,3.69-6,8.23v14.52c0,4.53,2.69,8.22,6,8.22h839.94c3.31,0,6-3.69,6-8.22V693c0-4.54-2.69-8.23-6-8.23Z" transform="translate(0 3.58)"/><text class="cls-36" transform="translate(49.69 624.29)">浪漫</text><rect class="cls-20" x="176.93" y="590.75" width="954.9" height="38.15" rx="4.72"/><path class="cls-24" d="M1123.24,628.9H185.51c-6.17,0-11.18-6.91-11.18-15.4V599c0-8.48,5-15.39,11.18-15.39h937.73c6.17,0,11.18,6.91,11.18,15.39V613.5C1134.42,622,1129.41,628.9,1123.24,628.9ZM185.51,590.76c-3.3,0-6,3.69-6,8.22V613.5c0,4.53,2.69,8.23,6,8.23h937.73c3.3,0,6-3.7,6-8.23V599c0-4.53-2.69-8.22-6-8.22Z" transform="translate(0 3.58)"/><rect class="cls-38" x="176.93" y="590.75" width="786.53" height="38.15" rx="4.72"/><path class="cls-24" d="M954.86,628.9H185.51c-6.17,0-11.18-6.91-11.18-15.4V599c0-8.48,5-15.39,11.18-15.39H954.86c6.17,0,11.2,6.91,11.2,15.39V613.5C966.06,622,961,628.9,954.86,628.9ZM185.51,590.76c-3.3,0-6,3.69-6,8.22V613.5c0,4.53,2.69,8.23,6,8.23H954.86c3.31,0,6-3.7,6-8.23V599c0-4.53-2.69-8.22-6-8.22Z" transform="translate(0 3.58)"/><text class="cls-36" transform="translate(49.69 812.38)">睿智</text><rect class="cls-20" x="176.93" y="778.84" width="954.9" height="38.15" rx="4.72"/><path class="cls-24" d="M1123.24,817H185.51c-6.17,0-11.18-6.91-11.18-15.4V787.07c0-8.49,5-15.39,11.18-15.39h937.73c6.17,0,11.18,6.9,11.18,15.39v14.52C1134.42,810.08,1129.41,817,1123.24,817ZM185.51,778.84c-3.3,0-6,3.7-6,8.23v14.52c0,4.53,2.69,8.23,6,8.23h937.73c3.3,0,6-3.7,6-8.23V787.07c0-4.53-2.69-8.23-6-8.23Z" transform="translate(0 3.58)"/><rect class="cls-39" x="176.93" y="778.84" width="607.98" height="38.15" rx="4.72"/><path class="cls-24" d="M776.32,817H185.51c-6.17,0-11.18-6.91-11.18-15.4V787.07c0-8.49,5-15.39,11.18-15.39H776.32c6.17,0,11.18,6.9,11.18,15.39v14.52C787.5,810.08,782.49,817,776.32,817ZM185.51,778.84c-3.3,0-6,3.7-6,8.23v14.52c0,4.53,2.69,8.23,6,8.23H776.32c3.3,0,6-3.7,6-8.23V787.07c0-4.53-2.69-8.23-6-8.23Z" transform="translate(0 3.58)"/><text class="cls-36" transform="translate(49.69 906.42)">活力</text><rect class="cls-20" x="176.93" y="872.88" width="954.9" height="38.15" rx="4.72"/><path class="cls-24" d="M1123.24,911H185.51c-6.17,0-11.18-6.91-11.18-15.39V881.12c0-8.49,5-15.4,11.18-15.4h937.73c6.17,0,11.18,6.91,11.18,15.4v14.52C1134.42,904.12,1129.41,911,1123.24,911ZM185.51,872.89c-3.3,0-6,3.7-6,8.23v14.52c0,4.53,2.69,8.22,6,8.22h937.73c3.3,0,6-3.69,6-8.22V881.12c0-4.53-2.69-8.23-6-8.23Z" transform="translate(0 3.58)"/><rect class="cls-40" x="176.93" y="872.88" width="477.45" height="38.15" rx="4.72"/><path class="cls-24" d="M645.79,911H185.51c-6.17,0-11.18-6.91-11.18-15.39V881.12c0-8.49,5-15.4,11.18-15.4H645.79c6.17,0,11.18,6.91,11.18,15.4v14.52C657,904.12,652,911,645.79,911ZM185.51,872.89c-3.3,0-6,3.7-6,8.23v14.52c0,4.53,2.69,8.22,6,8.22H645.79c3.3,0,6-3.69,6-8.22V881.12c0-4.53-2.68-8.23-6-8.23Z" transform="translate(0 3.58)"/><text class="cls-36" transform="translate(49.69 1000.47)">佛系</text><rect class="cls-20" x="176.93" y="966.93" width="954.9" height="38.15" rx="4.72"/><path class="cls-24" d="M1123.24,1005.08H185.51c-6.17,0-11.18-6.91-11.18-15.4V975.16c0-8.48,5-15.39,11.18-15.39h937.73c6.17,0,11.18,6.91,11.18,15.39v14.52C1134.42,998.17,1129.41,1005.08,1123.24,1005.08ZM185.51,966.94c-3.3,0-6,3.69-6,8.22v14.52c0,4.54,2.69,8.23,6,8.23h937.73c3.3,0,6-3.69,6-8.23V975.16c0-4.53-2.69-8.22-6-8.22Z" transform="translate(0 3.58)"/><rect class="cls-41" x="176.93" y="966.93" width="477.45" height="38.15" rx="4.72"/><path class="cls-24" d="M645.79,1005.08H185.51c-6.17,0-11.18-6.91-11.18-15.4V975.16c0-8.48,5-15.39,11.18-15.39H645.79c6.17,0,11.18,6.91,11.18,15.39v14.52C657,998.17,652,1005.08,645.79,1005.08ZM185.51,966.94c-3.3,0-6,3.69-6,8.22v14.52c0,4.54,2.69,8.23,6,8.23H645.79c3.3,0,6-3.69,6-8.23V975.16c0-4.53-2.68-8.22-6-8.22Z" transform="translate(0 3.58)"/><path class="cls-42" d="M390.09,305.94h404c4.09-19.46,9.68-31.2,14.94-50.94,2.59,21.1,7.41,31.79,12.95,50.94h29.89c31.52,0,57.32,23.17,57.32,51.49v80.08c0,28.32-25.8,51.49-57.32,51.49H390.09c-31.52,0-57.32-23.17-57.32-51.49V357.43C332.77,329.11,358.57,305.94,390.09,305.94Z" transform="translate(0 3.58)"/><text class="cls-43" transform="translate(391.81 382.9)">點擊按鈕檢視寵物性格<tspan x="0" y="61.55">透過聊天可改變寵物性格</tspan></text></g><g id="Layer_3" data-name="Layer 3"><path class="cls-44" d="M585.22,1448.83c-5.78,7.63-15.58,41.16-15.89,46.23s10.57,10,17.88,13.08c11.06,4.65,7,20.33-5.27,21.12-10.9.7-39.14,2.39-39.09-13.79.07-19.84-17.31-17.37-18.66-29.07s-6.22-35.59-9.73-56.38c-1.23-7.29-2.1-2.61-3.47-5.58" transform="translate(0 3.58)"/><path class="cls-24" d="M570.92,1534.56c-11.2,0-21.86-1.55-28-7.51a15.67,15.67,0,0,1-4.8-11.6c0-8.84-3.86-11.55-8.78-15-4-2.8-9-6.31-9.85-13.48s-3-19-5.32-31.61c-1.47-8-3-16.5-4.37-24.5-.07-.41-.14-.76-.2-1a6.79,6.79,0,0,1-2.89-3.27l8.64-4.19a3.72,3.72,0,0,0-3-1.66h.09c5.32,0,6.25,5.53,6.75,8.51,1.34,8,2.88,16.35,4.35,24.36,2.35,12.81,4.57,24.91,5.41,32.28.29,2.49,1.81,3.77,5.75,6.53,5.49,3.83,13,9.07,13,23.11a5.69,5.69,0,0,0,1.8,4.45c6.34,6.11,25.81,4.84,32.21,4.45a7.4,7.4,0,0,0,7.18-6c.23-1.48.11-4.21-3.42-5.69-10.35-4.34-21.35-9.66-20.84-17.92.37-6.06,10.44-40.41,16.89-48.92l7.54,6c-4.9,6.48-14.62,39-14.9,43.53.23.21,2.15,2.89,14.92,8.24a14.79,14.79,0,0,1,9.23,16.35,17,17,0,0,1-16,14.18C578.51,1534.38,574.68,1534.56,570.92,1534.56Z" transform="translate(0 3.58)"/><path class="cls-44" d="M781,1342.81s14.32-23.59,4.69-29.74-16.88,5.19-19.39,27.1" transform="translate(0 3.58)"/><path class="cls-24" d="M785,1345.4l-8.12-5.17c5.45-9,9.35-21,6.22-23-2.12-1.37-3.1-.9-3.51-.68-2.85,1.42-6.82,8.6-8.61,24.2l-9.48-1.13c1.38-12.1,4.93-27.44,14-31.88,2.79-1.36,7.25-2.3,12.7,1.18C801.18,1317.24,787.82,1340.76,785,1345.4Z" transform="translate(0 3.58)"/><path class="cls-44" d="M704.12,1312.93c11.54,7.09,34.6,16.81,50.8,20.07s36.79,10.23,47.3,36.74,35,57.2,41.18,65.57,20.14,28.37,18.83,37.21-9.64,18.13-40.3,3.72-48.61-22.33-69.64-21.86a221.19,221.19,0,0,1-50.36-5c-9.35-2.17-31.25-7.75-31.54,11.16s-4.21,57.12,1.48,61.07,10.53,6.16,20.92,10.39c6,2.46,7.6,17.44-7.73,19.3s-39.2,4.42-45.77-13.48-12-36.74-15.33-40.46-16.39-35-34.82-35.68c-19.93-.7-65.88-2.07-73.18,7.07s-20.33,48.37-20.47,54.26,15.69,14.57,30.58,19.69,7.67,20.69-3.5,22.09-55,11.62-62.23-10.47-30.46-39.41-29.49-53.1c1.2-17,3.38-54.1-16.5-66.57-12.12-7.6-21.61-6.2-32,0-16.54,9.9-38.77,72.7-112.31,94.1-52,15.13-140.16,7.13-184.81-76.23-16.89-31.54,6.11-35.38,23.57-16.4,28.89,31.42,82,94.73,151.6,44.26,43.22-31.31,40.56-47.44,49.93-75.34,5.8-17.24,25.39-77.63,61.6-91.27s107.85-45.7,133.75-51c29.34-6,68.9-12.28,130.52,14.88C677.54,1295.87,687.61,1302.78,704.12,1312.93Z" transform="translate(0 3.58)"/><path class="cls-24" d="M490.09,1572.88c-14.83,0-29.42-3.49-33.87-17.1-3.22-9.82-10.13-19-16.23-27.19-7.57-10.09-14.1-18.8-13.47-27.65,1-14,3.62-51.13-14.44-62.46-9.66-6-17.38-6-27.52,0-4,2.38-9.26,9.68-15.4,18.14-16.46,22.71-44,60.71-97.91,76.4-61.57,17.89-147.27,1-189.8-78.36-11-20.54-5.57-28.88-1.35-32,7.66-5.76,21.08-1.33,31.89,10.42l3.56,3.89c29.4,32.17,78.58,86,142.37,39.79,34.5-25,38.56-39.41,44.19-59.37,1.21-4.32,2.5-8.87,4.15-13.78l.37-1.13c6.54-19.49,26.44-78.79,63.83-92.88,11.82-4.45,27.41-10.87,44-17.67,34-14,72.61-29.88,90.42-33.55,32.57-6.71,72.38-11.61,133.1,15.16,38.07,16.78,49.65,24,64.32,33l4.09,2.53c11.22,6.88,33.75,16.38,49.41,19.51,17.63,3.55,39.3,11.22,50.49,39.43,9,22.65,29,49.14,37.51,60.45l3.1,4.13c21.36,29.13,20.08,37.72,19.67,40.55-.85,5.64-3.79,10.1-8.29,12.59-8.18,4.51-20.64,2.71-38.12-5.5-29.78-14-47.42-21.88-67.73-21.45a227.48,227.48,0,0,1-51.42-5.07c-6.46-1.51-18.49-4.31-23.56-.24-1.75,1.41-2.63,3.74-2.68,7.12-.07,4.81-.38,10.86-.7,17.27-.65,12.81-1.86,36.63.66,40.41,4.89,3.31,9.26,5.34,19.7,9.59,4.8,1.94,7.73,7.85,6.93,14-1,7.57-6.85,12.74-15.75,13.82-14.82,1.8-42.44,5.15-50.34-16.34-2.13-5.81-4.14-11.71-6-17.16-3.05-8.92-6.84-20-8.47-21.89a38.64,38.64,0,0,1-3.74-6c-5.11-9-15.74-27.83-28-28.25-55.23-2-67.37,2.58-69.67,5.44-6.81,8.53-19.36,47.13-19.49,51.55.65,2.19,10.48,9.48,27.62,15.37,7.76,2.66,12,8.37,11.31,15.27-.75,7.66-7.63,14.44-15.66,15.45-1.28.15-3,.43-5.05.76C510.83,1571.19,500.4,1572.88,490.09,1572.88Zm-91.52-147.8c6,0,11.87,1.94,18,5.81,22.57,14.16,19.76,53.78,18.56,70.69-.39,5.46,5.49,13.31,11.7,21.59,6.52,8.69,13.91,18.55,17.58,29.78,5.22,15.93,38.18,10.59,52.25,8.28,2.17-.35,4-.64,5.34-.82,4.45-.55,7.77-4.32,8.09-7.5s-2.78-5-5.44-6c-5.65-1.94-33.84-12.22-33.54-24,.17-7.06,13.59-47.11,21.46-57,6.21-7.79,29.18-10.3,76.68-8.7,17.08.59,28.89,21.46,35.23,32.67a44.65,44.65,0,0,0,2.67,4.47c2.68,3,5.35,10.64,10.23,24.9,1.84,5.41,3.83,11.24,5.94,17,5.07,13.8,23.92,12.73,41.19,10.63,4.84-.59,7.74-2.76,8.17-6.13.31-2.47-.85-4.34-1.53-4.63-10.92-4.43-15.84-6.73-21.75-10.84-5.69-3.94-5.61-17.62-4.09-47.88.33-6.29.63-12.22.7-16.94.1-6.16,2.12-10.86,6-14,8.36-6.69,22.55-3.38,30.18-1.59a216.26,216.26,0,0,0,50,5c22-.37,40.59,7.71,71.55,22.26,19.16,9,27.25,7.47,30.36,5.76a7.8,7.8,0,0,0,3.83-6.11c.55-3.73-3.89-14.59-18-33.85l-3-4c-8.76-11.6-29.26-38.75-38.7-62.54-9.56-24.11-27.67-30.74-44.11-34.05-17.09-3.42-40.4-13.36-52.2-20.62l-4.11-2.54c-14.38-8.89-25.75-15.92-63.27-32.45-58.42-25.78-96.67-21.07-127.95-14.61-17,3.51-55.22,19.21-88.91,33.07-16.63,6.84-32.31,13.3-44.19,17.76-33.52,12.64-52.41,68.93-58.62,87.43l-.38,1.14c-1.59,4.75-2.84,9.16-4,13.35-5.88,20.88-10.53,37.37-47.5,64.16-70,50.72-124.46-8.92-153.72-41l-3.55-3.86c-8.64-9.4-17.61-11.47-20.46-9.33-2.54,1.9-2.34,9,3.85,20.55,46.33,86.48,137.88,86.31,179.83,74.07,51-14.85,76.48-49.93,93.31-73.14,7.25-10,12.48-17.23,18-20.51C386.61,1427,392.62,1425.08,398.57,1425.08Z" transform="translate(0 3.58)"/><path class="cls-24" d="M760.42,1417.61a7.89,7.89,0,0,1-1.18-.08,8.34,8.34,0,0,1-5.63-3.49,9.13,9.13,0,0,1,1.65-12.25,8.22,8.22,0,0,1,6.3-1.75,8.32,8.32,0,0,1,5.65,3.52,9.09,9.09,0,0,1-1.67,12.24A8.17,8.17,0,0,1,760.42,1417.61Zm-.2-8.85,0,0Z" transform="translate(0 3.58)"/><path class="cls-24" d="M703.13,1384.23c-11.3-14.43-23.86-34.74-19.49-49.57,1.23-4.2,4.43-9.76,12.68-12.46a13.28,13.28,0,0,1,11.51,1.52c12.84,8.22,17.57,39,18.07,42.47l-9.45,1.41c-1.64-11.42-6.8-31.18-13.68-35.58a3.84,3.84,0,0,0-3.55-.49c-4.65,1.52-5.9,4.13-6.44,6-2.4,8.15,4.26,23.33,17.8,40.62Z" transform="translate(0 3.58)"/><path class="cls-24" d="M862.73,1465.72c2.55,3.93-.22,10.66-6.2,15s-12.88,4.74-15.43.81.22-10.66,6.19-15S860.17,1461.79,862.73,1465.72Z" transform="translate(0 3.58)"/><path class="cls-44" d="M692.79,1448.7s19,39.19,38,57.33c8.11,7.76,3.12,17.19,17.3,20,16.67,3.27,28.5,2.59,33.55-6.26,3.35-5.87-10.9-12.92-16.41-20.1-6.44-8.38-7-43.77-7-43.77Z" transform="translate(0 3.58)"/><path class="cls-24" d="M763.62,1532.71a86.53,86.53,0,0,1-16.42-1.9c-11.33-2.23-13.63-8.63-15.48-13.78-1-2.8-1.87-5.21-4.19-7.42-19.38-18.53-38.22-57.1-39-58.74l-3.88-8,78.36,8.59.06,4.34c.21,14,2.18,35.93,5.93,40.82a49.36,49.36,0,0,0,7.24,6.75c6.13,5.09,13.77,11.41,9.54,18.84C781.16,1530.3,772.73,1532.71,763.62,1532.71Zm-62.42-78.16c6.53,12.23,19.84,35.46,32.85,47.9,4,3.82,5.45,7.9,6.64,11.2,1.57,4.37,2.28,6.36,8.31,7.54,16.33,3.22,25.13,2,28.52-3.91-.54-.68-4.78-4.18-7.3-6.27-3.17-2.64-6.45-5.35-8.75-8.32-6-7.84-7.49-31.62-7.86-42.41Z" transform="translate(0 3.58)"/><path class="cls-45" d="M685.54,1446.83,672.4,1450a4,4,0,0,1-3.95-1.32c-8.23-9.58-47.34-50.15-75,8.87a4.07,4.07,0,0,1-3.38,2.41s-44,2.07-44.37,2l-1.61-.2c-2.43-.6-2.42-4.6-1.49-7,2.07-5.34,3.73-12.86,1.44-26.38-5-29.42-78.07-84.25-117.23-26.19-8.19,12.15-5.94,21.15-8.6,27.74-1.8,4.48-5.85,1.9-12.42.05-2.91-.82-7.42-2.13-6.73-5.18,4.71-20.61,14.32-72.2-19.86-107.93a4.3,4.3,0,0,1,1.64-7l78.83-31.42s27.55-9.92,36.76-13.17c.23-.08,26.2-7.64,43.2-7.31.25,0,24.17-.33,37.6,1.79.28,0,21.92,4.48,29,6.73,2.61.82,23,8.23,23,8.23,2.57.92,2.3,5.64.69,7.93C621.12,1295,606.65,1337,687.78,1440A4.29,4.29,0,0,1,685.54,1446.83Z" transform="translate(0 3.58)"/><path class="cls-24" d="M545.86,1466.74a4.3,4.3,0,0,1-1.28-.1l-1.11-.12a7.33,7.33,0,0,1-5.2-3.89c-1.63-3.22-1.09-7.27-.13-9.75,1.68-4.36,3.34-11,1.18-23.75-2.39-14.15-26.69-39.82-55.34-46.27-15.19-3.41-36.79-2.39-53.27,22-4.73,7-5.5,12.83-6.17,18a35.45,35.45,0,0,1-1.93,8.86c-3.12,7.76-10.38,5.39-14.71,4-1-.35-2.18-.72-3.4-1.07-3.25-.92-11.84-3.38-10.11-11,10.27-45,4-79.74-18.61-103.4a9.22,9.22,0,0,1-2.3-8.56,9,9,0,0,1,5.85-6.53s78-31.07,78.57-31.32c.17,0,27.74-10,37-13.23.19-.07,26.83-7.75,44.85-7.58,4.14-.09,25.51-.14,38.23,1.84.65.1,22.39,4.59,29.72,6.89,2.62.83,23.15,8.3,23.15,8.3a7.51,7.51,0,0,1,4.63,5.08,12.64,12.64,0,0,1-1.65,10.33c-6.82,9.69-22.82,49.28,57.72,151.51a9.33,9.33,0,0,1,1.49,8.76,8.87,8.87,0,0,1-6.38,5.9l-13.12,3.14a8.82,8.82,0,0,1-8.64-2.87c-4.66-5.45-21.26-22.88-38.45-20.61-10.91,1.54-20.55,11.09-28.66,28.37a8.93,8.93,0,0,1-7.34,5.17C557,1466.37,548.42,1466.74,545.86,1466.74Zm-74.31-95.11a66.77,66.77,0,0,1,14.48,1.66c31.34,7.07,59.44,34.93,62.7,54.18,2.56,15.16.43,23.46-1.71,29a3.21,3.21,0,0,0-.15.53c4.12-.18,27.35-1.25,43-2,8.88-20.07,21-31.45,35.27-33.47,21.29-3.09,39.92,15.67,46.93,23.85l11.73-3.15C601.61,1338.32,616,1293.93,626,1279.68a2.7,2.7,0,0,0,.29-.91c-4.53-1.65-19.28-7-21.47-7.69-6.61-2.1-27.23-6.37-28.48-6.6-12.13-1.9-34.15-1.72-36.61-1.72-16.38.17-41.72,7-42,7.11-9,3.19-36.57,13.1-36.57,13.1h0l-78.68,31.36c24.82,24.94,32,62.22,21.51,109.87a27.7,27.7,0,0,0,3,1c1.35.37,2.61.79,3.77,1.18s2.31.75,3.18,1a32.92,32.92,0,0,0,1.08-5.76c.73-5.6,1.74-13.28,7.78-22.23C435.11,1381.15,452.06,1371.63,471.55,1371.63Zm156.05-92.39h0Z" transform="translate(0 3.58)"/></g></svg>