<svg xmlns="http://www.w3.org/2000/svg" xmlns:xlink="http://www.w3.org/1999/xlink" viewBox="1 4 1244.5 2000"><defs><style>.cls-1,.cls-8{fill:none;}.cls-2{clip-path:url(#clip-path);}.cls-3{clip-path:url(#clip-path-2);}.cls-4{fill:#c4ecf7;}.cls-5{fill:#738e6c;}.cls-10,.cls-11,.cls-12,.cls-13,.cls-14,.cls-15,.cls-16,.cls-17,.cls-18,.cls-21,.cls-22,.cls-5,.cls-6,.cls-7,.cls-8,.cls-9{stroke:#47280a;}.cls-15,.cls-17,.cls-21,.cls-40,.cls-5{stroke-miterlimit:10;}.cls-14,.cls-15,.cls-16,.cls-17,.cls-18,.cls-21,.cls-22,.cls-5{stroke-width:4px;}.cls-6{fill:#666;}.cls-10,.cls-11,.cls-12,.cls-13,.cls-14,.cls-16,.cls-18,.cls-19,.cls-22,.cls-6,.cls-7,.cls-8,.cls-9{stroke-linecap:round;stroke-linejoin:round;}.cls-10,.cls-11,.cls-12,.cls-6,.cls-7,.cls-8,.cls-9{stroke-width:3px;}.cls-7{fill:#ff3f44;}.cls-9{fill:#f9f9f9;}.cls-10{fill:#8c8c8c;}.cls-11{fill:#d3d3d3;}.cls-12{fill:#e5e5e5;}.cls-13{fill:#ceb2b5;stroke-width:2px;}.cls-14{fill:#47823f;}.cls-15{fill:#c6d89e;}.cls-16{fill:#e5d698;}.cls-17{fill:#adce74;}.cls-18{fill:#d8ca8f;}.cls-19,.cls-22{fill:#96bc5e;}.cls-19{stroke:#603813;stroke-width:5px;}.cls-20{fill:#fff;}.cls-21{fill:#bf9a60;}.cls-23{fill:#eeedbb;}.cls-24,.cls-26,.cls-29,.cls-32,.cls-38,.cls-39{fill:#442811;}.cls-25{fill:#e4e4e3;}.cls-26{font-size:62.49px;letter-spacing:0.1em;}.cls-26,.cls-29,.cls-32,.cls-38,.cls-39{font-family:MicrosoftJhengHeiBold, Microsoft JhengHei;}.cls-27{fill:#d8bc78;}.cls-28{fill:#412915;}.cls-29{font-size:42.76px;letter-spacing:0.1em;}.cls-30{fill:#efb262;}.cls-31{fill:#93bec9;}.cls-32{font-size:59.2px;}.cls-33{fill:#d94343;}.cls-34{fill:#494949;opacity:0.75;}.cls-35{fill:#f5debf;}.cls-36{fill:#d67f5a;}.cls-37{fill:#854f24;}.cls-38,.cls-39{font-size:55.43px;}.cls-38{letter-spacing:0.1em;}.cls-39{letter-spacing:0.1em;}.cls-40{fill:#ffebed;stroke:#442811;stroke-width:7px;}</style><clipPath id="clip-path" transform="translate(0 3.58)"><rect class="cls-1" x="3" width="1239" height="2208"/></clipPath><clipPath id="clip-path-2" transform="translate(0 3.58)"><rect class="cls-1" x="5.01" y="1" width="1236.99" height="2634.38"/></clipPath></defs><title>教02</title><g id="Layer_2" data-name="Layer 2"><g class="cls-2"><g class="cls-3"><g id="圖層_8" data-name="圖層 8"><path class="cls-4" d="M1238.39,417.49V.36H4.89V985.94H1238.71V420.12A13.06,13.06,0,0,1,1238.39,417.49Z" transform="translate(0 3.58)"/></g><g id="圖層_1" data-name="圖層 1"><path class="cls-5" d="M982.75,867.16c-6.74-1.15-76.72-25-91.68-26.29C876,839.56,638.23,846,622.79,838.24c-15.28-7.72-22.67-15.61-30.72-16.59-16.76-2-27.44,9.69-40.09,9.53-12.49-.17-35.65-18.9-53.4-21s-48.3,11.33-63.25,9.86-87.07-33.19-110.89-35.16-107.94,7.72-118.79,7.39-53.39-16.76-65.06-17.74c-11.66-1.15-55,14.46-66.86,13.14-7.72-.82-43.21-10-69.66-16.59v56.84l982.29,69.66C986.2,897.55,989.32,868.31,982.75,867.16Z" transform="translate(0 3.58)"/><path class="cls-6" d="M149.14,669.19s80-17.25,96.27-19.06,44.36,2.63,62.1,56.35c-22.34,1-169.38,23.82-169.38,23.82Z" transform="translate(0 3.58)"/><path class="cls-7" d="M312,804.07s-4.76-55-7.06-86.25c-8.55-27.77-29.74-64.4-55-60.79s-67.85,11.5-96.61,16.1c-28.91,4.6-47,57-47,57L98.7,804.07Z" transform="translate(0 3.58)"/><line class="cls-8" x1="200.56" y1="732.41" x2="196.78" y2="807.65"/><path class="cls-8" d="M253.79,656.7c-46.66-2-53.23,56.19-53.23,56.19" transform="translate(0 3.58)"/><polygon class="cls-9" points="238.51 677.86 238.51 689.2 270.88 690.19 269.07 679.01 238.51 677.86"/><polygon class="cls-9" points="245.08 689.36 243.93 710.07 263.65 710.07 263.65 690.02 245.08 689.36"/><polygon class="cls-9" points="222.74 748.02 216.33 754.92 253.79 812.42 259.21 807.65 222.74 748.02"/><polygon class="cls-9" points="287.63 750.32 293.22 757.87 256.91 818 249.03 816.36 287.63 750.32"/><polygon class="cls-9" points="211.24 809.95 213.87 745.06 221.59 745.06 219.62 809.95 211.24 809.95"/><polygon class="cls-9" points="251.49 812.58 254.12 747.85 261.84 747.85 259.87 812.58 251.49 812.58"/><polygon class="cls-9" points="289.77 811.1 288.29 747.03 295.85 747.03 298.31 811.1 289.77 811.1"/><polygon class="cls-9" points="212.88 743.09 212.88 750.81 297.33 754.92 297 747.03 212.88 743.09"/><polygon class="cls-9" points="197.28 716.47 308.99 722.22 308.99 736.68 201.55 732.24 101.49 749.66 104.12 734.38 197.28 716.47"/><polygon class="cls-9" points="117.43 764.61 116.61 778.74 126.14 778.25 128.44 763.13 117.43 764.61"/><polygon class="cls-9" points="161.46 756.23 160.64 774.79 171.97 773.97 173.62 754.1 161.46 756.23"/><polygon class="cls-9" points="114.97 759.02 113.49 765.6 132.71 762.8 134.19 754.92 114.97 759.02"/><polygon class="cls-9" points="156.86 750.81 156.86 758.37 178.38 755.25 179.86 746.54 156.86 750.81"/><path class="cls-10" d="M245.41,650.13S175.59,660.48,144.7,670.5c-31,10-43.54,55-43.54,55l94-17.25S204.5,651.44,245.41,650.13Z" transform="translate(0 3.58)"/><polygon class="cls-9" points="353.84 701.19 336.43 827.7 348.92 833.45 367.15 697.91 353.84 701.19"/><polygon class="cls-9" points="399.02 692.32 387.69 693.47 417.92 831.8 433.2 834.1 399.02 692.32"/><polygon class="cls-11" points="372.9 693.64 377.5 821.95 389.82 825.56 381.12 692.65 372.9 693.64"/><path class="cls-9" d="M346.45,648.49c-15.44,5.58-15.61,52.73,5.42,50.43s44-6.4,60.63-8.54,8.05-54.54-9.7-52.74C384.89,639.78,346.45,648.49,346.45,648.49Z" transform="translate(0 3.58)"/><path class="cls-9" d="M396.07,650.46s-7.89,17.25,3.45,32.36" transform="translate(0 3.58)"/><polygon class="cls-12" points="358.44 717.79 357.79 724.85 402.31 730.44 400.83 717.62 358.44 717.79"/><polygon class="cls-12" points="356.31 742.1 353.19 750.32 406.42 760.5 404.12 747.36 356.31 742.1"/><polygon class="cls-12" points="351.71 770.03 350.89 778.41 411.67 785.64 410.52 774.79 351.71 770.03"/><polygon class="cls-12" points="349.08 796.15 348.59 802.23 419.4 813.08 416.6 801.25 349.08 796.15"/><polygon class="cls-13" points="426.46 639.09 419.4 659.13 423.01 664.06 431.23 643.03 426.46 639.09"/><polygon class="cls-13" points="422.02 670.14 419.56 678.68 428.6 694.46 431.72 684.76 422.02 670.14"/><path class="cls-13" d="M408.39,652.92c-4.93,1.15-4.77,23.17,2.46,23.66,7.23.66,20.87-3.94,18.9-15.11C427.77,650.13,416,651.12,408.39,652.92Z" transform="translate(0 3.58)"/><path class="cls-13" d="M404.77,644.54s7.89,14.3,9,14.46,3.12-.82,3.78-3.12-8.38-19.06-8.38-19.06Z" transform="translate(0 3.58)"/><polygon class="cls-13" points="401.49 653.38 412.66 636.46 384.73 579.78 363.54 605.08 401.49 653.38"/><polygon class="cls-13" points="430.9 676.55 424.16 692.32 446.34 731.75 454.06 706.12 430.9 676.55"/><polygon class="cls-13" points="423.67 638.76 430.73 653.71 449.79 610.67 440.26 591.28 423.67 638.76"/><path class="cls-13" d="M404.61,687.75s6.24-14.62,7.56-15.28,3.78,4.77,3.78,4.77L409.54,695Z" transform="translate(0 3.58)"/><polygon class="cls-13" points="402.14 681.48 414.96 699.55 396.39 758.2 381.77 732.9 402.14 681.48"/><path class="cls-14" d="M950.55,752.15c.16-2.79-2.47-4.76-4.93-5.58s-5.26-1-7.23-2.79c-1-1-1.81-2.3-3-2.63-1.31-.33-2.63.49-3.94.65-1.81.17-3.45-1-5.26-1.47s-4.27.32-4.1,2.3a23.06,23.06,0,0,0-12.82-5.92,5.85,5.85,0,0,0-4.11.66c-1,.66-1.64,1.81-2.62,2.3-1.81.82-3.78-.17-5.76,0-3,.33-4.92,3.28-7.39,5.09-6.24,4.6-14.95,1.32-22.34,3-7.07,1.64-13.47,7.72-20.54,6.57-2.63-.49-5.75-2-8-.33-1.48,1-2,3-3.28,4.11-2.3,1.81-5.43.66-8.22,0s-6.73.66-6.41,3.61a146.06,146.06,0,0,1-20.7.5,3.58,3.58,0,0,0-2.63.65c-1,1.32.17,3.29-.49,4.93-.49,1.48-2.46,1.81-3.94,2.3-4.27,1.48-6.74,6.24-9.37,10.19a40.81,40.81,0,0,1-11.33,11.17,8,8,0,0,0-2.3,1.81c-2,2.95,1.15,6.57,3.78,8.54-4.93,2.3-5.26,11-.5,13.8-4.27,4.11-4.43,11.83-1.15,16.76,3.29,5.09,9.2,7.56,15.12,7.56a10.32,10.32,0,0,0-2.3,7.22c.82,1.65,3.28.5,4.6-.49,1.48-1.15,4.27-1.48,4.43.33,1.15-3.61,5.59-4.44,9.21-3.61,3.45.82,7.06,2.46,10.51,1.47-1,2,1.64,4.11,3.61,3.62,2.14-.33,3.78-2,5.75-2.79,6.25-2.47,12.49,4.76,19.23,4.6,2.3,0,4.43-1,6.73-.83,3.45.17,6.41,2.63,9.7,3.29,4.76.82,9.36-2,13.8-3.94,8.87-3.78,18.56-4,28.09-4,3.45,0,7.23,0,10,2,1.15-2.63,4.27-3.78,7.07-3.29s5.09,2.3,7.39,3.94c-.33-2.46,1.81-4.76,4.11-5.58s4.76-.33,7.22-.17c10.68,1.15,21.36-.49,32-2,9.53-1.31,19.72-3.12,26.45-10.18,1.65-1.81,3.12-3.78,5.1-5.1,1.64-1,3.45-1.64,4.92-3,3.13-3,2-8.37.66-12.48" transform="translate(0 3.58)"/><path class="cls-14" d="M1242,840.71a.63.63,0,0,0-.16-.5h.16V746.9c-2.79-2.63-5.59-5.1-7.06-8.87-1.81-4.44-1.32-9.53-2.14-14.3-1.48-7.23-5.09-6.24-9.53-9-3.78-2.47-5.59-7.23-10-9a12.22,12.22,0,0,0-14,3.94c.33-3.61-2-7.23-5.09-8.05-3.12-.65-6.41,1.65-7.39,5.1-1.15-7.23-8-12.33-14.29-10.52a32.2,32.2,0,0,1-5.59,2c-2.14.33-4.27-.65-6.41-1.48-6.08-2.62-12.16-5.42-18.4-8a7.75,7.75,0,0,0-5.42-.16,5.25,5.25,0,0,0-1.31-4.11c-1.65-1.81-4.28-2.13-6.58-2.3-10.51-1.15-21.19-2.13-31.7-3.28-3.78-.33-8.55-.17-10,3.94a4.43,4.43,0,0,0-7.22,1.15c-6.74-8.38-20.38-6.9-25.47,3a22.38,22.38,0,0,0-22.67,0,23.8,23.8,0,0,1-20.87,3.28c-4.27-1.31-8.38-3.94-12.65-4.6-4.43-.65-9.69,1.48-11,6.41-5.26-6.41-16.11-3.12-18.08,5.26-1.8-.5-3.45-.82-5.25-1.32-.83,2-1.65,4.11-2.47,6.08a24.88,24.88,0,0,0-20.37,3c-1.81-2-3.94-3.94-6.41-4.11a4.39,4.39,0,0,0-4.6,5.09,7.09,7.09,0,0,0-6.57-4.1c1.64,3.94-2.63,7.23-5.91,9.36-3.29,2-6.41,7.72-3.13,9.86-8,3.28-17.74,10.19-15.44,19.55-7.39-2.79-15.61,1.31-20.7,7.89s-7.89,15.11-10.35,23.49c-3.12-.49-6.08,2.46-7.23,5.91s-.82,7.23-.49,10.85l-15,1c3.12,1.48,5.25,5.26,5.25,9,0,1.64-.49,3.45-.49,5.09,0,3.94,2,7.39,3.78,10.52,3.94,6.73,8.22,13.63,14.29,17.58s14.79,4.27,19.39-1.81c9.69,5.58,21.36,3.78,31.87,6.9,9.53,2.79,18.4,10,28.43,9.86,8.87-.17,16.75-6.08,25.46-7.89a64,64,0,0,1,12.49-.82c8,.16,16.1.16,23.82,2.3,13.47,3.61,28.75,12.48,40.09,3.28,3.61,4.93,9.2,7.89,14.78,7.73.82-1.48,1.64-2.8,2.47-4.28-.17,7.23,8.21,9.53,14.45,9.53s12.49,0,18.73.17c5.59,0,13.47-3,12.16-9.2,1.31,8.38,10.19,11.83,17.58,11.33,7.39-.65,15-3.61,22-1.31-1-2.3,1.32-5.09,3.62-5.26s4.27,1.15,6.41,2.3c5.75,3,12.15,3.45,18.23,4,10.68.82,21.36,1.64,32,2.62,6.9.5,14,1,20.21-2.13a18.43,18.43,0,0,0,9.2-12.16v-6.24Z" transform="translate(0 3.58)"/><path class="cls-15" d="M889.27,916.12c-.33-4-.82-8-3.45-11-3.78-4.44-10.52-4.77-16.43-4.6C726.13,902.64,586,863.87,445.85,834S158.83,783,20.33,819.84C14.91,821.32,9.49,823,3.9,824.61v185.48c17.26.49,34.51.33,51.76.17,215.22-2.14,430.77-16.43,645.17,2.13,66,5.75,133.56,14.46,198-1.64C895.68,979.2,892.39,947.66,889.27,916.12Z" transform="translate(0 3.58)"/><path class="cls-16" d="M253.46,820.17c7.07,7.07,12.16,16.76,11.83,26.78-.49,12.32-8.87,22.67-14.62,33.68a86.35,86.35,0,0,0-4.77,69.82c2.3,6.25,5.59,12.65,11.34,16.1,4.44,2.8,10,3.45,15.28,4A569.19,569.19,0,0,0,339.39,973c-12.82-9-24.32-20.21-31.88-33.84s-11-30.07-7.39-45.35c2.63-11.17,8.71-21.52,9.53-32.86,1-14.62-6.74-28.42-15.94-39.75-4.27-5.43-8.7-11.34-15.11-14-10.84-4.43-25.14-4.27-38.28-4.93-6.9-.33-7.72,2.14-2.47,6.41C243.11,812.45,248.7,815.41,253.46,820.17Z" transform="translate(0 3.58)"/><path class="cls-17" d="M1242,824.94c-28.26-3-59.47-7.73-110.57-12.33-18.4-1.64-119.93-12.81-138.49-12-22.84,1.15-86.91,1.81-109.26,4.93-93.15,12.81-110.89,10-203.39,24.64-29.41,4.6-242.33,96.93-271.57,102-61.61,10.51-126,25.46-137.35,25.95C174.93,962.28,119.73,939.45,70,930.74c-50.11-8.87-60.79-27.11-65.88-37V2374.2c411.71,28.42,826.22,53.72,1237.93,32.36Z" transform="translate(0 3.58)"/><path class="cls-18" d="M1242,1166c-26-52.41-114.67-198.13-248.9-282.58-56.68-35.65-160.18-77.71-196.66-74.59-12.15,1-70,5.75-78.36,15.61,10.51,2.3,137.34,47.65,203.22,123.88,89.87,104.32,100.88,214.56,104,214.89,40.42,4.6,166.59,20.54,216.7,21.36Z" transform="translate(0 3.58)"/><path class="cls-19" d="M1242,2635.75V1163.54c-10.84-1-19.55-1.81-23.49-2-26.45-1.81-39.93,4.93-64.41,5.42-30.55.66-60.95-3.12-89.21-12.32-58.81-18.9-141-44.85-285.86-38-273,12.81-598.51,19.87-741.61,102.68-9.86,5.75-21.36,11.33-33.35,17.25v1399.1Z" transform="translate(0 3.58)"/><path class="cls-20" d="M1147.2,140.5c-9.52-3.45-17.08,8.05-23.49,15.11s-11.5,15.78-20.7,20c-5.75,2.63-13.31,3.94-15.61,9.36s3.45,11.5,9.86,12.65,13-1.15,18.73-3.61a213,213,0,0,0,42.71-24c4.93-3.61,9.86-7.56,13-12.48,3.13-5.1,4-11.34,1-16.43-4.93-8.22-20.37-8.55-25.79-.66" transform="translate(0 3.58)"/><g id="雲"><path class="cls-20" d="M721.69-3.42A207.9,207.9,0,0,0,704.77,11c-4.11,3.94-8.22,8.05-13.47,10.51-6.74,3.12-14.62,3.29-22,4.11-22.67,2.63-44,12.65-59.47,27.6C604.55,58.35,600,64.1,594.53,69.2,577.12,85,552.8,92.53,530.79,102.71c-22.18,10.19-44.2,25.47-48.63,47.15-.5,2.63-.66,5.75,1,7.89,1.48,1.81,4.11,2.79,6.57,3.45,13.31,4.11,28.42,8.05,40.75,2,11.33-5.75,16.1-18.56,26.78-25.3,14.29-9.2,34.5-5.09,50.93-10.84,13.8-4.77,23.49-16.1,36.14-23.17s27.77-9.69,42.22-13.63c41.08-11.18,77.06-33.35,112.21-55.37C817.8,23,836.86,11,855.75-.79c1.32-.82,2.8-1.64,4.11-2.63Z" transform="translate(0 3.58)"/><path class="cls-20" d="M989.16-3.42c-8.22,5.92-15.94,12.49-24.81,17.74-26.78,15.78-64.73,19.23-81,44-6.24,9.53-8.7,21.53-18.73,27.93-6.07,4-15.93,8.55-12.48,14.46,1,1.81,3,2.79,4.93,3.78,12.65,6.57,28.58,11.66,41.56,5.59,8.55-4.11,13.8-12.33,22-16.93,13.8-7.55,32.53-3.28,47-9.69,10.85-4.76,17.42-14.46,25-22.84,19.22-21.35,47.64-36.14,78-40.74,8.55-1.31,17.42-1.81,25.47-4.93,10.19-3.94,17.74-11.83,26-18.56H989.16Z" transform="translate(0 3.58)"/><path class="cls-20" d="M1238.39,29.44c-13.64,1.15-27.11,3.78-36.31,12.32-7.4,6.9-10.85,16.92-19.22,22.67-11.83,8.22-29.58,5.59-42.39,12.65-5.92,3.12-10.35,8-14.62,12.82-8.22,9.2-16.43,18.4-24.48,27.6-1.48,1.64-3.12,3.61-2.47,5.75.5,1.64,2.14,2.79,3.78,3.61,13.8,7.4,32.7,6.41,45.18-2.46,6.08-4.27,10.68-10,17.25-13.64,11.83-6.4,27-3.78,40.75-4.6,11.5-.65,22.18-3.61,32.69-7.72v-69Z" transform="translate(0 3.58)"/><path class="cls-20" d="M1088.06,206.54c-17.25-1.47-37.62,4.6-51.92,13.31-6.9,4.27-13,9.37-20.2,13.15-6.9,3.45-47,7.22-53.73,11-32.53,18.73-58.81,33-95.45,45.84-5.75,2-7.72,18.07-6.74,23.49,41.08,3.29,75.74-25,113.69-39.43,22.18-8.38,46.33-12.32,68.35-21.19s42.55-25.14,46-46.17" transform="translate(0 3.58)"/><path class="cls-20" d="M463.26,167.28a62.8,62.8,0,0,0-36.8,18.07,13,13,0,0,0-2.79,4.11c-1.32,3.78,1.64,7.88,5.75,9.69s8.71,1.64,13.14,1.15a90.57,90.57,0,0,0,27.77-8.38c4.43-2.13,8.7-4.6,11.66-8.21s4.11-8.55,2-12.49c-3.28-5.91-13-5.91-20-3.94" transform="translate(0 3.58)"/><path class="cls-20" d="M764.24,122.1c-11.17,5.91-22.67,12.32-35.48,13.8-6.41.82-12.82.33-19.23-.16-6.08-.5-13.47-1.65-15.28-6.91-1.8-4.92,3-9.85,7.56-13.14,17.75-12.65,39.1-20.53,60-28.09,6.41-2.3,12.81-4.6,19.71-4.77,8.55-.16,18.57,2.8,24.48-2.63,3.12-2.79,4.11-6.9,7.07-9.69,13.8-12.16,42.38,7.39,18.73,21.52C811.72,104.36,785.44,110.93,764.24,122.1Z" transform="translate(0 3.58)"/></g><path class="cls-20" d="M1238.39,255.67c-.66,0-1.32-.17-2-.17-13.47-1.64-24.31.17-34.17,9.37-7.23,6.73-16.26,9-26.45,8.71-22-.5-43.37,4.1-60,18.56-18.23,16.1-39.59,25.14-62.75,32-13.15,3.94-25.8,9.53-38,15.6-10,4.93-17.57,13-20.86,23.5-1,2.79-.16,8.05,2,9.69,16.1,12.65,38.77,11.83,53.4-2.63,10.18-10,21.68-14,35.65-12.81,15.93,1.15,30.55-2,43.7-11.17,10.51-7.4,22.67-10.85,35.48-12.65,13-2,26-4.11,38.78-7.23a287.59,287.59,0,0,0,35.32-11.83v-59Z" transform="translate(0 3.58)"/><path class="cls-20" d="M911.12,409.77c-3.12-.49-5.26-.16-6.57-1.15-2.8-2-6.41-4.11-7.23-6.73-.66-2.14,1.8-6.08,3.94-7.89,12.16-9.69,26.62-13,41.89-11.5,3.46.33,8.71,3.78,9.21,6.41.65,3.28-1.65,8.87-4.6,11C936.75,408,923.28,409.28,911.12,409.77Z" transform="translate(0 3.58)"/></g><g id="圖層_5" data-name="圖層 5"><path class="cls-21" d="M1242,1113.43c-18.73,0-60-.49-76.72-.16-20,.32-129.63-3.29-145.07-2.63s-117.31-1.65-134.56-2.47-114,3.62-128,4.27c-17.91.83-127.32-3-141.29-2.62-14,.49-122.4-1-134.72-1.65-12.48-.65-125,2.14-134.55,1.48-9.7-.66-123.22.66-134.56-.66s-123.71-1.31-134.55.33c-10.51,1.48-61.61-1-73.77-.16v39.43c12.32,1.64,70.32,5.75,73.77,5.75,3.61,0,119.27-1.48,134.55-1.48,15.45,0,114.19,1,134.56,1s111.22,1,128,2,128.48-1,137.35-1.48,121.74.33,131.76,2.79,116.15-2.3,141.29-3.28,119,3,129,3,134.06,2,140.3,2.47c4.93.33,61.28-1.32,87.08-2.8v-43Z" transform="translate(0 3.58)"/><path class="cls-21" d="M44.81,1231.23s-8.87-138-7.23-150.49,25.63-45.51,34.67-45.51,44.69,26.78,44.69,33,3.28,156.9,0,163C113.49,1237.31,50.89,1235,44.81,1231.23Z" transform="translate(0 3.58)"/><path class="cls-21" d="M178.71,1230.4s-8.54-150.32,0-160.84,31-30.88,37.13-33.68,27.93,28.43,29.24,35.16c1.15,6.74,11,150.33,0,156.41C233.91,1233.36,179,1236.48,178.71,1230.4Z" transform="translate(0 3.58)"/><path class="cls-21" d="M347.11,1035.56c7.39,1.64,37.62,32.69,38.11,37.78s7.89,158.54-3.94,158.54c-11.66,0-63.58,4.44-68.18-3.94-4.44-8.38-9.53-148.52-5.59-155.25C311.62,1066.11,334.29,1032.76,347.11,1035.56Z" transform="translate(0 3.58)"/><path class="cls-21" d="M444.37,1231.88c4.43,6.9,67,9.7,72,2.3,5.09-7.39,8.38-153.61,5.09-161.49s-31-40.26-37.79-40.26-35.81,36.31-39.26,44.2C441.08,1084.35,438.29,1222.35,444.37,1231.88Z" transform="translate(0 3.58)"/><path class="cls-21" d="M620.65,1028c6.08,0,34.67,40.25,35.82,46.33s-2.3,151.47-7.89,160.84-61.94,12-66.37,3.94-8.38-156.57-3.94-164.78S611.12,1028,620.65,1028Z" transform="translate(0 3.58)"/><path class="cls-21" d="M756,1027.51c8.87,0,36.14,52.73,36.14,58.32s1.81,151-4.76,154.93c-6.74,3.94-65.88,7.88-73.11,0s-4.44-152.47,0-156.9C718.57,1079.26,749.78,1027.51,756,1027.51Z" transform="translate(0 3.58)"/><path class="cls-21" d="M1020.21,1025.37c6.57,0,32.36,31.05,38.28,44,4.93,11,7.55,173-4.44,176.45s-64.24,3-71.79-4.44c-7.56-7.56-4.44-158.7-.17-172.34C983.9,1063.65,1012.16,1025.53,1020.21,1025.37Z" transform="translate(0 3.58)"/><path class="cls-21" d="M882.53,1021.43c9.69,0,35.49,32.36,40.42,45.18s6.24,173.65,0,177.43-67.53,2.63-72.78-4.6c-5.1-7.23-8.71-157.55-3.62-167.08C851.48,1062.83,872.84,1021.43,882.53,1021.43Z" transform="translate(0 3.58)"/><path class="cls-21" d="M1155.75,1028c5.58-.17,39.92,48.63,39.92,55.2,0,6.74-2.14,150.33-6.57,158-4.44,7.56-66.7,5.26-70.48,0-3.62-5.26-7.89-140,0-158C1126.34,1065.29,1143.92,1028.33,1155.75,1028Z" transform="translate(0 3.58)"/></g><g id="圖層_6" data-name="圖層 6"><path class="cls-22" d="M25.59,1250.12s.66-18.4-6.9-24.32c10.19.17,22.67,0,25.63,12.33,6.08-12.49,10.84-23.83,23.17-29.25-4.61,16.43-4.28,32,0,36.48,5.58-19.23,8.21-29.74,19.87-34.67-.49,19.22,0,30.72,8,37.13,2.14-24.81,11.67-38.77,11.67-38.77s2,17.58,3.28,29.73c10.68-21.85,20.54-20.86,26.46-15-8,4.93-15.78,26.45-15.78,26.45" transform="translate(0 3.58)"/><path class="cls-22" d="M164.42,1243.71c-4.77-8.21-6.58-19.71-16.76-19.88,12.81-6.08,28.42-3.45,31.71,10.85,4.76-20.38,2.13-30.07,15.6-36.64-.65,15-4.92,29.24,0,38.11,4.77-15.11,17.42-43.37,30.73-33.18-5.59,7.23-16.1,23.16-13,31,9.53-12.82,7.39-20.54,19.88-18.89-.5,7.55-6.9,25.13-6.9,25.13,11.66-8.87,15-32.53,26.61-28.58-5.26,7.39-8.87,15.11-5.58,23,9.69-14.79,15.77-18.57,22.5-10.68-7.55,7.55-15,11-14.12,19.71" transform="translate(0 3.58)"/><path class="cls-22" d="M300.61,1248.48s-5.09-26.45-13.8-26.45c16.27-.83,26,9.36,28.75,20.86,1-16.1,1.48-28.42-6.9-35,21.53,9.69,18.08,24.8,20.21,33.18,2.79-12.48,8.05-30.39,2.79-36.47,12.49,15,12.82,25.79,13,38.12,3.62-19.39,11.83-44.69,22.68-41.57-2.47,5.26-7.4,22-8.88,36.8,8.88-18.07,15.28-28.75,23.83-27.43-7.07,8.7-13.15,18.07-10,30.55,7.4-16.1,12-23,20.05-22.83-2.79,6.9-9.7,15.93-6.41,23.49,3.94-11.17,16.92-12.16,16.92-12.16s-7.55,11.34-8.7,18.9" transform="translate(0 3.58)"/><path class="cls-22" d="M411.35,1248.81s10.51-13.48-2.8-35.82c18.24,10.84,26.45,13.47,27.44,27.27,0-14-1.81-19.88,13.47-32-1.81,12-1.31,23.82,4.6,37,6.74-10.84,5.92-17.41,4.6-28.26,9.69,9.86,13,8.38,11.67,20.54,9.69-10.19,9.85-28.09,25.3-21.36-6.9,4.93-7.72,9.2-5.26,20.37,5.42-5.75,7.39-14,14.95-14.78-1.48,4.43-1.81,9.2,1,13.8,7.22-4.11,8.21-9.37,8.7-19.39,8,6.24,10.35,13.14,7.56,27.27,0,0,10.52-24.64,29.24-15-8,6.25-15.11,9.86-17.41,22.84" transform="translate(0 3.58)"/><path class="cls-22" d="M1108.1,1257.68s1.15-12.65-12.32-28.43c16.1,2.14,21.69,5.43,27.93,15.45-.49-16.92,1.81-37.3,10-43.54-.49,18.89.17,37.62,6.57,45.67,2-13,8.55-13,4.6-26.78,12,7.56,16.76,15.28,13.8,27.61,8-14.63,3.45-38,21.53-33.68-2.14,9.36-6.74,20.2-6.9,31.87,7.55-8.71,16.43-10.85,16.75-26.29,3,11.34,8.55,10,1.48,25.8,11.83-12.66,12.16-14.63,25.63-13.81-7.23,5.43-10.35,1.32-13.8,18.24" transform="translate(0 3.58)"/><path class="cls-22" d="M954.49,1252.42s5.26-25.14-1.81-37.79c11.34,4.77,23.17,27.93,23.17,27.93a57.06,57.06,0,0,0-4.6-33.18c13.31,7.88,23,32,23,32s5.26-20.86-2.63-37.46c14.79,16.1,20.54,39.76,20.54,39.76s4.93-19.88,3.12-29.08c9.69,6.25,9,11.5,9.36,27.11,4.27-23.66,9-28.42,16.43-37.79-.65,8.71,2.63,25.14-1.31,37.13,7.88-12.65,8.71-23.65,16.1-25.13-2.79,9.69-4.11,12.65-.82,23,8.38-12.16,12.65-11.67,23-8.71-5.26,3.61-13.64,9.53-13.64,22.18" transform="translate(0 3.58)"/><path class="cls-22" d="M690.64,1257.35s1.31-17.74-4.76-30.72c12.15,8.21,19,5.25,23,24.31-1.32-17.91-7.56-42.06-7.56-42.06s25.79,16.1,26.12,42.06c3.94-18.24,2.63-46,2.63-46s13,19.71,16.43,44.69c4.27-17.09,16.43-35.65,16.43-35.65v34.83c3.94-6.25,9.53-31.88,24.81-29.74-5.59,7.88-7.4,17.91-6.9,31.71,2.62-9.2,21.68-24.32,21.68-24.32a95.13,95.13,0,0,0-5.58,28.59" transform="translate(0 3.58)"/><path class="cls-22" d="M567.59,1251.27s-.17-18.24-13.64-13c12.81-8,23.17-12.16,26.45,6.08,4.77-9,7.23-14.29,4.93-23.66,6.9,8.22,11.34,10.19,8.71,27.27,3.45-15.44,6.57-28.25,21.19-30.55-6.9,10.84-12.32,24-5.26,28.75,5.26-8.88,7.72-6.41,8-16.76,4,8.54,4.6,11.17,6.25,15.28,1.64-15.12,4.6-27.27,16.43-27.27-2.8,6.07-7.07,10.51-5.43,25.13,7.89-6.41,8.71-7.23,9.37-17.58,4.43,6.08,5.58,9.53,5.26,17.91,3.61-8.71,4.6-8.71,15.6-8.38-5.25,4.93-7.23,4.27-10.68,16.92" transform="translate(0 3.58)"/><path class="cls-22" d="M824.37,1255.87s10.19-24.32,0-36.47c10.85,4.76,15.61,7.39,16.92,22.83,2.63-14.78,12-12.32,8.88-27.1,7.39,12.32,5.25,14.45,8.05,29.9,1.48-12.33,5.91-38.45,19.22-38-1.81,8.05-7.07,21.68-4.77,40.41,7.4-11,10.85-16.59,9.86-27.6,5.42,8,10.35,8,6.08,26.45,7.23-13.8,8.38-20.37,18.4-27.27-1.48,13.63-4.6,13-3.94,28.42,7.23-10.68,8-11.66,12.16-17.74,2.79,8.38,1.15,12.16,0,19.88,5.91-10.52,11.5-10.19,19.71-8.55-4.6,4.28-10.19,4.93-11,16.27" transform="translate(0 3.58)"/></g></g></g></g><g id="Layer_1" data-name="Layer 1"><ellipse class="cls-23" cx="104.77" cy="162.53" rx="61.27" ry="45.33" transform="translate(-84.24 125.27) rotate(-45)"/><path class="cls-24" d="M105.11,226.34c-13.35,0-27.2-4.12-40.2-12.46A38.09,38.09,0,0,1,53.43,202.4c-18.67-29.11-16.2-62.44,6.28-84.93s55.81-25,84.93-6.27a38.17,38.17,0,0,1,11.48,11.47h0c18.66,29.11,16.19,62.44-6.29,84.93A62.49,62.49,0,0,1,105.11,226.34ZM104.94,107a56.14,56.14,0,0,0-39.41,16.3C50.61,138.2,40.31,166.71,60.35,198a30.17,30.17,0,0,0,9,9c31.24,20,59.76,9.72,74.67-5.19s25.21-43.42,5.17-74.68h0a30.14,30.14,0,0,0-9-9C127.79,110.16,115.81,107,104.94,107Z" transform="translate(0 3.58)"/><line class="cls-25" x1="69.75" y1="150.47" x2="141.28" y2="150.47"/><rect class="cls-24" x="69.75" y="147.18" width="71.53" height="6.58"/><line class="cls-25" x1="69.75" y1="166.12" x2="141.28" y2="166.12"/><rect class="cls-24" x="69.75" y="162.83" width="71.53" height="6.58"/><line class="cls-25" x1="69.75" y1="181.77" x2="141.28" y2="181.77"/><rect class="cls-24" x="69.75" y="178.47" width="71.53" height="6.58"/><text class="cls-26" transform="translate(509.06 173.14)">狂野</text><path class="cls-24" d="M691.78,162.17l18.39-26.61a5.46,5.46,0,0,0-4.49-8.56H668.91a5.46,5.46,0,0,0-4.49,8.56l18.38,26.61A5.46,5.46,0,0,0,691.78,162.17Z" transform="translate(0 3.58)"/><ellipse class="cls-27" cx="196.95" cy="1845.89" rx="78.44" ry="57.38" transform="translate(-1247.56 683.49) rotate(-45)"/><path class="cls-24" d="M197.39,1926.41c-17,0-34.6-5.27-51.15-16a47.14,47.14,0,0,1-13.87-13.87c-23.79-36.87-20.75-79.1,7.73-107.57s70.66-31.5,107.54-7.69a46.91,46.91,0,0,1,13.88,13.86h0c23.79,36.87,20.76,79.09-7.71,107.56A78.82,78.82,0,0,1,197.39,1926.41Zm-.23-152.79a73,73,0,0,0-51.25,21.22c-19.46,19.45-32.87,56.61-6.62,97.29a38.66,38.66,0,0,0,11.41,11.41c40.67,26.28,77.83,12.89,97.3-6.6s32.86-56.62,6.61-97.29h0a38.38,38.38,0,0,0-11.43-11.41C227,1777.78,211.35,1773.62,197.16,1773.62Z" transform="translate(0 3.58)"/><path class="cls-28" d="M238.13,1820.61a1.13,1.13,0,0,0,0-.18,25.43,25.43,0,0,0-27.3-17,24.33,24.33,0,0,0-18,12.12l-12.17,21.17a18.54,18.54,0,0,0-.57,17L167.87,1866a7.94,7.94,0,0,0-5.71-2.53,8.09,8.09,0,1,0,.86,16.16,5.86,5.86,0,0,0-.05.94,8,8,0,0,0,8.07,8l-.09,0H171a8.07,8.07,0,0,0,8-8.1,7.87,7.87,0,0,0-2.36-5.66l12.3-12.21a18.5,18.5,0,0,0,7.94,1.8,18.22,18.22,0,0,0,6.21-1.06,2.54,2.54,0,0,0,.28-.16,17.88,17.88,0,0,0,2.51-1.17l21.17-12.18A24.73,24.73,0,0,0,238.13,1820.61Zm-65.42,53.1a1.79,1.79,0,0,0,.53,2.91,3.07,3.07,0,0,1,1,.72h0a4.48,4.48,0,1,1-7.4,1.68,1.8,1.8,0,0,0-.41-1.91l-.9-.9a1.8,1.8,0,0,0-1.9-.41,4.43,4.43,0,0,1-4.63-1,4.53,4.53,0,0,1,0-6.36,4.46,4.46,0,0,1,6.37,0,2.83,2.83,0,0,1,.68.93,1.8,1.8,0,0,0,2.91.52l13.08-13a18.6,18.6,0,0,0,3.78,3.79ZM235.12,1823a21.15,21.15,0,0,1-9.67,23.72l-17.5,10-3.61,2.07-3.81,1.58a15,15,0,0,1-14.17-4,14.89,14.89,0,0,1-2.49-17.86l12-21.08a20.75,20.75,0,0,1,15.41-10.33,19.86,19.86,0,0,1,2.89-.2v-.09a21.45,21.45,0,0,1,15.35,6.4,21,21,0,0,1,4.42,6.32Z" transform="translate(0 3.58)"/><path class="cls-24" d="M171,1889a8.47,8.47,0,0,1-8.46-8.45c0-.18,0-.35,0-.51a8.51,8.51,0,0,1-.43-17,8.44,8.44,0,0,1,5.73,2.36l11.73-11.78a19,19,0,0,1,.71-17.07l12.18-21.18A24.85,24.85,0,0,1,210.75,1803a25.37,25.37,0,0,1,3.26-.21,25.93,25.93,0,0,1,24.47,17.5h0l0,.11-.38.18.38-.12a25.28,25.28,0,0,1-11.23,29.67l-21.17,12.16a17.2,17.2,0,0,1-2.56,1.21l-.25.15a18.53,18.53,0,0,1-6.28,1.09h-.11a18.84,18.84,0,0,1-7.85-1.71l-11.81,11.71a8.35,8.35,0,0,1,2.19,5.66,8.49,8.49,0,0,1-6.85,8.35l.34.15-1.89,0Zm-7.53-9.82-.06.49a6.31,6.31,0,0,0-.05.88,7.68,7.68,0,0,0,7,7.61l.58,0a7.67,7.67,0,0,0,7.67-7.68,7.53,7.53,0,0,0-2.24-5.37l-.3-.29.3-.3,12.5-12.4.27.12a17.9,17.9,0,0,0,7.76,1.76h.1a17.62,17.62,0,0,0,6-1l.1-.06.1-.07a17.17,17.17,0,0,0,2.51-1.18l21.17-12.16a24.48,24.48,0,0,0,10.87-28.7v0l.4-.08h-.42a25.14,25.14,0,0,0-23.71-17,23.93,23.93,0,0,0-20.81,12.12L181,1836.93a18.13,18.13,0,0,0-.55,16.57l.13.27-12.74,12.78-.3-.31a7.5,7.5,0,0,0-5.4-2.41,7.69,7.69,0,0,0,.44,15.36l.39,0Zm7.55,6.24a5,5,0,0,1-3.46-1.41,4.85,4.85,0,0,1-1.14-5.1,1.37,1.37,0,0,0-.32-1.46l-.9-.9a1.44,1.44,0,0,0-1.47-.33,4.87,4.87,0,0,1-5.07-1.1,5,5,0,0,1,0-6.94,4.85,4.85,0,0,1,7,0,2.89,2.89,0,0,1,.76,1,1.49,1.49,0,0,0,.29.41,1.37,1.37,0,0,0,2,0l13.4-13.37.29.38a18.23,18.23,0,0,0,3.7,3.69l.39.3L173,1874a1.49,1.49,0,0,0-.3.41,1.41,1.41,0,0,0,.71,1.84,3.78,3.78,0,0,1,1.1.81,4.93,4.93,0,0,1,0,6.92A5,5,0,0,1,171,1885.39Zm-6.82-10.11a2.26,2.26,0,0,1,1.59.65l.9.9a2.24,2.24,0,0,1,.5,2.34,4,4,0,0,0,1,4.22,4.13,4.13,0,0,0,5.76,0,4.09,4.09,0,0,0,0-5.74,2.55,2.55,0,0,0-.87-.65,2.22,2.22,0,0,1-1.09-2.92,2.26,2.26,0,0,1,.45-.67l12.75-12.73a19.32,19.32,0,0,1-3.2-3.19l-12.73,12.71a2.24,2.24,0,0,1-3.12,0,2.51,2.51,0,0,1-.46-.65,2.46,2.46,0,0,0-.58-.8,4.08,4.08,0,0,0-2.92-1.25,4,4,0,0,0-2.89,1.21,4.15,4.15,0,0,0,0,5.79,4,4,0,0,0,4.2.91A2.17,2.17,0,0,1,164.22,1875.28Zm32.72-14.11a15.39,15.39,0,0,1-13.43-22.87l12-21.09a21.29,21.29,0,0,1,15.71-10.53,19.62,19.62,0,0,1,2.55-.19l.4-.09h.09a22.22,22.22,0,0,1,20,12.95l1.21,3.52a21.61,21.61,0,0,1-9.87,24.17l-21.11,12.07-3.86,1.61A16,16,0,0,1,196.94,1861.17Zm17-53.86a17.33,17.33,0,0,0-2.58.19,20.43,20.43,0,0,0-15.11,10.12l-12,21.09a14.58,14.58,0,0,0,16.21,21.23l3.75-1.58,21.07-12a20.8,20.8,0,0,0,9.47-23.24l-1.16-3.45a21.59,21.59,0,0,0-19-12.42h0l-.41.08Z" transform="translate(0 3.58)"/><path class="cls-28" d="M210.5,1813.88l0,0a1.8,1.8,0,0,0,1.8-1.79,2,2,0,0,0-.15-.69,2.43,2.43,0,0,0-.37-.59,1.94,1.94,0,0,0-.29-.21.94.94,0,0,0-.31-.17,1,1,0,0,0-.34-.1,1.79,1.79,0,0,0-1.58.52,2.52,2.52,0,0,0-.39.59,1.79,1.79,0,0,0-.13.68,1.91,1.91,0,0,0,.52,1.28A1.84,1.84,0,0,0,210.5,1813.88Z" transform="translate(0 3.58)"/><path class="cls-28" d="M215.58,1819a1.79,1.79,0,0,0,1.65-2.48,1.48,1.48,0,0,0-.4-.59,1.78,1.78,0,0,0-3.05,1.27,1.84,1.84,0,0,0,.52,1.28A1.8,1.8,0,0,0,215.58,1819Z" transform="translate(0 3.58)"/><path class="cls-28" d="M205.41,1819a1.79,1.79,0,0,0,1.66-2.48,1.76,1.76,0,0,0-.38-.59,1.06,1.06,0,0,0-.29-.22,1.08,1.08,0,0,0-.3-.16l-.33-.11a1.79,1.79,0,0,0-1.63.49,1.62,1.62,0,0,0-.38.59,1.79,1.79,0,0,0,1.65,2.48Z" transform="translate(0 3.58)"/><path class="cls-28" d="M209.81,1823.9a1.81,1.81,0,0,0,.69.14,1.79,1.79,0,0,0,1.79-1.79,1.85,1.85,0,0,0-.13-.7,1.8,1.8,0,0,0-3.46.7,1.77,1.77,0,0,0,.52,1.25A1.48,1.48,0,0,0,209.81,1823.9Z" transform="translate(0 3.58)"/><path class="cls-28" d="M192.83,1840.1a1.8,1.8,0,0,0-3.22-1.62,15.25,15.25,0,0,0,4.35,19,1.79,1.79,0,0,0,1.09.37,1.79,1.79,0,0,0,1.1-3.23A11.67,11.67,0,0,1,192.83,1840.1Z" transform="translate(0 3.58)"/><ellipse class="cls-27" cx="434.95" cy="1845.9" rx="78.44" ry="57.38" transform="translate(-1177.85 851.79) rotate(-45)"/><path class="cls-24" d="M435.39,1926.41c-17,0-34.6-5.27-51.15-16a47,47,0,0,1-13.87-13.87c-23.78-36.87-20.75-79.08,7.71-107.56s70.68-31.49,107.56-7.7a46.91,46.91,0,0,1,13.88,13.86h0c23.79,36.87,20.76,79.09-7.71,107.57A78.85,78.85,0,0,1,435.39,1926.41Zm-.22-152.78a73,73,0,0,0-51.27,21.22c-19.45,19.46-32.86,56.61-6.61,97.28a38.31,38.31,0,0,0,11.41,11.41c40.67,26.28,77.83,12.86,97.3-6.59s32.86-56.62,6.61-97.3a38.61,38.61,0,0,0-11.43-11.41C465,1777.79,449.35,1773.63,435.17,1773.63Z" transform="translate(0 3.58)"/><path class="cls-28" d="M443.83,1887.64a19.87,19.87,0,0,1-4-.41,22.38,22.38,0,0,1-4.9-1.72,22.14,22.14,0,0,1-4.83,1.71c-12.67,2.58-23.91-7.17-30.07-26.11-3.88-11.89-3-22.68,2.49-29.64,4.16-5.3,10.59-7.82,18.23-7.32a36.27,36.27,0,0,1,8.39,1.66c-1.5-4-4.1-7.76-8.57-9a5.13,5.13,0,0,1-4-6c.53-2.68,3.45-5.36,8.33-4.58,5.24.66,12,4.7,15.19,19.67a37.84,37.84,0,0,1,8.82-1.82h0c7.58-.62,14.05,1.93,18.24,7.19,5.52,7,6.49,17.78,2.67,29.75C464.39,1878,454.83,1887.63,443.83,1887.64Zm-8.82-7.7,1.15.64a17.88,17.88,0,0,0,4.72,1.82c14.67,2.9,22.34-16.71,24.33-22.83,3.31-10.35,2.64-19.53-1.83-25.15-3.17-4-8.09-5.82-14-5.35h0a32.2,32.2,0,0,0-10.14,2.52l-2.89,1.28-.53-3.13c-1.33-8-4.4-17.64-11.52-18.55-1.54-.17-2.4.11-2.73.46,7.15,2.29,11.79,8.32,13.73,17.85l1,4.94-4.52-2.25a31.31,31.31,0,0,0-11.41-3.12c-6.07-.48-10.81,1.42-14,5.45-4.44,5.64-5,14.77-1.68,25,2,6.11,9.49,25.85,24.37,22.82a18.37,18.37,0,0,0,4.7-1.82Z" transform="translate(0 3.58)"/><path class="cls-28" d="M442.46,1826.12a4.62,4.62,0,0,1-4.62-4.21c-.21-2-.39-7,2.39-11.08,2.41-3.66,6.4-5.52,9.32-6.43a4.67,4.67,0,0,1,4.11.54,4.57,4.57,0,0,1,2,3.6c.3,4.43-.5,8.12-2.4,10.93-2.42,3.67-6.41,5.52-9.33,6.43l0,0A5,5,0,0,1,442.46,1826.12Zm8.26-17.29c-1.47.83-4.69,2.14-6.39,4.74a12.09,12.09,0,0,0-1.62,7.53c1.8-.59,4.79-1.88,6.42-4.37C450.41,1814.83,450.94,1812.17,450.72,1808.83Z" transform="translate(0 3.58)"/><text class="cls-29" transform="translate(43.92 484)">飽足感</text><rect class="cls-20" x="43.89" y="513.14" width="438.36" height="26.31" rx="4.72"/><path class="cls-24" d="M474.1,538.34H52a10.62,10.62,0,0,1-10.61-10.62v-10A10.63,10.63,0,0,1,52,507.08H474.1a10.64,10.64,0,0,1,10.62,10.62v10A10.63,10.63,0,0,1,474.1,538.34ZM52,512a5.68,5.68,0,0,0-5.68,5.68v10A5.68,5.68,0,0,0,52,533.4H474.1a5.69,5.69,0,0,0,5.69-5.68v-10A5.69,5.69,0,0,0,474.1,512Z" transform="translate(0 3.58)"/><path class="cls-30" d="M52,512a5.69,5.69,0,0,0-5.68,5.68v10A5.69,5.69,0,0,0,52,533.4H343.76a5.68,5.68,0,0,0,5.68-5.68v-10a5.68,5.68,0,0,0-5.68-5.68Z" transform="translate(0 3.58)"/><rect class="cls-1" x="0.81" y="6.02" width="1242" height="2168.57"/><ellipse class="cls-23" cx="104.77" cy="162.53" rx="61.27" ry="45.33" transform="translate(-84.24 125.27) rotate(-45)"/><path class="cls-24" d="M105.11,226.34c-13.35,0-27.2-4.12-40.2-12.46A38.09,38.09,0,0,1,53.43,202.4c-18.67-29.11-16.2-62.44,6.28-84.93s55.81-25,84.93-6.27a38.17,38.17,0,0,1,11.48,11.47h0c18.66,29.11,16.19,62.44-6.29,84.93A62.49,62.49,0,0,1,105.11,226.34ZM104.94,107a56.14,56.14,0,0,0-39.41,16.3C50.61,138.2,40.31,166.71,60.35,198a30.17,30.17,0,0,0,9,9c31.24,20,59.76,9.72,74.67-5.19s25.21-43.42,5.17-74.68h0a30.14,30.14,0,0,0-9-9C127.79,110.16,115.81,107,104.94,107Z" transform="translate(0 3.58)"/><line class="cls-25" x1="69.75" y1="150.47" x2="141.28" y2="150.47"/><rect class="cls-24" x="69.75" y="147.18" width="71.53" height="6.58"/><line class="cls-25" x1="69.75" y1="166.12" x2="141.28" y2="166.12"/><rect class="cls-24" x="69.75" y="162.83" width="71.53" height="6.58"/><line class="cls-25" x1="69.75" y1="181.77" x2="141.28" y2="181.77"/><rect class="cls-24" x="69.75" y="178.47" width="71.53" height="6.58"/><text class="cls-26" transform="translate(509.06 173.14)">狂野</text><path class="cls-24" d="M691.78,162.17l18.39-26.61a5.46,5.46,0,0,0-4.49-8.56H668.91a5.46,5.46,0,0,0-4.49,8.56l18.38,26.61A5.46,5.46,0,0,0,691.78,162.17Z" transform="translate(0 3.58)"/><path class="cls-20" d="M1165.88,1767c62.65,104-45.67,212.31-149.66,149.66a70.49,70.49,0,0,1-23.87-23.86c-62.64-104,45.68-212.31,149.67-149.66A70.37,70.37,0,0,1,1165.88,1767Z" transform="translate(0 3.58)"/><path class="cls-24" d="M1079.57,1939.32c-21.74,0-44.25-6.3-65.47-19.09A74.51,74.51,0,0,1,988.83,1895c-29.55-49.06-24.46-104.93,13-142.35s93.31-42.51,142.35-13a74.57,74.57,0,0,1,25.26,25.27c29.55,49,24.47,104.92-13,142.35A107.51,107.51,0,0,1,1079.57,1939.32Zm-.85-210.49a99.36,99.36,0,0,0-71.11,29.59c-34.66,34.67-39.27,86.58-11.73,132.29a66.24,66.24,0,0,0,22.46,22.47c45.72,27.54,97.64,22.94,132.29-11.73s39.27-86.59,11.73-132.28h0a66.35,66.35,0,0,0-22.46-22.48C1120,1734.73,1099,1728.83,1078.72,1728.83Z" transform="translate(0 3.58)"/><path class="cls-31" d="M1099.19,1792h-40.14a34.63,34.63,0,0,0-34.53,34.53h0a34.65,34.65,0,0,0,27,33.67v17a3.82,3.82,0,0,0,6.36,2.85l21.3-19h20a34.64,34.64,0,0,0,34.53-34.54h0A34.63,34.63,0,0,0,1099.19,1792Z" transform="translate(0 3.58)"/><path class="cls-24" d="M1055.35,1885.15a8,8,0,0,1-3.26-.7,7.85,7.85,0,0,1-4.7-7.24v-13.87a38.62,38.62,0,0,1,11.66-75.45h40.14a38.64,38.64,0,1,1,0,77.28h-18.46l-20.13,18A7.86,7.86,0,0,1,1055.35,1885.15Zm3.7-89a30.41,30.41,0,0,0-6.65,60.09l3.21.71v20.3l22-20.26h21.6a30.42,30.42,0,1,0,0-60.84Z" transform="translate(0 3.58)"/><path class="cls-24" d="M1060.92,1826.79a4.68,4.68,0,1,1-4.68-4.68A4.69,4.69,0,0,1,1060.92,1826.79Z" transform="translate(0 3.58)"/><path class="cls-24" d="M1084.85,1826.79a4.68,4.68,0,1,1-4.68-4.68A4.68,4.68,0,0,1,1084.85,1826.79Z" transform="translate(0 3.58)"/><path class="cls-24" d="M1108.78,1826.79a4.68,4.68,0,1,1-4.67-4.68A4.68,4.68,0,0,1,1108.78,1826.79Z" transform="translate(0 3.58)"/><path class="cls-23" d="M1148.25,211.28h-208A54.43,54.43,0,0,1,886,157h0a54.43,54.43,0,0,1,54.27-54.27h208A54.43,54.43,0,0,1,1202.52,157h0A54.43,54.43,0,0,1,1148.25,211.28Z" transform="translate(0 3.58)"/><path class="cls-24" d="M1148.25,215.39h-208a58.38,58.38,0,1,1,0-116.75h208a58.38,58.38,0,1,1,0,116.75Zm-208-108.53a50.16,50.16,0,1,0,0,100.31h208a50.16,50.16,0,1,0,0-100.31Z" transform="translate(0 3.58)"/><text class="cls-32" transform="translate(974.85 184.52)">36</text><path class="cls-28" d="M1117.39,138.8c.58-.66,1.06-1.25,1.58-1.8a17.41,17.41,0,0,1,24.2-1.26,17.15,17.15,0,0,1,1.36,24.14c-5.31,6-11,11.74-16.47,17.58l-7.17,7.6a4.93,4.93,0,0,1-7.15,0l-4.13-4.36q-9.37-9.93-18.74-19.87c-6.85-7.28-6.75-18,.23-24.79,6.42-6.23,17.74-6.06,24,.38C1115.83,137.15,1116.52,137.9,1117.39,138.8Z" transform="translate(0 3.58)"/><text class="cls-29" transform="translate(43.92 342.46)">心情</text><rect class="cls-20" x="43.89" y="371.58" width="438.36" height="26.31" rx="4.72"/><path class="cls-24" d="M474.1,396.79H52a10.63,10.63,0,0,1-10.61-10.62v-10A10.62,10.62,0,0,1,52,365.53H474.1a10.63,10.63,0,0,1,10.62,10.61v10A10.64,10.64,0,0,1,474.1,396.79ZM52,370.47a5.68,5.68,0,0,0-5.68,5.67v10A5.68,5.68,0,0,0,52,391.84H474.1a5.69,5.69,0,0,0,5.69-5.67v-10a5.69,5.69,0,0,0-5.69-5.67Z" transform="translate(0 3.58)"/><rect class="cls-33" x="43.89" y="371.58" width="219.18" height="26.31" rx="4.72"/><rect class="cls-24" x="41.43" y="369.11" width="224.11" height="31.26" rx="10.62"/><path class="cls-30" d="M52,370.47a5.68,5.68,0,0,0-5.68,5.67v10A5.68,5.68,0,0,0,52,391.84H254.92a5.69,5.69,0,0,0,5.69-5.67v-10a5.69,5.69,0,0,0-5.69-5.67Z" transform="translate(0 3.58)"/><path class="cls-28" d="M237.26,1820.49a1.13,1.13,0,0,0,0-.18,25,25,0,0,0-26.84-17.14,23.91,23.91,0,0,0-17.65,12.22l-12,21.34a19,19,0,0,0-.56,17.09l-12,12.37a7.65,7.65,0,0,0-5.61-2.55,8.15,8.15,0,0,0,.84,16.28c0,.31,0,.63,0,.94a8,8,0,0,0,7.94,8.11l-.08,0h.05a8.17,8.17,0,0,0,5.58-13.86l12.08-12.3a17.9,17.9,0,0,0,7.82,1.81,17.42,17.42,0,0,0,6.1-1.07,2.4,2.4,0,0,0,.27-.16,16.44,16.44,0,0,0,2.47-1.18l20.82-12.27A25.22,25.22,0,0,0,237.26,1820.49ZM173,1874a1.79,1.79,0,0,0-.37.54,1.84,1.84,0,0,0,.88,2.4,3,3,0,0,1,.95.72l0,0a4.59,4.59,0,0,1,0,6.37,4.35,4.35,0,0,1-6.23,0,4.55,4.55,0,0,1-1-4.69,1.86,1.86,0,0,0-.41-1.92l-.88-.9a1.73,1.73,0,0,0-1.87-.42,4.28,4.28,0,0,1-4.56-1,4.65,4.65,0,0,1,0-6.41,4.32,4.32,0,0,1,6.27,0,3.11,3.11,0,0,1,.67.94,2,2,0,0,0,.36.54,1.74,1.74,0,0,0,2.5,0L182.09,1857a18.92,18.92,0,0,0,3.72,3.81Zm61.35-51.13a21.54,21.54,0,0,1-9.5,23.9l-17.21,10.08-3.55,2.08-3.74,1.6a14.55,14.55,0,0,1-13.94-4,15.3,15.3,0,0,1-2.45-18l11.81-21.25a20.36,20.36,0,0,1,15.15-10.4,18,18,0,0,1,2.84-.2v-.09a20.81,20.81,0,0,1,15.1,6.44,21.29,21.29,0,0,1,4.34,6.37Z" transform="translate(0 3.58)"/><path class="cls-24" d="M171.28,1889.38a8.44,8.44,0,0,1-8.32-8.51c0-.19,0-.35,0-.52a8.58,8.58,0,0,1-.42-17.13,8.19,8.19,0,0,1,5.64,2.38l11.53-11.87a19.29,19.29,0,0,1-1.66-7.86,19.51,19.51,0,0,1,2.35-9.35l12-21.34a23.86,23.86,0,0,1,21.17-12.62,25.57,25.57,0,0,1,24.06,17.62v0l0,.11-.38.18.38-.12a25.77,25.77,0,0,1-11.05,29.9l-20.81,12.26a17.39,17.39,0,0,1-2.51,1.21,2.71,2.71,0,0,1-.26.15,17.65,17.65,0,0,1-6.17,1.1h-.11a18.32,18.32,0,0,1-7.72-1.71l-11.61,11.79a8.62,8.62,0,0,1-4.58,14.12l.34.15-1.86,0Zm-7.4-9.9-.06.5a6.46,6.46,0,0,0,0,.89,7.64,7.64,0,0,0,6.88,7.66h.57a7.75,7.75,0,0,0,5.34-13.15l-.29-.3.29-.3,12.29-12.5.26.13a17.42,17.42,0,0,0,7.63,1.77h.1a16.84,16.84,0,0,0,5.88-1.05l.1-.06.1-.07a16.91,16.91,0,0,0,2.47-1.19l20.81-12.26a25,25,0,0,0,10.69-28.92v0l.39-.08h-.42a24.75,24.75,0,0,0-23.3-17.11,23.32,23.32,0,0,0-3.11.21,23.6,23.6,0,0,0-17.35,12l-12,21.35a18.65,18.65,0,0,0-.55,16.7l.13.27-12.53,12.88-.29-.31a7.28,7.28,0,0,0-5.31-2.43,7.75,7.75,0,0,0,.43,15.47h.39Zm7.42,6.29a4.79,4.79,0,0,1-3.4-1.42,5,5,0,0,1-1.12-5.14,1.41,1.41,0,0,0-.32-1.47l-.88-.9a1.39,1.39,0,0,0-1.45-.34,4.69,4.69,0,0,1-5-1.11,5.12,5.12,0,0,1,0-7,4.64,4.64,0,0,1,3.42-1.47,4.7,4.7,0,0,1,3.43,1.49,3,3,0,0,1,.74,1,1.37,1.37,0,0,0,2.21.4l13.17-13.47.29.38a18.07,18.07,0,0,0,3.64,3.72l.38.3-13.2,13.5a1.38,1.38,0,0,0-.29.41,1.43,1.43,0,0,0,.7,1.86,3.37,3.37,0,0,1,1.08.81,5.05,5.05,0,0,1,0,7A4.84,4.84,0,0,1,171.3,1885.77Zm-6.7-10.18a2.17,2.17,0,0,1,1.56.66l.88.9a2.28,2.28,0,0,1,.49,2.36,4.1,4.1,0,0,0,.95,4.25,4,4,0,0,0,5.66,0,4.19,4.19,0,0,0,0-5.79,2.42,2.42,0,0,0-.86-.65,2.28,2.28,0,0,1-1.07-3,2.63,2.63,0,0,1,.45-.67l12.54-12.82a19.17,19.17,0,0,1-3.15-3.22l-12.52,12.8a2.16,2.16,0,0,1-3.07,0,2.55,2.55,0,0,1-.45-.66,2.43,2.43,0,0,0-.57-.8,4,4,0,0,0-2.87-1.27,3.89,3.89,0,0,0-2.84,1.23,4.26,4.26,0,0,0,0,5.83,3.82,3.82,0,0,0,4.12.92A2.17,2.17,0,0,1,164.6,1875.59Zm32.17-14.22a14.87,14.87,0,0,1-10.69-4.55,15.77,15.77,0,0,1-2.52-18.5l11.81-21.26a20.91,20.91,0,0,1,15.45-10.61,18.86,18.86,0,0,1,2.5-.19l.39-.09h.09a21.39,21.39,0,0,1,15.3,6.55,22.27,22.27,0,0,1,4.42,6.5l1.18,3.55a22,22,0,0,1-9.69,24.36l-20.77,12.16-3.79,1.62A15.46,15.46,0,0,1,196.77,1861.37Zm16.7-54.28a16.71,16.71,0,0,0-2.54.19,20.09,20.09,0,0,0-14.86,10.19l-11.81,21.26a14.9,14.9,0,0,0,2.4,17.5,14.09,14.09,0,0,0,13.54,3.9l3.69-1.59,20.71-12.13a21.19,21.19,0,0,0,9.32-23.43l-1.15-3.47a21.22,21.22,0,0,0-4.25-6.19,20.57,20.57,0,0,0-14.4-6.33v0l-.41.08Z" transform="translate(0 3.58)"/><path class="cls-28" d="M210.09,1813.71l0,0a1.79,1.79,0,0,0,1.76-1.81,1.81,1.81,0,0,0-.14-.69,1.9,1.9,0,0,0-.37-.59,1.42,1.42,0,0,0-.28-.22.87.87,0,0,0-.3-.16.85.85,0,0,0-.34-.11,1.73,1.73,0,0,0-1.55.52,2.38,2.38,0,0,0-.39.6,1.79,1.79,0,0,0-.12.69,1.9,1.9,0,0,0,.51,1.28A1.74,1.74,0,0,0,210.09,1813.71Z" transform="translate(0 3.58)"/><path class="cls-28" d="M215.09,1818.83a1.79,1.79,0,0,0,1.76-1.81,1.81,1.81,0,0,0-.14-.69,1.49,1.49,0,0,0-.39-.6,1.73,1.73,0,0,0-2.48,0,1.83,1.83,0,0,0-.39.6,1.85,1.85,0,0,0,.39,2A1.74,1.74,0,0,0,215.09,1818.83Z" transform="translate(0 3.58)"/><path class="cls-28" d="M205.1,1818.83a1.79,1.79,0,0,0,1.76-1.81,1.81,1.81,0,0,0-.14-.69,1.77,1.77,0,0,0-.37-.6,1.14,1.14,0,0,0-.28-.21.9.9,0,0,0-.3-.17l-.32-.11a1.76,1.76,0,0,0-1.61.49,1.77,1.77,0,0,0-.37.6,1.81,1.81,0,0,0-.14.69A1.79,1.79,0,0,0,205.1,1818.83Z" transform="translate(0 3.58)"/><path class="cls-28" d="M209.42,1823.8a1.56,1.56,0,0,0,.67.15,1.79,1.79,0,0,0,1.77-1.81,2.07,2.07,0,0,0-.13-.7,1.76,1.76,0,0,0-2.89-.59,1.86,1.86,0,0,0,0,2.56A1.42,1.42,0,0,0,209.42,1823.8Z" transform="translate(0 3.58)"/><path class="cls-28" d="M192.72,1840.13a1.83,1.83,0,0,0-.79-2.44,1.74,1.74,0,0,0-2.37.81,15.62,15.62,0,0,0,4.27,19.15,1.84,1.84,0,0,0,1.08.38,1.78,1.78,0,0,0,1.43-.73,1.84,1.84,0,0,0-.35-2.53A12,12,0,0,1,192.72,1840.13Z" transform="translate(0 3.58)"/></g><g id="Layer_4" data-name="Layer 4"><rect class="cls-34" y="2.58" width="1242" height="2208"/></g><g id="Layer_3" data-name="Layer 3"><ellipse class="cls-27" cx="196.95" cy="1845.89" rx="78.44" ry="57.38" transform="translate(-1247.56 683.49) rotate(-45)"/><path class="cls-24" d="M197.39,1926.41c-17,0-34.6-5.27-51.15-16a47.14,47.14,0,0,1-13.87-13.87c-23.79-36.87-20.75-79.1,7.73-107.57s70.66-31.5,107.54-7.69a46.91,46.91,0,0,1,13.88,13.86h0c23.79,36.87,20.76,79.09-7.71,107.56A78.82,78.82,0,0,1,197.39,1926.41Zm-.23-152.79a73,73,0,0,0-51.25,21.22c-19.46,19.45-32.87,56.61-6.62,97.29a38.66,38.66,0,0,0,11.41,11.41c40.67,26.28,77.83,12.89,97.3-6.6s32.86-56.62,6.61-97.29h0a38.38,38.38,0,0,0-11.43-11.41C227,1777.78,211.35,1773.62,197.16,1773.62Z" transform="translate(0 3.58)"/><path class="cls-28" d="M238.13,1820.61a1.13,1.13,0,0,0,0-.18,25.43,25.43,0,0,0-27.3-17,24.33,24.33,0,0,0-18,12.12l-12.17,21.17a18.54,18.54,0,0,0-.57,17L167.87,1866a7.94,7.94,0,0,0-5.71-2.53,8.09,8.09,0,1,0,.86,16.16,5.86,5.86,0,0,0-.05.94,8,8,0,0,0,8.07,8l-.09,0H171a8.07,8.07,0,0,0,8-8.1,7.87,7.87,0,0,0-2.36-5.66l12.3-12.21a18.5,18.5,0,0,0,7.94,1.8,18.22,18.22,0,0,0,6.21-1.06,2.54,2.54,0,0,0,.28-.16,17.88,17.88,0,0,0,2.51-1.17l21.17-12.18A24.73,24.73,0,0,0,238.13,1820.61Zm-65.42,53.1a1.79,1.79,0,0,0,.53,2.91,3.07,3.07,0,0,1,1,.72h0a4.48,4.48,0,1,1-7.4,1.68,1.8,1.8,0,0,0-.41-1.91l-.9-.9a1.8,1.8,0,0,0-1.9-.41,4.43,4.43,0,0,1-4.63-1,4.53,4.53,0,0,1,0-6.36,4.46,4.46,0,0,1,6.37,0,2.83,2.83,0,0,1,.68.93,1.8,1.8,0,0,0,2.91.52l13.08-13a18.6,18.6,0,0,0,3.78,3.79ZM235.12,1823a21.15,21.15,0,0,1-9.67,23.72l-17.5,10-3.61,2.07-3.81,1.58a15,15,0,0,1-14.17-4,14.89,14.89,0,0,1-2.49-17.86l12-21.08a20.75,20.75,0,0,1,15.41-10.33,19.86,19.86,0,0,1,2.89-.2v-.09a21.45,21.45,0,0,1,15.35,6.4,21,21,0,0,1,4.42,6.32Z" transform="translate(0 3.58)"/><path class="cls-24" d="M171,1889a8.47,8.47,0,0,1-8.46-8.45c0-.18,0-.35,0-.51a8.51,8.51,0,0,1-.43-17,8.44,8.44,0,0,1,5.73,2.36l11.73-11.78a19,19,0,0,1,.71-17.07l12.18-21.18A24.85,24.85,0,0,1,210.75,1803a25.37,25.37,0,0,1,3.26-.21,25.93,25.93,0,0,1,24.47,17.5h0l0,.11-.38.18.38-.12a25.28,25.28,0,0,1-11.23,29.67l-21.17,12.16a17.2,17.2,0,0,1-2.56,1.21l-.25.15a18.53,18.53,0,0,1-6.28,1.09h-.11a18.84,18.84,0,0,1-7.85-1.71l-11.81,11.71a8.35,8.35,0,0,1,2.19,5.66,8.49,8.49,0,0,1-6.85,8.35l.34.15-1.89,0Zm-7.53-9.82-.06.49a6.31,6.31,0,0,0-.05.88,7.68,7.68,0,0,0,7,7.61l.58,0a7.67,7.67,0,0,0,7.67-7.68,7.53,7.53,0,0,0-2.24-5.37l-.3-.29.3-.3,12.5-12.4.27.12a17.9,17.9,0,0,0,7.76,1.76h.1a17.62,17.62,0,0,0,6-1l.1-.06.1-.07a17.17,17.17,0,0,0,2.51-1.18l21.17-12.16a24.48,24.48,0,0,0,10.87-28.7v0l.4-.08h-.42a25.14,25.14,0,0,0-23.71-17,23.93,23.93,0,0,0-20.81,12.12L181,1836.93a18.13,18.13,0,0,0-.55,16.57l.13.27-12.74,12.78-.3-.31a7.5,7.5,0,0,0-5.4-2.41,7.69,7.69,0,0,0,.44,15.36l.39,0Zm7.55,6.24a5,5,0,0,1-3.46-1.41,4.85,4.85,0,0,1-1.14-5.1,1.37,1.37,0,0,0-.32-1.46l-.9-.9a1.44,1.44,0,0,0-1.47-.33,4.87,4.87,0,0,1-5.07-1.1,5,5,0,0,1,0-6.94,4.85,4.85,0,0,1,7,0,2.89,2.89,0,0,1,.76,1,1.49,1.49,0,0,0,.29.41,1.37,1.37,0,0,0,2,0l13.4-13.37.29.38a18.23,18.23,0,0,0,3.7,3.69l.39.3L173,1874a1.49,1.49,0,0,0-.3.41,1.41,1.41,0,0,0,.71,1.84,3.78,3.78,0,0,1,1.1.81,4.93,4.93,0,0,1,0,6.92A5,5,0,0,1,171,1885.39Zm-6.82-10.11a2.26,2.26,0,0,1,1.59.65l.9.9a2.24,2.24,0,0,1,.5,2.34,4,4,0,0,0,1,4.22,4.13,4.13,0,0,0,5.76,0,4.09,4.09,0,0,0,0-5.74,2.55,2.55,0,0,0-.87-.65,2.22,2.22,0,0,1-1.09-2.92,2.26,2.26,0,0,1,.45-.67l12.75-12.73a19.32,19.32,0,0,1-3.2-3.19l-12.73,12.71a2.24,2.24,0,0,1-3.12,0,2.51,2.51,0,0,1-.46-.65,2.46,2.46,0,0,0-.58-.8,4.08,4.08,0,0,0-2.92-1.25,4,4,0,0,0-2.89,1.21,4.15,4.15,0,0,0,0,5.79,4,4,0,0,0,4.2.91A2.17,2.17,0,0,1,164.22,1875.28Zm32.72-14.11a15.39,15.39,0,0,1-13.43-22.87l12-21.09a21.29,21.29,0,0,1,15.71-10.53,19.62,19.62,0,0,1,2.55-.19l.4-.09h.09a22.22,22.22,0,0,1,20,12.95l1.21,3.52a21.61,21.61,0,0,1-9.87,24.17l-21.11,12.07-3.86,1.61A16,16,0,0,1,196.94,1861.17Zm17-53.86a17.33,17.33,0,0,0-2.58.19,20.43,20.43,0,0,0-15.11,10.12l-12,21.09a14.58,14.58,0,0,0,16.21,21.23l3.75-1.58,21.07-12a20.8,20.8,0,0,0,9.47-23.24l-1.16-3.45a21.59,21.59,0,0,0-19-12.42h0l-.41.08Z" transform="translate(0 3.58)"/><path class="cls-28" d="M210.5,1813.88l0,0a1.8,1.8,0,0,0,1.8-1.79,2,2,0,0,0-.15-.69,2.43,2.43,0,0,0-.37-.59,1.94,1.94,0,0,0-.29-.21.94.94,0,0,0-.31-.17,1,1,0,0,0-.34-.1,1.79,1.79,0,0,0-1.58.52,2.52,2.52,0,0,0-.39.59,1.79,1.79,0,0,0-.13.68,1.91,1.91,0,0,0,.52,1.28A1.84,1.84,0,0,0,210.5,1813.88Z" transform="translate(0 3.58)"/><path class="cls-28" d="M215.58,1819a1.79,1.79,0,0,0,1.65-2.48,1.48,1.48,0,0,0-.4-.59,1.78,1.78,0,0,0-3.05,1.27,1.84,1.84,0,0,0,.52,1.28A1.8,1.8,0,0,0,215.58,1819Z" transform="translate(0 3.58)"/><path class="cls-28" d="M205.41,1819a1.79,1.79,0,0,0,1.66-2.48,1.76,1.76,0,0,0-.38-.59,1.06,1.06,0,0,0-.29-.22,1.08,1.08,0,0,0-.3-.16l-.33-.11a1.79,1.79,0,0,0-1.63.49,1.62,1.62,0,0,0-.38.59,1.79,1.79,0,0,0,1.65,2.48Z" transform="translate(0 3.58)"/><path class="cls-28" d="M209.81,1823.9a1.81,1.81,0,0,0,.69.14,1.79,1.79,0,0,0,1.79-1.79,1.85,1.85,0,0,0-.13-.7,1.8,1.8,0,0,0-3.46.7,1.77,1.77,0,0,0,.52,1.25A1.48,1.48,0,0,0,209.81,1823.9Z" transform="translate(0 3.58)"/><path class="cls-28" d="M192.83,1840.1a1.8,1.8,0,0,0-3.22-1.62,15.25,15.25,0,0,0,4.35,19,1.79,1.79,0,0,0,1.09.37,1.79,1.79,0,0,0,1.1-3.23A11.67,11.67,0,0,1,192.83,1840.1Z" transform="translate(0 3.58)"/><ellipse class="cls-27" cx="434.95" cy="1845.9" rx="78.44" ry="57.38" transform="translate(-1177.85 851.79) rotate(-45)"/><path class="cls-24" d="M435.39,1926.41c-17,0-34.6-5.27-51.15-16a47,47,0,0,1-13.87-13.87c-23.78-36.87-20.75-79.08,7.71-107.56s70.68-31.49,107.56-7.7a46.91,46.91,0,0,1,13.88,13.86h0c23.79,36.87,20.76,79.09-7.71,107.57A78.85,78.85,0,0,1,435.39,1926.41Zm-.22-152.78a73,73,0,0,0-51.27,21.22c-19.45,19.46-32.86,56.61-6.61,97.28a38.31,38.31,0,0,0,11.41,11.41c40.67,26.28,77.83,12.86,97.3-6.59s32.86-56.62,6.61-97.3a38.61,38.61,0,0,0-11.43-11.41C465,1777.79,449.35,1773.63,435.17,1773.63Z" transform="translate(0 3.58)"/><path class="cls-28" d="M443.83,1887.64a19.87,19.87,0,0,1-4-.41,22.38,22.38,0,0,1-4.9-1.72,22.14,22.14,0,0,1-4.83,1.71c-12.67,2.58-23.91-7.17-30.07-26.11-3.88-11.89-3-22.68,2.49-29.64,4.16-5.3,10.59-7.82,18.23-7.32a36.27,36.27,0,0,1,8.39,1.66c-1.5-4-4.1-7.76-8.57-9a5.13,5.13,0,0,1-4-6c.53-2.68,3.45-5.36,8.33-4.58,5.24.66,12,4.7,15.19,19.67a37.84,37.84,0,0,1,8.82-1.82h0c7.58-.62,14.05,1.93,18.24,7.19,5.52,7,6.49,17.78,2.67,29.75C464.39,1878,454.83,1887.63,443.83,1887.64Zm-8.82-7.7,1.15.64a17.88,17.88,0,0,0,4.72,1.82c14.67,2.9,22.34-16.71,24.33-22.83,3.31-10.35,2.64-19.53-1.83-25.15-3.17-4-8.09-5.82-14-5.35h0a32.2,32.2,0,0,0-10.14,2.52l-2.89,1.28-.53-3.13c-1.33-8-4.4-17.64-11.52-18.55-1.54-.17-2.4.11-2.73.46,7.15,2.29,11.79,8.32,13.73,17.85l1,4.94-4.52-2.25a31.31,31.31,0,0,0-11.41-3.12c-6.07-.48-10.81,1.42-14,5.45-4.44,5.64-5,14.77-1.68,25,2,6.11,9.49,25.85,24.37,22.82a18.37,18.37,0,0,0,4.7-1.82Z" transform="translate(0 3.58)"/><path class="cls-28" d="M442.46,1826.12a4.62,4.62,0,0,1-4.62-4.21c-.21-2-.39-7,2.39-11.08,2.41-3.66,6.4-5.52,9.32-6.43a4.67,4.67,0,0,1,4.11.54,4.57,4.57,0,0,1,2,3.6c.3,4.43-.5,8.12-2.4,10.93-2.42,3.67-6.41,5.52-9.33,6.43l0,0A5,5,0,0,1,442.46,1826.12Zm8.26-17.29c-1.47.83-4.69,2.14-6.39,4.74a12.09,12.09,0,0,0-1.62,7.53c1.8-.59,4.79-1.88,6.42-4.37C450.41,1814.83,450.94,1812.17,450.72,1808.83Z" transform="translate(0 3.58)"/><text class="cls-29" transform="translate(43.92 484)">飽足感</text><rect class="cls-20" x="43.89" y="513.14" width="438.36" height="26.31" rx="4.72"/><path class="cls-24" d="M474.1,538.34H52a10.62,10.62,0,0,1-10.61-10.62v-10A10.63,10.63,0,0,1,52,507.08H474.1a10.64,10.64,0,0,1,10.62,10.62v10A10.63,10.63,0,0,1,474.1,538.34ZM52,512a5.68,5.68,0,0,0-5.68,5.68v10A5.68,5.68,0,0,0,52,533.4H474.1a5.69,5.69,0,0,0,5.69-5.68v-10A5.69,5.69,0,0,0,474.1,512Z" transform="translate(0 3.58)"/><path class="cls-30" d="M52,512a5.69,5.69,0,0,0-5.68,5.68v10A5.69,5.69,0,0,0,52,533.4H343.76a5.68,5.68,0,0,0,5.68-5.68v-10a5.68,5.68,0,0,0-5.68-5.68Z" transform="translate(0 3.58)"/><path class="cls-24" d="M913.09,1122.23a15.38,15.38,0,0,0-21.74,0h0l-1.86,1.86-1.88-1.87a15.36,15.36,0,0,0-22.38,21c.22.23.45.46.69.68l22.69,22.7a1.26,1.26,0,0,0,1.72,0L913.06,1144a15.42,15.42,0,0,0,0-21.76Z" transform="translate(0 3.58)"/><path class="cls-35" d="M589,1332.65c-5.88,7.57-15.85,40.84-16.17,45.86s10.76,9.94,18.19,13c11.25,4.61,7.12,20.17-5.35,21-11.09.7-39.81,2.38-39.76-13.68.07-19.69-17.62-17.24-19-28.84s-6.33-35.32-9.9-56c-1.25-7.23-2.14-2.59-3.53-5.54" transform="translate(0 3.58)"/><path class="cls-24" d="M574.43,1417.72c-11.38,0-22.23-1.54-28.51-7.46a15.33,15.33,0,0,1-4.88-11.51c0-8.77-3.93-11.46-8.94-14.89-4.09-2.78-9.17-6.26-10-13.36s-3.06-18.83-5.41-31.37c-1.5-8-3.08-16.38-4.45-24.31-.07-.42-.14-.76-.2-1a6.79,6.79,0,0,1-2.94-3.24l8.78-4.16a3.76,3.76,0,0,0-3-1.65h.08c5.41,0,6.36,5.49,6.87,8.45,1.36,7.89,2.93,16.22,4.43,24.17,2.38,12.71,4.64,24.71,5.5,32,.29,2.47,1.83,3.74,5.84,6.47,5.58,3.81,13.22,9,13.18,22.94a5.58,5.58,0,0,0,1.83,4.42c6.44,6.06,26.25,4.8,32.76,4.41,4.41-.29,6.84-3.2,7.3-6,.24-1.47.12-4.18-3.48-5.65-10.53-4.3-21.71-9.58-21.2-17.78.39-6,10.63-40.1,17.18-48.54l7.68,6c-5,6.42-14.87,38.68-15.16,43.19.23.2,2.18,2.86,15.18,8.17,6.86,2.82,10.54,9.18,9.38,16.22-1.28,7.77-8,13.56-16.27,14.07C582.15,1417.54,578.26,1417.72,574.43,1417.72Z" transform="translate(0 3.58)"/><path class="cls-35" d="M788.06,1227.44s14.56-23.4,4.77-29.51-17.17,5.15-19.73,26.89" transform="translate(0 3.58)"/><path class="cls-24" d="M792.19,1230l-8.26-5.13c5.54-8.94,9.51-20.85,6.32-22.83-2.15-1.36-3.15-.89-3.57-.67-2.9,1.4-6.93,8.53-8.75,24l-9.64-1.13c1.41-12,5-27.22,14.19-31.63,2.84-1.34,7.37-2.28,12.92,1.17C808.64,1202.07,795.05,1225.4,792.19,1230Z" transform="translate(0 3.58)"/><path class="cls-35" d="M709.91,1197.79c11.74,7,35.19,16.69,51.68,19.92s37.42,10.15,48.11,36.45,35.64,56.77,41.87,65.07,20.5,28.15,19.16,36.92-9.8,18-41,3.69-49.45-22.15-70.84-21.69a230.55,230.55,0,0,1-51.23-4.92c-9.5-2.15-31.78-7.69-32.07,11.07s-4.29,56.68,1.5,60.6,10.71,6.12,21.28,10.31c6.14,2.44,7.73,17.31-7.86,19.16S650.66,1438.75,644,1421s-12.25-36.45-15.59-40.14-16.68-34.77-35.42-35.41c-20.27-.69-67-2-74.43,7s-20.68,48-20.83,53.84,16,14.46,31.11,19.54,7.8,20.53-3.56,21.92-55.95,11.53-63.3-10.39-31-39.11-30-52.69c1.23-16.92,3.44-53.69-16.78-66.05-12.32-7.54-22-6.16-32.52,0-16.81,9.81-39.42,72.14-114.23,93.37-52.92,15-142.55,7.07-188-75.64-17.18-31.3,6.22-35.12,24-16.28,29.39,31.18,83.36,94,154.2,43.92,44-31.07,41.25-47.08,50.79-74.75,5.89-17.11,25.82-77,62.65-90.58s109.69-45.34,136-50.63c29.84-6,70.08-12.19,132.75,14.76C682.88,1180.87,693.13,1187.72,709.91,1197.79Z" transform="translate(0 3.58)"/><path class="cls-24" d="M492.22,1455.74c-15.09,0-29.92-3.47-34.45-17-3.27-9.75-10.3-18.91-16.51-27-7.69-10-14.34-18.66-13.7-27.43,1-13.88,3.69-50.75-14.68-62-9.82-6-17.68-6-28,0-4,2.37-9.42,9.61-15.65,18-16.75,22.54-44.78,60.25-99.59,75.81-62.62,17.76-149.79,1-193-77.75-11.19-20.38-5.66-28.66-1.37-31.78,7.79-5.7,21.43-1.32,32.43,10.34l3.62,3.87c29.9,31.91,79.92,85.34,144.81,39.48,35.09-24.8,39.22-39.11,44.94-58.91,1.24-4.29,2.54-8.8,4.22-13.67l.39-1.13c6.65-19.33,26.89-78.18,64.92-92.16,12-4.42,27.88-10.78,44.7-17.53,34.62-13.91,73.86-29.65,92-33.3,33.13-6.65,73.62-11.52,135.37,15,38.73,16.65,50.51,23.76,65.42,32.77l4.16,2.5c11.41,6.83,34.33,16.25,50.25,19.36,17.94,3.52,40,11.14,51.36,39.12,9.14,22.49,29.47,48.77,38.16,60l3.15,4.1c21.73,28.9,20.43,37.43,20,40.23a16.57,16.57,0,0,1-8.43,12.5c-8.31,4.47-21,2.68-38.77-5.46-30.29-13.89-48.24-21.71-68.89-21.28a237.29,237.29,0,0,1-52.3-5c-6.57-1.5-18.8-4.27-24-.23-1.78,1.4-2.67,3.71-2.73,7.07-.07,4.77-.38,10.76-.71,17.13-.66,12.71-1.89,36.35.67,40.1,5,3.29,9.42,5.3,20,9.52,4.89,1.92,7.86,7.78,7.05,13.93-1,7.51-7,12.63-16,13.71-15.07,1.78-43.16,5.11-51.19-16.22-2.17-5.76-4.22-11.62-6.11-17-3.11-8.86-7-19.88-8.63-21.73a37.84,37.84,0,0,1-3.79-5.91c-5.2-9-16-27.61-28.5-28-56.18-2-68.53,2.56-70.86,5.4-6.93,8.47-19.7,46.76-19.83,51.15.66,2.17,10.65,9.41,28.09,15.25,7.89,2.64,12.2,8.31,11.5,15.15-.76,7.61-7.76,14.33-15.93,15.34-1.3.15-3,.42-5.13.75C513.31,1454.06,502.71,1455.74,492.22,1455.74Zm-93.08-146.66c6.07,0,12.07,1.93,18.35,5.76,23,14.06,20.1,53.37,18.87,70.15-.39,5.42,5.58,13.2,11.9,21.42,6.63,8.63,14.15,18.4,17.89,29.56,5.3,15.8,38.82,10.5,53.13,8.21,2.21-.35,4.07-.64,5.44-.82,4.53-.55,7.9-4.29,8.22-7.44s-2.82-5-5.52-5.91c-5.75-1.92-34.42-12.13-34.12-23.83.17-7,13.82-46.74,21.82-56.52,6.32-7.73,29.68-10.22,78-8.63,17.37.59,29.38,21.3,35.84,32.42a42,42,0,0,0,2.71,4.43c2.73,3,5.44,10.56,10.4,24.71,1.88,5.36,3.9,11.15,6,16.85,5.16,13.69,24.34,12.63,41.9,10.54,4.92-.57,7.88-2.73,8.31-6.07.31-2.45-.86-4.31-1.56-4.6-11.1-4.4-16.11-6.68-22.12-10.75-5.79-3.92-5.71-17.49-4.15-47.51.33-6.25.63-12.13.7-16.82.1-6.11,2.16-10.77,6.11-13.88,8.5-6.64,22.93-3.35,30.69-1.58a225,225,0,0,0,50.83,5c22.36-.37,41.29,7.64,72.77,22.08,19.49,9,27.72,7.41,30.89,5.72a7.75,7.75,0,0,0,3.89-6.06c.56-3.7-4-14.48-18.33-33.6l-3.08-4c-8.9-11.51-29.75-38.45-39.35-62.06-9.73-23.92-28.15-30.5-44.87-33.78-17.38-3.4-41.09-13.26-53.1-20.47l-4.18-2.51c-14.62-8.83-26.18-15.8-64.35-32.21-59.42-25.58-98.32-20.9-130.14-14.49-17.32,3.48-56.16,19.06-90.42,32.81-16.92,6.79-32.87,13.2-45,17.63-34.09,12.54-53.3,68.4-59.62,86.75l-.38,1.13c-1.62,4.72-2.89,9.09-4.09,13.24-6,20.73-10.71,37.09-48.32,63.67-71.2,50.33-126.59-8.85-156.35-40.66l-3.6-3.84c-8.79-9.32-17.91-11.37-20.82-9.25-2.58,1.88-2.38,8.91,3.92,20.39,47.12,85.81,140.24,85.65,182.9,73.5,51.92-14.74,77.79-49.54,94.92-72.58,7.37-9.92,12.69-17.09,18.28-20.35C387,1311,393.09,1309.08,399.14,1309.08Z" transform="translate(0 3.58)"/><path class="cls-24" d="M767.18,1301.67a9.67,9.67,0,0,1-1.2-.08,8.54,8.54,0,0,1-5.73-3.47,8.9,8.9,0,0,1,1.68-12.15,8.47,8.47,0,0,1,12.16,1.76,8.86,8.86,0,0,1-1.71,12.14A8.42,8.42,0,0,1,767.18,1301.67Zm-.2-8.79s0,0,0,.06Z" transform="translate(0 3.58)"/><path class="cls-24" d="M708.91,1268.54c-11.5-14.31-24.27-34.47-19.83-49.19,1.26-4.16,4.51-9.68,12.9-12.36a13.78,13.78,0,0,1,11.71,1.51c13.06,8.16,17.87,38.69,18.37,42.14l-9.61,1.4c-1.66-11.33-6.91-30.94-13.91-35.3a4,4,0,0,0-3.61-.49c-4.73,1.51-6,4.09-6.55,5.91-2.44,8.08,4.33,23.14,18.1,40.3Z" transform="translate(0 3.58)"/><path class="cls-24" d="M871.24,1349.4c2.59,3.9-.23,10.58-6.3,14.93s-13.11,4.7-15.7.8.22-10.58,6.29-14.92S868.64,1345.51,871.24,1349.4Z" transform="translate(0 3.58)"/><path class="cls-35" d="M698.39,1332.52s19.35,38.88,38.65,56.89c8.25,7.69,3.17,17,17.6,19.82,17,3.24,29,2.57,34.12-6.21,3.4-5.83-11.08-12.82-16.69-20-6.55-8.31-7.07-43.43-7.07-43.43Z" transform="translate(0 3.58)"/><path class="cls-24" d="M770.43,1415.87a90.3,90.3,0,0,1-16.7-1.88c-11.52-2.21-13.86-8.57-15.74-13.67-1-2.78-1.9-5.17-4.26-7.37-19.71-18.38-38.88-56.65-39.69-58.28l-3.95-7.93,79.7,8.52.06,4.31c.22,13.9,2.22,35.66,6,40.51a50.42,50.42,0,0,0,7.37,6.7c6.23,5,14,11.31,9.71,18.69C788.27,1413.48,779.7,1415.87,770.43,1415.87Zm-63.49-77.55c6.65,12.14,20.18,35.19,33.42,47.54,4,3.78,5.55,7.83,6.75,11.11,1.59,4.33,2.32,6.31,8.45,7.48,16.61,3.19,25.56,2,29-3.88-.55-.67-4.86-4.15-7.43-6.23-3.22-2.61-6.56-5.31-8.89-8.25-6.11-7.78-7.62-31.38-8-42.08Z" transform="translate(0 3.58)"/><path class="cls-36" d="M691,1330.66l-13.36,3.1a4.11,4.11,0,0,1-4-1.31c-8.37-9.51-48.15-49.76-76.31,8.8a4.15,4.15,0,0,1-3.44,2.39s-44.72,2-45.13,1.95l-1.64-.2c-2.47-.59-2.45-4.56-1.51-7,2.11-5.3,3.8-12.76,1.47-26.17-5.06-29.19-79.41-83.6-119.24-26-8.34,12-6,21-8.75,27.52-1.83,4.45-5.95,1.89-12.63,0-3-.82-7.55-2.11-6.84-5.14,4.78-20.45,14.56-71.64-20.21-107.09a4.23,4.23,0,0,1,1.67-7l80.18-31.18s28-9.85,37.39-13.06c.23-.08,26.64-7.58,43.94-7.26.25,0,24.58-.32,38.24,1.77.28,0,22.29,4.45,29.54,6.68,2.66.82,23.35,8.17,23.35,8.17,2.62.92,2.35,5.6.71,7.87-8.93,12.39-23.66,54,58.86,156.24A4.23,4.23,0,0,1,691,1330.66Z" transform="translate(0 3.58)"/><path class="cls-24" d="M548.94,1350.42a4.49,4.49,0,0,1-1.3-.1l-1.12-.12a7.41,7.41,0,0,1-5.29-3.87c-1.66-3.19-1.11-7.2-.14-9.66,1.71-4.33,3.4-10.91,1.21-23.57-2.44-14-27.15-39.51-56.3-45.92-15.44-3.38-37.41-2.36-54.17,21.87-4.82,7-5.6,12.73-6.28,17.82a34.45,34.45,0,0,1-2,8.78c-3.18,7.71-10.56,5.35-15,3.94-1.05-.35-2.21-.72-3.45-1.06-3.31-.92-12.05-3.36-10.28-10.92C405.33,1263,399,1228.48,376,1205a9.08,9.08,0,0,1,3.62-15s79.3-30.83,79.91-31.08c.17-.06,28.22-9.92,37.59-13.13.19-.07,27.29-7.69,45.61-7.53,4.21-.08,26-.13,38.89,1.83.65.1,22.76,4.55,30.22,6.84,2.67.82,23.55,8.23,23.55,8.23a7.55,7.55,0,0,1,4.71,5,12.3,12.3,0,0,1-1.68,10.25c-6.94,9.61-23.21,48.9,58.7,150.34a9.05,9.05,0,0,1,1.52,8.69,8.94,8.94,0,0,1-6.49,5.86l-13.34,3.11a9.1,9.1,0,0,1-8.78-2.85c-4.75-5.41-21.63-22.7-39.12-20.45-11.09,1.53-20.9,11-29.15,28.15a9,9,0,0,1-7.46,5.13C560.26,1350.05,551.55,1350.42,548.94,1350.42ZM473.36,1256a69.06,69.06,0,0,1,14.73,1.65c31.88,7,60.46,34.66,63.78,53.76,2.6,15,.44,23.28-1.74,28.78a2.23,2.23,0,0,0-.15.52c4.18-.18,27.81-1.24,43.69-2,9-19.91,21.34-31.2,35.87-33.21,21.66-3.06,40.6,15.56,47.74,23.67l11.92-3.12c-83.55-103.14-68.89-147.18-58.71-161.32a2.7,2.7,0,0,0,.29-.91c-4.61-1.63-19.6-7-21.83-7.63-6.73-2.07-27.7-6.31-29-6.54-12.34-1.89-34.74-1.71-37.24-1.71-16.66.17-42.43,7-42.68,7.06-9.19,3.16-37.19,13-37.19,13h0l-80,31.12c25.25,24.75,32.59,61.74,21.88,109a28.29,28.29,0,0,0,3,1c1.36.37,2.64.78,3.83,1.17,1,.33,2.34.74,3.23,1a32.61,32.61,0,0,0,1.1-5.73c.74-5.55,1.76-13.17,7.91-22C436.3,1265.49,453.54,1256,473.36,1256Zm158.72-91.68a.06.06,0,0,1,0,0A.08.08,0,0,0,632.08,1164.36Z" transform="translate(0 3.58)"/><path class="cls-37" d="M967.92,1517.63a47.13,47.13,0,0,0-9.33,14.37,49.11,49.11,0,0,0-.74,37.22l.18-.07a43.21,43.21,0,0,0,2.71,5.86A45.33,45.33,0,0,0,994,1598.68l52.44,7.79a32.41,32.41,0,0,0,34.33-19.81,34.39,34.39,0,0,0-3.22-32.78l-6.26-6.64-7.08-5.84-34.3-28.29a45.29,45.29,0,0,0-55.93-.75Z" transform="translate(0 3.58)"/><path class="cls-20" d="M1085.4,1594.47l36.94,16.58a4.07,4.07,0,0,1,1.26,6.49,6.49,6.49,0,0,0-1.35,2.18,10.2,10.2,0,0,0-.19,7.77,9.76,9.76,0,0,0,18.16.33,10.12,10.12,0,0,0-1.62-10.49,4.09,4.09,0,0,1-.67-4.3l1.1-2.61a3.91,3.91,0,0,1,3.54-2.41,9.76,9.76,0,0,0,8.63-6,10.19,10.19,0,0,0-5.06-13.21,9.68,9.68,0,0,0-12.87,5.14v0a6.92,6.92,0,0,0-.69,2.6,4,4,0,0,1-4.13,3.8,3.82,3.82,0,0,1-1.37-.33l-37-16.58A42.22,42.22,0,0,1,1085.4,1594.47Z" transform="translate(0 3.58)"/><path class="cls-28" d="M966.81,1508c-.11.08-.23.14-.34.23A57.89,57.89,0,0,0,953.68,1579a53.11,53.11,0,0,0,39,27.51l52.76,8.06a39.73,39.73,0,0,0,20.31-2.52,40.29,40.29,0,0,0,14.62-10.18l34.71,15.47a18.11,18.11,0,0,0-.59,14,17.5,17.5,0,0,0,23.41,9,18.3,18.3,0,0,0,8.76-24,17,17,0,0,0,1.94-.66,18.2,18.2,0,0,0,9.91-23.41v.22s0-.08,0-.12a17.46,17.46,0,0,0-32.49-.57l-34.63-15.64a42.47,42.47,0,0,0-2.69-18,40.93,40.93,0,0,0-7.11-12.08,4.51,4.51,0,0,0-.54-.44,36.14,36.14,0,0,0-4.39-4.27l-41.64-34.17A53,53,0,0,0,966.81,1508Zm160.14,92.9a3.84,3.84,0,0,0,1.37.34,4,4,0,0,0,4.13-3.8,7,7,0,0,1,.68-2.61l0,0a9.66,9.66,0,0,1,12.87-5.14,10.19,10.19,0,0,1,5.06,13.21,9.74,9.74,0,0,1-8.63,6,3.92,3.92,0,0,0-3.54,2.42l-1.11,2.6a4.11,4.11,0,0,0,.68,4.31,10.14,10.14,0,0,1,1.62,10.49,9.76,9.76,0,0,1-18.16-.34,10.18,10.18,0,0,1,.18-7.76,6.72,6.72,0,0,1,1.36-2.19,4,4,0,0,0,.78-1.2,4.06,4.06,0,0,0-2-5.29l-36.94-16.57a42.57,42.57,0,0,0,4.67-11Zm-153-88.55a45.29,45.29,0,0,1,55.93.75l34.3,28.29,7.08,5.84,6.26,6.64a34.39,34.39,0,0,1,3.22,32.78,32.41,32.41,0,0,1-34.33,19.81L994,1598.68A45.33,45.33,0,0,1,960.74,1575a43.21,43.21,0,0,1-2.71-5.86l-.18.07a49.11,49.11,0,0,1,.74-37.22,47.13,47.13,0,0,1,9.33-14.37Z" transform="translate(0 3.58)"/><path class="cls-24" d="M1130.57,1642.53a18.24,18.24,0,0,1-16.64-11,18.88,18.88,0,0,1,.34-13.91l-33.79-15.07a40.35,40.35,0,0,1-35.15,12.58l-52.78-8.05a54.06,54.06,0,0,1-39.38-27.8c-12.76-23.87-7.33-54,12.92-71.53.11-.09.2-.14.31-.22l.41.44-.38-.46a53.89,53.89,0,0,1,68.87-.84l41.64,34.15a35.25,35.25,0,0,1,4.46,4.33l.09,0a2.69,2.69,0,0,1,.45.41,41.64,41.64,0,0,1,7.22,12.25,42.65,42.65,0,0,1,2.73,17.87l33.75,15.23a18.06,18.06,0,0,1,9.71-9.3,17.73,17.73,0,0,1,13.91.2,18.26,18.26,0,0,1,8.82,8.29l0-.48.9,2.32a18.87,18.87,0,0,1-10.25,24.19,13,13,0,0,1-1.36.48,18.91,18.91,0,0,1-9.31,24.15A17.76,17.76,0,0,1,1130.57,1642.53Zm-50.38-41.34.38.16,35.24,15.72-.25.55a17.61,17.61,0,0,0-.57,13.5,17,17,0,0,0,22.64,8.66,17.76,17.76,0,0,0,8.47-23.23l-.29-.64.66-.17a12.4,12.4,0,0,0,1.87-.62,17.65,17.65,0,0,0,9.65-22.52l-.07,0a17.24,17.24,0,0,0-9.11-9.63,16.61,16.61,0,0,0-13-.19,16.85,16.85,0,0,0-9.31,9.22l-.23.55-.54-.26-35-15.81,0-.4a41.63,41.63,0,0,0-2.65-17.76,40.19,40.19,0,0,0-7-11.92,1.36,1.36,0,0,0-.25-.2l-.21-.17a37.72,37.72,0,0,0-4.39-4.27l-41.64-34.15a52.64,52.64,0,0,0-67.39.84l-.22.13a.63.63,0,0,0-.12.1c-19.84,17.22-25.16,46.68-12.67,70a52.85,52.85,0,0,0,38.55,27.19l52.76,8a39.29,39.29,0,0,0,34.43-12.51Zm50.85,34.06a10.11,10.11,0,0,1-4.1-.87,10.24,10.24,0,0,1-5.54-5.84,10.91,10.91,0,0,1,.2-8.23,7,7,0,0,1,1.46-2.34,3,3,0,0,0,.66-1,3.52,3.52,0,0,0,.06-2.63,3.4,3.4,0,0,0-1.8-1.87l-37.54-16.85.35-.59a42,42,0,0,0,4.61-10.83l.18-.65.61.28,37,16.58a3,3,0,0,0,1.15.27h.2a3.28,3.28,0,0,0,2.23-.86,3.47,3.47,0,0,0,1.09-2.38,7.8,7.8,0,0,1,.7-2.71v-.11l.11-.12a10.39,10.39,0,0,1,5.66-5.53,10.2,10.2,0,0,1,7.93.18,10.83,10.83,0,0,1,5.34,14,10.32,10.32,0,0,1-9.13,6.32,3.41,3.41,0,0,0-3,2.08l-1.1,2.6a3.55,3.55,0,0,0,.58,3.69,10.65,10.65,0,0,1,1.7,11.1A10.45,10.45,0,0,1,1131,1635.25ZM1086.12,1595l36.33,16.32a4.42,4.42,0,0,1,2.39,2.5,4.66,4.66,0,0,1-.06,3.54,4.4,4.4,0,0,1-.9,1.4,5.67,5.67,0,0,0-1.22,2,9.7,9.7,0,0,0-.18,7.33,9.19,9.19,0,0,0,17.09.32,9.53,9.53,0,0,0-1.53-9.86,4.72,4.72,0,0,1-.75-4.94l1.1-2.59a4.52,4.52,0,0,1,4-2.79,9.2,9.2,0,0,0,8.12-5.61,9.64,9.64,0,0,0-4.76-12.44,9.1,9.1,0,0,0-7-.15,9.24,9.24,0,0,0-5,4.92l-.09.19a7,7,0,0,0-.61,2.35,4.59,4.59,0,0,1-1.49,3.17,4.35,4.35,0,0,1-3,1.16h-.27a3.78,3.78,0,0,1-1.57-.38l-36.39-16.31A44,44,0,0,1,1086.12,1595Zm-35.24,12.34a33.88,33.88,0,0,1-4.49-.31l-52.46-7.8a46.24,46.24,0,0,1-33.7-24,48.44,48.44,0,0,1-2.53-5.36l-.18.07-.22-.55a50.12,50.12,0,0,1,.78-37.69,47.33,47.33,0,0,1,9.43-14.54l6.15-5.34a45.94,45.94,0,0,1,56.63.78l41.39,34.11,6.3,6.71a35.1,35.1,0,0,1,3.33,33.41A33.2,33.2,0,0,1,1050.88,1607.38Zm-92.53-39,.21.55a44.16,44.16,0,0,0,2.68,5.79,45,45,0,0,0,32.87,23.37l52.44,7.8a31.53,31.53,0,0,0,4.33.31,32.09,32.09,0,0,0,29.39-19.78,34,34,0,0,0-3.17-32.21l-6.2-6.57-41.33-34.06a44.89,44.89,0,0,0-55.21-.76l-6.06,5.27a45.76,45.76,0,0,0-9.16,14.15,48.81,48.81,0,0,0-1,36.21Z" transform="translate(0 3.58)"/><path class="cls-28" d="M975.17,1571.11l0,.1a3.89,3.89,0,0,0-5.08-2.27,3.81,3.81,0,0,0-1.27.86,4.76,4.76,0,0,0-.91,1.27,5.16,5.16,0,0,0-.21.77,2.22,2.22,0,0,0-.08.77,2.38,2.38,0,0,0,0,.8,4,4,0,0,0,2.32,2.87,5.68,5.68,0,0,0,1.52.34,3.81,3.81,0,0,0,1.49-.3,4,4,0,0,0,2.22-5.21Z" transform="translate(0 3.58)"/><path class="cls-28" d="M981.44,1556.36a3.89,3.89,0,0,0-5.08-2.27,3.81,3.81,0,0,0-1.27.86,3.22,3.22,0,0,0-.89,1.31,4,4,0,0,0,2,5.27,3.79,3.79,0,0,0,1.52.34,3.94,3.94,0,0,0,1.48-.29,4,4,0,0,0,2.18-2.13A4.13,4.13,0,0,0,981.44,1556.36Z" transform="translate(0 3.58)"/><path class="cls-28" d="M989.55,1577.54a3.89,3.89,0,0,0-5.08-2.27,3.81,3.81,0,0,0-1.27.86,3.61,3.61,0,0,0-.91,1.27,2.59,2.59,0,0,0-.21.77,2.22,2.22,0,0,0-.08.77l0,.76a4,4,0,0,0,2.29,3,3.5,3.5,0,0,0,1.5.3,3.68,3.68,0,0,0,1.5-.26A4,4,0,0,0,989.55,1577.54Z" transform="translate(0 3.58)"/><path class="cls-28" d="M996.08,1564.34a4,4,0,0,0-.25-1.54,3.88,3.88,0,0,0-5.08-2.27,3.73,3.73,0,0,0-1.3.84,4.06,4.06,0,0,0,1.15,6.6,3.84,3.84,0,0,0,3,0,4,4,0,0,0,2.14-2.11A3.37,3.37,0,0,0,996.08,1564.34Z" transform="translate(0 3.58)"/><path class="cls-28" d="M1042.56,1586.49a4,4,0,0,0-.72,8,33.34,33.34,0,0,0,35.16-24.59,4.17,4.17,0,0,0-.11-2.59,4,4,0,0,0-2.62-2.45,3.91,3.91,0,0,0-4.82,2.81A25.57,25.57,0,0,1,1042.56,1586.49Z" transform="translate(0 3.58)"/><path class="cls-28" d="M1015.22,1477.85l-6-1.8c45.14-157.13,174.12-164.5,175.42-164.55l.26,6.39C1183.64,1318,1059,1325.26,1015.22,1477.85Z" transform="translate(0 3.58)"/><text class="cls-38" transform="translate(932.32 1164.59) scale(0.98 1)">-2</text><text class="cls-39" transform="translate(848.96 1269.48) scale(0.98 1)">飽食度 +10</text><path class="cls-40" d="M183.9,719.38H727.77c33.48,0,60.87-21.35,60.87-47.44V651c0-26.09-27.39-47.44-60.87-47.44H257.37c-4.73-16.53-12.92-35.07-20.51-52.52-3.76,18.66-11.48,35.77-19.88,52.52H183.9C150.42,603.6,123,625,123,651v20.9C123,698,150.42,719.38,183.9,719.38Z" transform="translate(0 3.58)"/><path class="cls-40" d="M180.66,1560.88H555c23.05,0,41.9,23.26,41.9,51.7v22.77c0,28.44-18.85,51.71-41.9,51.71H231.23c-3.25,18-8.89,38.22-14.12,57.23-2.58-20.34-7.9-39-13.68-57.23H180.66c-23,0-41.9-23.27-41.9-51.71v-22.77C138.76,1584.14,157.62,1560.88,180.66,1560.88Z" transform="translate(0 3.58)"/><path class="cls-24" d="M190.47,1632.55a27.13,27.13,0,0,1-1.94,8.51l-3-1.4a37,37,0,0,0,1.77-7.83ZM204.1,1631H186v-3.29h7.56V1625H187v-3.22h6.57v-2.38H187v-14.77h16.19v14.77H196.8v2.38h6.43V1625H196.8v2.71h7.3Zm-10.57-14.59v-8.64h-3.79v8.64Zm-.82-1.53-1.66.6a48.28,48.28,0,0,0-.74-6.06l1.61-.6A46.88,46.88,0,0,1,192.71,1614.86Zm2.36,25.23-3.15.42a33.2,33.2,0,0,0-.74-7.71l2.94-.33A39.86,39.86,0,0,1,195.07,1640.09Zm5-.85-3.07.5a28.65,28.65,0,0,0-1.65-7.15l3-.41A37.52,37.52,0,0,1,200.07,1639.24Zm.44-22.85v-8.64H196.8v8.64Zm-.48-7.07a35,35,0,0,1-1.17,6.18l-1.62-.56a35.93,35.93,0,0,0,1.09-6.14Zm4.41,28.81-2.94.72a36.45,36.45,0,0,0-1.74-6.47l2.87-.64A33,33,0,0,1,204.44,1638.13ZM222,1613.76h-8.12v7.11h6.85v19.93H217.1v-2.36h-8v2.36h-3.55v-19.93h4.74v-17h3.61v6.35H222Zm-4.88,21.08v-10.45h-8v10.45Z" transform="translate(0 3.58)"/><path class="cls-24" d="M250.51,1619.82h-7.92v2h3.06v-1.18H249V1624H232.85v-3.33h3.26v1.18h3.17v-2h-7.92v-2.3h7.92v-1.34h-6.43v-7.75h6.43v-1.24h-7.92v-2.27h7.92v-1.37h3.31v1.37h7.88v2.27h-7.88v1.24H249v7.75h-6.41v1.34h7.92Zm16.82,16.12H251.26l0,1.18c0,1.47-.41,2.44-1.21,2.9s-2.74.71-5.81.73l-1.15-3.16,3.79,0c.55,0,.83-.31.83-.93l0-.68H231.36v-2.67h16.35v-1.49H233.29v-2.46h14.42v-1.42q-9.61.24-12.22.21l-1.11-2.75q17.2.23,27.46-1.37l1.78,2.54q-6.08.9-12.36,1.24v1.55h14.17v2.46H251.26v1.49h16.07Zm-28-24.6v-1.09h-3.17v1.09Zm0,2.88v-1.14h-3.17v1.14Zm6.37-2.88v-1.09h-3.06v1.09Zm0,2.88v-1.14h-3.06v1.14Zm21.64-2.48h-4.66c-1.63,0-2.44-.86-2.44-2.59v-2h-3.93q-.21,4.23-4.66,5.56l-1.86-2.55a5.31,5.31,0,0,0,2.42-1.49,3.83,3.83,0,0,0,.59-2.29v-2h10.83v4.11c0,.46.18.68.56.68h3.15Zm.32,9.42-1.07,3.1a25,25,0,0,1-7.8-2.42,26.5,26.5,0,0,1-7.4,2.34l-1.43-2.94a27.62,27.62,0,0,0,5.6-1.34,16.68,16.68,0,0,1-3.39-3.86h-1.35v-2.71h15V1616a25.06,25.06,0,0,1-3.83,3.9A31.4,31.4,0,0,0,267.61,1621.16Zm-6-5.12h-5.89a9.12,9.12,0,0,0,2.89,2.33A11.27,11.27,0,0,0,261.62,1616Z" transform="translate(0 3.58)"/><path class="cls-24" d="M288.27,1614h-3v6.06c1.26-.68,2.11-1.15,2.56-1.41l.32,3.87-2.88,1.5v12.59a4.5,4.5,0,0,1-.73,2.86,2.69,2.69,0,0,1-1.73,1,41.4,41.4,0,0,1-4.32.14l-.86-3.68a18.88,18.88,0,0,0,3.48-.17.76.76,0,0,0,.53-.8v-10.15c-1.45.68-2.89,1.27-4.3,1.78l-.74-3.7a42,42,0,0,0,5-2.15V1614h-4.88v-3.6h4.88v-6.55h3.63v6.55h3ZM313,1637.8l-2.14,3.06a68.35,68.35,0,0,0-9.71-5.65,26,26,0,0,1-12.18,5.5l-1.78-3.41q6.66-1.26,10.16-4-2.37-1.21-6.69-2.95a60.26,60.26,0,0,0,3.43-7.54h-5v-3.48h6.33q1-2.87,2.14-6.47l3.46.81a48.85,48.85,0,0,1-1.81,5.66h5.58a11.64,11.64,0,0,0,.29-1.94l3.46.6-.16,1.34h4.42v3.48h-5a25.8,25.8,0,0,1-4,9.52Q309.55,1635.55,313,1637.8Zm-1-21.33h-3.71v-4.65H293.39v4.69H289.7v-8.16h9a27.66,27.66,0,0,0-1.82-3.64l3.79-1.32a25.86,25.86,0,0,1,2.4,5H312Zm-7.88,6.39h-6.15q-1.23,3.15-2.32,5.58c2.34,1.08,3.9,1.84,4.68,2.25A22.28,22.28,0,0,0,304.08,1622.86Z" transform="translate(0 3.58)"/><path class="cls-24" d="M338.63,1612.32l-2.64,2.54a40.77,40.77,0,0,0-5.56-6.26,44.68,44.68,0,0,1-4,5h8.18v3.32h-3.06v3.19h5.24v3.39h-5.24v11.47a42.69,42.69,0,0,0,5.36-1.41l.18,3.51a129.59,129.59,0,0,1-14.37,3.19l-.63-3.35q4-.66,6-1.1v-12.31H322.7V1620h5.45v-3.14H325v-1.82c-.64.62-1.12,1.07-1.43,1.33l-1.73-3.27a33.74,33.74,0,0,0,7.56-9.65l3.29,1.14a4.46,4.46,0,0,1-.49,1A53.28,53.28,0,0,1,338.63,1612.32ZM327.16,1634l-2.92,1a49.54,49.54,0,0,0-1.54-8.93l2.93-.93A56.11,56.11,0,0,1,327.16,1634Zm10-8a56.62,56.62,0,0,1-1.65,7.23l-2.78-.93a55.91,55.91,0,0,0,1.49-7.15Zm21.09,14.17H338.27v-3.63h3.23l1.11-13.13h-4.38v-3.59h4.62l1-11.6h-4.22v-3.7H356.4l-.43,15.3h2.24v3.59h-2.32l-.36,13.13h2.68Zm-6-16.76h-5.9l-1,13.13h6.49Zm.51-15.19h-5.12l-.95,11.6h5.68Z" transform="translate(0 3.58)"/><path class="cls-24" d="M383.69,1610.41l-2.07,2.92a23.49,23.49,0,0,0-1.82-1.86v2.66H372v-1.81a33.52,33.52,0,0,1-3.71,2.74l-1.19-3.43a27.92,27.92,0,0,0,8-8.24l3.35,1.09a3.1,3.1,0,0,1-.58.93A57,57,0,0,1,383.69,1610.41Zm-.58,27.82-3.13,1.55c-.24-.7-.56-1.51-1-2.44-1.86.78-4.9,1.88-9.12,3.33l-1.15-3.47a1.21,1.21,0,0,0,.81-1.22v-20.23h12.06v13.68H373v6.51q2.94-1.05,4.51-1.74a11.62,11.62,0,0,0-1.37-2.42l3.19-1.46A36.29,36.29,0,0,1,383.11,1638.23ZM378.25,1621v-2H373v2Zm0,5.25v-2.15H373v2.15Zm.91-15.36a28,28,0,0,0-3.23-2.77,26.57,26.57,0,0,1-2.44,2.77Zm24.51,15.36h-15v9.94a43.38,43.38,0,0,0,4.54-2l.44,3.6a61.1,61.1,0,0,1-8.12,3.14l-1.15-3.31a1.05,1.05,0,0,0,.68-1v-10.45h-2.21v-3.52h20.84Zm-1.77-5.9H384.28v-15.6H401.9Zm-10.44-9.46v-2.77h-3.81v2.77Zm0,6.14v-2.94h-3.81V1617Zm12.6,20.81-2,3.18a20,20,0,0,1-6.8-5.46,17.07,17.07,0,0,1-3.72-7.74l3.3-.81a15.7,15.7,0,0,0,1.7,4.15,27.37,27.37,0,0,0,3.51-3.86l3.14,1.74a28.85,28.85,0,0,1-4.64,4.87A17.84,17.84,0,0,0,404.06,1637.84Zm-5.59-26.95v-2.77h-3.71v2.77Zm0,6.14v-2.94h-3.71V1617Z" transform="translate(0 3.58)"/><path class="cls-24" d="M449.52,1613l-1.87,3.26a72.4,72.4,0,0,1-10.93-4.92v2.42H425.41v-2.37a80.68,80.68,0,0,1-10.83,4.83l-1.82-3.31q12.06-3.9,17.47-9.61l3.89,1a2.84,2.84,0,0,1-.51.72A48,48,0,0,0,449.52,1613Zm-6,16.63H422.06v6.95a52.35,52.35,0,0,0,8.17-2.38v3.6a70.82,70.82,0,0,1-11.68,3.14l-1.21-3.22a1.85,1.85,0,0,0,.91-1.53V1616h25.28Zm-3.81-8.39v-2.06H422.06v2.06Zm0,5.17v-2.15H422.06v2.15Zm-4.29-15.79a41.68,41.68,0,0,1-4.38-3.08,48,48,0,0,1-4.37,3.08Zm12.92,27.65-2.18,2.84a86.16,86.16,0,0,0-16.47-7.8l2.14-2.7q2.06.67,6.27,2.46a26.55,26.55,0,0,0,7.32-4.24l2.64,2.38a33,33,0,0,1-5.67,3.8C444.54,1636.06,446.52,1637.14,448.35,1638.27Z" transform="translate(0 3.58)"/><path class="cls-24" d="M474.9,1637.24a3.34,3.34,0,0,1-.71,2.22,2.85,2.85,0,0,1-1.92,1,32.64,32.64,0,0,1-3.68.15l-1.07-3.52A12.87,12.87,0,0,0,471,1637a.83.83,0,0,0,.46-.85v-2.54a40.63,40.63,0,0,1-6.31,2.63l-1.15-2.44a15.23,15.23,0,0,1-2.86,7l-2.8-2.61q2.52-2.87,2.52-8.87v-6.22H474.9Zm1.53-15.87H458.67v-3.08h3.93a22.27,22.27,0,0,0-1.11-3.23H459.6v-3h6.59a12.21,12.21,0,0,0-.83-1.61l3.63-.77a14.55,14.55,0,0,1,1.13,2.38h5.69v3h-1.73a21.81,21.81,0,0,1-1.32,3.23h3.67Zm17.42-10.44h-3.62V1609H462.76v1.92h-3.54v-5H474.7c-.38-.84-.68-1.46-.91-1.86l3.79-.72c.43,1,.77,1.85,1,2.58h15.26Zm-22.42,19.59v-4.4h-7.09v1.14a40.57,40.57,0,0,1,5.62.89l-.7,2.79a34.74,34.74,0,0,0-5-.81,14.92,14.92,0,0,1-.21,3.18A43.24,43.24,0,0,0,471.43,1630.52Zm-1.11-15.46H465.2a19.06,19.06,0,0,1,1,3.23h2.86A17.88,17.88,0,0,0,470.32,1615.06Zm24.36,21.64a5.31,5.31,0,0,1-1.09,3,3.29,3.29,0,0,1-2.54.9c-2.89,0-5.41,0-7.58-.08a17.25,17.25,0,0,1-3.92-.32,2.73,2.73,0,0,1-1.25-1,3.55,3.55,0,0,1-.58-2.14v-16.64h11v-1.69H477.62v-8.37h3.53v1.57h11.47v2.75H481.15v1.74h11.19v6.38H481.19v1.61H493v2.46H481.19v1.7H493v2.35H481.19v1.78H493v2.42H481.19v1.26a.75.75,0,0,0,.47.79,39.94,39.94,0,0,0,5.34.16,34.22,34.22,0,0,0,3.58-.11c.48-.08.71-.64.71-1.69Z" transform="translate(0 3.58)"/><path class="cls-24" d="M518.51,1625.15c-1.1.45-2.51,1-4.21,1.57v14h-3.59v-12.73c-1.39.44-3.46,1.06-6.23,1.86l-.79-3.64q3.29-.83,7-2v-8.35h-2.85a58.59,58.59,0,0,1-1.21,5.89l-3.16-.93a69.15,69.15,0,0,0,2-13.81l3.26.6c-.13,1.86-.29,3.44-.46,4.74h2.4V1604h3.59v8.37h3.34l0,3.51H514.3v7.11l3.93-1.47Zm20.81-16q-.11,7.21-.45,15.71c-.22,5.66-.43,9.28-.61,10.84a6.82,6.82,0,0,1-1.09,3.38,4.07,4.07,0,0,1-1.82,1.39,20.65,20.65,0,0,1-5,.35c-.95,0-1.74,0-2.38-.06l-1.07-3.56c1.56.08,2.86.12,3.91.12a6.88,6.88,0,0,0,3.1-.39,2.22,2.22,0,0,0,.76-1.28q.22-.89.54-7.56t.44-15.34h-1.11a50.51,50.51,0,0,1-3.84,14.91,45.23,45.23,0,0,1-8.38,12.12l-3.06-2.44a42.36,42.36,0,0,0,8.17-11.13,40.53,40.53,0,0,0,3.6-13.46h-1.85a36.21,36.21,0,0,1-9.38,18.79l-3-2.34a30.37,30.37,0,0,0,8.85-16.45H524a33.5,33.5,0,0,1-4,7.4l-3.1-1.9q3.9-4.82,6.25-14.61l3.55.64a40.72,40.72,0,0,1-1.42,4.87Z" transform="translate(0 3.58)"/><path class="cls-24" d="M191.55,645.7l-2.26,3a22.13,22.13,0,0,0-1.49-1.78v2.15h-8.15v-1.53a31,31,0,0,1-3.87,2.9l-1.06-3.7a26.49,26.49,0,0,0,8.32-8.29l3.47,1.22a5.45,5.45,0,0,1-.44.85A53.85,53.85,0,0,1,191.55,645.7Zm-.4,27.7-3,1.78a16.61,16.61,0,0,0-1-2.94,60.93,60.93,0,0,1-9.82,3.6L176,672.63a1.87,1.87,0,0,0,1-1.69v-20h12.61v13.81h-9.14V671a35.34,35.34,0,0,0,5.12-2,11.36,11.36,0,0,0-1.07-2.17l2.95-1.57A34.16,34.16,0,0,1,191.15,673.4Zm-5-17.11v-2.2h-5.67v2.2Zm0,5.29v-2.5h-5.67v2.5ZM187,646.1a19.74,19.74,0,0,0-3-2.86,25.15,25.15,0,0,1-2.74,2.86Zm24.58,22.3c-.37,3.11-.87,5-1.48,5.7a3.79,3.79,0,0,1-2.4,1.24c-1,.14-4.61.21-10.88.21q-3.83,0-3.83-4.74V652.69a7.84,7.84,0,0,1-1,.93l-1.85-3.27a36.11,36.11,0,0,0,6.67-11.8l3.31,1a26.88,26.88,0,0,1-1.69,4.41H210.1q0,6,0,12.5a63.14,63.14,0,0,1-.31,7.38,5.1,5.1,0,0,1-.73,1.63,3.31,3.31,0,0,1-1.69,1.18,15.38,15.38,0,0,1-4.82.29l-1-3.43a12.76,12.76,0,0,0,3.94-.1,1.47,1.47,0,0,0,.78-.77,31.72,31.72,0,0,0,.34-5q.15-4.5.1-10.22h-10a35.69,35.69,0,0,1-2.64,4h9.5v11.16h-7.1v8.08a1.17,1.17,0,0,0,1.29,1.34c.86,0,1.88,0,3.07,0a58.33,58.33,0,0,0,5.86-.16q1.09-.17,1.51-4.49Zm-11.45-9.14v-4.59h-3.75v4.59Z" transform="translate(0 3.58)"/><path class="cls-24" d="M257.18,671.31,256.05,675q-4,.13-8.61.14a89.3,89.3,0,0,1-9.75-.36,15.1,15.1,0,0,1-5.31-1.7,11.49,11.49,0,0,1-4.12-3.79,36.25,36.25,0,0,1-5.48,7L220,673.4q6.79-6.28,8.49-16.68l3.73.58a45.91,45.91,0,0,1-2.32,8.47,9.67,9.67,0,0,0,7.36,5.17V654.22h-12.4V640h27.34v14.18H241v6.18H254.7V664H241v7.36c2.48.08,5,.13,7.52.13Q253,671.48,257.18,671.31Zm-8.67-20.69v-7.07H228.69v7.07Z" transform="translate(0 3.58)"/><path class="cls-24" d="M302.4,664.72a19.25,19.25,0,0,1-1.44,5.91c-.74,1.64-1.67,2.46-2.82,2.46q-3.48,0-6.69-9.43a36.65,36.65,0,0,1-3.85,3.45l-2.38-2.52a32.51,32.51,0,0,0,5.24-4.79,87.18,87.18,0,0,1-1.57-13.41H272.38v6.3a24.85,24.85,0,0,1-4.3,14.09l-2.48-3a21,21,0,0,0,3.13-11.66v-9h19.92a32.82,32.82,0,0,1,0-4.13l3.51-.11c0,1.68,0,3.1.12,4.24h4.33a11,11,0,0,0-2.52-2.54l2.76-1.9a14.35,14.35,0,0,1,3.39,3.22l-2,1.22h3.39v3.27h-9.13a59.36,59.36,0,0,0,.82,9.56,38.3,38.3,0,0,0,4.18-7.83l3,1.57a47.88,47.88,0,0,1-6.27,10.75,30.86,30.86,0,0,0,2,5.66,24.24,24.24,0,0,0,1.29,2.49.55.55,0,0,0,.43.26c.51,0,1-2.05,1.39-6.14ZM273.16,667a29.47,29.47,0,0,1-3.53,7.59l-2.88-1.82a28.4,28.4,0,0,0,3.59-7.28Zm14.28-15.52H273.61v-3h13.83ZM287.11,670a9,9,0,0,1-.76,3.59,3.45,3.45,0,0,1-1.53,1.65,9.88,9.88,0,0,1-3.49.4c-1.36,0-2.64,0-3.85-.12a3.83,3.83,0,0,1-2.59-1,3.43,3.43,0,0,1-.78-2.41V665h3.39v6.38c0,.68.35,1,1.07,1l2.8.09a2.13,2.13,0,0,0,1.81-.64,8.62,8.62,0,0,0,.71-3.41Zm-.5-7.11H274.47v-9.4h12.14Zm-3.39-3v-3.35h-5.36v3.35Zm.43,7.75-2.91,1.45a14.07,14.07,0,0,0-2.68-4.2l2.86-1.4A13.06,13.06,0,0,1,283.65,667.63Zm9.49,5.29-2.8,1.74a31.7,31.7,0,0,0-3.14-5.81l2.76-1.59A25.18,25.18,0,0,1,293.14,672.92Z" transform="translate(0 3.58)"/><path class="cls-24" d="M347.64,672l-1.15,3.51q-4.78.13-8.95.13-9.56,0-13.34-.84a15.16,15.16,0,0,1-6.62-3.23,43.28,43.28,0,0,1-3.59,4.83L311.1,674q5.53-6.16,6.82-12.09h-6.19v-3.52a41.66,41.66,0,0,0,5.52-7.29h-5.94v-3.43h10.16V651a43.2,43.2,0,0,1-5,7.42h5.12v3.47a26.45,26.45,0,0,1-2.32,6.71,13.26,13.26,0,0,0,4.38,2.36,20.53,20.53,0,0,0,4.56,1c1.41.11,4.33.17,8.78.17C340.39,672.12,344,672.06,347.64,672Zm-26.25-28-2.6,2.62a26.76,26.76,0,0,0-6.66-5.41l2.76-2.63A34,34,0,0,1,321.39,644Zm25,23.54a3.57,3.57,0,0,1-.85,2.13q-.84,1.11-4.86,1.11c-.47,0-.93,0-1.39,0l-1.17-3.39,3.89,0a.85.85,0,0,0,1-1V655H327.17v15.69h-3.53V651.8h2.16V639.69h18.25V651.8h2.36Zm-5.87-21.81V643H329.35v8.8h3.55v-6.1Zm.08,20.36H329.39v-9h11.23Zm-3.35-3V660H332.7v3.1Zm3.27-11.26v-3h-4.09v3Z" transform="translate(0 3.58)"/><path class="cls-24" d="M367.88,639.69c-.49,1.61-1.19,3.54-2.12,5.79l-1.39,3.14V676H360.7V654.94a38.47,38.47,0,0,1-2.52,3.12l-1.9-3.72a44.91,44.91,0,0,0,8-15.75ZM393,664.37c-.34,3.76-.82,6.2-1.46,7.31a2.91,2.91,0,0,1-2.61,1.68c-1.86,0-3.57-1.44-5.15-4.3s-2.79-7.6-3.62-14.2h-7.54v10.35q4.82-1.8,7.13-2.91l.49,3.84a68.63,68.63,0,0,1-11.05,4L368,666.58a2.13,2.13,0,0,0,.83-1.66V642.15a82.64,82.64,0,0,0,20.84-3.51l1.92,3.3a59.66,59.66,0,0,1-8.47,2.15q0,3.49.32,7.21h9v3.56H384a40.34,40.34,0,0,0,2.34,10.54c1,2.42,1.74,3.64,2.15,3.64a.46.46,0,0,0,.35-.21,10,10,0,0,0,.44-2.22,29.72,29.72,0,0,0,.28-4.15Zm-8.79,11.09H368.87v-3.55h15.36Zm-4.46-24.16q-.18-3.4-.24-6.53l-6.89.77v5.76Z" transform="translate(0 3.58)"/><path class="cls-24" d="M410.26,652.52q-1.92,12.19-5,19.14l-3.35-2a66.49,66.49,0,0,0,4.7-17.86Zm20,10.87c-.08,2.71-.23,4.88-.44,6.54a8.83,8.83,0,0,1-.8,3.24,5.68,5.68,0,0,1-1.47,1.47,5.4,5.4,0,0,1-2.76.83c-1.18.09-2.44.14-3.79.14s-2.89-.06-4.21-.18a5.65,5.65,0,0,1-2.63-.65,3.15,3.15,0,0,1-1-1.3,4.67,4.67,0,0,1-.38-2V648h3.69v22.42q0,1.53,1.8,1.47c1.2,0,3.22-.06,6-.06a2.33,2.33,0,0,0,1.32-.45c.44-.29.73-1.53.89-3.71s.23-4,.23-5.41Zm-3.31-13-3.14,2.34a52.6,52.6,0,0,0-8.51-11.64l2.6-2.33A55.58,55.58,0,0,1,427,650.35Zm11.51,18.21-3.58,1.74a67.74,67.74,0,0,0-6.32-16.56l3.23-1.77A82.3,82.3,0,0,1,438.48,668.56Z" transform="translate(0 3.58)"/><path class="cls-24" d="M451.71,648.58a50,50,0,0,1-1.25,10.12l-3.13-1.22a42.69,42.69,0,0,0,1.39-9.57Zm8.26,2-2,3a15.17,15.17,0,0,0-1.74-3v25.42h-3.59V639h3.59v7.23A26,26,0,0,1,460,650.54Zm21.76,22.13c0,2.24-1.55,3.35-4.66,3.35-1,0-2.11,0-3.26-.1l-1.25-3.33c2.68,0,4.31,0,4.87,0a.86.86,0,0,0,.83-1v-2.25H464.75a16.76,16.76,0,0,1-3.59,7.06L458.1,674q3.54-3.15,3.55-10.23v-7.26h20.08Zm1.85-18.12H460.09v-3H470v-2.09h-8.71v-2.87H470v-1.94h-9.94v-3H470v-2.58h3.51v2.58h9.34v3H473.5v1.94h8.23v2.87H473.5v2.09h10.08Zm-5.32,11.86v-2.17h-13c0,.61,0,1.33-.08,2.17Zm0-4.83v-2.11h-13v2.11Z" transform="translate(0 3.58)"/><path class="cls-24" d="M529.17,666.49A22,22,0,0,1,528,673.1a3.59,3.59,0,0,1-2.87,2.13,103.57,103.57,0,0,1-10.84.32c-2.13,0-4.6,0-7.43-.1s-4.51-.12-5-.17a4.58,4.58,0,0,1-1.58-.49,2.8,2.8,0,0,1-1.27-1.37,8.49,8.49,0,0,1-.46-3.29V654.9l-5,1.22-.42-3.68,5.38-1.36v-8.41h3.75V650l7.48-1.82v-9.28h3.67v8.27l13.25-3.47a118.36,118.36,0,0,1-4.09,20.77l-3.71-.79a96.61,96.61,0,0,0,3.38-15L513.4,651v16.6h-3.67V652l-7.48,1.86v16.72a.91.91,0,0,0,.72,1q.7.17,12.67.17c4.91,0,7.7-.07,8.38-.19s1.09-1,1.25-2.48.23-2.88.23-4.05Z" transform="translate(0 3.58)"/><path class="cls-24" d="M575.13,646.34l-1.45,3.35a70.66,70.66,0,0,1-10.24-3.47v1.57H550v-1.65a68.76,68.76,0,0,1-10.12,3.64L538,646.72q12.19-3.22,18-8.25l4,1a5.68,5.68,0,0,1-.74.81Q565.06,644,575.13,646.34Zm-3.77,14.1H541.89V649.51h29.47Zm-1.77,15.4H566v-1.51H547.47v1.51H543.7V662.3h25.89Zm-14.82-18.36v-5h-9.29v5ZM553,655.4l-2.61,1.69a28.57,28.57,0,0,0-3.42-2.5l2.56-1.78A27.16,27.16,0,0,1,553,655.4Zm13,11.51v-1.74H547.47v1.74Zm0,4.48v-1.86H547.47v1.86Zm-5.4-26.53q-3.33-1.9-4.06-2.36a22.24,22.24,0,0,1-3.87,2.36Zm7.17,12.62v-5H558.4v5Zm-1.57-3a27.52,27.52,0,0,1-3.47,2.46l-2.56-1.78c1.62-1.05,2.75-1.81,3.39-2.29Z" transform="translate(0 3.58)"/><path class="cls-24" d="M620.21,663.11l-2.13,3.07A100.57,100.57,0,0,0,603.7,656v19.84h-3.87V654.63a64.82,64.82,0,0,1-14.17,11.47l-2.14-3.2q14-8.26,19.27-19.3H584.22v-3.72h35.13v3.72h-12.3a51.36,51.36,0,0,1-3.35,6v2.07Q615.46,658.63,620.21,663.11Z" transform="translate(0 3.58)"/><path class="cls-24" d="M645.9,670.05l-2.56,3.08a46.83,46.83,0,0,0-4.66-4.73,33.4,33.4,0,0,1-6.82,7.62l-2.56-2.81a31,31,0,0,0,6.5-7.27c-.76-.71-2.7-2.2-5.83-4.49q1.51-6.24,2.24-10.7a15,15,0,0,1-2.78.16l0-3.64c1.69-.08,2.83-.16,3.43-.24q.81-3.88,1.37-8.31l3.51.51q-.37,3.71-1.07,7.36a20.46,20.46,0,0,0,3.71-.29,25.2,25.2,0,0,0,.2-3.1h3.39a21.65,21.65,0,0,1,0,2.59c.61-.06,1.25-.14,1.94-.25l0,3.64a18.17,18.17,0,0,1-2.1.33q-.78,9.63-3.27,15.5A60.77,60.77,0,0,1,645.9,670.05ZM640.05,650c-1.24.19-2.59.34-4,.44q-1,5.45-2,9.59c1.79,1.3,2.93,2.15,3.43,2.54A41.36,41.36,0,0,0,640.05,650Zm25.14,9.22h-7.92v12.54a3.79,3.79,0,0,1-.9,2.82,4.35,4.35,0,0,1-2.35,1.11,43.38,43.38,0,0,1-6,.25l-1.42-3.76c1.87.05,3.73.08,5.59.08a1.13,1.13,0,0,0,1.27-1.3V659.2h-9.23v-3.76h9.23v-4.73q3.15-3.65,5.71-7.16H645.13v-3.72h18.69v3.72q-3.23,4.56-6.55,8.64v3.25h7.92Z" transform="translate(0 3.58)"/><path class="cls-24" d="M685.35,669.66h-3.42v-2.07h-2.79V671h-3.47V641.86h9.68Zm-3.42-5.83V645.58h-2.79v18.25Zm29.23-1.9-3,1.63a10.15,10.15,0,0,0-1-1.86c-1.53.28-3,.49-4.26.64v3h6.56v3.18h-6.56v3.35h7.89v3.22H691.42v-3.22h7.89v-3.35h-6.5v-3.18h6.5v-2.75q-2.46.23-6,.23l-.75-2.9A12,12,0,0,0,697,655h-5v5q0,10.72-4.7,16l-2.68-2.77q3.82-4.56,3.83-12.44V639.69h21V649H692v2.91H710.7V655H701a26.47,26.47,0,0,1-3.47,4.61,49.79,49.79,0,0,0,7.6-.8,6.47,6.47,0,0,0-1.17-1.49l3-1.63A29.18,29.18,0,0,1,711.16,661.93Zm-5.42-16.1v-2.92H692v2.92Z" transform="translate(0 3.58)"/><path class="cls-24" d="M721.12,671.33a2.8,2.8,0,0,1,.86-2.08,3,3,0,0,1,2.12-.83,3,3,0,0,1,2.1.83,2.89,2.89,0,0,1-2,5,3.06,3.06,0,0,1-2.22-.84A2.77,2.77,0,0,1,721.12,671.33Zm5.42-29.57L726,664.43h-3.85l-.55-22.67Z" transform="translate(0 3.58)"/></g></svg>