<svg xmlns="http://www.w3.org/2000/svg" width="322.58" height="322.58" viewBox="0 0 322.58 322.58"><g transform="translate(-1152.899 -188.171)"><circle cx="161.29" cy="161.29" r="161.29" transform="translate(1152.899 188.171)" fill="#f4f5f3"/><circle cx="149.551" cy="149.551" r="149.551" transform="translate(1164.638 197.739)" fill="#e3f1f0"/><path d="M1556.07,192.956c-81.5,0-147.8,66.3-147.8,147.8a147.937,147.937,0,0,0,2.886,29.118c14.075-10.37,15.907-16.68,18.388-25.265.566-1.958,1.151-3.983,1.916-6.2l.17-.494c3.014-8.766,12.182-35.441,29.426-41.78.737-.271,1.512-.561,2.311-.863a4.06,4.06,0,0,1,1.712-1.142c36.294-14.116,36.321-14.125,36.393-14.148.093-.034,12.723-4.473,16.925-5.917.106-.036,12.39-3.548,20.672-3.409h.053c2.7-.02,11.973-.029,17.571.832.317.049,10.362,2.072,13.7,3.1,1.216.374,9.709,3.389,10.674,3.731a3.279,3.279,0,0,1,1.125.7c.716.295,1.436.593,2.165.907,17.559,7.552,22.9,10.774,29.659,14.854l1.874,1.128a86.273,86.273,0,0,0,22.776,8.781c1.08.211,2.194.46,3.324.754.921-4.353,2.621-8.65,5.758-10.158a5.814,5.814,0,0,1,5.856.535c5.014,3.127,1.536,11.026-.5,14.754a27.208,27.208,0,0,1,8.834,11.846c4.142,10.19,13.359,22.1,17.3,27.179.59.761,1.076,1.39,1.43,1.862,9.841,13.108,9.253,16.965,9.059,18.234a7.507,7.507,0,0,1-3.819,5.666c-3.763,2.031-9.51,1.221-17.567-2.476-11.247-5.159-18.805-8.461-26.268-9.385.21,6.252,1.1,14.722,2.691,16.735a23,23,0,0,0,3.337,3.043c2.829,2.286,6.35,5.131,4.4,8.467-2.122,3.629-6.012,4.717-10.219,4.717a41.006,41.006,0,0,1-7.558-.852c-5.22-1-6.281-3.881-7.133-6.2a7.7,7.7,0,0,0-1.933-3.34c-8.407-7.844-16.593-23.661-17.834-26.11-.261-.022-.521-.04-.779-.051-.082.024-.161.054-.245.073l-4.39,1.018a4.016,4.016,0,0,0-1.091,3.052c-.034,2.176-.175,4.888-.324,7.758-.3,5.685-.842,16.2.26,18.107,2.363,1.583,4.391,2.5,9.126,4.381,2.217.881,3.562,3.537,3.2,6.316-.446,3.4-3.16,5.725-7.262,6.21-6.838.812-19.57,2.319-23.206-7.348-.984-2.616-1.933-5.326-2.77-7.717-1.4-4.012-3.152-9.005-3.907-9.84a17.476,17.476,0,0,1-1.716-2.68c-2.357-4.062-7.26-12.514-12.921-12.707-1.009-.035-1.975-.063-2.921-.089a96.853,96.853,0,0,0-3.935,13.081c.233.4,1.371,1.593,6.868,3.848a6.623,6.623,0,0,1,4.249,7.351,7.793,7.793,0,0,1-7.372,6.379c-1.716.108-3.474.186-5.205.186-5.169,0-10.095-.7-12.94-3.376a6.96,6.96,0,0,1-2.212-5.217c.013-3.972-1.778-5.2-4.046-6.741-1.854-1.266-4.162-2.84-4.541-6.064-.174-1.479-.491-3.451-.884-5.7-3.192,5.321-8,19.816-8.16,21.908.407,1.126,4.919,4.354,12.731,6.973,3.579,1.2,5.529,3.769,5.214,6.875a8.306,8.306,0,0,1-7.222,6.942c-.591.072-1.386.2-2.334.349a83.639,83.639,0,0,1-12.879,1.286c-6.837,0-13.562-1.576-15.613-7.692-1.482-4.42-4.668-8.565-7.479-12.223-3.489-4.54-6.5-8.46-6.214-12.44.456-6.289,1.668-22.993-6.653-28.084-4.446-2.719-8-2.714-12.686.021-1.831,1.069-4.271,4.352-7.1,8.154-7.227,9.725-19.1,25.683-41.664,33.274a148.033,148.033,0,0,0,137.272,93.028c81.5,0,147.8-66.3,147.8-147.8S1637.567,192.956,1556.07,192.956Z" transform="translate(-242.561 7.702)" fill="none"/><path d="M1541.909,366.782c-.159,0-.269,0-.349-.009v.008l-.989-.136c-.049-.012-.093-.037-.141-.051a47.817,47.817,0,0,0-7.572.966c.56,3.1,1.019,5.833,1.251,7.807.133,1.126.832,1.7,2.65,2.941,2.528,1.724,5.989,4.085,5.968,10.393a2.527,2.527,0,0,0,.829,2c2.919,2.75,11.9,2.186,14.85,2a3.37,3.37,0,0,0,3.3-2.7,2.235,2.235,0,0,0-1.576-2.564c-4.769-1.955-9.837-4.352-9.6-8.058.1-1.594,1.743-7.587,3.685-13.038-.327,0-.661-.01-.98-.013C1545.315,366.684,1542.809,366.782,1541.909,366.782Z" transform="translate(-242.561 7.702)" fill="#fce5c4"/><path d="M1552.726,379.516c-.143,2.278,4.876,4.5,8.243,5.883,5.1,2.091,3.228,9.143-2.426,9.5-5.025.316-18.043,1.076-18.018-6.2.029-8.922-7.984-7.811-8.6-13.07-.22-1.868-.648-4.437-1.178-7.383a2.962,2.962,0,0,0-1.068.731,10.465,10.465,0,0,0-.824,1.21c.393,2.248.71,4.22.884,5.7.379,3.224,2.687,4.8,4.541,6.064,2.268,1.546,4.059,2.769,4.046,6.741a6.96,6.96,0,0,0,2.212,5.217c2.845,2.68,7.771,3.376,12.94,3.376,1.731,0,3.489-.078,5.205-.186a7.793,7.793,0,0,0,7.372-6.379,6.623,6.623,0,0,0-4.249-7.351c-5.5-2.255-6.635-3.447-6.868-3.848a96.853,96.853,0,0,1,3.935-13.081q-1.2-.031-2.329-.055C1554.579,371.8,1552.815,378.106,1552.726,379.516Z" transform="translate(-242.561 7.702)" fill="#47280a"/><path d="M1550.53,379.377c-.233,3.706,4.835,6.1,9.6,8.058A2.235,2.235,0,0,1,1561.71,390a3.37,3.37,0,0,1-3.3,2.7c-2.951.184-11.931.748-14.85-2a2.527,2.527,0,0,1-.829-2c.021-6.308-3.44-8.669-5.968-10.393-1.818-1.24-2.517-1.815-2.65-2.941-.232-1.974-.691-4.709-1.251-7.807a11.462,11.462,0,0,0-2.112.681c.53,2.946.958,5.515,1.178,7.383.618,5.259,8.631,4.148,8.6,13.07-.025,7.279,12.993,6.519,18.018,6.2,5.654-.355,7.525-7.407,2.426-9.5-3.367-1.381-8.386-3.6-8.243-5.883.089-1.41,1.853-7.718,3.816-13.137-.8-.017-1.573-.03-2.327-.04C1552.273,371.79,1550.63,377.783,1550.53,379.377Z" transform="translate(-242.561 7.702)" fill="#47280a"/><path d="M1651.273,299.54c-.978-.609-1.428-.393-1.62-.3-1.084.521-2.516,2.816-3.448,7.542a30.951,30.951,0,0,1,3.16,1.429C1651.337,304.481,1652.524,300.321,1651.273,299.54Z" transform="translate(-242.561 7.702)" fill="#fce5c4"/><path d="M1652.438,297.673c3.311,2.065.481,8.488-1.171,11.62q.931.585,1.837,1.267c2.035-3.728,5.513-11.627.5-14.754a5.814,5.814,0,0,0-5.856-.535c-3.137,1.508-4.837,5.8-5.758,10.158.7.183,1.411.392,2.122.618C1645.613,298.752,1648.616,295.289,1652.438,297.673Z" transform="translate(-242.561 7.702)" fill="#47280a"/><path d="M1649.653,299.239c.192-.092.642-.308,1.62.3,1.251.781.064,4.941-1.908,8.67.64.334,1.275.69,1.9,1.083,1.652-3.132,4.482-9.555,1.171-11.62-3.822-2.384-6.825,1.079-8.327,8.374.7.221,1.4.464,2.094.734C1647.137,302.055,1648.569,299.76,1649.653,299.239Z" transform="translate(-242.561 7.702)" fill="#47280a"/><path d="M1609.041,353.377a4.1,4.1,0,0,1,.907,2.795c1.341.2,2.581.469,3.614.7l22.071,2.362c.464,0,.928-.005,1.392-.014,10.166-.209,18.722,3.471,32.98,10.011a39.963,39.963,0,0,0,7.563,2.717c-.021-1.694,1.214-3.779,3.29-5.262a8.231,8.231,0,0,1,3.813-1.538,67.854,67.854,0,0,0-7.208-11.3c-.345-.46-.819-1.072-1.394-1.814-4.036-5.213-13.489-17.423-17.838-28.122-3.513-8.643-9.528-12.285-15.663-14.162l-1.253-.148c.008-.067.018-.137.026-.2-1.155-.312-2.31-.575-3.446-.8a89.576,89.576,0,0,1-24.064-9.276l-1.883-1.134c-6.58-3.97-11.794-7.115-28.8-14.44a5.111,5.111,0,0,1-.714,1.486C1579.293,289.6,1571.921,307.4,1609.041,353.377Zm29.4-15.807a3.855,3.855,0,0,1,5.506.794,4.032,4.032,0,0,1-.766,5.506h0a3.822,3.822,0,0,1-2.361.818,3.881,3.881,0,0,1-3.145-1.611A4.032,4.032,0,0,1,1638.438,337.57Zm-33.018-30.187a8.327,8.327,0,0,1,5.847-5.6,6.18,6.18,0,0,1,5.305.681c5.92,3.7,8.1,17.534,8.328,19.1l-4.355.638c-.756-5.138-3.135-14.026-6.306-16.006a1.792,1.792,0,0,0-1.635-.219,3.936,3.936,0,0,0-2.97,2.679c-1.1,3.66,1.963,10.488,8.2,18.264l-3.432,2.756C1609.2,323.184,1603.41,314.049,1605.42,307.383Z" transform="translate(-242.561 7.702)" fill="#fce5c4"/><path d="M1579.037,350.818c-5.007.69-9.435,4.951-13.163,12.662,5.825,2.6,10.062,9.883,12.3,13.742.485.835,1.034,1.782,1.227,2.01,1.235,1.364,2.465,4.778,4.712,11.2.871,2.486,1.771,5.056,2.739,7.63,2.336,6.211,11.027,5.726,18.99,4.782,2.229-.264,3.566-1.242,3.764-2.755a2.147,2.147,0,0,0-.707-2.079c-4.645-1.845-7.149-2.927-10.024-4.874-2.625-1.778-2.589-7.929-1.881-21.54.147-2.833.286-5.509.319-7.614a9.872,9.872,0,0,1,.5-3.043,4.074,4.074,0,0,1-1.044-.842C1594.611,357.642,1586.957,349.734,1579.037,350.818Z" transform="translate(-242.561 7.702)" fill="#fce5c4"/><path d="M1472.09,347.38c4.729-20.22,1.84-35.863-8.585-46.495a4.109,4.109,0,0,1-.77-1.111l-.3.11c-15.459,5.682-24.162,31-27.022,39.325l-.171.5c-.733,2.126-1.3,4.1-1.856,6.012-2.681,9.278-4.816,16.633-21.313,28.431a146.631,146.631,0,0,0,5.28,17.641c21.458-7.136,32.487-21.96,39.894-31.926,3.339-4.494,5.752-7.741,8.289-9.223a18.322,18.322,0,0,1,6.458-2.435A3.721,3.721,0,0,1,1472.09,347.38Z" transform="translate(-242.561 7.702)" fill="#fce5c4"/><path d="M1640.74,340.741l-.021-.027a.055.055,0,0,0-.016.018l.005,0A.133.133,0,0,1,1640.74,340.741Z" transform="translate(-242.561 7.702)" fill="#fce5c4"/><path d="M1640.784,340.753a.164.164,0,0,0,.113-.026c.007-.01-.021-.034-.066-.04a.174.174,0,0,0-.112.026l.022.028A.157.157,0,0,0,1640.784,340.753Z" transform="translate(-242.561 7.702)" fill="#fce5c4"/><path d="M1525.268,350.645c-.032-.187-.062-.342-.089-.473a3.064,3.064,0,0,1-1.333-1.474l1.99-.939h0l1.99-.938a1.694,1.694,0,0,0-1.36-.744c-.009,0-.015,0-.009,0l.009,0,.027,0c1.922,0,2.6,1.525,2.914,2.829l9.8,3.141c-.074-.68-.174-1.4-.309-2.178-1.1-6.36-12.3-17.9-25.508-20.806-7.012-1.545-16.962-1.077-24.556,9.906a16.5,16.5,0,0,0-2.844,8.076,15.692,15.692,0,0,1-.893,3.987,4.7,4.7,0,0,1-.7,1.186c8.145,7.333,7,23.174,6.49,30.233-.178,2.46,2.529,5.983,5.4,9.712,3,3.907,6.406,8.334,8.1,13.389,2.4,7.156,17.587,4.752,24.073,3.726,1.005-.159,1.848-.292,2.474-.368a4.289,4.289,0,0,0,3.725-3.374c.149-1.469-1.279-2.267-2.5-2.678-2.606-.873-15.6-5.5-15.464-10.8.081-3.178,6.267-21.188,9.89-25.617a5.449,5.449,0,0,1,1.383-1.164q-.328-1.764-.675-3.6C1526.6,358.022,1525.891,354.25,1525.268,350.645Z" transform="translate(-242.561 7.702)" fill="#fce5c4"/><path d="M1525.836,347.759h0Z" transform="translate(-242.561 7.702)" fill="#fce5c4"/><path d="M1538.353,360.543a16.724,16.724,0,0,0,.851-8.5l-9.8-3.141c.087.36.148.7.2.992.617,3.572,1.323,7.328,2.007,10.961q.271,1.446.534,2.849a44.406,44.406,0,0,1,5.79-.9A6.316,6.316,0,0,1,1538.353,360.543Z" transform="translate(-242.561 7.702)" fill="#fce5c4"/><path d="M1526.494,346.075l-.027,0a1.694,1.694,0,0,1,1.36.744l-1.99.938,3.571,1.145C1529.094,347.6,1528.416,346.075,1526.494,346.075Z" transform="translate(-242.561 7.702)" fill="#fce5c4"/><path d="M1525.836,347.759l-1.99.939a3.064,3.064,0,0,0,1.333,1.474c.027.131.057.286.089.473.623,3.605,1.333,7.377,2.019,11.026q.345,1.836.675,3.6a10.905,10.905,0,0,1,2.062-.953c-.836-4.472-1.789-9.431-2.587-14.051C1526.87,346.99,1526.466,349.1,1525.836,347.759Z" transform="translate(-242.561 7.702)" fill="#fce5c4"/><path d="M1526.467,346.077l-.009,0C1526.452,346.077,1526.458,346.077,1526.467,346.077Z" transform="translate(-242.561 7.702)" fill="#fce5c4"/><path d="M1531.613,360.857c-.684-3.633-1.39-7.389-2.007-10.961-.05-.289-.111-.632-.2-.992l-3.571-1.145h0c.63,1.336,1.034-.769,1.6,2.511.8,4.62,1.751,9.579,2.587,14.051a20.632,20.632,0,0,1,2.123-.615Q1531.885,362.3,1531.613,360.857Z" transform="translate(-242.561 7.702)" fill="#fce5c4"/><path d="M1642.568,309.751c-.409-.126-.818-.242-1.227-.352-.008.067-.018.137-.026.2Z" transform="translate(-242.561 7.702)" fill="#fce5c4"/><path d="M1460.462,362.251c2.825-3.8,5.265-7.085,7.1-8.154,4.684-2.735,8.24-2.74,12.686-.021,8.321,5.091,7.109,21.8,6.653,28.084-.289,3.98,2.725,7.9,6.214,12.44,2.811,3.658,6,7.8,7.479,12.223,2.051,6.116,8.776,7.692,15.613,7.692a83.639,83.639,0,0,0,12.879-1.286c.948-.151,1.743-.277,2.334-.349a8.306,8.306,0,0,0,7.222-6.942c.315-3.106-1.635-5.676-5.214-6.875-7.812-2.619-12.324-5.847-12.731-6.973.164-2.092,4.968-16.587,8.16-21.908q-.228-1.3-.487-2.718a2.839,2.839,0,0,0-.238.241c-3.365,4.113-9.371,21.752-9.439,24.4s7.235,6.553,14.1,8.853,3.533,9.307-1.616,9.935-25.355,5.227-28.686-4.707-14.041-17.727-13.594-23.883c.526-7.265,1.448-22.6-6.253-28.958a8.211,8.211,0,0,1-4.319-.536c-.481-.155-1.005-.323-1.571-.479-.9-.248-3.014-.836-4.1-2.213a15.916,15.916,0,0,0-6.105,2.251c-7.369,4.3-17.195,30.845-48.477,41.3.239.622.479,1.243.726,1.86C1441.362,387.934,1453.235,371.976,1460.462,362.251Z" transform="translate(-242.561 7.702)" fill="#47280a"/><path d="M1433.354,339.054c2.672-7.754,11.7-34.913,28.4-41.048l.594-.221a4.182,4.182,0,0,1,.106-.764,4.1,4.1,0,0,1,.92-1.756c-.8.3-1.574.592-2.311.863-17.244,6.339-26.412,33.014-29.426,41.78l-.17.494c-.765,2.222-1.35,4.247-1.916,6.2-2.481,8.585-4.313,14.9-18.388,25.265.144.718.3,1.433.452,2.147C1430.194,358.535,1429.127,351.322,1433.354,339.054Z" transform="translate(-242.561 7.702)" fill="#47280a"/><path d="M1583.2,280.606a4.633,4.633,0,0,1,.192,1.073c.057.025.112.047.169.071,19.045,8.191,23.687,11.3,31.294,15.86a88.351,88.351,0,0,0,23.42,9.028c1.078.211,2.2.464,3.342.766.106-.653.227-1.314.367-1.975-1.13-.294-2.244-.543-3.324-.754a86.273,86.273,0,0,1-22.776-8.781l-1.874-1.128c-6.76-4.08-12.1-7.3-29.659-14.854-.729-.314-1.449-.612-2.165-.907A3.617,3.617,0,0,1,1583.2,280.606Z" transform="translate(-242.561 7.702)" fill="#47280a"/><path d="M1650.274,311.047h-.007a24.9,24.9,0,0,1,9.818,12.114c4.845,11.921,16.152,25.724,18.978,29.488,2.1,2.8,6.2,8.478,7.925,12.844a2.53,2.53,0,0,1,.986.831c.776,1.166.479,2.879-.6,4.476a5.48,5.48,0,0,1-4.593,3.491,4.916,4.916,0,0,1-3.848-.04,36.766,36.766,0,0,1-9.763-3.2c-11.682-5.36-19.364-8.711-27.15-9.6l.006.409c.008.516.023,1.062.042,1.62,7.463.924,15.021,4.226,26.268,9.385,8.057,3.7,13.8,4.507,17.567,2.476a7.507,7.507,0,0,0,3.819-5.666c.194-1.269.782-5.126-9.059-18.234-.354-.472-.84-1.1-1.43-1.862-3.936-5.084-13.153-16.989-17.3-27.179a27.208,27.208,0,0,0-8.834-11.846c-.4.733-.745,1.308-.958,1.65Z" transform="translate(-242.561 7.702)" fill="#47280a"/><path d="M1607.04,359.9c.258.011.518.029.779.051-.075-.148-.126-.25-.148-.295A4.139,4.139,0,0,1,1607.04,359.9Z" transform="translate(-242.561 7.702)" fill="#47280a"/><path d="M1599.746,361.475a7.645,7.645,0,0,0-.432,2.537c-.135,8.505-1.942,25.686.683,27.464s4.852,2.77,9.641,4.672c2.785,1.107,3.506,7.844-3.561,8.681s-18.07,1.986-21.1-6.066-5.552-16.521-7.066-18.2c-1.348-1.489-6.283-12.8-13.34-15.474a4.047,4.047,0,0,1-2.138.813l-3.427.157c-.046.122-.092.247-.137.37.946.026,1.912.054,2.921.089,5.661.193,10.564,8.645,12.921,12.707a17.476,17.476,0,0,0,1.716,2.68c.755.835,2.5,5.828,3.907,9.84.837,2.391,1.786,5.1,2.77,7.717,3.636,9.667,16.368,8.16,23.206,7.348,4.1-.485,6.816-2.807,7.262-6.21.364-2.779-.981-5.435-3.2-6.316-4.735-1.882-6.763-2.8-9.126-4.381-1.1-1.9-.556-12.422-.26-18.107.149-2.87.29-5.582.324-7.758a4.016,4.016,0,0,1,1.091-3.052l-1.666.386A4.083,4.083,0,0,1,1599.746,361.475Z" transform="translate(-242.561 7.702)" fill="#47280a"/><path d="M1554.215,366.339l.021-.058-1,.045C1553.554,366.329,1553.888,366.335,1554.215,366.339Z" transform="translate(-242.561 7.702)" fill="#47280a"/><path d="M1538.41,364.93c-.028-.054-.045-.112-.071-.167a43.629,43.629,0,0,0-5.83.888q.18.975.348,1.909a47.817,47.817,0,0,1,7.572-.966A3.273,3.273,0,0,1,1538.41,364.93Z" transform="translate(-242.561 7.702)" fill="#47280a"/><path d="M1556.617,366.173l-.075.206q1.134.023,2.329.055c.045-.123.091-.248.137-.37Z" transform="translate(-242.561 7.702)" fill="#47280a"/><path d="M1530.745,368.241c-.115-.634-.233-1.282-.355-1.949a6.052,6.052,0,0,0-2.024,1.172q.259,1.415.487,2.718a10.465,10.465,0,0,1,.824-1.21A2.962,2.962,0,0,1,1530.745,368.241Z" transform="translate(-242.561 7.702)" fill="#47280a"/><path d="M1554.215,366.339c.754.01,1.528.023,2.327.04l.075-.206-2.381.108Z" transform="translate(-242.561 7.702)" fill="#47280a"/><path d="M1532.509,365.651a16.688,16.688,0,0,0-2.119.641c.122.667.24,1.315.355,1.949a11.462,11.462,0,0,1,2.112-.681Q1532.689,366.627,1532.509,365.651Z" transform="translate(-242.561 7.702)" fill="#47280a"/><path d="M1650.267,311.046h.007l-.061-.038Z" transform="translate(-242.561 7.702)" fill="#47280a"/><path d="M1648.407,309.886c.335-.539.655-1.1.958-1.676a30.951,30.951,0,0,0-3.16-1.429c-.124.63-.241,1.3-.345,2.017a27.279,27.279,0,0,1,4.239,2.14Z" transform="translate(-242.561 7.702)" fill="#47280a"/><path d="M1643.749,308.032c.108-.693.231-1.349.362-1.985-.711-.226-1.42-.435-2.122-.618-.14.661-.261,1.322-.367,1.975Q1642.676,307.683,1643.749,308.032Z" transform="translate(-242.561 7.702)" fill="#47280a"/><path d="M1650.277,311.047h0l1.872,1.163c.213-.342.558-.917.958-1.65q-.9-.682-1.837-1.267C1650.7,310.36,1650.277,311.047,1650.277,311.047Z" transform="translate(-242.561 7.702)" fill="#47280a"/><path d="M1648.407,309.886l1.692,1.052.114.071.061.038h0s.427-.687.99-1.754c-.627-.393-1.262-.749-1.9-1.083C1649.062,308.783,1648.742,309.347,1648.407,309.886Z" transform="translate(-242.561 7.702)" fill="#47280a"/><path d="M1646.2,306.781c-.7-.27-1.4-.513-2.094-.734-.131.636-.254,1.292-.362,1.985.7.229,1.406.481,2.111.766C1645.964,308.08,1646.081,307.411,1646.2,306.781Z" transform="translate(-242.561 7.702)" fill="#47280a"/><path d="M1685.12,373.085a9.045,9.045,0,0,1-2.339,1.205,5.48,5.48,0,0,0,4.593-3.491A9.131,9.131,0,0,1,1685.12,373.085Z" transform="translate(-242.561 7.702)" fill="#47280a"/><path d="M1609.917,356.485l3.645.39c-1.033-.234-2.273-.5-3.614-.7C1609.942,356.276,1609.931,356.38,1609.917,356.485Z" transform="translate(-242.561 7.702)" fill="#47280a"/><path d="M1678,373.451a2.725,2.725,0,0,1-.436-1.5,39.963,39.963,0,0,1-7.563-2.717c-14.258-6.54-22.814-10.22-32.98-10.011-.464.009-.928.012-1.392.014l6.364.681.023,1.539c7.786.885,15.468,4.236,27.15,9.6a36.766,36.766,0,0,0,9.763,3.2A2.511,2.511,0,0,1,1678,373.451Z" transform="translate(-242.561 7.702)" fill="#47280a"/><path d="M1597.813,360.936a9.872,9.872,0,0,0-.5,3.043c-.033,2.105-.172,4.781-.319,7.614-.708,13.611-.744,19.762,1.881,21.54,2.875,1.947,5.379,3.029,10.024,4.874a2.147,2.147,0,0,1,.707,2.079c-.2,1.513-1.535,2.491-3.764,2.755-7.963.944-16.654,1.429-18.99-4.782-.968-2.574-1.868-5.144-2.739-7.63-2.247-6.419-3.477-9.833-4.712-11.2-.193-.228-.742-1.175-1.227-2.01-2.238-3.859-6.475-11.142-12.3-13.742-.017.035-.034.067-.051.1a4.144,4.144,0,0,1-1.25,1.512c7.057,2.678,11.992,13.985,13.34,15.474,1.514,1.674,4.037,10.144,7.066,18.2s14.032,6.9,21.1,6.066,6.346-7.574,3.561-8.681c-4.789-1.9-7.017-2.9-9.641-4.672s-.818-18.959-.683-27.464a7.645,7.645,0,0,1,.432-2.537A4.052,4.052,0,0,1,1597.813,360.936Z" transform="translate(-242.561 7.702)" fill="#47280a"/><path d="M1643.5,309.86l-.932-.109c6.135,1.877,12.15,5.519,15.663,14.162,4.349,10.7,13.8,22.909,17.838,28.122.575.742,1.049,1.354,1.394,1.814a67.854,67.854,0,0,1,7.208,11.3,4.114,4.114,0,0,1,2.317.341c-1.723-4.366-5.825-10.047-7.925-12.844-2.826-3.764-14.133-17.567-18.978-29.488a24.9,24.9,0,0,0-9.818-12.114l-6.767-1.186Z" transform="translate(-242.561 7.702)" fill="#47280a"/><path d="M1433.39,345.718c.552-1.911,1.123-3.886,1.856-6.012l.171-.5c2.86-8.321,11.563-33.643,27.022-39.325l.3-.11a4.066,4.066,0,0,1-.392-1.989l-.594.221c-16.691,6.135-25.723,33.294-28.4,41.048-4.227,12.268-3.16,19.481-21.744,32.965.154.71.3,1.423.467,2.13C1428.574,362.351,1430.709,355,1433.39,345.718Z" transform="translate(-242.561 7.702)" fill="#47280a"/><path d="M1465.54,350.641c-2.537,1.482-4.95,4.729-8.289,9.223-7.407,9.966-18.436,24.79-39.894,31.926.232.628.475,1.251.715,1.875,31.282-10.451,41.108-36.993,48.477-41.3a15.916,15.916,0,0,1,6.105-2.251,2.974,2.974,0,0,1-.656-1.912A18.322,18.322,0,0,0,1465.54,350.641Z" transform="translate(-242.561 7.702)" fill="#47280a"/><path d="M1526.579,366.438c-3.623,4.429-9.809,22.439-9.89,25.617-.135,5.3,12.858,9.928,15.464,10.8,1.224.411,2.652,1.209,2.5,2.678a4.289,4.289,0,0,1-3.725,3.374c-.626.076-1.469.209-2.474.368-6.486,1.026-21.674,3.43-24.073-3.726-1.7-5.055-5.1-9.482-8.1-13.389-2.866-3.729-5.573-7.252-5.4-9.712.512-7.059,1.655-22.9-6.49-30.233a3.267,3.267,0,0,1-1.758,1.13c7.7,6.358,6.779,21.693,6.253,28.958-.447,6.156,10.263,13.949,13.594,23.883s23.538,5.334,28.686,4.707,8.48-7.634,1.616-9.935-14.167-6.2-14.1-8.853,6.074-20.288,9.439-24.4a2.839,2.839,0,0,1,.238-.241q-.2-1.071-.4-2.19A5.449,5.449,0,0,0,1526.579,366.438Z" transform="translate(-242.561 7.702)" fill="#47280a"/><path d="M1583.151,283.751c17,7.325,22.217,10.47,28.8,14.44l1.883,1.134A89.576,89.576,0,0,0,1637.9,308.6c1.136.223,2.291.486,3.446.8.078-.65.171-1.317.281-1.995-1.142-.3-2.264-.555-3.342-.766a88.351,88.351,0,0,1-23.42-9.028c-7.607-4.562-12.249-7.669-31.294-15.86-.057-.024-.112-.046-.169-.071A5.809,5.809,0,0,1,1583.151,283.751Z" transform="translate(-242.561 7.702)" fill="#47280a"/><path d="M1537.937,362.8a44.406,44.406,0,0,0-5.79.9q.185.988.362,1.945a43.629,43.629,0,0,1,5.83-.888A4.678,4.678,0,0,1,1537.937,362.8Z" transform="translate(-242.561 7.702)" fill="#47280a"/><path d="M1530.39,366.292q-.179-.966-.366-1.971a10.905,10.905,0,0,0-2.062.953q.208,1.118.4,2.19A6.052,6.052,0,0,1,1530.39,366.292Z" transform="translate(-242.561 7.702)" fill="#47280a"/><path d="M1532.147,363.706a20.632,20.632,0,0,0-2.123.615q.188,1,.366,1.971a16.688,16.688,0,0,1,2.119-.641Q1532.332,364.694,1532.147,363.706Z" transform="translate(-242.561 7.702)" fill="#47280a"/><path d="M1650.1,310.938a27.279,27.279,0,0,0-4.239-2.14c-.062.425-.12.863-.174,1.319l-2.186-.257h0l6.767,1.186-.054-.037Z" transform="translate(-242.561 7.702)" fill="#47280a"/><path d="M1642.568,309.751l.932.109q.111-.943.249-1.828-1.071-.351-2.127-.628c-.11.678-.2,1.345-.281,1.995C1641.75,309.509,1642.159,309.625,1642.568,309.751Z" transform="translate(-242.561 7.702)" fill="#47280a"/><path d="M1650.1,310.938l.114.071Z" transform="translate(-242.561 7.702)" fill="#47280a"/><path d="M1645.686,310.117c.054-.456.112-.894.174-1.319-.7-.285-1.409-.537-2.111-.766q-.137.885-.249,1.828Z" transform="translate(-242.561 7.702)" fill="#47280a"/><path d="M1640.271,344.649a3.877,3.877,0,0,0,.546.039,3.822,3.822,0,0,0,2.361-.818h0a4.032,4.032,0,0,0,.766-5.506,3.855,3.855,0,0,0-5.506-.794,4.032,4.032,0,0,0-.766,5.507A3.854,3.854,0,0,0,1640.271,344.649Zm.56-3.962c.045.006.073.03.066.04a.164.164,0,0,1-.113.026.157.157,0,0,1-.043-.012l-.022-.028A.174.174,0,0,1,1640.831,340.687Zm-.112.027.021.027a.133.133,0,0,0-.032-.012l-.005,0A.055.055,0,0,1,1640.719,340.714Z" transform="translate(-242.561 7.702)" fill="#47280a"/><path d="M1617.837,326.919c-6.24-7.776-9.307-14.6-8.2-18.264a3.936,3.936,0,0,1,2.97-2.679,1.792,1.792,0,0,1,1.635.219c3.171,1.98,5.55,10.868,6.306,16.006l4.355-.638c-.229-1.566-2.408-15.4-8.328-19.1a6.18,6.18,0,0,0-5.305-.681,8.327,8.327,0,0,0-5.847,5.6c-2.01,6.666,3.776,15.8,8.985,22.292Z" transform="translate(-242.561 7.702)" fill="#47280a"/><path d="M1677.568,371.951c3.61.831,5.508.374,6.436-.126a3.512,3.512,0,0,0,1.762-2.747,8.2,8.2,0,0,0-1.095-3.927,8.231,8.231,0,0,0-3.813,1.538C1678.782,368.172,1677.547,370.257,1677.568,371.951Z" transform="translate(-242.561 7.702)" fill="#47280a"/><path d="M1687.745,369.379a6.913,6.913,0,0,1-.371,1.42c1.079-1.6,1.376-3.31.6-4.476a2.53,2.53,0,0,0-.986-.831A8.134,8.134,0,0,1,1687.745,369.379Z" transform="translate(-242.561 7.702)" fill="#47280a"/><path d="M1678.933,374.25a4.916,4.916,0,0,0,3.848.04A12.785,12.785,0,0,1,1678.933,374.25Z" transform="translate(-242.561 7.702)" fill="#47280a"/><path d="M1684.671,365.151a8.2,8.2,0,0,1,1.095,3.927,3.512,3.512,0,0,1-1.762,2.747c-.928.5-2.826.957-6.436.126a2.725,2.725,0,0,0,.436,1.5,2.511,2.511,0,0,0,.929.8,12.785,12.785,0,0,0,3.848.04,9.262,9.262,0,0,0,4.593-3.491,6.913,6.913,0,0,0,.371-1.42,8.134,8.134,0,0,0-.757-3.887A4.114,4.114,0,0,0,1684.671,365.151Z" transform="translate(-242.561 7.702)" fill="#47280a"/><path d="M1628.656,382.843a11.839,11.839,0,0,1,3.061,5.037c.723,1.964,1.053,2.861,3.83,3.393,7.337,1.406,11.374.927,13.019-1.556a17.81,17.81,0,0,0-3.236-3.03,25.628,25.628,0,0,1-4.029-3.743c-2.772-3.518-3.457-14.217-3.626-19.062l-6.912-.739a111.416,111.416,0,0,1-13.518-1.447l-3.729-.4C1616.528,366.8,1622.661,377.249,1628.656,382.843Z" transform="translate(-242.561 7.702)" fill="#fce5c4"/><path d="M1617.245,361.7a111.416,111.416,0,0,0,13.518,1.447Z" transform="translate(-242.561 7.702)" fill="#fce5c4"/><path d="M1643.03,381.583c2.543,3.229,9.108,6.4,7.566,9.037-2.329,3.982-7.78,4.286-15.463,2.814-6.539-1.252-4.239-5.493-7.978-8.982-7.119-6.642-14.255-19.555-16.663-24.127-.85-.157-1.763-.3-2.673-.374,1.241,2.449,9.427,18.266,17.834,26.11a7.7,7.7,0,0,1,1.933,3.34c.852,2.314,1.913,5.2,7.133,6.2a41.006,41.006,0,0,0,7.558.852c4.207,0,8.1-1.088,10.219-4.717,1.95-3.336-1.571-6.181-4.4-8.467a23,23,0,0,1-3.337-3.043c-1.586-2.013-2.481-10.483-2.691-16.735-.734-.091-1.469-.153-2.2-.2C1640,367.242,1640.6,378.494,1643.03,381.583Z" transform="translate(-242.561 7.702)" fill="#47280a"/><path d="M1613.976,356.969l.316.072a103.585,103.585,0,0,0,21.341,2.2l-22.071-2.362Z" transform="translate(-242.561 7.702)" fill="#47280a"/><path d="M1642.02,361.457a36.614,36.614,0,0,0-4.952-.234c-1.179.025-2.351.025-3.509.005l6.267.67s.008.522.038,1.391c.735.044,1.47.106,2.2.2-.019-.558-.034-1.1-.042-1.62Z" transform="translate(-242.561 7.702)" fill="#47280a"/><path d="M1609.638,358.669l5.41.579c-.428-.088-.836-.174-1.2-.256-1.174-.266-2.78-.645-4.5-.885a4.037,4.037,0,0,1-1.683,1.549c.022.045.073.147.148.295.91.079,1.823.217,2.673.374C1609.942,359.28,1609.638,358.669,1609.638,358.669Z" transform="translate(-242.561 7.702)" fill="#47280a"/><path d="M1635.633,359.237a103.585,103.585,0,0,1-21.341-2.2l-.316-.072-.414-.094-3.645-.39a4.232,4.232,0,0,1-.187.834,4.16,4.16,0,0,1-.376.788c1.716.24,3.322.619,4.5.885.362.082.77.168,1.2.256l18.511,1.98c1.158.02,2.33.02,3.509-.005a36.614,36.614,0,0,1,4.952.234l-.023-1.539Z" transform="translate(-242.561 7.702)" fill="#47280a"/><path d="M1630.763,363.143l6.912.739c.169,4.845.854,15.544,3.626,19.062a25.628,25.628,0,0,0,4.029,3.743,17.81,17.81,0,0,1,3.236,3.03c-1.645,2.483-5.682,2.962-13.019,1.556-2.777-.532-3.107-1.429-3.83-3.393a11.839,11.839,0,0,0-3.061-5.037c-5.995-5.594-12.128-16.04-15.14-21.546l3.729.4c-1.435-.246-2.734-.5-3.837-.752l-.321-.074c-.7-.159-1.6-.364-2.6-.545,2.408,4.572,9.544,17.485,16.663,24.127,3.739,3.489,1.439,7.73,7.978,8.982,7.683,1.472,13.134,1.168,15.463-2.814,1.542-2.639-5.023-5.808-7.566-9.037-2.433-3.089-3.03-14.341-3.166-18.294-.912-.055-1.827-.084-2.753-.066C1634.984,363.272,1632.851,363.237,1630.763,363.143Z" transform="translate(-242.561 7.702)" fill="#47280a"/><path d="M1609.638,358.669s.3.611.854,1.656c.99.181,1.893.386,2.6.545l.321.074c1.1.25,2.4.506,3.837.752l13.518,1.447c2.088.094,4.221.129,6.348.08.926-.018,1.841.011,2.753.066-.03-.869-.038-1.391-.038-1.391l-6.267-.67a106.662,106.662,0,0,1-18.511-1.98Z" transform="translate(-242.561 7.702)" fill="#47280a"/><path d="M1633.559,361.228l-18.511-1.98A106.662,106.662,0,0,0,1633.559,361.228Z" transform="translate(-242.561 7.702)" fill="#47280a"/><path d="M1476.545,347.651a14.169,14.169,0,0,0,1.373.436c.63.173,1.213.36,1.749.532.467.15,1.057.339,1.463.432a14.933,14.933,0,0,0,.494-2.6,20.8,20.8,0,0,1,3.587-9.992c5.648-8.168,13.461-12.452,22.442-12.452a31.051,31.051,0,0,1,6.68.751c14.448,3.179,27.4,15.7,28.9,24.353a36.127,36.127,0,0,1,.5,4.383l14.131,4.53c.153-.239.3-.462.448-.649l3.477,2.7a9.465,9.465,0,0,0-.888,1.492l1.024-.047c4.407-9.1,9.961-14.165,16.509-15.066,9.938-1.374,18.822,7.565,21.509,10.584l2.431-.563a10.761,10.761,0,0,1,1.976-.458l.982-.228c-37.7-46.833-31.078-66.737-26.469-73.131a1.142,1.142,0,0,0,.133-.417c-2.936-1.041-9.014-3.189-9.9-3.461-3.047-.935-12.522-2.849-13.131-2.963-5.215-.8-14.188-.791-16.809-.771h-.175c-7.243-.12-18.544,3-19.2,3.188-4.234,1.455-16.755,5.856-16.882,5.9-.26.1-14.332,5.573-24.869,9.671-3.942,1.578-7.688,3.066-11.035,4.355C1478.133,309.8,1481.346,326.437,1476.545,347.651Z" transform="translate(-242.561 7.702)" fill="#ea875c"/><path d="M1542.445,362.165a1.492,1.492,0,0,0-.066.218c1.806-.063,7.781-.326,13.6-.589a27.533,27.533,0,0,1,1.89-3.766l-14.131-4.53A19.607,19.607,0,0,1,1542.445,362.165Z" transform="translate(-242.561 7.702)" fill="#ea875c"/><path d="M1558.42,361.684l2.484-.113a9.465,9.465,0,0,1,.888-1.492l-3.477-2.7c-.145.187-.295.41-.448.649l2.187.7A15.919,15.919,0,0,0,1558.42,361.684Z" transform="translate(-242.561 7.702)" fill="#ea875c"/><path d="M1558.42,361.684a15.919,15.919,0,0,1,1.634-2.955l-2.187-.7a27.533,27.533,0,0,0-1.89,3.766Z" transform="translate(-242.561 7.702)" fill="#ea875c"/><path d="M1466.953,298.118c.015.015.027.032.042.047,3.347-1.289,7.093-2.777,11.035-4.355Z" transform="translate(-242.561 7.702)" fill="#ea875c"/><path d="M1604.353,356.021a10.761,10.761,0,0,0-1.976.458Z" transform="translate(-242.561 7.702)" fill="#ea875c"/><path d="M1523.006,273.1c14.612-2.937,32.4-5.1,59.185,5.909a3.279,3.279,0,0,0-1.125-.7c-.965-.342-9.458-3.357-10.674-3.731-3.335-1.024-13.38-3.047-13.7-3.1-5.6-.861-14.866-.852-17.571-.832h-.053c-8.282-.139-20.566,3.373-20.672,3.409-4.2,1.444-16.832,5.883-16.925,5.917-.072.023-.1.032-36.393,14.148a4.06,4.06,0,0,0-1.712,1.142c5.083-1.921,11.344-4.434,17.925-7.075C1496.994,281.889,1514.788,274.747,1523.006,273.1Z" transform="translate(-242.561 7.702)" fill="#47280a"/><path d="M1602.551,360.838c-.056.044-.094.1-.146.153l4.39-1.018c.084-.019.163-.049.245-.073A6.974,6.974,0,0,0,1602.551,360.838Z" transform="translate(-242.561 7.702)" fill="#47280a"/><path d="M1541.559,366.781v-.008c.08.006.19.009.349.009.9,0,3.406-.1,11.326-.456-5.39-.054-9.566.056-12.806.268.048.014.092.039.141.051Z" transform="translate(-242.561 7.702)" fill="#47280a"/><path d="M1563.839,362.628c-.026.054-.065.1-.095.147a11.2,11.2,0,0,1,2.13.705c3.728-7.711,8.156-11.972,13.163-12.662,7.92-1.084,15.574,6.824,17.732,9.276a4.074,4.074,0,0,0,1.044.842,7.1,7.1,0,0,1,1.013-1.952,1.914,1.914,0,0,1-.405-.344C1594.628,354.329,1576.6,336.086,1563.839,362.628Z" transform="translate(-242.561 7.702)" fill="#47280a"/><path d="M1607.329,354.759a1.89,1.89,0,0,1,.413,1.176c.749.049,1.491.13,2.206.237a4.1,4.1,0,0,0-.907-2.795c-37.12-45.976-29.748-63.779-26.6-68.14a5.111,5.111,0,0,0,.714-1.486l-.376-.162c-.562-.242-1.114-.47-1.669-.7a3.041,3.041,0,0,1-.455,1.061C1576.6,289.566,1569.93,308.439,1607.329,354.759Z" transform="translate(-242.561 7.702)" fill="#47280a"/><path d="M1485.987,347.043a16.5,16.5,0,0,1,2.844-8.076c7.594-10.983,17.544-11.451,24.556-9.906,13.208,2.906,24.405,14.446,25.508,20.806.135.777.235,1.5.309,2.178l2.281.731c-.079-1-.214-2.088-.422-3.284-2.294-13.23-35.987-37.889-54.042-11.778-3.776,5.461-2.737,9.511-3.961,12.475a2.114,2.114,0,0,1-.426.675,13.971,13.971,0,0,1,1.764,1.352,4.7,4.7,0,0,0,.7-1.186A15.692,15.692,0,0,0,1485.987,347.043Z" transform="translate(-242.561 7.702)" fill="#47280a"/><path d="M1465.076,299.344a1.934,1.934,0,0,1-.261-.347q-1.077.406-2.08.777a4.109,4.109,0,0,0,.77,1.111c10.425,10.632,13.314,26.275,8.585,46.495a3.721,3.721,0,0,0-.092.826,13.336,13.336,0,0,1,2.015-.156c.071,0,.143.007.215.009a1.17,1.17,0,0,1,.005-.177C1476.4,338.613,1480.831,315.41,1465.076,299.344Z" transform="translate(-242.561 7.702)" fill="#47280a"/><path d="M1538.353,360.543a6.316,6.316,0,0,0-.416,2.262q1.051-.1,2.2-.184a4.037,4.037,0,0,1,.257-1.267,18.19,18.19,0,0,0,1.086-8.578l-2.281-.731A16.724,16.724,0,0,1,1538.353,360.543Z" transform="translate(-242.561 7.702)" fill="#47280a"/><path d="M1462.343,297.785c.839-.311,1.708-.637,2.619-.984a1.84,1.84,0,0,1,.87-.609s36.291-14.114,36.338-14.13l.944-.332c5.99-2.277,11.464-4.235,15.739-5.5l.262-.09c.02-.007.461-.133,1.216-.333.829-.228,1.6-.423,2.312-.583,4.166-1.007,11.184-2.471,16.387-2.374h.021a81.9,81.9,0,0,1,16.643.71c.228.031.451.062.667.1l.2.038a97.007,97.007,0,0,1,12.085,2.675c.42.111.793.216,1.1.312.12.037.34.11.6.2q4.44,1.353,9.274,3.253l.7.25a1.037,1.037,0,0,1,.137.082c.966.389,1.941.791,2.931,1.215a4.633,4.633,0,0,0-.192-1.073,3.617,3.617,0,0,0-1.014-1.6c-26.782-11.013-44.573-8.846-59.185-5.909-8.218,1.651-26.012,8.793-41.712,15.094-6.581,2.641-12.842,5.154-17.925,7.075a4.1,4.1,0,0,0-.92,1.756A4.182,4.182,0,0,0,1462.343,297.785Z" transform="translate(-242.561 7.702)" fill="#47280a"/><path d="M1607.667,359.649l-.878-1.764c-.247-.006-.493,0-.738,0l-4.077.945a4.848,4.848,0,0,0-2.228,2.644,4.083,4.083,0,0,0,.993-.1l1.666-.386c.052-.048.09-.109.146-.153a6.974,6.974,0,0,1,4.489-.938,4.139,4.139,0,0,0,.631-.244Z" transform="translate(-242.561 7.702)" fill="#47280a"/><path d="M1559.632,364.451q-.309.774-.624,1.613l3.427-.157a4.047,4.047,0,0,0,2.138-.813,8.415,8.415,0,0,0-2.713-.571C1561.181,364.5,1560.43,364.475,1559.632,364.451Z" transform="translate(-242.561 7.702)" fill="#47280a"/><path d="M1472.654,350.118c1.082,1.377,3.2,1.965,4.1,2.213.566.156,1.09.324,1.571.479a8.211,8.211,0,0,0,4.319.536,11.812,11.812,0,0,0-1.352-.977A13.143,13.143,0,0,0,1472.654,350.118Z" transform="translate(-242.561 7.702)" fill="#47280a"/><path d="M1549.243,364.3c-3.977.175-7.341.317-7.415.3l-.5-.062c-1.024.062-2.022.138-2.987.229.026.055.043.113.071.167a3.273,3.273,0,0,0,2.019,1.664c3.24-.212,7.416-.322,12.806-.268l1-.045c.235-.66.475-1.311.717-1.945C1553.138,364.3,1551.209,364.286,1549.243,364.3Z" transform="translate(-242.561 7.702)" fill="#47280a"/><path d="M1557.291,364.386q-.339.867-.674,1.787l2.391-.109q.313-.838.624-1.613C1558.894,364.428,1558.111,364.406,1557.291,364.386Z" transform="translate(-242.561 7.702)" fill="#47280a"/><path d="M1554.953,364.336c-.242.634-.482,1.285-.717,1.945l2.381-.108q.335-.918.674-1.787C1556.539,364.367,1555.758,364.35,1554.953,364.336Z" transform="translate(-242.561 7.702)" fill="#47280a"/><path d="M1598.826,358.984a7.1,7.1,0,0,0-1.013,1.952,4.052,4.052,0,0,0,1.933.539,4.848,4.848,0,0,1,2.228-2.644l-1.732.4A1.85,1.85,0,0,1,1598.826,358.984Z" transform="translate(-242.561 7.702)" fill="#47280a"/><path d="M1570.351,276.879c1.955.661,7.35,2.571,9.274,3.253Q1574.788,278.224,1570.351,276.879Z" transform="translate(-242.561 7.702)" fill="#47280a"/><path d="M1484.4,352.216a13.971,13.971,0,0,0-1.764-1.352c-.969,1.006-2.707.059-5.3-.655-1.278-.352-3.206-.91-3.106-2.15-.072,0-.144-.009-.215-.009a13.336,13.336,0,0,0-2.015.156,2.974,2.974,0,0,0,.656,1.912,13.143,13.143,0,0,1,8.634,2.251,11.812,11.812,0,0,1,1.352.977A3.267,3.267,0,0,0,1484.4,352.216Z" transform="translate(-242.561 7.702)" fill="#47280a"/><path d="M1581.106,282.889c.555.23,1.107.458,1.669.7l.376.162a5.809,5.809,0,0,0,.246-2.072c-.99-.424-1.965-.826-2.931-1.215C1581.19,280.845,1581.337,281.929,1581.106,282.889Z" transform="translate(-242.561 7.702)" fill="#47280a"/><path d="M1555.694,273.56a81.9,81.9,0,0,0-16.643-.71A146.985,146.985,0,0,1,1555.694,273.56Z" transform="translate(-242.561 7.702)" fill="#47280a"/><path d="M1606.3,357.829l-.247.057c.245,0,.491-.007.738,0l-.1-.2A1.917,1.917,0,0,1,1606.3,357.829Z" transform="translate(-242.561 7.702)" fill="#47280a"/><path d="M1462.735,299.774q1.005-.37,2.08-.777a1.92,1.92,0,0,1,.147-2.2c-.911.347-1.78.673-2.619.984A4.066,4.066,0,0,0,1462.735,299.774Z" transform="translate(-242.561 7.702)" fill="#47280a"/><path d="M1565.823,363.582c.017-.035.034-.067.051-.1a11.2,11.2,0,0,0-2.13-.705,1.875,1.875,0,0,1-1.466.936l-2.389.109q-.128.309-.257.631c.8.024,1.549.049,2.228.072a8.415,8.415,0,0,1,2.713.571A4.144,4.144,0,0,0,1565.823,363.582Z" transform="translate(-242.561 7.702)" fill="#47280a"/><path d="M1607.742,355.935a1.832,1.832,0,0,1-.018.315l2.193.235c.014-.1.025-.209.031-.313C1609.233,356.065,1608.491,355.984,1607.742,355.935Z" transform="translate(-242.561 7.702)" fill="#47280a"/><path d="M1556.556,273.693c1.26.25,8.43,1.705,12.085,2.675A97.007,97.007,0,0,0,1556.556,273.693Z" transform="translate(-242.561 7.702)" fill="#47280a"/><path d="M1520.331,275.807c.593-.156,1.383-.358,2.312-.583C1521.933,275.384,1521.16,275.579,1520.331,275.807Z" transform="translate(-242.561 7.702)" fill="#47280a"/><path d="M1503.114,281.73c2.945-1.034,12.014-4.217,15.739-5.5C1514.578,277.495,1509.1,279.453,1503.114,281.73Z" transform="translate(-242.561 7.702)" fill="#47280a"/><path d="M1540.142,362.621q-1.153.081-2.2.184a4.678,4.678,0,0,0,.4,1.958c.965-.091,1.963-.167,2.987-.229l-.243-.03C1540.345,364.328,1540.1,363.485,1540.142,362.621Z" transform="translate(-242.561 7.702)" fill="#47280a"/><path d="M1549.243,364.3c1.966-.011,3.895.007,5.71.039.038-.1.077-.2.115-.3C1553.179,364.123,1551.142,364.214,1549.243,364.3Z" transform="translate(-242.561 7.702)" fill="#47280a"/><path d="M1557.291,364.386c.82.02,1.6.042,2.341.065q.129-.322.257-.631l-2.419.11C1557.41,364.08,1557.351,364.233,1557.291,364.386Z" transform="translate(-242.561 7.702)" fill="#47280a"/><path d="M1555.068,364.038c-.038.1-.077.2-.115.3.805.014,1.586.031,2.338.05.06-.153.119-.306.179-.456Z" transform="translate(-242.561 7.702)" fill="#47280a"/><path d="M1607.667,359.649l0,.007a4.037,4.037,0,0,0,1.683-1.549,22.558,22.558,0,0,0-2.565-.222Z" transform="translate(-242.561 7.702)" fill="#47280a"/><path d="M1609.917,356.485l-2.193-.235a1.889,1.889,0,0,1-1.036,1.432l.1.2a22.558,22.558,0,0,1,2.565.222,4.16,4.16,0,0,0,.376-.788A4.232,4.232,0,0,0,1609.917,356.485Z" transform="translate(-242.561 7.702)" fill="#47280a"/><path d="M1483.06,350.189c1.224-2.964.185-7.014,3.961-12.475,18.055-26.111,51.748-1.452,54.042,11.778.208,1.2.343,2.284.422,3.284l2.251.722a36.127,36.127,0,0,0-.5-4.383c-1.5-8.651-14.451-21.174-28.9-24.353a31.051,31.051,0,0,0-6.68-.751c-8.981,0-16.794,4.284-22.442,12.452a20.8,20.8,0,0,0-3.587,9.992,14.933,14.933,0,0,1-.494,2.6c-.406-.093-1-.282-1.463-.432-.536-.172-1.119-.359-1.749-.532a14.169,14.169,0,0,1-1.373-.436c4.8-21.214,1.588-37.856-9.55-49.486-.748.288-1.473.564-2.18.832a1.934,1.934,0,0,0,.261.347c15.755,16.066,11.325,39.269,9.157,48.538a1.17,1.17,0,0,0-.005.177,15.889,15.889,0,0,1,8.1,2.6c.1.064.2.136.3.2A2.114,2.114,0,0,0,1483.06,350.189Z" transform="translate(-242.561 7.702)" fill="#47280a"/><path d="M1578.437,346.458c-6.548.9-12.1,5.97-16.509,15.066l-1.024.047c-.141.278-.285.583-.432.906.482.015.963.029,1.456.046a9.869,9.869,0,0,1,1.816.252c.03-.051.069-.093.095-.147,12.76-26.542,30.789-8.3,34.582-3.988a1.914,1.914,0,0,0,.405.344,6.786,6.786,0,0,1,1.254-1.293,7.636,7.636,0,0,1,2.3-1.212l-2.431.563C1597.259,354.023,1588.375,345.084,1578.437,346.458Z" transform="translate(-242.561 7.702)" fill="#47280a"/><path d="M1519.781,278.238c.66-.187,11.961-3.308,19.2-3.188h.175c2.621-.02,11.594-.029,16.809.771.609.114,10.084,2.028,13.131,2.963.885.272,6.963,2.42,9.9,3.461a1.142,1.142,0,0,1-.133.417c-4.609,6.394-11.233,26.3,26.469,73.131l-.982.228a16.949,16.949,0,0,1,3.389-.086,1.89,1.89,0,0,0-.413-1.176c-37.4-46.32-30.726-65.193-26.678-70.809a3.041,3.041,0,0,0,.455-1.061c-26-10.789-43.2-8.706-57.312-5.87-7.856,1.579-25.47,8.648-41.009,14.885l-4.755,1.906c10.537-4.1,24.609-9.571,24.869-9.671C1503.026,284.094,1515.547,279.693,1519.781,278.238Zm86.02,77.447h0Zm-26.2-73.227-.006,0Z" transform="translate(-242.561 7.702)" fill="#47280a"/><path d="M1540.4,361.354a4.037,4.037,0,0,0-.257,1.267c4.163-.3,9.322-.378,15.6-.262q.12-.288.238-.565c-5.817.263-11.792.526-13.6.589a1.492,1.492,0,0,1,.066-.218,19.607,19.607,0,0,0,1.291-8.667l-2.251-.722A18.19,18.19,0,0,1,1540.4,361.354Z" transform="translate(-242.561 7.702)" fill="#47280a"/><path d="M1558.1,362.41c.773.019,1.567.042,2.373.067.147-.323.291-.628.432-.906l-2.484.113Q1558.259,362.035,1558.1,362.41Z" transform="translate(-242.561 7.702)" fill="#47280a"/><path d="M1555.977,361.794q-.119.277-.238.565c.771.014,1.555.03,2.36.051q.161-.375.321-.726Z" transform="translate(-242.561 7.702)" fill="#47280a"/><path d="M1502.17,282.062c-.047.016-36.338,14.13-36.338,14.13a1.84,1.84,0,0,0-.87.609c10.478-3.994,25.446-10.238,38.152-15.071Z" transform="translate(-242.561 7.702)" fill="#47280a"/><path d="M1556.361,273.655c-.216-.033-.439-.064-.667-.1.285.041.575.089.862.133Z" transform="translate(-242.561 7.702)" fill="#47280a"/><path d="M1519.115,276.14l-.262.09q.765-.227,1.478-.423C1519.576,276.007,1519.135,276.133,1519.115,276.14Z" transform="translate(-242.561 7.702)" fill="#47280a"/><path d="M1539.051,272.85h-.021c-5.2-.1-12.221,1.367-16.387,2.374.256-.057.518-.118.757-.166A110.583,110.583,0,0,1,1539.051,272.85Z" transform="translate(-242.561 7.702)" fill="#47280a"/><path d="M1569.746,276.68c-.312-.1-.685-.2-1.1-.312.564.162,1.137.337,1.71.511C1570.086,276.79,1569.866,276.717,1569.746,276.68Z" transform="translate(-242.561 7.702)" fill="#47280a"/><path d="M1606.051,357.886a8.731,8.731,0,0,0-4.077.945Z" transform="translate(-242.561 7.702)" fill="#47280a"/><path d="M1580.329,280.382l-.7-.25c.28.111.559.219.841.332A1.037,1.037,0,0,0,1580.329,280.382Z" transform="translate(-242.561 7.702)" fill="#47280a"/><path d="M1541.828,364.6c.074.018,3.438-.124,7.415-.3-2.647.016-5.353.083-7.917.237Z" transform="translate(-242.561 7.702)" fill="#47280a"/><path d="M1474.228,348.059c-.1,1.24,1.828,1.8,3.106,2.15,2.593.714,4.331,1.661,5.3.655-.1-.066-.2-.138-.3-.2A15.889,15.889,0,0,0,1474.228,348.059Z" transform="translate(-242.561 7.702)" fill="#47280a"/><path d="M1606.688,357.682l-.811-1.629,1.847.2a1.832,1.832,0,0,0,.018-.315,16.949,16.949,0,0,0-3.389.086l-1.976.458a7.636,7.636,0,0,0-2.3,1.212,6.786,6.786,0,0,0-1.254,1.293,1.85,1.85,0,0,0,1.416.249l1.732-.4a8.731,8.731,0,0,1,4.077-.945l.247-.057A1.917,1.917,0,0,0,1606.688,357.682Z" transform="translate(-242.561 7.702)" fill="#47280a"/><path d="M1464.815,299c.707-.268,1.432-.544,2.18-.832-.015-.015-.027-.032-.042-.047l11.077-4.308,4.755-1.906c15.539-6.237,33.153-13.306,41.009-14.885,14.111-2.836,31.314-4.919,57.312,5.87.231-.96.084-2.044-.64-2.425-.282-.113-.561-.221-.841-.332-1.924-.682-7.319-2.592-9.274-3.253-.573-.174-1.146-.349-1.71-.511-3.655-.97-10.825-2.425-12.085-2.675-.287-.044-.577-.092-.862-.133a146.985,146.985,0,0,0-16.643-.71,110.583,110.583,0,0,0-15.651,2.208c-.239.048-.5.109-.757.166-.929.225-1.719.427-2.312.583q-.713.2-1.478.423c-3.725,1.283-12.794,4.466-15.739,5.5-12.706,4.833-27.674,11.077-38.152,15.071A1.92,1.92,0,0,0,1464.815,299Z" transform="translate(-242.561 7.702)" fill="#47280a"/><path d="M1560.472,362.477c-.191.417-.385.866-.583,1.343l2.389-.109a1.875,1.875,0,0,0,1.466-.936,9.869,9.869,0,0,0-1.816-.252C1561.435,362.506,1560.954,362.492,1560.472,362.477Z" transform="translate(-242.561 7.702)" fill="#47280a"/><path d="M1540.142,362.621c-.039.864.2,1.707.941,1.883l.243.03c2.564-.154,5.27-.221,7.917-.237,1.9-.083,3.936-.174,5.825-.259.223-.578.447-1.139.671-1.679C1549.464,362.243,1544.305,362.326,1540.142,362.621Z" transform="translate(-242.561 7.702)" fill="#47280a"/><path d="M1558.1,362.41c-.208.481-.419.991-.629,1.52l2.419-.11c.2-.477.392-.926.583-1.343C1559.666,362.452,1558.872,362.429,1558.1,362.41Z" transform="translate(-242.561 7.702)" fill="#47280a"/><path d="M1555.068,364.038l2.4-.108c.21-.529.421-1.039.629-1.52-.805-.021-1.589-.037-2.36-.051C1555.515,362.9,1555.291,363.46,1555.068,364.038Z" transform="translate(-242.561 7.702)" fill="#47280a"/><path d="M1606.688,357.682a1.889,1.889,0,0,0,1.036-1.432l-1.847-.2Z" transform="translate(-242.561 7.702)" fill="#47280a"/><path d="M1605.452,426.877l-.108.011c.064-.775.106-1.557.108-2.348a28.74,28.74,0,0,0-6.962-18.826c.037-.011.068-.026.107-.037a29.314,29.314,0,0,0-10.935-7.944c0,.037,0,.068,0,.1a28.6,28.6,0,0,0-10.984-2.2,28.9,28.9,0,0,0-11.184,2.224c0-.04-.005-.074,0-.115A29.35,29.35,0,0,0,1554.6,405.7c.035.009.062.022.1.031a28.744,28.744,0,0,0-6.941,18.748c0,.838.042,1.665.111,2.485-.072.08-.094.224-.069.471a28.289,28.289,0,0,0,4.136,12.194c.02-.032.04-.061.059-.091a28.927,28.927,0,0,0,17.95,13.014c-.022.03-.042.059-.066.088a28.284,28.284,0,0,0,13.493-.013c-.024-.027-.044-.055-.065-.082a28.91,28.91,0,0,0,17.925-13.033c.022.032.043.062.064.1A28.34,28.34,0,0,0,1605.452,426.877Z" transform="translate(-242.561 7.702)" fill="#fff" stroke="#47280a" stroke-miterlimit="10" stroke-width="3"/><path d="M1569.655,449.768c-1.688-2.207-3.323-4.454-4.961-6.7a4,4,0,0,0-2.067-1.5c-2.73-.894-5.455-1.8-8.165-2.752a1.848,1.848,0,0,0-2.469.72,28.927,28.927,0,0,0,17.95,13.014C1570.724,451.518,1570.34,450.663,1569.655,449.768Z" transform="translate(-242.561 7.702)" fill="#057faf" stroke="#47280a" stroke-miterlimit="10" stroke-width="3"/><path d="M1548.383,426.921c.878.178,1.474-.335,1.935-1.157a42.1,42.1,0,0,1,4.886-6.824c.96-1.117.96-2.483.718-3.994a18.248,18.248,0,0,1,.055-5.779c.283-1.763.25-3.014-1.281-3.436a28.749,28.749,0,0,0-6.94,18.748c0,.767.034,1.525.094,2.276a.149.149,0,0,0,.171.135A1.131,1.131,0,0,1,1548.383,426.921Z" transform="translate(-242.561 7.702)" fill="#057faf" stroke="#47280a" stroke-miterlimit="10" stroke-width="3"/><path d="M1598.7,438.832c-2.676.945-5.369,1.844-8.07,2.717a4.125,4.125,0,0,0-2.146,1.554c-1.68,2.3-3.359,4.6-5.081,6.86a1.875,1.875,0,0,0-.1,2.582,28.912,28.912,0,0,0,17.926-13.033A1.9,1.9,0,0,0,1598.7,438.832Z" transform="translate(-242.561 7.702)" fill="#057faf" stroke="#47280a" stroke-miterlimit="10" stroke-width="3"/><path d="M1597.095,407.782c.057,2.882.054,5.765.052,8.647a4.013,4.013,0,0,0,.785,2.434c1.624,2.254,3.23,4.521,4.844,6.783.921,1.293,1.075,1.383,2.57,1.242.064-.775.106-1.557.108-2.348a28.738,28.738,0,0,0-6.962-18.826A1.849,1.849,0,0,0,1597.095,407.782Z" transform="translate(-242.561 7.702)" fill="#057faf" stroke="#47280a" stroke-miterlimit="10" stroke-width="3"/><path d="M1567.343,399.95c2.659.783,5.3,1.627,7.936,2.489a3.976,3.976,0,0,0,2.552.032c2.767-.887,5.534-1.772,8.314-2.618a1.809,1.809,0,0,0,1.52-2.017,28.6,28.6,0,0,0-10.983-2.2,28.9,28.9,0,0,0-11.184,2.224C1565.478,399.12,1566.246,399.627,1567.343,399.95Z" transform="translate(-242.561 7.702)" fill="#057faf" stroke="#47280a" stroke-miterlimit="10" stroke-width="3"/><path d="M1586.719,419.491q-4.258-3.108-8.532-6.2a2.428,2.428,0,0,0-3.147-.011q-4.319,3.113-8.611,6.258a2.357,2.357,0,0,0-.943,2.995q1.611,5.007,3.25,10.005a2.445,2.445,0,0,0,2.678,1.941c1.709.016,3.419,0,5.128,0,1.776,0,3.553.014,5.329-.005a2.43,2.43,0,0,0,2.595-1.917q1.64-5,3.251-10.006A2.4,2.4,0,0,0,1586.719,419.491Z" transform="translate(-242.561 7.702)" fill="#057faf" stroke="#47280a" stroke-miterlimit="10" stroke-width="3"/><path d="M1651.525,424.9c0-.053.006-.1.007-.157a.9.9,0,0,0-.017-.194,14.69,14.69,0,0,0-.472-3.266l-.007-.03-.018-.054a14.533,14.533,0,0,0-1.789-4.04,13.591,13.591,0,0,0-3.277-3.612,14.387,14.387,0,0,0-8.448-3.081,1.148,1.148,0,0,0-.163-.015,12.805,12.805,0,0,0-3.861.434c-.035.01-.067.022-.1.032a14.457,14.457,0,0,0-3.8,1.588,13.436,13.436,0,0,0-4.97,4.9,14.477,14.477,0,0,0-.474,14.279,13.694,13.694,0,0,0,4.169,4.908,14.541,14.541,0,0,0,3.063,1.765c.022.009.043.02.065.03a13.655,13.655,0,0,0,5.04,1.105l0-.013c.179.006.358.013.538.013a14.483,14.483,0,0,0,4.447-.708c.148-.046.293-.1.439-.15.107-.038.212-.079.318-.12.208-.08.414-.163.618-.255a14.635,14.635,0,0,0,4.654-3.264,13.373,13.373,0,0,0,3.281-5.4,14.273,14.273,0,0,0,.751-4.63C1651.527,424.951,1651.525,424.928,1651.525,424.9Z" transform="translate(-242.561 7.702)" fill="#fff" stroke="#47280a" stroke-miterlimit="10" stroke-width="3"/><path d="M1639.368,437.277c0-.052.147-.1.232-.14a1.5,1.5,0,0,0,1-1.321,1.465,1.465,0,0,0-.79-1.484.379.379,0,0,1-.247-.388,1.923,1.923,0,0,0-.04-.4,1.024,1.024,0,0,1,.282-.992,1.493,1.493,0,0,0-.855-2.48.489.489,0,0,1-.44-.356,1.181,1.181,0,0,0-.107-.231,1.157,1.157,0,0,1-.106-1.163,1.508,1.508,0,0,0-1.722-2,.981.981,0,0,1-.47-.144c-.073-.031-.116-.124-.182-.175a1.229,1.229,0,0,1-.513-1.126,1.486,1.486,0,0,0-2.262-1.249.442.442,0,0,1-.527.016.971.971,0,0,0-.261-.127,1.128,1.128,0,0,1-.815-.831,1.489,1.489,0,0,0-2.545-.45.509.509,0,0,1-.587.208.774.774,0,0,0-.253-.026,1.011,1.011,0,0,1-.98-.478,1.5,1.5,0,0,0-2.59.447.5.5,0,0,1-.421.372,1.694,1.694,0,0,0-.523.147.565.565,0,0,1-.718-.122,14.171,14.171,0,0,0-.163,2.163c0,.151.007.3.012.45a1.683,1.683,0,0,0,.826-1.227.464.464,0,0,1,.224-.259,3.066,3.066,0,0,1,.38-.121.544.544,0,0,1,.707.2,1.486,1.486,0,0,0,2.4-.241.583.583,0,0,1,.664-.326c.365.033.632.07.813.513a1.455,1.455,0,0,0,2.32.5.461.461,0,0,1,.629-.08,2.221,2.221,0,0,0,.365.166.366.366,0,0,1,.261.41,1.533,1.533,0,0,0,2.16,1.448.584.584,0,0,1,.371.055c.084.033.139.132.215.193a.686.686,0,0,1,.266.854,1.487,1.487,0,0,0,1.52,1.9c.251-.009.382.055.464.279a2.013,2.013,0,0,0,.161.326.446.446,0,0,1-.058.6,1.52,1.52,0,0,0,.683,2.436c.259.087.358.2.35.456a1.429,1.429,0,0,0,.039.325.447.447,0,0,1-.254.551,1.507,1.507,0,0,0-.188,2.5.443.443,0,0,1,.18.577c-.063.17-.084.356-.15.524a.338.338,0,0,1-.191.177c-.848.249-1.069.4-1.335,1.073.147,0,.293.01.441.01a14.213,14.213,0,0,0,2.412-.212.353.353,0,0,0-.059-.092C1638.779,438.375,1639.329,437.822,1639.368,437.277Z" transform="translate(-242.561 7.702)" fill="#057faf" stroke="#47280a" stroke-miterlimit="10" stroke-width="1"/><path d="M1638.339,411.178a.445.445,0,0,1,.283.482.51.51,0,0,0,.006.146,1.36,1.36,0,0,1-.364,1.283,1.476,1.476,0,0,0,.926,2.385.41.41,0,0,1,.383.315,1.383,1.383,0,0,0,.117.267,1.2,1.2,0,0,1,.079,1.193,1.5,1.5,0,0,0,1.672,2.006.491.491,0,0,1,.524.2,1.284,1.284,0,0,0,.176.185,1.1,1.1,0,0,1,.452,1.034,1.479,1.479,0,0,0,2.217,1.354.479.479,0,0,1,.559.008.867.867,0,0,0,.2.1,1.265,1.265,0,0,1,.882.912,1.466,1.466,0,0,0,2.491.472.609.609,0,0,1,.629-.219,1,1,0,0,0,.216.028.92.92,0,0,1,.991.53.887.887,0,0,0,.473.377l.01.005a14.389,14.389,0,0,0-.361-2.5,1.793,1.793,0,0,0-.217.247c-.1.12-.2.335-.312.342a4.251,4.251,0,0,1-.937-.089c-.046-.007-.078-.136-.105-.212a1.552,1.552,0,0,0-2.561-.7.486.486,0,0,1-.367.059,3.8,3.8,0,0,1-.463-.207c-.235-.089-.37-.224-.287-.463a1.527,1.527,0,0,0-2.038-1.493.45.45,0,0,1-.588-.142,3.44,3.44,0,0,1-.319-.347.51.51,0,0,1-.067-.372,1.556,1.556,0,0,0-1.495-2.17c-.12,0-.246-.122-.35-.21-.06-.05-.077-.149-.118-.223a.666.666,0,0,1,.056-.886,1.488,1.488,0,0,0-.7-2.325.444.444,0,0,1-.354-.457,3.981,3.981,0,0,1-.025-.544.825.825,0,0,1,.151-.286c.005-.009.025-.008.032-.016a.99.99,0,0,1,.244-.207,14.141,14.141,0,0,0-2.184-.3A1.229,1.229,0,0,0,1638.339,411.178Z" transform="translate(-242.561 7.702)" fill="#057faf" stroke="#47280a" stroke-miterlimit="10" stroke-width="1"/></g></svg>