<svg xmlns="http://www.w3.org/2000/svg" width="322.58" height="322.58" viewBox="0 0 322.58 322.58"><g transform="translate(-643.568 -186)"><circle cx="161.29" cy="161.29" r="161.29" transform="translate(643.568 186)" fill="#f4f5f3"/><circle cx="149.551" cy="149.551" r="149.551" transform="translate(655.307 197.739)" fill="#e3f1f0"/><path d="M1046.74,191.789c-81.5,0-147.8,66.3-147.8,147.8a147.939,147.939,0,0,0,2.887,29.118c14.074-10.371,15.906-16.68,18.387-25.266.566-1.958,1.151-3.983,1.917-6.2l.17-.495c3.013-8.765,12.182-35.441,29.426-41.78.737-.27,1.512-.561,2.31-.862a4.052,4.052,0,0,1,1.712-1.142c36.294-14.116,36.321-14.126,36.393-14.149.093-.034,12.723-4.472,16.925-5.917.106-.036,12.39-3.548,20.672-3.409h.053c2.705-.02,11.973-.029,17.571.833.318.048,10.362,2.072,13.7,3.1,1.215.373,9.708,3.388,10.673,3.731a3.276,3.276,0,0,1,1.125.7c.717.295,1.436.594,2.166.907,17.558,7.552,22.9,10.774,29.658,14.854l1.874,1.129a86.273,86.273,0,0,0,22.776,8.78c1.08.212,2.194.46,3.324.755.921-4.354,2.621-8.651,5.758-10.158a5.813,5.813,0,0,1,5.856.534c5.014,3.128,1.536,11.026-.5,14.754a27.215,27.215,0,0,1,8.835,11.846c4.142,10.191,13.359,22.1,17.294,27.18.59.761,1.076,1.389,1.431,1.861,9.84,13.108,9.252,16.966,9.059,18.234a7.509,7.509,0,0,1-3.819,5.666c-3.763,2.031-9.511,1.221-17.568-2.475-11.247-5.16-18.805-8.461-26.268-9.386.21,6.252,1.1,14.722,2.691,16.736a22.958,22.958,0,0,0,3.338,3.042c2.828,2.286,6.349,5.131,4.4,8.467-2.122,3.63-6.012,4.718-10.218,4.718a41.029,41.029,0,0,1-7.559-.852c-5.22-1-6.281-3.882-7.133-6.2a7.708,7.708,0,0,0-1.932-3.34c-8.407-7.843-16.594-23.661-17.834-26.109-.261-.023-.521-.041-.78-.052-.082.024-.161.054-.245.073l-4.39,1.018a4.017,4.017,0,0,0-1.091,3.052c-.034,2.177-.175,4.888-.324,7.758-.3,5.685-.842,16.2.261,18.107,2.362,1.584,4.39,2.5,9.126,4.381,2.217.881,3.561,3.537,3.2,6.317-.446,3.4-3.161,5.724-7.262,6.209-6.839.812-19.571,2.319-23.206-7.347-.985-2.617-1.933-5.327-2.77-7.718-1.405-4.011-3.153-9.005-3.908-9.839a17.658,17.658,0,0,1-1.716-2.68c-2.356-4.062-7.26-12.514-12.921-12.708-1.008-.035-1.974-.063-2.921-.088a96.832,96.832,0,0,0-3.935,13.08c.234.4,1.371,1.594,6.868,3.848a6.624,6.624,0,0,1,4.25,7.351,7.794,7.794,0,0,1-7.373,6.379c-1.716.108-3.474.186-5.2.186-5.169,0-10.095-.7-12.94-3.376a6.959,6.959,0,0,1-2.212-5.216c.013-3.973-1.778-5.195-4.046-6.742-1.854-1.265-4.162-2.84-4.541-6.064-.174-1.479-.49-3.451-.884-5.7-3.192,5.321-8,19.816-8.16,21.909.408,1.126,4.92,4.354,12.731,6.972,3.58,1.2,5.529,3.769,5.214,6.875a8.3,8.3,0,0,1-7.222,6.942c-.591.072-1.386.2-2.334.349a83.5,83.5,0,0,1-12.878,1.286c-6.838,0-13.563-1.575-15.614-7.692-1.482-4.42-4.668-8.565-7.479-12.223-3.489-4.539-6.5-8.46-6.214-12.44.456-6.289,1.668-22.992-6.653-28.084-4.445-2.719-8-2.713-12.686.022-1.831,1.068-4.27,4.351-7.095,8.153-7.228,9.725-19.1,25.683-41.665,33.274a148.035,148.035,0,0,0,137.273,93.029c81.5,0,147.8-66.3,147.8-147.8S1128.236,191.789,1046.74,191.789Z" transform="translate(-242.561 7.702)" fill="none"/><path d="M1032.578,365.615c-.159,0-.268,0-.349-.008v.007l-.988-.136c-.05-.012-.093-.037-.142-.051a47.636,47.636,0,0,0-7.571.967c.56,3.1,1.019,5.832,1.251,7.806.132,1.126.832,1.7,2.649,2.941,2.528,1.724,5.989,4.086,5.968,10.394a2.526,2.526,0,0,0,.829,2c2.92,2.751,11.9,2.186,14.85,2a3.372,3.372,0,0,0,3.306-2.7,2.237,2.237,0,0,0-1.577-2.564c-4.769-1.955-9.837-4.352-9.6-8.058.1-1.593,1.743-7.587,3.686-13.038l-.98-.013C1035.985,365.517,1033.478,365.615,1032.578,365.615Z" transform="translate(-242.561 7.702)" fill="#fce5c4"/><path d="M1043.4,378.349c-.144,2.279,4.875,4.5,8.242,5.883,5.1,2.091,3.228,9.143-2.426,9.5-5.025.316-18.043,1.077-18.018-6.2.03-8.922-7.983-7.812-8.6-13.07-.22-1.869-.648-4.438-1.178-7.383a2.958,2.958,0,0,0-1.068.73,10.481,10.481,0,0,0-.824,1.21c.394,2.248.71,4.22.884,5.7.379,3.224,2.687,4.8,4.541,6.064,2.268,1.547,4.059,2.769,4.046,6.742a6.959,6.959,0,0,0,2.212,5.216c2.845,2.68,7.771,3.376,12.94,3.376,1.731,0,3.489-.078,5.2-.186a7.794,7.794,0,0,0,7.373-6.379,6.624,6.624,0,0,0-4.25-7.351c-5.5-2.254-6.634-3.447-6.868-3.848a96.832,96.832,0,0,1,3.935-13.08q-1.2-.033-2.328-.056C1045.249,370.631,1043.484,376.939,1043.4,378.349Z" transform="translate(-242.561 7.702)" fill="#47280a"/><path d="M1041.2,378.21c-.233,3.706,4.835,6.1,9.6,8.058a2.237,2.237,0,0,1,1.577,2.564,3.372,3.372,0,0,1-3.306,2.7c-2.951.184-11.93.749-14.85-2a2.526,2.526,0,0,1-.829-2c.021-6.308-3.44-8.67-5.968-10.394-1.817-1.239-2.517-1.815-2.649-2.941-.232-1.974-.691-4.709-1.251-7.806a11.4,11.4,0,0,0-2.113.681c.53,2.945.958,5.514,1.178,7.383.619,5.258,8.632,4.148,8.6,13.07-.025,7.279,12.993,6.518,18.018,6.2,5.654-.355,7.525-7.407,2.426-9.5-3.367-1.381-8.386-3.6-8.242-5.883.088-1.41,1.853-7.718,3.816-13.137q-1.2-.025-2.327-.04C1042.942,370.623,1041.3,376.617,1041.2,378.21Z" transform="translate(-242.561 7.702)" fill="#47280a"/><path d="M1141.943,298.374c-.979-.61-1.429-.393-1.621-.3-1.083.521-2.515,2.816-3.448,7.543a30.537,30.537,0,0,1,3.16,1.429C1142.007,303.314,1143.193,299.154,1141.943,298.374Z" transform="translate(-242.561 7.702)" fill="#fce5c4"/><path d="M1143.107,296.506c3.311,2.065.481,8.488-1.171,11.62q.933.586,1.837,1.267c2.035-3.728,5.513-11.626.5-14.754a5.813,5.813,0,0,0-5.856-.534c-3.137,1.507-4.837,5.8-5.758,10.158.7.183,1.411.391,2.122.617C1136.282,297.586,1139.286,294.122,1143.107,296.506Z" transform="translate(-242.561 7.702)" fill="#47280a"/><path d="M1140.322,298.072c.192-.091.642-.308,1.621.3,1.25.78.064,4.94-1.909,8.67.64.334,1.276.689,1.9,1.082,1.652-3.132,4.482-9.555,1.171-11.62-3.821-2.384-6.825,1.08-8.327,8.374.7.222,1.4.464,2.094.735C1137.807,300.888,1139.239,298.593,1140.322,298.072Z" transform="translate(-242.561 7.702)" fill="#47280a"/><path d="M1131.454,339.587a.167.167,0,0,0,.112-.027c.007-.009-.02-.033-.066-.04a.177.177,0,0,0-.112.026l.022.028A.163.163,0,0,0,1131.454,339.587Z" transform="translate(-242.561 7.702)" fill="#fce5c4"/><path d="M1131.409,339.574l-.021-.027a.071.071,0,0,0-.016.018l.005,0A.151.151,0,0,1,1131.409,339.574Z" transform="translate(-242.561 7.702)" fill="#fce5c4"/><path d="M1099.71,352.21a4.1,4.1,0,0,1,.907,2.8c1.341.2,2.582.47,3.614.7l22.071,2.362c.464,0,.928-.005,1.392-.014,10.166-.209,18.722,3.471,32.98,10.011a39.919,39.919,0,0,0,7.563,2.717c-.021-1.693,1.215-3.779,3.29-5.262a8.218,8.218,0,0,1,3.814-1.537,67.86,67.86,0,0,0-7.209-11.3c-.345-.461-.819-1.073-1.394-1.815-4.036-5.213-13.489-17.423-17.837-28.122-3.514-8.642-9.529-12.285-15.664-14.162l-1.253-.148c.008-.067.018-.137.026-.2-1.155-.311-2.309-.575-3.446-.8a89.671,89.671,0,0,1-24.064-9.276l-1.883-1.134c-6.58-3.971-11.794-7.116-28.8-14.441a5.127,5.127,0,0,1-.715,1.486C1069.962,288.431,1062.59,306.234,1099.71,352.21Zm29.4-15.807a3.854,3.854,0,0,1,5.506.795,4.031,4.031,0,0,1-.766,5.505h0a3.825,3.825,0,0,1-2.361.817,3.881,3.881,0,0,1-3.145-1.611A4.032,4.032,0,0,1,1129.107,336.4Zm-33.018-30.186a8.328,8.328,0,0,1,5.847-5.6,6.183,6.183,0,0,1,5.306.681c5.919,3.7,8.1,17.535,8.327,19.1l-4.355.639c-.756-5.138-3.135-14.026-6.306-16.006a1.792,1.792,0,0,0-1.635-.22,3.935,3.935,0,0,0-2.969,2.679c-1.1,3.66,1.962,10.488,8.2,18.264l-3.433,2.756C1099.865,322.017,1094.079,312.882,1096.089,306.217Z" transform="translate(-242.561 7.702)" fill="#fce5c4"/><path d="M1015.937,349.478c-.032-.186-.061-.342-.088-.473a3.056,3.056,0,0,1-1.334-1.474l1.991-.938h0l1.99-.939a1.692,1.692,0,0,0-1.36-.744c-.009,0-.015,0-.009,0h.036c1.923,0,2.6,1.525,2.915,2.829l9.8,3.14c-.075-.679-.175-1.4-.31-2.177-1.1-6.361-12.3-17.9-25.507-20.807-7.013-1.545-16.963-1.077-24.557,9.906a16.5,16.5,0,0,0-2.844,8.076,15.684,15.684,0,0,1-.893,3.987,4.686,4.686,0,0,1-.7,1.186c8.145,7.333,7,23.174,6.491,30.233-.179,2.46,2.528,5.983,5.4,9.713,3,3.906,6.4,8.333,8.1,13.389,2.4,7.156,17.587,4.751,24.073,3.725,1.005-.159,1.848-.292,2.475-.368a4.291,4.291,0,0,0,3.725-3.374c.148-1.469-1.28-2.267-2.5-2.677-2.606-.873-15.6-5.5-15.464-10.8.081-3.178,6.267-21.188,9.89-25.616a5.47,5.47,0,0,1,1.383-1.165q-.328-1.764-.675-3.6C1017.27,356.856,1016.56,353.083,1015.937,349.478Z" transform="translate(-242.561 7.702)" fill="#fce5c4"/><path d="M962.76,346.214c4.728-20.22,1.839-35.863-8.586-46.495a4.128,4.128,0,0,1-.77-1.112l-.3.111c-15.458,5.682-24.162,31-27.022,39.324l-.171.5c-.733,2.126-1.3,4.1-1.855,6.012-2.682,9.278-4.817,16.633-21.314,28.431a146.654,146.654,0,0,0,5.28,17.641c21.458-7.136,32.487-21.96,39.894-31.926,3.34-4.494,5.753-7.741,8.289-9.223a18.327,18.327,0,0,1,6.458-2.434A3.662,3.662,0,0,1,962.76,346.214Z" transform="translate(-242.561 7.702)" fill="#fce5c4"/><path d="M1069.707,349.652c-5.008.689-9.436,4.951-13.164,12.661,5.825,2.6,10.062,9.884,12.3,13.743.484.834,1.033,1.781,1.227,2.009,1.234,1.364,2.465,4.778,4.712,11.2.87,2.486,1.77,5.057,2.738,7.63,2.336,6.212,11.027,5.726,18.99,4.783,2.229-.264,3.566-1.243,3.765-2.756a2.148,2.148,0,0,0-.708-2.078c-4.645-1.846-7.149-2.928-10.024-4.875-2.624-1.778-2.589-7.929-1.881-21.54.147-2.832.286-5.509.32-7.613a9.813,9.813,0,0,1,.5-3.044,4.079,4.079,0,0,1-1.045-.841C1085.281,356.476,1077.626,348.568,1069.707,349.652Z" transform="translate(-242.561 7.702)" fill="#fce5c4"/><path d="M1016.506,346.593h0Z" transform="translate(-242.561 7.702)" fill="#fce5c4"/><path d="M1029.022,359.376a16.732,16.732,0,0,0,.852-8.5l-9.8-3.14c.086.359.147.7.2.992.617,3.571,1.324,7.328,2.007,10.96l.535,2.85a44.017,44.017,0,0,1,5.789-.9A6.322,6.322,0,0,1,1029.022,359.376Z" transform="translate(-242.561 7.702)" fill="#fce5c4"/><path d="M1017.136,344.91h-.009C1017.121,344.91,1017.127,344.91,1017.136,344.91Z" transform="translate(-242.561 7.702)" fill="#fce5c4"/><path d="M1017.163,344.909h-.027a1.692,1.692,0,0,1,1.36.744l-1.99.939,3.572,1.145C1019.763,346.434,1019.086,344.909,1017.163,344.909Z" transform="translate(-242.561 7.702)" fill="#fce5c4"/><path d="M1016.506,346.593l-1.991.938a3.056,3.056,0,0,0,1.334,1.474c.027.131.056.287.088.473.623,3.605,1.333,7.378,2.019,11.026q.345,1.836.675,3.6a10.909,10.909,0,0,1,2.062-.953c-.835-4.471-1.789-9.43-2.587-14.05C1017.54,345.823,1017.135,347.929,1016.506,346.593Z" transform="translate(-242.561 7.702)" fill="#fce5c4"/><path d="M1022.282,359.69c-.683-3.632-1.39-7.389-2.007-10.96-.05-.289-.111-.633-.2-.992l-3.572-1.145h0c.629,1.336,1.034-.77,1.6,2.511.8,4.62,1.752,9.579,2.587,14.05a20.35,20.35,0,0,1,2.124-.614Z" transform="translate(-242.561 7.702)" fill="#fce5c4"/><path d="M1133.237,308.584q-.614-.187-1.227-.352c-.008.067-.018.137-.026.2Z" transform="translate(-242.561 7.702)" fill="#fce5c4"/><path d="M1140.943,309.88h-.007a24.906,24.906,0,0,1,9.818,12.114c4.846,11.921,16.152,25.724,18.978,29.489,2.1,2.8,6.2,8.477,7.925,12.844a2.519,2.519,0,0,1,.986.83c.776,1.166.479,2.88-.6,4.477a5.48,5.48,0,0,1-4.592,3.49,4.91,4.91,0,0,1-3.849-.04,36.765,36.765,0,0,1-9.763-3.2c-11.682-5.359-19.364-8.71-27.15-9.6l.006.409c.008.516.024,1.063.042,1.62,7.463.925,15.021,4.226,26.268,9.386,8.057,3.7,13.805,4.506,17.568,2.475a7.509,7.509,0,0,0,3.819-5.666c.193-1.268.781-5.126-9.059-18.234-.355-.472-.841-1.1-1.431-1.861-3.935-5.085-13.152-16.989-17.294-27.18a27.215,27.215,0,0,0-8.835-11.846c-.4.733-.745,1.308-.958,1.651Z" transform="translate(-242.561 7.702)" fill="#47280a"/><path d="M1073.874,279.439a4.657,4.657,0,0,1,.192,1.074l.169.07c19.046,8.192,23.688,11.3,31.294,15.86a88.364,88.364,0,0,0,23.42,9.028c1.078.211,2.2.464,3.342.766.106-.653.228-1.314.367-1.974-1.13-.3-2.244-.543-3.324-.755a86.273,86.273,0,0,1-22.776-8.78l-1.874-1.129c-6.76-4.08-12.1-7.3-29.658-14.854-.73-.313-1.449-.612-2.166-.907A3.622,3.622,0,0,1,1073.874,279.439Z" transform="translate(-242.561 7.702)" fill="#47280a"/><path d="M924.023,337.888c2.672-7.755,11.705-34.914,28.4-41.049.192-.07.4-.148.594-.221a4.171,4.171,0,0,1,.106-.763,4.114,4.114,0,0,1,.92-1.756c-.8.3-1.573.592-2.31.862-17.244,6.339-26.413,33.015-29.426,41.78l-.17.495c-.766,2.221-1.351,4.246-1.917,6.2-2.481,8.586-4.313,14.895-18.387,25.266.144.717.3,1.432.452,2.146C920.864,357.368,919.8,350.155,924.023,337.888Z" transform="translate(-242.561 7.702)" fill="#47280a"/><path d="M1090.415,360.308a7.68,7.68,0,0,0-.432,2.537c-.135,8.505-1.942,25.686.683,27.464s4.852,2.77,9.641,4.673c2.785,1.106,3.506,7.843-3.561,8.68s-18.069,1.987-21.1-6.065-5.552-16.522-7.066-18.195c-1.348-1.489-6.282-12.8-13.34-15.475a4.046,4.046,0,0,1-2.138.813l-3.427.157c-.046.122-.091.247-.137.371.947.025,1.913.053,2.921.088,5.661.194,10.565,8.646,12.921,12.708a17.658,17.658,0,0,0,1.716,2.68c.755.834,2.5,5.828,3.908,9.839.837,2.391,1.785,5.1,2.77,7.718,3.635,9.666,16.367,8.159,23.206,7.347,4.1-.485,6.816-2.806,7.262-6.209.363-2.78-.981-5.436-3.2-6.317-4.736-1.881-6.764-2.8-9.126-4.381-1.1-1.9-.556-12.422-.261-18.107.149-2.87.29-5.581.324-7.758a4.017,4.017,0,0,1,1.091-3.052l-1.666.386A4.032,4.032,0,0,1,1090.415,360.308Z" transform="translate(-242.561 7.702)" fill="#47280a"/><path d="M1097.709,358.733c.259.011.519.029.78.052-.076-.149-.126-.25-.149-.3A4,4,0,0,1,1097.709,358.733Z" transform="translate(-242.561 7.702)" fill="#47280a"/><path d="M951.132,361.084c2.825-3.8,5.264-7.085,7.095-8.153,4.684-2.735,8.241-2.741,12.686-.022,8.321,5.092,7.109,21.8,6.653,28.084-.288,3.98,2.725,7.9,6.214,12.44,2.811,3.658,6,7.8,7.479,12.223,2.051,6.117,8.776,7.692,15.614,7.692a83.5,83.5,0,0,0,12.878-1.286c.948-.15,1.743-.277,2.334-.349a8.3,8.3,0,0,0,7.222-6.942c.315-3.106-1.634-5.675-5.214-6.875-7.811-2.618-12.323-5.846-12.731-6.972.164-2.093,4.968-16.588,8.16-21.909q-.228-1.3-.487-2.718a3.009,3.009,0,0,0-.238.242c-3.365,4.113-9.371,21.751-9.438,24.4s7.234,6.553,14.1,8.854,3.533,9.306-1.615,9.934-25.356,5.227-28.687-4.707-14.041-17.726-13.594-23.882c.527-7.265,1.448-22.6-6.253-28.959a8.2,8.2,0,0,1-4.318-.536c-.482-.154-1.005-.323-1.572-.479-.9-.247-3.013-.836-4.1-2.213a15.923,15.923,0,0,0-6.1,2.252c-7.369,4.3-17.2,30.844-48.477,41.3.239.621.479,1.242.726,1.859C932.032,386.767,943.9,370.809,951.132,361.084Z" transform="translate(-242.561 7.702)" fill="#47280a"/><path d="M1029.079,363.763c-.028-.054-.045-.111-.07-.166a43.825,43.825,0,0,0-5.831.887q.18.975.349,1.91a47.636,47.636,0,0,1,7.571-.967A3.273,3.273,0,0,1,1029.079,363.763Z" transform="translate(-242.561 7.702)" fill="#47280a"/><path d="M1044.885,365.172l.02-.058-1,.045Z" transform="translate(-242.561 7.702)" fill="#47280a"/><path d="M1047.286,365.006c-.025.068-.049.137-.074.206q1.133.024,2.328.056c.046-.124.091-.249.137-.371Z" transform="translate(-242.561 7.702)" fill="#47280a"/><path d="M1021.414,367.075c-.115-.635-.232-1.282-.355-1.95a6.066,6.066,0,0,0-2.024,1.172q.26,1.416.487,2.718a10.481,10.481,0,0,1,.824-1.21A2.958,2.958,0,0,1,1021.414,367.075Z" transform="translate(-242.561 7.702)" fill="#47280a"/><path d="M1023.178,364.484a16.737,16.737,0,0,0-2.119.641c.123.668.24,1.315.355,1.95a11.4,11.4,0,0,1,2.113-.681Q1023.358,365.459,1023.178,364.484Z" transform="translate(-242.561 7.702)" fill="#47280a"/><path d="M1044.885,365.172q1.129.015,2.327.04c.025-.069.049-.138.074-.206l-2.381.108Z" transform="translate(-242.561 7.702)" fill="#47280a"/><path d="M1139.077,308.719c.334-.539.654-1.1.957-1.675a30.537,30.537,0,0,0-3.16-1.429c-.124.63-.241,1.3-.345,2.016a27.434,27.434,0,0,1,4.241,2.141Z" transform="translate(-242.561 7.702)" fill="#47280a"/><path d="M1140.936,309.879h.007l-.061-.038C1140.9,309.853,1140.918,309.867,1140.936,309.879Z" transform="translate(-242.561 7.702)" fill="#47280a"/><path d="M1134.419,306.865c.107-.693.23-1.349.361-1.985-.711-.226-1.42-.434-2.122-.617-.139.66-.261,1.321-.367,1.974Q1133.346,306.516,1134.419,306.865Z" transform="translate(-242.561 7.702)" fill="#47280a"/><path d="M1140.946,309.881h0l1.872,1.164c.213-.343.558-.918.958-1.651q-.9-.681-1.837-1.267C1141.373,309.194,1140.946,309.881,1140.946,309.881Z" transform="translate(-242.561 7.702)" fill="#47280a"/><path d="M1136.874,305.615c-.7-.271-1.4-.513-2.094-.735-.131.636-.254,1.292-.361,1.985.7.229,1.405.482,2.11.766C1136.633,306.913,1136.75,306.245,1136.874,305.615Z" transform="translate(-242.561 7.702)" fill="#47280a"/><path d="M1139.077,308.719l1.693,1.053.112.07.061.038h0s.427-.687.99-1.755c-.626-.393-1.262-.748-1.9-1.082C1139.731,307.617,1139.411,308.18,1139.077,308.719Z" transform="translate(-242.561 7.702)" fill="#47280a"/><path d="M924.06,344.551c.551-1.911,1.122-3.886,1.855-6.012l.171-.5c2.86-8.321,11.564-33.642,27.022-39.324l.3-.111a4.079,4.079,0,0,1-.392-1.989c-.2.073-.4.151-.594.221-16.69,6.135-25.723,33.294-28.4,41.049-4.226,12.267-3.159,19.48-21.743,32.964.153.711.3,1.423.466,2.13C919.243,361.184,921.378,353.829,924.06,344.551Z" transform="translate(-242.561 7.702)" fill="#47280a"/><path d="M956.209,349.474c-2.536,1.482-4.949,4.729-8.289,9.223-7.407,9.966-18.436,24.79-39.894,31.926.232.628.475,1.251.715,1.876,31.282-10.452,41.108-36.994,48.477-41.3a15.923,15.923,0,0,1,6.1-2.252,2.984,2.984,0,0,1-.656-1.911A18.327,18.327,0,0,0,956.209,349.474Z" transform="translate(-242.561 7.702)" fill="#47280a"/><path d="M1073.821,282.584c17,7.325,22.216,10.47,28.8,14.441l1.883,1.134a89.671,89.671,0,0,0,24.064,9.276c1.137.222,2.291.486,3.446.8.079-.65.171-1.317.281-1.995-1.142-.3-2.264-.555-3.342-.766a88.364,88.364,0,0,1-23.42-9.028c-7.606-4.562-12.248-7.668-31.294-15.86l-.169-.07A5.8,5.8,0,0,1,1073.821,282.584Z" transform="translate(-242.561 7.702)" fill="#47280a"/><path d="M1134.169,308.694l-.932-.11c6.135,1.877,12.15,5.52,15.664,14.162,4.348,10.7,13.8,22.909,17.837,28.122.575.742,1.049,1.354,1.394,1.815a67.86,67.86,0,0,1,7.209,11.3,4.094,4.094,0,0,1,2.316.341c-1.723-4.367-5.824-10.047-7.925-12.844-2.826-3.765-14.132-17.568-18.978-29.489a24.906,24.906,0,0,0-9.818-12.114l-6.767-1.185Z" transform="translate(-242.561 7.702)" fill="#47280a"/><path d="M1100.587,355.318l3.644.39c-1.032-.233-2.273-.5-3.614-.7C1100.611,355.109,1100.6,355.214,1100.587,355.318Z" transform="translate(-242.561 7.702)" fill="#47280a"/><path d="M1017.248,365.272c-3.623,4.428-9.809,22.438-9.89,25.616-.134,5.3,12.858,9.929,15.464,10.8,1.224.41,2.652,1.208,2.5,2.677a4.291,4.291,0,0,1-3.725,3.374c-.627.076-1.47.209-2.475.368-6.486,1.026-21.673,3.431-24.073-3.725-1.7-5.056-5.1-9.483-8.1-13.389-2.867-3.73-5.574-7.253-5.4-9.713.512-7.059,1.654-22.9-6.491-30.233a3.258,3.258,0,0,1-1.758,1.13c7.7,6.358,6.78,21.694,6.253,28.959-.447,6.156,10.263,13.948,13.594,23.882s23.538,5.334,28.687,4.707,8.479-7.634,1.615-9.934-14.167-6.2-14.1-8.854,6.073-20.287,9.438-24.4a3.009,3.009,0,0,1,.238-.242c-.13-.713-.265-1.445-.4-2.19A5.47,5.47,0,0,0,1017.248,365.272Z" transform="translate(-242.561 7.702)" fill="#47280a"/><path d="M1168.673,372.284a2.726,2.726,0,0,1-.436-1.5,39.919,39.919,0,0,1-7.563-2.717c-14.258-6.54-22.814-10.22-32.98-10.011-.464.009-.928.012-1.392.014l6.364.681.023,1.539c7.786.886,15.468,4.237,27.15,9.6a36.765,36.765,0,0,0,9.763,3.2A2.513,2.513,0,0,1,1168.673,372.284Z" transform="translate(-242.561 7.702)" fill="#47280a"/><path d="M1175.789,371.919a9.034,9.034,0,0,1-2.338,1.2,5.48,5.48,0,0,0,4.592-3.49A9.147,9.147,0,0,1,1175.789,371.919Z" transform="translate(-242.561 7.702)" fill="#47280a"/><path d="M1088.483,359.769a9.813,9.813,0,0,0-.5,3.044c-.034,2.1-.173,4.781-.32,7.613-.708,13.611-.743,19.762,1.881,21.54,2.875,1.947,5.379,3.029,10.024,4.875a2.148,2.148,0,0,1,.708,2.078c-.2,1.513-1.536,2.492-3.765,2.756-7.963.943-16.654,1.429-18.99-4.783-.968-2.573-1.868-5.144-2.738-7.63-2.247-6.419-3.478-9.833-4.712-11.2-.194-.228-.743-1.175-1.227-2.009-2.239-3.859-6.476-11.143-12.3-13.743-.017.035-.034.067-.051.1a4.128,4.128,0,0,1-1.25,1.512c7.058,2.678,11.992,13.986,13.34,15.475,1.514,1.673,4.038,10.143,7.066,18.195s14.032,6.9,21.1,6.065,6.346-7.574,3.561-8.68c-4.789-1.9-7.016-2.895-9.641-4.673s-.818-18.959-.683-27.464a7.68,7.68,0,0,1,.432-2.537A4.034,4.034,0,0,1,1088.483,359.769Z" transform="translate(-242.561 7.702)" fill="#47280a"/><path d="M1028.606,361.639a44.017,44.017,0,0,0-5.789.9q.184.987.361,1.944a43.825,43.825,0,0,1,5.831-.887A4.687,4.687,0,0,1,1028.606,361.639Z" transform="translate(-242.561 7.702)" fill="#47280a"/><path d="M1021.059,365.125q-.179-.966-.366-1.971a10.909,10.909,0,0,0-2.062.953c.139.745.274,1.477.4,2.19A6.066,6.066,0,0,1,1021.059,365.125Z" transform="translate(-242.561 7.702)" fill="#47280a"/><path d="M1022.817,362.54a20.35,20.35,0,0,0-2.124.614q.188,1.005.366,1.971a16.737,16.737,0,0,1,2.119-.641Q1023,363.527,1022.817,362.54Z" transform="translate(-242.561 7.702)" fill="#47280a"/><path d="M1140.77,309.772a27.434,27.434,0,0,0-4.241-2.141c-.062.425-.12.863-.174,1.32l-2.186-.257h0l6.767,1.185c-.018-.012-.036-.026-.054-.037Z" transform="translate(-242.561 7.702)" fill="#47280a"/><path d="M1133.237,308.584l.932.11q.111-.945.25-1.829-1.072-.351-2.128-.628c-.11.678-.2,1.345-.281,1.995Q1132.623,308.4,1133.237,308.584Z" transform="translate(-242.561 7.702)" fill="#47280a"/><path d="M1140.77,309.772l.112.07Z" transform="translate(-242.561 7.702)" fill="#47280a"/><path d="M1136.355,308.951c.054-.457.112-.895.174-1.32-.705-.284-1.409-.537-2.11-.766q-.138.885-.25,1.829Z" transform="translate(-242.561 7.702)" fill="#47280a"/><path d="M1130.94,343.482a3.88,3.88,0,0,0,.546.039,3.825,3.825,0,0,0,2.361-.817h0a4.031,4.031,0,0,0,.766-5.505,3.854,3.854,0,0,0-5.506-.795,4.032,4.032,0,0,0-.766,5.507A3.856,3.856,0,0,0,1130.94,343.482Zm.56-3.962c.046.007.073.031.066.04a.167.167,0,0,1-.112.027.163.163,0,0,1-.044-.013l-.022-.028A.177.177,0,0,1,1131.5,339.52Zm-.112.027.021.027a.151.151,0,0,0-.032-.011l-.005,0A.071.071,0,0,1,1131.388,339.547Z" transform="translate(-242.561 7.702)" fill="#47280a"/><path d="M1108.507,325.752c-6.241-7.776-9.308-14.6-8.2-18.264a3.935,3.935,0,0,1,2.969-2.679,1.792,1.792,0,0,1,1.635.22c3.171,1.98,5.55,10.868,6.306,16.006l4.355-.639c-.229-1.565-2.408-15.4-8.327-19.1a6.183,6.183,0,0,0-5.306-.681,8.328,8.328,0,0,0-5.847,5.6c-2.01,6.665,3.776,15.8,8.985,22.291Z" transform="translate(-242.561 7.702)" fill="#47280a"/><path d="M1168.237,370.784c3.61.832,5.508.374,6.436-.126a3.511,3.511,0,0,0,1.763-2.747,8.221,8.221,0,0,0-1.1-3.926,8.218,8.218,0,0,0-3.814,1.537C1169.452,367.005,1168.216,369.091,1168.237,370.784Z" transform="translate(-242.561 7.702)" fill="#47280a"/><path d="M1169.6,373.083a4.91,4.91,0,0,0,3.849.04A12.758,12.758,0,0,1,1169.6,373.083Z" transform="translate(-242.561 7.702)" fill="#47280a"/><path d="M1178.414,368.213a6.929,6.929,0,0,1-.371,1.42c1.079-1.6,1.376-3.311.6-4.477a2.519,2.519,0,0,0-.986-.83A8.105,8.105,0,0,1,1178.414,368.213Z" transform="translate(-242.561 7.702)" fill="#47280a"/><path d="M1175.341,363.985a8.221,8.221,0,0,1,1.1,3.926,3.511,3.511,0,0,1-1.763,2.747c-.928.5-2.826.958-6.436.126a2.726,2.726,0,0,0,.436,1.5,2.513,2.513,0,0,0,.929.8,12.758,12.758,0,0,0,3.849.04,9.034,9.034,0,0,0,2.338-1.2,9.147,9.147,0,0,0,2.254-2.286,6.929,6.929,0,0,0,.371-1.42,8.105,8.105,0,0,0-.757-3.887A4.094,4.094,0,0,0,1175.341,363.985Z" transform="translate(-242.561 7.702)" fill="#47280a"/><path d="M1119.325,381.676a11.838,11.838,0,0,1,3.061,5.037c.723,1.964,1.053,2.862,3.83,3.393,7.337,1.406,11.374.927,13.02-1.556a17.785,17.785,0,0,0-3.237-3.029,25.676,25.676,0,0,1-4.029-3.743c-2.772-3.519-3.457-14.218-3.626-19.062l-6.913-.74a111.167,111.167,0,0,1-13.516-1.447l-3.73-.4C1107.2,365.637,1113.33,376.082,1119.325,381.676Z" transform="translate(-242.561 7.702)" fill="#fce5c4"/><path d="M1107.915,360.529a111.167,111.167,0,0,0,13.516,1.447Z" transform="translate(-242.561 7.702)" fill="#fce5c4"/><path d="M1133.7,380.416c2.544,3.229,9.108,6.4,7.566,9.037-2.328,3.982-7.779,4.287-15.463,2.815-6.539-1.253-4.238-5.494-7.978-8.983-7.119-6.642-14.255-19.554-16.663-24.127-.849-.156-1.762-.295-2.672-.373,1.24,2.448,9.427,18.266,17.834,26.109a7.708,7.708,0,0,1,1.932,3.34c.852,2.314,1.913,5.195,7.133,6.2a41.029,41.029,0,0,0,7.559.852c4.206,0,8.1-1.088,10.218-4.718,1.95-3.336-1.571-6.181-4.4-8.467a22.958,22.958,0,0,1-3.338-3.042c-1.586-2.014-2.481-10.484-2.691-16.736-.734-.091-1.468-.153-2.2-.2C1130.669,366.076,1131.266,377.327,1133.7,380.416Z" transform="translate(-242.561 7.702)" fill="#47280a"/><path d="M1104.645,355.8l.317.072a103.5,103.5,0,0,0,21.34,2.2l-22.071-2.362Z" transform="translate(-242.561 7.702)" fill="#47280a"/><path d="M1100.307,357.5l5.411.579c-.429-.087-.837-.174-1.2-.255-1.175-.267-2.78-.646-4.5-.886a4.033,4.033,0,0,1-1.684,1.549c.023.046.073.147.149.3.91.078,1.823.217,2.672.373C1100.612,358.113,1100.307,357.5,1100.307,357.5Z" transform="translate(-242.561 7.702)" fill="#47280a"/><path d="M1132.689,360.29a36.6,36.6,0,0,0-4.951-.234c-1.18.026-2.352.026-3.51.005l6.267.671s.008.522.038,1.39c.736.044,1.47.106,2.2.2-.018-.557-.034-1.1-.042-1.62Z" transform="translate(-242.561 7.702)" fill="#47280a"/><path d="M1126.3,358.07a103.5,103.5,0,0,1-21.34-2.2l-.317-.072-.414-.094-3.644-.39a3.891,3.891,0,0,1-.563,1.622c1.716.24,3.321.619,4.5.886.361.081.769.168,1.2.255l18.51,1.98c1.158.021,2.33.021,3.51-.005a36.6,36.6,0,0,1,4.951.234l-.023-1.539Z" transform="translate(-242.561 7.702)" fill="#47280a"/><path d="M1121.431,361.976l6.913.74c.169,4.844.854,15.543,3.626,19.062a25.676,25.676,0,0,0,4.029,3.743,17.785,17.785,0,0,1,3.237,3.029c-1.646,2.483-5.683,2.962-13.02,1.556-2.777-.531-3.107-1.429-3.83-3.393a11.838,11.838,0,0,0-3.061-5.037c-5.995-5.594-12.128-16.039-15.14-21.546l3.73.4c-1.436-.246-2.735-.5-3.838-.752l-.321-.073c-.7-.16-1.6-.364-2.595-.546,2.408,4.573,9.544,17.485,16.663,24.127,3.74,3.489,1.439,7.73,7.978,8.983,7.684,1.472,13.135,1.167,15.463-2.815,1.542-2.638-5.022-5.808-7.566-9.037-2.433-3.089-3.03-14.34-3.166-18.294-.912-.055-1.826-.084-2.752-.066C1125.653,362.105,1123.52,362.07,1121.431,361.976Z" transform="translate(-242.561 7.702)" fill="#47280a"/><path d="M1100.307,357.5s.305.611.854,1.656c.99.182,1.894.386,2.595.546l.321.073c1.1.25,2.4.506,3.838.752l13.516,1.447c2.089.094,4.222.129,6.35.08.926-.018,1.84.011,2.752.066-.03-.868-.038-1.39-.038-1.39l-6.267-.671a106.662,106.662,0,0,1-18.51-1.98Z" transform="translate(-242.561 7.702)" fill="#47280a"/><path d="M1124.228,360.061l-18.51-1.98A106.662,106.662,0,0,0,1124.228,360.061Z" transform="translate(-242.561 7.702)" fill="#47280a"/><path d="M967.214,346.484a13.913,13.913,0,0,0,1.373.436c.631.174,1.213.361,1.749.533.468.15,1.058.339,1.463.431a14.922,14.922,0,0,0,.495-2.6,20.79,20.79,0,0,1,3.586-9.992c5.648-8.167,13.461-12.452,22.442-12.452a31.066,31.066,0,0,1,6.681.751c14.447,3.179,27.4,15.7,28.9,24.354a36.116,36.116,0,0,1,.5,4.382l14.131,4.53c.153-.239.3-.461.448-.649l3.477,2.7a9.666,9.666,0,0,0-.888,1.492l1.025-.047c4.406-9.1,9.96-14.164,16.508-15.066,9.938-1.374,18.822,7.565,21.509,10.584l2.432-.563a10.727,10.727,0,0,1,1.975-.458l.983-.227c-37.7-46.834-31.078-66.737-26.47-73.131a1.148,1.148,0,0,0,.133-.418c-2.936-1.041-9.014-3.188-9.9-3.46-3.046-.936-12.522-2.849-13.13-2.963-5.215-.8-14.188-.791-16.81-.772h-.175c-7.243-.119-18.544,3-19.2,3.188-4.235,1.455-16.756,5.857-16.882,5.9-.261.1-14.334,5.574-24.872,9.672-3.941,1.577-7.687,3.065-11.033,4.354C968.8,308.628,972.016,325.27,967.214,346.484Z" transform="translate(-242.561 7.702)" fill="#ea875c"/><path d="M1033.114,361a1.367,1.367,0,0,0-.065.217c1.805-.063,7.78-.326,13.6-.588a27.606,27.606,0,0,1,1.89-3.767l-14.131-4.53A19.611,19.611,0,0,1,1033.114,361Z" transform="translate(-242.561 7.702)" fill="#ea875c"/><path d="M1049.089,360.517l2.484-.113a9.666,9.666,0,0,1,.888-1.492l-3.477-2.7c-.145.188-.3.41-.448.649l2.187.7A15.917,15.917,0,0,0,1049.089,360.517Z" transform="translate(-242.561 7.702)" fill="#ea875c"/><path d="M1049.089,360.517a15.917,15.917,0,0,1,1.634-2.955l-2.187-.7a27.606,27.606,0,0,0-1.89,3.767Z" transform="translate(-242.561 7.702)" fill="#ea875c"/><path d="M1095.022,354.854a10.727,10.727,0,0,0-1.975.458Z" transform="translate(-242.561 7.702)" fill="#ea875c"/><path d="M957.622,296.951c.015.015.028.032.042.047,3.346-1.289,7.092-2.777,11.033-4.354Z" transform="translate(-242.561 7.702)" fill="#ea875c"/><path d="M1013.675,271.929c14.612-2.936,32.4-5.1,59.185,5.909a3.276,3.276,0,0,0-1.125-.7c-.965-.343-9.458-3.358-10.673-3.731-3.336-1.024-13.38-3.048-13.7-3.1-5.6-.862-14.866-.853-17.571-.833h-.053c-8.282-.139-20.566,3.373-20.672,3.409-4.2,1.445-16.832,5.883-16.925,5.917-.072.023-.1.033-36.393,14.149a4.052,4.052,0,0,0-1.712,1.142c5.084-1.922,11.344-4.434,17.926-7.076C987.664,280.723,1005.458,273.581,1013.675,271.929Z" transform="translate(-242.561 7.702)" fill="#47280a"/><path d="M1093.22,359.672c-.055.043-.094.1-.146.152l4.39-1.018c.084-.019.163-.049.245-.073A6.974,6.974,0,0,0,1093.22,359.672Z" transform="translate(-242.561 7.702)" fill="#47280a"/><path d="M1032.228,365.614v-.007c.081.005.19.008.349.008.9,0,3.407-.1,11.327-.456-5.391-.054-9.567.057-12.807.268.049.014.092.039.142.051Z" transform="translate(-242.561 7.702)" fill="#47280a"/><path d="M976.656,345.876A16.5,16.5,0,0,1,979.5,337.8c7.594-10.983,17.544-11.451,24.557-9.906,13.207,2.906,24.4,14.446,25.507,20.807.135.776.235,1.5.31,2.177l2.28.731c-.079-1-.214-2.088-.421-3.284-2.3-13.23-35.988-37.889-54.043-11.777-3.775,5.461-2.737,9.51-3.961,12.474a2.116,2.116,0,0,1-.426.676,13.97,13.97,0,0,1,1.764,1.351,4.686,4.686,0,0,0,.7-1.186A15.684,15.684,0,0,0,976.656,345.876Z" transform="translate(-242.561 7.702)" fill="#47280a"/><path d="M1098,353.593a1.885,1.885,0,0,1,.413,1.175c.75.049,1.491.13,2.206.237a4.1,4.1,0,0,0-.907-2.8c-37.12-45.976-29.748-63.779-26.6-68.14a5.127,5.127,0,0,0,.715-1.486l-.376-.162c-.563-.242-1.115-.469-1.669-.7a3.083,3.083,0,0,1-.455,1.06C1067.272,288.4,1060.6,307.272,1098,353.593Z" transform="translate(-242.561 7.702)" fill="#47280a"/><path d="M955.746,298.177a1.858,1.858,0,0,1-.261-.347q-1.077.407-2.081.777a4.128,4.128,0,0,0,.77,1.112c10.425,10.632,13.314,26.275,8.586,46.495a3.662,3.662,0,0,0-.093.826,13.338,13.338,0,0,1,2.015-.156c.072,0,.144.007.215.008a1.058,1.058,0,0,1,.006-.177C967.07,337.447,971.5,314.243,955.746,298.177Z" transform="translate(-242.561 7.702)" fill="#47280a"/><path d="M1054.509,361.461c-.026.054-.066.1-.1.147a11.175,11.175,0,0,1,2.13.7c3.728-7.71,8.156-11.972,13.164-12.661,7.919-1.084,15.574,6.824,17.731,9.276a4.079,4.079,0,0,0,1.045.841,7.1,7.1,0,0,1,1.012-1.952,1.887,1.887,0,0,1-.405-.344C1085.3,353.163,1067.269,334.92,1054.509,361.461Z" transform="translate(-242.561 7.702)" fill="#47280a"/><path d="M1029.022,359.376a6.322,6.322,0,0,0-.416,2.263q1.052-.1,2.205-.185a4.025,4.025,0,0,1,.257-1.266,18.169,18.169,0,0,0,1.086-8.579l-2.28-.731A16.732,16.732,0,0,1,1029.022,359.376Z" transform="translate(-242.561 7.702)" fill="#47280a"/><path d="M963.323,348.951c1.083,1.377,3.2,1.966,4.1,2.213.567.156,1.09.325,1.572.479a8.2,8.2,0,0,0,4.318.536,11.8,11.8,0,0,0-1.352-.976A13.15,13.15,0,0,0,963.323,348.951Z" transform="translate(-242.561 7.702)" fill="#47280a"/><path d="M1098.337,358.483l-.879-1.765c-.247-.006-.493,0-.738,0l-4.077.945a4.851,4.851,0,0,0-2.228,2.644,4.032,4.032,0,0,0,.993-.1l1.666-.386c.052-.048.091-.109.146-.152a6.974,6.974,0,0,1,4.489-.939,4,4,0,0,0,.631-.244Z" transform="translate(-242.561 7.702)" fill="#47280a"/><path d="M1050.3,363.284c-.207.516-.416,1.055-.625,1.613l3.427-.157a4.046,4.046,0,0,0,2.138-.813,8.441,8.441,0,0,0-2.712-.57C1051.851,363.333,1051.1,363.309,1050.3,363.284Z" transform="translate(-242.561 7.702)" fill="#47280a"/><path d="M953.012,296.618c.839-.31,1.708-.636,2.619-.984a1.841,1.841,0,0,1,.87-.609s36.291-14.114,36.338-14.129l.944-.332c5.99-2.278,11.464-4.235,15.739-5.5l.262-.09c.02-.007.461-.133,1.216-.332.829-.228,1.6-.424,2.312-.584,4.166-1.006,11.185-2.47,16.387-2.374h.022a81.86,81.86,0,0,1,16.645.711c.226.03.449.062.664.1l.195.038a97.223,97.223,0,0,1,12.086,2.674c.419.112.792.217,1.1.313.12.037.34.11.6.2q4.438,1.353,9.272,3.252l.705.25a1.123,1.123,0,0,1,.138.083q1.447.582,2.93,1.215a4.657,4.657,0,0,0-.192-1.074,3.622,3.622,0,0,0-1.014-1.6c-26.782-11.012-44.573-8.845-59.185-5.909-8.217,1.652-26.011,8.794-41.711,15.094-6.582,2.642-12.842,5.154-17.926,7.076a4.114,4.114,0,0,0-.92,1.756A4.171,4.171,0,0,0,953.012,296.618Z" transform="translate(-242.561 7.702)" fill="#47280a"/><path d="M1039.911,363.131c-3.977.174-7.34.316-7.414.3l-.5-.061c-1.024.061-2.022.137-2.986.229.025.055.042.112.07.166a3.273,3.273,0,0,0,2.019,1.664c3.24-.211,7.416-.322,12.807-.268l1-.045c.236-.66.475-1.31.717-1.945C1043.807,363.137,1041.877,363.12,1039.911,363.131Z" transform="translate(-242.561 7.702)" fill="#47280a"/><path d="M1047.96,363.219q-.337.867-.674,1.787l2.391-.109c.209-.558.418-1.1.625-1.613Q1049.193,363.251,1047.96,363.219Z" transform="translate(-242.561 7.702)" fill="#47280a"/><path d="M1045.622,363.169c-.242.635-.481,1.285-.717,1.945l2.381-.108q.335-.918.674-1.787Q1046.832,363.191,1045.622,363.169Z" transform="translate(-242.561 7.702)" fill="#47280a"/><path d="M1047.225,272.527c1.257.249,8.43,1.7,12.086,2.674A97.223,97.223,0,0,0,1047.225,272.527Z" transform="translate(-242.561 7.702)" fill="#47280a"/><path d="M993.783,280.564c2.945-1.035,12.015-4.218,15.739-5.5C1005.247,276.329,999.773,278.286,993.783,280.564Z" transform="translate(-242.561 7.702)" fill="#47280a"/><path d="M1061.021,275.713c1.956.661,7.348,2.57,9.272,3.252Q1065.457,277.057,1061.021,275.713Z" transform="translate(-242.561 7.702)" fill="#47280a"/><path d="M1098.411,354.768a1.843,1.843,0,0,1-.018.316l2.194.234c.013-.1.024-.209.03-.313C1099.9,354.9,1099.161,354.817,1098.411,354.768Z" transform="translate(-242.561 7.702)" fill="#47280a"/><path d="M953.4,298.607q1-.371,2.081-.777a1.92,1.92,0,0,1,.146-2.2c-.911.348-1.78.674-2.619.984A4.079,4.079,0,0,0,953.4,298.607Z" transform="translate(-242.561 7.702)" fill="#47280a"/><path d="M975.067,351.049A13.97,13.97,0,0,0,973.3,349.7c-.968,1.006-2.706.059-5.3-.656-1.278-.352-3.206-.91-3.106-2.15-.071,0-.143-.008-.215-.008a13.338,13.338,0,0,0-2.015.156,2.984,2.984,0,0,0,.656,1.911,13.15,13.15,0,0,1,8.634,2.252,11.8,11.8,0,0,1,1.352.976A3.258,3.258,0,0,0,975.067,351.049Z" transform="translate(-242.561 7.702)" fill="#47280a"/><path d="M1046.366,272.394a81.86,81.86,0,0,0-16.645-.711A146.866,146.866,0,0,1,1046.366,272.394Z" transform="translate(-242.561 7.702)" fill="#47280a"/><path d="M1071.776,281.723c.554.23,1.106.457,1.669.7l.376.162a5.8,5.8,0,0,0,.245-2.071q-1.485-.636-2.93-1.215C1071.86,279.679,1072.007,280.762,1071.776,281.723Z" transform="translate(-242.561 7.702)" fill="#47280a"/><path d="M1011,274.641c.593-.157,1.383-.359,2.312-.584C1012.6,274.217,1011.829,274.413,1011,274.641Z" transform="translate(-242.561 7.702)" fill="#47280a"/><path d="M1089.495,357.817a7.1,7.1,0,0,0-1.012,1.952,4.034,4.034,0,0,0,1.932.539,4.851,4.851,0,0,1,2.228-2.644l-1.732.4A1.85,1.85,0,0,1,1089.495,357.817Z" transform="translate(-242.561 7.702)" fill="#47280a"/><path d="M1056.492,362.415c.017-.035.034-.067.051-.1a11.175,11.175,0,0,0-2.13-.7,1.873,1.873,0,0,1-1.466.937l-2.389.109q-.127.308-.256.63c.8.025,1.549.049,2.228.073a8.441,8.441,0,0,1,2.712.57A4.128,4.128,0,0,0,1056.492,362.415Z" transform="translate(-242.561 7.702)" fill="#47280a"/><path d="M1096.967,356.662l-.247.057c.245-.005.491-.007.738,0l-.1-.2A1.838,1.838,0,0,1,1096.967,356.662Z" transform="translate(-242.561 7.702)" fill="#47280a"/><path d="M1039.911,363.131c1.966-.011,3.9.006,5.711.038.038-.1.077-.2.115-.3Z" transform="translate(-242.561 7.702)" fill="#47280a"/><path d="M1030.811,361.454q-1.152.081-2.205.185a4.687,4.687,0,0,0,.4,1.958c.964-.092,1.962-.168,2.986-.229l-.243-.03C1031.015,363.161,1030.772,362.318,1030.811,361.454Z" transform="translate(-242.561 7.702)" fill="#47280a"/><path d="M1047.96,363.219q1.232.03,2.342.065.129-.322.256-.63l-2.419.109Z" transform="translate(-242.561 7.702)" fill="#47280a"/><path d="M1045.737,362.872c-.038.1-.077.2-.115.3q1.209.022,2.338.05l.179-.456Z" transform="translate(-242.561 7.702)" fill="#47280a"/><path d="M1098.337,358.483l0,.006a4.033,4.033,0,0,0,1.684-1.549,22.6,22.6,0,0,0-2.566-.222Z" transform="translate(-242.561 7.702)" fill="#47280a"/><path d="M1100.587,355.318l-2.194-.234a1.887,1.887,0,0,1-1.036,1.431l.1.2a22.6,22.6,0,0,1,2.566.222,3.891,3.891,0,0,0,.563-1.622Z" transform="translate(-242.561 7.702)" fill="#47280a"/><path d="M1069.106,345.291c-6.548.9-12.1,5.97-16.508,15.066l-1.025.047c-.14.278-.285.583-.432.906.482.015.963.03,1.457.047a9.856,9.856,0,0,1,1.815.251c.03-.05.07-.093.1-.147,12.76-26.541,30.788-8.3,34.581-3.988a1.887,1.887,0,0,0,.405.344,6.794,6.794,0,0,1,1.255-1.293,7.669,7.669,0,0,1,2.3-1.212l-2.432.563C1087.928,352.856,1079.044,343.917,1069.106,345.291Z" transform="translate(-242.561 7.702)" fill="#47280a"/><path d="M1010.451,277.071c.659-.187,11.96-3.307,19.2-3.188h.175c2.622-.019,11.595-.029,16.81.772.608.114,10.084,2.027,13.13,2.963.885.272,6.963,2.419,9.9,3.46a1.148,1.148,0,0,1-.133.418c-4.608,6.394-11.233,26.3,26.47,73.131l-.983.227a16.951,16.951,0,0,1,3.389-.086,1.885,1.885,0,0,0-.413-1.175c-37.4-46.321-30.726-65.194-26.677-70.81a3.083,3.083,0,0,0,.455-1.06c-26-10.79-43.2-8.706-57.312-5.87-7.857,1.579-25.47,8.647-41.01,14.884l-4.757,1.907c10.538-4.1,24.611-9.572,24.872-9.672C993.7,282.928,1006.216,278.526,1010.451,277.071Zm86.019,77.448h0Zm-26.2-73.227-.006,0Z" transform="translate(-242.561 7.702)" fill="#47280a"/><path d="M973.729,349.022c1.224-2.964.186-7.013,3.961-12.474,18.055-26.112,51.748-1.453,54.043,11.777.207,1.2.342,2.284.421,3.284l2.251.722a36.116,36.116,0,0,0-.5-4.382c-1.5-8.651-14.451-21.175-28.9-24.354a31.066,31.066,0,0,0-6.681-.751c-8.981,0-16.794,4.285-22.442,12.452a20.79,20.79,0,0,0-3.586,9.992,14.922,14.922,0,0,1-.495,2.6c-.405-.092-.995-.281-1.463-.431-.536-.172-1.118-.359-1.749-.533a13.913,13.913,0,0,1-1.373-.436c4.8-21.214,1.589-37.856-9.55-49.486q-1.122.432-2.179.832a1.858,1.858,0,0,0,.261.347c15.754,16.066,11.324,39.27,9.157,48.538a1.058,1.058,0,0,0-.006.177,15.89,15.89,0,0,1,8.1,2.6c.105.063.2.135.3.2A2.116,2.116,0,0,0,973.729,349.022Z" transform="translate(-242.561 7.702)" fill="#47280a"/><path d="M1031.068,360.188a4.025,4.025,0,0,0-.257,1.266c4.163-.3,9.322-.378,15.6-.262q.118-.286.237-.564c-5.817.262-11.792.525-13.6.588a1.367,1.367,0,0,1,.065-.217,19.611,19.611,0,0,0,1.291-8.668l-2.251-.722A18.169,18.169,0,0,1,1031.068,360.188Z" transform="translate(-242.561 7.702)" fill="#47280a"/><path d="M1048.768,361.243c.774.019,1.567.042,2.373.067.147-.323.292-.628.432-.906l-2.484.113Q1048.93,360.868,1048.768,361.243Z" transform="translate(-242.561 7.702)" fill="#47280a"/><path d="M1046.646,360.628q-.118.277-.237.564,1.155.021,2.359.051.162-.375.321-.726Z" transform="translate(-242.561 7.702)" fill="#47280a"/><path d="M1071,279.215l-.705-.25c.281.111.56.219.843.333A1.123,1.123,0,0,0,1071,279.215Z" transform="translate(-242.561 7.702)" fill="#47280a"/><path d="M1047.03,272.489c-.215-.033-.438-.065-.664-.1.283.04.573.089.859.133Z" transform="translate(-242.561 7.702)" fill="#47280a"/><path d="M992.839,280.9c-.047.015-36.338,14.129-36.338,14.129a1.841,1.841,0,0,0-.87.609c10.478-3.994,25.447-10.238,38.152-15.07Z" transform="translate(-242.561 7.702)" fill="#47280a"/><path d="M1060.416,275.514c-.313-.1-.686-.2-1.1-.313.563.162,1.137.337,1.71.512C1060.756,275.624,1060.536,275.551,1060.416,275.514Z" transform="translate(-242.561 7.702)" fill="#47280a"/><path d="M1009.784,274.973l-.262.09q.765-.227,1.478-.422C1010.245,274.84,1009.8,274.966,1009.784,274.973Z" transform="translate(-242.561 7.702)" fill="#47280a"/><path d="M1029.721,271.683h-.022c-5.2-.1-12.221,1.368-16.387,2.374.256-.057.518-.118.758-.166A110.585,110.585,0,0,1,1029.721,271.683Z" transform="translate(-242.561 7.702)" fill="#47280a"/><path d="M1096.72,356.719a8.731,8.731,0,0,0-4.077.945Z" transform="translate(-242.561 7.702)" fill="#47280a"/><path d="M1032.5,363.429c.074.018,3.437-.124,7.414-.3-2.647.015-5.353.083-7.916.237Z" transform="translate(-242.561 7.702)" fill="#47280a"/><path d="M964.9,346.892c-.1,1.24,1.828,1.8,3.106,2.15,2.594.715,4.332,1.662,5.3.656-.1-.067-.2-.139-.3-.2A15.89,15.89,0,0,0,964.9,346.892Z" transform="translate(-242.561 7.702)" fill="#47280a"/><path d="M955.485,297.83q1.059-.4,2.179-.832c-.014-.015-.027-.032-.042-.047l11.075-4.307,4.757-1.907c15.54-6.237,33.153-13.3,41.01-14.884,14.111-2.836,31.314-4.92,57.312,5.87.231-.961.084-2.044-.64-2.425-.283-.114-.562-.222-.843-.333-1.924-.682-7.316-2.591-9.272-3.252-.573-.175-1.147-.35-1.71-.512-3.656-.97-10.829-2.425-12.086-2.674-.286-.044-.576-.093-.859-.133a146.866,146.866,0,0,0-16.645-.711,110.585,110.585,0,0,0-15.651,2.208c-.24.048-.5.109-.758.166-.929.225-1.719.427-2.312.584q-.712.2-1.478.422c-3.724,1.283-12.794,4.466-15.739,5.5-12.705,4.832-27.674,11.076-38.152,15.07A1.92,1.92,0,0,0,955.485,297.83Z" transform="translate(-242.561 7.702)" fill="#47280a"/><path d="M1051.141,361.31q-.285.625-.583,1.344l2.389-.109a1.873,1.873,0,0,0,1.466-.937,9.856,9.856,0,0,0-1.815-.251C1052.1,361.34,1051.623,361.325,1051.141,361.31Z" transform="translate(-242.561 7.702)" fill="#47280a"/><path d="M1097.357,356.515l-.81-1.629,1.846.2a1.843,1.843,0,0,0,.018-.316,16.951,16.951,0,0,0-3.389.086l-1.975.458a7.669,7.669,0,0,0-2.3,1.212,6.794,6.794,0,0,0-1.255,1.293,1.85,1.85,0,0,0,1.416.249l1.732-.4a8.731,8.731,0,0,1,4.077-.945l.247-.057A1.838,1.838,0,0,0,1097.357,356.515Z" transform="translate(-242.561 7.702)" fill="#47280a"/><path d="M1030.811,361.454c-.039.864.2,1.707.941,1.884l.243.03c2.563-.154,5.269-.222,7.916-.237l5.826-.259c.223-.578.447-1.14.672-1.68C1040.133,361.076,1034.974,361.159,1030.811,361.454Z" transform="translate(-242.561 7.702)" fill="#47280a"/><path d="M1048.768,361.243c-.208.482-.418.991-.629,1.52l2.419-.109q.3-.717.583-1.344C1050.335,361.285,1049.542,361.262,1048.768,361.243Z" transform="translate(-242.561 7.702)" fill="#47280a"/><path d="M1045.737,362.872l2.4-.109c.211-.529.421-1.038.629-1.52q-1.206-.03-2.359-.051C1046.184,361.732,1045.96,362.294,1045.737,362.872Z" transform="translate(-242.561 7.702)" fill="#47280a"/><path d="M1097.357,356.515a1.887,1.887,0,0,0,1.036-1.431l-1.846-.2Z" transform="translate(-242.561 7.702)" fill="#47280a"/><path d="M1107.412,412.141c-1.476.036-4.229-1.349-2.919-5.487,1.117-3.531,4.144-7.258,5.007-8.273a.186.186,0,0,1,.336.044c.461,1.387,2.284,7.005,2.273,8.88A4.888,4.888,0,0,1,1107.412,412.141Z" transform="translate(-242.561 7.702)" fill="#2ba896" stroke="#47280a" stroke-miterlimit="10" stroke-width="3"/><path d="M1109.825,413.7c-1.025,1.063-1.868,4.027,2.064,5.863,3.356,1.567,8.148,1.861,9.479,1.913.173.007.274-.136.2-.277-.71-1.278-3.612-6.422-5-7.683A4.888,4.888,0,0,0,1109.825,413.7Z" transform="translate(-242.561 7.702)" fill="#2ba896" stroke="#47280a" stroke-miterlimit="10" stroke-width="3"/><g transform="translate(-242.561 7.702)"><path d="M1150.4,380.007s4.591,1.093,5.323,1.612.15,5.1-.6,5.783a34.681,34.681,0,0,1-3.645,2.326l-5.373-6.978Z" fill="#057faf" stroke="#47280a" stroke-miterlimit="10" stroke-width="3"/><path d="M1158.855,392.417a.379.379,0,0,0,.437-.571,15.406,15.406,0,0,0-14.45-6.7c-10.746.895,7.471,10.379,7.471,10.379s3.106-4.009,4.564-3.687A18.493,18.493,0,0,1,1158.855,392.417Z" fill="#057faf" stroke="#47280a" stroke-miterlimit="10" stroke-width="3"/><path d="M1147.095,374.1a.379.379,0,0,1,.7-.157,15.405,15.405,0,0,1-.016,15.926c-5.338,9.37-6.266-11.147-6.266-11.147s4.945-1.128,5.267-2.586A18.424,18.424,0,0,0,1147.095,374.1Z" fill="#057faf" stroke="#47280a" stroke-miterlimit="10" stroke-width="3"/><path d="M1157.048,397.058a22.429,22.429,0,0,0-14.054-7.909.124.124,0,0,0-.107.04l-11.49,12.947c-.046.052-.2.378-.145.419.745.545,4.432,4.237,10.838.969,5.582-2.849,8.635-7.384,11.468-7.259a7.389,7.389,0,0,1,3.333.965A.118.118,0,0,0,1157.048,397.058Z" fill="#057faf" stroke="#47280a" stroke-miterlimit="10" stroke-width="3"/><path d="M1141.261,373.012a.059.059,0,0,0-.111.037c.239,1.044.557,3.6-.326,4.791-1.758,2.365-7.828,5.937-9.463,6.924-1.938,1.168-8.3,6.429-2.344,15.133,3.218,4.7,6,4.151,6.73,3.4C1138.873,400.056,1150.7,389.9,1141.261,373.012Z" fill="#057faf" stroke="#47280a" stroke-miterlimit="10" stroke-width="3"/><line x1="41.262" y2="26.331" transform="translate(1087.755 399.897)" fill="#ef5542" stroke="#47280a" stroke-linecap="round" stroke-miterlimit="10" stroke-width="3"/></g></g></svg>