<svg xmlns="http://www.w3.org/2000/svg" width="322.58" height="322.58" viewBox="0 0 322.58 322.58"><g transform="translate(-689.891 -234)"><g transform="translate(-197.561 70.425)"><circle cx="161.29" cy="161.29" r="161.29" transform="translate(887.452 163.576)" fill="#f4f5f3"/><circle cx="149.551" cy="149.551" r="149.551" transform="translate(898.512 175.315)" fill="#e3f1f0"/></g><g transform="translate(-197.561 70.425)"><path d="M1010.3,358.058c6.922,6.854,18.317,33.581,14.536,42.368-1.581,3.674-.912,10.282,8.881,6.291,3.253-1.326,6.1-8.868,4.255-16.4-.9-3.681.37-19.55,1.357-21.462" fill="#804f21"/><path d="M1028.484,410.186a6.361,6.361,0,0,1-4.748-1.823c-2.271-2.316-2.108-6.1-.939-8.814,3.285-7.636-7.363-33.284-14.058-39.913l3.124-3.156c7.169,7.1,19.325,34.8,15.013,44.824-.646,1.5-.633,3.274.031,3.95.624.637,2.523.814,5.972-.593,1.971-.8,4.565-7.191,2.938-13.82-.933-3.8.174-20.363,1.54-23.009l3.946,2.035c-.718,1.789-1.96,16.712-1.174,19.916,2.136,8.7-1.181,17.2-5.573,18.99A16.468,16.468,0,0,1,1028.484,410.186Z" fill="#47280a"/><path d="M1090.26,373.106s8.449,11.163,9.62,16.467c2.415,10.928-4.718,11.745-4.842,15.076-.088,2.4,1.477,4.206,8.465,2.849s8.835-4.295,9.575-12.436c.939-10.322,0-21.555,5.273-27.568" fill="#804f21"/><path d="M1099.4,410.182a7.29,7.29,0,0,1-4.916-1.448,4.977,4.977,0,0,1-1.667-4.168c.072-1.943,1.321-3.234,2.424-4.374,1.8-1.858,3.833-3.963,2.468-10.14-.875-3.962-6.954-12.608-9.222-15.605l3.539-2.68c.9,1.182,8.779,11.711,10.02,17.327,1.879,8.507-1.559,12.061-3.613,14.185-.466.481-1.17,1.208-1.178,1.451-.006.156-.006.526.116.63.1.089,1.145.845,5.7-.041,5.724-1.111,7.107-2.968,7.788-10.458.211-2.319.328-4.736.44-7.072.411-8.507.8-16.541,5.375-21.759l3.339,2.927c-3.554,4.054-3.906,11.336-4.278,19.046-.115,2.383-.234,4.848-.454,7.26-.75,8.243-2.713,12.735-11.364,14.415A24.1,24.1,0,0,1,1099.4,410.182Z" fill="#47280a"/><path d="M1025.472,399.075c-1.581,3.673-.912,10.282,8.881,6.29,2.94-1.2,5.54-7.476,4.65-14.237-.381-.656-.761-1.249-1.13-1.764-4.941,2.425-12.159.028-12.159.028l0,0C1026.408,393.376,1026.443,396.819,1025.472,399.075Z" fill="#595757"/><path d="M1029.125,408.464a6.009,6.009,0,0,1-4.49-1.712c-2.151-2.193-1.983-5.8-.863-8.409h0c.528-1.226.977-3.719.116-8.629l-.165-.947,1.487-1.488,1.087.357c.062.021,6.572,2.122,10.761.068l1.406-.691.913,1.274c.407.569.821,1.212,1.227,1.914l.185.32.048.366c.938,7.115-1.712,14.531-5.785,16.191A16.113,16.113,0,0,1,1029.125,408.464Zm-1.2-16.622a16.409,16.409,0,0,1-.749,7.964h0c-.624,1.452-.756,3.477.106,4.355.929.949,3.253.764,6.377-.509,1.9-.775,4.234-5.885,3.559-11.916-.021-.034-.041-.066-.06-.1A19.636,19.636,0,0,1,1027.921,391.842Z" fill="#47280a"/><path d="M1039.173,278.5s-9.723-1.029-20.824-10.876-33.9-9.8-48.659-6.516c-11.9,2.652-12.273,4.745-14.247,5.366-4.856,1.526-24.571,2.1-29.6,14.8-2.914,7.354,4.317,24.854,17.083,26.149s18.44-1.172,26.581,12.335,51.188,52.236,66.93,69.936c3.13,3.52,7.94,14.493,5.535,20.846-1.416,3.74-.913,10.282,8.881,6.29,3.253-1.326,6.105-8.868,4.255-16.4-.9-3.681.37-19.55,1.357-21.462s45.576-2.158,56.8-4.008c3.193-.527,11.225,14.863,9.375,25.162s-7.265,8.773-6.784,13.815c.37,3.885,9.713,2.96,14.431,1.48s8.326-18.749,9.066-28.37,6.907-17.515,11.348-26.766,19.55-25.162,14.739-43.479-11.1-18.5-18.131-24.052-23.5-24.607-55.506-18.687S1041.783,279.044,1039.173,278.5Z" fill="#895b31"/><path d="M1045.621,420.3a6.307,6.307,0,0,1-4.6-1.7c-2.415-2.355-2.119-6.236-1.132-8.845,1.969-5.2-2.2-15.3-5.117-18.583-6.085-6.841-16.272-16.84-27.058-27.427-17.208-16.89-35-34.355-40.115-42.839-6.106-10.13-10.047-10.347-18.683-10.823-1.841-.1-3.928-.216-6.22-.449-6.124-.621-11.65-4.507-15.562-10.943-3.834-6.305-5.185-13.632-3.362-18.233,4.515-11.393,19.144-13.932,27-15.3a39.617,39.617,0,0,0,4-.807,4.256,4.256,0,0,0,.931-.529c1.632-1.065,4.362-2.849,13.5-4.885,16.435-3.663,39.286-3.025,50.616,7.023,10.447,9.267,19.493,10.318,19.583,10.328l.219.034c2.148.448,19.773,1.468,51.772-4.45,29.26-5.408,46.272,9.529,54.45,16.708,1.1.963,2.043,1.794,2.835,2.419,1.351,1.067,2.713,1.95,4.031,2.8,5.566,3.607,10.824,7.012,14.872,22.428,3.951,15.045-4.476,28.226-10.63,37.85a75.331,75.331,0,0,0-4.255,7.154c-1.271,2.647-2.676,5.18-4.035,7.629-3.4,6.12-6.6,11.9-7.1,18.347-.021.276-2.492,27.769-10.614,30.317-2.678.84-11.22,2.638-15.218-.015a4.471,4.471,0,0,1-2.089-3.373c-.314-3.3,1.284-4.872,2.694-6.255,1.507-1.48,3.216-3.157,4.115-8.162,1.556-8.661-4.794-21.076-7.16-22.527-5.492.846-17.588,1.349-29.3,1.836-10.068.419-22.411.932-25.738,1.6-.722,3.4-1.721,16.313-1,19.267,2.136,8.7-1.181,17.2-5.573,18.99A16.478,16.478,0,0,1,1045.621,420.3ZM988.113,261.344a83.979,83.979,0,0,0-17.941,1.932c-8.349,1.861-10.657,3.368-12.036,4.269a7.855,7.855,0,0,1-2.027,1.048,40.407,40.407,0,0,1-4.571.945c-7.494,1.3-20.036,3.476-23.634,12.556-1.273,3.213.029,9.357,3.028,14.291,1.837,3.022,5.867,8.187,12.216,8.832,2.19.222,4.136.329,6.017.433,8.986.495,14.923.821,22.241,12.963,4.823,8,23.205,26.045,39.423,41.964,10.841,10.64,21.081,20.69,27.265,27.643,3.5,3.936,8.773,15.658,5.952,23.108-.623,1.645-.588,3.443.079,4.093.614.6,2.482.744,5.887-.645,1.971-.8,4.565-7.191,2.938-13.82-.934-3.8.174-20.363,1.54-23.009.945-1.83,1.987-2.21,29.323-3.348,11.816-.491,24.033-1,29.089-1.833,1.318-.215,2.677.38,4.051,1.772,4.221,4.282,9.514,16.825,7.87,25.974-1.15,6.4-3.693,8.894-5.376,10.546-1.235,1.212-1.493,1.509-1.384,2.665.679.976,6.539,1.146,11.557-.428,2.454-.769,6.54-13.721,7.517-26.421.57-7.412,4.007-13.6,7.645-20.161,1.328-2.393,2.7-4.867,3.916-7.4a77.489,77.489,0,0,1,4.516-7.625c5.712-8.933,13.534-21.167,10.077-34.33-3.612-13.752-7.751-16.434-12.992-19.829-1.4-.909-2.854-1.849-4.369-3.045-.882-.7-1.869-1.563-3.013-2.567-8.239-7.234-23.574-20.7-50.712-15.679-32.15,5.947-50.283,5.027-53.377,4.452-1.2-.152-10.954-1.654-21.952-11.409C1010.577,263.7,999.469,261.344,988.113,261.344Z" fill="#47280a"/><path d="M947.268,293.368c3.154-5.377,4.521-19.87-.382-22.97-.819-.517-4.467.63-6.676,1.26-5.46,2-10,4.02-12.245,9.679-1.457,3.676-.15,10.291,2.756,15.51a25.275,25.275,0,0,0,3.052,3.486C935.54,301.906,944.219,298.567,947.268,293.368Z" fill="#72492a"/><path d="M977.53,280.761a3.526,3.526,0,1,1,2.116-.707h0A3.513,3.513,0,0,1,977.53,280.761Zm-.108-3.664a.179.179,0,0,0-.067.113.186.186,0,0,0,.033.128.178.178,0,0,0,.113.066.171.171,0,0,0,.128-.032Zm.1-.035a.171.171,0,0,0-.1.034l.206.275a.172.172,0,0,0-.1-.309Z" fill="#231815"/><ellipse cx="1.739" cy="0.858" rx="1.739" ry="0.858" transform="translate(934.281 281.528) rotate(-62.353)" fill="#221714"/><path d="M935.254,282.717a1.191,1.191,0,0,1-.557-.136h0a1.454,1.454,0,0,1-.7-1.406,3.585,3.585,0,0,1,.432-1.531c.667-1.272,1.744-1.886,2.566-1.455a1.455,1.455,0,0,1,.7,1.406,3.86,3.86,0,0,1-1.445,2.759A1.708,1.708,0,0,1,935.254,282.717Zm.949-3.01a2.326,2.326,0,0,0-.46.623,2.283,2.283,0,0,0-.251.734,2.337,2.337,0,0,0,.46-.624A2.312,2.312,0,0,0,936.2,279.707Z" fill="#231815"/><path d="M994.02,261.525s3.577-7.027,8.387-4.807,4.9,6.522,3.238,8.742-4.949,5.921-7.863,6.2" fill="#895b31"/><path d="M997.992,273.869l-.421-4.421c1.486-.141,4.017-2.279,6.3-5.32a2.988,2.988,0,0,0,.436-2.481,4.667,4.667,0,0,0-2.828-2.913c-2.775-1.275-5.456,3.752-5.482,3.8l-3.955-2.02c1.573-3.089,5.961-8.28,11.3-5.815a9.031,9.031,0,0,1,5.273,5.856,7.43,7.43,0,0,1-1.189,6.233C1005.558,269.277,1001.854,273.5,997.992,273.869Z" fill="#47280a"/><path d="M1122.713,395.17A20.032,20.032,0,0,1,1122.5,400c-1.85,10.3-7.264,8.773-6.784,13.814.37,3.886,9.714,2.961,14.432,1.48,3.408-1.069,6.235-10.375,7.823-19.086A66.3,66.3,0,0,1,1122.713,395.17Z" fill="#595757"/><path d="M1121.824,418.427a11.255,11.255,0,0,1-6.028-1.34,4.115,4.115,0,0,1-1.925-3.1c-.3-3.129,1.233-4.631,2.584-5.957,1.47-1.443,3.3-3.238,4.22-8.361a18.178,18.178,0,0,0,.191-4.377l-.153-2.344,2.315.4a65,65,0,0,0,14.794,1.012l2.4-.187-.43,2.363c-1.557,8.549-4.4,19.048-9.089,20.521A32.035,32.035,0,0,1,1121.824,418.427Zm2.784-21.079a19.65,19.65,0,0,1-.29,2.974c-1.129,6.284-3.622,8.73-5.271,10.348-1.214,1.192-1.623,1.593-1.493,2.965.007.075.018.189.288.368,1.848,1.227,7.833.752,11.748-.478,1.331-.418,3.969-4.873,6.114-15.363A68.241,68.241,0,0,1,1124.608,397.348Z" fill="#47280a"/><path d="M1100.546,392.39c.356,7.708-5.211,8.694-5.32,11.634-.089,2.4,1.476,4.207,8.464,2.85s8.836-4.3,9.576-12.436c.046-.508.084-1.019.122-1.53A83.213,83.213,0,0,1,1100.546,392.39Z" fill="#595757"/><path d="M1099.591,409.557a7.3,7.3,0,0,1-4.917-1.447,4.983,4.983,0,0,1-1.667-4.168c.073-1.942,1.321-3.234,2.421-4.374,1.515-1.569,3.08-3.19,2.9-7.076l-.119-2.577,2.566.266a80.934,80.934,0,0,0,12.457.512l2.558-.18-.187,2.557c-.039.524-.079,1.048-.126,1.57-.749,8.241-2.713,12.734-11.364,14.414A24.1,24.1,0,0,1,1099.591,409.557Zm3.1-14.732a12.573,12.573,0,0,1-4.063,7.827c-.466.482-1.17,1.21-1.178,1.454-.006.155-.006.525.116.63.1.09,1.149.844,5.706-.042,5.466-1.061,6.974-2.8,7.691-9.479C1108.276,395.248,1105.293,395.051,1102.686,394.825Z" fill="#47280a"/><path d="M1041.244,399.92v0c1.072,3.69,1.488,7.572.385,10.484-1.416,3.74-.912,10.282,8.881,6.29,3.253-1.326,6.106-8.868,4.256-16.4a13.221,13.221,0,0,1-.263-2.308h0C1050.137,400.765,1041.244,399.92,1041.244,399.92Z" fill="#595757"/><path d="M1045.286,419.8a5.96,5.96,0,0,1-4.344-1.6c-2.287-2.23-1.991-5.945-1.043-8.449.83-2.191.676-5.5-.432-9.313l-.2-.7.89-1.782,1.263.118c2.3.216,8.961.341,12.09-1.654l2.689-1.713.154,3.184a11.188,11.188,0,0,0,.211,1.955c2.059,8.384-1.187,16.862-5.354,18.56A16.121,16.121,0,0,1,1045.286,419.8Zm-1.651-17.911c.589,2.89.816,6.292-.275,9.175-.581,1.532-.719,3.626.165,4.489.917.9,3.208.687,6.287-.567,2.125-.866,4.857-7.326,3.157-14.251l0-.012A29.726,29.726,0,0,1,1043.635,401.886Z" fill="#47280a"/><line x2="14.288" y2="0.523" transform="translate(1060.539 296.641)" fill="#804f21"/><rect width="2.961" height="14.298" transform="translate(1060.485 298.12) rotate(-87.903)" fill="#47280a"/><line x2="14.288" y2="0.523" transform="translate(1076.575 307.417)" fill="#804f21"/><rect width="2.961" height="14.298" transform="translate(1076.521 308.896) rotate(-87.903)" fill="#47280a"/><line x2="11.707" y2="0.974" transform="translate(1098.541 293.155)" fill="#804f21"/><rect width="2.96" height="11.748" transform="matrix(0.083, -0.997, 0.997, 0.083, 1098.418, 294.63)" fill="#47280a"/></g><g transform="translate(-197.561 70.425)"><path d="M1022.766,421c1.477.036,4.229-1.349,2.92-5.487-1.117-3.531-4.144-7.258-5.007-8.273a.187.187,0,0,0-.337.044c-.46,1.387-2.283,7.005-2.272,8.88A4.887,4.887,0,0,0,1022.766,421Z" fill="#2ba896" stroke="#47280a" stroke-miterlimit="10" stroke-width="3"/><path d="M1020.354,422.555c1.025,1.063,1.868,4.027-2.064,5.863-3.356,1.567-8.148,1.861-9.48,1.913-.172.007-.273-.137-.2-.277.71-1.278,3.611-6.422,5-7.683A4.89,4.89,0,0,1,1020.354,422.555Z" fill="#2ba896" stroke="#47280a" stroke-miterlimit="10" stroke-width="3"/><path d="M979.776,388.866s-4.591,1.093-5.322,1.612-.15,5.1.6,5.783a34.693,34.693,0,0,0,3.644,2.326l5.374-6.978Z" fill="#057faf" stroke="#47280a" stroke-miterlimit="10" stroke-width="3"/><path d="M971.324,401.276a.379.379,0,0,1-.438-.571,15.408,15.408,0,0,1,14.451-6.695c10.746.895-7.471,10.379-7.471,10.379s-3.106-4.009-4.564-3.687A18.2,18.2,0,0,0,971.324,401.276Z" fill="#057faf" stroke="#47280a" stroke-miterlimit="10" stroke-width="3"/><path d="M983.084,382.963a.379.379,0,0,0-.7-.157,15.407,15.407,0,0,0,.015,15.926c5.338,9.37,6.266-11.147,6.266-11.147s-4.945-1.128-5.267-2.586A18.708,18.708,0,0,1,983.084,382.963Z" fill="#057faf" stroke="#47280a" stroke-miterlimit="10" stroke-width="3"/><path d="M973.131,405.917a22.426,22.426,0,0,1,14.054-7.909.123.123,0,0,1,.107.04l11.49,12.947c.046.052.2.377.145.419-.745.545-4.433,4.236-10.838.968-5.582-2.848-8.635-7.383-11.468-7.258a7.394,7.394,0,0,0-3.334.965A.118.118,0,0,1,973.131,405.917Z" fill="#057faf" stroke="#47280a" stroke-miterlimit="10" stroke-width="3"/><path d="M988.918,381.871a.059.059,0,0,1,.111.037c-.239,1.044-.557,3.6.326,4.791,1.758,2.365,7.827,5.937,9.463,6.924,1.938,1.168,8.3,6.429,2.344,15.133-3.218,4.7-6,4.151-6.73,3.4C991.306,408.915,979.482,398.762,988.918,381.871Z" fill="#057faf" stroke="#47280a" stroke-miterlimit="10" stroke-width="3"/><line x2="41.262" y2="26.331" transform="translate(1001.162 408.756)" fill="#ef5542" stroke="#47280a" stroke-linecap="round" stroke-miterlimit="10" stroke-width="3"/></g></g></svg>