<svg xmlns="http://www.w3.org/2000/svg" width="322.58" height="322.58" viewBox="0 0 322.58 322.58"><g transform="translate(-1199.901 -235.958)"><g transform="translate(-197.561 70.425)"><circle cx="161.29" cy="161.29" r="161.29" transform="translate(1397.462 165.534)" fill="#f4f5f3"/><circle cx="149.551" cy="149.551" r="149.551" transform="translate(1408.522 177.273)" fill="#e3f1f0"/></g><g transform="translate(-197.561 70.425)"><path d="M1523.265,368.175c6.922,6.853,18.317,33.581,14.536,42.368-1.58,3.674-.912,10.282,8.881,6.291,3.253-1.326,6.106-8.869,4.255-16.405-.9-3.682.37-19.55,1.357-21.462" fill="#804f21"/><path d="M1541.448,420.3a6.361,6.361,0,0,1-4.748-1.823c-2.271-2.316-2.108-6.1-.938-8.814,3.284-7.636-7.364-33.284-14.059-39.914l3.124-3.155c7.169,7.1,19.325,34.8,15.014,44.823-.646,1.5-.633,3.275.03,3.951.624.637,2.523.814,5.973-.593,1.97-.8,4.564-7.192,2.938-13.82-.934-3.8.174-20.363,1.539-23.009l3.946,2.035c-.718,1.789-1.959,16.712-1.174,19.916,2.136,8.7-1.181,17.2-5.573,18.99A16.488,16.488,0,0,1,1541.448,420.3Z" fill="#47280a"/><path d="M1603.224,383.223s8.449,11.163,9.621,16.467c2.414,10.927-4.719,11.745-4.842,15.075-.089,2.4,1.476,4.207,8.464,2.85s8.835-4.3,9.576-12.436c.938-10.322,0-21.555,5.273-27.568" fill="#804f21"/><path d="M1612.368,420.3a7.3,7.3,0,0,1-4.917-1.447,4.982,4.982,0,0,1-1.667-4.168c.072-1.943,1.321-3.234,2.424-4.374,1.8-1.858,3.834-3.964,2.468-10.14-.875-3.963-6.954-12.609-9.222-15.606l3.54-2.68c.9,1.183,8.778,11.712,10.019,17.328,1.879,8.506-1.559,12.061-3.613,14.185-.466.481-1.17,1.208-1.178,1.451-.006.155-.006.525.116.63.1.089,1.145.845,5.7-.042,5.724-1.111,7.107-2.967,7.788-10.458.211-2.318.328-4.735.441-7.071.41-8.507.8-16.541,5.374-21.759l3.339,2.927c-3.554,4.053-3.906,11.335-4.278,19.045-.115,2.384-.234,4.848-.454,7.26-.749,8.244-2.712,12.736-11.363,14.416A24.109,24.109,0,0,1,1612.368,420.3Z" fill="#47280a"/><path d="M1538.436,409.191c-1.58,3.674-.912,10.282,8.881,6.291,2.94-1.2,5.541-7.476,4.65-14.237-.38-.656-.761-1.249-1.13-1.764-4.941,2.425-12.159.028-12.159.028l0,0C1539.372,403.493,1539.407,406.935,1538.436,409.191Z" fill="#595757"/><path d="M1542.089,418.581a6.009,6.009,0,0,1-4.489-1.712c-2.152-2.193-1.984-5.8-.863-8.409h0c.527-1.226.976-3.719.115-8.629l-.165-.948,1.487-1.488,1.087.357c.062.021,6.573,2.122,10.761.068l1.406-.69.913,1.273c.408.569.821,1.213,1.227,1.914l.185.32.049.367c.937,7.115-1.713,14.53-5.786,16.191A16.11,16.11,0,0,1,1542.089,418.581Zm-1.2-16.622a16.409,16.409,0,0,1-.749,7.964h0c-.624,1.451-.756,3.477.106,4.355.929.949,3.253.763,6.377-.509,1.9-.775,4.235-5.885,3.559-11.917-.02-.033-.041-.065-.06-.1A19.636,19.636,0,0,1,1540.885,401.959Z" fill="#47280a"/><path d="M1552.137,288.617s-9.722-1.028-20.823-10.875-33.9-9.8-48.66-6.516c-11.9,2.652-12.273,4.745-14.246,5.365-4.857,1.527-24.572,2.1-29.6,14.8-2.914,7.354,4.317,24.854,17.083,26.149s18.44-1.172,26.581,12.334,51.188,52.237,66.93,69.937c3.13,3.52,7.94,14.493,5.535,20.845-1.416,3.74-.912,10.282,8.881,6.291,3.253-1.326,6.106-8.868,4.255-16.4-.9-3.681.37-19.55,1.357-21.462s45.576-2.159,56.8-4.009c3.192-.526,11.224,14.863,9.374,25.163s-7.264,8.773-6.784,13.814c.37,3.886,9.713,2.961,14.431,1.48s8.326-18.748,9.066-28.369,6.907-17.515,11.348-26.766,19.55-25.162,14.74-43.479-11.1-18.5-18.132-24.052-23.5-24.608-55.505-18.687S1554.748,289.161,1552.137,288.617Z" fill="#895b31"/><path d="M1558.585,430.419a6.312,6.312,0,0,1-4.6-1.7c-2.415-2.355-2.119-6.237-1.131-8.845,1.968-5.2-2.2-15.3-5.118-18.583-6.085-6.842-16.271-16.841-27.057-27.427-17.208-16.89-35-34.356-40.116-42.84-6.1-10.129-10.046-10.346-18.682-10.822-1.842-.1-3.929-.217-6.221-.449-6.123-.621-11.65-4.507-15.562-10.943-3.834-6.306-5.184-13.633-3.362-18.234,4.515-11.393,19.144-13.931,27-15.3a39.506,39.506,0,0,0,4-.806,4.319,4.319,0,0,0,.93-.529c1.632-1.066,4.362-2.849,13.5-4.885,16.435-3.664,39.286-3.025,50.616,7.023,10.448,9.266,19.493,10.318,19.584,10.327l.219.034c2.147.449,19.773,1.469,51.771-4.45,29.26-5.407,46.273,9.53,54.45,16.709,1.1.963,2.043,1.794,2.836,2.419,1.35,1.067,2.713,1.949,4.03,2.8,5.567,3.606,10.824,7.012,14.872,22.428,3.952,15.044-4.476,28.225-10.63,37.85a75.649,75.649,0,0,0-4.255,7.153c-1.27,2.648-2.676,5.18-4.035,7.63-3.4,6.12-6.6,11.9-7.1,18.347-.021.276-2.492,27.768-10.614,30.317-2.678.839-11.22,2.638-15.218-.015a4.478,4.478,0,0,1-2.089-3.374c-.314-3.3,1.284-4.871,2.694-6.255,1.508-1.479,3.216-3.156,4.115-8.162,1.556-8.661-4.794-21.075-7.16-22.526-5.492.845-17.588,1.348-29.295,1.836-10.068.419-22.411.932-25.738,1.595-.722,3.4-1.721,16.313-1,19.267,2.136,8.7-1.181,17.2-5.573,18.99A16.474,16.474,0,0,1,1558.585,430.419Zm-57.508-158.958a83.922,83.922,0,0,0-17.941,1.932c-8.349,1.86-10.657,3.368-12.036,4.268a7.823,7.823,0,0,1-2.027,1.048,40.326,40.326,0,0,1-4.571.946c-7.494,1.3-20.036,3.475-23.633,12.556-1.274,3.213.028,9.357,3.027,14.291,1.837,3.021,5.867,8.187,12.216,8.831,2.19.222,4.136.329,6.017.433,8.986.495,14.923.822,22.241,12.964,4.824,8,23.2,26.045,39.423,41.963,10.841,10.64,21.081,20.691,27.265,27.644,3.5,3.935,8.773,15.658,5.952,23.108-.623,1.645-.588,3.443.079,4.093.614.6,2.482.744,5.888-.645,1.97-.8,4.564-7.191,2.937-13.82-.933-3.8.175-20.363,1.54-23.009.945-1.83,1.987-2.211,29.323-3.348,11.816-.492,24.033-1,29.089-1.833,1.318-.215,2.678.379,4.051,1.771,4.221,4.282,9.514,16.826,7.87,25.974-1.15,6.4-3.693,8.9-5.376,10.546-1.235,1.213-1.493,1.51-1.383,2.666.678.976,6.538,1.146,11.556-.428,2.454-.77,6.54-13.721,7.517-26.421.57-7.413,4.007-13.605,7.645-20.161,1.328-2.393,2.7-4.867,3.916-7.4a77.8,77.8,0,0,1,4.516-7.624c5.712-8.933,13.534-21.167,10.077-34.33-3.612-13.752-7.751-16.434-12.992-19.829-1.4-.909-2.854-1.85-4.369-3.045-.882-.7-1.869-1.563-3.013-2.567-8.239-7.234-23.574-20.7-50.712-15.679-32.149,5.947-50.283,5.027-53.377,4.452-1.2-.152-10.954-1.654-21.952-11.409C1523.541,273.817,1512.433,271.461,1501.077,271.461Z" fill="#47280a"/><path d="M1460.232,303.485c3.154-5.377,4.521-19.871-.382-22.97-.819-.517-4.467.63-6.676,1.26-5.46,2-10,4.019-12.245,9.679-1.457,3.676-.15,10.29,2.757,15.509a25.252,25.252,0,0,0,3.051,3.487C1448.5,312.023,1457.183,308.684,1460.232,303.485Z" fill="#72492a"/><path d="M1490.494,290.878a3.524,3.524,0,1,1,2.117-.707h0A3.513,3.513,0,0,1,1490.494,290.878Zm-.108-3.664a.179.179,0,0,0-.066.113.171.171,0,0,0,.146.194.165.165,0,0,0,.127-.033Zm.1-.035a.171.171,0,0,0-.1.034l.206.275a.171.171,0,0,0,.034-.24A.173.173,0,0,0,1490.489,287.179Z" fill="#231815"/><ellipse cx="1.739" cy="0.858" rx="1.739" ry="0.858" transform="translate(1447.245 291.644) rotate(-62.353)" fill="#221714"/><path d="M1448.218,292.834a1.191,1.191,0,0,1-.557-.136h0a1.457,1.457,0,0,1-.7-1.406,3.6,3.6,0,0,1,.432-1.531c.667-1.272,1.744-1.886,2.566-1.455a1.455,1.455,0,0,1,.7,1.406,3.863,3.863,0,0,1-1.444,2.759A1.713,1.713,0,0,1,1448.218,292.834Zm.949-3.011a2.356,2.356,0,0,0-.46.624,2.306,2.306,0,0,0-.251.734,2.339,2.339,0,0,0,.46-.624A2.309,2.309,0,0,0,1449.167,289.823Z" fill="#231815"/><path d="M1506.984,271.642s3.577-7.027,8.387-4.807,4.9,6.522,3.238,8.742-4.949,5.92-7.863,6.2" fill="#895b31"/><path d="M1510.956,283.985l-.42-4.42c1.486-.142,4.017-2.279,6.3-5.32a2.99,2.99,0,0,0,.436-2.482,4.666,4.666,0,0,0-2.828-2.912c-2.775-1.275-5.456,3.752-5.482,3.8l-3.954-2.02c1.572-3.089,5.961-8.279,11.3-5.815a9.037,9.037,0,0,1,5.273,5.857,7.434,7.434,0,0,1-1.189,6.233C1518.522,279.394,1514.818,283.617,1510.956,283.985Z" fill="#47280a"/><path d="M1635.677,405.287a20.028,20.028,0,0,1-.216,4.825c-1.851,10.3-7.265,8.773-6.784,13.815.37,3.885,9.713,2.96,14.431,1.48,3.408-1.069,6.236-10.375,7.823-19.087A66.243,66.243,0,0,1,1635.677,405.287Z" fill="#595757"/><path d="M1634.789,428.543a11.261,11.261,0,0,1-6.029-1.34,4.114,4.114,0,0,1-1.925-3.1c-.3-3.129,1.233-4.631,2.585-5.958,1.47-1.442,3.3-3.237,4.22-8.36a18.181,18.181,0,0,0,.19-4.377l-.153-2.344,2.315.4a65.05,65.05,0,0,0,14.794,1.013l2.4-.187-.43,2.363c-1.557,8.548-4.4,19.048-9.089,20.52A31.991,31.991,0,0,1,1634.789,428.543Zm2.784-21.079a19.787,19.787,0,0,1-.291,2.975c-1.129,6.283-3.622,8.73-5.271,10.348-1.214,1.192-1.623,1.593-1.493,2.965.007.075.018.189.288.368,1.848,1.227,7.833.752,11.748-.478,1.331-.418,3.97-4.874,6.115-15.363A68.226,68.226,0,0,1,1637.573,407.464Z" fill="#47280a"/><path d="M1613.51,402.507c.356,7.707-5.211,8.694-5.32,11.634-.089,2.4,1.476,4.207,8.464,2.85s8.836-4.3,9.576-12.437c.046-.507.085-1.018.123-1.53A83.218,83.218,0,0,1,1613.51,402.507Z" fill="#595757"/><path d="M1612.555,419.674a7.3,7.3,0,0,1-4.917-1.448,4.98,4.98,0,0,1-1.667-4.168c.073-1.942,1.321-3.234,2.422-4.374,1.514-1.568,3.079-3.189,2.9-7.075l-.119-2.577,2.566.266a81.061,81.061,0,0,0,12.457.512l2.559-.181-.188,2.558c-.039.524-.078,1.048-.126,1.569-.749,8.242-2.712,12.735-11.363,14.414A24.036,24.036,0,0,1,1612.555,419.674Zm3.095-14.733a12.576,12.576,0,0,1-4.063,7.828c-.465.482-1.169,1.21-1.178,1.454-.006.155-.006.525.116.63.1.089,1.149.844,5.706-.042,5.466-1.061,6.974-2.8,7.691-9.479C1621.24,405.365,1618.257,405.168,1615.65,404.941Z" fill="#47280a"/><path d="M1554.209,410.036v0c1.072,3.691,1.488,7.573.386,10.485-1.417,3.74-.913,10.282,8.88,6.29,3.254-1.326,6.106-8.868,4.256-16.4a13.207,13.207,0,0,1-.263-2.307h0C1563.1,410.882,1554.209,410.036,1554.209,410.036Z" fill="#595757"/><path d="M1558.25,429.914a5.962,5.962,0,0,1-4.344-1.6c-2.286-2.231-1.991-5.946-1.043-8.449.83-2.191.676-5.5-.432-9.313l-.2-.695.89-1.782,1.264.117c2.3.217,8.96.341,12.089-1.653l2.689-1.713.154,3.183a11.016,11.016,0,0,0,.212,1.955c2.058,8.385-1.188,16.862-5.354,18.561A16.129,16.129,0,0,1,1558.25,429.914ZM1556.6,412c.589,2.89.816,6.292-.275,9.174-.58,1.532-.719,3.627.165,4.49.918.9,3.208.686,6.287-.568,2.125-.865,4.857-7.325,3.157-14.25l0-.012A29.758,29.758,0,0,1,1556.6,412Z" fill="#47280a"/><line x2="14.288" y2="0.523" transform="translate(1573.503 306.758)" fill="#804f21"/><rect width="2.961" height="14.298" transform="translate(1573.449 308.237) rotate(-87.903)" fill="#47280a"/><line x2="14.288" y2="0.523" transform="translate(1589.54 317.533)" fill="#804f21"/><rect width="2.961" height="14.298" transform="translate(1589.485 319.013) rotate(-87.903)" fill="#47280a"/><line x2="11.707" y2="0.974" transform="translate(1611.505 303.272)" fill="#804f21"/><rect width="2.96" height="11.748" transform="matrix(0.083, -0.997, 0.997, 0.083, 1611.382, 304.747)" fill="#47280a"/></g><g transform="translate(-197.561 70.425)"><path d="M1529.277,411.943l-.108.01c.064-.775.106-1.557.108-2.348a28.74,28.74,0,0,0-6.962-18.826c.037-.011.068-.026.107-.037a29.313,29.313,0,0,0-10.935-7.944c0,.037,0,.068,0,.1a28.587,28.587,0,0,0-10.984-2.2,28.88,28.88,0,0,0-11.184,2.225c0-.04-.005-.074,0-.116a29.342,29.342,0,0,0-10.894,7.954c.035.008.062.021.1.03a28.745,28.745,0,0,0-6.941,18.748c0,.838.042,1.665.111,2.485-.072.08-.094.225-.069.471a28.289,28.289,0,0,0,4.136,12.194c.02-.032.04-.061.059-.091a28.923,28.923,0,0,0,17.95,13.014c-.022.03-.042.059-.066.089a28.283,28.283,0,0,0,13.493-.014c-.024-.027-.044-.055-.065-.082a28.91,28.91,0,0,0,17.925-13.033c.022.032.043.062.065.1A28.35,28.35,0,0,0,1529.277,411.943Z" fill="#fff" stroke="#47280a" stroke-miterlimit="10" stroke-width="3"/><path d="M1493.48,434.833c-1.688-2.207-3.323-4.454-4.961-6.7a4,4,0,0,0-2.067-1.5c-2.73-.894-5.454-1.8-8.165-2.751a1.847,1.847,0,0,0-2.469.719,28.924,28.924,0,0,0,17.95,13.014C1494.549,436.583,1494.165,435.728,1493.48,434.833Z" fill="#057faf" stroke="#47280a" stroke-miterlimit="10" stroke-width="3"/><path d="M1472.208,411.987c.878.178,1.474-.336,1.935-1.158a42.088,42.088,0,0,1,4.886-6.824c.96-1.117.961-2.483.718-3.993a18.254,18.254,0,0,1,.055-5.78c.283-1.763.25-3.014-1.281-3.436a28.749,28.749,0,0,0-6.94,18.748c0,.767.035,1.525.094,2.276a.149.149,0,0,0,.171.135A1.107,1.107,0,0,1,1472.208,411.987Z" fill="#057faf" stroke="#47280a" stroke-miterlimit="10" stroke-width="3"/><path d="M1522.53,423.9c-2.676.946-5.369,1.844-8.069,2.717a4.129,4.129,0,0,0-2.147,1.554c-1.68,2.3-3.359,4.6-5.081,6.86a1.874,1.874,0,0,0-.1,2.582,28.909,28.909,0,0,0,17.926-13.033A1.9,1.9,0,0,0,1522.53,423.9Z" fill="#057faf" stroke="#47280a" stroke-miterlimit="10" stroke-width="3"/><path d="M1520.92,392.847c.057,2.882.054,5.765.052,8.647a4.013,4.013,0,0,0,.785,2.434c1.624,2.254,3.23,4.521,4.844,6.783.921,1.293,1.075,1.383,2.57,1.242.064-.775.106-1.557.108-2.348a28.742,28.742,0,0,0-6.962-18.826A1.849,1.849,0,0,0,1520.92,392.847Z" fill="#057faf" stroke="#47280a" stroke-miterlimit="10" stroke-width="3"/><path d="M1491.168,385.015c2.659.783,5.3,1.627,7.936,2.489a3.976,3.976,0,0,0,2.552.032c2.767-.886,5.534-1.772,8.314-2.617a1.811,1.811,0,0,0,1.521-2.017,28.587,28.587,0,0,0-10.984-2.2,28.881,28.881,0,0,0-11.184,2.225C1489.3,384.185,1490.071,384.692,1491.168,385.015Z" fill="#057faf" stroke="#47280a" stroke-miterlimit="10" stroke-width="3"/><path d="M1510.544,404.556q-4.258-3.108-8.532-6.2a2.428,2.428,0,0,0-3.147-.011q-4.319,3.113-8.611,6.258a2.357,2.357,0,0,0-.943,2.995q1.611,5.007,3.25,10.005a2.446,2.446,0,0,0,2.678,1.942c1.709.016,3.419,0,5.128,0,1.776,0,3.553.013,5.329-.006a2.431,2.431,0,0,0,2.6-1.917q1.638-5,3.25-10.006A2.4,2.4,0,0,0,1510.544,404.556Z" fill="#057faf" stroke="#47280a" stroke-miterlimit="10" stroke-width="3"/></g><g transform="translate(-197.561 70.425)"><path d="M1564.814,435.016c0-.053.005-.1.006-.157a.894.894,0,0,0-.017-.194,14.625,14.625,0,0,0-.472-3.265l-.007-.03c-.006-.019-.012-.037-.017-.055a14.526,14.526,0,0,0-1.79-4.039,13.58,13.58,0,0,0-3.277-3.613,14.387,14.387,0,0,0-8.448-3.081,1.022,1.022,0,0,0-.163-.014,12.742,12.742,0,0,0-3.861.434c-.035.009-.066.021-.1.031a14.506,14.506,0,0,0-3.8,1.588,13.436,13.436,0,0,0-4.97,4.9,14.481,14.481,0,0,0-.473,14.279,13.7,13.7,0,0,0,4.168,4.909,14.47,14.47,0,0,0,3.064,1.764l.064.031a13.653,13.653,0,0,0,5.04,1.1l.005-.013c.178.006.357.013.537.013a14.489,14.489,0,0,0,4.448-.708c.147-.046.293-.1.438-.149.107-.039.212-.08.318-.121.208-.08.415-.163.618-.255a14.649,14.649,0,0,0,4.654-3.263,13.383,13.383,0,0,0,3.281-5.4,14.274,14.274,0,0,0,.752-4.63C1564.816,435.063,1564.814,435.04,1564.814,435.016Z" fill="#fff" stroke="#47280a" stroke-miterlimit="10" stroke-width="3"/><path d="M1552.656,447.388c0-.052.147-.1.232-.139a1.507,1.507,0,0,0,1-1.322,1.467,1.467,0,0,0-.791-1.484.379.379,0,0,1-.247-.388,2,2,0,0,0-.039-.4,1.022,1.022,0,0,1,.281-.992,1.493,1.493,0,0,0-.855-2.48.49.49,0,0,1-.44-.355,1.111,1.111,0,0,0-.107-.232,1.161,1.161,0,0,1-.106-1.163,1.508,1.508,0,0,0-1.722-2,.983.983,0,0,1-.47-.143c-.072-.032-.115-.125-.182-.176a1.228,1.228,0,0,1-.513-1.126,1.486,1.486,0,0,0-2.262-1.249.44.44,0,0,1-.526.016,1.059,1.059,0,0,0-.262-.127,1.125,1.125,0,0,1-.814-.831,1.489,1.489,0,0,0-2.545-.45.511.511,0,0,1-.588.208.748.748,0,0,0-.253-.025,1.011,1.011,0,0,1-.979-.478,1.5,1.5,0,0,0-2.591.447.5.5,0,0,1-.42.372,1.717,1.717,0,0,0-.524.146.564.564,0,0,1-.718-.122,14.29,14.29,0,0,0-.163,2.163c0,.151.007.3.012.451a1.682,1.682,0,0,0,.826-1.228.462.462,0,0,1,.225-.259,2.992,2.992,0,0,1,.379-.121.543.543,0,0,1,.707.2,1.486,1.486,0,0,0,2.4-.241.583.583,0,0,1,.664-.326c.366.033.632.07.813.513a1.454,1.454,0,0,0,2.32.5.463.463,0,0,1,.63-.079,2.174,2.174,0,0,0,.364.165.368.368,0,0,1,.262.41,1.533,1.533,0,0,0,2.159,1.448.59.59,0,0,1,.371.055c.084.034.14.133.215.194a.684.684,0,0,1,.266.854,1.486,1.486,0,0,0,1.52,1.9c.251-.009.383.055.464.279a2.024,2.024,0,0,0,.161.327.446.446,0,0,1-.058.6,1.519,1.519,0,0,0,.684,2.435c.258.087.357.2.349.456a1.444,1.444,0,0,0,.039.326.447.447,0,0,1-.254.551,1.506,1.506,0,0,0-.188,2.5.443.443,0,0,1,.18.577c-.062.17-.084.356-.15.524a.337.337,0,0,1-.191.178c-.847.249-1.069.394-1.335,1.072.147,0,.293.011.441.01a14.215,14.215,0,0,0,2.412-.212.333.333,0,0,0-.059-.091C1552.067,448.486,1552.617,447.933,1552.656,447.388Z" fill="#057faf" stroke="#47280a" stroke-miterlimit="10" stroke-width="1"/><path d="M1551.627,421.289a.444.444,0,0,1,.283.482.51.51,0,0,0,.006.146,1.359,1.359,0,0,1-.364,1.284,1.476,1.476,0,0,0,.926,2.384.412.412,0,0,1,.384.315,1.29,1.29,0,0,0,.116.267,1.2,1.2,0,0,1,.079,1.194,1.5,1.5,0,0,0,1.673,2.006.488.488,0,0,1,.523.2,1.228,1.228,0,0,0,.176.185,1.1,1.1,0,0,1,.452,1.035,1.478,1.478,0,0,0,2.217,1.353.483.483,0,0,1,.56.008.872.872,0,0,0,.2.1,1.265,1.265,0,0,1,.881.911,1.466,1.466,0,0,0,2.491.473.61.61,0,0,1,.629-.22.891.891,0,0,0,.216.028.92.92,0,0,1,.991.531.9.9,0,0,0,.473.377l.01.005a14.308,14.308,0,0,0-.361-2.5,1.845,1.845,0,0,0-.217.247c-.1.12-.2.335-.312.342a4.254,4.254,0,0,1-.937-.088c-.046-.008-.078-.136-.1-.213a1.552,1.552,0,0,0-2.561-.7.482.482,0,0,1-.367.059,3.786,3.786,0,0,1-.463-.207c-.235-.089-.37-.223-.286-.463a1.526,1.526,0,0,0-2.038-1.492.451.451,0,0,1-.589-.143,3.338,3.338,0,0,1-.319-.347.51.51,0,0,1-.067-.372,1.556,1.556,0,0,0-1.494-2.17c-.12,0-.247-.122-.351-.21-.06-.05-.077-.149-.118-.223a.667.667,0,0,1,.056-.885,1.489,1.489,0,0,0-.7-2.326.444.444,0,0,1-.354-.456,4,4,0,0,1-.025-.545.862.862,0,0,1,.151-.286c.005-.008.025-.008.032-.016a.988.988,0,0,1,.244-.207,14.125,14.125,0,0,0-2.184-.3A1.229,1.229,0,0,0,1551.627,421.289Z" fill="#057faf" stroke="#47280a" stroke-miterlimit="10" stroke-width="1"/></g></g></svg>