<svg xmlns="http://www.w3.org/2000/svg" width="322.58" height="322.58" viewBox="0 0 322.58 322.58"><g transform="translate(-153 -234)"><g transform="translate(-197.561 70.425)"><circle cx="161.29" cy="161.29" r="161.29" transform="translate(350.561 163.576)" fill="#f4f5f3"/><circle cx="149.551" cy="149.551" r="149.551" transform="translate(361.621 175.315)" fill="#e3f1f0"/></g><g transform="translate(-197.561 70.425)"><path d="M476.367,358.058c6.921,6.854,18.316,33.581,14.536,42.368-1.581,3.674-.913,10.282,8.88,6.291,3.254-1.326,6.106-8.868,4.256-16.4-.9-3.681.37-19.55,1.357-21.462" fill="#804f21"/><path d="M494.549,410.186a6.357,6.357,0,0,1-4.747-1.823c-2.272-2.316-2.108-6.1-.939-8.814,3.285-7.636-7.363-33.284-14.058-39.913l3.123-3.156c7.17,7.1,19.325,34.8,15.014,44.824-.646,1.5-.633,3.274.03,3.95.624.637,2.523.814,5.973-.593,1.97-.8,4.565-7.191,2.938-13.82-.934-3.8.174-20.363,1.539-23.009l3.946,2.035c-.717,1.789-1.959,16.712-1.173,19.916,2.135,8.7-1.181,17.2-5.573,18.99A16.468,16.468,0,0,1,494.549,410.186Z" fill="#47280a"/><path d="M556.325,373.106s8.449,11.163,9.621,16.467c2.414,10.928-4.719,11.745-4.842,15.076-.089,2.4,1.476,4.206,8.464,2.849s8.836-4.295,9.576-12.436c.938-10.322,0-21.555,5.273-27.568" fill="#804f21"/><path d="M565.469,410.182a7.3,7.3,0,0,1-4.917-1.448,4.977,4.977,0,0,1-1.666-4.168c.071-1.943,1.321-3.234,2.424-4.374,1.8-1.858,3.833-3.963,2.468-10.14-.875-3.962-6.954-12.608-9.223-15.605l3.54-2.68c.9,1.182,8.778,11.711,10.019,17.327,1.879,8.507-1.559,12.061-3.613,14.185-.465.481-1.169,1.208-1.178,1.451-.006.156-.006.526.117.63.1.089,1.144.845,5.705-.041,5.724-1.111,7.106-2.968,7.788-10.458.21-2.319.327-4.736.44-7.072.41-8.507.8-16.541,5.374-21.759l3.339,2.927c-3.554,4.054-3.906,11.336-4.278,19.046-.115,2.383-.234,4.848-.454,7.26-.749,8.243-2.712,12.735-11.363,14.415A24.11,24.11,0,0,1,565.469,410.182Z" fill="#47280a"/><path d="M491.538,399.075c-1.581,3.673-.913,10.282,8.88,6.29,2.941-1.2,5.541-7.476,4.651-14.237-.381-.656-.761-1.249-1.131-1.764-4.941,2.425-12.159.028-12.159.028l0,0C492.474,393.376,492.508,396.819,491.538,399.075Z" fill="#595757"/><path d="M495.19,408.464a6.006,6.006,0,0,1-4.489-1.712c-2.152-2.193-1.983-5.8-.863-8.409h0c.528-1.226.976-3.719.116-8.629l-.166-.947,1.487-1.488,1.087.357c.063.021,6.573,2.122,10.761.068l1.406-.691.913,1.274c.408.569.821,1.212,1.227,1.914l.185.32.049.366c.937,7.115-1.712,14.531-5.785,16.191A16.118,16.118,0,0,1,495.19,408.464Zm-1.2-16.622a16.4,16.4,0,0,1-.748,7.964h0c-.625,1.452-.756,3.477.1,4.355.93.949,3.253.764,6.377-.509,1.9-.775,4.235-5.885,3.559-11.916-.02-.034-.04-.066-.06-.1A19.635,19.635,0,0,1,493.986,391.842Z" fill="#47280a"/><path d="M505.239,278.5s-9.723-1.029-20.824-10.876-33.9-9.8-48.66-6.516c-11.9,2.652-12.273,4.745-14.246,5.366-4.857,1.526-24.571,2.1-29.6,14.8-2.914,7.354,4.317,24.854,17.083,26.149s18.44-1.172,26.581,12.335S486.758,372,502.5,389.7c3.131,3.52,7.941,14.493,5.535,20.846-1.416,3.74-.912,10.282,8.881,6.29,3.254-1.326,6.106-8.868,4.256-16.4-.9-3.681.37-19.55,1.357-21.462s45.576-2.158,56.8-4.008c3.193-.527,11.224,14.863,9.374,25.162s-7.264,8.773-6.784,13.815c.37,3.885,9.714,2.96,14.432,1.48s8.325-18.749,9.065-28.37,6.908-17.515,11.348-26.766,19.55-25.162,14.74-43.479-11.1-18.5-18.132-24.052-23.5-24.607-55.505-18.687S507.849,279.044,505.239,278.5Z" fill="#895b31"/><path d="M511.687,420.3a6.311,6.311,0,0,1-4.6-1.7c-2.415-2.355-2.118-6.236-1.131-8.845,1.969-5.2-2.2-15.3-5.118-18.583-6.084-6.841-16.271-16.84-27.057-27.427-17.208-16.89-35-34.355-40.116-42.839-6.105-10.13-10.046-10.347-18.682-10.823-1.841-.1-3.929-.216-6.22-.449-6.124-.621-11.651-4.507-15.563-10.943-3.833-6.305-5.184-13.632-3.361-18.233,4.515-11.393,19.143-13.932,27-15.3a39.678,39.678,0,0,0,4-.807,4.235,4.235,0,0,0,.93-.529c1.632-1.065,4.363-2.849,13.5-4.885,16.436-3.663,39.287-3.025,50.616,7.023,10.448,9.267,19.494,10.318,19.584,10.328l.219.034c2.147.448,19.773,1.468,51.772-4.45,29.259-5.408,46.272,9.529,54.45,16.708,1.1.963,2.043,1.794,2.835,2.419,1.351,1.067,2.713,1.95,4.031,2.8,5.566,3.607,10.823,7.012,14.872,22.428,3.951,15.045-4.477,28.226-10.631,37.85a75.5,75.5,0,0,0-4.254,7.154c-1.271,2.647-2.677,5.18-4.035,7.629-3.4,6.12-6.605,11.9-7.1,18.347-.022.276-2.492,27.769-10.615,30.317-2.678.84-11.219,2.638-15.218-.015a4.473,4.473,0,0,1-2.088-3.373c-.315-3.3,1.283-4.872,2.693-6.255,1.508-1.48,3.217-3.157,4.116-8.162,1.556-8.661-4.794-21.076-7.16-22.527-5.492.846-17.589,1.349-29.295,1.836-10.069.419-22.411.932-25.739,1.6-.722,3.4-1.721,16.313-1,19.267,2.135,8.7-1.181,17.2-5.573,18.99A16.483,16.483,0,0,1,511.687,420.3ZM454.179,261.344a83.972,83.972,0,0,0-17.941,1.932c-8.349,1.861-10.658,3.368-12.036,4.269a7.862,7.862,0,0,1-2.028,1.048,40.379,40.379,0,0,1-4.57.945c-7.494,1.3-20.036,3.476-23.634,12.556-1.274,3.213.028,9.357,3.027,14.291,1.838,3.022,5.867,8.187,12.217,8.832,2.189.222,4.135.329,6.016.433,8.987.495,14.923.821,22.241,12.963,4.824,8,23.206,26.045,39.424,41.964,10.841,10.64,21.08,20.69,27.264,27.643,3.5,3.936,8.774,15.658,5.953,23.108-.623,1.645-.588,3.443.079,4.093.613.6,2.481.744,5.887-.645,1.97-.8,4.565-7.191,2.938-13.82-.934-3.8.174-20.363,1.539-23.009.946-1.83,1.988-2.21,29.323-3.348,11.816-.491,24.034-1,29.089-1.833,1.319-.215,2.678.38,4.051,1.772,4.222,4.282,9.514,16.825,7.871,25.974-1.15,6.4-3.694,8.894-5.377,10.546-1.235,1.212-1.493,1.509-1.383,2.665.679.976,6.538,1.146,11.556-.428,2.455-.769,6.54-13.721,7.517-26.421.571-7.412,4.007-13.6,7.645-20.161,1.329-2.393,2.7-4.867,3.916-7.4a77.891,77.891,0,0,1,4.516-7.625c5.712-8.933,13.534-21.167,10.077-34.33-3.612-13.752-7.751-16.434-12.991-19.829-1.4-.909-2.854-1.849-4.369-3.045-.883-.7-1.87-1.563-3.013-2.567-8.239-7.234-23.575-20.7-50.712-15.679-32.15,5.947-50.283,5.027-53.377,4.452-1.205-.152-10.955-1.654-21.952-11.409C476.642,263.7,465.534,261.344,454.179,261.344Z" fill="#47280a"/><path d="M413.334,293.368c3.153-5.377,4.521-19.87-.382-22.97-.819-.517-4.468.63-6.676,1.26-5.461,2-10,4.02-12.246,9.679-1.456,3.676-.149,10.291,2.757,15.51a25.279,25.279,0,0,0,3.052,3.486C401.606,301.906,410.284,298.567,413.334,293.368Z" fill="#72492a"/><path d="M443.6,280.761a3.524,3.524,0,1,1,2.116-.707h0A3.511,3.511,0,0,1,443.6,280.761Zm-.109-3.664a.178.178,0,0,0-.066.113.186.186,0,0,0,.032.128.181.181,0,0,0,.114.066.167.167,0,0,0,.127-.032Zm.1-.035a.172.172,0,0,0-.1.034l.207.275a.172.172,0,0,0-.1-.309Z" fill="#231815"/><ellipse cx="1.739" cy="0.858" rx="1.739" ry="0.858" transform="translate(400.346 281.528) rotate(-62.353)" fill="#221714"/><path d="M401.319,282.717a1.184,1.184,0,0,1-.556-.136h0a1.455,1.455,0,0,1-.7-1.406,3.588,3.588,0,0,1,.433-1.531c.667-1.272,1.744-1.886,2.565-1.455a1.455,1.455,0,0,1,.7,1.406,3.869,3.869,0,0,1-1.445,2.759A1.713,1.713,0,0,1,401.319,282.717Zm.949-3.01a2.326,2.326,0,0,0-.459.623,2.283,2.283,0,0,0-.251.734,2.338,2.338,0,0,0,.459-.624A2.312,2.312,0,0,0,402.268,279.707Z" fill="#231815"/><path d="M460.085,261.525s3.577-7.027,8.388-4.807,4.9,6.522,3.237,8.742-4.949,5.921-7.863,6.2" fill="#895b31"/><path d="M464.058,273.869l-.421-4.421c1.486-.141,4.017-2.279,6.3-5.32a2.984,2.984,0,0,0,.437-2.481,4.67,4.67,0,0,0-2.828-2.913c-2.776-1.275-5.456,3.752-5.482,3.8l-3.955-2.02c1.573-3.089,5.961-8.28,11.3-5.815a9.033,9.033,0,0,1,5.273,5.856,7.433,7.433,0,0,1-1.189,6.233C471.623,269.277,467.92,273.5,464.058,273.869Z" fill="#47280a"/><path d="M588.778,395.17a20.036,20.036,0,0,1-.216,4.826c-1.85,10.3-7.264,8.773-6.784,13.814.37,3.886,9.713,2.961,14.431,1.48,3.408-1.069,6.236-10.375,7.823-19.086A66.3,66.3,0,0,1,588.778,395.17Z" fill="#595757"/><path d="M587.89,418.427a11.261,11.261,0,0,1-6.029-1.34,4.118,4.118,0,0,1-1.925-3.1c-.3-3.129,1.233-4.631,2.585-5.957,1.47-1.443,3.3-3.238,4.22-8.361a18.177,18.177,0,0,0,.191-4.377l-.154-2.344,2.315.4a65.006,65.006,0,0,0,14.795,1.012l2.4-.187-.43,2.363c-1.558,8.549-4.4,19.048-9.089,20.521A32.041,32.041,0,0,1,587.89,418.427Zm2.784-21.079a19.781,19.781,0,0,1-.291,2.974c-1.128,6.284-3.621,8.73-5.27,10.348-1.215,1.192-1.624,1.593-1.494,2.965.008.075.019.189.289.368,1.848,1.227,7.833.752,11.748-.478,1.33-.418,3.969-4.873,6.114-15.363A68.234,68.234,0,0,1,590.674,397.348Z" fill="#47280a"/><path d="M566.611,392.39c.357,7.708-5.211,8.694-5.32,11.634-.088,2.4,1.476,4.207,8.465,2.85s8.835-4.3,9.575-12.436c.046-.508.085-1.019.123-1.53A83.221,83.221,0,0,1,566.611,392.39Z" fill="#595757"/><path d="M565.657,409.557a7.3,7.3,0,0,1-4.918-1.447,4.979,4.979,0,0,1-1.666-4.168c.072-1.942,1.32-3.234,2.421-4.374,1.514-1.569,3.079-3.19,2.9-7.076l-.12-2.577,2.567.266a80.928,80.928,0,0,0,12.457.512l2.558-.18-.188,2.557c-.039.524-.078,1.048-.126,1.57-.748,8.241-2.712,12.734-11.363,14.414A24.106,24.106,0,0,1,565.657,409.557Zm3.1-14.732a12.572,12.572,0,0,1-4.064,7.827c-.465.482-1.169,1.21-1.178,1.454-.005.155-.005.525.117.63.1.09,1.148.844,5.706-.042,5.466-1.061,6.973-2.8,7.691-9.479C574.342,395.248,571.358,395.051,568.752,394.825Z" fill="#47280a"/><path d="M507.31,399.92v0c1.073,3.69,1.488,7.572.386,10.484-1.416,3.74-.913,10.282,8.881,6.29,3.253-1.326,6.105-8.868,4.255-16.4a13.236,13.236,0,0,1-.262-2.308h0C516.2,400.765,507.31,399.92,507.31,399.92Z" fill="#595757"/><path d="M511.351,419.8a5.959,5.959,0,0,1-4.343-1.6c-2.287-2.23-1.991-5.945-1.043-8.449.83-2.191.676-5.5-.432-9.313l-.2-.7.891-1.782,1.263.118c2.3.216,8.96.341,12.09-1.654l2.688-1.713.154,3.184a11.134,11.134,0,0,0,.212,1.955c2.058,8.384-1.187,16.862-5.354,18.56A16.129,16.129,0,0,1,511.351,419.8Zm-1.65-17.911c.589,2.89.816,6.292-.276,9.175-.58,1.532-.719,3.626.166,4.489.917.9,3.207.687,6.287-.567,2.125-.866,4.856-7.326,3.157-14.251l0-.012A29.73,29.73,0,0,1,509.7,401.886Z" fill="#47280a"/><line x2="14.288" y2="0.523" transform="translate(526.605 296.641)" fill="#804f21"/><rect width="2.961" height="14.298" transform="translate(526.55 298.12) rotate(-87.903)" fill="#47280a"/><line x2="14.288" y2="0.523" transform="translate(542.641 307.417)" fill="#804f21"/><rect width="2.961" height="14.298" transform="translate(542.587 308.896) rotate(-87.903)" fill="#47280a"/><line x2="11.707" y2="0.974" transform="translate(564.606 293.155)" fill="#804f21"/><rect width="2.96" height="11.748" transform="matrix(0.083, -0.997, 0.997, 0.083, 564.483, 294.63)" fill="#47280a"/></g><path d="M535.15,415.669c-3.372-.671-6.623-.614-9.282,2.1-2.951,3.014-5.96,5.971-8.947,8.95-.323.322-.668.623-.98.913-5.112-3.222-9.312-2.4-13.5,2.433l-5.082-.378a9.557,9.557,0,0,0-5.921-5.22c1.487-1.492,2.876-2.7,4.04-4.1,1.759-2.109,3.767-3.319,6.6-2.6a1.615,1.615,0,0,0,.7.006,2.228,2.228,0,0,0,1.99-2.051,2.015,2.015,0,0,0-1.495-2.4c-3.2-.678-6.41-.8-8.982,1.715q-6.132,6-12.118,12.142a8.582,8.582,0,0,0-2.342,7.515,9.157,9.157,0,0,0,17.845,1.295c.332-1.045.907-1.71,1.957-1.622.963.081,1.473.744,1.627,1.8a9.1,9.1,0,0,0,11.008,7.788c5.25-1.126,8.252-6.279,6.855-11.653a1.9,1.9,0,0,1,.41-1.528c2.572-2.663,5.312-5.171,7.8-7.909,1.9-2.089,3.88-3.493,6.833-2.707a1.3,1.3,0,0,0,.559,0,2.227,2.227,0,0,0,2.022-2.018A2.04,2.04,0,0,0,535.15,415.669Zm-46.513,22.257a4.562,4.562,0,1,1,4.847-4.265A4.616,4.616,0,0,1,488.637,437.926Zm21.289,1.578a4.56,4.56,0,1,1,4.917-4.161A4.568,4.568,0,0,1,509.926,439.5Z" transform="translate(-197.561 70.425)" fill="#057faf" stroke="#47280a" stroke-miterlimit="10" stroke-width="3"/><g transform="translate(-197.561 70.425)"><path d="M452.592,430.94q-7.514,0-15.028,0c-3.7,0-4.044-.513-2.573-3.811,3.249-7.289,6.518-14.57,9.729-21.876a7.663,7.663,0,0,0,.693-2.9c.065-5.347-.005-10.7.052-16.043a2.771,2.771,0,0,0-1.891-2.956c-1.3-.56-3.2-1.145-2.719-2.926.172-.638.954-1.06,3.5-1.06,5.548-.111,11.1-.056,16.651-.04a9.525,9.525,0,0,1,2.416.2c1.208.323,1.519,1.2.67,2.128a5.862,5.862,0,0,1-2.289,1.615c-1.752.6-2.125,1.752-2.1,3.434.075,5.144-.01,10.29.06,15.434a8.23,8.23,0,0,0,.693,3.1c3.281,7.5,6.634,14.961,9.953,22.441,1.144,2.577.7,3.249-2.179,3.256C463.017,430.949,457.8,430.94,452.592,430.94Zm-3.685-32.013c1.135,5.7-2.09,10.089-4.064,14.837-1.478,3.556-3.126,7.041-4.677,10.567-1.021,2.322-.618,2.975,1.839,2.979q10.551.018,21.1,0c2.488,0,2.924-.661,1.921-2.926-2.023-4.574-4.013-9.163-6.127-13.7-1.693-3.629-3.37-7.226-2.866-11.394.012-.1-.129-.216-.227-.368Z" fill="#fff" stroke="#47280a" stroke-miterlimit="10" stroke-width="3"/><path d="M448.907,398.927c2.53,0,7.142-.1,7.13,0-.5,4.168,1.173,8.133,2.866,11.762,2.114,4.532,4.1,9.121,6.127,13.7,1,2.265.567,2.923-1.921,2.926q-10.553.014-21.1,0c-2.457,0-2.86-.657-1.839-2.979,1.551-3.526,3.2-7.011,4.677-10.567C446.817,409.016,450.042,404.625,448.907,398.927Z" fill="#057faf" stroke="#47280a" stroke-miterlimit="10" stroke-width="3"/></g></g></svg>