<svg xmlns="http://www.w3.org/2000/svg" width="322.58" height="322.58" viewBox="0 0 322.58 322.58"><g transform="translate(-106.679 -186)"><circle cx="161.29" cy="161.29" r="161.29" transform="translate(106.679 186)" fill="#f4f5f3"/><circle cx="149.551" cy="149.551" r="149.551" transform="translate(117.739 197.739)" fill="#e3f1f0"/><path d="M510.529,191.789c-81.5,0-147.8,66.3-147.8,147.8a147.937,147.937,0,0,0,2.886,29.118c14.075-10.371,15.907-16.68,18.388-25.266.566-1.958,1.151-3.983,1.916-6.2l.17-.495c3.014-8.765,12.182-35.441,29.426-41.78.737-.27,1.513-.561,2.311-.863a4.059,4.059,0,0,1,1.712-1.141c36.294-14.116,36.321-14.126,36.392-14.149.094-.034,12.724-4.472,16.926-5.917.106-.036,12.39-3.548,20.672-3.409h.053c2.7-.02,11.973-.029,17.571.833.317.048,10.362,2.072,13.7,3.1,1.215.373,9.708,3.388,10.673,3.731a3.277,3.277,0,0,1,1.125.7c.716.295,1.436.594,2.165.907,17.559,7.552,22.9,10.774,29.659,14.854l1.874,1.129a86.272,86.272,0,0,0,22.776,8.78c1.08.212,2.194.46,3.324.755.921-4.354,2.621-8.651,5.758-10.158a5.814,5.814,0,0,1,5.856.534c5.014,3.128,1.536,11.026-.5,14.754a27.206,27.206,0,0,1,8.834,11.846c4.142,10.191,13.359,22.1,17.3,27.18.59.761,1.076,1.389,1.43,1.861,9.841,13.108,9.253,16.966,9.059,18.234a7.507,7.507,0,0,1-3.819,5.666c-3.763,2.031-9.51,1.221-17.567-2.475-11.247-5.16-18.8-8.461-26.268-9.386.21,6.252,1.105,14.722,2.691,16.736a22.993,22.993,0,0,0,3.337,3.042c2.829,2.286,6.35,5.131,4.4,8.467-2.122,3.63-6.012,4.718-10.218,4.718a41.008,41.008,0,0,1-7.559-.852c-5.22-1-6.281-3.882-7.133-6.2a7.71,7.71,0,0,0-1.933-3.34c-8.407-7.843-16.593-23.661-17.833-26.109-.261-.023-.522-.041-.78-.052-.082.024-.161.054-.245.073l-4.39,1.018a4.017,4.017,0,0,0-1.091,3.052c-.034,2.177-.175,4.888-.324,7.758-.3,5.685-.842,16.2.26,18.107,2.363,1.584,4.391,2.5,9.127,4.381,2.216.881,3.561,3.537,3.2,6.317-.446,3.4-3.16,5.724-7.262,6.209-6.838.812-19.57,2.319-23.206-7.347-.984-2.617-1.933-5.327-2.77-7.718-1.4-4.011-3.152-9.005-3.907-9.839a17.575,17.575,0,0,1-1.716-2.68c-2.356-4.062-7.26-12.514-12.921-12.708-1.008-.035-1.974-.063-2.921-.088a96.817,96.817,0,0,0-3.935,13.08c.233.4,1.371,1.594,6.868,3.848a6.625,6.625,0,0,1,4.25,7.351,7.8,7.8,0,0,1-7.373,6.379c-1.716.108-3.474.186-5.205.186-5.169,0-10.1-.7-12.94-3.376a6.959,6.959,0,0,1-2.212-5.216c.013-3.973-1.778-5.195-4.046-6.742-1.854-1.265-4.162-2.84-4.541-6.064-.174-1.479-.491-3.451-.884-5.7-3.192,5.321-8,19.816-8.16,21.909.407,1.126,4.919,4.354,12.731,6.972,3.579,1.2,5.529,3.769,5.214,6.875a8.3,8.3,0,0,1-7.222,6.942c-.591.072-1.386.2-2.334.349a83.518,83.518,0,0,1-12.879,1.286c-6.837,0-13.562-1.575-15.613-7.692-1.482-4.42-4.668-8.565-7.479-12.223-3.489-4.539-6.5-8.46-6.214-12.44.456-6.289,1.668-22.992-6.653-28.084-4.445-2.719-8-2.713-12.686.022-1.831,1.068-4.27,4.351-7.1,8.153-7.228,9.725-19.1,25.683-41.665,33.274a148.033,148.033,0,0,0,137.272,93.029c81.5,0,147.8-66.3,147.8-147.8S592.026,191.789,510.529,191.789Z" transform="translate(-242.561 7.702)" fill="none"/><path d="M496.368,365.615c-.16,0-.269,0-.349-.008v.007l-.989-.136c-.049-.012-.093-.037-.141-.051a47.669,47.669,0,0,0-7.572.967c.56,3.1,1.019,5.832,1.251,7.806.133,1.126.832,1.7,2.65,2.941,2.528,1.724,5.989,4.086,5.968,10.394a2.523,2.523,0,0,0,.829,2c2.919,2.751,11.9,2.186,14.85,2a3.37,3.37,0,0,0,3.3-2.7,2.235,2.235,0,0,0-1.576-2.564c-4.769-1.955-9.837-4.352-9.6-8.058.1-1.593,1.743-7.587,3.685-13.038l-.98-.013C499.774,365.517,497.268,365.615,496.368,365.615Z" transform="translate(-242.561 7.702)" fill="#fce5c4"/><path d="M507.185,378.349c-.143,2.279,4.876,4.5,8.243,5.883,5.1,2.091,3.228,9.143-2.426,9.5-5.025.316-18.043,1.077-18.018-6.2.029-8.922-7.984-7.812-8.6-13.07-.22-1.869-.648-4.438-1.179-7.383a2.968,2.968,0,0,0-1.068.73,10.612,10.612,0,0,0-.823,1.21c.393,2.248.71,4.22.884,5.7.379,3.224,2.687,4.8,4.541,6.064,2.268,1.547,4.059,2.769,4.046,6.742a6.959,6.959,0,0,0,2.212,5.216c2.845,2.68,7.771,3.376,12.94,3.376,1.731,0,3.489-.078,5.205-.186a7.8,7.8,0,0,0,7.373-6.379,6.625,6.625,0,0,0-4.25-7.351c-5.5-2.254-6.635-3.447-6.868-3.848a96.817,96.817,0,0,1,3.935-13.08q-1.2-.033-2.328-.056C509.038,370.631,507.274,376.939,507.185,378.349Z" transform="translate(-242.561 7.702)" fill="#47280a"/><path d="M504.989,378.21c-.233,3.706,4.835,6.1,9.6,8.058a2.235,2.235,0,0,1,1.576,2.564,3.37,3.37,0,0,1-3.3,2.7c-2.951.184-11.931.749-14.85-2a2.523,2.523,0,0,1-.829-2c.021-6.308-3.44-8.67-5.968-10.394-1.818-1.239-2.517-1.815-2.65-2.941-.232-1.974-.691-4.709-1.251-7.806a11.424,11.424,0,0,0-2.113.681c.531,2.945.959,5.514,1.179,7.383.618,5.258,8.631,4.148,8.6,13.07-.025,7.279,12.993,6.518,18.018,6.2,5.654-.355,7.525-7.407,2.426-9.5-3.367-1.381-8.386-3.6-8.243-5.883.089-1.41,1.853-7.718,3.817-13.137-.8-.017-1.574-.03-2.328-.04C506.732,370.623,505.089,376.617,504.989,378.21Z" transform="translate(-242.561 7.702)" fill="#47280a"/><path d="M605.732,298.374c-.978-.61-1.428-.393-1.62-.3-1.084.521-2.516,2.816-3.448,7.543a30.518,30.518,0,0,1,3.16,1.429C605.8,303.314,606.983,299.154,605.732,298.374Z" transform="translate(-242.561 7.702)" fill="#fce5c4"/><path d="M606.9,296.506c3.311,2.065.481,8.488-1.171,11.62q.933.586,1.837,1.267c2.035-3.728,5.513-11.626.5-14.754a5.814,5.814,0,0,0-5.856-.534c-3.137,1.507-4.837,5.8-5.758,10.158.7.183,1.411.391,2.122.617C600.072,297.586,603.075,294.122,606.9,296.506Z" transform="translate(-242.561 7.702)" fill="#47280a"/><path d="M604.112,298.072c.192-.091.642-.308,1.62.3,1.251.78.064,4.94-1.908,8.67.64.334,1.275.689,1.9,1.082,1.652-3.132,4.482-9.555,1.171-11.62-3.822-2.384-6.825,1.08-8.327,8.374.7.222,1.4.464,2.094.735C601.6,300.888,603.028,298.593,604.112,298.072Z" transform="translate(-242.561 7.702)" fill="#47280a"/><path d="M595.2,339.574l-.021-.027a.068.068,0,0,0-.016.018l.005,0A.171.171,0,0,1,595.2,339.574Z" transform="translate(-242.561 7.702)" fill="#fce5c4"/><path d="M479.727,349.478c-.032-.186-.062-.342-.089-.473a3.059,3.059,0,0,1-1.333-1.474l1.99-.938h0l1.99-.939a1.694,1.694,0,0,0-1.36-.744c-.009,0-.015,0-.009,0s0,0,.009,0h.027c1.922,0,2.6,1.525,2.914,2.829l9.8,3.14c-.074-.679-.174-1.4-.309-2.177-1.1-6.361-12.3-17.9-25.508-20.807-7.012-1.545-16.962-1.077-24.556,9.906a16.5,16.5,0,0,0-2.844,8.076,15.687,15.687,0,0,1-.893,3.987,4.685,4.685,0,0,1-.7,1.186c8.145,7.333,7,23.174,6.49,30.233-.178,2.46,2.529,5.983,5.4,9.713,3,3.906,6.406,8.333,8.1,13.389,2.4,7.156,17.587,4.751,24.072,3.725,1.006-.159,1.849-.292,2.475-.368a4.289,4.289,0,0,0,3.725-3.374c.149-1.469-1.279-2.267-2.5-2.677-2.606-.873-15.6-5.5-15.464-10.8.081-3.178,6.267-21.188,9.89-25.616a5.452,5.452,0,0,1,1.383-1.165q-.328-1.764-.675-3.6C481.06,356.856,480.35,353.083,479.727,349.478Z" transform="translate(-242.561 7.702)" fill="#fce5c4"/><path d="M417.964,299.719a4.129,4.129,0,0,1-.77-1.112l-.3.111c-15.459,5.682-24.162,31-27.022,39.324l-.171.5c-.733,2.126-1.3,4.1-1.856,6.012-2.681,9.278-4.816,16.633-21.313,28.431a146.648,146.648,0,0,0,5.28,17.641c21.458-7.136,32.487-21.96,39.894-31.926,3.339-4.494,5.752-7.741,8.289-9.223a18.319,18.319,0,0,1,6.458-2.434,3.717,3.717,0,0,1,.092-.826C431.278,325.994,428.389,310.351,417.964,299.719Z" transform="translate(-242.561 7.702)" fill="#fce5c4"/><path d="M563.5,352.21a4.1,4.1,0,0,1,.907,2.8c1.341.2,2.582.469,3.614.7l22.071,2.362c.464,0,.928-.005,1.392-.014,10.166-.209,18.722,3.471,32.98,10.011a39.9,39.9,0,0,0,7.563,2.717c-.021-1.693,1.215-3.779,3.29-5.262a8.218,8.218,0,0,1,3.813-1.537,67.777,67.777,0,0,0-7.208-11.3c-.345-.461-.819-1.073-1.394-1.815-4.036-5.213-13.489-17.423-17.838-28.122-3.513-8.642-9.528-12.285-15.664-14.162l-1.252-.148c.007-.067.018-.136.026-.2-1.155-.311-2.309-.575-3.446-.8a89.658,89.658,0,0,1-24.064-9.276l-1.884-1.134c-6.579-3.971-11.793-7.116-28.8-14.441a5.1,5.1,0,0,1-.714,1.486C533.752,288.431,526.38,306.234,563.5,352.21ZM592.9,336.4a3.854,3.854,0,0,1,5.506.795,4.031,4.031,0,0,1-.766,5.505h0a3.828,3.828,0,0,1-2.361.817,3.881,3.881,0,0,1-3.145-1.611A4.032,4.032,0,0,1,592.9,336.4Zm-33.018-30.186a8.328,8.328,0,0,1,5.847-5.6,6.18,6.18,0,0,1,5.3.681c5.92,3.7,8.1,17.535,8.328,19.1l-4.355.639c-.756-5.138-3.135-14.026-6.306-16.006a1.793,1.793,0,0,0-1.635-.22,3.936,3.936,0,0,0-2.97,2.679c-1.1,3.66,1.963,10.488,8.2,18.264l-3.432,2.756C563.655,322.017,557.869,312.882,559.879,306.217Z" transform="translate(-242.561 7.702)" fill="#fce5c4"/><path d="M595.243,339.587a.169.169,0,0,0,.113-.027c.007-.009-.02-.033-.066-.04a.174.174,0,0,0-.112.026l.022.028A.167.167,0,0,0,595.243,339.587Z" transform="translate(-242.561 7.702)" fill="#fce5c4"/><path d="M533.5,349.652c-5.007.689-9.435,4.951-13.163,12.661,5.825,2.6,10.062,9.884,12.3,13.743.485.834,1.034,1.781,1.227,2.009,1.235,1.364,2.465,4.778,4.712,11.2.871,2.486,1.771,5.057,2.739,7.63,2.336,6.212,11.027,5.726,18.99,4.783,2.229-.264,3.566-1.243,3.764-2.756a2.146,2.146,0,0,0-.707-2.078c-4.645-1.846-7.149-2.928-10.024-4.875-2.625-1.778-2.589-7.929-1.881-21.54.147-2.832.286-5.509.319-7.613a9.876,9.876,0,0,1,.5-3.044,4.092,4.092,0,0,1-1.044-.841C549.07,356.476,541.416,348.568,533.5,349.652Z" transform="translate(-242.561 7.702)" fill="#fce5c4"/><path d="M480.3,346.593h0Z" transform="translate(-242.561 7.702)" fill="#fce5c4"/><path d="M492.812,359.376a16.724,16.724,0,0,0,.851-8.5l-9.8-3.14c.087.359.148.7.2.992.617,3.571,1.323,7.328,2.007,10.96.181.964.359,1.912.534,2.85a44.06,44.06,0,0,1,5.79-.9A6.321,6.321,0,0,1,492.812,359.376Z" transform="translate(-242.561 7.702)" fill="#fce5c4"/><path d="M480.3,346.593l-1.99.938a3.059,3.059,0,0,0,1.333,1.474c.027.131.057.287.089.473.623,3.605,1.333,7.378,2.019,11.026q.345,1.836.675,3.6a11.034,11.034,0,0,1,2.062-.953c-.836-4.471-1.789-9.43-2.587-14.05C481.329,345.823,480.925,347.929,480.3,346.593Z" transform="translate(-242.561 7.702)" fill="#fce5c4"/><path d="M480.953,344.909h-.027a1.694,1.694,0,0,1,1.36.744l-1.99.939,3.571,1.145C483.552,346.434,482.875,344.909,480.953,344.909Z" transform="translate(-242.561 7.702)" fill="#fce5c4"/><path d="M486.072,359.69c-.684-3.632-1.39-7.389-2.007-10.96-.05-.289-.111-.633-.2-.992l-3.571-1.145h0c.63,1.336,1.034-.77,1.6,2.511.8,4.62,1.751,9.579,2.587,14.05a20.4,20.4,0,0,1,2.123-.614C486.431,361.6,486.253,360.654,486.072,359.69Z" transform="translate(-242.561 7.702)" fill="#fce5c4"/><path d="M597.026,308.584q-.613-.187-1.226-.352c-.008.068-.019.137-.026.2Z" transform="translate(-242.561 7.702)" fill="#fce5c4"/><path d="M561.5,358.733c.258.011.519.029.78.052-.076-.149-.127-.25-.149-.3A4.04,4.04,0,0,1,561.5,358.733Z" transform="translate(-242.561 7.702)" fill="#47280a"/><path d="M537.856,280.513l.169.07c19.045,8.192,23.688,11.3,31.294,15.86a88.351,88.351,0,0,0,23.42,9.028c1.078.211,2.2.464,3.342.766.106-.653.228-1.314.367-1.974-1.13-.3-2.244-.543-3.324-.755a86.272,86.272,0,0,1-22.776-8.78l-1.874-1.129c-6.76-4.08-12.1-7.3-29.659-14.854-.729-.313-1.449-.612-2.165-.907a3.622,3.622,0,0,1,1.014,1.6A4.654,4.654,0,0,1,537.856,280.513Z" transform="translate(-242.561 7.702)" fill="#47280a"/><path d="M604.733,309.88h-.007a24.905,24.905,0,0,1,9.818,12.114c4.845,11.921,16.152,25.724,18.978,29.489,2.1,2.8,6.2,8.477,7.925,12.844a2.52,2.52,0,0,1,.986.83c.776,1.166.479,2.88-.6,4.477a5.478,5.478,0,0,1-4.592,3.49,4.908,4.908,0,0,1-3.848-.04,36.766,36.766,0,0,1-9.763-3.2c-11.682-5.359-19.364-8.71-27.15-9.6l.006.409c.008.516.023,1.063.042,1.62,7.463.925,15.021,4.226,26.268,9.386,8.057,3.7,13.8,4.506,17.567,2.475a7.507,7.507,0,0,0,3.819-5.666c.194-1.268.782-5.126-9.059-18.234-.354-.472-.84-1.1-1.43-1.861-3.936-5.085-13.153-16.989-17.3-27.18a27.206,27.206,0,0,0-8.834-11.846c-.4.733-.745,1.308-.958,1.651Z" transform="translate(-242.561 7.702)" fill="#47280a"/><path d="M387.813,337.888c2.672-7.755,11.7-34.914,28.4-41.049.192-.07.4-.148.594-.221a4.171,4.171,0,0,1,.106-.763,4.1,4.1,0,0,1,.92-1.757c-.8.3-1.574.593-2.311.863-17.244,6.339-26.412,33.015-29.426,41.78l-.17.495c-.765,2.221-1.35,4.246-1.916,6.2-2.481,8.586-4.313,14.895-18.388,25.266.145.717.3,1.432.452,2.146C384.653,357.368,383.586,350.155,387.813,337.888Z" transform="translate(-242.561 7.702)" fill="#47280a"/><path d="M554.205,360.308a7.653,7.653,0,0,0-.432,2.537c-.135,8.505-1.942,25.686.683,27.464s4.852,2.77,9.641,4.673c2.785,1.106,3.506,7.843-3.561,8.68s-18.07,1.987-21.1-6.065-5.552-16.522-7.066-18.195c-1.348-1.489-6.282-12.8-13.34-15.475a4.046,4.046,0,0,1-2.138.813l-3.427.157c-.046.122-.092.247-.137.371.947.025,1.913.053,2.921.088,5.661.194,10.565,8.646,12.921,12.708a17.575,17.575,0,0,0,1.716,2.68c.755.834,2.5,5.828,3.907,9.839.837,2.391,1.786,5.1,2.77,7.718,3.636,9.666,16.368,8.159,23.206,7.347,4.1-.485,6.816-2.806,7.262-6.209.364-2.78-.981-5.436-3.2-6.317-4.736-1.881-6.764-2.8-9.127-4.381-1.1-1.9-.556-12.422-.26-18.107.149-2.87.29-5.581.324-7.758a4.017,4.017,0,0,1,1.091-3.052l-1.666.386A4.033,4.033,0,0,1,554.205,360.308Z" transform="translate(-242.561 7.702)" fill="#47280a"/><path d="M414.922,361.084c2.825-3.8,5.264-7.085,7.1-8.153,4.684-2.735,8.241-2.741,12.686-.022,8.321,5.092,7.109,21.8,6.653,28.084-.289,3.98,2.725,7.9,6.214,12.44,2.811,3.658,6,7.8,7.479,12.223,2.051,6.117,8.776,7.692,15.613,7.692a83.518,83.518,0,0,0,12.879-1.286c.948-.15,1.743-.277,2.334-.349a8.3,8.3,0,0,0,7.222-6.942c.315-3.106-1.635-5.675-5.214-6.875-7.812-2.618-12.324-5.846-12.731-6.972.164-2.093,4.968-16.588,8.16-21.909q-.228-1.3-.487-2.718a2.845,2.845,0,0,0-.238.242c-3.365,4.113-9.371,21.751-9.439,24.4s7.235,6.553,14.1,8.854,3.534,9.306-1.615,9.934-25.355,5.227-28.686-4.707-14.041-17.726-13.594-23.882c.526-7.265,1.448-22.6-6.253-28.959a8.2,8.2,0,0,1-4.319-.536c-.481-.154-1.005-.323-1.571-.479-.9-.247-3.014-.836-4.1-2.213a15.918,15.918,0,0,0-6.105,2.252c-7.369,4.3-17.2,30.844-48.477,41.3.239.621.479,1.242.726,1.859C395.821,386.767,407.694,370.809,414.922,361.084Z" transform="translate(-242.561 7.702)" fill="#47280a"/><path d="M508.674,365.172l.021-.058-1,.045Z" transform="translate(-242.561 7.702)" fill="#47280a"/><path d="M492.869,363.763c-.028-.054-.045-.111-.071-.166a43.806,43.806,0,0,0-5.83.887q.18.975.348,1.91a47.669,47.669,0,0,1,7.572-.967A3.273,3.273,0,0,1,492.869,363.763Z" transform="translate(-242.561 7.702)" fill="#47280a"/><path d="M511.076,365.006c-.025.068-.05.137-.074.206q1.132.024,2.328.056c.045-.124.091-.249.137-.371Z" transform="translate(-242.561 7.702)" fill="#47280a"/><path d="M485.2,367.075c-.114-.635-.232-1.282-.354-1.95a6.066,6.066,0,0,0-2.024,1.172q.259,1.414.487,2.718a10.612,10.612,0,0,1,.823-1.21A2.968,2.968,0,0,1,485.2,367.075Z" transform="translate(-242.561 7.702)" fill="#47280a"/><path d="M508.674,365.172c.754.01,1.528.023,2.328.04.024-.069.049-.138.074-.206l-2.381.108Z" transform="translate(-242.561 7.702)" fill="#47280a"/><path d="M486.968,364.484a16.687,16.687,0,0,0-2.119.641c.122.668.24,1.315.354,1.95a11.424,11.424,0,0,1,2.113-.681Q487.148,365.459,486.968,364.484Z" transform="translate(-242.561 7.702)" fill="#47280a"/><path d="M604.726,309.879h.007l-.061-.038Z" transform="translate(-242.561 7.702)" fill="#47280a"/><path d="M602.866,308.719c.335-.539.655-1.1.958-1.675a30.518,30.518,0,0,0-3.16-1.429c-.124.63-.241,1.3-.345,2.016a27.38,27.38,0,0,1,4.24,2.141Z" transform="translate(-242.561 7.702)" fill="#47280a"/><path d="M604.736,309.881h0l1.872,1.164c.213-.343.558-.918.958-1.651q-.9-.681-1.837-1.267C605.163,309.194,604.736,309.881,604.736,309.881Z" transform="translate(-242.561 7.702)" fill="#47280a"/><path d="M598.208,306.865c.108-.693.231-1.349.362-1.985-.711-.226-1.42-.434-2.122-.617-.139.66-.261,1.321-.367,1.974Q597.135,306.516,598.208,306.865Z" transform="translate(-242.561 7.702)" fill="#47280a"/><path d="M602.866,308.719l1.693,1.053.113.07.061.038h0s.427-.687.99-1.755c-.627-.393-1.262-.748-1.9-1.082C603.521,307.617,603.2,308.18,602.866,308.719Z" transform="translate(-242.561 7.702)" fill="#47280a"/><path d="M600.664,305.615c-.7-.271-1.4-.513-2.094-.735-.131.636-.254,1.292-.362,1.985.7.229,1.406.482,2.111.766C600.423,306.913,600.54,306.245,600.664,305.615Z" transform="translate(-242.561 7.702)" fill="#47280a"/><path d="M551.772,362.813c-.033,2.1-.172,4.781-.319,7.613-.708,13.611-.744,19.762,1.881,21.54,2.875,1.947,5.379,3.029,10.024,4.875a2.146,2.146,0,0,1,.707,2.078c-.2,1.513-1.535,2.492-3.764,2.756-7.963.943-16.654,1.429-18.99-4.783-.968-2.573-1.868-5.144-2.739-7.63-2.247-6.419-3.477-9.833-4.712-11.2-.193-.228-.742-1.175-1.227-2.009-2.238-3.859-6.475-11.143-12.3-13.743l-.051.1a4.128,4.128,0,0,1-1.25,1.512c7.058,2.678,11.992,13.986,13.34,15.475,1.514,1.673,4.038,10.143,7.066,18.195s14.032,6.9,21.1,6.065,6.346-7.574,3.561-8.68c-4.789-1.9-7.016-2.895-9.641-4.673s-.818-18.959-.683-27.464a7.653,7.653,0,0,1,.432-2.537,4.041,4.041,0,0,1-1.933-.539A9.876,9.876,0,0,0,551.772,362.813Z" transform="translate(-242.561 7.702)" fill="#47280a"/><path d="M632.463,372.284a2.726,2.726,0,0,1-.436-1.5,39.9,39.9,0,0,1-7.563-2.717c-14.258-6.54-22.814-10.22-32.98-10.011-.464.009-.928.012-1.392.014l6.364.681.023,1.539c7.786.886,15.468,4.237,27.15,9.6a36.766,36.766,0,0,0,9.763,3.2A2.512,2.512,0,0,1,632.463,372.284Z" transform="translate(-242.561 7.702)" fill="#47280a"/><path d="M639.579,371.919a9.024,9.024,0,0,1-2.339,1.2,5.478,5.478,0,0,0,4.592-3.49A9.141,9.141,0,0,1,639.579,371.919Z" transform="translate(-242.561 7.702)" fill="#47280a"/><path d="M597.959,308.694l-.933-.11c6.136,1.877,12.151,5.52,15.664,14.162,4.349,10.7,13.8,22.909,17.838,28.122.575.742,1.049,1.354,1.394,1.815a67.777,67.777,0,0,1,7.208,11.3,4.1,4.1,0,0,1,2.317.341c-1.723-4.367-5.825-10.047-7.925-12.844-2.826-3.765-14.133-17.568-18.978-29.489a24.905,24.905,0,0,0-9.818-12.114l-6.767-1.185Z" transform="translate(-242.561 7.702)" fill="#47280a"/><path d="M566.406,297.025l1.884,1.134a89.658,89.658,0,0,0,24.064,9.276c1.137.222,2.291.486,3.446.8.079-.65.171-1.317.281-1.995-1.142-.3-2.264-.555-3.342-.766a88.351,88.351,0,0,1-23.42-9.028c-7.606-4.562-12.249-7.668-31.294-15.86l-.169-.07a5.8,5.8,0,0,1-.246,2.071C554.613,289.909,559.827,293.054,566.406,297.025Z" transform="translate(-242.561 7.702)" fill="#47280a"/><path d="M420,349.474c-2.537,1.482-4.95,4.729-8.289,9.223-7.407,9.966-18.436,24.79-39.894,31.926.232.628.474,1.251.715,1.876,31.282-10.452,41.108-36.994,48.477-41.3a15.918,15.918,0,0,1,6.105-2.252,2.973,2.973,0,0,1-.656-1.911A18.319,18.319,0,0,0,420,349.474Z" transform="translate(-242.561 7.702)" fill="#47280a"/><path d="M387.849,344.551c.552-1.911,1.123-3.886,1.856-6.012l.171-.5c2.86-8.321,11.563-33.642,27.022-39.324l.3-.111a4.067,4.067,0,0,1-.392-1.989c-.2.073-.4.151-.594.221-16.691,6.135-25.723,33.294-28.4,41.049-4.227,12.267-3.16,19.48-21.744,32.964.154.711.3,1.423.467,2.13C383.033,361.184,385.168,353.829,387.849,344.551Z" transform="translate(-242.561 7.702)" fill="#47280a"/><path d="M481.038,365.272c-3.623,4.428-9.809,22.438-9.89,25.616-.135,5.3,12.858,9.929,15.464,10.8,1.224.41,2.652,1.208,2.5,2.677a4.289,4.289,0,0,1-3.725,3.374c-.626.076-1.469.209-2.475.368-6.485,1.026-21.673,3.431-24.072-3.725-1.695-5.056-5.1-9.483-8.1-13.389-2.866-3.73-5.573-7.253-5.4-9.713.512-7.059,1.655-22.9-6.49-30.233a3.262,3.262,0,0,1-1.758,1.13c7.7,6.358,6.779,21.694,6.253,28.959-.447,6.156,10.263,13.948,13.594,23.882s23.538,5.334,28.686,4.707,8.48-7.634,1.615-9.934-14.166-6.2-14.1-8.854,6.074-20.287,9.439-24.4a2.845,2.845,0,0,1,.238-.242c-.13-.713-.265-1.445-.4-2.19A5.452,5.452,0,0,0,481.038,365.272Z" transform="translate(-242.561 7.702)" fill="#47280a"/><path d="M564.376,355.318l3.645.39c-1.032-.234-2.273-.5-3.614-.7C564.4,355.109,564.39,355.214,564.376,355.318Z" transform="translate(-242.561 7.702)" fill="#47280a"/><path d="M492.4,361.639a44.06,44.06,0,0,0-5.79.9q.185.987.362,1.944a43.806,43.806,0,0,1,5.83-.887A4.684,4.684,0,0,1,492.4,361.639Z" transform="translate(-242.561 7.702)" fill="#47280a"/><path d="M484.483,363.154a11.034,11.034,0,0,0-2.062.953c.139.745.274,1.477.4,2.19a6.066,6.066,0,0,1,2.024-1.172Q484.671,364.159,484.483,363.154Z" transform="translate(-242.561 7.702)" fill="#47280a"/><path d="M486.606,362.54a20.4,20.4,0,0,0-2.123.614q.188,1.005.366,1.971a16.687,16.687,0,0,1,2.119-.641Q486.791,363.527,486.606,362.54Z" transform="translate(-242.561 7.702)" fill="#47280a"/><path d="M604.559,309.772a27.38,27.38,0,0,0-4.24-2.141c-.062.425-.12.863-.174,1.32l-2.186-.257h0l6.767,1.185-.054-.037Z" transform="translate(-242.561 7.702)" fill="#47280a"/><path d="M597.026,308.584l.933.11q.111-.945.249-1.829-1.071-.351-2.127-.628c-.11.678-.2,1.345-.281,1.995Q596.413,308.4,597.026,308.584Z" transform="translate(-242.561 7.702)" fill="#47280a"/><path d="M600.145,308.951c.054-.457.112-.895.174-1.32-.7-.284-1.409-.537-2.111-.766q-.137.885-.249,1.829Z" transform="translate(-242.561 7.702)" fill="#47280a"/><path d="M594.73,343.482a3.878,3.878,0,0,0,.546.039,3.828,3.828,0,0,0,2.361-.817h0a4.031,4.031,0,0,0,.766-5.505,3.854,3.854,0,0,0-5.506-.795,4.032,4.032,0,0,0-.766,5.507A3.853,3.853,0,0,0,594.73,343.482Zm.56-3.962c.046.007.073.031.066.04a.155.155,0,0,1-.156.014l-.022-.028A.174.174,0,0,1,595.29,339.52Zm-.112.027.021.027a.171.171,0,0,0-.032-.011l-.005,0A.068.068,0,0,1,595.178,339.547Z" transform="translate(-242.561 7.702)" fill="#47280a"/><path d="M572.3,325.752c-6.24-7.776-9.307-14.6-8.2-18.264a3.936,3.936,0,0,1,2.97-2.679,1.793,1.793,0,0,1,1.635.22c3.171,1.98,5.55,10.868,6.306,16.006l4.355-.639c-.229-1.565-2.408-15.4-8.328-19.1a6.18,6.18,0,0,0-5.3-.681,8.328,8.328,0,0,0-5.847,5.6c-2.01,6.665,3.776,15.8,8.985,22.291Z" transform="translate(-242.561 7.702)" fill="#47280a"/><path d="M632.027,370.784c3.61.832,5.508.374,6.436-.126a3.508,3.508,0,0,0,1.762-2.747,8.2,8.2,0,0,0-1.095-3.926,8.218,8.218,0,0,0-3.813,1.537C633.242,367.005,632.006,369.091,632.027,370.784Z" transform="translate(-242.561 7.702)" fill="#47280a"/><path d="M642.2,368.213a6.866,6.866,0,0,1-.372,1.42c1.08-1.6,1.377-3.311.6-4.477a2.52,2.52,0,0,0-.986-.83A8.129,8.129,0,0,1,642.2,368.213Z" transform="translate(-242.561 7.702)" fill="#47280a"/><path d="M633.392,373.083a4.908,4.908,0,0,0,3.848.04A12.751,12.751,0,0,1,633.392,373.083Z" transform="translate(-242.561 7.702)" fill="#47280a"/><path d="M639.13,363.985a8.2,8.2,0,0,1,1.095,3.926,3.508,3.508,0,0,1-1.762,2.747c-.928.5-2.826.958-6.436.126a2.726,2.726,0,0,0,.436,1.5,2.512,2.512,0,0,0,.929.8,12.751,12.751,0,0,0,3.848.04,9.024,9.024,0,0,0,2.339-1.2,9.141,9.141,0,0,0,2.253-2.286,6.866,6.866,0,0,0,.372-1.42,8.129,8.129,0,0,0-.757-3.887A4.1,4.1,0,0,0,639.13,363.985Z" transform="translate(-242.561 7.702)" fill="#47280a"/><path d="M583.115,381.676a11.839,11.839,0,0,1,3.061,5.037c.723,1.964,1.053,2.862,3.83,3.393,7.337,1.406,11.374.927,13.019-1.556a17.776,17.776,0,0,0-3.236-3.029,25.676,25.676,0,0,1-4.029-3.743c-2.772-3.519-3.457-14.218-3.626-19.062l-6.913-.74a111.211,111.211,0,0,1-13.517-1.447l-3.729-.4C570.987,365.637,577.12,376.082,583.115,381.676Z" transform="translate(-242.561 7.702)" fill="#fce5c4"/><path d="M571.7,360.529a111.211,111.211,0,0,0,13.517,1.447Z" transform="translate(-242.561 7.702)" fill="#fce5c4"/><path d="M597.489,380.416c2.543,3.229,9.108,6.4,7.566,9.037-2.328,3.982-7.78,4.287-15.463,2.815-6.539-1.253-4.239-5.494-7.978-8.983-7.119-6.642-14.255-19.554-16.663-24.127-.85-.156-1.762-.295-2.672-.373,1.24,2.448,9.426,18.266,17.833,26.109a7.71,7.71,0,0,1,1.933,3.34c.852,2.314,1.913,5.195,7.133,6.2a41.008,41.008,0,0,0,7.559.852c4.206,0,8.1-1.088,10.218-4.718,1.95-3.336-1.571-6.181-4.4-8.467a22.993,22.993,0,0,1-3.337-3.042c-1.586-2.014-2.481-10.484-2.691-16.736-.734-.091-1.469-.153-2.2-.2C594.459,366.076,595.056,377.327,597.489,380.416Z" transform="translate(-242.561 7.702)" fill="#47280a"/><path d="M568.435,355.8l.317.072a103.5,103.5,0,0,0,21.34,2.2l-22.071-2.362Z" transform="translate(-242.561 7.702)" fill="#47280a"/><path d="M596.479,360.29a36.6,36.6,0,0,0-4.951-.234c-1.18.026-2.352.026-3.51.005l6.267.671s.008.522.038,1.39c.735.044,1.47.106,2.2.2-.019-.557-.034-1.1-.042-1.62Z" transform="translate(-242.561 7.702)" fill="#47280a"/><path d="M564.1,357.5l5.41.579c-.428-.087-.836-.174-1.2-.255-1.174-.267-2.78-.646-4.5-.886a4.03,4.03,0,0,1-1.683,1.549c.022.046.073.147.149.3.91.078,1.822.217,2.672.373C564.4,358.113,564.1,357.5,564.1,357.5Z" transform="translate(-242.561 7.702)" fill="#47280a"/><path d="M590.092,358.07a103.5,103.5,0,0,1-21.34-2.2l-.317-.072-.414-.094-3.645-.39a4.213,4.213,0,0,1-.187.834,4.113,4.113,0,0,1-.376.788c1.716.24,3.322.619,4.5.886.362.081.77.168,1.2.255l18.511,1.98c1.158.021,2.33.021,3.51-.005a36.6,36.6,0,0,1,4.951.234l-.023-1.539Z" transform="translate(-242.561 7.702)" fill="#47280a"/><path d="M585.221,361.976l6.913.74c.169,4.844.854,15.543,3.626,19.062a25.676,25.676,0,0,0,4.029,3.743,17.776,17.776,0,0,1,3.236,3.029c-1.645,2.483-5.682,2.962-13.019,1.556-2.777-.531-3.107-1.429-3.83-3.393a11.839,11.839,0,0,0-3.061-5.037c-5.995-5.594-12.128-16.039-15.14-21.546l3.729.4c-1.435-.246-2.734-.5-3.837-.752l-.321-.073c-.7-.16-1.605-.364-2.6-.546,2.408,4.573,9.544,17.485,16.663,24.127,3.739,3.489,1.439,7.73,7.978,8.983,7.683,1.472,13.135,1.167,15.463-2.815,1.542-2.638-5.023-5.808-7.566-9.037-2.433-3.089-3.03-14.34-3.166-18.294-.912-.055-1.827-.084-2.753-.066C589.443,362.105,587.31,362.07,585.221,361.976Z" transform="translate(-242.561 7.702)" fill="#47280a"/><path d="M564.1,357.5s.3.611.854,1.656c.99.182,1.893.386,2.6.546l.321.073c1.1.25,2.4.506,3.837.752l13.517,1.447c2.089.094,4.222.129,6.349.08.926-.018,1.841.011,2.753.066-.03-.868-.038-1.39-.038-1.39l-6.267-.671a106.687,106.687,0,0,1-18.511-1.98Z" transform="translate(-242.561 7.702)" fill="#47280a"/><path d="M588.018,360.061l-18.511-1.98A106.687,106.687,0,0,0,588.018,360.061Z" transform="translate(-242.561 7.702)" fill="#47280a"/><path d="M431,346.484a13.908,13.908,0,0,0,1.373.436c.63.174,1.213.361,1.749.533.467.15,1.057.339,1.463.431a14.834,14.834,0,0,0,.494-2.6,20.8,20.8,0,0,1,3.587-9.992c5.648-8.167,13.461-12.452,22.442-12.452a31.051,31.051,0,0,1,6.68.751c14.448,3.179,27.4,15.7,28.9,24.354a36.1,36.1,0,0,1,.5,4.382l14.131,4.53c.153-.239.3-.461.448-.649l3.477,2.7a9.522,9.522,0,0,0-.888,1.492l1.024-.047c4.407-9.1,9.961-14.164,16.509-15.066,9.937-1.374,18.822,7.565,21.509,10.584l2.431-.563a10.757,10.757,0,0,1,1.976-.458l.982-.227c-37.7-46.834-31.078-66.737-26.469-73.131a1.148,1.148,0,0,0,.133-.418c-2.936-1.041-9.014-3.188-9.9-3.46-3.046-.936-12.522-2.849-13.131-2.963-5.215-.8-14.188-.791-16.809-.772h-.175c-7.243-.119-18.544,3-19.2,3.188-4.234,1.455-16.755,5.857-16.881,5.9-.261.1-14.334,5.574-24.872,9.672-3.941,1.577-7.687,3.065-11.033,4.354C432.592,308.628,435.8,325.27,431,346.484Z" transform="translate(-242.561 7.702)" fill="#ea875c"/><path d="M496.9,361a1.482,1.482,0,0,0-.066.217c1.806-.063,7.781-.326,13.6-.588a27.491,27.491,0,0,1,1.89-3.767l-14.131-4.53A19.611,19.611,0,0,1,496.9,361Z" transform="translate(-242.561 7.702)" fill="#ea875c"/><path d="M512.879,360.517l2.484-.113a9.522,9.522,0,0,1,.888-1.492l-3.477-2.7c-.145.188-.295.41-.448.649l2.187.7A15.914,15.914,0,0,0,512.879,360.517Z" transform="translate(-242.561 7.702)" fill="#ea875c"/><path d="M512.879,360.517a15.914,15.914,0,0,1,1.634-2.955l-2.187-.7a27.491,27.491,0,0,0-1.89,3.767Z" transform="translate(-242.561 7.702)" fill="#ea875c"/><path d="M558.812,354.854a10.757,10.757,0,0,0-1.976.458Z" transform="translate(-242.561 7.702)" fill="#ea875c"/><path d="M421.412,296.951c.015.015.027.032.042.047,3.346-1.289,7.092-2.777,11.033-4.354Z" transform="translate(-242.561 7.702)" fill="#ea875c"/><path d="M477.465,271.929c14.612-2.936,32.4-5.1,59.185,5.909a3.277,3.277,0,0,0-1.125-.7c-.965-.343-9.458-3.358-10.673-3.731-3.336-1.024-13.381-3.048-13.7-3.1-5.6-.862-14.866-.853-17.571-.833h-.053c-8.282-.139-20.566,3.373-20.672,3.409-4.2,1.445-16.832,5.883-16.926,5.917-.071.023-.1.033-36.392,14.149a4.059,4.059,0,0,0-1.712,1.141c5.083-1.921,11.344-4.433,17.926-7.075C451.453,280.723,469.247,273.581,477.465,271.929Z" transform="translate(-242.561 7.702)" fill="#47280a"/><path d="M557.01,359.672c-.055.043-.094.1-.146.152l4.39-1.018c.084-.019.163-.049.245-.073A6.974,6.974,0,0,0,557.01,359.672Z" transform="translate(-242.561 7.702)" fill="#47280a"/><path d="M496.018,365.614v-.007c.08.005.189.008.349.008.9,0,3.406-.1,11.326-.456-5.39-.054-9.566.057-12.806.268.048.014.092.039.141.051Z" transform="translate(-242.561 7.702)" fill="#47280a"/><path d="M419.535,298.177a1.9,1.9,0,0,1-.261-.347q-1.077.407-2.08.777a4.129,4.129,0,0,0,.77,1.112c10.425,10.632,13.314,26.275,8.585,46.495a3.717,3.717,0,0,0-.092.826,13.337,13.337,0,0,1,2.015-.156c.072,0,.143.007.215.008a1.055,1.055,0,0,1,0-.177C430.86,337.447,435.29,314.243,419.535,298.177Z" transform="translate(-242.561 7.702)" fill="#47280a"/><path d="M561.788,353.593a1.885,1.885,0,0,1,.413,1.175c.749.049,1.491.13,2.206.237a4.1,4.1,0,0,0-.907-2.8c-37.12-45.976-29.748-63.779-26.6-68.14a5.1,5.1,0,0,0,.714-1.486l-.376-.162c-.562-.242-1.114-.469-1.669-.7a3.045,3.045,0,0,1-.455,1.06C531.062,288.4,524.389,307.272,561.788,353.593Z" transform="translate(-242.561 7.702)" fill="#47280a"/><path d="M440.446,345.876a16.5,16.5,0,0,1,2.844-8.076c7.594-10.983,17.544-11.451,24.556-9.906,13.208,2.906,24.4,14.446,25.508,20.807.135.776.235,1.5.309,2.177l2.281.731c-.079-1-.214-2.088-.421-3.284-2.3-13.23-35.988-37.889-54.043-11.777-3.776,5.461-2.737,9.51-3.961,12.474a2.117,2.117,0,0,1-.426.676,14.038,14.038,0,0,1,1.764,1.351,4.685,4.685,0,0,0,.7-1.186A15.687,15.687,0,0,0,440.446,345.876Z" transform="translate(-242.561 7.702)" fill="#47280a"/><path d="M518.3,361.461a1.6,1.6,0,0,1-.095.147,11.2,11.2,0,0,1,2.13.7c3.728-7.71,8.156-11.972,13.163-12.661,7.92-1.084,15.574,6.824,17.732,9.276a4.092,4.092,0,0,0,1.044.841,7.1,7.1,0,0,1,1.013-1.952,1.887,1.887,0,0,1-.4-.344C549.087,353.163,531.058,334.92,518.3,361.461Z" transform="translate(-242.561 7.702)" fill="#47280a"/><path d="M492.812,359.376a6.321,6.321,0,0,0-.416,2.263q1.051-.1,2.205-.185a4.024,4.024,0,0,1,.257-1.266,18.193,18.193,0,0,0,1.086-8.579l-2.281-.731A16.724,16.724,0,0,1,492.812,359.376Z" transform="translate(-242.561 7.702)" fill="#47280a"/><path d="M562.127,358.483l-.879-1.765c-.247-.006-.493,0-.738,0l-4.077.945a4.847,4.847,0,0,0-2.228,2.644,4.033,4.033,0,0,0,.993-.1l1.666-.386c.052-.048.091-.109.146-.152a6.974,6.974,0,0,1,4.489-.939,4.04,4.04,0,0,0,.631-.244Z" transform="translate(-242.561 7.702)" fill="#47280a"/><path d="M427.113,348.951c1.082,1.377,3.2,1.966,4.1,2.213.566.156,1.09.325,1.571.479a8.2,8.2,0,0,0,4.319.536,11.8,11.8,0,0,0-1.352-.976A13.15,13.15,0,0,0,427.113,348.951Z" transform="translate(-242.561 7.702)" fill="#47280a"/><path d="M514.091,363.284c-.207.516-.415,1.055-.624,1.613l3.427-.157a4.046,4.046,0,0,0,2.138-.813,8.441,8.441,0,0,0-2.713-.57C515.64,363.333,514.889,363.309,514.091,363.284Z" transform="translate(-242.561 7.702)" fill="#47280a"/><path d="M416.8,296.618c.839-.31,1.708-.636,2.619-.984a1.841,1.841,0,0,1,.87-.609s36.291-14.114,36.338-14.129l.944-.332c5.989-2.278,11.464-4.235,15.738-5.5l.263-.09c.02-.007.461-.133,1.217-.333.829-.228,1.6-.423,2.311-.583,4.166-1.006,11.184-2.47,16.387-2.374h.021a81.866,81.866,0,0,1,16.646.711c.226.03.448.062.664.1l.2.038A97.263,97.263,0,0,1,523.1,275.2c.419.112.792.217,1.1.313.121.037.34.11.606.2q4.439,1.353,9.272,3.252l.705.25a1.128,1.128,0,0,1,.138.083q1.447.582,2.93,1.215a4.654,4.654,0,0,0-.192-1.074,3.622,3.622,0,0,0-1.014-1.6c-26.782-11.012-44.573-8.845-59.185-5.909-8.218,1.652-26.012,8.794-41.711,15.094-6.582,2.642-12.843,5.154-17.926,7.075a4.1,4.1,0,0,0-.92,1.757A4.171,4.171,0,0,0,416.8,296.618Z" transform="translate(-242.561 7.702)" fill="#47280a"/><path d="M496.287,363.429l-.5-.061c-1.024.061-2.022.137-2.987.229.026.055.043.112.071.166a3.273,3.273,0,0,0,2.019,1.664c3.24-.211,7.416-.322,12.806-.268l1-.045c.235-.66.475-1.31.717-1.945-1.816-.032-3.745-.049-5.711-.038C499.724,363.3,496.361,363.447,496.287,363.429Z" transform="translate(-242.561 7.702)" fill="#47280a"/><path d="M511.75,363.219q-.339.867-.674,1.787l2.391-.109c.209-.558.417-1.1.624-1.613C513.353,363.262,512.57,363.239,511.75,363.219Z" transform="translate(-242.561 7.702)" fill="#47280a"/><path d="M509.412,363.169c-.242.635-.482,1.285-.717,1.945l2.381-.108q.335-.918.674-1.787C511,363.2,510.217,363.184,509.412,363.169Z" transform="translate(-242.561 7.702)" fill="#47280a"/><path d="M520.282,362.415l.051-.1a11.2,11.2,0,0,0-2.13-.7,1.873,1.873,0,0,1-1.466.937l-2.389.109q-.128.308-.257.63c.8.025,1.549.049,2.228.073a8.441,8.441,0,0,1,2.713.57A4.128,4.128,0,0,0,520.282,362.415Z" transform="translate(-242.561 7.702)" fill="#47280a"/><path d="M560.757,356.662l-.247.057c.245-.005.491-.007.738,0l-.1-.2A1.836,1.836,0,0,1,560.757,356.662Z" transform="translate(-242.561 7.702)" fill="#47280a"/><path d="M553.285,357.817a7.1,7.1,0,0,0-1.013,1.952,4.041,4.041,0,0,0,1.933.539,4.847,4.847,0,0,1,2.228-2.644l-1.732.4A1.85,1.85,0,0,1,553.285,357.817Z" transform="translate(-242.561 7.702)" fill="#47280a"/><path d="M457.573,280.564c2.945-1.035,12.014-4.218,15.738-5.5C469.037,276.329,463.562,278.286,457.573,280.564Z" transform="translate(-242.561 7.702)" fill="#47280a"/><path d="M524.811,275.713c1.956.661,7.348,2.57,9.272,3.252Q529.247,277.057,524.811,275.713Z" transform="translate(-242.561 7.702)" fill="#47280a"/><path d="M474.791,274.64c.593-.156,1.382-.358,2.311-.583C476.392,274.217,475.62,274.412,474.791,274.64Z" transform="translate(-242.561 7.702)" fill="#47280a"/><path d="M511.015,272.527c1.257.249,8.43,1.7,12.086,2.674A97.263,97.263,0,0,0,511.015,272.527Z" transform="translate(-242.561 7.702)" fill="#47280a"/><path d="M510.156,272.394a81.866,81.866,0,0,0-16.646-.711A146.868,146.868,0,0,1,510.156,272.394Z" transform="translate(-242.561 7.702)" fill="#47280a"/><path d="M562.2,354.768a1.85,1.85,0,0,1-.018.316l2.193.234c.014-.1.025-.209.031-.313C563.692,354.9,562.95,354.817,562.2,354.768Z" transform="translate(-242.561 7.702)" fill="#47280a"/><path d="M535.565,281.723c.555.23,1.107.457,1.669.7l.376.162a5.8,5.8,0,0,0,.246-2.071q-1.485-.636-2.93-1.215C535.65,279.679,535.8,280.762,535.565,281.723Z" transform="translate(-242.561 7.702)" fill="#47280a"/><path d="M438.857,351.049a14.038,14.038,0,0,0-1.764-1.351c-.969,1.006-2.706.059-5.3-.656-1.278-.352-3.206-.91-3.106-2.15-.072,0-.143-.008-.215-.008a13.337,13.337,0,0,0-2.015.156,2.973,2.973,0,0,0,.656,1.911,13.15,13.15,0,0,1,8.634,2.252,11.8,11.8,0,0,1,1.352.976A3.262,3.262,0,0,0,438.857,351.049Z" transform="translate(-242.561 7.702)" fill="#47280a"/><path d="M419.274,297.83a1.92,1.92,0,0,1,.147-2.2c-.911.348-1.78.674-2.619.984a4.067,4.067,0,0,0,.392,1.989Q418.2,298.236,419.274,297.83Z" transform="translate(-242.561 7.702)" fill="#47280a"/><path d="M494.6,361.454q-1.154.081-2.205.185a4.684,4.684,0,0,0,.4,1.958c.965-.092,1.963-.168,2.987-.229l-.243-.03C494.8,363.161,494.561,362.318,494.6,361.454Z" transform="translate(-242.561 7.702)" fill="#47280a"/><path d="M503.7,363.131c1.966-.011,3.9.006,5.711.038.038-.1.077-.2.115-.3Z" transform="translate(-242.561 7.702)" fill="#47280a"/><path d="M511.75,363.219c.82.02,1.6.043,2.341.065q.129-.322.257-.63l-2.419.109C511.869,362.913,511.81,363.066,511.75,363.219Z" transform="translate(-242.561 7.702)" fill="#47280a"/><path d="M509.527,362.872c-.038.1-.077.2-.115.3.805.015,1.586.031,2.338.05.06-.153.119-.306.179-.456Z" transform="translate(-242.561 7.702)" fill="#47280a"/><path d="M562.127,358.483l0,.006a4.03,4.03,0,0,0,1.683-1.549,22.564,22.564,0,0,0-2.565-.222Z" transform="translate(-242.561 7.702)" fill="#47280a"/><path d="M564.376,355.318l-2.193-.234a1.887,1.887,0,0,1-1.036,1.431l.1.2a22.564,22.564,0,0,1,2.565.222,4.113,4.113,0,0,0,.376-.788A4.213,4.213,0,0,0,564.376,355.318Z" transform="translate(-242.561 7.702)" fill="#47280a"/><path d="M532.9,345.291c-6.548.9-12.1,5.97-16.509,15.066l-1.024.047c-.14.278-.285.583-.432.906.482.015.963.03,1.456.047a9.867,9.867,0,0,1,1.816.251,1.6,1.6,0,0,0,.095-.147c12.76-26.541,30.789-8.3,34.582-3.988a1.887,1.887,0,0,0,.4.344,6.79,6.79,0,0,1,1.254-1.293,7.68,7.68,0,0,1,2.3-1.212l-2.431.563C551.718,352.856,542.833,343.917,532.9,345.291Z" transform="translate(-242.561 7.702)" fill="#47280a"/><path d="M441.48,336.548c18.055-26.112,51.748-1.453,54.043,11.777.207,1.2.342,2.284.421,3.284l2.251.722a36.1,36.1,0,0,0-.5-4.382c-1.5-8.651-14.451-21.175-28.9-24.354a31.051,31.051,0,0,0-6.68-.751c-8.981,0-16.794,4.285-22.442,12.452a20.8,20.8,0,0,0-3.587,9.992,14.834,14.834,0,0,1-.494,2.6c-.406-.092-1-.281-1.463-.431-.536-.172-1.119-.359-1.749-.533a13.908,13.908,0,0,1-1.373-.436c4.8-21.214,1.588-37.856-9.55-49.486q-1.122.432-2.18.832a1.9,1.9,0,0,0,.261.347c15.755,16.066,11.325,39.27,9.157,48.538a1.055,1.055,0,0,0,0,.177,15.89,15.89,0,0,1,8.1,2.6c.1.063.2.136.3.2a2.117,2.117,0,0,0,.426-.676C438.743,346.058,437.7,342.009,441.48,336.548Z" transform="translate(-242.561 7.702)" fill="#47280a"/><path d="M474.24,277.071c.66-.187,11.961-3.307,19.2-3.188h.175c2.621-.019,11.594-.029,16.809.772.609.114,10.085,2.027,13.131,2.963.885.272,6.963,2.419,9.9,3.46a1.148,1.148,0,0,1-.133.418c-4.609,6.394-11.233,26.3,26.469,73.131l-.982.227a16.95,16.95,0,0,1,3.389-.086,1.885,1.885,0,0,0-.413-1.175c-37.4-46.321-30.726-65.194-26.678-70.81a3.045,3.045,0,0,0,.455-1.06c-26-10.79-43.2-8.706-57.312-5.87-7.856,1.579-25.469,8.647-41.009,14.884l-4.757,1.907c10.538-4.1,24.611-9.572,24.872-9.672C457.485,282.928,470.006,278.526,474.24,277.071Zm86.02,77.448h0Zm-26.2-73.227-.006,0Z" transform="translate(-242.561 7.702)" fill="#47280a"/><path d="M494.858,360.188a4.024,4.024,0,0,0-.257,1.266c4.163-.3,9.322-.378,15.6-.262q.12-.286.238-.564c-5.817.262-11.792.525-13.6.588A1.482,1.482,0,0,1,496.9,361a19.611,19.611,0,0,0,1.291-8.668l-2.251-.722A18.193,18.193,0,0,1,494.858,360.188Z" transform="translate(-242.561 7.702)" fill="#47280a"/><path d="M512.557,361.243c.774.019,1.568.042,2.374.067.147-.323.292-.628.432-.906l-2.484.113Q512.718,360.868,512.557,361.243Z" transform="translate(-242.561 7.702)" fill="#47280a"/><path d="M510.436,360.628q-.119.277-.238.564c.771.014,1.555.031,2.359.051q.162-.375.322-.726Z" transform="translate(-242.561 7.702)" fill="#47280a"/><path d="M493.51,271.683h-.021c-5.2-.1-12.221,1.368-16.387,2.374.256-.057.518-.118.757-.166A110.584,110.584,0,0,1,493.51,271.683Z" transform="translate(-242.561 7.702)" fill="#47280a"/><path d="M524.205,275.514c-.312-.1-.685-.2-1.1-.313.563.162,1.137.337,1.71.512C524.545,275.624,524.326,275.551,524.205,275.514Z" transform="translate(-242.561 7.702)" fill="#47280a"/><path d="M473.574,274.973l-.263.09q.766-.227,1.48-.423C474.035,274.84,473.594,274.966,473.574,274.973Z" transform="translate(-242.561 7.702)" fill="#47280a"/><path d="M534.788,279.215l-.705-.25c.281.111.56.219.843.333A1.128,1.128,0,0,0,534.788,279.215Z" transform="translate(-242.561 7.702)" fill="#47280a"/><path d="M510.82,272.489c-.216-.033-.438-.065-.664-.1.283.04.573.089.859.133Z" transform="translate(-242.561 7.702)" fill="#47280a"/><path d="M456.629,280.9c-.047.015-36.338,14.129-36.338,14.129a1.841,1.841,0,0,0-.87.609c10.478-3.994,25.446-10.238,38.152-15.07Z" transform="translate(-242.561 7.702)" fill="#47280a"/><path d="M560.51,356.719a8.731,8.731,0,0,0-4.077.945Z" transform="translate(-242.561 7.702)" fill="#47280a"/><path d="M496.287,363.429c.074.018,3.437-.124,7.414-.3-2.647.015-5.353.083-7.916.237Z" transform="translate(-242.561 7.702)" fill="#47280a"/><path d="M561.147,356.515l-.811-1.629,1.847.2a1.85,1.85,0,0,0,.018-.316,16.95,16.95,0,0,0-3.389.086l-1.976.458a7.68,7.68,0,0,0-2.3,1.212,6.79,6.79,0,0,0-1.254,1.293,1.85,1.85,0,0,0,1.416.249l1.732-.4a8.731,8.731,0,0,1,4.077-.945l.247-.057A1.836,1.836,0,0,0,561.147,356.515Z" transform="translate(-242.561 7.702)" fill="#47280a"/><path d="M428.687,346.892c-.1,1.24,1.828,1.8,3.106,2.15,2.594.715,4.331,1.662,5.3.656-.1-.066-.2-.139-.3-.2A15.89,15.89,0,0,0,428.687,346.892Z" transform="translate(-242.561 7.702)" fill="#47280a"/><path d="M419.274,297.83q1.061-.4,2.18-.832c-.015-.015-.027-.032-.042-.047l11.075-4.307,4.757-1.907c15.54-6.237,33.153-13.3,41.009-14.884,14.111-2.836,31.314-4.92,57.312,5.87.231-.961.085-2.044-.639-2.425-.283-.114-.562-.222-.843-.333-1.924-.682-7.316-2.591-9.272-3.252-.573-.175-1.147-.35-1.71-.512-3.656-.97-10.829-2.425-12.086-2.674-.286-.044-.576-.093-.859-.133a146.868,146.868,0,0,0-16.646-.711,110.584,110.584,0,0,0-15.651,2.208c-.239.048-.5.109-.757.166-.929.225-1.718.427-2.311.583q-.714.2-1.48.423c-3.724,1.283-12.793,4.466-15.738,5.5-12.706,4.832-27.674,11.076-38.152,15.07A1.92,1.92,0,0,0,419.274,297.83Z" transform="translate(-242.561 7.702)" fill="#47280a"/><path d="M514.931,361.31q-.285.625-.583,1.344l2.389-.109a1.873,1.873,0,0,0,1.466-.937,9.867,9.867,0,0,0-1.816-.251C515.894,361.34,515.413,361.325,514.931,361.31Z" transform="translate(-242.561 7.702)" fill="#47280a"/><path d="M494.6,361.454c-.04.864.2,1.707.941,1.884l.243.03c2.563-.154,5.269-.222,7.916-.237l5.826-.259c.223-.578.447-1.14.671-1.68C503.923,361.076,498.764,361.159,494.6,361.454Z" transform="translate(-242.561 7.702)" fill="#47280a"/><path d="M512.557,361.243c-.208.482-.418.991-.628,1.52l2.419-.109q.3-.717.583-1.344C514.125,361.285,513.331,361.262,512.557,361.243Z" transform="translate(-242.561 7.702)" fill="#47280a"/><path d="M509.527,362.872l2.4-.109c.21-.529.42-1.038.628-1.52-.8-.02-1.588-.037-2.359-.051C509.974,361.732,509.75,362.294,509.527,362.872Z" transform="translate(-242.561 7.702)" fill="#47280a"/><path d="M561.147,356.515a1.887,1.887,0,0,0,1.036-1.431l-1.847-.2Z" transform="translate(-242.561 7.702)" fill="#47280a"/><path d="M493.446,423.8a2.23,2.23,0,0,0,2.023,2.019,1.286,1.286,0,0,0,.559,0c2.953-.785,4.936.618,6.832,2.707,2.486,2.739,5.225,5.246,7.8,7.909a1.9,1.9,0,0,1,.41,1.529c-1.4,5.374,1.6,10.526,6.854,11.653a9.105,9.105,0,0,0,11.008-7.789c.155-1.053.664-1.717,1.628-1.8,1.049-.088,1.625.577,1.957,1.622a9.156,9.156,0,0,0,17.844-1.3,8.577,8.577,0,0,0-2.342-7.515q-5.988-6.139-12.118-12.141c-2.571-2.515-5.781-2.393-8.981-1.716a2.017,2.017,0,0,0-1.5,2.4,2.228,2.228,0,0,0,1.991,2.05,1.6,1.6,0,0,0,.7-.005c2.829-.722,4.838.488,6.6,2.6,1.164,1.4,2.552,2.6,4.039,4.1a9.559,9.559,0,0,0-5.921,5.22l-5.081.378c-4.191-4.833-8.391-5.654-13.5-2.433-.311-.289-.656-.59-.979-.912-2.987-2.979-6-5.937-8.947-8.951-2.66-2.715-5.91-2.773-9.282-2.1A2.039,2.039,0,0,0,493.446,423.8ZM536.7,439.321a4.559,4.559,0,1,1,4.847,4.265A4.649,4.649,0,0,1,536.7,439.321ZM515.342,441a4.543,4.543,0,1,1,4.916,4.161A4.606,4.606,0,0,1,515.342,441Z" transform="translate(-242.561 7.702)" fill="#057faf" stroke="#47280a" stroke-miterlimit="10" stroke-width="3"/><path d="M580.627,435.5q-7.514,0-15.028,0c-3.7,0-4.043-.513-2.573-3.812,3.249-7.289,6.518-14.57,9.729-21.875a7.673,7.673,0,0,0,.693-2.9c.065-5.347-.005-10.7.052-16.043a2.773,2.773,0,0,0-1.89-2.957c-1.3-.56-3.2-1.145-2.72-2.926.172-.638.954-1.06,3.5-1.06,5.548-.11,11.1-.055,16.651-.04a9.525,9.525,0,0,1,2.416.2c1.208.323,1.519,1.2.67,2.128a5.862,5.862,0,0,1-2.289,1.615c-1.752.6-2.125,1.752-2.1,3.435.075,5.143-.01,10.289.06,15.433a8.226,8.226,0,0,0,.693,3.1c3.281,7.5,6.634,14.961,9.953,22.441,1.144,2.577.7,3.25-2.179,3.257C591.052,435.51,585.84,435.5,580.627,435.5Zm-3.685-32.013c1.135,5.7-2.09,10.089-4.064,14.837-1.478,3.556-3.126,7.041-4.677,10.567-1.021,2.322-.618,2.976,1.839,2.98q10.551.016,21.1,0c2.488,0,2.924-.661,1.921-2.926-2.023-4.573-4.013-9.163-6.127-13.694-1.693-3.629-3.369-7.227-2.866-11.4.012-.1-.129-.216-.227-.368Z" transform="translate(-242.561 7.702)" fill="#fff" stroke="#47280a" stroke-miterlimit="10" stroke-width="3"/><path d="M576.942,403.488c2.53,0,7.142-.1,7.13,0-.5,4.169,1.173,8.134,2.866,11.763,2.114,4.531,4.1,9.121,6.127,13.694,1,2.265.567,2.923-1.921,2.926q-10.552.014-21.1,0c-2.457,0-2.86-.658-1.839-2.98,1.551-3.526,3.2-7.011,4.677-10.567C574.852,413.577,578.077,409.187,576.942,403.488Z" transform="translate(-242.561 7.702)" fill="#057faf" stroke="#47280a" stroke-miterlimit="10" stroke-width="3"/></g></svg>