<svg xmlns="http://www.w3.org/2000/svg" width="322.58" height="322.58" viewBox="0 0 322.58 322.58"><g transform="translate(-1192.899 -211)"><circle cx="161.29" cy="161.29" r="161.29" transform="translate(1192.899 211)" fill="#f4f5f3"/><circle cx="149.551" cy="149.551" r="149.551" transform="translate(1203.959 222.739)" fill="#e3f1f0"/><path d="M1454.7,344.831l7.9,31.707-8.762,38.08-5.664,5.353-.4,4.145,9.188.7,20.112-28.583-.146-14.911-5.135-22-2.343-10.526Z" transform="translate(-177.843 18.926)" fill="#c7b299"/><path d="M1453.1,426.3c-2.857,0-6.088-.644-7.669-2.087a4.921,4.921,0,0,1-.936-5.482,7.069,7.069,0,0,1,6.776-4.347c.893-.6,3.107-4.6,5.563-16a156.438,156.438,0,0,0,3.172-21.131c.337-7.868-6.894-28.194-6.967-28.4a2.02,2.02,0,1,1,3.8-1.359c.309.864,7.569,21.282,7.2,29.931a161.137,161.137,0,0,1-3.525,23.021c-3.545,15.829-6.585,17.972-9.092,17.972h-.017a3.145,3.145,0,0,0-3.016,1.489,1.663,1.663,0,0,0-.21,1.346c1.178,1.071,6.4,1.271,7.6.685,13.23-7.831,19.081-33.041,18.9-38.066a2.019,2.019,0,1,1,4.036-.146c.214,5.889-5.761,32.741-20.9,41.7A10.312,10.312,0,0,1,1453.1,426.3Z" transform="translate(-177.843 18.926)" fill="#47280a"/><path d="M1546.488,375.2l5.951,26.365-9.41,10.833-12.037,2.954.109,4.815,14.909,2.255,26.938-23.843-10.284-13.117Z" transform="translate(-177.843 18.926)" fill="#c7b299"/><path d="M1614.836,347.39s22.627.652,25.915,21.816c4.654,29.954,2.49,29.882,7.826,36.285s4.269,27.392-9.6,24.546-19.643-8.142-25.335-27.352,2.548-35.9-2.432-38.039S1614.836,347.39,1614.836,347.39Z" transform="translate(-177.843 18.926)" fill="#c7b299"/><path d="M1634.021,356.8c-3.507,10.5-15.6,21.707-22.072,26.243-2.813,1.97.6,10.184.6,10.184,9.575-2.591,26.936-28.477,26.936-28.477S1635.67,351.862,1634.021,356.8Z" transform="translate(-177.843 18.926)" fill="#736357"/><path d="M1643.624,398.421c-3.506,10.5-11.7,18.188-19.467,20.486-3.293.974,2.843,9.44,7.1,8.287,9.575-2.592,17.833-21.289,17.833-21.289Z" transform="translate(-177.843 18.926)" fill="#736357"/><path d="M1640.489,372.621c-3.506,10.5-19.2,29.6-26.974,31.893,0,0-.034,9.824,4.275,8.877,13.277-2.918,24.45-26.618,24.45-26.618S1642.138,367.683,1640.489,372.621Z" transform="translate(-177.843 18.926)" fill="#736357"/><path d="M1640.11,431.127a15.156,15.156,0,0,1-3.053-.315c-13.089-2.685-21.509-11.448-25.027-26.045-2.586-10.731-1.353-22.093-.452-30.39.484-4.451,1.146-10.549.207-11.458a4.47,4.47,0,0,1-2.38-2.555c-2.087-5.244,2.781-17.01,3.778-19.315l.814-1.88,1.868.839c.98.441,24.025,10.981,27.441,28.447a148.687,148.687,0,0,1,2.344,20.092c.515,8.012.827,12.849,4.137,15.327,5.186,3.882,6.657,11.374,3.58,18.219C1650.8,427.8,1645.789,431.127,1640.11,431.127Zm-24.026-86.5c-1.971,5.068-3.878,11.855-2.926,14.247.121.3.224.346.258.361,3.7,1.584,3.093,7.153,2.178,15.582-.869,8-2.058,18.96.364,29.007,3.162,13.124,10.329,20.659,21.911,23.035,6.027,1.239,10.055-2.505,11.814-6.418,1.938-4.311,1.765-10.274-2.316-13.329-4.8-3.594-5.2-9.764-5.747-18.3a145.32,145.32,0,0,0-2.279-19.575C1636.848,356.483,1621.487,347.443,1616.084,344.623Z" transform="translate(-177.843 18.926)" fill="#47280a"/><path d="M1464.828,288.584c1.068-2.846,13.355-14.69,15.473-14.244,2.55.537,4.625,14.754,4.625,14.754s18.364-7.72,65.69-3.593c39.847,3.476,52.2,16.838,60.538,23.131,7.5,5.662,12.539,11.476,15.385,24.994s-8.548,39.48-29.708,53.723c-3.365,2.264-6.4,14.229-3.557,24.9s-4.3,16.9-7.5,19.751-13.863-1.651-17.776-2.363.3-6.2,1.367-6.554,2.866-.131,5.712-.842.863-4.588,2.381-7.6c3.334-6.619-13.966-29.532-20.726-34.156s-47.06-18.392-56.309,3.664-9.763,19.871-17.928,32.333c-6.759,10.316-18,9.644-21.2,9.288-2.828-.314-4.419-5.37-1-7.274,4.372-2.436,6.693-3.042,7.405-4.821,1.308-3.269,1.423-8.182-2.135-28.815a120.434,120.434,0,0,0-12.516-36.091c-50.335-.438-28.216-41.638-28.216-41.638s-6.327-16.165-3.7-18.354c2.287-1.9,18.287,5.644,19,5.192C1455.491,284.207,1464.828,288.584,1464.828,288.584Z" transform="translate(-177.843 18.926)" fill="#c7b299"/><path d="M1445.838,307.333c2.878,1.643,4.595,5.821,3.965,9.775-.349,2.2-2.637,6.391-4.776,8.836-5.164,5.9-11.8,6.639-14.312,4.812-3.773-2.747-5.949-12.048.983-20.6C1436.382,304.387,1442.171,305.24,1445.838,307.333Z" transform="translate(-177.843 18.926)" fill="#736357"/><path d="M1464.533,304.363c-1.825,2.692-1.757,7.169.583,10.317a22.1,22.1,0,0,0,9.09,6.122c4.8,1.5,11.306,1.515,13.53-2.032,3.021-4.817-.4-14.442-8.595-17.909C1472.434,298.023,1467.185,300.45,1464.533,304.363Z" transform="translate(-177.843 18.926)" fill="#736357"/><path d="M1541.822,424.446a26.34,26.34,0,0,1-10.863-2.57,4.485,4.485,0,0,1-2.416-5.08c.381-1.709,2.318-5.638,12.02-5.638l.448,0c2.071-.077,9.261-7.28,10.093-9.285.5-5.147-6-20.8-8.571-26.438l3.675-1.675c1,2.2,9.758,21.667,8.893,28.721-.327,2.666-9.545,12.716-14.1,12.716h-.038c-6.237-.092-8.269,1.581-8.475,2.469a.5.5,0,0,0,.144.53c5.755,2.616,11.1,2.907,15.453.842,4.81-2.283,18.507-16.532,23.378-21.83l2.974,2.734c-1.848,2.009-18.231,19.713-24.621,22.745A18.474,18.474,0,0,1,1541.822,424.446Zm9.308-22.634Z" transform="translate(-177.843 18.926)" fill="#47280a"/><path d="M1454.061,350.2c-1.343,0-1.646-.254-1.984-.539a2.02,2.02,0,0,1,1.8-3.5,47.416,47.416,0,0,0,7.637-.912c4.934-.8,29.849-5.5,35.8-19.375,3.13-7.29-3.937-19.67-6.924-23.825a2.02,2.02,0,0,1,3.278-2.361c.494.685,12.029,16.9,7.359,27.78-6.617,15.418-31.424,20.56-38.869,21.769A58.925,58.925,0,0,1,1454.061,350.2Zm.611-3.634Zm0,0Zm0,0h0Zm0,0Zm0,0Z" transform="translate(-177.843 18.926)" fill="#47280a"/><path d="M1501.964,381.217s15.123-11.706,25.518-8.971,26.053,3.411,29.253,8.237c.775,1.167,9.713,10.2,9.713,10.2s7.574-27.654-26.61-31.271C1500.492,355.246,1501.964,381.217,1501.964,381.217Z" transform="translate(-177.843 18.926)" fill="#fff"/><path d="M1576.378,433.353a55.252,55.252,0,0,1-8.18-.55,5.118,5.118,0,0,1-4.247-5.43,6.894,6.894,0,0,1,6.417-6.569c.372-.044.726-.054,1.1-.064a10.947,10.947,0,0,0,3.794-.676c.458-.347,1.07-2.971.526-6.9-3-21.652-23.992-33.6-24.884-34.1-5.217-2.914-24.864-7.613-37.632-3.119-5.01,1.765-8.408,4.778-10.1,8.958-7.87,19.447-10.968,24.858-19.5,34.056-8.423,9.084-17.1,8.91-20.808,8.838-.259-.005-.495-.01-.707-.011a5.615,5.615,0,0,1-5.839-5c-.413-3.045,1.2-6.91,4.535-7.848a8.039,8.039,0,0,0,5.141-3.966c2.614-4.732,2.11-13.325-1.5-25.542-4.917-16.653-10.729-31.089-12.468-35.293-15.8-.027-26.221-4.131-30.981-12.209-6.716-11.4.244-26.676,2.351-30.776-3.088-5.6-8.353-16.752-3.394-20.057,3.663-2.442,10.737.349,18.281,3.684.846.374,1.773.784,2.368,1.021,11.821-7.279,19.917-6.714,23.349-5.92,2.964-4.69,11.768-15.2,17.317-13.982.956.212,3.775.839,6.5,15.945,7.48-2.249,32.734-8.38,72.6-3.319,18.3,2.324,34.524,8.618,46.924,18.2,11.54,8.922,18.88,20.1,20.668,31.482,4.385,27.923-17.443,45.245-25.66,51.767a30.891,30.891,0,0,0-2.977,2.515c-4.009,5.934-4.324,9.679-3.377,20.391.957,10.821-2.812,18.329-6.658,21.748C1586.93,432.769,1581.314,433.353,1576.378,433.353Zm-50.5-63.288c11.38,0,22.9,3.186,27,5.473.964.539,23.643,13.452,26.915,37.073.314,2.271,1.014,9.794-3.193,11.266a15.006,15.006,0,0,1-5.018.9c-.271.008-.514.011-.739.038a2.9,2.9,0,0,0-2.851,2.673,1.152,1.152,0,0,0,.91,1.336c4.621.813,15.525.766,17.755-1.216,3.111-2.765,6.142-9.045,5.318-18.373-1.014-11.469-.586-16.141,4.061-23.018.541-.8,1.558-1.623,3.806-3.408,8.439-6.7,28.2-22.38,24.18-47.975-1.627-10.357-8.427-20.625-19.148-28.913-11.829-9.143-27.377-15.157-44.963-17.39-46-5.842-72.717,3.753-72.982,3.849a2.02,2.02,0,0,1-2.694-1.568c-1.012-6.183-2.84-13.475-4.045-15h-.006c-3.164,0-12.186,10.175-13.315,13.188a2.02,2.02,0,0,1-2.737,1.125c-.159-.069-8.065-3.333-22.042,5.546-1.115.709-1.946.342-5.429-1.2-3.04-1.343-12.286-5.432-14.408-4.017-1.216.81.95,8.2,5.211,15.673a2.02,2.02,0,0,1,0,2c-.094.165-9.4,16.786-2.923,27.757,4.111,6.961,13.815,10.4,28.812,10.2h.026a2.019,2.019,0,0,1,1.856,1.225,379.22,379.22,0,0,1,13.144,36.972c3.979,13.478,4.359,22.846,1.159,28.638a12.054,12.054,0,0,1-7.583,5.9c-1.016.285-1.821,1.977-1.626,3.415.141,1.037.712,1.5,1.853,1.506.231,0,.489.006.77.012,3.441.072,10.575.211,17.766-7.546,8.1-8.741,11.078-13.956,18.714-32.824,2.145-5.3,6.352-9.087,12.5-11.253A42.566,42.566,0,0,1,1525.877,370.065Z" transform="translate(-177.843 18.926)" fill="#47280a"/><path d="M1424.336,292.793c-.547,1.568,3.671,10.472,4.985,11.055,1.081.481,1.623-.948,3.811-2.918,1.247-1.122,2.69-2.271,2.955-3.264C1436.829,294.88,1424.836,291.36,1424.336,292.793Z" transform="translate(-177.843 18.926)" fill="#47280a"/><path d="M1478.571,280.265c-1.17-.13-7.731,7.63-7.87,10-.146,2.48,9.066,3.165,9.374,1.933C1480.658,289.86,1479.555,280.374,1478.571,280.265Z" transform="translate(-177.843 18.926)" fill="#47280a"/><path d="M1438.989,319.11a3.324,3.324,0,1,1,1.995-.666h0A3.309,3.309,0,0,1,1438.989,319.11Zm.891-2.134h0Zm-1.1-1.467a.346.346,0,0,0-.069.485.346.346,0,0,0,.484.068h0Zm.208-.07a.344.344,0,0,0-.208.069l.416.553a.346.346,0,0,0,.068-.484A.345.345,0,0,0,1438.985,315.439Z" transform="translate(-177.843 18.926)" fill="#47280a"/><path d="M1472.319,311.849a3.217,3.217,0,0,1-1.941-5.789,3.218,3.218,0,1,1,1.941,5.789Zm-.458-3.281a.455.455,0,1,0,.515-.387.45.45,0,0,0-.338.087.464.464,0,0,0-.177.3Z" transform="translate(-177.843 18.926)" fill="#47280a"/><path d="M1447.684,341.655c3.536,2.375,7.91,2.224,14,1.137,7.945-1.418,12.972-4.829,12.946-8.585-.051-7.688-10.768-14.647-16.957-13.318C1448.961,322.761,1442.786,338.364,1447.684,341.655Z" transform="translate(-177.843 18.926)" fill="#fff"/><ellipse cx="5.639" cy="3.877" rx="5.639" ry="3.877" transform="translate(1273.977 346.908) rotate(-12.558)" fill="#47280a"/><path d="M1557.278,444.615l-.108.01c.064-.775.106-1.556.108-2.347a28.739,28.739,0,0,0-6.962-18.826c.037-.012.068-.027.107-.037a29.315,29.315,0,0,0-10.935-7.945c0,.037,0,.068,0,.1a28.567,28.567,0,0,0-10.984-2.2,28.88,28.88,0,0,0-11.184,2.224c0-.04-.005-.074,0-.116a29.352,29.352,0,0,0-10.894,7.954c.035.008.062.021.1.03a28.746,28.746,0,0,0-6.941,18.749c0,.837.042,1.664.111,2.484-.072.08-.094.225-.069.472a28.291,28.291,0,0,0,4.136,12.193c.02-.032.04-.06.059-.091a28.928,28.928,0,0,0,17.95,13.015c-.022.029-.042.058-.066.088a28.283,28.283,0,0,0,13.493-.013c-.024-.028-.044-.055-.065-.083a28.908,28.908,0,0,0,17.925-13.032c.022.032.043.061.064.1A28.336,28.336,0,0,0,1557.278,444.615Z" transform="translate(-177.843 18.926)" fill="#fff" stroke="#47280a" stroke-miterlimit="10" stroke-width="3"/><path d="M1521.481,467.505c-1.688-2.207-3.323-4.454-4.961-6.7a4,4,0,0,0-2.067-1.5c-2.73-.893-5.455-1.8-8.165-2.751a1.848,1.848,0,0,0-2.469.719,28.929,28.929,0,0,0,17.95,13.015C1522.55,469.256,1522.166,468.4,1521.481,467.505Z" transform="translate(-177.843 18.926)" fill="#057faf" stroke="#47280a" stroke-miterlimit="10" stroke-width="3"/><path d="M1500.209,444.659c.878.178,1.474-.336,1.935-1.158a42.168,42.168,0,0,1,4.886-6.824c.96-1.117.96-2.482.718-3.993a18.244,18.244,0,0,1,.055-5.779c.283-1.764.25-3.014-1.281-3.437a28.749,28.749,0,0,0-6.94,18.749c0,.766.035,1.524.094,2.275a.149.149,0,0,0,.171.135A1.135,1.135,0,0,1,1500.209,444.659Z" transform="translate(-177.843 18.926)" fill="#057faf" stroke="#47280a" stroke-miterlimit="10" stroke-width="3"/><path d="M1550.531,456.569c-2.676.946-5.369,1.844-8.07,2.717a4.136,4.136,0,0,0-2.146,1.554c-1.68,2.3-3.359,4.6-5.081,6.861a1.873,1.873,0,0,0-.1,2.581,28.908,28.908,0,0,0,17.926-13.032A1.9,1.9,0,0,0,1550.531,456.569Z" transform="translate(-177.843 18.926)" fill="#057faf" stroke="#47280a" stroke-miterlimit="10" stroke-width="3"/><path d="M1548.921,425.52c.057,2.881.054,5.764.052,8.647a4.012,4.012,0,0,0,.785,2.433c1.624,2.254,3.23,4.522,4.844,6.784.921,1.292,1.075,1.382,2.57,1.241.064-.775.106-1.556.108-2.347a28.74,28.74,0,0,0-6.962-18.826A1.847,1.847,0,0,0,1548.921,425.52Z" transform="translate(-177.843 18.926)" fill="#057faf" stroke="#47280a" stroke-miterlimit="10" stroke-width="3"/><path d="M1519.169,417.687c2.659.784,5.3,1.627,7.936,2.49a3.983,3.983,0,0,0,2.552.032c2.767-.887,5.534-1.773,8.314-2.618a1.811,1.811,0,0,0,1.521-2.017,28.567,28.567,0,0,0-10.984-2.2,28.88,28.88,0,0,0-11.184,2.224C1517.3,416.857,1518.072,417.364,1519.169,417.687Z" transform="translate(-177.843 18.926)" fill="#057faf" stroke="#47280a" stroke-miterlimit="10" stroke-width="3"/><path d="M1538.545,437.228q-4.258-3.108-8.532-6.2a2.428,2.428,0,0,0-3.147-.01q-4.318,3.111-8.611,6.257a2.358,2.358,0,0,0-.943,2.995q1.611,5.007,3.25,10.005a2.446,2.446,0,0,0,2.678,1.942c1.709.016,3.419,0,5.128,0,1.776,0,3.553.013,5.329-.005a2.433,2.433,0,0,0,2.6-1.918q1.638-5,3.25-10.006A2.4,2.4,0,0,0,1538.545,437.228Z" transform="translate(-177.843 18.926)" fill="#057faf" stroke="#47280a" stroke-miterlimit="10" stroke-width="3"/><path d="M1486.732,444.544c0-.053.005-.1.006-.157a.894.894,0,0,0-.017-.194,14.626,14.626,0,0,0-.472-3.266l-.007-.03-.018-.055a14.511,14.511,0,0,0-1.789-4.039,13.589,13.589,0,0,0-3.277-3.612,14.387,14.387,0,0,0-8.448-3.081,1.146,1.146,0,0,0-.163-.015,12.773,12.773,0,0,0-3.861.434c-.035.01-.066.022-.1.032a14.456,14.456,0,0,0-3.795,1.588,13.436,13.436,0,0,0-4.97,4.9,14.481,14.481,0,0,0-.473,14.279,13.691,13.691,0,0,0,4.168,4.908,14.523,14.523,0,0,0,3.064,1.765c.022.009.042.02.064.03a13.634,13.634,0,0,0,5.04,1.1l0-.012c.179.006.358.013.538.012a14.459,14.459,0,0,0,4.448-.707c.147-.047.293-.1.438-.15.107-.038.212-.079.318-.12.208-.08.415-.163.618-.255a14.637,14.637,0,0,0,4.654-3.264,13.381,13.381,0,0,0,3.281-5.4,14.277,14.277,0,0,0,.752-4.63C1486.734,444.59,1486.732,444.567,1486.732,444.544Z" transform="translate(-177.843 18.926)" fill="#fff" stroke="#47280a" stroke-miterlimit="10" stroke-width="3"/><path d="M1474.574,456.916c0-.052.147-.1.232-.14a1.506,1.506,0,0,0,1-1.321,1.467,1.467,0,0,0-.791-1.484.379.379,0,0,1-.247-.388,1.99,1.99,0,0,0-.039-.4,1.022,1.022,0,0,1,.281-.992,1.493,1.493,0,0,0-.855-2.48.489.489,0,0,1-.44-.356,1.1,1.1,0,0,0-.107-.231,1.159,1.159,0,0,1-.106-1.163,1.508,1.508,0,0,0-1.722-2,.985.985,0,0,1-.47-.144c-.073-.031-.116-.124-.182-.175a1.229,1.229,0,0,1-.513-1.126,1.486,1.486,0,0,0-2.262-1.249.44.44,0,0,1-.526.016.991.991,0,0,0-.262-.127,1.127,1.127,0,0,1-.814-.831,1.489,1.489,0,0,0-2.545-.45.512.512,0,0,1-.588.208.747.747,0,0,0-.253-.026,1.012,1.012,0,0,1-.98-.478,1.5,1.5,0,0,0-2.59.447.5.5,0,0,1-.42.372,1.69,1.69,0,0,0-.524.147.565.565,0,0,1-.718-.122,14.13,14.13,0,0,0-.163,2.163c0,.151.007.3.012.45a1.682,1.682,0,0,0,.826-1.227.463.463,0,0,1,.224-.259,3.058,3.058,0,0,1,.38-.121.542.542,0,0,1,.707.2,1.486,1.486,0,0,0,2.4-.241.584.584,0,0,1,.664-.327c.366.034.632.071.813.514a1.455,1.455,0,0,0,2.32.5.461.461,0,0,1,.629-.08,2.221,2.221,0,0,0,.365.166.365.365,0,0,1,.261.41,1.534,1.534,0,0,0,2.16,1.448.584.584,0,0,1,.371.055c.084.033.14.132.215.193a.686.686,0,0,1,.266.854,1.487,1.487,0,0,0,1.52,1.9c.251-.009.382.055.464.279a2.011,2.011,0,0,0,.161.326.446.446,0,0,1-.058.6,1.52,1.52,0,0,0,.683,2.436c.259.087.358.2.35.456a1.435,1.435,0,0,0,.039.325.446.446,0,0,1-.254.551,1.507,1.507,0,0,0-.188,2.5.443.443,0,0,1,.18.577c-.062.17-.084.356-.15.524a.336.336,0,0,1-.191.177c-.847.249-1.069.394-1.335,1.073.147,0,.293.01.441.01a14.318,14.318,0,0,0,2.412-.212.34.34,0,0,0-.059-.092C1473.985,458.014,1474.535,457.461,1474.574,456.916Z" transform="translate(-177.843 18.926)" fill="#057faf" stroke="#47280a" stroke-miterlimit="10" stroke-width="1"/><path d="M1473.545,430.817a.444.444,0,0,1,.283.482.5.5,0,0,0,.006.145,1.358,1.358,0,0,1-.364,1.284,1.475,1.475,0,0,0,.926,2.384.413.413,0,0,1,.384.316,1.316,1.316,0,0,0,.116.267,1.2,1.2,0,0,1,.079,1.193,1.5,1.5,0,0,0,1.672,2.006.487.487,0,0,1,.524.2,1.221,1.221,0,0,0,.176.184,1.1,1.1,0,0,1,.452,1.035,1.479,1.479,0,0,0,2.217,1.354.478.478,0,0,1,.559.008.852.852,0,0,0,.2.1,1.265,1.265,0,0,1,.881.912,1.466,1.466,0,0,0,2.491.472.609.609,0,0,1,.629-.219,1,1,0,0,0,.216.028.918.918,0,0,1,.991.53.892.892,0,0,0,.473.377l.01.005a14.308,14.308,0,0,0-.361-2.5,1.8,1.8,0,0,0-.217.247c-.1.12-.2.335-.312.342a4.256,4.256,0,0,1-.937-.089c-.046-.007-.078-.136-.1-.212a1.553,1.553,0,0,0-2.561-.7.482.482,0,0,1-.367.06,3.944,3.944,0,0,1-.463-.207c-.235-.089-.37-.224-.287-.463a1.525,1.525,0,0,0-2.037-1.493.45.45,0,0,1-.589-.143,3.237,3.237,0,0,1-.319-.347.507.507,0,0,1-.067-.371,1.557,1.557,0,0,0-1.494-2.171c-.12,0-.247-.121-.351-.209-.06-.051-.077-.149-.118-.223a.668.668,0,0,1,.056-.886,1.488,1.488,0,0,0-.7-2.325.445.445,0,0,1-.354-.457,3.981,3.981,0,0,1-.025-.544.844.844,0,0,1,.151-.286c.005-.009.025-.008.032-.016a.967.967,0,0,1,.244-.207,14.265,14.265,0,0,0-2.184-.3A1.224,1.224,0,0,0,1473.545,430.817Z" transform="translate(-177.843 18.926)" fill="#057faf" stroke="#47280a" stroke-miterlimit="10" stroke-width="1"/></g></svg>