<svg xmlns="http://www.w3.org/2000/svg" width="322.58" height="322.58" viewBox="0 0 322.58 322.58"><g transform="translate(-1760.873 -254.261)"><g transform="translate(-197.561 70.425)"><circle cx="161.29" cy="161.29" r="161.29" transform="translate(1958.434 183.837)" fill="#f4f5f3"/><circle cx="149.551" cy="149.551" r="149.551" transform="translate(1969.494 195.576)" fill="#e3f1f0"/></g><g transform="translate(-197.561 70.425)"><path d="M2083.558,380.649c6.922,6.853,18.317,33.581,14.536,42.368-1.58,3.674-.912,10.282,8.881,6.291,3.253-1.326,6.106-8.869,4.256-16.4-.9-3.682.37-19.55,1.356-21.462" fill="#804f21"/><path d="M2101.741,432.777a6.357,6.357,0,0,1-4.747-1.823c-2.272-2.316-2.109-6.1-.939-8.814,3.285-7.636-7.363-33.284-14.059-39.913l3.124-3.156c7.169,7.1,19.325,34.8,15.014,44.824-.646,1.5-.633,3.274.03,3.95.624.637,2.523.814,5.973-.593,1.97-.8,4.564-7.191,2.938-13.82-.934-3.8.174-20.363,1.539-23.009l3.946,2.035c-.718,1.789-1.959,16.712-1.174,19.916,2.136,8.7-1.181,17.2-5.573,18.99A16.483,16.483,0,0,1,2101.741,432.777Z" fill="#47280a"/><path d="M2163.517,395.7s8.449,11.163,9.621,16.467c2.414,10.928-4.719,11.745-4.842,15.075-.089,2.4,1.476,4.207,8.464,2.85s8.836-4.3,9.576-12.436c.938-10.322,0-21.555,5.273-27.568" fill="#804f21"/><path d="M2172.661,432.773a7.3,7.3,0,0,1-4.917-1.448,4.982,4.982,0,0,1-1.667-4.168c.072-1.943,1.322-3.234,2.424-4.374,1.8-1.858,3.834-3.963,2.469-10.14-.876-3.962-6.955-12.608-9.223-15.606l3.54-2.679c.895,1.182,8.778,11.711,10.019,17.327,1.879,8.506-1.559,12.061-3.613,14.185-.465.481-1.169,1.208-1.178,1.451-.006.155-.006.525.116.63.1.089,1.145.845,5.7-.042,5.724-1.11,7.107-2.967,7.789-10.457.21-2.319.327-4.736.44-7.072.41-8.507.8-16.541,5.374-21.759l3.339,2.927c-3.554,4.053-3.906,11.336-4.278,19.046-.115,2.383-.234,4.848-.454,7.259-.749,8.244-2.712,12.736-11.363,14.416A24.11,24.11,0,0,1,2172.661,432.773Z" fill="#47280a"/><path d="M2098.729,421.665c-1.58,3.674-.912,10.283,8.881,6.291,2.94-1.2,5.541-7.476,4.65-14.237-.38-.656-.76-1.249-1.13-1.764-4.941,2.425-12.159.028-12.159.028l0,0C2099.665,415.967,2099.7,419.409,2098.729,421.665Z" fill="#595757"/><path d="M2102.382,431.055a6.009,6.009,0,0,1-4.489-1.712c-2.152-2.193-1.984-5.8-.863-8.409h0c.527-1.226.976-3.719.115-8.629l-.165-.947,1.487-1.489,1.087.357c.062.021,6.573,2.122,10.761.068l1.406-.69.913,1.274c.408.568.821,1.212,1.227,1.913l.185.321.049.366c.937,7.115-1.712,14.53-5.786,16.191A16.111,16.111,0,0,1,2102.382,431.055Zm-1.2-16.622a16.406,16.406,0,0,1-.749,7.964h0c-.624,1.451-.756,3.477.106,4.355.929.949,3.253.763,6.377-.509,1.9-.775,4.235-5.885,3.559-11.917-.02-.033-.041-.065-.06-.1A19.623,19.623,0,0,1,2101.178,414.433Z" fill="#47280a"/><path d="M2112.431,301.092s-9.723-1.029-20.824-10.876-33.9-9.8-48.66-6.516c-11.9,2.652-12.273,4.745-14.246,5.365-4.857,1.527-24.572,2.1-29.6,14.8-2.914,7.354,4.317,24.854,17.083,26.149s18.44-1.172,26.581,12.335,51.188,52.236,66.93,69.936c3.13,3.52,7.94,14.493,5.535,20.845-1.416,3.741-.912,10.283,8.881,6.291,3.253-1.326,6.106-8.868,4.255-16.4-.9-3.681.371-19.55,1.357-21.462s45.576-2.158,56.8-4.009c3.192-.526,11.224,14.864,9.374,25.163s-7.264,8.773-6.784,13.814c.37,3.886,9.713,2.961,14.431,1.481s8.326-18.749,9.066-28.37,6.907-17.515,11.348-26.766,19.55-25.162,14.74-43.479-11.1-18.5-18.132-24.052-23.5-24.607-55.5-18.687S2115.041,301.635,2112.431,301.092Z" fill="#895b31"/><path d="M2118.878,442.894a6.309,6.309,0,0,1-4.6-1.7c-2.415-2.355-2.118-6.237-1.131-8.845,1.968-5.2-2.2-15.3-5.118-18.583-6.084-6.842-16.271-16.84-27.057-27.427-17.208-16.89-35-34.355-40.116-42.839-6.1-10.13-10.046-10.347-18.682-10.823-1.842-.1-3.929-.216-6.221-.449-6.123-.621-11.65-4.507-15.562-10.943-3.833-6.306-5.184-13.633-3.362-18.233,4.515-11.394,19.144-13.932,27-15.3a39.517,39.517,0,0,0,4-.806,4.235,4.235,0,0,0,.93-.529c1.632-1.065,4.362-2.849,13.5-4.885,16.435-3.663,39.287-3.025,50.616,7.023,10.448,9.267,19.493,10.318,19.584,10.327l.219.034c2.147.449,19.773,1.469,51.771-4.449,29.26-5.408,46.273,9.529,54.45,16.708,1.1.963,2.044,1.794,2.836,2.419,1.35,1.067,2.713,1.949,4.03,2.8,5.567,3.606,10.824,7.012,14.873,22.428,3.951,15.045-4.477,28.226-10.631,37.85a75.494,75.494,0,0,0-4.255,7.154c-1.27,2.647-2.676,5.179-4.035,7.629-3.4,6.12-6.605,11.9-7.1,18.347-.022.276-2.492,27.768-10.615,30.317-2.678.84-11.22,2.638-15.218-.015a4.475,4.475,0,0,1-2.088-3.373c-.315-3.3,1.283-4.872,2.693-6.256,1.508-1.479,3.216-3.156,4.115-8.161,1.556-8.661-4.794-21.076-7.16-22.527-5.492.846-17.588,1.349-29.3,1.836-10.068.419-22.411.932-25.738,1.595-.722,3.4-1.721,16.313-1,19.267,2.136,8.7-1.181,17.2-5.573,18.99A16.478,16.478,0,0,1,2118.878,442.894ZM2061.37,283.935a83.969,83.969,0,0,0-17.94,1.932c-8.349,1.86-10.658,3.368-12.037,4.269a7.884,7.884,0,0,1-2.027,1.048,40.381,40.381,0,0,1-4.57.945c-7.494,1.3-20.037,3.475-23.634,12.556-1.274,3.213.028,9.357,3.027,14.291,1.837,3.022,5.867,8.187,12.216,8.832,2.19.222,4.136.328,6.017.433,8.986.495,14.923.821,22.241,12.963,4.824,8,23.2,26.045,39.423,41.964,10.841,10.64,21.081,20.69,27.265,27.643,3.5,3.935,8.773,15.658,5.953,23.108-.623,1.645-.589,3.443.078,4.093.614.6,2.482.744,5.888-.645,1.97-.8,4.564-7.191,2.938-13.82-.934-3.8.174-20.363,1.539-23.009.945-1.83,1.987-2.21,29.323-3.348,11.816-.491,24.034-1,29.089-1.833,1.318-.215,2.678.38,4.051,1.772,4.221,4.282,9.514,16.825,7.87,25.974-1.149,6.4-3.693,8.894-5.376,10.546-1.235,1.212-1.493,1.509-1.383,2.665.678.976,6.538,1.146,11.556-.428,2.454-.77,6.54-13.721,7.517-26.421.57-7.413,4.007-13.605,7.645-20.161,1.329-2.393,2.7-4.867,3.916-7.395a77.851,77.851,0,0,1,4.516-7.625c5.712-8.933,13.534-21.167,10.077-34.33-3.612-13.752-7.751-16.434-12.992-19.829-1.4-.909-2.854-1.849-4.368-3.045-.883-.7-1.87-1.563-3.013-2.567-8.24-7.234-23.575-20.7-50.713-15.679-32.149,5.947-50.283,5.027-53.377,4.452-1.2-.152-10.954-1.654-21.952-11.409C2083.834,286.291,2072.726,283.935,2061.37,283.935Z" fill="#47280a"/><path d="M2020.525,315.959c3.154-5.377,4.521-19.871-.382-22.97-.818-.517-4.467.63-6.675,1.26-5.461,2-10,4.019-12.246,9.679-1.456,3.676-.15,10.29,2.757,15.509a25.152,25.152,0,0,0,3.051,3.487C2008.8,324.5,2017.476,321.158,2020.525,315.959Z" fill="#72492a"/><path d="M2050.788,303.352a3.523,3.523,0,1,1,2.116-.707h0A3.513,3.513,0,0,1,2050.788,303.352Zm-.109-3.664a.171.171,0,0,0,.08.307.163.163,0,0,0,.127-.033Zm.1-.035a.172.172,0,0,0-.1.034l.207.275a.172.172,0,0,0-.1-.309Z" fill="#231815"/><ellipse cx="1.739" cy="0.858" rx="1.739" ry="0.858" transform="translate(2007.538 304.119) rotate(-62.353)" fill="#221714"/><path d="M2008.511,305.308a1.185,1.185,0,0,1-.556-.136h0a1.455,1.455,0,0,1-.7-1.406,3.6,3.6,0,0,1,.432-1.531c.667-1.272,1.744-1.886,2.566-1.455a1.455,1.455,0,0,1,.7,1.406,3.864,3.864,0,0,1-1.444,2.759A1.713,1.713,0,0,1,2008.511,305.308Zm.949-3.01a2.348,2.348,0,0,0-.46.623,2.3,2.3,0,0,0-.25.734,2.336,2.336,0,0,0,.459-.624A2.31,2.31,0,0,0,2009.46,302.3Z" fill="#231815"/><path d="M2067.277,284.116s3.577-7.027,8.387-4.807,4.9,6.522,3.238,8.742-4.949,5.921-7.863,6.2" fill="#895b31"/><path d="M2071.249,296.459l-.42-4.42c1.486-.141,4.017-2.279,6.3-5.32a2.987,2.987,0,0,0,.436-2.482,4.666,4.666,0,0,0-2.828-2.912c-2.775-1.275-5.455,3.752-5.482,3.8l-3.954-2.02c1.572-3.089,5.961-8.28,11.3-5.815a9.033,9.033,0,0,1,5.273,5.856,7.434,7.434,0,0,1-1.189,6.233C2078.815,291.868,2075.112,296.092,2071.249,296.459Z" fill="#47280a"/><path d="M2195.97,417.761a20.01,20.01,0,0,1-.216,4.825c-1.851,10.3-7.265,8.774-6.784,13.815.37,3.885,9.713,2.96,14.431,1.48,3.408-1.069,6.236-10.375,7.823-19.087A66.244,66.244,0,0,1,2195.97,417.761Z" fill="#595757"/><path d="M2195.082,441.017a11.261,11.261,0,0,1-6.029-1.339,4.119,4.119,0,0,1-1.925-3.1c-.3-3.129,1.233-4.631,2.585-5.957,1.47-1.443,3.3-3.238,4.22-8.361a18.187,18.187,0,0,0,.19-4.377l-.153-2.344,2.315.4a65.055,65.055,0,0,0,14.794,1.013l2.4-.187-.43,2.363c-1.557,8.548-4.4,19.048-9.089,20.52A31.991,31.991,0,0,1,2195.082,441.017Zm2.784-21.079a19.771,19.771,0,0,1-.291,2.975c-1.129,6.284-3.621,8.73-5.271,10.348-1.214,1.192-1.623,1.593-1.493,2.965.007.075.018.189.289.368,1.848,1.227,7.832.752,11.747-.478,1.331-.418,3.97-4.873,6.115-15.363A68.116,68.116,0,0,1,2197.866,419.938Z" fill="#47280a"/><path d="M2173.8,414.981c.357,7.708-5.211,8.694-5.32,11.634-.089,2.4,1.476,4.207,8.465,2.85s8.835-4.3,9.575-12.437c.046-.507.085-1.018.123-1.53A83.094,83.094,0,0,1,2173.8,414.981Z" fill="#595757"/><path d="M2172.849,432.148a7.3,7.3,0,0,1-4.918-1.447,4.98,4.98,0,0,1-1.666-4.168c.072-1.942,1.32-3.235,2.421-4.374,1.514-1.569,3.079-3.19,2.9-7.076l-.119-2.577,2.566.266a81.065,81.065,0,0,0,12.457.512l2.559-.18-.188,2.557c-.039.524-.078,1.048-.126,1.569-.749,8.242-2.712,12.735-11.363,14.414A24.035,24.035,0,0,1,2172.849,432.148Zm3.094-14.733a12.573,12.573,0,0,1-4.063,7.828c-.465.482-1.169,1.21-1.178,1.454-.006.155-.006.525.116.63.1.089,1.149.844,5.706-.042,5.466-1.061,6.974-2.8,7.692-9.479C2181.534,417.839,2178.55,417.642,2175.943,417.415Z" fill="#47280a"/><path d="M2114.5,422.51v0c1.073,3.691,1.488,7.573.386,10.485-1.416,3.74-.913,10.282,8.881,6.29,3.253-1.326,6.1-8.868,4.255-16.4a13.2,13.2,0,0,1-.263-2.307h0C2123.4,423.356,2114.5,422.51,2114.5,422.51Z" fill="#595757"/><path d="M2118.543,442.388a5.962,5.962,0,0,1-4.344-1.6c-2.286-2.231-1.991-5.945-1.042-8.449.829-2.191.675-5.5-.433-9.313l-.2-.7.89-1.782,1.264.117c2.3.217,8.96.342,12.089-1.653l2.689-1.713.154,3.184a11.144,11.144,0,0,0,.212,1.955c2.058,8.384-1.188,16.861-5.354,18.56A16.131,16.131,0,0,1,2118.543,442.388Zm-1.651-17.911c.589,2.89.816,6.292-.275,9.174-.58,1.533-.719,3.627.165,4.49.918.9,3.208.687,6.287-.567,2.125-.866,4.857-7.326,3.157-14.251l0-.012A29.727,29.727,0,0,1,2116.892,424.477Z" fill="#47280a"/><line x2="14.288" y2="0.523" transform="translate(2133.796 319.232)" fill="#804f21"/><rect width="2.961" height="14.298" transform="translate(2133.742 320.711) rotate(-87.903)" fill="#47280a"/><line x2="14.288" y2="0.523" transform="translate(2149.833 330.008)" fill="#804f21"/><rect width="2.961" height="14.298" transform="translate(2149.779 331.487) rotate(-87.903)" fill="#47280a"/><line x2="11.707" y2="0.974" transform="translate(2171.798 315.746)" fill="#804f21"/><rect width="2.96" height="11.748" transform="matrix(0.083, -0.997, 0.997, 0.083, 2171.675, 317.221)" fill="#47280a"/></g><g transform="translate(-197.561 70.425)"><path d="M2039.169,424.37s-9.044,1.589-8.365,5.733c.448,2.732,4.9,14.828,8.272,21.194,1.695,3.2,5.616.987,9.59-1.954,0,0,18.347,17.386,34.28-3.109,11.18-14.381-6.45-44.44-21.645-41.449C2046.365,407.724,2039.9,410.565,2039.169,424.37Z" fill="#057faf" stroke="#47280a" stroke-miterlimit="10" stroke-width="3"/><line x2="8.916" y2="21.573" transform="translate(2069.568 415.502)" fill="#ef5542" stroke="#47280a" stroke-miterlimit="10" stroke-width="4"/><circle cx="2.965" cy="2.965" r="2.965" transform="translate(2066.198 411.488)" fill="#47280a"/><circle cx="2.979" cy="2.979" r="2.979" transform="translate(2075.91 435.099)" fill="#47280a"/><path d="M2040.787,430.572s2.005,8.154,5.935,13.668" fill="#fff" stroke="#47280a" stroke-linecap="round" stroke-miterlimit="10" stroke-width="3"/></g><g transform="translate(-197.561 70.425)"><rect width="47.021" height="5.25" rx="1.573" transform="matrix(-0.979, -0.203, 0.203, -0.979, 2158.395, 470.809)" fill="#c69c6d" stroke="#47280a" stroke-miterlimit="10" stroke-width="3"/><rect width="20" height="18" rx="9" transform="matrix(-0.979, -0.203, 0.203, -0.979, 2112.285, 467.026)" fill="#fff" stroke="#47280a" stroke-miterlimit="10" stroke-width="3"/></g></g></svg>