<svg xmlns="http://www.w3.org/2000/svg" width="322.58" height="322.58" viewBox="0 0 322.58 322.58"><g transform="translate(-1753.871 -228.474)"><circle cx="161.29" cy="161.29" r="161.29" transform="translate(1753.871 228.474)" fill="#f4f5f3"/><circle cx="149.551" cy="149.551" r="149.551" transform="translate(1764.931 240.213)" fill="#e3f1f0"/><path d="M2013.458,362.7l7.9,31.707-8.762,38.08-5.664,5.353-.4,4.145,9.188.7,20.112-28.583-.146-14.911-5.135-22-2.343-10.526Z" transform="translate(-177.843 18.926)" fill="#c7b299"/><path d="M2011.868,444.169c-2.858,0-6.089-.644-7.67-2.087a4.924,4.924,0,0,1-.936-5.482,7.068,7.068,0,0,1,6.777-4.346c.892-.6,3.106-4.6,5.562-16a156.65,156.65,0,0,0,3.173-21.13c.337-7.869-6.9-28.2-6.968-28.4a2.02,2.02,0,1,1,3.8-1.36c.309.865,7.57,21.282,7.2,29.932a161.3,161.3,0,0,1-3.525,23.02c-3.546,15.829-6.586,17.972-9.092,17.972h-.018a3.148,3.148,0,0,0-3.016,1.489,1.664,1.664,0,0,0-.21,1.346c1.179,1.071,6.4,1.271,7.6.685,13.229-7.83,19.08-33.041,18.9-38.065a2.02,2.02,0,1,1,4.037-.147c.214,5.889-5.762,32.741-20.9,41.7A10.315,10.315,0,0,1,2011.868,444.169Z" transform="translate(-177.843 18.926)" fill="#47280a"/><path d="M2105.251,393.071l5.951,26.365-9.41,10.833-12.036,2.954.109,4.815,14.909,2.255,26.938-23.843-10.284-13.117Z" transform="translate(-177.843 18.926)" fill="#c7b299"/><path d="M2173.6,365.264s22.627.652,25.915,21.815c4.654,29.954,2.49,29.882,7.826,36.286s4.269,27.392-9.6,24.546-19.643-8.142-25.335-27.352,2.547-35.9-2.433-38.04S2173.6,365.264,2173.6,365.264Z" transform="translate(-177.843 18.926)" fill="#c7b299"/><path d="M2192.783,374.673c-3.506,10.5-15.6,21.708-22.072,26.243-2.812,1.97.6,10.185.6,10.185,9.576-2.592,26.936-28.478,26.936-28.478S2194.433,369.735,2192.783,374.673Z" transform="translate(-177.843 18.926)" fill="#736357"/><path d="M2202.386,416.3c-3.506,10.5-11.7,18.187-19.467,20.485-3.293.974,2.843,9.44,7.1,8.287,9.576-2.591,17.833-21.289,17.833-21.289Z" transform="translate(-177.843 18.926)" fill="#736357"/><path d="M2199.251,390.494c-3.506,10.5-19.2,29.6-26.973,31.893,0,0-.034,9.824,4.274,8.878,13.277-2.918,24.45-26.619,24.45-26.619S2200.9,385.556,2199.251,390.494Z" transform="translate(-177.843 18.926)" fill="#736357"/><path d="M2198.872,449a15.234,15.234,0,0,1-3.053-.315c-13.088-2.686-21.509-11.449-25.027-26.046-2.585-10.73-1.352-22.093-.451-30.389.483-4.452,1.145-10.549.207-11.459a4.472,4.472,0,0,1-2.381-2.555c-2.087-5.244,2.782-17.01,3.779-19.315l.813-1.88,1.868.84c.98.44,24.025,10.98,27.441,28.446a148.8,148.8,0,0,1,2.345,20.092c.515,8.013.826,12.849,4.137,15.328,5.185,3.881,6.657,11.373,3.579,18.219C2209.565,445.672,2204.552,449,2198.872,449ZM2174.847,362.5c-1.972,5.069-3.879,11.855-2.926,14.247.12.3.223.346.257.361,3.7,1.585,3.093,7.153,2.178,15.583-.868,8-2.057,18.959.364,29.006,3.162,13.125,10.329,20.66,21.911,23.035,6.027,1.239,10.055-2.5,11.814-6.418,1.939-4.311,1.765-10.274-2.316-13.329-4.8-3.594-5.2-9.764-5.747-18.3A145.376,145.376,0,0,0,2198.1,387.1C2195.61,374.357,2180.249,365.316,2174.847,362.5Z" transform="translate(-177.843 18.926)" fill="#47280a"/><path d="M2023.591,306.457c1.067-2.846,13.355-14.69,15.472-14.244,2.55.537,4.625,14.755,4.625,14.755s18.365-7.721,65.691-3.593c39.847,3.475,52.2,16.838,60.537,23.13,7.5,5.662,12.539,11.476,15.385,24.995s-8.547,39.479-29.708,53.722c-3.364,2.265-6.4,14.23-3.557,24.9s-4.295,16.9-7.5,19.75-13.863-1.651-17.776-2.362.3-6.2,1.367-6.555,2.865-.13,5.711-.842.864-4.588,2.382-7.6c3.333-6.62-13.967-29.532-20.726-34.157s-47.061-18.391-56.31,3.664-9.762,19.871-17.927,32.333c-6.759,10.316-18,9.645-21.2,9.289-2.829-.314-4.419-5.37-1-7.275,4.371-2.435,6.693-3.042,7.4-4.82,1.308-3.27,1.423-8.182-2.134-28.815a120.469,120.469,0,0,0-12.516-36.092C1961.475,366.2,1983.594,325,1983.594,325s-6.327-16.166-3.7-18.355c2.286-1.9,18.286,5.644,19,5.192C2014.253,302.08,2023.591,306.457,2023.591,306.457Z" transform="translate(-177.843 18.926)" fill="#c7b299"/><path d="M2004.6,325.207c2.878,1.642,4.595,5.821,3.966,9.774-.35,2.2-2.637,6.391-4.776,8.836-5.164,5.9-11.8,6.64-14.313,4.812-3.772-2.747-5.949-12.048.984-20.594C1995.144,322.26,2000.934,323.113,2004.6,325.207Z" transform="translate(-177.843 18.926)" fill="#736357"/><path d="M2023.3,322.237c-1.824,2.691-1.757,7.169.583,10.316a22.088,22.088,0,0,0,9.091,6.122c4.8,1.5,11.305,1.515,13.529-2.031,3.021-4.817-.4-14.443-8.594-17.91C2031.2,315.9,2025.948,318.324,2023.3,322.237Z" transform="translate(-177.843 18.926)" fill="#736357"/><path d="M2100.584,442.32a26.334,26.334,0,0,1-10.862-2.571,4.486,4.486,0,0,1-2.417-5.08c.381-1.709,2.318-5.638,12.02-5.638l.449,0c2.07-.077,9.26-7.28,10.093-9.284.5-5.148-6-20.8-8.572-26.439l3.675-1.675c1,2.2,9.758,21.667,8.893,28.721-.326,2.667-9.544,12.716-14.1,12.716h-.037c-6.237-.091-8.27,1.582-8.476,2.469a.5.5,0,0,0,.145.531c5.754,2.615,11.1,2.906,15.452.841,4.81-2.282,18.507-16.532,23.378-21.83l2.974,2.734c-1.848,2.009-18.231,19.714-24.621,22.745A18.475,18.475,0,0,1,2100.584,442.32Zm9.308-22.635Z" transform="translate(-177.843 18.926)" fill="#47280a"/><path d="M2012.823,368.068c-1.343,0-1.645-.254-1.984-.538a2.02,2.02,0,0,1,1.8-3.5,47.407,47.407,0,0,0,7.637-.912c4.934-.8,29.85-5.5,35.8-19.375,3.129-7.289-3.938-19.67-6.925-23.825a2.02,2.02,0,0,1,3.279-2.36c.493.685,12.028,16.9,7.358,27.779-6.617,15.418-31.423,20.56-38.869,21.769A58.755,58.755,0,0,1,2012.823,368.068Zm.611-3.634h0Zm0,0h0Zm0,0h0Zm0,0Zm0,0Z" transform="translate(-177.843 18.926)" fill="#47280a"/><path d="M2060.726,399.09s15.124-11.706,25.519-8.971,26.052,3.412,29.253,8.237c.774,1.168,9.713,10.2,9.713,10.2s7.573-27.654-26.611-31.271C2059.255,373.119,2060.726,399.09,2060.726,399.09Z" transform="translate(-177.843 18.926)" fill="#fff"/><path d="M2135.14,451.227a55.084,55.084,0,0,1-8.18-.551,5.115,5.115,0,0,1-4.246-5.43,6.894,6.894,0,0,1,6.417-6.569c.371-.044.726-.053,1.1-.063a10.95,10.95,0,0,0,3.793-.677c.458-.347,1.071-2.971.526-6.9-3-21.652-23.991-33.6-24.883-34.1-5.218-2.913-24.864-7.612-37.632-3.118-5.011,1.764-8.409,4.778-10.1,8.957-7.87,19.447-10.967,24.858-19.5,34.056-8.423,9.085-17.1,8.91-20.809,8.838-.258-.005-.495-.01-.707-.011a5.613,5.613,0,0,1-5.838-5c-.413-3.044,1.2-6.91,4.535-7.847a8.045,8.045,0,0,0,5.141-3.967c2.613-4.731,2.11-13.324-1.5-25.541-4.917-16.654-10.729-31.09-12.467-35.294-15.8-.026-26.222-4.131-30.982-12.208-6.716-11.4.245-26.677,2.351-30.777-3.087-5.6-8.353-16.751-3.394-20.057,3.663-2.441,10.738.349,18.281,3.684.847.375,1.773.784,2.368,1.022,11.821-7.28,19.918-6.714,23.35-5.92,2.963-4.691,11.768-15.2,17.316-13.983.956.212,3.775.84,6.5,15.945,7.481-2.248,32.734-8.38,72.6-3.318,18.3,2.323,34.525,8.618,46.924,18.2,11.541,8.921,18.881,20.1,20.668,31.481,4.385,27.923-17.443,45.245-25.66,51.767a31.305,31.305,0,0,0-2.977,2.515c-4.009,5.934-4.323,9.679-3.377,20.391.957,10.821-2.812,18.329-6.658,21.748C2145.693,450.642,2140.077,451.227,2135.14,451.227Zm-50.5-63.288c11.381,0,22.9,3.185,27,5.473.964.539,23.644,13.451,26.915,37.073.315,2.271,1.015,9.793-3.193,11.265a15.036,15.036,0,0,1-5.018.9c-.271.007-.513.011-.738.037a2.9,2.9,0,0,0-2.851,2.673,1.151,1.151,0,0,0,.909,1.336c4.621.813,15.526.766,17.756-1.215,3.111-2.766,6.142-9.045,5.318-18.373-1.014-11.47-.586-16.141,4.061-23.019.54-.8,1.557-1.623,3.805-3.407,8.439-6.7,28.2-22.38,24.18-47.976-1.626-10.356-8.426-20.625-19.148-28.912-11.829-9.144-27.377-15.158-44.962-17.391-46-5.841-72.718,3.753-72.983,3.85a2.02,2.02,0,0,1-2.694-1.568c-1.012-6.183-2.839-13.475-4.044-15h-.007c-3.164,0-12.185,10.175-13.315,13.188a2.02,2.02,0,0,1-2.737,1.125c-.159-.069-8.064-3.333-22.042,5.546-1.115.71-1.945.342-5.429-1.2-3.039-1.344-12.286-5.432-14.407-4.018-1.216.81.95,8.2,5.211,15.673a2.025,2.025,0,0,1,0,2c-.094.165-9.4,16.787-2.923,27.757,4.11,6.961,13.814,10.4,28.811,10.2h.026a2.02,2.02,0,0,1,1.857,1.225,379.082,379.082,0,0,1,13.144,36.971c3.979,13.478,4.358,22.846,1.158,28.638a12.052,12.052,0,0,1-7.582,5.9c-1.017.286-1.821,1.978-1.626,3.416.141,1.037.712,1.5,1.852,1.506.232,0,.489.006.77.011,3.441.072,10.576.211,17.767-7.546,8.1-8.74,11.077-13.955,18.713-32.824,2.146-5.3,6.352-9.087,12.5-11.252A42.556,42.556,0,0,1,2084.639,387.939Z" transform="translate(-177.843 18.926)" fill="#47280a"/><path d="M1983.1,310.666c-.547,1.569,3.671,10.472,4.984,11.056,1.082.48,1.623-.949,3.812-2.918,1.246-1.122,2.689-2.272,2.954-3.265C1995.592,312.753,1983.6,309.233,1983.1,310.666Z" transform="translate(-177.843 18.926)" fill="#47280a"/><path d="M2037.333,298.138c-1.169-.13-7.731,7.63-7.87,10-.146,2.48,9.066,3.166,9.374,1.933C2039.421,307.734,2038.318,298.248,2037.333,298.138Z" transform="translate(-177.843 18.926)" fill="#47280a"/><path d="M1997.751,336.983a3.324,3.324,0,1,1,2-.666h0A3.311,3.311,0,0,1,1997.751,336.983Zm.892-2.133h0Zm-1.1-1.468a.346.346,0,0,0-.069.485.347.347,0,0,0,.484.069h0Zm.208-.069a.347.347,0,0,0-.207.068l.416.553a.346.346,0,0,0,.068-.484A.346.346,0,0,0,1997.747,333.313Z" transform="translate(-177.843 18.926)" fill="#47280a"/><path d="M2031.081,329.723a3.366,3.366,0,0,1-.457-.032,3.212,3.212,0,1,1,.457.032Zm-.457-3.282a.455.455,0,1,0,.814-.21.466.466,0,0,0-.3-.177.451.451,0,0,0-.338.088.457.457,0,0,0-.177.3Z" transform="translate(-177.843 18.926)" fill="#47280a"/><path d="M2006.447,359.528c3.536,2.375,7.91,2.224,14,1.137,7.945-1.417,12.971-4.829,12.946-8.585-.052-7.688-10.768-14.647-16.958-13.318C2007.723,340.634,2001.548,356.237,2006.447,359.528Z" transform="translate(-177.843 18.926)" fill="#fff"/><ellipse cx="5.639" cy="3.877" rx="5.639" ry="3.877" transform="translate(1832.739 364.781) rotate(-12.558)" fill="#47280a"/><path d="M2028.131,451.122s-9.044,1.589-8.364,5.733c.447,2.732,4.9,14.828,8.272,21.194,1.7,3.2,5.615.987,9.589-1.954,0,0,18.347,17.385,34.28-3.109,11.181-14.381-6.449-44.44-21.645-41.449C2035.327,434.476,2028.859,437.317,2028.131,451.122Z" transform="translate(-177.843 18.926)" fill="#057faf" stroke="#47280a" stroke-miterlimit="10" stroke-width="3"/><line x2="8.916" y2="21.573" transform="translate(1880.687 461.18)" fill="#ef5542" stroke="#47280a" stroke-miterlimit="10" stroke-width="4"/><circle cx="2.965" cy="2.965" r="2.965" transform="translate(1877.317 457.166)" fill="#47280a"/><circle cx="2.979" cy="2.979" r="2.979" transform="translate(1887.029 480.776)" fill="#47280a"/><path d="M2029.749,457.324s2.006,8.154,5.935,13.668" transform="translate(-177.843 18.926)" fill="#fff" stroke="#47280a" stroke-linecap="round" stroke-miterlimit="10" stroke-width="3"/><rect width="47.021" height="5.25" rx="1.573" transform="translate(1973.632 504.908) rotate(-161.376)" fill="#c69c6d" stroke="#47280a" stroke-miterlimit="10" stroke-width="3"/><rect width="20" height="18" rx="9" transform="translate(1928.311 495.614) rotate(-161.376)" fill="#fff" stroke="#47280a" stroke-miterlimit="10" stroke-width="3"/></g></svg>