<svg xmlns="http://www.w3.org/2000/svg" width="322.58" height="322.58" viewBox="0 0 322.58 322.58"><g transform="translate(-2246.605 -232.848)"><circle cx="161.29" cy="161.29" r="161.29" transform="translate(2246.605 232.848)" fill="#f4f5f3"/><circle cx="149.551" cy="149.551" r="149.551" transform="translate(2259.023 244.587)" fill="#e3f1f0"/><path d="M2524.691,392.459c.566-1.958,1.152-3.983,1.917-6.2l.17-.495c3.013-8.765,12.182-35.441,29.426-41.78.737-.271,1.512-.561,2.311-.863a4.056,4.056,0,0,1,1.711-1.141c36.295-14.116,36.321-14.126,36.393-14.149.093-.034,12.724-4.472,16.926-5.917.1-.036,12.389-3.548,20.671-3.409h.053c2.706-.02,11.974-.029,17.571.833.318.048,10.363,2.072,13.7,3.1,1.216.374,9.709,3.389,10.673,3.732a3.276,3.276,0,0,1,1.125.7c.717.3,1.436.593,2.166.907,17.559,7.552,22.9,10.774,29.659,14.854l1.873,1.129a86.3,86.3,0,0,0,22.776,8.78c1.08.211,2.194.46,3.325.755.92-4.354,2.62-8.651,5.757-10.158a5.814,5.814,0,0,1,5.856.534c5.014,3.128,1.537,11.026-.5,14.754a27.213,27.213,0,0,1,8.834,11.846c4.142,10.19,13.359,22.1,17.294,27.179.59.762,1.076,1.39,1.431,1.862,9.84,13.108,9.252,16.966,9.059,18.234a7.509,7.509,0,0,1-3.819,5.666c-3.763,2.031-9.51,1.221-17.568-2.475-11.246-5.16-18.8-8.461-26.268-9.386.21,6.252,1.106,14.722,2.691,16.735a22.9,22.9,0,0,0,3.338,3.043c2.829,2.286,6.349,5.131,4.4,8.467a8.562,8.562,0,0,1-3.4,3.273c4.382,5.5,6.815,13.011,5.757,18.966a3.144,3.144,0,0,0,0,.565q-.429,1.369-.859,2.738c-.2.322-.406.64-.594.968a10.054,10.054,0,0,1-5.613,4.311,28.207,28.207,0,0,1-13.569,1.868,49.122,49.122,0,0,0-9.69-.431,7.928,7.928,0,0,1-4.427-.8c-2.089-1.255-3.685-.714-5.428.434a1.121,1.121,0,0,0-.654,1.091,4.8,4.8,0,0,1-4.87,4.92c-.185,0-.371.033-.556.051l-1.643-.516a5.2,5.2,0,0,1-2.584-4.7c.01-.219-.23-.5-.425-.668a4.836,4.836,0,0,1-.89-6.749,4.9,4.9,0,0,1,6.751-.992c.271.178.715.092,1.08.125.027,0,.056-.029.085-.04,1.808-.677,3.005-1.6,3.029-3.9a7.712,7.712,0,0,1,2.559-5.319,23.224,23.224,0,0,0,4.5-6.678,26.162,26.162,0,0,1,7.312-8.966,18,18,0,0,1-.783-1.885,7.693,7.693,0,0,0-1.932-3.34c-8.407-7.843-16.594-23.661-17.834-26.109-.261-.023-.521-.041-.78-.052-.081.024-.161.054-.245.073l-4.389,1.018a4.014,4.014,0,0,0-1.091,3.052c-.035,2.177-.175,4.888-.325,7.758-.295,5.685-.842,16.2.261,18.107,2.362,1.584,4.39,2.5,9.126,4.381,2.217.881,3.561,3.537,3.2,6.317-.446,3.4-3.161,5.724-7.262,6.209-6.839.812-19.571,2.319-23.206-7.347-.985-2.617-1.933-5.327-2.77-7.718-1.405-4.011-3.152-9.005-3.908-9.84a17.57,17.57,0,0,1-1.716-2.68c-2.356-4.061-7.259-12.513-12.921-12.707-1.008-.035-1.974-.063-2.921-.089a96.839,96.839,0,0,0-3.935,13.081c.234.4,1.372,1.594,6.869,3.848a6.623,6.623,0,0,1,4.249,7.351,7.793,7.793,0,0,1-7.372,6.379c-1.716.108-3.475.186-5.2.186-5.17,0-10.1-.7-12.94-3.376a6.96,6.96,0,0,1-2.213-5.216c.014-3.973-1.778-5.2-4.045-6.742-1.855-1.266-4.162-2.84-4.541-6.064-.175-1.479-.491-3.451-.884-5.7-3.193,5.321-8,19.816-8.16,21.908.407,1.127,4.919,4.355,12.731,6.973,3.579,1.2,5.528,3.769,5.213,6.875a8.3,8.3,0,0,1-7.222,6.942c-.591.072-1.386.2-2.333.349a83.517,83.517,0,0,1-12.879,1.286c-6.837,0-13.562-1.575-15.614-7.692-1.482-4.42-4.668-8.565-7.479-12.223-3.489-4.539-6.5-8.46-6.214-12.44.457-6.289,1.668-22.993-6.653-28.084-4.445-2.719-8-2.713-12.686.021-1.83,1.069-4.27,4.352-7.095,8.154-7.228,9.725-19.1,25.683-41.665,33.274a148.036,148.036,0,0,0,137.273,93.029c81.5,0,147.8-66.3,147.8-147.8s-66.3-147.8-147.8-147.8-147.8,66.3-147.8,147.8a147.944,147.944,0,0,0,2.887,29.118C2520.378,407.354,2522.21,401.045,2524.691,392.459Zm154.535,101.663c-3.238,1.652-16.463,7.8-27.524,4.145a.63.63,0,0,1-.332-1.022,32.817,32.817,0,0,0,7.3-19.008l-.4.333.4-.333c.01-.24.014-.483.017-.726l-51.749,7.451a3.628,3.628,0,1,1-1.034-7.182l52.022-7.49-.015-.068-.9-.4.9.4a33.606,33.606,0,0,0-1.347-4.425.718.718,0,0,1,.65-.918l12.836-1.848a.707.707,0,0,1,.877.745,27.74,27.74,0,0,0-.385,4.51l1.163-.975-1.163.975c0,.063,0,.124,0,.187l.811-.116a3.628,3.628,0,1,1,1.034,7.182l-1.106.159c.032.159.07.322.105.484l.854.377-.854-.377a42.607,42.607,0,0,0,8.125,16.957A.649.649,0,0,1,2679.226,494.122Z" transform="translate(-242.561 7.702)" fill="none"/><path d="M2738.439,467.044a12.981,12.981,0,0,1-4.127-2.247,12.981,12.981,0,0,0,4.127,2.247,6.16,6.16,0,0,0,6.516-1.2A6.16,6.16,0,0,1,2738.439,467.044Z" transform="translate(-242.561 7.702)" fill="none"/><path d="M2637.054,414.634c-.159,0-.268,0-.348-.008v.007l-.989-.136c-.049-.012-.093-.037-.142-.051a47.652,47.652,0,0,0-7.571.967c.56,3.1,1.019,5.832,1.251,7.806.132,1.126.832,1.7,2.65,2.941,2.527,1.724,5.988,4.085,5.967,10.394a2.526,2.526,0,0,0,.829,2c2.92,2.751,11.9,2.186,14.851,2a3.372,3.372,0,0,0,3.3-2.7,2.236,2.236,0,0,0-1.576-2.564c-4.77-1.955-9.838-4.352-9.6-8.058.1-1.593,1.743-7.587,3.686-13.038l-.98-.013C2640.461,414.536,2637.955,414.634,2637.054,414.634Z" transform="translate(-242.561 7.702)" fill="#fce5c4"/><path d="M2647.872,427.368c-.144,2.279,4.875,4.5,8.243,5.883,5.1,2.091,3.228,9.143-2.427,9.5-5.025.316-18.042,1.077-18.018-6.2.03-8.922-7.983-7.812-8.6-13.071-.219-1.868-.648-4.437-1.178-7.382a2.96,2.96,0,0,0-1.068.73,10.365,10.365,0,0,0-.823,1.21c.393,2.248.709,4.22.884,5.7.379,3.224,2.686,4.8,4.541,6.064,2.267,1.547,4.059,2.769,4.045,6.742a6.96,6.96,0,0,0,2.213,5.216c2.844,2.68,7.77,3.376,12.94,3.376,1.73,0,3.489-.078,5.2-.186a7.793,7.793,0,0,0,7.372-6.379,6.623,6.623,0,0,0-4.249-7.351c-5.5-2.254-6.635-3.447-6.869-3.848a96.839,96.839,0,0,1,3.935-13.081q-1.2-.031-2.328-.055C2649.725,419.65,2647.961,425.958,2647.872,427.368Z" transform="translate(-242.561 7.702)" fill="#47280a"/><path d="M2645.675,427.229c-.233,3.706,4.835,6.1,9.6,8.058a2.236,2.236,0,0,1,1.576,2.564,3.372,3.372,0,0,1-3.3,2.7c-2.952.184-11.931.749-14.851-2a2.526,2.526,0,0,1-.829-2c.021-6.309-3.44-8.67-5.967-10.394-1.818-1.239-2.518-1.815-2.65-2.941-.232-1.974-.691-4.709-1.251-7.806a11.328,11.328,0,0,0-2.113.681c.53,2.945.959,5.514,1.178,7.382.619,5.259,8.632,4.149,8.6,13.071-.024,7.279,12.993,6.518,18.018,6.2,5.655-.355,7.525-7.407,2.427-9.5-3.368-1.381-8.387-3.6-8.243-5.883.089-1.41,1.853-7.718,3.816-13.137q-1.2-.025-2.327-.04C2647.418,419.642,2645.776,425.636,2645.675,427.229Z" transform="translate(-242.561 7.702)" fill="#47280a"/><path d="M2746.419,347.393c-.978-.61-1.428-.393-1.62-.3-1.084.521-2.516,2.816-3.449,7.542a30.78,30.78,0,0,1,3.161,1.43C2746.483,352.333,2747.669,348.173,2746.419,347.393Z" transform="translate(-242.561 7.702)" fill="#fce5c4"/><path d="M2747.583,345.525c3.311,2.065.481,8.488-1.171,11.62q.933.587,1.838,1.267c2.035-3.728,5.512-11.626.5-14.754a5.814,5.814,0,0,0-5.856-.534c-3.137,1.507-4.837,5.8-5.757,10.158.7.183,1.41.391,2.122.617C2740.759,346.605,2743.762,343.141,2747.583,345.525Z" transform="translate(-242.561 7.702)" fill="#47280a"/><path d="M2744.8,347.091c.192-.091.642-.308,1.62.3,1.25.78.064,4.94-1.908,8.67.639.334,1.275.689,1.9,1.082,1.652-3.132,4.482-9.555,1.171-11.62-3.821-2.384-6.824,1.08-8.326,8.374.7.221,1.4.464,2.093.734C2742.283,349.907,2743.715,347.612,2744.8,347.091Z" transform="translate(-242.561 7.702)" fill="#47280a"/><path d="M2735.93,388.606a.167.167,0,0,0,.112-.027c.007-.009-.02-.034-.065-.04a.174.174,0,0,0-.112.026l.021.028A.164.164,0,0,0,2735.93,388.606Z" transform="translate(-242.561 7.702)" fill="#fce5c4"/><path d="M2567.236,395.233c4.728-20.22,1.84-35.864-8.585-46.495a4.136,4.136,0,0,1-.771-1.112l-.3.111c-15.458,5.682-24.162,31-27.022,39.324l-.171.5c-.732,2.126-1.3,4.1-1.855,6.012-2.682,9.278-4.816,16.633-21.314,28.431a146.5,146.5,0,0,0,5.281,17.641c21.457-7.136,32.487-21.96,39.893-31.926,3.34-4.494,5.753-7.741,8.29-9.223a18.312,18.312,0,0,1,6.458-2.434A3.645,3.645,0,0,1,2567.236,395.233Z" transform="translate(-242.561 7.702)" fill="#fce5c4"/><path d="M2735.886,388.593l-.022-.027a.058.058,0,0,0-.016.018l.006,0A.236.236,0,0,1,2735.886,388.593Z" transform="translate(-242.561 7.702)" fill="#fce5c4"/><path d="M2704.187,401.229a4.1,4.1,0,0,1,.906,2.795c1.342.2,2.582.469,3.614.7l22.071,2.362c.464,0,.929,0,1.392-.014,10.166-.209,18.722,3.471,32.98,10.011a39.921,39.921,0,0,0,7.563,2.717c-.02-1.694,1.215-3.779,3.29-5.262a8.217,8.217,0,0,1,3.814-1.537,67.756,67.756,0,0,0-7.208-11.3c-.346-.461-.82-1.073-1.394-1.815-4.037-5.213-13.489-17.423-17.838-28.122-3.514-8.643-9.528-12.285-15.664-14.162l-1.253-.148c.008-.067.018-.137.026-.2-1.155-.312-2.309-.575-3.446-.8a89.617,89.617,0,0,1-24.063-9.275l-1.884-1.134c-6.58-3.971-11.794-7.116-28.8-14.441a5.076,5.076,0,0,1-.715,1.486C2674.438,337.45,2667.066,355.253,2704.187,401.229Zm29.4-15.807a3.855,3.855,0,0,1,5.506.794,4.033,4.033,0,0,1-.765,5.506h0a3.825,3.825,0,0,1-2.36.817,3.883,3.883,0,0,1-3.146-1.611A4.033,4.033,0,0,1,2733.583,385.422Zm-33.017-30.186a8.325,8.325,0,0,1,5.846-5.6,6.182,6.182,0,0,1,5.306.681c5.919,3.7,8.1,17.534,8.327,19.1l-4.355.639c-.755-5.139-3.135-14.027-6.3-16.006a1.8,1.8,0,0,0-1.636-.22,3.934,3.934,0,0,0-2.969,2.679c-1.1,3.66,1.962,10.488,8.2,18.264l-3.433,2.756C2704.341,371.036,2698.555,361.9,2700.566,355.236Z" transform="translate(-242.561 7.702)" fill="#fce5c4"/><path d="M2674.183,398.671c-5.007.689-9.435,4.951-13.164,12.661,5.826,2.6,10.062,9.883,12.3,13.743.484.834,1.033,1.781,1.227,2.009,1.234,1.364,2.465,4.778,4.712,11.2.87,2.486,1.77,5.057,2.738,7.63,2.336,6.211,11.027,5.726,18.99,4.783,2.23-.264,3.567-1.243,3.765-2.756a2.142,2.142,0,0,0-.708-2.078c-4.645-1.846-7.148-2.928-10.023-4.875-2.625-1.778-2.59-7.929-1.882-21.54.147-2.833.286-5.509.32-7.613a9.841,9.841,0,0,1,.5-3.044,4.058,4.058,0,0,1-1.044-.842C2689.757,405.495,2682.1,397.587,2674.183,398.671Z" transform="translate(-242.561 7.702)" fill="#fce5c4"/><path d="M2620.414,398.5c-.032-.187-.062-.342-.089-.473a3.055,3.055,0,0,1-1.334-1.474l1.991-.938h0l1.99-.938a1.692,1.692,0,0,0-1.36-.744c-.009,0-.014,0-.008,0l.008,0,.027,0c1.923,0,2.6,1.526,2.915,2.83l9.8,3.14c-.075-.679-.175-1.4-.309-2.177-1.1-6.361-12.3-17.9-25.508-20.807-7.013-1.545-16.962-1.077-24.556,9.906a16.494,16.494,0,0,0-2.845,8.076,15.639,15.639,0,0,1-.892,3.987,4.687,4.687,0,0,1-.7,1.186c8.146,7.333,7,23.174,6.491,30.233-.179,2.46,2.529,5.983,5.4,9.712,3,3.907,6.405,8.334,8.1,13.39,2.4,7.156,17.587,4.751,24.073,3.725,1-.159,1.848-.292,2.475-.368a4.29,4.29,0,0,0,3.725-3.374c.149-1.469-1.28-2.267-2.5-2.677-2.606-.873-15.6-5.5-15.463-10.8.081-3.178,6.267-21.188,9.89-25.617a5.46,5.46,0,0,1,1.382-1.164q-.328-1.764-.675-3.6C2621.746,405.874,2621.036,402.1,2620.414,398.5Z" transform="translate(-242.561 7.702)" fill="#fce5c4"/><path d="M2633.5,408.395a16.724,16.724,0,0,0,.852-8.5l-9.8-3.14c.087.359.147.7.2.991.617,3.572,1.324,7.328,2.007,10.961q.273,1.446.535,2.849a44.381,44.381,0,0,1,5.789-.9A6.317,6.317,0,0,1,2633.5,408.395Z" transform="translate(-242.561 7.702)" fill="#fce5c4"/><path d="M2620.982,395.612h0Z" transform="translate(-242.561 7.702)" fill="#fce5c4"/><path d="M2620.982,395.612l-1.991.938a3.055,3.055,0,0,0,1.334,1.474c.027.131.057.286.089.473.622,3.6,1.332,7.377,2.018,11.026q.347,1.836.675,3.6a10.912,10.912,0,0,1,2.062-.953c-.835-4.471-1.789-9.431-2.586-14.051C2622.016,394.842,2621.612,396.947,2620.982,395.612Z" transform="translate(-242.561 7.702)" fill="#fce5c4"/><path d="M2621.612,393.929l-.008,0C2621.6,393.929,2621.6,393.929,2621.612,393.929Z" transform="translate(-242.561 7.702)" fill="#fce5c4"/><path d="M2621.639,393.927l-.027,0a1.692,1.692,0,0,1,1.36.744l-1.99.938,3.572,1.146C2624.239,395.453,2623.562,393.927,2621.639,393.927Z" transform="translate(-242.561 7.702)" fill="#fce5c4"/><path d="M2626.758,408.709c-.683-3.633-1.39-7.389-2.007-10.961-.05-.289-.11-.632-.2-.991l-3.572-1.146h0c.63,1.335,1.034-.77,1.6,2.51.8,4.62,1.751,9.58,2.586,14.051a20.6,20.6,0,0,1,2.124-.615Q2627.03,410.152,2626.758,408.709Z" transform="translate(-242.561 7.702)" fill="#fce5c4"/><path d="M2737.713,357.6c-.409-.125-.817-.242-1.227-.352-.008.067-.018.137-.026.2Z" transform="translate(-242.561 7.702)" fill="#fce5c4"/><path d="M2745.419,358.9h-.006a24.9,24.9,0,0,1,9.817,12.114c4.846,11.921,16.152,25.724,18.979,29.488,2.1,2.8,6.2,8.478,7.925,12.845a2.515,2.515,0,0,1,.985.83c.777,1.166.479,2.88-.6,4.477a5.479,5.479,0,0,1-4.592,3.49,4.907,4.907,0,0,1-3.848-.04,36.752,36.752,0,0,1-9.763-3.2c-11.682-5.359-19.364-8.71-27.15-9.6l.006.409c.007.516.023,1.063.041,1.62,7.463.925,15.022,4.226,26.268,9.386,8.058,3.7,13.8,4.506,17.568,2.475a7.509,7.509,0,0,0,3.819-5.666c.193-1.268.781-5.126-9.059-18.234-.355-.472-.841-1.1-1.431-1.862-3.935-5.084-13.152-16.989-17.294-27.179a27.213,27.213,0,0,0-8.834-11.846c-.4.733-.746,1.308-.959,1.651Z" transform="translate(-242.561 7.702)" fill="#47280a"/><path d="M2678.351,328.458a4.64,4.64,0,0,1,.191,1.074l.169.07c19.046,8.192,23.688,11.3,31.294,15.86a88.366,88.366,0,0,0,23.42,9.028c1.078.211,2.2.464,3.343.766.106-.653.227-1.314.367-1.974-1.131-.3-2.245-.544-3.325-.755a86.3,86.3,0,0,1-22.776-8.78l-1.873-1.129c-6.761-4.08-12.1-7.3-29.659-14.854-.73-.314-1.449-.612-2.166-.907A3.624,3.624,0,0,1,2678.351,328.458Z" transform="translate(-242.561 7.702)" fill="#47280a"/><path d="M2694.891,409.327a7.672,7.672,0,0,0-.432,2.537c-.134,8.5-1.941,25.686.683,27.464s4.852,2.77,9.642,4.672c2.784,1.107,3.505,7.844-3.561,8.681s-18.07,1.987-21.1-6.065-5.553-16.522-7.067-18.2c-1.347-1.489-6.282-12.8-13.339-15.475a4.05,4.05,0,0,1-2.138.813l-3.428.157c-.046.122-.091.247-.137.37.947.026,1.913.054,2.921.089,5.662.194,10.565,8.646,12.921,12.707a17.57,17.57,0,0,0,1.716,2.68c.756.835,2.5,5.829,3.908,9.84.837,2.391,1.785,5.1,2.77,7.718,3.635,9.666,16.367,8.159,23.206,7.347,4.1-.485,6.816-2.806,7.262-6.209.363-2.78-.981-5.436-3.2-6.317-4.736-1.881-6.764-2.8-9.126-4.381-1.1-1.9-.556-12.422-.261-18.107.15-2.87.29-5.581.325-7.758a4.014,4.014,0,0,1,1.091-3.052l-1.666.386A4.046,4.046,0,0,1,2694.891,409.327Z" transform="translate(-242.561 7.702)" fill="#47280a"/><path d="M2528.5,386.906c2.671-7.754,11.7-34.913,28.394-41.048l.595-.221a4.159,4.159,0,0,1,.1-.763,4.115,4.115,0,0,1,.921-1.757c-.8.3-1.574.592-2.311.863-17.244,6.339-26.413,33.015-29.426,41.78l-.17.495c-.765,2.221-1.351,4.246-1.917,6.2-2.481,8.586-4.313,14.895-18.387,25.266.144.717.3,1.432.452,2.146C2525.34,406.387,2524.273,399.174,2528.5,386.906Z" transform="translate(-242.561 7.702)" fill="#47280a"/><path d="M2555.608,410.1c2.825-3.8,5.265-7.085,7.095-8.154,4.684-2.734,8.241-2.74,12.686-.021,8.321,5.091,7.11,21.795,6.653,28.084-.288,3.98,2.725,7.9,6.214,12.44,2.811,3.658,6,7.8,7.479,12.223,2.052,6.117,8.777,7.692,15.614,7.692a83.517,83.517,0,0,0,12.879-1.286c.947-.15,1.742-.277,2.333-.349a8.3,8.3,0,0,0,7.222-6.942c.315-3.106-1.634-5.675-5.213-6.875-7.812-2.618-12.324-5.846-12.731-6.973.163-2.092,4.967-16.587,8.16-21.908q-.228-1.3-.487-2.718a3.021,3.021,0,0,0-.239.241c-3.365,4.114-9.371,21.752-9.438,24.4s7.235,6.553,14.1,8.854,3.533,9.306-1.615,9.934-25.355,5.227-28.687-4.707-14.04-17.727-13.594-23.882c.527-7.265,1.449-22.6-6.252-28.959a8.2,8.2,0,0,1-4.319-.536c-.482-.155-1.005-.323-1.572-.479-.9-.247-3.013-.836-4.1-2.213a15.9,15.9,0,0,0-6.1,2.252c-7.369,4.3-17.2,30.844-48.478,41.3.239.622.479,1.243.726,1.86C2536.508,435.786,2548.38,419.828,2555.608,410.1Z" transform="translate(-242.561 7.702)" fill="#47280a"/><path d="M2702.185,407.752c.259.011.519.029.78.052l-.149-.3A4,4,0,0,1,2702.185,407.752Z" transform="translate(-242.561 7.702)" fill="#47280a"/><path d="M2649.361,414.191l.02-.058-1,.045Z" transform="translate(-242.561 7.702)" fill="#47280a"/><path d="M2633.555,412.782c-.028-.054-.045-.111-.07-.166a43.683,43.683,0,0,0-5.831.887q.18.975.349,1.91a47.652,47.652,0,0,1,7.571-.967A3.273,3.273,0,0,1,2633.555,412.782Z" transform="translate(-242.561 7.702)" fill="#47280a"/><path d="M2625.89,416.094c-.114-.635-.232-1.282-.355-1.95a6.073,6.073,0,0,0-2.023,1.172q.258,1.414.487,2.718a10.365,10.365,0,0,1,.823-1.21A2.96,2.96,0,0,1,2625.89,416.094Z" transform="translate(-242.561 7.702)" fill="#47280a"/><path d="M2651.762,414.025c-.024.068-.049.137-.074.206q1.134.023,2.328.055c.046-.123.091-.248.137-.37Z" transform="translate(-242.561 7.702)" fill="#47280a"/><path d="M2627.654,413.5a16.794,16.794,0,0,0-2.119.641c.123.668.241,1.315.355,1.95a11.328,11.328,0,0,1,2.113-.681Q2627.833,414.479,2627.654,413.5Z" transform="translate(-242.561 7.702)" fill="#47280a"/><path d="M2649.361,414.191q1.129.015,2.327.04c.025-.069.05-.138.074-.206l-2.381.108Z" transform="translate(-242.561 7.702)" fill="#47280a"/><path d="M2745.413,358.9h.006l-.06-.038Z" transform="translate(-242.561 7.702)" fill="#47280a"/><path d="M2743.553,357.738c.334-.539.655-1.1.958-1.675a30.78,30.78,0,0,0-3.161-1.43c-.124.63-.24,1.3-.345,2.017a27.366,27.366,0,0,1,4.24,2.14Z" transform="translate(-242.561 7.702)" fill="#47280a"/><path d="M2745.422,358.9h0l1.872,1.164c.213-.343.559-.918.959-1.651q-.9-.681-1.838-1.267C2745.849,358.213,2745.422,358.9,2745.422,358.9Z" transform="translate(-242.561 7.702)" fill="#47280a"/><path d="M2738.9,355.884c.107-.693.23-1.349.362-1.985-.712-.226-1.421-.434-2.122-.617-.14.66-.261,1.321-.367,1.974Q2737.821,355.535,2738.9,355.884Z" transform="translate(-242.561 7.702)" fill="#47280a"/><path d="M2743.553,357.738l1.692,1.052.114.071.06.038h0s.427-.686.99-1.754c-.626-.393-1.262-.748-1.9-1.082C2744.208,356.636,2743.887,357.2,2743.553,357.738Z" transform="translate(-242.561 7.702)" fill="#47280a"/><path d="M2741.35,354.633c-.7-.27-1.4-.513-2.093-.734-.132.636-.255,1.292-.362,1.985.7.229,1.406.481,2.11.766C2741.11,355.932,2741.226,355.263,2741.35,354.633Z" transform="translate(-242.561 7.702)" fill="#47280a"/><path d="M2773.149,421.3a2.736,2.736,0,0,1-.436-1.5,39.921,39.921,0,0,1-7.563-2.717c-14.258-6.54-22.814-10.22-32.98-10.011-.463.009-.928.012-1.392.014l6.364.681.024,1.539c7.786.886,15.468,4.237,27.15,9.6a36.752,36.752,0,0,0,9.763,3.2A2.508,2.508,0,0,1,2773.149,421.3Z" transform="translate(-242.561 7.702)" fill="#47280a"/><path d="M2780.265,420.938a9.016,9.016,0,0,1-2.338,1.2,5.479,5.479,0,0,0,4.592-3.49A9.149,9.149,0,0,1,2780.265,420.938Z" transform="translate(-242.561 7.702)" fill="#47280a"/><path d="M2705.063,404.337l3.644.39c-1.032-.234-2.272-.5-3.614-.7C2705.088,404.128,2705.076,404.233,2705.063,404.337Z" transform="translate(-242.561 7.702)" fill="#47280a"/><path d="M2621.725,414.29c-3.623,4.429-9.809,22.439-9.89,25.617-.135,5.3,12.857,9.929,15.463,10.8,1.224.41,2.653,1.208,2.5,2.677a4.29,4.29,0,0,1-3.725,3.374c-.627.076-1.47.209-2.475.368-6.486,1.026-21.673,3.431-24.073-3.725-1.7-5.056-5.1-9.483-8.1-13.39-2.866-3.729-5.574-7.252-5.4-9.712.512-7.059,1.655-22.9-6.491-30.233a3.255,3.255,0,0,1-1.757,1.13c7.7,6.358,6.779,21.694,6.252,28.959-.446,6.155,10.263,13.948,13.594,23.882s23.538,5.334,28.687,4.707,8.48-7.634,1.615-9.934-14.166-6.205-14.1-8.854,6.073-20.287,9.438-24.4a3.021,3.021,0,0,1,.239-.241q-.2-1.071-.405-2.19A5.46,5.46,0,0,0,2621.725,414.29Z" transform="translate(-242.561 7.702)" fill="#47280a"/><path d="M2678.3,331.6c17,7.325,22.216,10.47,28.8,14.441l1.884,1.134a89.617,89.617,0,0,0,24.063,9.275c1.137.223,2.291.486,3.446.8.079-.65.171-1.317.282-1.995-1.143-.3-2.265-.555-3.343-.766a88.366,88.366,0,0,1-23.42-9.028c-7.606-4.562-12.248-7.668-31.294-15.86l-.169-.07A5.806,5.806,0,0,1,2678.3,331.6Z" transform="translate(-242.561 7.702)" fill="#47280a"/><path d="M2738.646,357.712l-.933-.109c6.136,1.877,12.15,5.519,15.664,14.162,4.349,10.7,13.8,22.909,17.838,28.122.574.742,1.048,1.354,1.394,1.815a67.756,67.756,0,0,1,7.208,11.3,4.1,4.1,0,0,1,2.317.341c-1.724-4.367-5.825-10.048-7.925-12.845-2.827-3.764-14.133-17.567-18.979-29.488a24.9,24.9,0,0,0-9.817-12.114l-6.767-1.185Z" transform="translate(-242.561 7.702)" fill="#47280a"/><path d="M2692.959,408.788a9.841,9.841,0,0,0-.5,3.044c-.034,2.1-.173,4.78-.32,7.613-.708,13.611-.743,19.762,1.882,21.54,2.875,1.947,5.378,3.029,10.023,4.875a2.142,2.142,0,0,1,.708,2.078c-.2,1.513-1.535,2.492-3.765,2.756-7.963.943-16.654,1.428-18.99-4.783-.968-2.573-1.868-5.144-2.738-7.63-2.247-6.419-3.478-9.833-4.712-11.2-.194-.228-.743-1.175-1.227-2.009-2.239-3.86-6.475-11.143-12.3-13.743-.017.035-.034.067-.05.1a4.164,4.164,0,0,1-1.25,1.512c7.057,2.678,11.992,13.986,13.339,15.475,1.514,1.673,4.038,10.143,7.067,18.2s14.031,6.9,21.1,6.065,6.345-7.574,3.561-8.681c-4.79-1.9-7.017-2.894-9.642-4.672s-.817-18.959-.683-27.464a7.672,7.672,0,0,1,.432-2.537A4.037,4.037,0,0,1,2692.959,408.788Z" transform="translate(-242.561 7.702)" fill="#47280a"/><path d="M2528.536,393.57c.552-1.911,1.123-3.886,1.855-6.012l.171-.5c2.86-8.321,11.564-33.642,27.022-39.324l.3-.111a4.067,4.067,0,0,1-.391-1.989l-.595.221c-16.69,6.135-25.723,33.294-28.394,41.048-4.227,12.268-3.16,19.481-21.744,32.965.154.71.3,1.423.466,2.13C2523.72,410.2,2525.854,402.848,2528.536,393.57Z" transform="translate(-242.561 7.702)" fill="#47280a"/><path d="M2561.7,400.222a15.9,15.9,0,0,1,6.1-2.252,2.979,2.979,0,0,1-.655-1.911,18.312,18.312,0,0,0-6.458,2.434c-2.537,1.482-4.95,4.729-8.29,9.223-7.406,9.966-18.436,24.79-39.893,31.926.232.628.474,1.251.714,1.875C2544.5,431.066,2554.326,404.524,2561.7,400.222Z" transform="translate(-242.561 7.702)" fill="#47280a"/><path d="M2633.082,410.657a44.381,44.381,0,0,0-5.789.9q.185.988.361,1.945a43.683,43.683,0,0,1,5.831-.887A4.7,4.7,0,0,1,2633.082,410.657Z" transform="translate(-242.561 7.702)" fill="#47280a"/><path d="M2625.535,414.144q-.178-.966-.366-1.971a10.912,10.912,0,0,0-2.062.953q.209,1.117.405,2.19A6.073,6.073,0,0,1,2625.535,414.144Z" transform="translate(-242.561 7.702)" fill="#47280a"/><path d="M2627.293,411.558a20.6,20.6,0,0,0-2.124.615q.188,1,.366,1.971a16.794,16.794,0,0,1,2.119-.641Q2627.477,412.546,2627.293,411.558Z" transform="translate(-242.561 7.702)" fill="#47280a"/><path d="M2745.245,358.79a27.366,27.366,0,0,0-4.24-2.14c-.062.425-.12.863-.173,1.32l-2.186-.258h0l6.767,1.185-.054-.037Z" transform="translate(-242.561 7.702)" fill="#47280a"/><path d="M2737.713,357.6l.933.109q.111-.943.249-1.828-1.073-.351-2.127-.628c-.111.678-.2,1.345-.282,1.995C2736.9,357.361,2737.3,357.478,2737.713,357.6Z" transform="translate(-242.561 7.702)" fill="#47280a"/><path d="M2745.245,358.79l.114.071Z" transform="translate(-242.561 7.702)" fill="#47280a"/><path d="M2740.832,357.97c.053-.457.111-.895.173-1.32-.7-.285-1.408-.537-2.11-.766q-.138.885-.249,1.828Z" transform="translate(-242.561 7.702)" fill="#47280a"/><path d="M2735.417,392.5a3.867,3.867,0,0,0,.546.039,3.825,3.825,0,0,0,2.36-.817h0a4.033,4.033,0,0,0,.765-5.506,3.855,3.855,0,0,0-5.506-.794,4.033,4.033,0,0,0-.766,5.507A3.858,3.858,0,0,0,2735.417,392.5Zm.56-3.962c.045.006.072.031.065.04a.167.167,0,0,1-.112.027.164.164,0,0,1-.044-.013l-.021-.028A.174.174,0,0,1,2735.977,388.539Zm-.113.027.022.027a.236.236,0,0,0-.032-.012l-.006,0A.058.058,0,0,1,2735.864,388.566Z" transform="translate(-242.561 7.702)" fill="#47280a"/><path d="M2712.983,374.771c-6.241-7.776-9.307-14.6-8.2-18.264a3.934,3.934,0,0,1,2.969-2.679,1.8,1.8,0,0,1,1.636.22c3.17,1.979,5.55,10.867,6.3,16.006l4.355-.639c-.229-1.566-2.408-15.4-8.327-19.1a6.182,6.182,0,0,0-5.306-.681,8.325,8.325,0,0,0-5.846,5.6c-2.011,6.665,3.775,15.8,8.984,22.291Z" transform="translate(-242.561 7.702)" fill="#47280a"/><path d="M2772.713,419.8c3.611.832,5.508.374,6.436-.126a3.511,3.511,0,0,0,1.763-2.747,2.747,2.747,0,1,0-4.909-2.389C2773.928,416.024,2772.693,418.109,2772.713,419.8Z" transform="translate(-242.561 7.702)" fill="#47280a"/><path d="M2782.89,417.232a6.807,6.807,0,0,1-.371,1.42c1.079-1.6,1.377-3.311.6-4.477a2.515,2.515,0,0,0-.985-.83A8.115,8.115,0,0,1,2782.89,417.232Z" transform="translate(-242.561 7.702)" fill="#47280a"/><path d="M2774.079,422.1a4.907,4.907,0,0,0,3.848.04A12.75,12.75,0,0,1,2774.079,422.1Z" transform="translate(-242.561 7.702)" fill="#47280a"/><path d="M2779.817,413a8.208,8.208,0,0,1,1.1,3.926,3.511,3.511,0,0,1-1.763,2.747c-.928.5-2.825.958-6.436.126a2.736,2.736,0,0,0,.436,1.5,2.508,2.508,0,0,0,.93.8,12.75,12.75,0,0,0,3.848.04,9.016,9.016,0,0,0,2.338-1.2,9.149,9.149,0,0,0,2.254-2.286,6.807,6.807,0,0,0,.371-1.42,8.115,8.115,0,0,0-.756-3.887A4.1,4.1,0,0,0,2779.817,413Z" transform="translate(-242.561 7.702)" fill="#47280a"/><path d="M2723.8,430.7a11.837,11.837,0,0,1,3.06,5.037c.129.351.246.666.366.953,3.485-1.823,7-1.376,10.436.482a19.41,19.41,0,0,1,3.311,2.3,4.807,4.807,0,0,0,2.737-1.9,17.841,17.841,0,0,0-3.236-3.03,25.583,25.583,0,0,1-4.03-3.743c-2.772-3.518-3.457-14.217-3.626-19.061l-6.912-.74a111.394,111.394,0,0,1-13.516-1.446l-3.731-.4C2711.673,414.655,2717.806,425.1,2723.8,430.7Z" transform="translate(-242.561 7.702)" fill="#fce5c4"/><path d="M2712.392,409.549a111.394,111.394,0,0,0,13.516,1.446Z" transform="translate(-242.561 7.702)" fill="#fce5c4"/><path d="M2722.3,432.3c-7.119-6.642-14.255-19.554-16.663-24.127-.85-.157-1.763-.3-2.673-.373,1.24,2.448,9.427,18.266,17.834,26.109a7.693,7.693,0,0,1,1.932,3.34,18,18,0,0,0,.783,1.885c.584-.457,1.194-.888,1.82-1.3C2724.562,436.138,2724.248,434.121,2722.3,432.3Z" transform="translate(-242.561 7.702)" fill="#47280a"/><path d="M2738.175,429.435c2.544,3.229,9.109,6.4,7.566,9.037a6.5,6.5,0,0,1-2.994,2.674c.52.546,1.021,1.113,1.5,1.71a8.562,8.562,0,0,0,3.4-3.273c1.95-3.336-1.57-6.181-4.4-8.467a22.9,22.9,0,0,1-3.338-3.043c-1.585-2.013-2.481-10.483-2.691-16.735-.734-.091-1.468-.153-2.2-.2C2735.145,415.1,2735.742,426.346,2738.175,429.435Z" transform="translate(-242.561 7.702)" fill="#47280a"/><path d="M2709.121,404.821l.317.072a103.574,103.574,0,0,0,21.34,2.2l-22.071-2.362Z" transform="translate(-242.561 7.702)" fill="#47280a"/><path d="M2737.166,409.309a36.616,36.616,0,0,0-4.952-.234c-1.18.026-2.352.025-3.51,0l6.267.671s.008.522.038,1.39c.736.044,1.47.106,2.2.2-.018-.557-.034-1.1-.041-1.62Z" transform="translate(-242.561 7.702)" fill="#47280a"/><path d="M2704.784,406.521l5.409.579c-.428-.088-.836-.174-1.2-.256-1.175-.266-2.78-.645-4.5-.885a4.033,4.033,0,0,1-1.684,1.549l.149.3c.91.078,1.823.216,2.673.373C2705.088,407.132,2704.784,406.521,2704.784,406.521Z" transform="translate(-242.561 7.702)" fill="#47280a"/><path d="M2730.778,407.089a103.574,103.574,0,0,1-21.34-2.2l-.317-.072-.414-.094-3.644-.39a3.891,3.891,0,0,1-.563,1.622c1.716.24,3.321.619,4.5.885.361.082.769.168,1.2.256l18.511,1.98c1.158.02,2.33.021,3.51,0a36.616,36.616,0,0,1,4.952.234l-.024-1.539Z" transform="translate(-242.561 7.702)" fill="#47280a"/><path d="M2727.228,436.685c-.12-.287-.237-.6-.366-.953a11.837,11.837,0,0,0-3.06-5.037c-6-5.594-12.129-16.04-15.141-21.546l3.731.4c-1.436-.247-2.736-.5-3.839-.753l-.321-.073c-.7-.16-1.6-.364-2.594-.546,2.408,4.573,9.544,17.485,16.663,24.127,1.947,1.817,2.261,3.834,3.033,5.531.461-.306.928-.607,1.412-.889C2726.906,436.852,2727.067,436.769,2727.228,436.685Z" transform="translate(-242.561 7.702)" fill="#47280a"/><path d="M2725.908,410.995l6.912.74c.169,4.844.854,15.543,3.626,19.061a25.583,25.583,0,0,0,4.03,3.743,17.841,17.841,0,0,1,3.236,3.03,4.807,4.807,0,0,1-2.737,1.9,22.943,22.943,0,0,1,1.772,1.679,6.5,6.5,0,0,0,2.994-2.674c1.543-2.639-5.022-5.808-7.566-9.037-2.433-3.089-3.03-14.34-3.166-18.294-.912-.055-1.826-.084-2.752-.066C2730.129,411.124,2728,411.089,2725.908,410.995Z" transform="translate(-242.561 7.702)" fill="#47280a"/><path d="M2704.784,406.521s.3.611.854,1.656c.989.182,1.893.386,2.594.546l.321.073c1.1.25,2.4.506,3.839.753l13.516,1.446c2.089.094,4.221.129,6.349.08.926-.018,1.84.011,2.752.066-.03-.868-.038-1.39-.038-1.39l-6.267-.671a106.682,106.682,0,0,1-18.511-1.98Z" transform="translate(-242.561 7.702)" fill="#47280a"/><path d="M2728.7,409.08l-18.511-1.98A106.682,106.682,0,0,0,2728.7,409.08Z" transform="translate(-242.561 7.702)" fill="#47280a"/><path d="M2653.461,405.231l3.476,2.7a9.608,9.608,0,0,0-.888,1.492l1.025-.047c4.406-9.1,9.96-14.165,16.509-15.066,9.937-1.374,18.822,7.565,21.509,10.584l2.431-.563a10.756,10.756,0,0,1,1.975-.458l.983-.228c-37.7-46.833-31.078-66.736-26.47-73.13a1.166,1.166,0,0,0,.134-.418c-2.937-1.041-9.015-3.189-9.9-3.461-3.046-.935-12.522-2.848-13.13-2.962-5.215-.8-14.188-.791-16.809-.772h-.176c-7.243-.119-18.543,3-19.2,3.188-4.235,1.455-16.756,5.856-16.882,5.9-.26.1-14.334,5.574-24.871,9.672-3.941,1.577-7.687,3.065-11.034,4.354,11.139,11.63,14.352,28.272,9.55,49.486a13.913,13.913,0,0,0,1.374.436c.63.174,1.213.36,1.749.532.467.15,1.057.34,1.462.432a14.917,14.917,0,0,0,.5-2.6,20.8,20.8,0,0,1,3.586-9.992c5.648-8.168,13.461-12.452,22.443-12.452a31.062,31.062,0,0,1,6.68.751c14.447,3.179,27.4,15.7,28.9,24.354a36.322,36.322,0,0,1,.5,4.382l14.132,4.53C2653.165,405.641,2653.315,405.418,2653.461,405.231Z" transform="translate(-242.561 7.702)" fill="#ea875c"/><path d="M2637.591,410.018a1.369,1.369,0,0,0-.066.217c1.806-.063,7.78-.326,13.6-.589a27.407,27.407,0,0,1,1.89-3.766l-14.132-4.53A19.621,19.621,0,0,1,2637.591,410.018Z" transform="translate(-242.561 7.702)" fill="#ea875c"/><path d="M2653.565,409.536l2.484-.113a9.608,9.608,0,0,1,.888-1.492l-3.476-2.7c-.146.187-.3.41-.448.649l2.186.7A15.926,15.926,0,0,0,2653.565,409.536Z" transform="translate(-242.561 7.702)" fill="#ea875c"/><path d="M2655.2,406.581l-2.186-.7a27.407,27.407,0,0,0-1.89,3.766l2.442-.11A15.926,15.926,0,0,1,2655.2,406.581Z" transform="translate(-242.561 7.702)" fill="#ea875c"/><path d="M2562.1,345.97c.014.015.027.032.041.047,3.347-1.289,7.093-2.777,11.034-4.354Z" transform="translate(-242.561 7.702)" fill="#ea875c"/><path d="M2699.5,403.873a10.756,10.756,0,0,0-1.975.458Z" transform="translate(-242.561 7.702)" fill="#ea875c"/><path d="M2618.151,320.948c14.612-2.937,32.4-5.1,59.185,5.909a3.276,3.276,0,0,0-1.125-.7c-.964-.343-9.457-3.358-10.673-3.732-3.335-1.023-13.38-3.047-13.7-3.1-5.6-.862-14.865-.853-17.571-.833h-.053c-8.282-.139-20.566,3.373-20.671,3.409-4.2,1.445-16.833,5.883-16.926,5.917-.072.023-.1.033-36.393,14.149a4.056,4.056,0,0,0-1.711,1.141c5.083-1.921,11.343-4.433,17.925-7.075C2592.14,329.742,2609.934,322.6,2618.151,320.948Z" transform="translate(-242.561 7.702)" fill="#47280a"/><path d="M2697.7,408.69c-.056.044-.094.105-.146.153l4.389-1.018c.084-.019.164-.049.245-.073A6.976,6.976,0,0,0,2697.7,408.69Z" transform="translate(-242.561 7.702)" fill="#47280a"/><path d="M2636.705,414.633v-.007c.08.005.189.008.348.008.9,0,3.407-.1,11.327-.456-5.391-.054-9.567.057-12.807.268.049.014.093.039.142.051Z" transform="translate(-242.561 7.702)" fill="#47280a"/><path d="M2581.132,394.895a16.494,16.494,0,0,1,2.845-8.076c7.594-10.983,17.543-11.451,24.556-9.906,13.207,2.906,24.4,14.446,25.508,20.807.134.776.234,1.5.309,2.177l2.28.731c-.079-1-.213-2.088-.421-3.284-2.294-13.23-35.988-37.889-54.042-11.777-3.776,5.461-2.738,9.51-3.962,12.474a2.149,2.149,0,0,1-.425.676,14.033,14.033,0,0,1,1.763,1.351,4.687,4.687,0,0,0,.7-1.186A15.639,15.639,0,0,0,2581.132,394.895Z" transform="translate(-242.561 7.702)" fill="#47280a"/><path d="M2702.474,402.611a1.891,1.891,0,0,1,.414,1.176c.749.049,1.491.13,2.205.237a4.1,4.1,0,0,0-.906-2.795c-37.121-45.976-29.749-63.779-26.6-68.14a5.076,5.076,0,0,0,.715-1.486l-.376-.162c-.563-.242-1.115-.469-1.669-.7a3.085,3.085,0,0,1-.455,1.06C2671.748,337.418,2665.076,356.291,2702.474,402.611Z" transform="translate(-242.561 7.702)" fill="#47280a"/><path d="M2658.985,410.48c-.026.054-.066.1-.1.147a11.148,11.148,0,0,1,2.13.7c3.729-7.71,8.157-11.972,13.164-12.661,7.919-1.084,15.574,6.824,17.732,9.275a4.058,4.058,0,0,0,1.044.842,7.106,7.106,0,0,1,1.013-1.952,1.9,1.9,0,0,1-.406-.344C2689.773,402.182,2671.745,383.938,2658.985,410.48Z" transform="translate(-242.561 7.702)" fill="#47280a"/><path d="M2569.374,395.911a.961.961,0,0,1,0-.177c2.167-9.268,6.6-32.472-9.157-48.538a1.856,1.856,0,0,1-.261-.347q-1.077.406-2.081.777a4.136,4.136,0,0,0,.771,1.112c10.425,10.631,13.313,26.275,8.585,46.495a3.645,3.645,0,0,0-.092.826,13.316,13.316,0,0,1,2.014-.157C2569.23,395.9,2569.3,395.91,2569.374,395.911Z" transform="translate(-242.561 7.702)" fill="#47280a"/><path d="M2633.5,408.395a6.317,6.317,0,0,0-.416,2.262q1.051-.1,2.205-.184a4.031,4.031,0,0,1,.257-1.267,18.161,18.161,0,0,0,1.086-8.578l-2.28-.731A16.724,16.724,0,0,1,2633.5,408.395Z" transform="translate(-242.561 7.702)" fill="#47280a"/><path d="M2560.978,344.044s36.29-14.114,36.337-14.13l.944-.331c5.99-2.278,11.465-4.235,15.739-5.5l.262-.09c.02-.007.461-.133,1.216-.332q1.245-.342,2.312-.584c4.166-1.006,11.185-2.47,16.388-2.374h.022a81.9,81.9,0,0,1,16.642.71c.227.031.45.062.666.1l.2.039a97,97,0,0,1,12.083,2.674c.42.111.794.216,1.107.312.12.037.34.111.606.2q4.438,1.353,9.272,3.252l.705.25a1.066,1.066,0,0,1,.137.083c.965.388,1.94.79,2.93,1.215a4.64,4.64,0,0,0-.191-1.074,3.624,3.624,0,0,0-1.015-1.6c-26.782-11.012-44.573-8.846-59.185-5.909-8.217,1.652-26.011,8.794-41.711,15.094-6.582,2.642-12.842,5.154-17.925,7.075a4.115,4.115,0,0,0-.921,1.757,4.159,4.159,0,0,0-.1.763c.838-.311,1.707-.637,2.619-.984A1.841,1.841,0,0,1,2560.978,344.044Z" transform="translate(-242.561 7.702)" fill="#47280a"/><path d="M2567.8,397.97c1.083,1.377,3.2,1.966,4.1,2.213.567.156,1.09.324,1.572.479a8.2,8.2,0,0,0,4.319.536,11.71,11.71,0,0,0-1.353-.976A13.145,13.145,0,0,0,2567.8,397.97Z" transform="translate(-242.561 7.702)" fill="#47280a"/><path d="M2654.778,412.3c-.207.516-.416,1.055-.625,1.613l3.428-.157a4.05,4.05,0,0,0,2.138-.813,8.454,8.454,0,0,0-2.713-.571C2656.327,412.352,2655.576,412.328,2654.778,412.3Z" transform="translate(-242.561 7.702)" fill="#47280a"/><path d="M2702.813,407.5l-.878-1.765c-.248-.006-.494,0-.739,0l-4.077.945a4.855,4.855,0,0,0-2.228,2.644,4.046,4.046,0,0,0,.994-.1l1.666-.386c.052-.048.09-.109.146-.153a6.976,6.976,0,0,1,4.488-.938,4,4,0,0,0,.631-.244Z" transform="translate(-242.561 7.702)" fill="#47280a"/><path d="M2644.389,412.15c-3.978.174-7.341.316-7.416.3l-.5-.062c-1.024.062-2.022.138-2.987.23.025.055.042.112.07.166a3.273,3.273,0,0,0,2.019,1.664c3.24-.211,7.416-.322,12.807-.268l1-.045c.236-.66.475-1.31.718-1.945C2648.283,412.156,2646.355,412.138,2644.389,412.15Z" transform="translate(-242.561 7.702)" fill="#47280a"/><path d="M2652.437,412.238q-.339.867-.675,1.787l2.391-.109c.209-.558.418-1.1.625-1.613C2654.04,412.28,2653.257,412.258,2652.437,412.238Z" transform="translate(-242.561 7.702)" fill="#47280a"/><path d="M2650.1,412.188c-.243.635-.482,1.285-.718,1.945l2.381-.108q.336-.918.675-1.787C2651.685,412.219,2650.9,412.2,2650.1,412.188Z" transform="translate(-242.561 7.702)" fill="#47280a"/><path d="M2660.969,411.434c.016-.035.033-.067.05-.1a11.148,11.148,0,0,0-2.13-.7,1.874,1.874,0,0,1-1.466.937l-2.389.109q-.127.307-.256.63c.8.025,1.549.049,2.228.072a8.454,8.454,0,0,1,2.713.571A4.164,4.164,0,0,0,2660.969,411.434Z" transform="translate(-242.561 7.702)" fill="#47280a"/><path d="M2651.7,321.546c1.259.249,8.428,1.7,12.083,2.674A97,97,0,0,0,2651.7,321.546Z" transform="translate(-242.561 7.702)" fill="#47280a"/><path d="M2557.88,347.626q1.005-.371,2.081-.777a1.919,1.919,0,0,1,.147-2.2c-.912.347-1.781.673-2.619.984A4.067,4.067,0,0,0,2557.88,347.626Z" transform="translate(-242.561 7.702)" fill="#47280a"/><path d="M2598.259,329.583c2.946-1.035,12.015-4.218,15.739-5.5C2609.724,325.348,2604.249,327.3,2598.259,329.583Z" transform="translate(-242.561 7.702)" fill="#47280a"/><path d="M2702.888,403.787a2.075,2.075,0,0,1-.018.315l2.193.235c.013-.1.025-.209.03-.313C2704.379,403.917,2703.637,403.836,2702.888,403.787Z" transform="translate(-242.561 7.702)" fill="#47280a"/><path d="M2615.476,323.66c.593-.157,1.383-.359,2.312-.584Q2616.723,323.316,2615.476,323.66Z" transform="translate(-242.561 7.702)" fill="#47280a"/><path d="M2665.5,324.732c1.957.661,7.349,2.57,9.272,3.252Q2669.934,326.076,2665.5,324.732Z" transform="translate(-242.561 7.702)" fill="#47280a"/><path d="M2676.252,330.742c.554.23,1.106.457,1.669.7l.376.162a5.806,5.806,0,0,0,.245-2.071c-.99-.425-1.965-.827-2.93-1.215C2676.336,328.7,2676.483,329.781,2676.252,330.742Z" transform="translate(-242.561 7.702)" fill="#47280a"/><path d="M2579.543,400.068a14.033,14.033,0,0,0-1.763-1.351c-.969,1.006-2.707.059-5.3-.656-1.278-.352-3.206-.91-3.1-2.15-.072,0-.144-.009-.216-.009a13.316,13.316,0,0,0-2.014.157,2.979,2.979,0,0,0,.655,1.911,13.145,13.145,0,0,1,8.634,2.252,11.71,11.71,0,0,1,1.353.976A3.255,3.255,0,0,0,2579.543,400.068Z" transform="translate(-242.561 7.702)" fill="#47280a"/><path d="M2701.443,405.681l-.247.057c.245-.005.491-.007.739,0l-.1-.2A1.875,1.875,0,0,1,2701.443,405.681Z" transform="translate(-242.561 7.702)" fill="#47280a"/><path d="M2693.972,406.836a7.106,7.106,0,0,0-1.013,1.952,4.037,4.037,0,0,0,1.932.539,4.855,4.855,0,0,1,2.228-2.644l-1.732.4A1.848,1.848,0,0,1,2693.972,406.836Z" transform="translate(-242.561 7.702)" fill="#47280a"/><path d="M2650.84,321.412a81.9,81.9,0,0,0-16.642-.71A146.854,146.854,0,0,1,2650.84,321.412Z" transform="translate(-242.561 7.702)" fill="#47280a"/><path d="M2636.472,412.386l-.243-.029c-.738-.177-.981-1.02-.942-1.884q-1.152.081-2.205.184a4.7,4.7,0,0,0,.4,1.959C2634.45,412.524,2635.448,412.448,2636.472,412.386Z" transform="translate(-242.561 7.702)" fill="#47280a"/><path d="M2644.389,412.15c1.966-.012,3.894.006,5.71.038l.114-.3Z" transform="translate(-242.561 7.702)" fill="#47280a"/><path d="M2652.437,412.238c.82.02,1.6.042,2.341.065q.129-.322.256-.63l-2.419.109C2652.556,411.932,2652.5,412.085,2652.437,412.238Z" transform="translate(-242.561 7.702)" fill="#47280a"/><path d="M2650.213,411.89l-.114.3c.8.014,1.586.031,2.338.05.059-.153.119-.306.178-.456Z" transform="translate(-242.561 7.702)" fill="#47280a"/><path d="M2702.813,407.5l0,.006a4.033,4.033,0,0,0,1.684-1.549,22.558,22.558,0,0,0-2.565-.222Z" transform="translate(-242.561 7.702)" fill="#47280a"/><path d="M2705.063,404.337l-2.193-.235a1.888,1.888,0,0,1-1.037,1.432l.1.2a22.558,22.558,0,0,1,2.565.222,3.891,3.891,0,0,0,.563-1.622Z" transform="translate(-242.561 7.702)" fill="#47280a"/><path d="M2673.583,394.31c-6.549.9-12.1,5.97-16.509,15.066l-1.025.047c-.14.278-.285.583-.432.906.482.015.964.03,1.457.047a9.852,9.852,0,0,1,1.815.251c.03-.05.07-.093.1-.147,12.76-26.542,30.788-8.3,34.581-3.988a1.9,1.9,0,0,0,.406.344,6.787,6.787,0,0,1,1.254-1.293,7.681,7.681,0,0,1,2.3-1.212l-2.431.563C2692.405,401.875,2683.52,392.936,2673.583,394.31Z" transform="translate(-242.561 7.702)" fill="#47280a"/><path d="M2569.379,395.734a.961.961,0,0,0,0,.177,15.9,15.9,0,0,1,8.1,2.6c.1.064.2.136.3.2a2.149,2.149,0,0,0,.425-.676c1.224-2.964.186-7.013,3.962-12.474,18.054-26.112,51.748-1.453,54.042,11.777.208,1.2.342,2.284.421,3.284l2.251.722a36.322,36.322,0,0,0-.5-4.382c-1.5-8.652-14.452-21.175-28.9-24.354a31.062,31.062,0,0,0-6.68-.751c-8.982,0-16.8,4.284-22.443,12.452a20.8,20.8,0,0,0-3.586,9.992,14.917,14.917,0,0,1-.5,2.6c-.4-.092-.995-.282-1.462-.432-.536-.172-1.119-.358-1.749-.532a13.913,13.913,0,0,1-1.374-.436c4.8-21.214,1.589-37.856-9.55-49.486q-1.122.432-2.179.832a1.856,1.856,0,0,0,.261.347C2575.976,363.262,2571.546,386.466,2569.379,395.734Z" transform="translate(-242.561 7.702)" fill="#47280a"/><path d="M2614.927,326.09c.66-.187,11.96-3.307,19.2-3.188h.176c2.621-.019,11.594-.029,16.809.772.608.114,10.084,2.027,13.13,2.962.885.272,6.963,2.42,9.9,3.461a1.166,1.166,0,0,1-.134.418c-4.608,6.394-11.232,26.3,26.47,73.13l-.983.228a16.961,16.961,0,0,1,3.39-.086,1.891,1.891,0,0,0-.414-1.176c-37.4-46.32-30.726-65.193-26.677-70.809a3.085,3.085,0,0,0,.455-1.06c-26-10.79-43.2-8.706-57.312-5.87-7.857,1.578-25.47,8.647-41.01,14.884l-4.756,1.907c10.537-4.1,24.611-9.572,24.871-9.672C2598.171,331.946,2610.692,327.545,2614.927,326.09Zm86.019,77.448h0Zm-26.2-73.227-.006,0Z" transform="translate(-242.561 7.702)" fill="#47280a"/><path d="M2635.544,409.206a4.031,4.031,0,0,0-.257,1.267c4.164-.295,9.323-.378,15.6-.262.079-.191.158-.379.238-.565-5.818.263-11.792.526-13.6.589a1.369,1.369,0,0,1,.066-.217,19.621,19.621,0,0,0,1.29-8.668l-2.251-.722A18.161,18.161,0,0,1,2635.544,409.206Z" transform="translate(-242.561 7.702)" fill="#47280a"/><path d="M2653.244,410.262c.774.019,1.568.042,2.373.067.147-.323.292-.628.432-.906l-2.484.113Q2653.406,409.887,2653.244,410.262Z" transform="translate(-242.561 7.702)" fill="#47280a"/><path d="M2653.565,409.536l-2.442.11c-.08.186-.159.374-.238.565.77.014,1.555.031,2.359.051Q2653.406,409.887,2653.565,409.536Z" transform="translate(-242.561 7.702)" fill="#47280a"/><path d="M2634.2,320.7h-.022c-5.2-.1-12.222,1.368-16.388,2.374.256-.057.518-.118.758-.166A110.582,110.582,0,0,1,2634.2,320.7Z" transform="translate(-242.561 7.702)" fill="#47280a"/><path d="M2651.506,321.507c-.216-.033-.439-.064-.666-.1.284.041.575.089.862.134Z" transform="translate(-242.561 7.702)" fill="#47280a"/><path d="M2701.2,405.738a8.737,8.737,0,0,0-4.077.945Z" transform="translate(-242.561 7.702)" fill="#47280a"/><path d="M2614.26,323.992l-.262.09q.766-.227,1.478-.422C2614.721,323.859,2614.28,323.985,2614.26,323.992Z" transform="translate(-242.561 7.702)" fill="#47280a"/><path d="M2664.892,324.532c-.313-.1-.687-.2-1.107-.312.565.162,1.139.337,1.713.512C2665.232,324.643,2665.012,324.569,2664.892,324.532Z" transform="translate(-242.561 7.702)" fill="#47280a"/><path d="M2597.315,329.914c-.047.016-36.337,14.13-36.337,14.13a1.841,1.841,0,0,0-.87.609c10.477-3.994,25.446-10.238,38.151-15.07Z" transform="translate(-242.561 7.702)" fill="#47280a"/><path d="M2675.475,328.234l-.705-.25c.281.111.559.219.842.333A1.066,1.066,0,0,0,2675.475,328.234Z" transform="translate(-242.561 7.702)" fill="#47280a"/><path d="M2636.973,412.448c.075.018,3.438-.124,7.416-.3-2.648.015-5.354.083-7.917.236Z" transform="translate(-242.561 7.702)" fill="#47280a"/><path d="M2562.1,345.97l11.075-4.307,4.756-1.907c15.54-6.237,33.153-13.306,41.01-14.884,14.111-2.836,31.314-4.92,57.312,5.87.231-.961.084-2.045-.64-2.425-.283-.114-.561-.222-.842-.333-1.923-.682-7.315-2.591-9.272-3.252-.574-.175-1.148-.35-1.713-.512-3.655-.97-10.824-2.425-12.083-2.674-.287-.045-.578-.093-.862-.134a146.854,146.854,0,0,0-16.642-.71,110.582,110.582,0,0,0-15.652,2.208c-.24.048-.5.109-.758.166-.929.225-1.719.427-2.312.584q-.713.2-1.478.422c-3.724,1.283-12.793,4.466-15.739,5.5-12.705,4.832-27.674,11.076-38.151,15.07a1.919,1.919,0,0,0-.147,2.2q1.059-.4,2.179-.832C2562.126,346,2562.113,345.985,2562.1,345.97Z" transform="translate(-242.561 7.702)" fill="#47280a"/><path d="M2701.833,405.534l-.81-1.629,1.847.2a2.075,2.075,0,0,0,.018-.315,16.961,16.961,0,0,0-3.39.086l-1.975.458a7.681,7.681,0,0,0-2.3,1.212,6.787,6.787,0,0,0-1.254,1.293,1.848,1.848,0,0,0,1.415.249l1.732-.4a8.737,8.737,0,0,1,4.077-.945l.247-.057A1.875,1.875,0,0,0,2701.833,405.534Z" transform="translate(-242.561 7.702)" fill="#47280a"/><path d="M2655.617,410.329q-.285.625-.583,1.344l2.389-.109a1.874,1.874,0,0,0,1.466-.937,9.852,9.852,0,0,0-1.815-.251C2656.581,410.359,2656.1,410.344,2655.617,410.329Z" transform="translate(-242.561 7.702)" fill="#47280a"/><path d="M2569.374,395.911c-.1,1.24,1.827,1.8,3.1,2.15,2.594.715,4.332,1.662,5.3.656-.1-.067-.2-.139-.3-.2A15.9,15.9,0,0,0,2569.374,395.911Z" transform="translate(-242.561 7.702)" fill="#47280a"/><path d="M2636.229,412.357l.243.029c2.563-.153,5.269-.221,7.917-.236l5.824-.26c.224-.578.448-1.139.672-1.679-6.275-.116-11.434-.033-15.6.262C2635.248,411.337,2635.491,412.18,2636.229,412.357Z" transform="translate(-242.561 7.702)" fill="#47280a"/><path d="M2653.244,410.262c-.208.482-.418.991-.629,1.52l2.419-.109q.3-.717.583-1.344C2654.812,410.3,2654.018,410.281,2653.244,410.262Z" transform="translate(-242.561 7.702)" fill="#47280a"/><path d="M2652.615,411.782c.211-.529.421-1.038.629-1.52-.8-.02-1.589-.037-2.359-.051-.224.54-.448,1.1-.672,1.679Z" transform="translate(-242.561 7.702)" fill="#47280a"/><path d="M2701.833,405.534a1.888,1.888,0,0,0,1.037-1.432l-1.847-.2Z" transform="translate(-242.561 7.702)" fill="#47280a"/><path d="M2671.381,476.182c-.035-.162-.073-.325-.105-.484l-.745.107Z" transform="translate(-242.561 7.702)" fill="#cbced1" stroke="#47280a" stroke-miterlimit="10" stroke-width="3"/><path d="M2671.381,476.182l-.85-.377-10.821,1.558-1.043.874a32.817,32.817,0,0,1-7.3,19.008.63.63,0,0,0,.332,1.022c11.061,3.651,24.286-2.493,27.524-4.145a.649.649,0,0,0,.28-.983A42.607,42.607,0,0,1,2671.381,476.182Z" transform="translate(-242.561 7.702)" fill="#cbced1" stroke="#47280a" stroke-miterlimit="10" stroke-width="3"/><path d="M2670.27,468.512l.269-.226a27.74,27.74,0,0,1,.385-4.51.707.707,0,0,0-.877-.745l-12.836,1.848a.718.718,0,0,0-.65.918,33.606,33.606,0,0,1,1.347,4.425l.119.053Z" transform="translate(-242.561 7.702)" fill="#cbced1" stroke="#47280a" stroke-miterlimit="10" stroke-width="3"/><path d="M2670.537,468.473c0-.063,0-.124,0-.187l-.269.226Z" transform="translate(-242.561 7.702)" fill="#cbced1" stroke="#47280a" stroke-miterlimit="10" stroke-width="3"/><path d="M2658.684,477.511c0,.243-.007.486-.017.726l1.043-.874Z" transform="translate(-242.561 7.702)" fill="#cbced1" stroke="#47280a" stroke-miterlimit="10" stroke-width="3"/><path d="M2657.908,470.222l.015.068.1-.015Z" transform="translate(-242.561 7.702)" fill="#cbced1" stroke="#47280a" stroke-miterlimit="10" stroke-width="3"/><path d="M2671.276,475.7l1.106-.159a3.628,3.628,0,1,0-1.034-7.182l-.811.116A35.473,35.473,0,0,0,2671.276,475.7Z" transform="translate(-242.561 7.702)" fill="#057faf" stroke="#47280a" stroke-miterlimit="10" stroke-width="3"/><path d="M2657.923,470.29l-52.022,7.49a3.628,3.628,0,1,0,1.034,7.182l51.749-7.451A30.435,30.435,0,0,0,2657.923,470.29Z" transform="translate(-242.561 7.702)" fill="#057faf" stroke="#47280a" stroke-miterlimit="10" stroke-width="3"/><path d="M2664.664,473.211l5.867,2.594.745-.107a35.473,35.473,0,0,1-.739-7.225l-.267.039Z" transform="translate(-242.561 7.702)" fill="#057faf" stroke="#47280a" stroke-miterlimit="10" stroke-width="3"/><path d="M2658.027,470.275l6.638,2.936,5.606-4.7Z" transform="translate(-242.561 7.702)" fill="#057faf" stroke="#47280a" stroke-miterlimit="10" stroke-width="3"/><path d="M2659.71,477.363l10.821-1.558-5.866-2.595Z" transform="translate(-242.561 7.702)" fill="#057faf" stroke="#47280a" stroke-miterlimit="10" stroke-width="3"/><path d="M2664.664,473.211l-6.637-2.936-.1.015a30.435,30.435,0,0,1,.761,7.221l1.026-.148Z" transform="translate(-242.561 7.702)" fill="#057faf" stroke="#47280a" stroke-miterlimit="10" stroke-width="3"/><path d="M2747.123,460.215a11.209,11.209,0,0,1-.879,3.687,5.758,5.758,0,0,1-1.289,1.947,6.16,6.16,0,0,1-6.516,1.2,12.981,12.981,0,0,1-4.127-2.247,14.949,14.949,0,0,1-1.179-1.05c-4.911-4.84-7.746-10.6-7.544-17.624a11.833,11.833,0,0,1,.7-3.44c.051-.148.124-.272.182-.412a7.119,7.119,0,0,1-2.96-3.133,26.162,26.162,0,0,0-7.312,8.966,23.224,23.224,0,0,1-4.5,6.678,7.712,7.712,0,0,0-2.559,5.319c-.024,2.3-1.221,3.224-3.029,3.9-.029.011-.058.042-.085.04-.365-.033-.809.053-1.08-.125a4.9,4.9,0,0,0-6.751.992,4.836,4.836,0,0,0,.89,6.749c.195.17.435.449.425.668a5.2,5.2,0,0,0,2.584,4.7l1.643.516c.185-.018.371-.048.556-.051a4.8,4.8,0,0,0,4.87-4.92,1.121,1.121,0,0,1,.654-1.091c1.743-1.148,3.339-1.689,5.428-.434a7.928,7.928,0,0,0,4.427.8,49.122,49.122,0,0,1,9.69.431,28.207,28.207,0,0,0,13.569-1.868,10.054,10.054,0,0,0,5.613-4.311c.188-.328.4-.646.594-.968q.429-1.369.859-2.738a3.144,3.144,0,0,1,0-.565c1.058-5.955-1.375-13.463-5.757-18.966a11.323,11.323,0,0,1-3.1,1.1A22.291,22.291,0,0,1,2747.123,460.215Zm-40.064,9.311c-1.255.656-1.435,1.091-1.02,2.45a1.749,1.749,0,0,1-.621,2.121,1.688,1.688,0,0,1-2.129-.007,1.776,1.776,0,0,1-.609-2.129c.449-1.458.255-1.856-1.206-2.443a1.738,1.738,0,0,1-1.22-1.751,1.678,1.678,0,0,1,1.229-1.644,1.747,1.747,0,0,1,2.033.645c.994,1.226,1.336,1.308,2.733.565,1.064-.565,2.111-1.162,3.259-1.8.37.838.651,1.472.984,2.227C2709.422,468.313,2708.236,468.911,2707.059,469.526Zm27.337-.211c-2.219-.085-4.436-.205-6.655-.29-2.345-.09-4.694-.27-7.035-.194a9.644,9.644,0,0,1-5.36-.974c-3.784-2.2-4.559-6.987-1.744-10.681a5.473,5.473,0,0,1,.691-.789,20.657,20.657,0,0,0,4.328-6.335,57.64,57.64,0,0,1,3.536-5.412,1.886,1.886,0,0,1,.38-.335c-.437,10.708,3.856,18.907,12.733,24.885A4.486,4.486,0,0,1,2734.4,469.315Z" transform="translate(-242.561 7.702)" fill="#47280a"/><path d="M2727.228,436.685a3.347,3.347,0,0,0,2.578,2.234,6.437,6.437,0,0,1,3.946-.088,12.328,12.328,0,0,1,2.571,1.037,13.737,13.737,0,0,0,4.652-.4,19.41,19.41,0,0,0-3.311-2.3C2734.225,435.309,2730.713,434.862,2727.228,436.685Z" transform="translate(-242.561 7.702)" fill="#47280a"/><path d="M2726.474,442.271a6.485,6.485,0,0,1,1.152-1.883,5.137,5.137,0,0,1-2.292-2.553c-.626.415-1.236.846-1.82,1.3A7.119,7.119,0,0,0,2726.474,442.271Z" transform="translate(-242.561 7.702)" fill="#47280a"/><path d="M2739.236,442.013q1.012.943,1.907,1.94a11.323,11.323,0,0,0,3.1-1.1c-.476-.6-.977-1.164-1.5-1.71A10.84,10.84,0,0,1,2739.236,442.013Z" transform="translate(-242.561 7.702)" fill="#47280a"/><path d="M2727.228,436.685c-.161.084-.322.167-.482.261-.484.282-.951.583-1.412.889a5.137,5.137,0,0,0,2.292,2.553,5.355,5.355,0,0,1,2.18-1.469A3.347,3.347,0,0,1,2727.228,436.685Z" transform="translate(-242.561 7.702)" fill="#47280a"/><path d="M2740.975,439.467a13.737,13.737,0,0,1-4.652.4,12.76,12.76,0,0,1,2.489,1.748c.145.131.282.265.424.4a10.84,10.84,0,0,0,3.511-.867A22.943,22.943,0,0,0,2740.975,439.467Z" transform="translate(-242.561 7.702)" fill="#47280a"/><path d="M2729.865,443.449a11.1,11.1,0,0,1-3.391-1.178c-.058.14-.131.264-.182.412a11.833,11.833,0,0,0-.7,3.44c-.2,7.02,2.633,12.784,7.544,17.624a14.949,14.949,0,0,0,1.179,1.05,12.981,12.981,0,0,0,4.127,2.247,6.16,6.16,0,0,0,6.516-1.2,5.758,5.758,0,0,0,1.289-1.947,11.209,11.209,0,0,0,.879-3.687,22.291,22.291,0,0,0-5.98-16.262,18.5,18.5,0,0,1-3.72.347A41.007,41.007,0,0,1,2729.865,443.449Zm11.832,12.377a3.193,3.193,0,0,1-4.63,2.039,8.377,8.377,0,0,1-4.266-8.214,3.193,3.193,0,0,1,4.26-2.618C2740.194,448.035,2742.648,452.688,2741.7,455.826Z" transform="translate(-242.561 7.702)" fill="#057faf"/><path d="M2729.806,438.919c.265.074.558.143.886.206a42.082,42.082,0,0,0,5.631.743,12.328,12.328,0,0,0-2.571-1.037A6.437,6.437,0,0,0,2729.806,438.919Z" transform="translate(-242.561 7.702)" fill="#057faf"/><path d="M2730.278,441.287a8.874,8.874,0,0,1-2.652-.9,6.485,6.485,0,0,0-1.152,1.883,11.1,11.1,0,0,0,3.391,1.178,41.007,41.007,0,0,0,7.558.851,18.5,18.5,0,0,0,3.72-.347q-.894-1-1.907-1.94A32.818,32.818,0,0,1,2730.278,441.287Z" transform="translate(-242.561 7.702)" fill="#057faf"/><path d="M2736.323,439.868a42.082,42.082,0,0,1-5.631-.743c-.328-.063-.621-.132-.886-.206a5.355,5.355,0,0,0-2.18,1.469,8.874,8.874,0,0,0,2.652.9,32.818,32.818,0,0,0,8.958.726c-.142-.132-.279-.266-.424-.4A12.76,12.76,0,0,0,2736.323,439.868Z" transform="translate(-242.561 7.702)" fill="#057faf"/><path d="M2722.537,444.3a1.886,1.886,0,0,0-.38.335,57.64,57.64,0,0,0-3.536,5.412,20.657,20.657,0,0,1-4.328,6.335,5.473,5.473,0,0,0-.691.789c-2.815,3.694-2.04,8.485,1.744,10.681a9.644,9.644,0,0,0,5.36.974c2.341-.076,4.69.1,7.035.194,2.219.085,4.436.205,6.655.29a4.486,4.486,0,0,0,.874-.125C2726.393,463.212,2722.1,455.013,2722.537,444.3Z" transform="translate(-242.561 7.702)" fill="#c69c6d"/><path d="M2706.249,467.333c-1.4.743-1.739.661-2.733-.565a1.747,1.747,0,0,0-2.033-.645,1.678,1.678,0,0,0-1.229,1.644,1.738,1.738,0,0,0,1.22,1.751c1.461.587,1.655.985,1.206,2.443a1.776,1.776,0,0,0,.609,2.129,1.688,1.688,0,0,0,2.129.007,1.749,1.749,0,0,0,.621-2.121c-.415-1.359-.235-1.794,1.02-2.45,1.177-.615,2.363-1.213,3.433-1.762-.333-.755-.614-1.389-.984-2.227C2708.36,466.171,2707.313,466.768,2706.249,467.333Z" transform="translate(-242.561 7.702)" fill="#fff"/><path d="M2732.8,449.651a8.377,8.377,0,0,0,4.266,8.214,3.193,3.193,0,0,0,4.63-2.039c.951-3.138-1.5-7.791-4.636-8.793A3.193,3.193,0,0,0,2732.8,449.651Zm5.94,5.419c-1.654-.079-3.341-3.07-2.846-5.137C2737.747,450.406,2739.2,453.081,2738.741,455.07Z" transform="translate(-242.561 7.702)" fill="#47280a"/><path d="M2738.741,455.07c.46-1.989-.994-4.664-2.846-5.137C2735.4,452,2737.087,454.991,2738.741,455.07Z" transform="translate(-242.561 7.702)" fill="#fff"/></g></svg>