<svg xmlns="http://www.w3.org/2000/svg" width="322.58" height="322.58" viewBox="0 0 322.58 322.58"><g transform="translate(-146 -208)"><circle cx="161.29" cy="161.29" r="161.29" transform="translate(146 208)" fill="#f4f5f3"/><circle cx="149.551" cy="149.551" r="149.551" transform="translate(157.06 219.739)" fill="#e3f1f0"/><path d="M406.837,338.644l7.9,31.707-8.762,38.08-5.664,5.353-.4,4.145,9.188.7,20.112-28.583-.146-14.911-5.135-22-2.343-10.526Z" transform="translate(-177.843 18.926)" fill="#c7b299"/><path d="M405.247,420.11c-2.858,0-6.089-.644-7.67-2.087a4.924,4.924,0,0,1-.936-5.483,7.068,7.068,0,0,1,6.777-4.346c.892-.6,3.106-4.6,5.562-16a156.661,156.661,0,0,0,3.173-21.131c.337-7.869-6.9-28.195-6.968-28.4a2.02,2.02,0,1,1,3.8-1.36c.309.865,7.57,21.282,7.2,29.932a161.3,161.3,0,0,1-3.525,23.02c-3.546,15.829-6.586,17.972-9.093,17.972h-.017a3.148,3.148,0,0,0-3.016,1.489,1.666,1.666,0,0,0-.21,1.347c1.179,1.07,6.4,1.271,7.6.685,13.229-7.831,19.08-33.041,18.9-38.066a2.02,2.02,0,0,1,4.037-.146c.214,5.889-5.762,32.741-20.9,41.7A10.32,10.32,0,0,1,405.247,420.11Z" transform="translate(-177.843 18.926)" fill="#47280a"/><path d="M498.63,369.012l5.951,26.365-9.41,10.833-12.037,2.954.109,4.815,14.909,2.255,26.938-23.843-10.284-13.117Z" transform="translate(-177.843 18.926)" fill="#c7b299"/><path d="M566.977,341.2s22.627.652,25.915,21.816c4.654,29.953,2.49,29.882,7.826,36.285s4.269,27.392-9.6,24.546-19.643-8.142-25.335-27.352,2.547-35.9-2.433-38.039S566.977,341.2,566.977,341.2Z" transform="translate(-177.843 18.926)" fill="#c7b299"/><path d="M586.162,350.613c-3.506,10.5-15.6,21.708-22.072,26.243-2.812,1.971.6,10.185.6,10.185,9.576-2.592,26.936-28.477,26.936-28.477S587.812,345.676,586.162,350.613Z" transform="translate(-177.843 18.926)" fill="#736357"/><path d="M595.765,392.235c-3.506,10.5-11.7,18.188-19.467,20.485-3.293.974,2.843,9.44,7.1,8.288,9.576-2.592,17.833-21.29,17.833-21.29Z" transform="translate(-177.843 18.926)" fill="#736357"/><path d="M592.63,366.434c-3.506,10.5-19.2,29.6-26.973,31.894,0,0-.034,9.824,4.274,8.877,13.277-2.918,24.45-26.618,24.45-26.618S594.28,361.5,592.63,366.434Z" transform="translate(-177.843 18.926)" fill="#736357"/><path d="M592.251,424.941a15.161,15.161,0,0,1-3.053-.315c-13.088-2.685-21.509-11.448-25.027-26.046-2.585-10.73-1.352-22.092-.451-30.389.483-4.452,1.145-10.549.207-11.458a4.473,4.473,0,0,1-2.381-2.556c-2.087-5.243,2.782-17.009,3.779-19.314l.813-1.88,1.868.839c.98.44,24.025,10.98,27.441,28.446a148.755,148.755,0,0,1,2.345,20.092c.515,8.013.826,12.849,4.137,15.328,5.185,3.882,6.657,11.374,3.579,18.219C602.944,421.612,597.931,424.941,592.251,424.941Zm-24.025-86.505c-1.972,5.069-3.879,11.855-2.926,14.247.12.3.223.347.257.362,3.7,1.584,3.093,7.153,2.178,15.582-.868,8-2.057,18.96.364,29.007,3.162,13.124,10.329,20.659,21.911,23.034,6.027,1.24,10.055-2.5,11.814-6.417,1.939-4.311,1.765-10.274-2.316-13.33-4.8-3.594-5.2-9.763-5.747-18.3a145.364,145.364,0,0,0-2.279-19.575C588.989,350.3,573.628,341.257,568.226,338.436Z" transform="translate(-177.843 18.926)" fill="#47280a"/><path d="M416.97,282.4c1.067-2.846,13.355-14.691,15.472-14.245,2.55.537,4.625,14.755,4.625,14.755s18.365-7.72,65.69-3.593c39.848,3.475,52.2,16.838,60.538,23.13,7.5,5.662,12.539,11.477,15.385,24.995s-8.547,39.479-29.708,53.722c-3.364,2.265-6.4,14.23-3.557,24.9s-4.295,16.9-7.5,19.751-13.863-1.652-17.776-2.363.3-6.2,1.367-6.555,2.865-.13,5.711-.842.864-4.588,2.382-7.6c3.333-6.62-13.967-29.532-20.726-34.157s-47.061-18.391-56.31,3.665-9.762,19.87-17.927,32.332c-6.759,10.317-18,9.645-21.2,9.289-2.829-.314-4.419-5.37-1-7.274,4.371-2.436,6.693-3.042,7.4-4.821,1.308-3.27,1.423-8.182-2.134-28.815a120.465,120.465,0,0,0-12.516-36.092c-50.335-.437-28.216-41.637-28.216-41.637s-6.327-16.166-3.7-18.354c2.286-1.906,18.286,5.643,19,5.192C407.632,278.021,416.97,282.4,416.97,282.4Z" transform="translate(-177.843 18.926)" fill="#c7b299"/><path d="M397.979,301.147c2.878,1.643,4.6,5.821,3.966,9.775-.35,2.2-2.637,6.39-4.776,8.835-5.164,5.9-11.8,6.64-14.313,4.813-3.772-2.747-5.949-12.048.984-20.6C388.523,298.2,394.312,299.054,397.979,301.147Z" transform="translate(-177.843 18.926)" fill="#736357"/><path d="M416.674,298.177c-1.824,2.691-1.757,7.169.583,10.317a22.109,22.109,0,0,0,9.091,6.122c4.8,1.5,11.305,1.514,13.529-2.032,3.021-4.817-.4-14.443-8.594-17.91C424.575,291.837,419.327,294.264,416.674,298.177Z" transform="translate(-177.843 18.926)" fill="#736357"/><path d="M493.963,418.26a26.333,26.333,0,0,1-10.862-2.571,4.486,4.486,0,0,1-2.417-5.08c.381-1.709,2.318-5.638,12.02-5.638l.448,0c2.071-.077,9.261-7.28,10.094-9.284.5-5.148-6-20.8-8.572-26.438l3.675-1.676c1,2.2,9.758,21.667,8.893,28.721-.326,2.667-9.545,12.717-14.1,12.717H493.1c-6.237-.092-8.27,1.581-8.476,2.468a.5.5,0,0,0,.144.531c5.755,2.616,11.1,2.906,15.453.841,4.81-2.282,18.507-16.532,23.378-21.83l2.974,2.734c-1.848,2.009-18.231,19.714-24.621,22.746A18.489,18.489,0,0,1,493.963,418.26Zm9.308-22.635Z" transform="translate(-177.843 18.926)" fill="#47280a"/><path d="M406.2,344.009c-1.343,0-1.645-.254-1.984-.539a2.021,2.021,0,0,1,1.8-3.5,47.294,47.294,0,0,0,7.637-.911c4.934-.8,29.849-5.5,35.8-19.375,3.129-7.29-3.938-19.671-6.925-23.826a2.02,2.02,0,0,1,3.278-2.36c.494.685,12.029,16.9,7.359,27.779-6.617,15.418-31.423,20.56-38.869,21.769A58.822,58.822,0,0,1,406.2,344.009Zm.611-3.635h0Zm0,0h0Zm0,0h0Zm0,0Zm0,0Z" transform="translate(-177.843 18.926)" fill="#47280a"/><path d="M454.105,375.03s15.124-11.706,25.519-8.97,26.052,3.411,29.253,8.236c.774,1.168,9.713,10.2,9.713,10.2s7.573-27.654-26.611-31.271C452.634,349.06,454.105,375.03,454.105,375.03Z" transform="translate(-177.843 18.926)" fill="#fff"/><path d="M528.519,427.167a55.085,55.085,0,0,1-8.18-.551,5.115,5.115,0,0,1-4.246-5.43,6.9,6.9,0,0,1,6.417-6.569c.371-.044.725-.053,1.1-.063a10.967,10.967,0,0,0,3.793-.676c.458-.347,1.071-2.972.526-6.9-3-21.653-23.991-33.6-24.884-34.1-5.217-2.913-24.863-7.612-37.631-3.118-5.011,1.764-8.409,4.778-10.1,8.957-7.87,19.448-10.968,24.858-19.495,34.057-8.423,9.084-17.1,8.91-20.809,8.837-.258-.005-.495-.01-.707-.01a5.614,5.614,0,0,1-5.838-5c-.413-3.045,1.2-6.911,4.535-7.848a8.047,8.047,0,0,0,5.141-3.966c2.613-4.732,2.11-13.325-1.5-25.542-4.917-16.654-10.729-31.089-12.467-35.294-15.8-.026-26.222-4.131-30.982-12.208-6.716-11.4.245-26.676,2.351-30.777-3.087-5.6-8.353-16.751-3.394-20.057,3.663-2.441,10.738.35,18.281,3.685.847.374,1.773.784,2.368,1.021,11.821-7.28,19.918-6.714,23.35-5.92,2.963-4.69,11.768-15.2,17.316-13.983.956.213,3.775.84,6.5,15.945,7.481-2.248,32.734-8.38,72.6-3.318,18.3,2.324,34.525,8.618,46.924,18.2,11.541,8.922,18.881,20.1,20.668,31.482,4.385,27.922-17.443,45.245-25.66,51.766a31.134,31.134,0,0,0-2.977,2.516c-4.009,5.933-4.323,9.679-3.377,20.39.957,10.822-2.812,18.329-6.658,21.748C539.072,426.583,533.456,427.167,528.519,427.167Zm-50.5-63.288c11.381,0,22.9,3.185,27,5.473.964.539,23.644,13.452,26.915,37.073.315,2.271,1.015,9.794-3.193,11.266a15.029,15.029,0,0,1-5.018.9c-.271.007-.513.011-.738.037a2.9,2.9,0,0,0-2.851,2.673,1.152,1.152,0,0,0,.909,1.337c4.621.812,15.526.766,17.756-1.216,3.111-2.766,6.142-9.045,5.318-18.373-1.014-11.47-.586-16.141,4.061-23.018.54-.8,1.557-1.624,3.8-3.408,8.439-6.7,28.2-22.38,24.18-47.975-1.626-10.357-8.426-20.625-19.148-28.913-11.829-9.144-27.377-15.158-44.962-17.39-46-5.842-72.718,3.752-72.983,3.849a2.02,2.02,0,0,1-2.694-1.568c-1.012-6.183-2.839-13.475-4.044-15h-.007c-3.164,0-12.185,10.175-13.315,13.188a2.021,2.021,0,0,1-2.737,1.124c-.159-.069-8.064-3.333-22.042,5.547-1.115.709-1.945.342-5.429-1.2-3.039-1.343-12.286-5.432-14.407-4.018-1.217.811.949,8.2,5.21,15.674a2.018,2.018,0,0,1,0,2c-.093.165-9.4,16.787-2.922,27.757,4.11,6.962,13.814,10.4,28.811,10.2h.026a2.02,2.02,0,0,1,1.857,1.225A379.167,379.167,0,0,1,420.518,378.1c3.979,13.478,4.358,22.845,1.158,28.638a12.058,12.058,0,0,1-7.583,5.9c-1.016.285-1.821,1.977-1.625,3.415.141,1.037.712,1.5,1.852,1.506.232,0,.489.006.77.012,3.441.071,10.576.21,17.767-7.546,8.1-8.741,11.077-13.956,18.713-32.824,2.145-5.3,6.352-9.088,12.5-11.253A42.557,42.557,0,0,1,478.018,363.879Z" transform="translate(-177.843 18.926)" fill="#47280a"/><path d="M376.478,286.607c-.547,1.568,3.671,10.471,4.984,11.055,1.082.481,1.623-.948,3.811-2.918,1.247-1.122,2.69-2.272,2.955-3.264C388.971,288.694,376.978,285.173,376.478,286.607Z" transform="translate(-177.843 18.926)" fill="#47280a"/><path d="M430.712,274.078c-1.169-.129-7.731,7.631-7.87,10-.146,2.481,9.066,3.166,9.374,1.933C432.8,283.674,431.7,274.188,430.712,274.078Z" transform="translate(-177.843 18.926)" fill="#47280a"/><path d="M391.13,312.924a3.325,3.325,0,1,1,2-.667h0A3.312,3.312,0,0,1,391.13,312.924Zm.892-2.134h0Zm-1.1-1.468a.359.359,0,0,0-.135.228.355.355,0,0,0,.066.257.347.347,0,0,0,.484.069h0Zm.208-.069a.341.341,0,0,0-.207.069l.416.553a.359.359,0,0,0,.134-.228.354.354,0,0,0-.066-.256A.344.344,0,0,0,391.126,309.253Z" transform="translate(-177.843 18.926)" fill="#47280a"/><path d="M424.46,305.663a3.366,3.366,0,0,1-.457-.032,3.212,3.212,0,1,1,.457.032ZM424,302.381a.455.455,0,1,0,.515-.386.449.449,0,0,0-.338.087.46.46,0,0,0-.177.3Z" transform="translate(-177.843 18.926)" fill="#47280a"/><path d="M399.826,335.468c3.536,2.376,7.91,2.224,14,1.137,7.945-1.417,12.971-4.829,12.946-8.585-.052-7.688-10.768-14.647-16.958-13.317C401.1,316.574,394.927,332.177,399.826,335.468Z" transform="translate(-177.843 18.926)" fill="#fff"/><ellipse cx="5.639" cy="3.877" rx="5.639" ry="3.877" transform="translate(226.118 340.721) rotate(-12.558)" fill="#47280a"/><path d="M460.2,439.41a2.229,2.229,0,0,0,2.023,2.019,1.285,1.285,0,0,0,.559,0c2.953-.785,4.936.618,6.832,2.708,2.486,2.738,5.225,5.245,7.8,7.908a1.9,1.9,0,0,1,.41,1.529c-1.4,5.374,1.6,10.526,6.854,11.653a9.105,9.105,0,0,0,11.008-7.789c.155-1.053.664-1.716,1.628-1.8,1.049-.089,1.625.577,1.957,1.621a9.009,9.009,0,0,0,9.5,6.534,9.1,9.1,0,0,0,8.344-7.829,8.577,8.577,0,0,0-2.342-7.515q-5.988-6.139-12.118-12.141c-2.571-2.515-5.781-2.393-8.981-1.715a2.016,2.016,0,0,0-1.5,2.4,2.227,2.227,0,0,0,1.991,2.05,1.6,1.6,0,0,0,.7,0c2.829-.722,4.838.488,6.6,2.6,1.164,1.395,2.552,2.6,4.039,4.094a9.558,9.558,0,0,0-5.921,5.221l-5.081.377c-4.191-4.833-8.391-5.654-13.5-2.432-.311-.29-.656-.591-.979-.913-2.987-2.979-6-5.937-8.948-8.951-2.659-2.715-5.909-2.772-9.281-2.1A2.039,2.039,0,0,0,460.2,439.41Zm43.255,15.518a4.559,4.559,0,1,1,4.847,4.266A4.649,4.649,0,0,1,503.457,454.928ZM482.1,456.61a4.543,4.543,0,1,1,4.916,4.161A4.607,4.607,0,0,1,482.1,456.61Z" transform="translate(-177.843 18.926)" fill="#057faf" stroke="#47280a" stroke-miterlimit="10" stroke-width="3"/><path d="M439.848,460q-7.515,0-15.028,0c-3.7,0-4.044-.513-2.574-3.811,3.249-7.289,6.518-14.57,9.73-21.876a7.681,7.681,0,0,0,.692-2.9c.066-5.347,0-10.7.052-16.043a2.77,2.77,0,0,0-1.89-2.956c-1.3-.56-3.2-1.145-2.72-2.926.172-.638.954-1.06,3.5-1.06,5.549-.111,11.1-.055,16.652-.04a9.521,9.521,0,0,1,2.415.2c1.208.323,1.519,1.2.671,2.128a5.873,5.873,0,0,1-2.29,1.615c-1.752.6-2.125,1.752-2.1,3.434.074,5.144-.011,10.29.059,15.434a8.23,8.23,0,0,0,.693,3.1c3.281,7.5,6.634,14.961,9.954,22.441,1.143,2.577.694,3.249-2.18,3.256C450.273,460.005,445.06,460,439.848,460Zm-3.686-32.013c1.135,5.7-2.09,10.089-4.064,14.837-1.478,3.556-3.126,7.041-4.677,10.567-1.021,2.322-.618,2.976,1.839,2.979q10.553.018,21.1,0c2.488,0,2.924-.661,1.922-2.926-2.024-4.574-4.013-9.163-6.127-13.7-1.693-3.629-3.37-7.226-2.866-11.394.011-.1-.13-.216-.228-.368Z" transform="translate(-177.843 18.926)" fill="#fff" stroke="#47280a" stroke-miterlimit="10" stroke-width="3"/><path d="M436.162,427.983c2.53,0,7.142-.1,7.131,0-.5,4.168,1.173,8.133,2.866,11.762,2.114,4.532,4.1,9.121,6.127,13.7,1,2.265.566,2.923-1.922,2.926q-10.553.014-21.1,0c-2.457,0-2.86-.657-1.839-2.979,1.551-3.526,3.2-7.011,4.677-10.567C434.072,438.072,437.3,433.681,436.162,427.983Z" transform="translate(-177.843 18.926)" fill="#057faf" stroke="#47280a" stroke-miterlimit="10" stroke-width="3"/></g></svg>