<svg xmlns="http://www.w3.org/2000/svg" width="322.58" height="322.58" viewBox="0 0 322.58 322.58"><g transform="translate(-2294.608 -247.666)"><g transform="translate(-197.561 70.425)"><circle cx="161.29" cy="161.29" r="161.29" transform="translate(2492.168 177.242)" fill="#f4f5f3"/><circle cx="149.551" cy="149.551" r="149.551" transform="translate(2503.229 188.981)" fill="#e3f1f0"/></g><g transform="translate(-197.561 70.425)"><path d="M2617.732,366.979c6.922,6.854,18.317,33.581,14.536,42.368-1.581,3.674-.913,10.283,8.881,6.291,3.253-1.326,6.1-8.868,4.255-16.4-.9-3.681.37-19.55,1.357-21.462" fill="#804f21"/><path d="M2635.915,419.107a6.361,6.361,0,0,1-4.748-1.823c-2.271-2.316-2.108-6.1-.939-8.814,3.285-7.636-7.363-33.284-14.058-39.913l3.123-3.156c7.17,7.1,19.325,34.8,15.014,44.824-.646,1.5-.633,3.275.031,3.95.623.637,2.523.814,5.972-.593,1.97-.8,4.565-7.191,2.938-13.82-.934-3.8.174-20.363,1.54-23.009l3.946,2.035c-.718,1.789-1.96,16.712-1.174,19.916,2.136,8.7-1.181,17.2-5.573,18.99A16.468,16.468,0,0,1,2635.915,419.107Z" fill="#47280a"/><path d="M2697.69,382.027s8.45,11.163,9.621,16.467c2.415,10.928-4.718,11.745-4.842,15.076-.088,2.4,1.476,4.206,8.465,2.849s8.835-4.3,9.575-12.436c.939-10.321,0-21.555,5.273-27.568" fill="#804f21"/><path d="M2706.834,419.1a7.291,7.291,0,0,1-4.916-1.448,4.974,4.974,0,0,1-1.667-4.168c.072-1.942,1.321-3.234,2.424-4.374,1.8-1.858,3.833-3.963,2.468-10.14-.875-3.962-6.954-12.608-9.223-15.6l3.54-2.68c.9,1.182,8.779,11.712,10.019,17.327,1.88,8.507-1.558,12.061-3.612,14.185-.466.481-1.17,1.208-1.178,1.451-.006.156-.006.526.116.63.1.089,1.145.845,5.705-.041,5.724-1.111,7.107-2.968,7.788-10.458.21-2.319.328-4.736.44-7.072.411-8.507.8-16.541,5.374-21.758l3.339,2.927c-3.553,4.053-3.905,11.335-4.277,19.045-.115,2.383-.235,4.848-.454,7.26-.75,8.243-2.713,12.735-11.364,14.415A24.1,24.1,0,0,1,2706.834,419.1Z" fill="#47280a"/><path d="M2632.9,408c-1.581,3.673-.913,10.282,8.881,6.29,2.94-1.2,5.54-7.476,4.65-14.237-.381-.656-.761-1.249-1.13-1.764-4.941,2.425-12.159.028-12.159.028l0,0C2633.839,402.3,2633.874,405.74,2632.9,408Z" fill="#595757"/><path d="M2636.556,417.385a6.01,6.01,0,0,1-4.49-1.712c-2.151-2.193-1.983-5.8-.863-8.408h0c.528-1.227.977-3.72.116-8.63l-.166-.947,1.488-1.488,1.087.357c.062.021,6.572,2.122,10.76.068l1.407-.691.913,1.274c.407.569.821,1.213,1.227,1.914l.185.32.048.366c.938,7.115-1.712,14.531-5.785,16.191A16.112,16.112,0,0,1,2636.556,417.385Zm-1.2-16.622a16.412,16.412,0,0,1-.749,7.964h0c-.624,1.452-.756,3.477.1,4.355.93.949,3.253.764,6.378-.509,1.9-.775,4.234-5.884,3.559-11.916-.021-.034-.041-.066-.06-.1A19.635,19.635,0,0,1,2635.352,400.763Z" fill="#47280a"/><path d="M2646.6,287.422s-9.723-1.029-20.824-10.876-33.9-9.8-48.659-6.516c-11.9,2.652-12.273,4.745-14.247,5.366-4.856,1.526-24.571,2.1-29.6,14.8-2.914,7.355,4.318,24.854,17.084,26.149s18.44-1.172,26.581,12.335,51.188,52.236,66.93,69.936c3.13,3.52,7.94,14.493,5.535,20.846-1.416,3.74-.913,10.282,8.881,6.29,3.253-1.326,6.1-8.868,4.255-16.4-.9-3.681.37-19.55,1.357-21.462s45.576-2.158,56.8-4.008c3.193-.527,11.225,14.863,9.374,25.162s-7.264,8.773-6.783,13.815c.37,3.885,9.713,2.96,14.431,1.48s8.326-18.749,9.066-28.37,6.907-17.515,11.347-26.765,19.551-25.163,14.74-43.48-11.1-18.5-18.132-24.052-23.5-24.607-55.505-18.687S2649.214,287.965,2646.6,287.422Z" fill="#895b31"/><path d="M2653.052,429.224a6.311,6.311,0,0,1-4.6-1.7c-2.414-2.355-2.118-6.236-1.131-8.845,1.969-5.2-2.2-15.3-5.117-18.583-6.085-6.841-16.272-16.84-27.058-27.427-17.208-16.89-35-34.355-40.115-42.839-6.106-10.13-10.047-10.347-18.683-10.823-1.841-.1-3.928-.216-6.22-.449-6.124-.621-11.65-4.507-15.563-10.943-3.833-6.3-5.184-13.632-3.361-18.233,4.515-11.393,19.144-13.932,27-15.295a39.628,39.628,0,0,0,4-.807,4.235,4.235,0,0,0,.93-.529c1.632-1.065,4.363-2.849,13.5-4.885,16.435-3.663,39.286-3.025,50.616,7.023,10.447,9.267,19.493,10.318,19.583,10.328l.219.034c2.147.448,19.773,1.468,51.772-4.45,29.259-5.408,46.272,9.529,54.45,16.708,1.1.963,2.043,1.794,2.835,2.419,1.351,1.067,2.713,1.95,4.031,2.8,5.566,3.607,10.823,7.012,14.872,22.429,3.951,15.044-4.476,28.225-10.63,37.849a75.274,75.274,0,0,0-4.255,7.154c-1.271,2.647-2.676,5.18-4.035,7.629-3.4,6.12-6.6,11.9-7.1,18.347-.022.276-2.492,27.769-10.615,30.317-2.677.84-11.219,2.639-15.217-.015a4.471,4.471,0,0,1-2.089-3.373c-.314-3.3,1.284-4.872,2.694-6.255,1.507-1.48,3.216-3.157,4.115-8.162,1.556-8.661-4.794-21.076-7.16-22.527-5.492.846-17.588,1.349-29.295,1.836-10.068.419-22.411.932-25.738,1.6-.722,3.4-1.721,16.313-1,19.267,2.136,8.7-1.181,17.2-5.573,18.99A16.479,16.479,0,0,1,2653.052,429.224Zm-57.508-158.958A83.98,83.98,0,0,0,2577.6,272.2c-8.349,1.861-10.657,3.368-12.036,4.269a7.854,7.854,0,0,1-2.027,1.048,40.422,40.422,0,0,1-4.571.945c-7.494,1.3-20.036,3.476-23.634,12.556-1.273,3.213.028,9.357,3.028,14.291,1.837,3.022,5.867,8.187,12.216,8.832,2.19.222,4.135.329,6.017.433,8.986.495,14.922.821,22.241,12.963,4.823,8,23.205,26.045,39.423,41.964,10.841,10.64,21.08,20.69,27.265,27.643,3.5,3.936,8.773,15.658,5.952,23.108-.623,1.645-.588,3.443.079,4.094.614.6,2.482.743,5.887-.646,1.97-.8,4.565-7.191,2.938-13.82-.934-3.8.174-20.363,1.54-23.008.945-1.831,1.987-2.211,29.323-3.349,11.815-.491,24.033-1,29.089-1.833,1.318-.215,2.677.38,4.05,1.772,4.222,4.282,9.514,16.825,7.871,25.974-1.15,6.4-3.693,8.894-5.376,10.546-1.236,1.212-1.494,1.51-1.384,2.665.679.977,6.539,1.146,11.557-.428,2.454-.769,6.54-13.721,7.517-26.421.57-7.412,4.007-13.605,7.645-20.16,1.328-2.393,2.7-4.868,3.915-7.4a77.855,77.855,0,0,1,4.517-7.625c5.711-8.933,13.534-21.167,10.077-34.33-3.612-13.752-7.752-16.434-12.992-19.829-1.4-.909-2.854-1.849-4.369-3.045-.882-.7-1.87-1.563-3.013-2.567-8.239-7.233-23.574-20.7-50.712-15.678-32.15,5.946-50.283,5.026-53.377,4.452-1.205-.153-10.954-1.655-21.952-11.409C2618.008,272.621,2606.9,270.266,2595.544,270.266Z" fill="#47280a"/><path d="M2554.7,302.289c3.153-5.377,4.521-19.87-.382-22.969-.819-.518-4.467.629-6.676,1.259-5.46,2-10,4.02-12.245,9.679-1.457,3.676-.15,10.291,2.756,15.51a25.264,25.264,0,0,0,3.052,3.486C2542.971,310.828,2551.65,307.489,2554.7,302.289Z" fill="#72492a"/><path d="M2584.961,289.682a3.526,3.526,0,1,1,2.116-.707h0A3.513,3.513,0,0,1,2584.961,289.682Zm-.108-3.664a.179.179,0,0,0-.067.114.184.184,0,0,0,.033.127.178.178,0,0,0,.113.066.168.168,0,0,0,.127-.032Zm.1-.035a.176.176,0,0,0-.1.034l.207.275a.172.172,0,0,0-.1-.309Z" fill="#231815"/><ellipse cx="1.739" cy="0.858" rx="1.739" ry="0.858" transform="translate(2541.711 290.449) rotate(-62.353)" fill="#221714"/><path d="M2542.685,291.638a1.192,1.192,0,0,1-.557-.136h0a1.455,1.455,0,0,1-.7-1.406,3.584,3.584,0,0,1,.432-1.531c.667-1.272,1.744-1.886,2.566-1.455a1.455,1.455,0,0,1,.7,1.407,3.859,3.859,0,0,1-1.445,2.758A1.711,1.711,0,0,1,2542.685,291.638Zm.949-3.01a2.318,2.318,0,0,0-.46.624,2.267,2.267,0,0,0-.251.733,2.322,2.322,0,0,0,.46-.624A2.3,2.3,0,0,0,2543.634,288.628Z" fill="#231815"/><path d="M2601.45,270.446s3.577-7.027,8.388-4.807,4.9,6.522,3.238,8.742-4.95,5.921-7.864,6.2" fill="#895b31"/><path d="M2605.423,282.79l-.421-4.421c1.486-.141,4.017-2.279,6.3-5.32a2.984,2.984,0,0,0,.437-2.481,4.672,4.672,0,0,0-2.828-2.913c-2.775-1.275-5.456,3.752-5.482,3.8l-3.955-2.02c1.573-3.089,5.961-8.28,11.3-5.815a9.031,9.031,0,0,1,5.273,5.856,7.43,7.43,0,0,1-1.189,6.233C2612.988,278.2,2609.285,282.422,2605.423,282.79Z" fill="#47280a"/><path d="M2730.144,404.091a20.094,20.094,0,0,1-.217,4.826c-1.85,10.3-7.264,8.773-6.784,13.814.37,3.886,9.714,2.961,14.432,1.48,3.407-1.069,6.235-10.375,7.822-19.086A66.288,66.288,0,0,1,2730.144,404.091Z" fill="#595757"/><path d="M2729.255,427.348a11.261,11.261,0,0,1-6.029-1.34,4.114,4.114,0,0,1-1.924-3.1c-.3-3.128,1.233-4.631,2.584-5.957,1.47-1.443,3.3-3.238,4.22-8.361a18.17,18.17,0,0,0,.191-4.377l-.153-2.344,2.315.4a65,65,0,0,0,14.794,1.012l2.4-.187-.43,2.363c-1.557,8.549-4.4,19.048-9.089,20.521A32.035,32.035,0,0,1,2729.255,427.348Zm2.784-21.079a19.666,19.666,0,0,1-.29,2.974c-1.129,6.284-3.622,8.73-5.271,10.348-1.214,1.192-1.623,1.593-1.493,2.965.007.075.018.189.288.369,1.848,1.226,7.833.751,11.748-.479,1.331-.418,3.969-4.873,6.114-15.363A68.245,68.245,0,0,1,2732.039,406.269Z" fill="#47280a"/><path d="M2707.977,401.311c.356,7.708-5.211,8.694-5.32,11.634-.089,2.4,1.476,4.207,8.464,2.85s8.836-4.3,9.576-12.436c.046-.508.084-1.019.122-1.53A83.214,83.214,0,0,1,2707.977,401.311Z" fill="#595757"/><path d="M2707.022,418.478a7.3,7.3,0,0,1-4.917-1.447,4.98,4.98,0,0,1-1.667-4.168c.072-1.942,1.321-3.234,2.421-4.374,1.514-1.568,3.08-3.19,2.9-7.076l-.119-2.577,2.566.266a81.056,81.056,0,0,0,12.457.513l2.558-.181-.188,2.558c-.039.524-.078,1.048-.125,1.569-.749,8.242-2.713,12.734-11.364,14.414A24.1,24.1,0,0,1,2707.022,418.478Zm3.095-14.732a12.571,12.571,0,0,1-4.063,7.827c-.466.483-1.17,1.21-1.178,1.455-.006.154-.006.524.116.629.1.09,1.148.844,5.706-.042,5.466-1.061,6.974-2.8,7.691-9.479C2715.707,404.169,2712.724,403.973,2710.117,403.746Z" fill="#47280a"/><path d="M2648.675,408.841v0c1.073,3.69,1.489,7.572.386,10.484-1.416,3.74-.912,10.282,8.881,6.29,3.253-1.325,6.106-8.868,4.256-16.4a13.2,13.2,0,0,1-.263-2.308h0C2657.568,409.686,2648.675,408.841,2648.675,408.841Z" fill="#595757"/><path d="M2652.717,428.718a5.96,5.96,0,0,1-4.344-1.6c-2.287-2.23-1.991-5.945-1.043-8.449.83-2.191.676-5.5-.432-9.313l-.2-.7.89-1.781,1.263.117c2.3.216,8.961.341,12.09-1.654l2.689-1.713.154,3.184a11.191,11.191,0,0,0,.211,1.955c2.059,8.384-1.187,16.862-5.354,18.56A16.119,16.119,0,0,1,2652.717,428.718Zm-1.651-17.911c.589,2.891.816,6.292-.275,9.175-.581,1.532-.72,3.626.165,4.489.917.895,3.208.687,6.287-.567,2.125-.866,4.857-7.326,3.157-14.251l0-.012A29.731,29.731,0,0,1,2651.066,410.807Z" fill="#47280a"/><line x2="14.288" y2="0.523" transform="translate(2667.97 305.562)" fill="#804f21"/><rect width="2.961" height="14.298" transform="translate(2667.916 307.041) rotate(-87.903)" fill="#47280a"/><line x2="14.288" y2="0.523" transform="translate(2684.006 316.338)" fill="#804f21"/><rect width="2.961" height="14.298" transform="translate(2683.952 317.817) rotate(-87.903)" fill="#47280a"/><line x2="11.707" y2="0.974" transform="translate(2705.971 302.076)" fill="#804f21"/><rect width="2.96" height="11.748" transform="matrix(0.083, -0.997, 0.997, 0.083, 2705.849, 303.551)" fill="#47280a"/></g><g transform="translate(-197.561 70.425)"><path d="M2641.056,462.219c-11.338,2.67-23.975-4.608-27.056-6.537a.648.648,0,0,1-.193-1c11.588-12.588,11.419-25.084,11.116-28.5a.707.707,0,0,1,.939-.665l12.626,2.963a.718.718,0,0,1,.567.971c-7.55,15.594.231,28.611,2.422,31.782A.631.631,0,0,1,2641.056,462.219Z" fill="#cbced1" stroke="#47280a" stroke-miterlimit="10" stroke-width="3"/><rect width="7.256" height="73.378" rx="3.628" transform="translate(2692.005 446.643) rotate(103.209)" fill="#057faf" stroke="#47280a" stroke-miterlimit="10" stroke-width="3"/><line x2="12.395" y2="12.389" transform="translate(2623.839 429.633)" fill="#cbced1" stroke="#47280a" stroke-miterlimit="10" stroke-width="2"/><line y1="5.376" x2="15.753" transform="translate(2622.5 433.422)" fill="#cbced1" stroke="#47280a" stroke-miterlimit="10" stroke-width="2"/></g><g transform="translate(-197.561 70.425)"><path d="M2563.157,430.83a5.2,5.2,0,0,1-2.584-4.7c.01-.219-.23-.5-.425-.668a4.835,4.835,0,0,1-.89-6.748,4.9,4.9,0,0,1,6.751-.993c.271.178.715.092,1.08.125.027,0,.056-.029.085-.04,1.808-.677,3-1.6,3.029-3.9a7.7,7.7,0,0,1,2.559-5.318,23.229,23.229,0,0,0,4.5-6.679,26.466,26.466,0,0,1,10.544-11.158c3.643-2.129,7.321-1.723,10.918.221,8.253,4.46,13.848,16.149,12.337,24.655a3.121,3.121,0,0,0,0,.565l-.859,2.738c-.2.322-.406.64-.594.968a10.057,10.057,0,0,1-5.613,4.311,28.194,28.194,0,0,1-13.569,1.868,49.123,49.123,0,0,0-9.69-.431,7.936,7.936,0,0,1-4.427-.8c-2.089-1.256-3.685-.714-5.429.434a1.119,1.119,0,0,0-.653,1.09,4.805,4.805,0,0,1-4.87,4.921c-.186,0-.371.033-.556.05Zm36.339-9.979c3.24,1.169,6.56-.081,7.8-3.143a11.208,11.208,0,0,0,.879-3.687c.288-7.543-2.79-13.638-8.311-18.6a12.458,12.458,0,0,0-5.06-2.784,5.786,5.786,0,0,0-7.46,3.851,11.8,11.8,0,0,0-.7,3.44c-.2,7.02,2.633,12.784,7.544,17.625A13.44,13.44,0,0,0,2599.5,420.851Zm-15.9-22.74a1.909,1.909,0,0,0-.38.335,57.848,57.848,0,0,0-3.537,5.412,20.636,20.636,0,0,1-4.327,6.335,5.489,5.489,0,0,0-.691.789c-2.815,3.694-2.041,8.485,1.744,10.681a9.642,9.642,0,0,0,5.36.974c2.341-.076,4.69.1,7.035.194,2.219.086,4.436.205,6.655.29a4.494,4.494,0,0,0,.874-.125C2587.45,417.018,2583.157,408.819,2583.594,398.111Zm-13.029,21.232c-1.148.634-2.2,1.231-3.259,1.8-1.4.743-1.739.661-2.733-.565a1.747,1.747,0,0,0-2.033-.645,1.679,1.679,0,0,0-1.229,1.645,1.738,1.738,0,0,0,1.219,1.75c1.462.587,1.656.985,1.207,2.443a1.776,1.776,0,0,0,.609,2.129,1.688,1.688,0,0,0,2.129.007,1.749,1.749,0,0,0,.621-2.121c-.415-1.359-.235-1.794,1.019-2.449,1.178-.616,2.364-1.214,3.434-1.763Z" fill="#47280a"/><path d="M2599.5,420.85a13.427,13.427,0,0,1-5.306-3.3c-4.911-4.841-7.746-10.6-7.544-17.625a11.8,11.8,0,0,1,.7-3.44,5.786,5.786,0,0,1,7.46-3.851,12.458,12.458,0,0,1,5.06,2.784c5.521,4.961,8.6,11.056,8.311,18.6a11.208,11.208,0,0,1-.879,3.687C2606.056,420.77,2602.736,422.02,2599.5,420.85Zm3.258-11.218c.951-3.138-1.5-7.791-4.637-8.793a3.192,3.192,0,0,0-4.259,2.618,8.377,8.377,0,0,0,4.266,8.214A3.193,3.193,0,0,0,2602.754,409.632Z" fill="#057faf"/><path d="M2583.594,398.111c-.437,10.708,3.856,18.907,12.733,24.885a4.494,4.494,0,0,1-.874.125c-2.219-.085-4.436-.2-6.655-.29-2.345-.09-4.694-.27-7.035-.194a9.642,9.642,0,0,1-5.36-.974c-3.785-2.2-4.559-6.987-1.744-10.681a5.489,5.489,0,0,1,.691-.789,20.636,20.636,0,0,0,4.327-6.335,57.848,57.848,0,0,1,3.537-5.412A1.909,1.909,0,0,1,2583.594,398.111Z" fill="#c69c6d"/><path d="M2570.565,419.343l.984,2.227c-1.07.549-2.256,1.147-3.434,1.763-1.254.655-1.434,1.09-1.019,2.449a1.749,1.749,0,0,1-.621,2.121,1.688,1.688,0,0,1-2.129-.007,1.776,1.776,0,0,1-.609-2.129c.449-1.458.255-1.856-1.207-2.443a1.738,1.738,0,0,1-1.219-1.75,1.679,1.679,0,0,1,1.229-1.645,1.747,1.747,0,0,1,2.033.645c.994,1.226,1.336,1.308,2.733.565C2568.369,420.574,2569.417,419.977,2570.565,419.343Z" fill="#fff"/><path d="M2602.754,409.632a3.193,3.193,0,0,1-4.63,2.039,8.377,8.377,0,0,1-4.266-8.214,3.192,3.192,0,0,1,4.259-2.618C2601.251,401.841,2603.705,406.494,2602.754,409.632Zm-5.8-5.893c-.495,2.067,1.192,5.059,2.846,5.137C2600.257,406.887,2598.8,404.212,2596.952,403.739Z" fill="#47280a"/><path d="M2596.952,403.739c1.852.473,3.305,3.148,2.846,5.137C2598.144,408.8,2596.457,405.806,2596.952,403.739Z" fill="#fff"/></g></g></svg>